<svg width="404" height="507" viewBox="0 0 404 507" fill="none" xmlns="http://www.w3.org/2000/svg">
<g filter="url(#filter0_d_140:21337)">
<g filter="url(#filter1_d_140:21337)">
<path d="M73.8782 45.5584C74.5941 40.6443 78.8078 37 83.7738 37H356.498C362.617 37 367.301 42.4461 366.385 48.4961L329.162 294.496C328.422 299.386 324.219 303 319.274 303H47.9373C41.8407 303 37.1629 297.591 38.0418 291.558L73.8782 45.5584Z" fill="url(#paint0_linear_140:21337)"/>
<path d="M73.8782 45.5584C74.5941 40.6443 78.8078 37 83.7738 37H356.498C362.617 37 367.301 42.4461 366.385 48.4961L329.162 294.496C328.422 299.386 324.219 303 319.274 303H47.9373C41.8407 303 37.1629 297.591 38.0418 291.558L73.8782 45.5584Z" stroke="#FF00E5" stroke-width="6"/>
</g>
<path d="M74.5538 40.9208C74.8818 38.6695 76.8121 37 79.0872 37H356.498C362.617 37 367.301 42.4461 366.385 48.4961L328.514 298.775C328.147 301.204 326.059 303 323.602 303H301.22C161.572 303 54.4228 179.111 74.5538 40.9208Z" fill="url(#paint1_linear_140:21337)" fill-opacity="0.1"/>
</g>
<g filter="url(#filter2_d_140:21337)">
<path d="M71.5368 383.385C74.1294 369.119 86.5538 358.749 101.053 358.749H276.485C282.724 358.749 287.439 364.399 286.324 370.537L276.929 422.231C274.337 436.497 261.912 446.867 247.413 446.867H71.9811C65.7424 446.867 61.0268 441.217 62.1423 435.078L71.5368 383.385Z" fill="#FEDD87"/>
<path d="M72.5207 383.564C75.0269 369.773 87.0372 359.749 101.053 359.749H276.485C282.1 359.749 286.344 364.834 285.34 370.358L275.945 422.052C273.439 435.842 261.429 445.867 247.413 445.867H71.9811C66.3663 445.867 62.1222 440.782 63.1262 435.257L72.5207 383.564Z" stroke="white" stroke-width="2"/>
</g>
<path d="M72.0707 378.636C74.6633 364.37 87.0878 354 101.587 354H277.019C283.258 354 287.973 359.65 286.858 365.788L277.463 417.482C274.871 431.747 262.446 442.118 247.947 442.118H72.5151C66.2764 442.118 61.5607 436.468 62.6762 430.329L72.0707 378.636Z" fill="url(#paint2_linear_140:21337)"/>
<path d="M73.5203 376.815C75.1511 363.781 86.232 354 99.3683 354H278.015L270.229 360.632H88.8314L73.5203 376.815Z" fill="#FF8A00" fill-opacity="0.2"/>
<path d="M67.7402 404.918L69.8754 435.785L256.171 429.19L263.111 435.785L279.926 399.905L276.979 417.166C274.518 431.578 262.027 442.117 247.407 442.117H72.6571C66.3713 442.117 61.6441 436.386 62.8396 430.215L67.7402 404.918Z" fill="white" fill-opacity="0.26"/>
<path d="M73.0546 378.815C75.5608 365.024 87.5711 355 101.587 355H277.019C282.634 355 286.878 360.085 285.874 365.609L276.479 417.303C273.973 431.093 261.963 441.118 247.947 441.118H72.5151C66.9002 441.118 62.6562 436.033 63.6601 430.508L73.0546 378.815Z" stroke="white" stroke-width="2"/>
<path d="M125.447 400.85C124.579 400.23 123.587 399.569 122.471 398.866C121.397 398.163 120.363 397.419 119.371 396.634C118.421 395.807 117.615 394.981 116.953 394.154C116.292 393.286 115.961 392.397 115.961 391.488C115.961 390.744 116.271 390.103 116.891 389.566C117.553 388.987 118.214 388.698 118.875 388.698C119.867 388.698 120.446 388.967 120.611 389.504C120.818 390 120.963 390.579 121.045 391.24C121.128 391.86 121.335 392.439 121.665 392.976C122.037 393.472 122.885 393.72 124.207 393.72C124.827 393.72 125.406 393.699 125.943 393.658C126.481 393.617 127.059 393.596 127.679 393.596H128.671C129.333 393.596 129.849 393.493 130.221 393.286C130.593 393.038 130.779 392.604 130.779 391.984C130.779 390.868 130.738 389.876 130.655 389.008C130.614 388.099 130.366 387.169 129.911 386.218C129.663 385.722 129.333 385.205 128.919 384.668C128.547 384.089 128.072 383.552 127.493 383.056C126.956 382.56 126.357 382.126 125.695 381.754C125.034 381.382 124.311 381.155 123.525 381.072C122.988 381.031 122.719 380.741 122.719 380.204V375.12C122.595 374.872 122.223 374.686 121.603 374.562C121.025 374.438 120.405 374.376 119.743 374.376C119.082 374.335 118.503 374.314 118.007 374.314C117.511 374.314 117.305 374.314 117.387 374.314C117.015 374.314 116.623 374.314 116.209 374.314C115.796 374.273 115.403 374.293 115.031 374.376C114.659 374.417 114.349 374.521 114.101 374.686C113.895 374.81 113.791 375.017 113.791 375.306C113.791 375.389 113.812 375.657 113.853 376.112C113.895 376.567 113.915 377.063 113.915 377.6C113.957 378.137 113.998 378.633 114.039 379.088C114.081 379.543 114.101 379.811 114.101 379.894C114.101 380.101 114.122 380.287 114.163 380.452C114.205 380.576 114.122 380.679 113.915 380.762C112.965 381.051 111.973 381.485 110.939 382.064C109.906 382.643 109.038 383.283 108.335 383.986C107.55 384.771 106.971 385.639 106.599 386.59C106.269 387.541 106.103 388.533 106.103 389.566C106.103 391.054 106.413 392.542 107.033 394.03C107.695 395.518 108.501 396.799 109.451 397.874C110.361 398.866 111.456 399.837 112.737 400.788C114.019 401.739 115.238 402.731 116.395 403.764C117.594 404.797 118.607 405.872 119.433 406.988C120.26 408.104 120.673 409.323 120.673 410.646C120.673 411.307 120.363 411.845 119.743 412.258C119.123 412.671 118.483 412.878 117.821 412.878C116.747 412.878 116.044 412.589 115.713 412.01C115.383 411.431 115.217 410.811 115.217 410.15C115.217 409.819 115.197 409.509 115.155 409.22C115.155 408.889 115.155 408.559 115.155 408.228C115.155 407.608 115.011 407.153 114.721 406.864C114.473 406.575 114.143 406.389 113.729 406.306C113.357 406.223 112.903 406.203 112.365 406.244C111.869 406.244 111.373 406.223 110.877 406.182C110.505 406.141 110.113 406.099 109.699 406.058C109.327 406.017 108.914 405.996 108.459 405.996C107.757 405.996 107.199 406.058 106.785 406.182C106.413 406.265 106.124 406.43 105.917 406.678C105.752 406.885 105.649 407.195 105.607 407.608C105.607 408.021 105.607 408.538 105.607 409.158C105.607 410.522 105.669 411.783 105.793 412.94C105.917 414.097 106.186 415.151 106.599 416.102C107.054 417.011 107.715 417.817 108.583 418.52C109.493 419.223 110.691 419.822 112.179 420.318C112.882 420.525 113.357 420.835 113.605 421.248C113.853 421.661 113.998 422.116 114.039 422.612C114.122 423.108 114.122 423.604 114.039 424.1C113.998 424.637 113.998 425.113 114.039 425.526C114.122 425.981 114.308 426.332 114.597 426.58C114.928 426.869 115.465 427.014 116.209 427.014H117.945C118.4 427.014 118.834 426.993 119.247 426.952C119.702 426.952 120.136 426.952 120.549 426.952C121.417 426.952 122.017 426.787 122.347 426.456C122.719 426.167 122.905 425.774 122.905 425.278V425.03C122.905 424.906 122.905 424.617 122.905 424.162C122.905 423.749 122.905 423.294 122.905 422.798C122.905 422.343 122.905 421.889 122.905 421.434C122.947 421.021 122.967 420.752 122.967 420.628C123.05 420.628 123.277 420.525 123.649 420.318C124.021 420.111 124.414 419.884 124.827 419.636C125.282 419.347 125.695 419.078 126.067 418.83C126.481 418.582 126.749 418.396 126.873 418.272C128.196 417.197 129.126 416.061 129.663 414.862C130.242 413.663 130.531 412.403 130.531 411.08C130.531 410.212 130.407 409.303 130.159 408.352C129.953 407.401 129.622 406.471 129.167 405.562C128.754 404.611 128.237 403.743 127.617 402.958C126.997 402.131 126.274 401.429 125.447 400.85ZM155.847 400.602C155.805 400.313 155.785 399.548 155.785 398.308C155.785 397.027 155.785 395.539 155.785 393.844C155.826 392.149 155.867 390.351 155.909 388.45C155.991 386.507 156.053 384.73 156.095 383.118C156.136 381.465 156.177 380.101 156.219 379.026C156.26 377.951 156.281 377.393 156.281 377.352H156.157C155.826 377.311 155.165 377.311 154.173 377.352C153.181 377.352 152.147 377.373 151.073 377.414C149.998 377.414 148.985 377.435 148.035 377.476C147.125 377.476 146.588 377.476 146.423 377.476C146.381 377.476 146.361 377.497 146.361 377.538C144.046 381.01 142.103 384.027 140.533 386.59C139.003 389.153 137.722 391.343 136.689 393.162C135.697 394.939 134.911 396.386 134.333 397.502C133.754 398.577 133.258 399.403 132.845 399.982C132.762 402.462 132.824 404.508 133.031 406.12C133.237 407.732 133.382 408.683 133.465 408.972C133.506 409.055 133.837 409.117 134.457 409.158C135.077 409.158 135.841 409.158 136.751 409.158C137.701 409.158 138.714 409.158 139.789 409.158C140.905 409.117 141.938 409.096 142.889 409.096C143.881 409.096 144.728 409.117 145.431 409.158C146.133 409.199 146.567 409.241 146.733 409.282C146.733 409.365 146.712 409.716 146.671 410.336C146.629 410.956 146.567 411.7 146.485 412.568C146.443 413.436 146.381 414.366 146.299 415.358C146.257 416.35 146.216 417.28 146.175 418.148C146.133 418.975 146.092 419.677 146.051 420.256C146.009 420.835 146.009 421.145 146.051 421.186C148.903 421.145 151.031 421.124 152.437 421.124C153.883 421.165 154.731 421.041 154.979 420.752C155.02 420.587 155.061 420.194 155.103 419.574C155.144 418.954 155.185 418.231 155.227 417.404C155.309 416.577 155.371 415.73 155.413 414.862C155.495 413.953 155.557 413.126 155.599 412.382C155.681 411.597 155.743 410.977 155.785 410.522C155.826 410.026 155.847 409.799 155.847 409.84C156.425 409.716 157.025 409.716 157.645 409.84C158.306 409.923 158.967 409.861 159.629 409.654L160.001 400.664C159.505 400.664 158.885 400.623 158.141 400.54C157.397 400.457 156.756 400.457 156.219 400.54L155.847 400.602ZM148.407 400.726C148.117 400.767 147.518 400.788 146.609 400.788C145.741 400.788 144.831 400.788 143.881 400.788C142.93 400.747 142.083 400.726 141.339 400.726C140.595 400.685 140.223 400.664 140.223 400.664C140.264 400.581 140.491 400.168 140.905 399.424C141.359 398.68 141.897 397.791 142.517 396.758C143.137 395.683 143.798 394.567 144.501 393.41C145.203 392.211 145.844 391.137 146.423 390.186C147.043 389.235 147.539 388.491 147.911 387.954C148.324 387.375 148.551 387.21 148.593 387.458L148.407 400.726ZM169.737 421V420.938V420.876C169.737 420.587 169.757 420.049 169.799 419.264C169.84 418.479 169.881 417.673 169.923 416.846C169.964 416.019 170.005 415.296 170.047 414.676C170.088 414.015 170.109 413.663 170.109 413.622C169.819 413.498 169.323 413.415 168.621 413.374C167.959 413.291 167.236 413.25 166.451 413.25C165.665 413.25 164.88 413.291 164.095 413.374C163.351 413.457 162.772 413.581 162.358 413.746C162.358 414.035 162.338 414.49 162.297 415.11C162.297 415.73 162.276 416.391 162.235 417.094C162.235 417.797 162.235 418.499 162.235 419.202C162.276 419.905 162.338 420.483 162.421 420.938H162.607L169.613 421H169.737ZM201.447 391.798C201.405 389.69 201.281 387.644 201.075 385.66C200.868 383.676 200.289 381.961 199.339 380.514C198.719 379.563 197.975 378.861 197.107 378.406C196.239 377.91 195.288 377.579 194.255 377.414C193.263 377.207 192.209 377.104 191.093 377.104C190.018 377.104 188.964 377.083 187.931 377.042C185.657 377.125 183.467 377.538 181.359 378.282C179.251 379.026 177.515 380.204 176.151 381.816C175.861 382.147 175.613 382.498 175.407 382.87C175.2 383.201 174.993 383.552 174.787 383.924C174.415 384.833 174.146 385.887 173.981 387.086C173.815 388.285 173.753 389.525 173.795 390.806C173.877 392.046 174.063 393.265 174.353 394.464C174.683 395.663 175.138 396.696 175.717 397.564C176.502 398.763 177.453 399.796 178.569 400.664C179.726 401.491 180.966 402.131 182.289 402.586C183.653 403.041 185.058 403.268 186.505 403.268C187.993 403.227 189.419 402.917 190.783 402.338L190.845 402.4C190.886 403.185 190.886 404.012 190.845 404.88C190.803 405.748 190.659 406.554 190.411 407.298C190.204 408.042 189.853 408.662 189.357 409.158C188.902 409.654 188.303 409.943 187.559 410.026C186.608 410.109 185.761 409.861 185.017 409.282C184.314 408.662 183.859 407.939 183.653 407.112C182.123 406.905 180.47 406.864 178.693 406.988C176.957 407.112 175.365 407.195 173.919 407.236V407.546C173.505 410.729 174.001 413.374 175.407 415.482C176.109 416.515 177.039 417.425 178.197 418.21C179.395 418.995 180.697 419.636 182.103 420.132C183.549 420.628 185.058 420.959 186.629 421.124C188.199 421.331 189.708 421.331 191.155 421.124C192.643 420.917 194.027 420.525 195.309 419.946C196.59 419.326 197.665 418.499 198.533 417.466C199.401 416.267 200.083 414.965 200.579 413.56C201.075 412.113 201.426 410.625 201.633 409.096C201.798 407.732 201.839 406.389 201.757 405.066C201.674 403.702 201.612 402.338 201.571 400.974L201.447 391.798ZM192.023 391.116C191.94 391.323 191.899 391.467 191.899 391.55C191.899 391.591 191.857 391.715 191.775 391.922C191.692 392.087 191.63 392.211 191.589 392.294C191.589 392.335 191.527 392.459 191.403 392.666C191.072 393.162 190.597 393.534 189.977 393.782C189.398 394.03 188.778 394.133 188.117 394.092C187.497 394.051 186.877 393.865 186.257 393.534C185.678 393.203 185.244 392.728 184.955 392.108V392.046C184.831 391.715 184.727 391.364 184.645 390.992C184.603 390.579 184.562 390.165 184.521 389.752C184.521 389.132 184.707 388.636 185.079 388.264C185.451 387.892 185.905 387.603 186.443 387.396C187.063 387.107 187.724 386.983 188.427 387.024C189.129 387.024 189.749 387.169 190.287 387.458C190.865 387.747 191.32 388.14 191.651 388.636C191.981 389.132 192.126 389.69 192.085 390.31C192.085 390.641 192.064 390.909 192.023 391.116ZM233.234 391.798C233.192 389.69 233.068 387.644 232.862 385.66C232.655 383.676 232.076 381.961 231.126 380.514C230.506 379.563 229.762 378.861 228.894 378.406C228.026 377.91 227.075 377.579 226.042 377.414C225.05 377.207 223.996 377.104 222.88 377.104C221.805 377.104 220.751 377.083 219.718 377.042C217.444 377.125 215.254 377.538 213.146 378.282C211.038 379.026 209.302 380.204 207.938 381.816C207.648 382.147 207.4 382.498 207.194 382.87C206.987 383.201 206.78 383.552 206.574 383.924C206.202 384.833 205.933 385.887 205.768 387.086C205.602 388.285 205.54 389.525 205.582 390.806C205.664 392.046 205.85 393.265 206.14 394.464C206.47 395.663 206.925 396.696 207.504 397.564C208.289 398.763 209.24 399.796 210.356 400.664C211.513 401.491 212.753 402.131 214.076 402.586C215.44 403.041 216.845 403.268 218.292 403.268C219.78 403.227 221.206 402.917 222.57 402.338L222.632 402.4C222.673 403.185 222.673 404.012 222.632 404.88C222.59 405.748 222.446 406.554 222.198 407.298C221.991 408.042 221.64 408.662 221.144 409.158C220.689 409.654 220.09 409.943 219.346 410.026C218.395 410.109 217.548 409.861 216.804 409.282C216.101 408.662 215.646 407.939 215.44 407.112C213.91 406.905 212.257 406.864 210.48 406.988C208.744 407.112 207.152 407.195 205.706 407.236V407.546C205.292 410.729 205.788 413.374 207.194 415.482C207.896 416.515 208.826 417.425 209.984 418.21C211.182 418.995 212.484 419.636 213.89 420.132C215.336 420.628 216.845 420.959 218.416 421.124C219.986 421.331 221.495 421.331 222.942 421.124C224.43 420.917 225.814 420.525 227.096 419.946C228.377 419.326 229.452 418.499 230.32 417.466C231.188 416.267 231.87 414.965 232.366 413.56C232.862 412.113 233.213 410.625 233.42 409.096C233.585 407.732 233.626 406.389 233.544 405.066C233.461 403.702 233.399 402.338 233.358 400.974L233.234 391.798ZM223.81 391.116C223.727 391.323 223.686 391.467 223.686 391.55C223.686 391.591 223.644 391.715 223.562 391.922C223.479 392.087 223.417 392.211 223.376 392.294C223.376 392.335 223.314 392.459 223.19 392.666C222.859 393.162 222.384 393.534 221.764 393.782C221.185 394.03 220.565 394.133 219.904 394.092C219.284 394.051 218.664 393.865 218.044 393.534C217.465 393.203 217.031 392.728 216.742 392.108V392.046C216.618 391.715 216.514 391.364 216.432 390.992C216.39 390.579 216.349 390.165 216.308 389.752C216.308 389.132 216.494 388.636 216.866 388.264C217.238 387.892 217.692 387.603 218.23 387.396C218.85 387.107 219.511 386.983 220.214 387.024C220.916 387.024 221.536 387.169 222.074 387.458C222.652 387.747 223.107 388.14 223.438 388.636C223.768 389.132 223.913 389.69 223.872 390.31C223.872 390.641 223.851 390.909 223.81 391.116Z" fill="black"/>
<path d="M227.109 218.927C221.386 218.927 171.17 218.285 171.17 196.156V183.666V183.185C170.02 181.184 169.414 178.949 169.406 176.678V164.389C169.495 163.501 169.743 162.632 170.138 161.819C168.943 159.804 168.321 157.536 168.331 155.233V144.55C168.269 143.533 168.269 142.514 168.331 141.498C168.664 139.221 169.782 137.107 171.515 135.474C171.473 134.925 171.473 134.375 171.515 133.827V121.498C171.47 120.829 171.47 120.158 171.515 119.49C171.814 117.618 172.597 115.843 173.797 114.317C174.996 112.792 176.576 111.562 178.399 110.735C181.749 108.788 185.389 107.313 189.2 106.357C192.505 105.372 195.885 104.62 199.312 104.108C209.264 102.54 219.339 101.747 229.432 101.739C238.513 101.58 247.582 102.416 256.454 104.229C262.8 105.628 268.92 107.802 274.656 110.695C276.877 111.75 278.741 113.36 280.04 115.345C281.339 117.33 282.022 119.613 282.014 121.94V133.506C281.992 136.631 280.874 139.664 278.83 142.14C278.871 142.554 278.871 142.971 278.83 143.385V154.952C278.83 156.172 278.657 157.388 278.313 158.566C279.576 160.443 280.247 162.615 280.25 164.831V176.397C280.314 176.998 280.314 177.604 280.25 178.205C281.409 180.057 282.019 182.164 282.014 184.309V195.875C282.014 212.903 252.324 218.927 227.109 218.927Z" fill="white"/>
<g filter="url(#filter3_d_140:21337)">
<path d="M229.389 103.747C238.296 103.609 247.19 104.431 255.895 106.197C262.001 107.544 267.889 109.637 273.408 112.422C275.287 113.31 276.86 114.674 277.948 116.357C279.036 118.04 279.595 119.974 279.561 121.94V133.506C279.494 136.455 278.339 139.292 276.291 141.538C276.355 142.126 276.355 142.718 276.291 143.305V154.871C276.293 156.239 276.046 157.597 275.559 158.888C276.941 160.602 277.695 162.686 277.711 164.831V176.398C277.708 177.154 277.621 177.907 277.453 178.647C278.698 180.307 279.373 182.282 279.389 184.309V195.875C279.389 210.414 252.969 216.92 226.807 216.92C206.885 216.92 173.15 212.542 173.15 196.157V183.867V183.426C173.15 183.185 173.15 182.984 173.15 182.823C171.952 180.968 171.313 178.845 171.3 176.679V164.39C171.253 163.459 171.46 162.534 171.902 161.699C170.583 159.767 169.881 157.524 169.88 155.233V144.55C169.88 144.55 169.88 142.663 169.88 141.699C170.331 139.54 171.506 137.57 173.236 136.076C173.063 135.338 172.976 134.583 172.978 133.827V121.498C172.932 120.95 172.932 120.399 172.978 119.851C173.231 118.245 173.91 116.724 174.955 115.426C176 114.128 177.376 113.095 178.959 112.422C182.163 110.601 185.645 109.247 189.286 108.406C192.471 107.421 195.738 106.682 199.053 106.197C208.88 104.664 218.824 103.885 228.787 103.867L229.389 103.747ZM228.787 99.8514C218.595 99.8804 208.421 100.673 198.365 102.221C194.837 102.774 191.357 103.565 187.952 104.59C184.17 105.627 180.564 107.155 177.238 109.129C175.155 110.111 173.351 111.541 171.975 113.3C170.598 115.059 169.689 117.098 169.32 119.249C169.248 120.037 169.248 120.83 169.32 121.618V133.948C169.299 134.282 169.299 134.617 169.32 134.952C167.622 136.723 166.502 138.911 166.093 141.257C166.004 142.38 166.004 143.508 166.093 144.631V155.153C166.094 157.513 166.652 159.844 167.728 161.98C167.648 162.822 167.648 163.668 167.728 164.51V176.558C167.721 178.911 168.295 181.233 169.406 183.345V196.036C169.406 214.349 200.602 220.815 227.367 220.815C254.131 220.815 284.251 214.269 284.251 195.755V184.309C284.243 182.038 283.638 179.804 282.487 177.803C282.487 177.321 282.487 176.88 282.487 176.398V164.831C282.492 162.541 281.869 160.288 280.68 158.285C280.936 157.19 281.066 156.073 281.067 154.952V142.703C283.053 139.991 284.131 136.79 284.165 133.506V121.94C284.112 119.296 283.302 116.714 281.819 114.462C280.336 112.209 278.234 110.368 275.732 109.129C269.809 106.097 263.488 103.802 256.928 102.301C247.89 100.428 238.645 99.5655 229.389 99.7309L228.787 99.8514Z" fill="#1F093D"/>
</g>
<path d="M271.085 183.586H182.057C181.486 183.586 180.939 183.798 180.536 184.174C180.132 184.551 179.906 185.062 179.906 185.594V196.156C179.906 205.393 205.422 210.895 228.615 210.895C251.807 210.895 273.408 205.072 273.408 195.875V185.434C273.353 184.904 273.08 184.416 272.647 184.071C272.213 183.726 271.653 183.552 271.085 183.586Z" fill="#FFB700"/>
<path d="M196.902 194.871H194.407V206.959H196.902V194.871Z" fill="#C47F0B"/>
<path d="M227.109 212.903C207.272 212.903 177.754 208.445 177.754 196.156V184.509C177.754 182.461 179.432 179.489 182.057 179.489L271.085 181.015C272.226 181.015 273.32 181.438 274.127 182.192C274.934 182.945 275.388 183.966 275.388 185.031V195.875C275.388 207.039 251.076 212.903 227.109 212.903ZM182.444 183.505C182.228 183.805 182.095 184.15 182.057 184.509V196.156C182.057 202.943 203.098 208.887 227.109 208.887C251.119 208.887 271.085 202.943 271.085 195.875V185.031L182.444 183.505Z" fill="#C47F0B"/>
<path d="M226.549 196.638C251.122 196.638 271.041 191.244 271.041 184.59C271.041 177.936 251.122 172.542 226.549 172.542C201.977 172.542 182.057 177.936 182.057 184.59C182.057 191.244 201.977 196.638 226.549 196.638Z" fill="#FFCF00"/>
<path d="M226.549 196.638C251.122 196.638 271.041 191.244 271.041 184.59C271.041 177.936 251.122 172.542 226.549 172.542C201.977 172.542 182.057 177.936 182.057 184.59C182.057 191.244 201.977 196.638 226.549 196.638Z" fill="url(#paint3_linear_140:21337)"/>
<path d="M226.936 191.819C204.174 191.819 193.933 187.803 190.017 185.634C187.736 184.309 188.683 183.425 189.458 182.903C193.072 180.333 203.829 176.558 226.549 176.558C249.268 176.558 262.048 181.096 265.275 183.746C265.878 184.228 265.275 184.911 263.425 186.317C260.026 188.726 250 191.819 226.936 191.819Z" fill="#FBBB00"/>
<path d="M265.362 183.747C262.048 181.097 249.699 176.558 226.635 176.558C221.476 176.541 216.319 176.783 211.188 177.281C214.243 177.281 217.513 177 221.171 177C244.32 177 258.563 181.016 261.876 183.747C262.479 184.229 262.823 184.832 260.8 186.237C253.887 189.378 246.363 191.181 238.683 191.538C253.615 190.695 260.757 188.285 263.597 186.318C265.534 184.912 265.964 184.229 265.362 183.747Z" fill="#C47F0B"/>
<path d="M199.656 181.177C209.669 180.325 219.734 180.137 229.776 180.615C237.564 180.896 246.213 181.94 256.454 182.904C247.386 179.871 237.817 178.348 228.184 178.406C218.574 177.77 208.919 178.708 199.656 181.177Z" fill="#FFCF00"/>
<path d="M228.357 199.25C204.002 199.25 177.754 193.547 177.754 184.31C177.754 175.073 202.281 169.973 226.549 169.973C250.818 169.973 275.388 174.912 275.388 184.31C275.388 193.708 251.162 199.25 228.357 199.25ZM226.549 173.989C199.398 173.989 182.057 180.093 182.057 184.31C182.057 188.527 201.506 195.234 228.357 195.234C255.207 195.234 271.085 188.888 271.085 184.31C271.085 179.732 253.744 173.989 226.549 173.989Z" fill="#C47F0B"/>
<path d="M206.11 195.955H203.614V208.566H206.11V195.955Z" fill="#C47F0B"/>
<path d="M261.962 192.702H259.466V204.871H261.962V192.702Z" fill="#C47F0B"/>
<path d="M252.538 196.277H250.043V207.322H252.538V196.277Z" fill="#C47F0B"/>
<path d="M241.007 197.241H238.511V210.052H241.007V197.241Z" fill="#C47F0B"/>
<path d="M218.589 197.522H216.094V210.655H218.589V197.522Z" fill="#C47F0B"/>
<path d="M230.336 197.643H227.841V210.454H230.336V197.643Z" fill="#C47F0B"/>
<path d="M188.555 191.778H186.059V203.867H188.555V191.778Z" fill="#C47F0B"/>
<path d="M214.587 189.45C214.587 189.45 239.2 191.096 245.31 189.45C245.31 189.45 228.099 184.911 214.587 189.45Z" fill="#FFCF00"/>
<path d="M269.406 164.108H180.379C179.808 164.108 179.261 164.32 178.857 164.697C178.454 165.073 178.227 165.584 178.227 166.116V176.679C178.227 185.916 203.786 191.418 226.979 191.418C250.172 191.418 271.557 185.434 271.557 176.398V166.116C271.546 165.587 271.316 165.082 270.915 164.708C270.514 164.334 269.973 164.119 269.406 164.108Z" fill="#FFB700"/>
<path d="M195.224 175.394H192.728V187.482H195.224V175.394Z" fill="#C47F0B"/>
<path d="M225.43 193.465C205.594 193.465 176.076 189.008 176.076 176.718V165.072C176.076 163.024 177.754 160.052 180.379 160.052L269.406 161.578C270.547 161.578 271.642 162.001 272.449 162.754C273.256 163.507 273.709 164.529 273.709 165.594V176.437C273.709 187.562 249.398 193.465 225.43 193.465ZM180.766 164.028C180.568 164.336 180.437 164.677 180.379 165.032V176.678C180.379 183.465 201.42 189.409 225.43 189.409C249.441 189.409 269.406 183.465 269.406 176.397V165.554L180.766 164.028Z" fill="#C47F0B"/>
<path d="M224.871 177.161C249.443 177.161 269.363 171.767 269.363 165.113C269.363 158.459 249.443 153.064 224.871 153.064C200.298 153.064 180.378 158.459 180.378 165.113C180.378 171.767 200.298 177.161 224.871 177.161Z" fill="#FFCF00"/>
<path d="M224.871 177.161C249.443 177.161 269.363 171.767 269.363 165.113C269.363 158.459 249.443 153.064 224.871 153.064C200.298 153.064 180.378 158.459 180.378 165.113C180.378 171.767 200.298 177.161 224.871 177.161Z" fill="url(#paint4_linear_140:21337)"/>
<path d="M225.259 172.342C202.496 172.342 192.255 168.326 188.339 166.157C186.059 164.832 187.049 163.949 187.823 163.426C191.395 160.856 202.152 157.081 224.871 157.081C247.591 157.081 260.37 161.619 263.598 164.27C264.2 164.752 263.598 165.434 261.747 166.84C258.348 169.37 248.322 172.342 225.259 172.342Z" fill="#FBBB00"/>
<path d="M198.021 161.698C207.953 160.922 217.932 160.801 227.883 161.337C235.671 161.618 244.32 162.662 254.561 163.626C245.493 160.593 235.924 159.07 226.291 159.128C216.779 158.449 207.213 159.318 198.021 161.698Z" fill="#FFCF00"/>
<path d="M226.678 179.771C202.367 179.771 176.076 174.068 176.076 164.831C176.076 155.595 200.645 150.494 224.871 150.494C249.096 150.494 273.709 155.434 273.709 164.831C273.709 174.229 249.484 179.771 226.678 179.771ZM224.871 154.51C197.719 154.51 180.379 160.615 180.379 164.831C180.379 169.048 199.828 175.755 226.678 175.755C253.528 175.755 269.406 169.41 269.406 164.831C269.406 160.253 251.893 154.51 224.871 154.51Z" fill="#C47F0B"/>
<path d="M204.432 176.478H201.937V189.088H204.432V176.478Z" fill="#C47F0B"/>
<path d="M260.285 173.226H257.789V185.394H260.285V173.226Z" fill="#C47F0B"/>
<path d="M250.904 176.799H248.408V187.843H250.904V176.799Z" fill="#C47F0B"/>
<path d="M239.329 177.764H236.833V190.575H239.329V177.764Z" fill="#C47F0B"/>
<path d="M216.911 178.044H214.415V191.217H216.911V178.044Z" fill="#C47F0B"/>
<path d="M228.658 178.165H226.162V190.976H228.658V178.165Z" fill="#C47F0B"/>
<path d="M186.876 172.302H184.38V184.39H186.876V172.302Z" fill="#C47F0B"/>
<path d="M212.909 169.771C212.909 169.771 237.522 171.418 243.632 169.771C243.632 169.771 226.42 165.353 212.909 169.771Z" fill="#FFCF00"/>
<path d="M267.986 142.662H178.958C178.391 142.672 177.85 142.887 177.449 143.262C177.048 143.636 176.818 144.141 176.807 144.67V155.232C176.807 164.469 202.366 169.971 225.559 169.971C248.752 169.971 270.137 164.148 270.137 154.951V144.67C270.137 144.406 270.082 144.145 269.974 143.902C269.865 143.658 269.707 143.437 269.507 143.25C269.307 143.064 269.07 142.916 268.809 142.815C268.548 142.714 268.268 142.662 267.986 142.662Z" fill="#FFB700"/>
<path d="M193.804 153.908H191.308V165.997H193.804V153.908Z" fill="#C47F0B"/>
<path d="M224.01 171.979C204.174 171.979 174.656 167.521 174.656 155.232V143.586C174.656 141.537 176.334 138.565 178.958 138.565L268.029 140.092C269.17 140.092 270.265 140.515 271.072 141.268C271.879 142.021 272.332 143.042 272.332 144.108V154.951C272.289 166.116 248.02 171.979 224.01 171.979ZM179.346 142.581C179.148 142.89 179.017 143.231 178.958 143.586V155.232C178.958 162.019 200.043 167.963 224.01 167.963C247.977 167.963 267.986 162.019 267.986 154.951V144.108L179.346 142.581Z" fill="#C47F0B"/>
<path d="M223.494 155.715C248.067 155.715 267.987 150.32 267.987 143.666C267.987 137.012 248.067 131.618 223.494 131.618C198.922 131.618 179.002 137.012 179.002 143.666C179.002 150.32 198.922 155.715 223.494 155.715Z" fill="#FFCF00"/>
<path d="M223.494 155.715C248.067 155.715 267.987 150.32 267.987 143.666C267.987 137.012 248.067 131.618 223.494 131.618C198.922 131.618 179.002 137.012 179.002 143.666C179.002 150.32 198.922 155.715 223.494 155.715Z" fill="url(#paint5_linear_140:21337)"/>
<path d="M223.881 150.895C201.076 150.895 190.835 146.879 186.962 144.71C184.639 143.385 185.628 142.501 186.403 141.979C190.017 139.409 200.775 135.634 223.494 135.634C246.214 135.634 258.95 140.132 262.22 142.823C262.823 143.304 262.22 143.987 260.37 145.393C256.971 147.802 246.945 150.895 223.881 150.895Z" fill="#FBBB00"/>
<path d="M262.264 142.823C258.95 140.132 246.644 135.634 223.537 135.634C217.556 135.634 212.479 135.915 208.047 136.317C211.102 136.317 214.415 136.076 218.073 136.076C241.222 136.076 255.422 140.092 258.735 142.823C259.338 143.304 259.725 143.907 257.703 145.312C250.775 148.458 243.237 150.261 235.543 150.614C250.517 149.77 257.66 147.361 260.457 145.393C262.436 143.987 262.866 143.304 262.264 142.823Z" fill="#C47F0B"/>
<path d="M196.601 140.252C206.614 139.4 216.679 139.212 226.721 139.69C234.509 139.971 243.158 141.015 253.399 141.979C244.315 138.95 234.733 137.428 225.086 137.481C215.49 136.823 205.845 137.761 196.601 140.252Z" fill="#FFCF00"/>
<path d="M225.301 158.326C200.946 158.326 174.656 152.624 174.656 143.387C174.656 134.15 199.225 129.21 223.494 129.21C247.762 129.21 272.289 134.11 272.289 143.547C272.289 152.985 248.063 158.326 225.301 158.326ZM223.494 133.226C196.299 133.226 178.958 139.33 178.958 143.547C178.958 147.764 198.408 154.471 225.301 154.471C252.194 154.471 267.986 148.126 267.986 143.547C267.986 138.969 250.645 133.226 223.494 133.226Z" fill="#C47F0B"/>
<path d="M203.055 155.032H200.559V167.643H203.055V155.032Z" fill="#C47F0B"/>
<path d="M258.907 151.779H256.411V163.948H258.907V151.779Z" fill="#C47F0B"/>
<path d="M249.483 155.354H246.988V166.398H249.483V155.354Z" fill="#C47F0B"/>
<path d="M237.909 156.318H235.413V169.13H237.909V156.318Z" fill="#C47F0B"/>
<path d="M215.491 156.599H212.995V169.771H215.491V156.599Z" fill="#C47F0B"/>
<path d="M227.238 156.719H224.742V169.53H227.238V156.719Z" fill="#C47F0B"/>
<path d="M185.498 150.855H183.003V162.944H185.498V150.855Z" fill="#C47F0B"/>
<path d="M211.489 148.325C211.489 148.325 236.101 149.972 242.211 148.325C242.211 148.325 225 143.988 211.489 148.325Z" fill="#FFCF00"/>
<path d="M271.085 121.177H182.057C181.486 121.177 180.939 121.388 180.536 121.765C180.132 122.141 179.906 122.652 179.906 123.185V133.747C179.906 142.944 205.422 148.486 228.615 148.486C251.807 148.486 273.408 142.743 273.408 133.506V123.265C273.421 122.98 273.37 122.697 273.256 122.432C273.143 122.168 272.971 121.929 272.751 121.732C272.531 121.534 272.269 121.382 271.982 121.287C271.694 121.191 271.389 121.153 271.085 121.177Z" fill="#FFB700"/>
<path d="M196.902 132.502H194.407V144.59H196.902V132.502Z" fill="#C47F0B"/>
<path d="M227.109 150.574C207.272 150.574 177.754 146.116 177.754 133.827V122.14C177.754 120.092 179.432 117.12 182.057 117.12L271.085 118.686C272.226 118.686 273.32 119.11 274.127 119.863C274.934 120.616 275.388 121.637 275.388 122.702V133.506C275.388 144.71 251.076 150.574 227.109 150.574ZM182.444 121.176C182.224 121.459 182.09 121.792 182.057 122.14V133.827C182.057 140.574 203.098 146.558 227.109 146.558C251.119 146.558 271.085 140.574 271.085 133.506V122.702L182.444 121.176Z" fill="#C47F0B"/>
<path d="M226.549 134.308C251.122 134.308 271.041 128.914 271.041 122.26C271.041 115.606 251.122 110.212 226.549 110.212C201.977 110.212 182.057 115.606 182.057 122.26C182.057 128.914 201.977 134.308 226.549 134.308Z" fill="#FFCF00"/>
<path d="M226.549 134.308C251.122 134.308 271.041 128.914 271.041 122.26C271.041 115.606 251.122 110.212 226.549 110.212C201.977 110.212 182.057 115.606 182.057 122.26C182.057 128.914 201.977 134.308 226.549 134.308Z" fill="url(#paint6_linear_140:21337)"/>
<path d="M226.936 129.49C204.174 129.49 193.933 125.473 190.017 123.265C187.736 121.939 188.683 121.096 189.458 120.534C193.072 118.004 203.829 114.229 226.549 114.229C249.268 114.229 262.048 118.727 265.275 121.377C265.878 121.859 265.275 122.542 263.425 123.947C260.026 126.357 250 129.49 226.936 129.49Z" fill="#FBBB00"/>
<path d="M265.362 121.378C262.048 118.727 249.699 114.229 226.635 114.229C221.477 114.2 216.32 114.428 211.188 114.912C214.243 114.912 217.513 114.631 221.171 114.631C244.32 114.631 258.563 118.647 261.876 121.378C262.479 121.859 262.823 122.502 260.8 123.908C253.858 127.053 246.306 128.856 238.597 129.209C253.529 128.365 260.671 125.956 263.511 123.988C265.534 122.542 265.964 121.859 265.362 121.378Z" fill="#C47F0B"/>
<path d="M199.656 118.808C209.669 117.955 219.734 117.768 229.776 118.246C237.564 118.567 246.213 119.611 256.454 120.575C247.393 117.513 237.821 115.977 228.184 116.037C218.574 115.401 208.919 116.339 199.656 118.808Z" fill="#FFCF00"/>
<path d="M228.357 136.92C204.002 136.92 177.754 131.177 177.754 121.94C177.754 112.703 202.281 107.603 226.549 107.603C250.818 107.603 275.388 112.542 275.388 121.94C275.388 131.337 251.162 136.92 228.357 136.92ZM226.549 111.619C199.398 111.619 182.057 117.763 182.057 121.94C182.057 126.117 201.506 132.904 228.357 132.904C255.207 132.904 271.085 126.518 271.085 121.94C271.085 117.362 253.744 111.619 226.549 111.619Z" fill="#C47F0B"/>
<path d="M206.11 133.626H203.614V146.236H206.11V133.626Z" fill="#C47F0B"/>
<path d="M261.962 130.333H259.466V142.502H261.962V130.333Z" fill="#C47F0B"/>
<path d="M252.538 133.947H250.043V144.991H252.538V133.947Z" fill="#C47F0B"/>
<path d="M241.007 134.871H238.511V147.682H241.007V134.871Z" fill="#C47F0B"/>
<path d="M218.589 135.153H216.094V148.326H218.589V135.153Z" fill="#C47F0B"/>
<path d="M230.336 135.273H227.841V148.085H230.336V135.273Z" fill="#C47F0B"/>
<path d="M188.555 129.41H186.059V141.499H188.555V129.41Z" fill="#C47F0B"/>
<path d="M214.587 126.92C214.587 126.92 239.2 128.526 245.31 126.92C245.31 126.92 228.099 122.583 214.587 126.92Z" fill="#FFCF00"/>
<path d="M177.109 233.927C171.386 233.927 121.17 233.285 121.17 211.156V198.666V198.185C120.02 196.184 119.414 193.949 119.406 191.678V179.389C119.495 178.501 119.743 177.632 120.138 176.819C118.943 174.804 118.321 172.536 118.331 170.233V159.55C118.269 158.533 118.269 157.514 118.331 156.498C118.664 154.221 119.782 152.107 121.515 150.474C121.473 149.925 121.473 149.375 121.515 148.827V136.498C121.47 135.829 121.47 135.158 121.515 134.49C121.814 132.618 122.597 130.843 123.797 129.317C124.996 127.792 126.576 126.562 128.399 125.735C131.749 123.788 135.389 122.313 139.2 121.357C142.505 120.372 145.885 119.62 149.312 119.108C159.264 117.54 169.339 116.747 179.432 116.739C188.513 116.58 197.582 117.416 206.454 119.229C212.8 120.628 218.92 122.802 224.656 125.695C226.877 126.75 228.741 128.36 230.04 130.345C231.339 132.33 232.022 134.613 232.014 136.94V148.506C231.992 151.631 230.874 154.664 228.83 157.14C228.871 157.554 228.871 157.971 228.83 158.385V169.952C228.83 171.172 228.657 172.388 228.313 173.566C229.576 175.443 230.247 177.615 230.25 179.831V191.397C230.314 191.998 230.314 192.604 230.25 193.205C231.409 195.057 232.019 197.164 232.014 199.309V210.875C232.014 227.903 202.324 233.927 177.109 233.927Z" fill="white"/>
<g filter="url(#filter4_d_140:21337)">
<path d="M179.389 118.747C188.296 118.609 197.19 119.431 205.895 121.197C212.001 122.544 217.889 124.637 223.408 127.422C225.287 128.31 226.86 129.674 227.948 131.357C229.036 133.04 229.595 134.974 229.561 136.94V148.506C229.494 151.455 228.339 154.292 226.291 156.538C226.355 157.126 226.355 157.718 226.291 158.305V169.871C226.293 171.239 226.046 172.597 225.559 173.888C226.941 175.602 227.695 177.686 227.711 179.831V191.398C227.708 192.154 227.621 192.907 227.453 193.647C228.698 195.307 229.373 197.282 229.389 199.309V210.875C229.389 225.414 202.969 231.92 176.807 231.92C156.885 231.92 123.15 227.542 123.15 211.157V198.867V198.426C123.15 198.185 123.15 197.984 123.15 197.823C121.952 195.968 121.313 193.845 121.3 191.679V179.39C121.253 178.459 121.46 177.534 121.902 176.699C120.583 174.767 119.881 172.524 119.88 170.233V159.55C119.88 159.55 119.88 157.663 119.88 156.699C120.331 154.54 121.506 152.57 123.236 151.076C123.063 150.338 122.976 149.583 122.978 148.827V136.498C122.932 135.95 122.932 135.399 122.978 134.851C123.231 133.245 123.91 131.724 124.955 130.426C126 129.128 127.376 128.095 128.959 127.422C132.163 125.601 135.645 124.247 139.286 123.406C142.471 122.421 145.738 121.682 149.053 121.197C158.88 119.664 168.824 118.885 178.787 118.867L179.389 118.747ZM178.787 114.851C168.595 114.88 158.421 115.673 148.365 117.221C144.837 117.774 141.357 118.565 137.952 119.59C134.17 120.627 130.564 122.155 127.238 124.129C125.155 125.111 123.351 126.541 121.975 128.3C120.598 130.059 119.689 132.098 119.32 134.249C119.248 135.037 119.248 135.83 119.32 136.618V148.948C119.299 149.282 119.299 149.617 119.32 149.952C117.622 151.723 116.502 153.911 116.093 156.257C116.004 157.38 116.004 158.508 116.093 159.631V170.153C116.094 172.513 116.652 174.844 117.728 176.98C117.648 177.822 117.648 178.668 117.728 179.51V191.558C117.721 193.911 118.295 196.233 119.406 198.345V211.036C119.406 229.349 150.602 235.815 177.367 235.815C204.131 235.815 234.251 229.269 234.251 210.755V199.309C234.243 197.038 233.638 194.804 232.487 192.803C232.487 192.321 232.487 191.88 232.487 191.398V179.831C232.492 177.541 231.869 175.288 230.68 173.285C230.936 172.19 231.066 171.073 231.067 169.952V157.703C233.053 154.991 234.131 151.79 234.165 148.506V136.94C234.112 134.296 233.302 131.714 231.819 129.462C230.336 127.209 228.234 125.368 225.732 124.129C219.809 121.097 213.488 118.802 206.928 117.301C197.89 115.428 188.645 114.565 179.389 114.731L178.787 114.851Z" fill="#1F093D"/>
</g>
<path d="M221.085 198.586H132.057C131.486 198.586 130.939 198.798 130.536 199.174C130.132 199.551 129.906 200.062 129.906 200.594V211.156C129.906 220.393 155.422 225.895 178.615 225.895C201.807 225.895 223.408 220.072 223.408 210.875V200.434C223.353 199.904 223.08 199.416 222.647 199.071C222.213 198.726 221.653 198.552 221.085 198.586Z" fill="#FFB700"/>
<path d="M146.902 209.871H144.407V221.959H146.902V209.871Z" fill="#C47F0B"/>
<path d="M177.109 227.903C157.272 227.903 127.754 223.445 127.754 211.156V199.509C127.754 197.461 129.432 194.489 132.057 194.489L221.085 196.015C222.226 196.015 223.32 196.438 224.127 197.192C224.934 197.945 225.388 198.966 225.388 200.031V210.875C225.388 222.039 201.076 227.903 177.109 227.903ZM132.444 198.505C132.228 198.805 132.095 199.15 132.057 199.509V211.156C132.057 217.943 153.098 223.887 177.109 223.887C201.119 223.887 221.085 217.943 221.085 210.875V200.031L132.444 198.505Z" fill="#C47F0B"/>
<path d="M176.549 211.638C201.122 211.638 221.041 206.244 221.041 199.59C221.041 192.936 201.122 187.542 176.549 187.542C151.977 187.542 132.057 192.936 132.057 199.59C132.057 206.244 151.977 211.638 176.549 211.638Z" fill="#FFCF00"/>
<path d="M176.549 211.638C201.122 211.638 221.041 206.244 221.041 199.59C221.041 192.936 201.122 187.542 176.549 187.542C151.977 187.542 132.057 192.936 132.057 199.59C132.057 206.244 151.977 211.638 176.549 211.638Z" fill="url(#paint7_linear_140:21337)"/>
<path d="M176.936 206.819C154.174 206.819 143.933 202.803 140.017 200.634C137.736 199.309 138.683 198.425 139.458 197.903C143.072 195.333 153.829 191.558 176.549 191.558C199.268 191.558 212.048 196.096 215.275 198.746C215.878 199.228 215.275 199.911 213.425 201.317C210.026 203.726 200 206.819 176.936 206.819Z" fill="#FBBB00"/>
<path d="M215.362 198.747C212.048 196.097 199.699 191.558 176.635 191.558C171.476 191.541 166.319 191.783 161.188 192.281C164.243 192.281 167.513 192 171.171 192C194.32 192 208.563 196.016 211.876 198.747C212.479 199.229 212.823 199.832 210.8 201.237C203.887 204.378 196.363 206.181 188.683 206.538C203.615 205.695 210.757 203.285 213.597 201.318C215.534 199.912 215.964 199.229 215.362 198.747Z" fill="#C47F0B"/>
<path d="M149.656 196.177C159.669 195.325 169.734 195.137 179.776 195.615C187.564 195.896 196.213 196.94 206.454 197.904C197.386 194.871 187.817 193.348 178.184 193.406C168.574 192.77 158.919 193.708 149.656 196.177Z" fill="#FFCF00"/>
<path d="M178.357 214.25C154.002 214.25 127.754 208.547 127.754 199.31C127.754 190.073 152.281 184.973 176.549 184.973C200.818 184.973 225.388 189.912 225.388 199.31C225.388 208.708 201.162 214.25 178.357 214.25ZM176.549 188.989C149.398 188.989 132.057 195.093 132.057 199.31C132.057 203.527 151.506 210.234 178.357 210.234C205.207 210.234 221.085 203.888 221.085 199.31C221.085 194.732 203.744 188.989 176.549 188.989Z" fill="#C47F0B"/>
<path d="M156.11 210.955H153.614V223.566H156.11V210.955Z" fill="#C47F0B"/>
<path d="M211.962 207.702H209.466V219.871H211.962V207.702Z" fill="#C47F0B"/>
<path d="M202.538 211.277H200.043V222.322H202.538V211.277Z" fill="#C47F0B"/>
<path d="M191.007 212.241H188.511V225.052H191.007V212.241Z" fill="#C47F0B"/>
<path d="M168.589 212.522H166.094V225.655H168.589V212.522Z" fill="#C47F0B"/>
<path d="M180.336 212.643H177.841V225.454H180.336V212.643Z" fill="#C47F0B"/>
<path d="M138.555 206.778H136.059V218.867H138.555V206.778Z" fill="#C47F0B"/>
<path d="M164.587 204.45C164.587 204.45 189.2 206.096 195.31 204.45C195.31 204.45 178.099 199.911 164.587 204.45Z" fill="#FFCF00"/>
<path d="M219.406 179.108H130.379C129.808 179.108 129.261 179.32 128.857 179.697C128.454 180.073 128.227 180.584 128.227 181.116V191.679C128.227 200.916 153.786 206.418 176.979 206.418C200.172 206.418 221.557 200.434 221.557 191.398V181.116C221.546 180.587 221.316 180.082 220.915 179.708C220.514 179.334 219.973 179.119 219.406 179.108Z" fill="#FFB700"/>
<path d="M145.224 190.394H142.728V202.482H145.224V190.394Z" fill="#C47F0B"/>
<path d="M175.43 208.465C155.594 208.465 126.076 204.008 126.076 191.718V180.072C126.076 178.024 127.754 175.052 130.379 175.052L219.406 176.578C220.547 176.578 221.642 177.001 222.449 177.754C223.256 178.507 223.709 179.529 223.709 180.594V191.437C223.709 202.562 199.398 208.465 175.43 208.465ZM130.766 179.028C130.568 179.336 130.437 179.677 130.379 180.032V191.678C130.379 198.465 151.42 204.409 175.43 204.409C199.441 204.409 219.406 198.465 219.406 191.397V180.554L130.766 179.028Z" fill="#C47F0B"/>
<path d="M174.871 192.161C199.443 192.161 219.363 186.767 219.363 180.113C219.363 173.459 199.443 168.064 174.871 168.064C150.298 168.064 130.378 173.459 130.378 180.113C130.378 186.767 150.298 192.161 174.871 192.161Z" fill="#FFCF00"/>
<path d="M174.871 192.161C199.443 192.161 219.363 186.767 219.363 180.113C219.363 173.459 199.443 168.064 174.871 168.064C150.298 168.064 130.378 173.459 130.378 180.113C130.378 186.767 150.298 192.161 174.871 192.161Z" fill="url(#paint8_linear_140:21337)"/>
<path d="M175.259 187.342C152.496 187.342 142.255 183.326 138.339 181.157C136.059 179.832 137.049 178.949 137.823 178.426C141.395 175.856 152.152 172.081 174.871 172.081C197.591 172.081 210.37 176.619 213.598 179.27C214.2 179.752 213.598 180.434 211.747 181.84C208.348 184.37 198.322 187.342 175.259 187.342Z" fill="#FBBB00"/>
<path d="M148.021 176.698C157.953 175.922 167.932 175.801 177.883 176.337C185.671 176.618 194.32 177.662 204.561 178.626C195.493 175.593 185.924 174.07 176.291 174.128C166.779 173.449 157.213 174.318 148.021 176.698Z" fill="#FFCF00"/>
<path d="M176.678 194.771C152.367 194.771 126.076 189.068 126.076 179.831C126.076 170.595 150.645 165.494 174.871 165.494C199.096 165.494 223.709 170.434 223.709 179.831C223.709 189.229 199.484 194.771 176.678 194.771ZM174.871 169.51C147.719 169.51 130.379 175.615 130.379 179.831C130.379 184.048 149.828 190.755 176.678 190.755C203.528 190.755 219.406 184.41 219.406 179.831C219.406 175.253 201.893 169.51 174.871 169.51Z" fill="#C47F0B"/>
<path d="M154.432 191.478H151.937V204.088H154.432V191.478Z" fill="#C47F0B"/>
<path d="M210.285 188.226H207.789V200.394H210.285V188.226Z" fill="#C47F0B"/>
<path d="M200.904 191.799H198.408V202.843H200.904V191.799Z" fill="#C47F0B"/>
<path d="M189.329 192.764H186.833V205.575H189.329V192.764Z" fill="#C47F0B"/>
<path d="M166.911 193.044H164.415V206.217H166.911V193.044Z" fill="#C47F0B"/>
<path d="M178.658 193.165H176.162V205.976H178.658V193.165Z" fill="#C47F0B"/>
<path d="M136.876 187.302H134.38V199.39H136.876V187.302Z" fill="#C47F0B"/>
<path d="M162.909 184.771C162.909 184.771 187.522 186.418 193.632 184.771C193.632 184.771 176.42 180.353 162.909 184.771Z" fill="#FFCF00"/>
<path d="M217.986 157.662H128.958C128.391 157.672 127.85 157.887 127.449 158.262C127.048 158.636 126.818 159.141 126.807 159.67V170.232C126.807 179.469 152.366 184.971 175.559 184.971C198.752 184.971 220.137 179.148 220.137 169.951V159.67C220.137 159.406 220.082 159.145 219.974 158.902C219.865 158.658 219.707 158.437 219.507 158.25C219.307 158.064 219.07 157.916 218.809 157.815C218.548 157.714 218.268 157.662 217.986 157.662Z" fill="#FFB700"/>
<path d="M143.804 168.908H141.308V180.997H143.804V168.908Z" fill="#C47F0B"/>
<path d="M174.01 186.979C154.174 186.979 124.656 182.521 124.656 170.232V158.586C124.656 156.537 126.334 153.565 128.958 153.565L218.029 155.092C219.17 155.092 220.265 155.515 221.072 156.268C221.879 157.021 222.332 158.042 222.332 159.108V169.951C222.289 181.116 198.02 186.979 174.01 186.979ZM129.346 157.581C129.148 157.89 129.017 158.231 128.958 158.586V170.232C128.958 177.019 150.043 182.963 174.01 182.963C197.977 182.963 217.986 177.019 217.986 169.951V159.108L129.346 157.581Z" fill="#C47F0B"/>
<path d="M173.494 170.715C198.067 170.715 217.987 165.32 217.987 158.666C217.987 152.012 198.067 146.618 173.494 146.618C148.922 146.618 129.002 152.012 129.002 158.666C129.002 165.32 148.922 170.715 173.494 170.715Z" fill="#FFCF00"/>
<path d="M173.494 170.715C198.067 170.715 217.987 165.32 217.987 158.666C217.987 152.012 198.067 146.618 173.494 146.618C148.922 146.618 129.002 152.012 129.002 158.666C129.002 165.32 148.922 170.715 173.494 170.715Z" fill="url(#paint9_linear_140:21337)"/>
<path d="M173.881 165.895C151.076 165.895 140.835 161.879 136.962 159.71C134.639 158.385 135.628 157.501 136.403 156.979C140.017 154.409 150.775 150.634 173.494 150.634C196.214 150.634 208.95 155.132 212.22 157.823C212.823 158.304 212.22 158.987 210.37 160.393C206.971 162.802 196.945 165.895 173.881 165.895Z" fill="#FBBB00"/>
<path d="M212.264 157.823C208.95 155.132 196.644 150.634 173.537 150.634C167.556 150.634 162.479 150.915 158.047 151.317C161.102 151.317 164.415 151.076 168.073 151.076C191.222 151.076 205.422 155.092 208.735 157.823C209.338 158.304 209.725 158.907 207.703 160.312C200.775 163.458 193.237 165.261 185.543 165.614C200.517 164.77 207.66 162.361 210.457 160.393C212.436 158.987 212.866 158.304 212.264 157.823Z" fill="#C47F0B"/>
<path d="M146.601 155.252C156.614 154.4 166.679 154.212 176.721 154.69C184.509 154.971 193.158 156.015 203.399 156.979C194.315 153.95 184.733 152.428 175.086 152.481C165.49 151.823 155.845 152.761 146.601 155.252Z" fill="#FFCF00"/>
<path d="M175.301 173.326C150.946 173.326 124.656 167.624 124.656 158.387C124.656 149.15 149.225 144.21 173.494 144.21C197.762 144.21 222.289 149.11 222.289 158.547C222.289 167.985 198.063 173.326 175.301 173.326ZM173.494 148.226C146.299 148.226 128.958 154.33 128.958 158.547C128.958 162.764 148.408 169.471 175.301 169.471C202.194 169.471 217.986 163.126 217.986 158.547C217.986 153.969 200.645 148.226 173.494 148.226Z" fill="#C47F0B"/>
<path d="M153.055 170.032H150.559V182.643H153.055V170.032Z" fill="#C47F0B"/>
<path d="M208.907 166.779H206.411V178.948H208.907V166.779Z" fill="#C47F0B"/>
<path d="M199.483 170.354H196.988V181.398H199.483V170.354Z" fill="#C47F0B"/>
<path d="M187.909 171.318H185.413V184.13H187.909V171.318Z" fill="#C47F0B"/>
<path d="M165.491 171.599H162.995V184.771H165.491V171.599Z" fill="#C47F0B"/>
<path d="M177.238 171.719H174.742V184.53H177.238V171.719Z" fill="#C47F0B"/>
<path d="M135.498 165.855H133.003V177.944H135.498V165.855Z" fill="#C47F0B"/>
<path d="M161.489 163.325C161.489 163.325 186.101 164.972 192.211 163.325C192.211 163.325 175 158.988 161.489 163.325Z" fill="#FFCF00"/>
<path d="M221.085 136.177H132.057C131.486 136.177 130.939 136.388 130.536 136.765C130.132 137.141 129.906 137.652 129.906 138.185V148.747C129.906 157.944 155.422 163.486 178.615 163.486C201.807 163.486 223.408 157.743 223.408 148.506V138.265C223.421 137.98 223.37 137.697 223.256 137.432C223.143 137.168 222.971 136.929 222.751 136.732C222.531 136.534 222.269 136.382 221.982 136.287C221.694 136.191 221.389 136.153 221.085 136.177Z" fill="#FFB700"/>
<path d="M146.902 147.502H144.407V159.59H146.902V147.502Z" fill="#C47F0B"/>
<path d="M177.109 165.574C157.272 165.574 127.754 161.116 127.754 148.827V137.14C127.754 135.092 129.432 132.12 132.057 132.12L221.085 133.686C222.226 133.686 223.32 134.11 224.127 134.863C224.934 135.616 225.388 136.637 225.388 137.702V148.506C225.388 159.71 201.076 165.574 177.109 165.574ZM132.444 136.176C132.224 136.459 132.09 136.792 132.057 137.14V148.827C132.057 155.574 153.098 161.558 177.109 161.558C201.119 161.558 221.085 155.574 221.085 148.506V137.702L132.444 136.176Z" fill="#C47F0B"/>
<path d="M176.549 149.308C201.122 149.308 221.041 143.914 221.041 137.26C221.041 130.606 201.122 125.212 176.549 125.212C151.977 125.212 132.057 130.606 132.057 137.26C132.057 143.914 151.977 149.308 176.549 149.308Z" fill="#FFCF00"/>
<path d="M176.549 149.308C201.122 149.308 221.041 143.914 221.041 137.26C221.041 130.606 201.122 125.212 176.549 125.212C151.977 125.212 132.057 130.606 132.057 137.26C132.057 143.914 151.977 149.308 176.549 149.308Z" fill="url(#paint10_linear_140:21337)"/>
<path d="M176.936 144.49C154.174 144.49 143.933 140.473 140.017 138.265C137.736 136.939 138.683 136.096 139.458 135.534C143.072 133.004 153.829 129.229 176.549 129.229C199.268 129.229 212.048 133.727 215.275 136.377C215.878 136.859 215.275 137.542 213.425 138.947C210.026 141.357 200 144.49 176.936 144.49Z" fill="#FBBB00"/>
<path d="M215.362 136.378C212.048 133.727 199.699 129.229 176.635 129.229C171.477 129.2 166.32 129.428 161.188 129.912C164.243 129.912 167.513 129.631 171.171 129.631C194.32 129.631 208.563 133.647 211.876 136.378C212.479 136.859 212.823 137.502 210.8 138.908C203.858 142.053 196.306 143.856 188.597 144.209C203.529 143.365 210.671 140.956 213.511 138.988C215.534 137.542 215.964 136.859 215.362 136.378Z" fill="#C47F0B"/>
<path d="M149.656 133.808C159.669 132.955 169.734 132.768 179.776 133.246C187.564 133.567 196.213 134.611 206.454 135.575C197.393 132.513 187.821 130.977 178.184 131.037C168.574 130.401 158.919 131.339 149.656 133.808Z" fill="#FFCF00"/>
<path d="M178.357 151.92C154.002 151.92 127.754 146.177 127.754 136.94C127.754 127.703 152.281 122.603 176.549 122.603C200.818 122.603 225.388 127.542 225.388 136.94C225.388 146.337 201.162 151.92 178.357 151.92ZM176.549 126.619C149.398 126.619 132.057 132.763 132.057 136.94C132.057 141.117 151.506 147.904 178.357 147.904C205.207 147.904 221.085 141.518 221.085 136.94C221.085 132.362 203.744 126.619 176.549 126.619Z" fill="#C47F0B"/>
<path d="M156.11 148.626H153.614V161.236H156.11V148.626Z" fill="#C47F0B"/>
<path d="M211.962 145.333H209.466V157.502H211.962V145.333Z" fill="#C47F0B"/>
<path d="M202.538 148.947H200.043V159.991H202.538V148.947Z" fill="#C47F0B"/>
<path d="M191.007 149.871H188.511V162.682H191.007V149.871Z" fill="#C47F0B"/>
<path d="M168.589 150.153H166.094V163.326H168.589V150.153Z" fill="#C47F0B"/>
<path d="M180.336 150.273H177.841V163.085H180.336V150.273Z" fill="#C47F0B"/>
<path d="M138.555 144.41H136.059V156.499H138.555V144.41Z" fill="#C47F0B"/>
<path d="M164.587 141.92C164.587 141.92 189.2 143.526 195.31 141.92C195.31 141.92 178.099 137.583 164.587 141.92Z" fill="#FFCF00"/>
<defs>
<filter id="filter0_d_140:21337" x="0.934814" y="0" width="402.566" height="346" filterUnits="userSpaceOnUse" color-interpolation-filters="sRGB">
<feFlood flood-opacity="0" result="BackgroundImageFix"/>
<feColorMatrix in="SourceAlpha" type="matrix" values="0 0 0 0 0 0 0 0 0 0 0 0 0 0 0 0 0 0 127 0" result="hardAlpha"/>
<feOffset/>
<feGaussianBlur stdDeviation="17"/>
<feComposite in2="hardAlpha" operator="out"/>
<feColorMatrix type="matrix" values="0 0 0 0 1 0 0 0 0 1 0 0 0 0 1 0 0 0 1 0"/>
<feBlend mode="normal" in2="BackgroundImageFix" result="effect1_dropShadow_140:21337"/>
<feBlend mode="normal" in="SourceGraphic" in2="effect1_dropShadow_140:21337" result="shape"/>
</filter>
<filter id="filter1_d_140:21337" x="0.934814" y="0" width="402.566" height="340" filterUnits="userSpaceOnUse" color-interpolation-filters="sRGB">
<feFlood flood-opacity="0" result="BackgroundImageFix"/>
<feColorMatrix in="SourceAlpha" type="matrix" values="0 0 0 0 0 0 0 0 0 0 0 0 0 0 0 0 0 0 127 0" result="hardAlpha"/>
<feOffset/>
<feGaussianBlur stdDeviation="17"/>
<feComposite in2="hardAlpha" operator="out"/>
<feColorMatrix type="matrix" values="0 0 0 0 1 0 0 0 0 0 0 0 0 0 0.9 0 0 0 0.85 0"/>
<feBlend mode="normal" in2="BackgroundImageFix" result="effect1_dropShadow_140:21337"/>
<feBlend mode="normal" in="SourceGraphic" in2="effect1_dropShadow_140:21337" result="shape"/>
</filter>
<filter id="filter2_d_140:21337" x="36.9783" y="358.749" width="274.51" height="148.117" filterUnits="userSpaceOnUse" color-interpolation-filters="sRGB">
<feFlood flood-opacity="0" result="BackgroundImageFix"/>
<feColorMatrix in="SourceAlpha" type="matrix" values="0 0 0 0 0 0 0 0 0 0 0 0 0 0 0 0 0 0 127 0" result="hardAlpha"/>
<feOffset dy="35"/>
<feGaussianBlur stdDeviation="12.5"/>
<feComposite in2="hardAlpha" operator="out"/>
<feColorMatrix type="matrix" values="0 0 0 0 0 0 0 0 0 0 0 0 0 0 0 0 0 0 0.2 0"/>
<feBlend mode="normal" in2="BackgroundImageFix" result="effect1_dropShadow_140:21337"/>
<feBlend mode="normal" in="SourceGraphic" in2="effect1_dropShadow_140:21337" result="shape"/>
</filter>
<filter id="filter3_d_140:21337" x="160.026" y="93.7109" width="130.225" height="133.104" filterUnits="userSpaceOnUse" color-interpolation-filters="sRGB">
<feFlood flood-opacity="0" result="BackgroundImageFix"/>
<feColorMatrix in="SourceAlpha" type="matrix" values="0 0 0 0 0 0 0 0 0 0 0 0 0 0 0 0 0 0 127 0" result="hardAlpha"/>
<feOffset/>
<feGaussianBlur stdDeviation="3"/>
<feComposite in2="hardAlpha" operator="out"/>
<feColorMatrix type="matrix" values="0 0 0 0 1 0 0 0 0 0 0 0 0 0 0.9 0 0 0 1 0"/>
<feBlend mode="normal" in2="BackgroundImageFix" result="effect1_dropShadow_140:21337"/>
<feBlend mode="normal" in="SourceGraphic" in2="effect1_dropShadow_140:21337" result="shape"/>
</filter>
<filter id="filter4_d_140:21337" x="110.026" y="108.711" width="130.225" height="133.104" filterUnits="userSpaceOnUse" color-interpolation-filters="sRGB">
<feFlood flood-opacity="0" result="BackgroundImageFix"/>
<feColorMatrix in="SourceAlpha" type="matrix" values="0 0 0 0 0 0 0 0 0 0 0 0 0 0 0 0 0 0 127 0" result="hardAlpha"/>
<feOffset/>
<feGaussianBlur stdDeviation="3"/>
<feComposite in2="hardAlpha" operator="out"/>
<feColorMatrix type="matrix" values="0 0 0 0 1 0 0 0 0 0 0 0 0 0 0.9 0 0 0 1 0"/>
<feBlend mode="normal" in2="BackgroundImageFix" result="effect1_dropShadow_140:21337"/>
<feBlend mode="normal" in="SourceGraphic" in2="effect1_dropShadow_140:21337" result="shape"/>
</filter>
<linearGradient id="paint0_linear_140:21337" x1="202.25" y1="37" x2="202.25" y2="303" gradientUnits="userSpaceOnUse">
<stop stop-color="#050EA3"/>
<stop offset="1" stop-color="#00033A"/>
</linearGradient>
<linearGradient id="paint1_linear_140:21337" x1="317.875" y1="307" x2="147.875" y2="37" gradientUnits="userSpaceOnUse">
<stop stop-color="white"/>
<stop offset="1" stop-color="white" stop-opacity="0"/>
</linearGradient>
<linearGradient id="paint2_linear_140:21337" x1="75.8296" y1="342.919" x2="282.668" y2="438.952" gradientUnits="userSpaceOnUse">
<stop stop-color="#FFE600"/>
<stop offset="0.546374" stop-color="#FFC700"/>
<stop offset="0.9994" stop-color="#FFC700"/>
</linearGradient>
<linearGradient id="paint3_linear_140:21337" x1="247.16" y1="159.811" x2="184.374" y2="246.58" gradientUnits="userSpaceOnUse">
<stop stop-color="#FBBB00" stop-opacity="0.4"/>
<stop offset="1" stop-color="#C47F0B"/>
</linearGradient>
<linearGradient id="paint4_linear_140:21337" x1="2450.37" y1="533.065" x2="2290.87" y2="1292.79" gradientUnits="userSpaceOnUse">
<stop stop-color="#FBBB00" stop-opacity="0.4"/>
<stop offset="1" stop-color="#C47F0B"/>
</linearGradient>
<linearGradient id="paint5_linear_140:21337" x1="2420.52" y1="382.703" x2="2261.07" y2="1142.55" gradientUnits="userSpaceOnUse">
<stop stop-color="#FBBB00" stop-opacity="0.4"/>
<stop offset="1" stop-color="#C47F0B"/>
</linearGradient>
<linearGradient id="paint6_linear_140:21337" x1="2486.76" y1="232.863" x2="2327.26" y2="992.585" gradientUnits="userSpaceOnUse">
<stop stop-color="#FBBB00" stop-opacity="0.4"/>
<stop offset="1" stop-color="#C47F0B"/>
</linearGradient>
<linearGradient id="paint7_linear_140:21337" x1="197.16" y1="174.811" x2="134.374" y2="261.58" gradientUnits="userSpaceOnUse">
<stop stop-color="#FBBB00" stop-opacity="0.4"/>
<stop offset="1" stop-color="#C47F0B"/>
</linearGradient>
<linearGradient id="paint8_linear_140:21337" x1="2400.37" y1="548.065" x2="2240.87" y2="1307.79" gradientUnits="userSpaceOnUse">
<stop stop-color="#FBBB00" stop-opacity="0.4"/>
<stop offset="1" stop-color="#C47F0B"/>
</linearGradient>
<linearGradient id="paint9_linear_140:21337" x1="2370.52" y1="397.703" x2="2211.07" y2="1157.55" gradientUnits="userSpaceOnUse">
<stop stop-color="#FBBB00" stop-opacity="0.4"/>
<stop offset="1" stop-color="#C47F0B"/>
</linearGradient>
<linearGradient id="paint10_linear_140:21337" x1="2436.76" y1="247.863" x2="2277.26" y2="1007.59" gradientUnits="userSpaceOnUse">
<stop stop-color="#FBBB00" stop-opacity="0.4"/>
<stop offset="1" stop-color="#C47F0B"/>
</linearGradient>
</defs>
</svg>
