<svg width="389" height="340" viewBox="0 0 389 340" fill="none" xmlns="http://www.w3.org/2000/svg">
<g filter="url(#filter0_d_141:22470)">
<g filter="url(#filter1_d_141:22470)">
<path d="M58.8782 45.5584C59.5941 40.6443 63.8078 37 68.7738 37H341.498C347.617 37 352.301 42.4461 351.385 48.4961L314.162 294.496C313.422 299.386 309.219 303 304.274 303H32.9373C26.8407 303 22.1629 297.591 23.0418 291.558L58.8782 45.5584Z" fill="url(#paint0_linear_141:22470)"/>
<path d="M58.8782 45.5584C59.5941 40.6443 63.8078 37 68.7738 37H341.498C347.617 37 352.301 42.4461 351.385 48.4961L314.162 294.496C313.422 299.386 309.219 303 304.274 303H32.9373C26.8407 303 22.1629 297.591 23.0418 291.558L58.8782 45.5584Z" stroke="#FF00E5" stroke-width="6"/>
</g>
<path d="M59.5538 40.9208C59.8818 38.6695 61.8121 37 64.0872 37H341.498C347.617 37 352.301 42.4461 351.385 48.4961L313.514 298.775C313.147 301.204 311.059 303 308.602 303H286.22C146.572 303 39.4228 179.111 59.5538 40.9208Z" fill="url(#paint1_linear_141:22470)" fill-opacity="0.1"/>
</g>
<path d="M215.672 194.46H213.915C211.549 194.191 209.254 193.438 207.159 192.241L206.72 191.955L188.817 179.501C188.431 179.216 187.97 179.066 187.499 179.071H186.959L163.009 184.797C161.181 185.247 159.312 185.476 157.435 185.477C153.413 185.658 149.45 184.397 146.187 181.898C146.017 181.799 145.858 181.678 145.714 181.541C144.222 180.126 143.139 178.294 142.589 176.254C142.039 174.215 142.045 172.053 142.606 170.017L149.733 143.607C149.784 143.501 149.81 143.385 149.81 143.267C149.81 143.149 149.784 143.032 149.733 142.927L133.08 121.669C131.705 119.918 130.866 117.764 130.673 115.496C130.48 113.227 130.942 110.949 131.999 108.965C132.971 107.237 134.344 105.8 135.988 104.792C137.631 103.784 139.491 103.237 141.39 103.203L166.387 102.237C166.642 102.231 166.892 102.159 167.116 102.028C167.339 101.897 167.529 101.711 167.671 101.486L181.183 78.6896C181.823 77.6292 182.635 76.6965 183.581 75.934C186.454 73.5099 190.044 72.242 193.715 72.3554C194.412 72.3008 195.112 72.3008 195.809 72.3554C198.808 72.6274 201.671 73.7985 204.063 75.7314C206.456 77.6644 208.28 80.2793 209.321 83.2703L219.759 109.824L245.804 116.981C248.044 117.601 250.027 118.991 251.439 120.935C252.852 122.878 253.614 125.264 253.607 127.717C253.598 129.367 253.272 130.998 252.651 132.512C252.03 134.025 251.125 135.389 249.992 136.521L249.553 137.022L229.488 153.663C229.215 153.903 228.995 154.204 228.843 154.544C228.691 154.884 228.612 155.255 228.61 155.631L229.522 181.219C229.524 183.39 228.988 185.524 227.969 187.408C226.95 189.292 225.482 190.859 223.712 191.955C221.316 193.593 218.524 194.463 215.672 194.46Z" fill="white"/>
<g filter="url(#filter2_d_141:22470)">
<path d="M194.12 74.1094H196.045C198.754 74.3234 201.346 75.3583 203.515 77.0906C205.683 78.8229 207.335 81.1795 208.274 83.8792L219.083 111.328L245.905 118.664C247.729 119.218 249.335 120.381 250.485 121.98C251.636 123.579 252.268 125.529 252.289 127.539C252.274 128.949 251.992 130.341 251.458 131.632C250.924 132.923 250.15 134.087 249.181 135.054L248.742 135.519L228.846 152.017C228.329 152.433 227.918 152.977 227.647 153.601C227.376 154.225 227.254 154.91 227.292 155.596L227.9 181.219C227.893 183.089 227.424 184.925 226.542 186.544C225.659 188.164 224.392 189.511 222.867 190.452C220.737 191.888 218.263 192.646 215.739 192.635C215.222 192.671 214.703 192.671 214.185 192.635C212.039 192.396 209.96 191.702 208.071 190.595L207.632 190.309L189.762 177.855C189.09 177.388 188.303 177.139 187.499 177.139C187.196 177.104 186.89 177.104 186.587 177.139L162.637 183.008C160.935 183.449 159.187 183.665 157.435 183.653C153.816 183.82 150.248 182.699 147.301 180.468L146.828 180.11C145.587 178.924 144.684 177.393 144.225 175.691C143.765 173.989 143.765 172.185 144.227 170.483L151.354 144.072C151.441 143.689 151.444 143.289 151.362 142.905C151.28 142.52 151.115 142.16 150.882 141.854L134.397 120.382C133.23 118.904 132.517 117.084 132.354 115.165C132.191 113.246 132.585 111.32 133.485 109.646C134.332 108.218 135.509 107.042 136.903 106.228C138.298 105.414 139.865 104.989 141.457 104.993L166.42 104.027C166.951 104.005 167.469 103.851 167.932 103.578C168.396 103.304 168.792 102.919 169.089 102.452L182.77 79.6563C183.316 78.7644 184.001 77.9778 184.797 77.3302C187.446 75.1195 190.75 73.978 194.12 74.1094ZM194.12 70.5307C189.96 70.3916 185.889 71.8251 182.635 74.5746C181.56 75.4661 180.635 76.5429 179.899 77.7597L166.387 100.52L141.491 101.415C139.304 101.459 137.165 102.098 135.278 103.27C133.391 104.441 131.82 106.107 130.715 108.107C129.487 110.396 128.949 113.028 129.172 115.65C129.396 118.273 130.37 120.76 131.965 122.779L148.112 143.571L140.984 169.481C140.338 171.827 140.332 174.318 140.965 176.667C141.599 179.016 142.847 181.128 144.565 182.758L145.206 183.295C148.761 186.001 153.06 187.385 157.435 187.231C159.447 187.235 161.453 186.995 163.414 186.515L187.364 180.754C187.507 180.705 187.66 180.705 187.803 180.754L205.706 193.208L206.314 193.601C208.592 194.894 211.079 195.719 213.645 196.035H215.57C218.721 196.106 221.826 195.225 224.522 193.494C226.559 192.248 228.254 190.46 229.439 188.307C230.624 186.154 231.258 183.711 231.278 181.219L230.737 155.703C230.74 155.601 230.763 155.501 230.804 155.409C230.844 155.317 230.902 155.234 230.974 155.166L250.87 138.669L251.343 138.203C252.727 136.844 253.826 135.193 254.571 133.356C255.316 131.52 255.689 129.538 255.667 127.539C255.622 124.723 254.71 122 253.07 119.785C251.429 117.569 249.151 115.981 246.58 115.264L221.38 108.393L211.246 82.6624C210.077 79.3529 208.042 76.4646 205.38 74.3352C202.718 72.2059 199.539 70.9235 196.214 70.6381C195.449 70.5847 194.682 70.5847 193.917 70.6381L194.12 70.5307Z" fill="#1F093D"/>
</g>
<path d="M203.173 83.4133L214.929 114.762C215.101 115.29 215.395 115.762 215.785 116.138C216.174 116.513 216.647 116.778 217.158 116.91L245.77 124.747C246.328 124.947 246.828 125.298 247.219 125.765C247.609 126.233 247.878 126.8 247.997 127.412C248.117 128.023 248.083 128.657 247.9 129.251C247.717 129.844 247.39 130.377 246.952 130.795L223.678 150.084C223.274 150.439 222.954 150.89 222.742 151.399C222.531 151.908 222.435 152.463 222.462 153.018L223.07 183.043C223.239 185.906 218.847 190.738 211.821 186.801L191.08 171.842C190.647 171.522 190.145 171.322 189.62 171.26C189.095 171.197 188.563 171.274 188.074 171.484L160.34 178.642C154.969 180.002 147.943 178.642 148.923 175.063L167.975 146.792C168.108 146.25 168.119 145.683 168.007 145.136C167.896 144.589 167.665 144.078 167.333 143.642L148.551 119.45C148.204 118.941 147.99 118.344 147.93 117.719C147.87 117.094 147.966 116.463 148.209 115.89C148.452 115.317 148.834 114.821 149.315 114.454C149.796 114.086 150.36 113.86 150.95 113.796L180.608 112.687C181.136 112.655 181.649 112.493 182.107 112.214C182.564 111.934 182.954 111.544 183.243 111.076L190.269 80.7651C191.587 78.3316 200.876 77.4369 203.173 83.4133Z" fill="#DD890E"/>
<path d="M216.482 190.166C214.404 190.086 212.375 189.472 210.571 188.377L189.593 174.062C189.289 173.811 188.918 173.74 187.837 174.062L160.813 180.575C156.59 181.649 150.679 181.148 148.28 178.535C147.815 178.06 147.488 177.454 147.339 176.788C147.189 176.122 147.223 175.424 147.436 174.778L147.571 174.062L166.387 146.077C166.42 145.854 166.407 145.627 166.349 145.411C166.291 145.194 166.188 144.994 166.049 144.824L147.233 120.597C146.648 119.839 146.274 118.924 146.153 117.954C146.032 116.984 146.168 115.998 146.547 115.106C146.926 114.213 147.533 113.451 148.299 112.903C149.064 112.356 149.959 112.046 150.882 112.008L180.405 110.898C180.826 110.87 181.223 110.679 181.52 110.362L186.553 79.9786C187.69 78.6779 189.121 77.7059 190.711 77.1548C192.301 76.6037 193.998 76.4917 195.64 76.8294C197.63 76.9767 199.537 77.7308 201.131 79.0008C202.726 80.2708 203.939 82.0024 204.625 83.9868L216.482 114.191C216.482 114.405 216.921 114.763 217.867 115.05L246.479 122.851C247.329 123.092 248.097 123.583 248.695 124.267C249.293 124.951 249.695 125.8 249.857 126.716C250.076 127.705 250.034 128.739 249.736 129.704C249.438 130.67 248.896 131.53 248.168 132.191L224.893 151.516C224.697 151.681 224.541 151.894 224.441 152.138C224.341 152.381 224.299 152.647 224.319 152.912L224.927 183.009C224.876 184.176 224.538 185.309 223.945 186.295C223.352 187.281 222.526 188.085 221.549 188.627C220.035 189.646 218.276 190.18 216.482 190.166ZM188.85 170.09C189.773 170.06 190.682 170.335 191.451 170.877L212.294 185.406C213.389 186.16 214.659 186.579 215.964 186.617C217.269 186.655 218.559 186.31 219.691 185.621C220.127 185.367 220.505 185.013 220.797 184.587C221.089 184.16 221.288 183.67 221.38 183.152L220.772 153.055C220.732 152.22 220.883 151.386 221.213 150.626C221.542 149.866 222.04 149.201 222.664 148.689L245.938 129.4C246.211 129.154 246.417 128.835 246.536 128.477C246.655 128.118 246.682 127.733 246.614 127.36C246.571 127.09 246.456 126.839 246.283 126.636C246.109 126.433 245.884 126.287 245.634 126.215L217.023 118.378C216.217 118.255 215.454 117.914 214.809 117.387C214.164 116.86 213.658 116.166 213.341 115.372L201.45 85.1319C200.959 83.79 200.11 82.6287 199.006 81.7898C197.902 80.9509 196.592 80.4707 195.235 80.4081C193.262 80.0564 191.236 80.5035 189.56 81.6606L184.526 112.044C184.099 112.762 183.512 113.359 182.818 113.783C182.123 114.207 181.341 114.445 180.54 114.477L150.983 115.586C150.694 115.595 150.414 115.69 150.175 115.861C149.935 116.033 149.747 116.272 149.632 116.553C149.505 116.835 149.456 117.15 149.492 117.461C149.528 117.771 149.647 118.065 149.834 118.306L168.65 142.462C169.16 143.115 169.513 143.889 169.677 144.718C169.842 145.548 169.814 146.407 169.596 147.222L169.325 147.759L150.611 175.637C152.013 176.498 153.566 177.048 155.175 177.251C156.784 177.454 158.415 177.307 159.968 176.817L186.992 170.269C187.605 170.147 188.227 170.087 188.85 170.09Z" fill="#C47F0B"/>
<path d="M193.343 81.9831L203.477 111.4C203.662 111.923 203.96 112.392 204.347 112.772C204.734 113.151 205.199 113.428 205.706 113.583L234.351 121.384C234.917 121.581 235.423 121.932 235.819 122.402C236.215 122.873 236.487 123.446 236.607 124.063C236.727 124.68 236.691 125.321 236.503 125.918C236.314 126.516 235.98 127.051 235.534 127.468L212.259 146.757C211.849 147.109 211.522 147.557 211.305 148.067C211.088 148.577 210.987 149.133 211.009 149.692L212.834 180.933C212.83 181.56 212.671 182.174 212.373 182.715C212.075 183.256 211.649 183.705 211.136 184.016C210.623 184.328 210.042 184.491 209.45 184.49C208.859 184.49 208.279 184.324 207.767 184.011L183.242 166.511C182.799 166.214 182.297 166.03 181.775 165.974C181.253 165.918 180.726 165.992 180.236 166.189L152.739 177.641C152.176 177.83 151.576 177.859 151 177.725C150.423 177.592 149.889 177.301 149.452 176.881C149.014 176.461 148.689 175.927 148.507 175.332C148.325 174.737 148.293 174.102 148.415 173.49L156.522 143.393C156.66 142.854 156.676 142.289 156.571 141.742C156.465 141.195 156.24 140.682 155.914 140.244L137.099 116.088C136.76 115.579 136.553 114.985 136.498 114.365C136.442 113.745 136.541 113.12 136.783 112.553C137.025 111.985 137.403 111.494 137.879 111.129C138.355 110.764 138.913 110.536 139.497 110.469L169.021 109.324C169.545 109.297 170.057 109.14 170.514 108.867C170.971 108.593 171.362 108.211 171.656 107.75L187.532 81.3389C187.881 80.8328 188.349 80.4326 188.89 80.1782C189.43 79.9239 190.024 79.8243 190.612 79.8896C191.201 79.9548 191.762 80.1825 192.242 80.5499C192.721 80.9173 193.1 81.4115 193.343 81.9831Z" fill="#FBBB00"/>
<path d="M193.343 81.9831L203.477 111.4C203.662 111.923 203.96 112.392 204.347 112.772C204.734 113.151 205.199 113.428 205.706 113.583L234.351 121.384C234.917 121.581 235.423 121.932 235.819 122.402C236.215 122.873 236.487 123.446 236.607 124.063C236.727 124.68 236.691 125.321 236.503 125.918C236.314 126.516 235.98 127.051 235.534 127.468L212.259 146.757C211.849 147.109 211.522 147.557 211.305 148.067C211.088 148.577 210.987 149.133 211.009 149.692L212.834 180.933C212.83 181.56 212.671 182.174 212.373 182.715C212.075 183.256 211.649 183.705 211.136 184.016C210.623 184.328 210.042 184.491 209.45 184.49C208.859 184.49 208.279 184.324 207.767 184.011L183.242 166.511C182.799 166.214 182.297 166.03 181.775 165.974C181.253 165.918 180.726 165.992 180.236 166.189L152.739 177.641C152.176 177.83 151.576 177.859 151 177.725C150.423 177.592 149.889 177.301 149.452 176.881C149.014 176.461 148.689 175.927 148.507 175.332C148.325 174.737 148.293 174.102 148.415 173.49L156.522 143.393C156.66 142.854 156.676 142.289 156.571 141.742C156.465 141.195 156.24 140.682 155.914 140.244L137.099 116.088C136.76 115.579 136.553 114.985 136.498 114.365C136.442 113.745 136.541 113.12 136.783 112.553C137.025 111.985 137.403 111.494 137.879 111.129C138.355 110.764 138.913 110.536 139.497 110.469L169.021 109.324C169.545 109.297 170.057 109.14 170.514 108.867C170.971 108.593 171.362 108.211 171.656 107.75L187.532 81.3389C187.881 80.8328 188.349 80.4326 188.89 80.1782C189.43 79.9239 190.024 79.8243 190.612 79.8896C191.201 79.9548 191.762 80.1825 192.242 80.5499C192.721 80.9173 193.1 81.4115 193.343 81.9831Z" fill="url(#paint2_radial_141:22470)"/>
<path d="M140.68 111.328L209.929 184.548L212.834 183.724L212.463 172.452L153.821 110.397L140.68 111.328Z" fill="#FFCF00"/>
<path d="M168.751 110.683L210.74 153.985L211.145 148.581L214.591 142.605L174.291 103.383L168.751 110.683Z" fill="#FFCF00"/>
<path d="M153.077 157.85L149.226 174.061C149.137 174.651 149.199 175.255 149.406 175.811C149.613 176.367 149.957 176.853 150.403 177.219C150.849 177.585 151.379 177.818 151.939 177.892C152.499 177.966 153.067 177.879 153.584 177.64L169.798 170.482L154.901 169.158L153.077 157.85Z" fill="#FFCF00"/>
<path d="M188.073 81.446L183.073 90.178L189.829 87.4224L199.355 101.451L192.025 81.8039C191.87 81.402 191.613 81.0533 191.282 80.7962C190.952 80.5391 190.561 80.3835 190.152 80.3465C189.744 80.3095 189.333 80.3925 188.967 80.5865C188.6 80.7805 188.291 81.0779 188.073 81.446Z" fill="#FFCF00"/>
<path d="M209.591 186.408C208.6 186.402 207.634 186.078 206.821 185.478L182.297 168.014C182.075 167.882 181.825 167.813 181.571 167.813C181.316 167.813 181.066 167.882 180.844 168.014L153.348 179.322C152.489 179.681 151.553 179.777 150.645 179.6C149.737 179.423 148.895 178.98 148.213 178.32C147.527 177.671 147.032 176.827 146.786 175.888C146.541 174.949 146.555 173.955 146.828 173.024L154.935 142.892C155.004 142.634 155.012 142.362 154.959 142.1C154.906 141.838 154.793 141.594 154.631 141.388L135.816 117.232C135.229 116.481 134.852 115.571 134.728 114.605C134.604 113.639 134.737 112.656 135.113 111.766C135.489 110.876 136.093 110.115 136.856 109.57C137.619 109.024 138.511 108.716 139.43 108.679L168.988 107.534C169.239 107.531 169.485 107.461 169.704 107.329C169.923 107.198 170.106 107.01 170.238 106.783L186.114 80.3721C186.605 79.5425 187.307 78.8758 188.139 78.4481C188.97 78.0205 189.899 77.8492 190.818 77.9536C191.737 78.0581 192.61 78.4342 193.337 79.039C194.065 79.6438 194.617 80.453 194.931 81.3742L205.065 110.791C205.148 111.046 205.291 111.275 205.48 111.456C205.669 111.637 205.898 111.766 206.146 111.829L234.656 119.666C235.553 119.904 236.37 120.405 237.011 121.111C237.653 121.817 238.094 122.701 238.284 123.66C238.475 124.619 238.406 125.616 238.087 126.536C237.768 127.456 237.211 128.262 236.48 128.863L213.206 148.152C213.002 148.32 212.84 148.539 212.734 148.788C212.628 149.038 212.581 149.311 212.598 149.584L214.388 180.825C214.42 181.538 214.316 182.249 214.084 182.918C213.852 183.587 213.495 184.2 213.035 184.721C212.575 185.241 212.022 185.659 211.407 185.948C210.792 186.238 210.129 186.395 209.456 186.408H209.591ZM181.419 164.149C182.406 164.142 183.373 164.454 184.189 165.043L208.713 182.507C208.961 182.673 209.248 182.76 209.541 182.76C209.833 182.76 210.12 182.673 210.368 182.507C210.559 182.357 210.716 182.164 210.828 181.941C210.939 181.718 211.001 181.471 211.01 181.219L209.186 149.977C209.133 149.1 209.291 148.222 209.645 147.427C210 146.632 210.539 145.946 211.213 145.432L234.656 126.036C234.887 125.847 235.062 125.593 235.163 125.303C235.264 125.013 235.285 124.699 235.226 124.396C235.166 124.094 235.027 123.815 234.824 123.593C234.622 123.37 234.365 123.212 234.082 123.137L205.47 115.3C204.702 115.083 203.994 114.674 203.407 114.108C202.819 113.541 202.368 112.833 202.092 112.043L191.958 82.6267C191.868 82.3301 191.699 82.0674 191.471 81.8705C191.244 81.6736 190.967 81.5509 190.674 81.5173C190.377 81.4876 190.078 81.5453 189.81 81.6842C189.542 81.8232 189.315 82.0378 189.154 82.3046L173.278 108.715C172.848 109.429 172.261 110.021 171.566 110.439C170.871 110.856 170.09 111.088 169.292 111.113L139.768 112.258C139.473 112.255 139.184 112.343 138.935 112.51C138.687 112.678 138.49 112.919 138.368 113.203C138.246 113.488 138.205 113.804 138.25 114.112C138.295 114.421 138.423 114.709 138.619 114.942L157.401 139.098C157.912 139.758 158.264 140.538 158.429 141.373C158.594 142.208 158.565 143.073 158.347 143.894L150.206 174.062C150.123 174.358 150.12 174.672 150.198 174.969C150.276 175.267 150.431 175.535 150.645 175.744C150.857 175.957 151.123 176.101 151.411 176.158C151.699 176.215 151.996 176.183 152.267 176.066L179.763 164.578C180.288 164.335 180.848 164.19 181.419 164.149Z" fill="#C47F0B"/>
<path d="M211.058 147.255L210.396 150.764L221.658 153.15L222.32 149.641L211.058 147.255Z" fill="#C47F0B"/>
<path d="M213.009 180.576L212.249 184.062L221.991 186.447L222.751 182.96L213.009 180.576Z" fill="#C47F0B"/>
<path d="M149.145 237.256C147.705 237.288 146.601 237.288 145.833 237.256C145.097 237.192 144.441 237.144 143.865 237.112C143.641 237.112 143.289 237.096 142.809 237.064C142.361 237 142.057 236.984 141.897 237.016V237.112C141.609 239.8 141.465 242.552 141.465 245.368C141.497 248.152 141.545 250.984 141.609 253.864C141.705 256.712 141.769 259.592 141.801 262.504C141.833 265.416 141.737 268.312 141.513 271.192C141.833 271.096 142.425 271.064 143.289 271.096C144.153 271.16 145.049 271.208 145.977 271.24C146.937 271.272 147.817 271.256 148.617 271.192C149.449 271.16 149.993 271.016 150.249 270.76C150.089 268.04 149.993 265.288 149.961 262.504C149.929 259.72 149.929 256.936 149.961 254.152C150.025 251.336 150.089 248.536 150.153 245.752C150.249 242.968 150.297 240.2 150.297 237.448V237.256H149.145ZM160.173 249.592C160.141 249.144 160.125 248.744 160.125 248.392C160.157 248.04 160.141 247.592 160.077 247.048C160.077 246.952 159.949 246.904 159.693 246.904C159.437 246.872 159.149 246.872 158.829 246.904C158.509 246.936 158.189 246.984 157.869 247.048C157.549 247.08 157.325 247.096 157.197 247.096C156.813 247.128 156.493 247.16 156.237 247.192C155.981 247.192 155.741 247.192 155.517 247.192C155.293 247.192 155.053 247.192 154.797 247.192C154.541 247.16 154.221 247.128 153.837 247.096C153.709 251.32 153.677 255.4 153.741 259.336C153.837 263.272 153.885 267.208 153.885 271.144C154.653 271.08 155.293 271.064 155.805 271.096C156.317 271.128 156.781 271.144 157.197 271.144C157.613 271.176 158.013 271.176 158.397 271.144C158.813 271.112 159.293 271.016 159.837 270.856V270.664C159.965 269.608 160.029 268.552 160.029 267.496C160.029 266.44 159.997 265.384 159.933 264.328C159.901 263.24 159.869 262.168 159.837 261.112C159.805 260.024 159.821 258.92 159.885 257.8C159.949 256.936 160.173 256.296 160.557 255.88C160.941 255.432 161.373 255.144 161.853 255.016C162.333 254.856 162.813 254.824 163.293 254.92C163.805 254.984 164.189 255.08 164.445 255.208C164.477 255.24 164.509 255.256 164.541 255.256C164.573 255.256 164.605 255.272 164.637 255.304C164.893 255.496 165.085 255.768 165.213 256.12C165.373 256.472 165.485 256.872 165.549 257.32C165.645 257.768 165.709 258.232 165.741 258.712C165.773 259.16 165.805 259.576 165.837 259.96C165.901 260.824 165.933 261.752 165.933 262.744C165.965 263.736 165.965 264.728 165.933 265.72C165.933 266.712 165.933 267.672 165.933 268.6C165.933 269.528 165.965 270.36 166.029 271.096C167.149 271.096 168.141 271.096 169.005 271.096C169.901 271.128 170.909 271.064 172.029 270.904C171.965 269.944 171.933 268.84 171.933 267.592C171.965 266.312 171.997 265 172.029 263.656C172.061 262.28 172.093 260.904 172.125 259.528C172.157 258.12 172.157 256.792 172.125 255.544C172.413 255.32 172.717 255.16 173.037 255.064C173.389 254.936 173.725 254.872 174.045 254.872C174.397 254.872 174.717 254.904 175.005 254.968C175.293 255.032 175.533 255.112 175.725 255.208C175.757 255.24 175.789 255.256 175.821 255.256C175.853 255.256 175.885 255.272 175.917 255.304C176.173 255.496 176.365 255.768 176.493 256.12C176.653 256.472 176.765 256.872 176.829 257.32C176.925 257.768 176.989 258.232 177.021 258.712C177.053 259.16 177.085 259.576 177.117 259.96C177.181 260.824 177.213 261.752 177.213 262.744C177.245 263.736 177.245 264.728 177.213 265.72C177.213 266.712 177.213 267.672 177.213 268.6C177.213 269.528 177.245 270.36 177.309 271.096C178.429 271.096 179.421 271.096 180.285 271.096C181.181 271.128 182.189 271.064 183.309 270.904C183.245 269.816 183.229 268.552 183.261 267.112C183.293 265.672 183.325 264.184 183.357 262.648C183.389 261.08 183.405 259.544 183.405 258.04C183.437 256.504 183.421 255.096 183.357 253.816C183.325 252.536 183.213 251.448 183.021 250.552C182.861 249.624 182.621 249.016 182.301 248.728C181.629 248.152 180.877 247.752 180.045 247.528C179.213 247.304 178.349 247.208 177.453 247.24C176.589 247.272 175.741 247.432 174.909 247.72C174.077 248.008 173.325 248.392 172.653 248.872C172.493 249 172.301 249.128 172.077 249.256C171.853 249.352 171.661 249.448 171.501 249.544C171.341 249.16 171.181 248.888 171.021 248.728C170.349 248.152 169.597 247.752 168.765 247.528C167.933 247.304 167.069 247.208 166.173 247.24C165.309 247.272 164.461 247.432 163.629 247.72C162.797 248.008 162.045 248.392 161.373 248.872C161.213 249 161.005 249.128 160.749 249.256C160.525 249.384 160.333 249.496 160.173 249.592ZM205.994 247.096C204.97 247.032 204.058 246.984 203.258 246.952C202.49 246.92 201.834 246.888 201.29 246.856C201.194 246.856 201.018 246.856 200.762 246.856C200.506 246.856 200.25 246.856 199.994 246.856C199.738 246.824 199.498 246.824 199.274 246.856C199.082 246.856 198.986 246.872 198.986 246.904C198.986 247.288 198.938 247.672 198.842 248.056C198.778 248.408 198.762 248.84 198.794 249.352C198.57 248.808 198.298 248.392 197.978 248.104C197.658 247.784 197.29 247.56 196.874 247.432C196.458 247.272 195.994 247.192 195.482 247.192C195.002 247.16 194.474 247.144 193.898 247.144C192.778 247.176 191.722 247.48 190.73 248.056C189.738 248.6 188.874 249.368 188.138 250.36C187.434 251.32 186.874 252.472 186.458 253.816C186.042 255.16 185.834 256.632 185.834 258.232C185.834 259.512 185.962 260.904 186.218 262.408C186.506 263.912 186.938 265.304 187.514 266.584C188.09 267.864 188.81 268.936 189.674 269.8C190.57 270.664 191.642 271.096 192.89 271.096C194.01 271.096 195.146 270.824 196.298 270.28C197.482 269.736 198.458 269.08 199.226 268.312C199.226 268.632 199.194 268.904 199.13 269.128C199.066 269.352 199.034 269.64 199.034 269.992C199.034 270.248 199.066 270.472 199.13 270.664C199.226 270.856 199.386 270.984 199.61 271.048C199.962 271.048 200.298 271.032 200.618 271C200.97 270.936 201.322 270.904 201.674 270.904C202.186 270.904 202.698 270.936 203.21 271C203.754 271.032 204.282 271.048 204.794 271.048H205.37C205.754 270.984 205.946 270.744 205.946 270.328C205.978 269.912 205.994 269.496 205.994 269.08C206.218 265.656 206.266 262.28 206.138 258.952C206.01 255.592 205.994 252.184 206.09 248.728V248.248C206.09 248.056 206.074 247.864 206.042 247.672C206.042 247.48 206.026 247.288 205.994 247.096ZM192.026 256.648C192.186 255.848 192.634 255.144 193.37 254.536C194.138 253.896 195.178 253.576 196.49 253.576C197.162 253.576 197.658 253.624 197.978 253.72C198.33 253.816 198.57 254.04 198.698 254.392C198.858 254.744 198.938 255.256 198.938 255.928C198.97 256.568 198.986 257.448 198.986 258.568C198.986 259.464 198.97 260.28 198.938 261.016C198.938 261.72 198.842 262.328 198.65 262.84C198.49 263.32 198.202 263.704 197.786 263.992C197.402 264.248 196.81 264.376 196.01 264.376C194.666 264.376 193.61 263.88 192.842 262.888C192.106 261.864 191.738 260.632 191.738 259.192C191.738 258.776 191.754 258.36 191.786 257.944C191.818 257.496 191.898 257.064 192.026 256.648ZM215.862 249.592C215.83 249.144 215.814 248.744 215.814 248.392C215.846 248.04 215.83 247.592 215.766 247.048C215.766 246.952 215.638 246.904 215.382 246.904C215.126 246.872 214.838 246.872 214.518 246.904C214.198 246.936 213.878 246.984 213.558 247.048C213.238 247.08 213.014 247.096 212.886 247.096C212.502 247.128 212.182 247.16 211.926 247.192C211.67 247.192 211.43 247.192 211.206 247.192C210.982 247.192 210.742 247.192 210.486 247.192C210.23 247.16 209.91 247.128 209.526 247.096C209.398 251.32 209.366 255.4 209.43 259.336C209.526 263.272 209.574 267.208 209.574 271.144C210.342 271.08 210.982 271.064 211.494 271.096C212.006 271.128 212.47 271.144 212.886 271.144C213.302 271.176 213.702 271.176 214.086 271.144C214.502 271.112 214.982 271.016 215.526 270.856V270.664C215.654 269.608 215.718 268.552 215.718 267.496C215.718 266.44 215.686 265.384 215.622 264.328C215.59 263.24 215.558 262.168 215.526 261.112C215.494 260.024 215.51 258.92 215.574 257.8C215.638 256.936 215.862 256.296 216.246 255.88C216.63 255.432 217.062 255.144 217.542 255.016C218.022 254.856 218.502 254.824 218.982 254.92C219.494 254.984 219.878 255.08 220.134 255.208C220.166 255.24 220.198 255.256 220.23 255.256C220.262 255.256 220.294 255.272 220.326 255.304C220.582 255.496 220.774 255.768 220.902 256.12C221.062 256.472 221.174 256.872 221.238 257.32C221.334 257.768 221.398 258.232 221.43 258.712C221.462 259.16 221.494 259.576 221.526 259.96C221.59 260.824 221.622 261.752 221.622 262.744C221.654 263.736 221.654 264.728 221.622 265.72C221.622 266.712 221.622 267.672 221.622 268.6C221.622 269.528 221.654 270.36 221.718 271.096C222.838 271.096 223.83 271.096 224.694 271.096C225.59 271.128 226.598 271.064 227.718 270.904C227.654 269.816 227.638 268.552 227.67 267.112C227.702 265.672 227.734 264.184 227.766 262.648C227.798 261.08 227.814 259.544 227.814 258.04C227.846 256.504 227.83 255.096 227.766 253.816C227.734 252.536 227.622 251.448 227.43 250.552C227.27 249.624 227.03 249.016 226.71 248.728C226.038 248.152 225.286 247.752 224.454 247.528C223.622 247.304 222.758 247.208 221.862 247.24C220.998 247.272 220.15 247.432 219.318 247.72C218.486 248.008 217.734 248.392 217.062 248.872C216.902 249 216.694 249.128 216.438 249.256C216.214 249.384 216.022 249.496 215.862 249.592Z" fill="white"/>
<defs>
<filter id="filter0_d_141:22470" x="-14.0652" y="0" width="402.566" height="346" filterUnits="userSpaceOnUse" color-interpolation-filters="sRGB">
<feFlood flood-opacity="0" result="BackgroundImageFix"/>
<feColorMatrix in="SourceAlpha" type="matrix" values="0 0 0 0 0 0 0 0 0 0 0 0 0 0 0 0 0 0 127 0" result="hardAlpha"/>
<feOffset/>
<feGaussianBlur stdDeviation="17"/>
<feComposite in2="hardAlpha" operator="out"/>
<feColorMatrix type="matrix" values="0 0 0 0 1 0 0 0 0 1 0 0 0 0 1 0 0 0 1 0"/>
<feBlend mode="normal" in2="BackgroundImageFix" result="effect1_dropShadow_141:22470"/>
<feBlend mode="normal" in="SourceGraphic" in2="effect1_dropShadow_141:22470" result="shape"/>
</filter>
<filter id="filter1_d_141:22470" x="-14.0652" y="0" width="402.566" height="340" filterUnits="userSpaceOnUse" color-interpolation-filters="sRGB">
<feFlood flood-opacity="0" result="BackgroundImageFix"/>
<feColorMatrix in="SourceAlpha" type="matrix" values="0 0 0 0 0 0 0 0 0 0 0 0 0 0 0 0 0 0 127 0" result="hardAlpha"/>
<feOffset/>
<feGaussianBlur stdDeviation="17"/>
<feComposite in2="hardAlpha" operator="out"/>
<feColorMatrix type="matrix" values="0 0 0 0 1 0 0 0 0 0 0 0 0 0 0.9 0 0 0 0.85 0"/>
<feBlend mode="normal" in2="BackgroundImageFix" result="effect1_dropShadow_141:22470"/>
<feBlend mode="normal" in="SourceGraphic" in2="effect1_dropShadow_141:22470" result="shape"/>
</filter>
<filter id="filter2_d_141:22470" x="123.123" y="64.5215" width="138.545" height="137.518" filterUnits="userSpaceOnUse" color-interpolation-filters="sRGB">
<feFlood flood-opacity="0" result="BackgroundImageFix"/>
<feColorMatrix in="SourceAlpha" type="matrix" values="0 0 0 0 0 0 0 0 0 0 0 0 0 0 0 0 0 0 127 0" result="hardAlpha"/>
<feOffset/>
<feGaussianBlur stdDeviation="3"/>
<feComposite in2="hardAlpha" operator="out"/>
<feColorMatrix type="matrix" values="0 0 0 0 1 0 0 0 0 0 0 0 0 0 0.9 0 0 0 1 0"/>
<feBlend mode="normal" in2="BackgroundImageFix" result="effect1_dropShadow_141:22470"/>
<feBlend mode="normal" in="SourceGraphic" in2="effect1_dropShadow_141:22470" result="shape"/>
</filter>
<linearGradient id="paint0_linear_141:22470" x1="187.25" y1="37" x2="187.25" y2="303" gradientUnits="userSpaceOnUse">
<stop stop-color="#050EA3"/>
<stop offset="1" stop-color="#00033A"/>
</linearGradient>
<linearGradient id="paint1_linear_141:22470" x1="302.875" y1="307" x2="132.875" y2="37" gradientUnits="userSpaceOnUse">
<stop stop-color="white"/>
<stop offset="1" stop-color="white" stop-opacity="0"/>
</linearGradient>
<radialGradient id="paint2_radial_141:22470" cx="0" cy="0" r="1" gradientUnits="userSpaceOnUse" gradientTransform="translate(214.691 130.195) rotate(6.58635) scale(58.6841 62.0812)">
<stop stop-color="#F39200" stop-opacity="0.8"/>
<stop offset="1" stop-color="#F9B233" stop-opacity="0"/>
</radialGradient>
</defs>
</svg>
