<svg width="343" height="343" viewBox="0 0 343 343" fill="none" xmlns="http://www.w3.org/2000/svg">
<path d="M171.085 308.002C246.719 308.002 308.032 246.695 308.032 171.07C308.032 95.4436 246.719 34.1367 171.085 34.1367C95.4521 34.1367 34.1392 95.4436 34.1392 171.07C34.1392 246.695 95.4521 308.002 171.085 308.002Z" fill="white"/>
<path d="M308.031 171.07C308.031 96.562 248.621 36.1504 175.113 34.1367C175.113 34.1367 130.807 96.562 209.349 135.829C258.69 159.994 219.419 205.303 200.287 217.385C144.904 251.618 174.106 309.009 174.106 309.009C248.621 305.989 308.031 245.577 308.031 171.07Z" fill="#E4E4E4"/>
<path d="M211.363 100.59C221.93 100.59 230.495 92.0248 230.495 81.4594C230.495 70.894 221.93 62.3291 211.363 62.3291C200.797 62.3291 192.231 70.894 192.231 81.4594C192.231 92.0248 200.797 100.59 211.363 100.59Z" fill="#C6C6C6"/>
<path d="M106.64 185.165C112.201 185.165 116.709 180.658 116.709 175.097C116.709 169.536 112.201 165.028 106.64 165.028C101.079 165.028 96.5703 169.536 96.5703 175.097C96.5703 180.658 101.079 185.165 106.64 185.165Z" fill="#C6C6C6"/>
<path d="M211.365 146.905C216.926 146.905 221.434 142.397 221.434 136.836C221.434 131.275 216.926 126.768 211.365 126.768C205.803 126.768 201.295 131.275 201.295 136.836C201.295 142.397 205.803 146.905 211.365 146.905Z" fill="#C6C6C6"/>
<path d="M126.779 181.139C125.772 191.207 116.709 199.262 106.639 198.255C96.5699 197.248 88.5142 188.187 89.5212 178.118C89.5212 178.118 91.5351 192.214 106.639 192.214C120.737 194.228 126.779 181.139 126.779 181.139Z" fill="#E4E4E4"/>
<path d="M123.758 115.692C129.319 115.692 133.827 111.184 133.827 105.623C133.827 100.063 129.319 95.5547 123.758 95.5547C118.196 95.5547 113.688 100.063 113.688 105.623C113.688 111.184 118.196 115.692 123.758 115.692Z" fill="#C6C6C6"/>
<path d="M272.788 212.35C278.349 212.35 282.857 207.842 282.857 202.281C282.857 196.721 278.349 192.213 272.788 192.213C267.227 192.213 262.718 196.721 262.718 202.281C262.718 207.842 267.227 212.35 272.788 212.35Z" fill="#C6C6C6"/>
<path d="M279.836 139.857C285.397 139.857 289.906 135.349 289.906 129.788C289.906 124.228 285.397 119.72 279.836 119.72C274.275 119.72 269.767 124.228 269.767 129.788C269.767 135.349 274.275 139.857 279.836 139.857Z" fill="#C6C6C6"/>
<path d="M182.161 268.734C200.513 268.734 215.391 253.858 215.391 235.508C215.391 217.157 200.513 202.281 182.161 202.281C163.809 202.281 148.932 217.157 148.932 235.508C148.932 253.858 163.809 268.734 182.161 268.734Z" fill="#EEEEEE"/>
<path d="M182.162 254.639C192.729 254.639 201.295 246.074 201.295 235.508C201.295 224.943 192.729 216.378 182.162 216.378C171.596 216.378 163.03 224.943 163.03 235.508C163.03 246.074 171.596 254.639 182.162 254.639Z" fill="#C1C1C1"/>
<g filter="url(#filter0_d_141:22992)">
<path d="M171.085 308.002C246.719 308.002 308.032 246.695 308.032 171.07C308.032 95.4436 246.719 34.1367 171.085 34.1367C95.4521 34.1367 34.1392 95.4436 34.1392 171.07C34.1392 246.695 95.4521 308.002 171.085 308.002Z" stroke="#40D7FF" stroke-width="8" shape-rendering="crispEdges"/>
</g>
<defs>
<filter id="filter0_d_141:22992" x="0.13916" y="0.136719" width="341.893" height="341.865" filterUnits="userSpaceOnUse" color-interpolation-filters="sRGB">
<feFlood flood-opacity="0" result="BackgroundImageFix"/>
<feColorMatrix in="SourceAlpha" type="matrix" values="0 0 0 0 0 0 0 0 0 0 0 0 0 0 0 0 0 0 127 0" result="hardAlpha"/>
<feOffset/>
<feGaussianBlur stdDeviation="15"/>
<feComposite in2="hardAlpha" operator="out"/>
<feColorMatrix type="matrix" values="0 0 0 0 0.25098 0 0 0 0 0.843137 0 0 0 0 1 0 0 0 1 0"/>
<feBlend mode="normal" in2="BackgroundImageFix" result="effect1_dropShadow_141:22992"/>
<feBlend mode="normal" in="SourceGraphic" in2="effect1_dropShadow_141:22992" result="shape"/>
</filter>
</defs>
</svg>
