<svg width="389" height="340" viewBox="0 0 389 340" fill="none" xmlns="http://www.w3.org/2000/svg">
<g filter="url(#filter0_d_140:13186)">
<g filter="url(#filter1_d_140:13186)">
<path d="M58.8782 45.5584C59.5941 40.6443 63.8078 37 68.7738 37H341.498C347.617 37 352.301 42.4461 351.385 48.4961L314.162 294.496C313.422 299.386 309.219 303 304.274 303H32.9373C26.8407 303 22.1629 297.591 23.0418 291.558L58.8782 45.5584Z" fill="url(#paint0_linear_140:13186)"/>
<path d="M58.8782 45.5584C59.5941 40.6443 63.8078 37 68.7738 37H341.498C347.617 37 352.301 42.4461 351.385 48.4961L314.162 294.496C313.422 299.386 309.219 303 304.274 303H32.9373C26.8407 303 22.1629 297.591 23.0418 291.558L58.8782 45.5584Z" stroke="#FF00E5" stroke-width="6"/>
</g>
<path d="M59.5538 40.9208C59.8818 38.6695 61.8121 37 64.0872 37H341.498C347.617 37 352.301 42.4461 351.385 48.4961L313.514 298.775C313.147 301.204 311.059 303 308.602 303H286.22C146.572 303 39.4228 179.111 59.5538 40.9208V40.9208Z" fill="url(#paint1_linear_140:13186)" fill-opacity="0.1"/>
</g>
<path d="M215.672 194.46H213.915C211.549 194.191 209.254 193.438 207.159 192.241L206.72 191.955L188.817 179.501C188.431 179.216 187.97 179.066 187.499 179.071H186.959L163.009 184.797C161.181 185.247 159.312 185.476 157.435 185.477C153.413 185.658 149.45 184.397 146.187 181.898C146.017 181.799 145.858 181.678 145.714 181.541C144.222 180.126 143.139 178.294 142.589 176.254C142.039 174.215 142.045 172.053 142.606 170.017L149.733 143.607C149.784 143.501 149.81 143.385 149.81 143.267C149.81 143.149 149.784 143.032 149.733 142.927L133.08 121.669C131.705 119.918 130.866 117.764 130.673 115.496C130.48 113.227 130.942 110.949 131.999 108.965C132.971 107.237 134.344 105.8 135.988 104.792C137.631 103.784 139.491 103.237 141.39 103.203L166.387 102.237C166.642 102.231 166.892 102.159 167.116 102.028C167.339 101.897 167.529 101.711 167.671 101.486L181.183 78.6896C181.823 77.6292 182.635 76.6965 183.581 75.934C186.454 73.5099 190.044 72.242 193.715 72.3554C194.412 72.3008 195.112 72.3008 195.809 72.3554C198.808 72.6274 201.671 73.7985 204.063 75.7314C206.456 77.6644 208.28 80.2793 209.321 83.2703L219.759 109.824L245.804 116.981C248.044 117.601 250.027 118.991 251.439 120.935C252.852 122.878 253.614 125.264 253.607 127.717C253.598 129.367 253.272 130.998 252.651 132.512C252.03 134.025 251.125 135.389 249.992 136.521L249.553 137.022L229.488 153.663C229.215 153.903 228.995 154.204 228.843 154.544C228.691 154.884 228.612 155.255 228.61 155.631L229.522 181.219C229.524 183.39 228.988 185.524 227.969 187.408C226.95 189.292 225.482 190.859 223.712 191.955C221.316 193.593 218.524 194.463 215.672 194.46Z" fill="white"/>
<g filter="url(#filter2_d_140:13186)">
<path d="M194.12 74.1094H196.045C198.754 74.3234 201.346 75.3583 203.515 77.0906C205.683 78.8229 207.335 81.1795 208.274 83.8792L219.083 111.328L245.905 118.664C247.729 119.218 249.335 120.381 250.485 121.98C251.636 123.579 252.268 125.529 252.289 127.539C252.274 128.949 251.992 130.341 251.458 131.632C250.924 132.923 250.15 134.087 249.181 135.054L248.742 135.519L228.846 152.017C228.329 152.433 227.918 152.977 227.647 153.601C227.376 154.225 227.254 154.91 227.292 155.596L227.9 181.219C227.893 183.089 227.424 184.925 226.542 186.544C225.659 188.164 224.392 189.511 222.867 190.452C220.737 191.888 218.263 192.646 215.739 192.635C215.222 192.671 214.703 192.671 214.185 192.635C212.039 192.396 209.96 191.702 208.071 190.595L207.632 190.309L189.762 177.855C189.09 177.388 188.303 177.139 187.499 177.139C187.196 177.104 186.89 177.104 186.587 177.139L162.637 183.008C160.935 183.449 159.187 183.665 157.435 183.653C153.816 183.82 150.248 182.699 147.301 180.468L146.828 180.11C145.587 178.924 144.684 177.393 144.225 175.691C143.765 173.989 143.765 172.185 144.227 170.483L151.354 144.072C151.441 143.689 151.444 143.289 151.362 142.905C151.28 142.52 151.115 142.16 150.882 141.854L134.397 120.382C133.23 118.904 132.517 117.084 132.354 115.165C132.191 113.246 132.585 111.32 133.485 109.646C134.332 108.218 135.509 107.042 136.903 106.228C138.298 105.414 139.865 104.989 141.457 104.993L166.42 104.027C166.951 104.005 167.469 103.851 167.932 103.578C168.396 103.304 168.792 102.919 169.089 102.452L182.77 79.6563C183.316 78.7644 184.001 77.9778 184.797 77.3302C187.446 75.1195 190.75 73.978 194.12 74.1094ZM194.12 70.5307C189.96 70.3916 185.889 71.8251 182.635 74.5746C181.56 75.4661 180.635 76.5429 179.899 77.7597L166.387 100.52L141.491 101.415C139.304 101.459 137.165 102.098 135.278 103.27C133.391 104.441 131.82 106.107 130.715 108.107C129.487 110.396 128.949 113.028 129.172 115.65C129.396 118.273 130.37 120.76 131.965 122.779L148.112 143.571L140.984 169.481C140.338 171.827 140.332 174.318 140.965 176.667C141.599 179.016 142.847 181.128 144.565 182.758L145.206 183.295C148.761 186.001 153.06 187.385 157.435 187.231C159.447 187.235 161.453 186.995 163.414 186.515L187.364 180.754C187.507 180.705 187.66 180.705 187.803 180.754L205.706 193.208L206.314 193.601C208.592 194.894 211.079 195.719 213.645 196.035H215.57C218.721 196.106 221.826 195.225 224.522 193.494C226.559 192.248 228.254 190.46 229.439 188.307C230.624 186.154 231.258 183.711 231.278 181.219L230.737 155.703C230.74 155.601 230.763 155.501 230.804 155.409C230.844 155.317 230.902 155.234 230.974 155.166L250.87 138.669L251.343 138.203C252.727 136.844 253.826 135.193 254.571 133.356C255.316 131.52 255.689 129.538 255.667 127.539C255.622 124.723 254.71 122 253.07 119.785C251.429 117.569 249.151 115.981 246.58 115.264L221.38 108.393L211.246 82.6624C210.077 79.3529 208.042 76.4646 205.38 74.3352C202.718 72.2059 199.539 70.9235 196.214 70.6381C195.449 70.5847 194.682 70.5847 193.917 70.6381L194.12 70.5307Z" fill="#1F093D"/>
</g>
<path d="M203.173 83.4133L214.929 114.762C215.101 115.29 215.395 115.762 215.785 116.138C216.174 116.513 216.647 116.778 217.158 116.91L245.77 124.747C246.328 124.947 246.828 125.298 247.219 125.765C247.609 126.233 247.878 126.8 247.997 127.412C248.117 128.023 248.083 128.657 247.9 129.251C247.717 129.844 247.39 130.377 246.952 130.795L223.678 150.084C223.274 150.439 222.954 150.89 222.742 151.399C222.531 151.908 222.435 152.463 222.462 153.018L223.07 183.043C223.239 185.906 218.847 190.738 211.821 186.801L191.08 171.842C190.647 171.522 190.145 171.322 189.62 171.26C189.095 171.197 188.563 171.274 188.074 171.484L160.34 178.642C154.969 180.002 147.943 178.642 148.923 175.063L167.975 146.792C168.108 146.25 168.119 145.683 168.007 145.136C167.896 144.589 167.665 144.078 167.333 143.642L148.551 119.45C148.204 118.941 147.99 118.344 147.93 117.719C147.87 117.094 147.966 116.463 148.209 115.89C148.452 115.317 148.834 114.821 149.315 114.454C149.796 114.086 150.36 113.86 150.95 113.796L180.608 112.687C181.136 112.655 181.649 112.493 182.107 112.214C182.564 111.934 182.954 111.544 183.243 111.076L190.269 80.7651C191.587 78.3316 200.876 77.4369 203.173 83.4133Z" fill="#DD890E"/>
<path d="M216.482 190.166C214.404 190.086 212.375 189.472 210.571 188.377L189.593 174.062C189.289 173.811 188.918 173.74 187.837 174.062L160.813 180.575C156.59 181.649 150.679 181.148 148.28 178.535C147.815 178.06 147.488 177.454 147.339 176.788C147.189 176.122 147.223 175.424 147.436 174.778L147.571 174.062L166.387 146.077C166.42 145.854 166.407 145.627 166.349 145.411C166.291 145.194 166.188 144.994 166.049 144.824L147.233 120.597C146.648 119.839 146.274 118.924 146.153 117.954C146.032 116.984 146.168 115.998 146.547 115.106C146.926 114.213 147.533 113.451 148.299 112.903C149.064 112.356 149.959 112.046 150.882 112.008L180.405 110.898C180.826 110.87 181.223 110.679 181.52 110.362L186.553 79.9786C187.69 78.6779 189.121 77.7059 190.711 77.1548C192.301 76.6037 193.998 76.4917 195.64 76.8294C197.63 76.9767 199.537 77.7308 201.131 79.0008C202.726 80.2708 203.939 82.0024 204.625 83.9868L216.482 114.191C216.482 114.405 216.921 114.763 217.867 115.05L246.479 122.851C247.329 123.092 248.097 123.583 248.695 124.267C249.293 124.951 249.695 125.8 249.857 126.716C250.076 127.705 250.034 128.739 249.736 129.704C249.438 130.67 248.896 131.53 248.168 132.191L224.893 151.516C224.697 151.681 224.541 151.894 224.441 152.138C224.341 152.381 224.299 152.647 224.319 152.912L224.927 183.009C224.876 184.176 224.538 185.309 223.945 186.295C223.352 187.281 222.526 188.085 221.549 188.627C220.035 189.646 218.276 190.18 216.482 190.166ZM188.85 170.09C189.773 170.06 190.682 170.335 191.451 170.877L212.294 185.406C213.389 186.16 214.659 186.579 215.964 186.617C217.269 186.655 218.559 186.31 219.691 185.621C220.127 185.367 220.505 185.013 220.797 184.587C221.089 184.16 221.288 183.67 221.38 183.152L220.772 153.055C220.732 152.22 220.883 151.386 221.213 150.626C221.542 149.866 222.04 149.201 222.664 148.689L245.938 129.4C246.211 129.154 246.417 128.835 246.536 128.477C246.655 128.118 246.682 127.733 246.614 127.36C246.571 127.09 246.456 126.839 246.283 126.636C246.109 126.433 245.884 126.287 245.634 126.215L217.023 118.378C216.217 118.255 215.454 117.914 214.809 117.387C214.164 116.86 213.658 116.166 213.341 115.372L201.45 85.1319C200.959 83.79 200.11 82.6287 199.006 81.7898C197.902 80.9509 196.592 80.4707 195.235 80.4081C193.262 80.0564 191.236 80.5035 189.56 81.6606L184.526 112.044C184.099 112.762 183.512 113.359 182.818 113.783C182.123 114.207 181.341 114.445 180.54 114.477L150.983 115.586C150.694 115.595 150.414 115.69 150.175 115.861C149.935 116.033 149.747 116.272 149.632 116.553C149.505 116.835 149.456 117.15 149.492 117.461C149.528 117.771 149.647 118.065 149.834 118.306L168.65 142.462C169.16 143.115 169.513 143.889 169.677 144.718C169.842 145.548 169.814 146.407 169.596 147.222L169.325 147.759L150.611 175.637C152.013 176.498 153.566 177.048 155.175 177.251C156.784 177.454 158.415 177.307 159.968 176.817L186.992 170.269C187.605 170.147 188.227 170.087 188.85 170.09Z" fill="#C47F0B"/>
<path d="M193.343 81.9831L203.477 111.4C203.662 111.923 203.96 112.392 204.347 112.772C204.734 113.151 205.199 113.428 205.706 113.583L234.351 121.384C234.917 121.581 235.423 121.932 235.819 122.402C236.215 122.873 236.487 123.446 236.607 124.063C236.727 124.68 236.691 125.321 236.503 125.918C236.314 126.516 235.98 127.051 235.534 127.468L212.259 146.757C211.849 147.109 211.522 147.557 211.305 148.067C211.088 148.577 210.987 149.133 211.009 149.692L212.834 180.933C212.83 181.56 212.671 182.174 212.373 182.715C212.075 183.256 211.649 183.705 211.136 184.016C210.623 184.328 210.042 184.491 209.45 184.49C208.859 184.49 208.279 184.324 207.767 184.011L183.242 166.511C182.799 166.214 182.297 166.03 181.775 165.974C181.253 165.918 180.726 165.992 180.236 166.189L152.739 177.641C152.176 177.83 151.576 177.859 151 177.725C150.423 177.592 149.889 177.301 149.452 176.881C149.014 176.461 148.689 175.927 148.507 175.332C148.325 174.737 148.293 174.102 148.415 173.49L156.522 143.393C156.66 142.854 156.676 142.289 156.571 141.742C156.465 141.195 156.24 140.682 155.914 140.244L137.099 116.088C136.76 115.579 136.553 114.985 136.498 114.365C136.442 113.745 136.541 113.12 136.783 112.553C137.025 111.985 137.403 111.494 137.879 111.129C138.355 110.764 138.913 110.536 139.497 110.469L169.021 109.324C169.545 109.297 170.057 109.14 170.514 108.867C170.971 108.593 171.362 108.211 171.656 107.75L187.532 81.3389C187.881 80.8328 188.349 80.4326 188.89 80.1782C189.43 79.9239 190.024 79.8243 190.612 79.8896C191.201 79.9548 191.762 80.1825 192.242 80.5499C192.721 80.9173 193.1 81.4115 193.343 81.9831Z" fill="#FBBB00"/>
<path d="M193.343 81.9831L203.477 111.4C203.662 111.923 203.96 112.392 204.347 112.772C204.734 113.151 205.199 113.428 205.706 113.583L234.351 121.384C234.917 121.581 235.423 121.932 235.819 122.402C236.215 122.873 236.487 123.446 236.607 124.063C236.727 124.68 236.691 125.321 236.503 125.918C236.314 126.516 235.98 127.051 235.534 127.468L212.259 146.757C211.849 147.109 211.522 147.557 211.305 148.067C211.088 148.577 210.987 149.133 211.009 149.692L212.834 180.933C212.83 181.56 212.671 182.174 212.373 182.715C212.075 183.256 211.649 183.705 211.136 184.016C210.623 184.328 210.042 184.491 209.45 184.49C208.859 184.49 208.279 184.324 207.767 184.011L183.242 166.511C182.799 166.214 182.297 166.03 181.775 165.974C181.253 165.918 180.726 165.992 180.236 166.189L152.739 177.641C152.176 177.83 151.576 177.859 151 177.725C150.423 177.592 149.889 177.301 149.452 176.881C149.014 176.461 148.689 175.927 148.507 175.332C148.325 174.737 148.293 174.102 148.415 173.49L156.522 143.393C156.66 142.854 156.676 142.289 156.571 141.742C156.465 141.195 156.24 140.682 155.914 140.244L137.099 116.088C136.76 115.579 136.553 114.985 136.498 114.365C136.442 113.745 136.541 113.12 136.783 112.553C137.025 111.985 137.403 111.494 137.879 111.129C138.355 110.764 138.913 110.536 139.497 110.469L169.021 109.324C169.545 109.297 170.057 109.14 170.514 108.867C170.971 108.593 171.362 108.211 171.656 107.75L187.532 81.3389C187.881 80.8328 188.349 80.4326 188.89 80.1782C189.43 79.9239 190.024 79.8243 190.612 79.8896C191.201 79.9548 191.762 80.1825 192.242 80.5499C192.721 80.9173 193.1 81.4115 193.343 81.9831Z" fill="url(#paint2_radial_140:13186)"/>
<path d="M140.68 111.328L209.929 184.548L212.834 183.724L212.463 172.452L153.821 110.397L140.68 111.328Z" fill="#FFCF00"/>
<path d="M168.751 110.683L210.74 153.985L211.145 148.581L214.591 142.605L174.291 103.383L168.751 110.683Z" fill="#FFCF00"/>
<path d="M153.077 157.85L149.226 174.061C149.137 174.651 149.199 175.255 149.406 175.811C149.613 176.367 149.957 176.853 150.403 177.219C150.849 177.585 151.379 177.818 151.939 177.892C152.499 177.966 153.067 177.879 153.584 177.64L169.798 170.482L154.901 169.158L153.077 157.85Z" fill="#FFCF00"/>
<path d="M188.073 81.446L183.073 90.178L189.829 87.4224L199.355 101.451L192.025 81.8039C191.87 81.402 191.613 81.0533 191.282 80.7962C190.952 80.5391 190.561 80.3835 190.152 80.3465C189.744 80.3095 189.333 80.3925 188.967 80.5865C188.6 80.7805 188.291 81.0779 188.073 81.446Z" fill="#FFCF00"/>
<path d="M209.591 186.408C208.6 186.402 207.634 186.078 206.821 185.478L182.297 168.014C182.075 167.882 181.825 167.813 181.571 167.813C181.316 167.813 181.066 167.882 180.844 168.014L153.348 179.322C152.489 179.681 151.553 179.777 150.645 179.6C149.737 179.423 148.895 178.98 148.213 178.32C147.527 177.671 147.032 176.827 146.786 175.888C146.541 174.949 146.555 173.955 146.828 173.024L154.935 142.892C155.004 142.634 155.012 142.362 154.959 142.1C154.906 141.838 154.793 141.594 154.631 141.388L135.816 117.232C135.229 116.481 134.852 115.571 134.728 114.605C134.604 113.639 134.737 112.656 135.113 111.766C135.489 110.876 136.093 110.115 136.856 109.57C137.619 109.024 138.511 108.716 139.43 108.679L168.988 107.534C169.239 107.531 169.485 107.461 169.704 107.329C169.923 107.198 170.106 107.01 170.238 106.783L186.114 80.3721C186.605 79.5425 187.307 78.8758 188.139 78.4481C188.97 78.0205 189.899 77.8492 190.818 77.9536C191.737 78.0581 192.61 78.4342 193.337 79.039C194.065 79.6438 194.617 80.453 194.931 81.3742L205.065 110.791C205.148 111.046 205.291 111.275 205.48 111.456C205.669 111.637 205.898 111.766 206.146 111.829L234.656 119.666C235.553 119.904 236.37 120.405 237.011 121.111C237.653 121.817 238.094 122.701 238.284 123.66C238.475 124.619 238.406 125.616 238.087 126.536C237.768 127.456 237.211 128.262 236.48 128.863L213.206 148.152C213.002 148.32 212.84 148.539 212.734 148.788C212.628 149.038 212.581 149.311 212.598 149.584L214.388 180.825C214.42 181.538 214.316 182.249 214.084 182.918C213.852 183.587 213.495 184.2 213.035 184.721C212.575 185.241 212.022 185.659 211.407 185.948C210.792 186.238 210.129 186.395 209.456 186.408H209.591ZM181.419 164.149C182.406 164.142 183.373 164.454 184.189 165.043L208.713 182.507C208.961 182.673 209.248 182.76 209.541 182.76C209.833 182.76 210.12 182.673 210.368 182.507C210.559 182.357 210.716 182.164 210.828 181.941C210.939 181.718 211.001 181.471 211.01 181.219L209.186 149.977C209.133 149.1 209.291 148.222 209.645 147.427C210 146.632 210.539 145.946 211.213 145.432L234.656 126.036C234.887 125.847 235.062 125.593 235.163 125.303C235.264 125.013 235.285 124.699 235.226 124.396C235.166 124.094 235.027 123.815 234.824 123.593C234.622 123.37 234.365 123.212 234.082 123.137L205.47 115.3C204.702 115.083 203.994 114.674 203.407 114.108C202.819 113.541 202.368 112.833 202.092 112.043L191.958 82.6267C191.868 82.3301 191.699 82.0674 191.471 81.8705C191.244 81.6736 190.967 81.5509 190.674 81.5173C190.377 81.4876 190.078 81.5453 189.81 81.6842C189.542 81.8232 189.315 82.0378 189.154 82.3046L173.278 108.715C172.848 109.429 172.261 110.021 171.566 110.439C170.871 110.856 170.09 111.088 169.292 111.113L139.768 112.258C139.473 112.255 139.184 112.343 138.935 112.51C138.687 112.678 138.49 112.919 138.368 113.203C138.246 113.488 138.205 113.804 138.25 114.112C138.295 114.421 138.423 114.709 138.619 114.942L157.401 139.098C157.912 139.758 158.264 140.538 158.429 141.373C158.594 142.208 158.565 143.073 158.347 143.894L150.206 174.062C150.123 174.358 150.12 174.672 150.198 174.969C150.276 175.267 150.431 175.535 150.645 175.744C150.857 175.957 151.123 176.101 151.411 176.158C151.699 176.215 151.996 176.183 152.267 176.066L179.763 164.578C180.288 164.335 180.848 164.19 181.419 164.149Z" fill="#C47F0B"/>
<path d="M211.058 147.255L210.396 150.764L221.658 153.15L222.32 149.641L211.058 147.255Z" fill="#C47F0B"/>
<path d="M213.009 180.576L212.249 184.062L221.991 186.447L222.751 182.96L213.009 180.576Z" fill="#C47F0B"/>
<path d="M108.809 237.256C107.369 237.288 106.265 237.288 105.497 237.256C104.761 237.192 104.105 237.144 103.529 237.112C103.305 237.112 102.953 237.096 102.473 237.064C102.025 237 101.721 236.984 101.561 237.016V237.112C101.273 239.8 101.129 242.552 101.129 245.368C101.161 248.152 101.209 250.984 101.273 253.864C101.369 256.712 101.433 259.592 101.465 262.504C101.497 265.416 101.401 268.312 101.177 271.192C101.497 271.096 102.089 271.064 102.953 271.096C103.817 271.16 104.713 271.208 105.641 271.24C106.601 271.272 107.481 271.256 108.281 271.192C109.113 271.16 109.657 271.016 109.913 270.76C109.753 268.04 109.657 265.288 109.625 262.504C109.593 259.72 109.593 256.936 109.625 254.152C109.689 251.336 109.753 248.536 109.817 245.752C109.913 242.968 109.961 240.2 109.961 237.448V237.256H108.809ZM119.885 249.592C119.853 249.144 119.837 248.744 119.837 248.392C119.869 248.04 119.853 247.592 119.789 247.048C119.789 246.952 119.661 246.904 119.405 246.904C119.149 246.872 118.861 246.872 118.541 246.904C118.221 246.936 117.901 246.984 117.581 247.048C117.261 247.08 117.037 247.096 116.909 247.096C116.525 247.128 116.205 247.16 115.949 247.192C115.693 247.192 115.453 247.192 115.229 247.192C115.005 247.192 114.765 247.192 114.509 247.192C114.253 247.16 113.933 247.128 113.549 247.096C113.421 251.32 113.389 255.4 113.453 259.336C113.549 263.272 113.597 267.208 113.597 271.144C114.365 271.08 115.005 271.064 115.517 271.096C116.029 271.128 116.493 271.144 116.909 271.144C117.325 271.176 117.725 271.176 118.109 271.144C118.525 271.112 119.005 271.016 119.549 270.856V270.664C119.677 269.608 119.741 268.552 119.741 267.496C119.741 266.44 119.709 265.384 119.645 264.328C119.613 263.24 119.581 262.168 119.549 261.112C119.517 260.024 119.533 258.92 119.597 257.8C119.661 256.936 119.885 256.296 120.269 255.88C120.653 255.432 121.085 255.144 121.565 255.016C122.045 254.856 122.525 254.824 123.005 254.92C123.517 254.984 123.901 255.08 124.157 255.208C124.189 255.24 124.221 255.256 124.253 255.256C124.285 255.256 124.317 255.272 124.349 255.304C124.605 255.496 124.797 255.768 124.925 256.12C125.085 256.472 125.197 256.872 125.261 257.32C125.357 257.768 125.421 258.232 125.453 258.712C125.485 259.16 125.517 259.576 125.549 259.96C125.613 260.824 125.645 261.752 125.645 262.744C125.677 263.736 125.677 264.728 125.645 265.72C125.645 266.712 125.645 267.672 125.645 268.6C125.645 269.528 125.677 270.36 125.741 271.096C126.861 271.096 127.853 271.096 128.717 271.096C129.613 271.128 130.621 271.064 131.741 270.904C131.677 269.816 131.661 268.552 131.693 267.112C131.725 265.672 131.757 264.184 131.789 262.648C131.821 261.08 131.837 259.544 131.837 258.04C131.869 256.504 131.853 255.096 131.789 253.816C131.757 252.536 131.645 251.448 131.453 250.552C131.293 249.624 131.053 249.016 130.733 248.728C130.061 248.152 129.309 247.752 128.477 247.528C127.645 247.304 126.781 247.208 125.885 247.24C125.021 247.272 124.173 247.432 123.341 247.72C122.509 248.008 121.757 248.392 121.085 248.872C120.925 249 120.717 249.128 120.461 249.256C120.237 249.384 120.045 249.496 119.885 249.592ZM140.114 247.144C139.09 247.016 138.002 247 136.85 247.096C135.73 247.16 134.594 247.128 133.442 247C134.466 250.776 135.394 254.744 136.226 258.904C137.058 263.064 137.794 267.144 138.434 271.144C139.042 271.144 139.73 271.144 140.498 271.144C141.298 271.176 142.098 271.192 142.898 271.192C143.73 271.224 144.53 271.224 145.298 271.192C146.098 271.192 146.818 271.144 147.458 271.048C148.002 269.032 148.498 267 148.946 264.952C149.394 262.872 149.842 260.808 150.29 258.76C150.738 256.712 151.202 254.712 151.682 252.76C152.194 250.776 152.786 248.872 153.458 247.048C152.786 247.016 152.178 247 151.634 247C151.09 247 150.562 247.016 150.05 247.048C149.538 247.08 149.042 247.112 148.562 247.144C148.082 247.176 147.57 247.192 147.026 247.192C146.642 248.152 146.29 249.368 145.97 250.84C145.65 252.312 145.346 253.832 145.058 255.4C144.802 256.968 144.53 258.488 144.242 259.96C143.954 261.4 143.634 262.6 143.282 263.56C142.93 262.6 142.61 261.432 142.322 260.056C142.034 258.648 141.762 257.176 141.506 255.64C141.25 254.104 141.01 252.6 140.786 251.128C140.562 249.624 140.338 248.296 140.114 247.144ZM161.076 246.856C160.052 246.888 159.172 246.888 158.436 246.856C157.7 246.824 157.124 246.792 156.708 246.76C156.548 246.76 156.308 246.744 155.988 246.712C155.7 246.68 155.492 246.68 155.364 246.712V246.76C155.172 248.648 155.076 250.6 155.076 252.616C155.076 254.6 155.108 256.616 155.172 258.664C155.236 260.712 155.268 262.776 155.268 264.856C155.3 266.936 155.236 268.984 155.076 271C155.3 270.936 155.748 270.92 156.42 270.952C157.092 270.984 157.796 271 158.532 271C159.3 271.032 160.004 271.032 160.644 271C161.284 271 161.684 270.904 161.844 270.712C161.62 266.84 161.556 262.888 161.652 258.856C161.78 254.824 161.86 250.872 161.892 247V246.856H161.076ZM155.172 236.392C155.14 237.864 155.156 239.112 155.22 240.136C155.316 241.128 155.364 242.088 155.364 243.016C155.972 242.984 156.628 243 157.332 243.064C158.036 243.096 158.692 243.128 159.3 243.16C159.94 243.16 160.484 243.128 160.932 243.064C161.412 243 161.716 242.872 161.844 242.68C161.844 242.2 161.828 241.656 161.796 241.048C161.796 240.408 161.78 239.8 161.748 239.224C161.748 238.616 161.732 238.072 161.7 237.592C161.7 237.08 161.7 236.728 161.7 236.536L155.172 236.392ZM171.542 249.592C171.51 249.144 171.494 248.744 171.494 248.392C171.526 248.04 171.51 247.592 171.446 247.048C171.446 246.952 171.318 246.904 171.062 246.904C170.806 246.872 170.518 246.872 170.198 246.904C169.878 246.936 169.558 246.984 169.238 247.048C168.918 247.08 168.694 247.096 168.566 247.096C168.182 247.128 167.862 247.16 167.606 247.192C167.35 247.192 167.11 247.192 166.886 247.192C166.662 247.192 166.422 247.192 166.166 247.192C165.91 247.16 165.59 247.128 165.206 247.096C165.078 251.32 165.046 255.4 165.11 259.336C165.206 263.272 165.254 267.208 165.254 271.144C166.022 271.08 166.662 271.064 167.174 271.096C167.686 271.128 168.15 271.144 168.566 271.144C168.982 271.176 169.382 271.176 169.766 271.144C170.182 271.112 170.662 271.016 171.206 270.856V270.664C171.334 269.608 171.398 268.552 171.398 267.496C171.398 266.44 171.366 265.384 171.302 264.328C171.27 263.24 171.238 262.168 171.206 261.112C171.174 260.024 171.19 258.92 171.254 257.8C171.318 256.936 171.542 256.296 171.926 255.88C172.31 255.432 172.742 255.144 173.222 255.016C173.702 254.856 174.182 254.824 174.662 254.92C175.174 254.984 175.558 255.08 175.814 255.208C175.846 255.24 175.878 255.256 175.91 255.256C175.942 255.256 175.974 255.272 176.006 255.304C176.262 255.496 176.454 255.768 176.582 256.12C176.742 256.472 176.854 256.872 176.918 257.32C177.014 257.768 177.078 258.232 177.11 258.712C177.142 259.16 177.174 259.576 177.206 259.96C177.27 260.824 177.302 261.752 177.302 262.744C177.334 263.736 177.334 264.728 177.302 265.72C177.302 266.712 177.302 267.672 177.302 268.6C177.302 269.528 177.334 270.36 177.398 271.096C178.518 271.096 179.51 271.096 180.374 271.096C181.27 271.128 182.278 271.064 183.398 270.904C183.334 269.816 183.318 268.552 183.35 267.112C183.382 265.672 183.414 264.184 183.446 262.648C183.478 261.08 183.494 259.544 183.494 258.04C183.526 256.504 183.51 255.096 183.446 253.816C183.414 252.536 183.302 251.448 183.11 250.552C182.95 249.624 182.71 249.016 182.39 248.728C181.718 248.152 180.966 247.752 180.134 247.528C179.302 247.304 178.438 247.208 177.542 247.24C176.678 247.272 175.83 247.432 174.998 247.72C174.166 248.008 173.414 248.392 172.742 248.872C172.582 249 172.374 249.128 172.118 249.256C171.894 249.384 171.702 249.496 171.542 249.592ZM205.247 261.784C204.895 261.688 204.447 261.64 203.903 261.64C203.359 261.608 202.783 261.608 202.175 261.64C201.567 261.672 200.991 261.704 200.447 261.736C199.903 261.736 199.471 261.72 199.151 261.688C199.055 262.104 198.911 262.584 198.719 263.128C198.559 263.64 198.319 264.008 197.999 264.232C197.615 264.488 197.103 264.664 196.463 264.76C195.823 264.824 195.199 264.792 194.591 264.664C193.983 264.504 193.455 264.216 193.007 263.8C192.591 263.384 192.415 262.808 192.479 262.072C192.543 260.952 192.575 259.88 192.575 258.856C192.575 257.832 192.639 256.824 192.767 255.832C192.863 255.32 193.007 255 193.199 254.872C193.615 254.36 194.159 254.008 194.831 253.816C196.079 253.496 197.087 253.656 197.855 254.296C198.623 254.904 199.087 255.768 199.247 256.888C199.663 256.952 200.127 257.016 200.639 257.08C201.183 257.144 201.727 257.192 202.271 257.224C202.847 257.256 203.391 257.272 203.903 257.272C204.447 257.272 204.927 257.224 205.343 257.128C205.311 256.072 205.279 255.096 205.247 254.2C205.247 253.272 205.183 252.44 205.055 251.704C204.927 250.968 204.735 250.328 204.479 249.784C204.255 249.24 203.919 248.808 203.471 248.488C202.799 247.848 201.999 247.368 201.071 247.048C200.143 246.728 199.167 246.536 198.143 246.472C197.471 246.408 196.831 246.408 196.223 246.472C195.647 246.504 195.039 246.488 194.399 246.424C193.631 246.424 192.863 246.472 192.095 246.568C191.359 246.664 190.655 246.84 189.983 247.096C189.343 247.32 188.767 247.608 188.255 247.96C187.775 248.312 187.423 248.728 187.199 249.208C187.103 249.528 186.959 249.992 186.767 250.6C186.575 251.208 186.463 251.688 186.431 252.04C186.239 253.192 186.143 254.344 186.143 255.496C186.271 256.552 186.303 257.72 186.239 259C186.207 260.28 186.223 261.56 186.287 262.84C186.351 264.088 186.543 265.288 186.863 266.44C187.183 267.592 187.775 268.552 188.639 269.32C189.759 270.44 191.135 271.144 192.767 271.432C193.663 271.432 194.655 271.464 195.743 271.528C196.831 271.624 197.887 271.624 198.911 271.528C199.935 271.464 200.879 271.272 201.743 270.952C202.639 270.632 203.359 270.088 203.903 269.32C204.127 269.096 204.303 268.744 204.431 268.264C204.591 267.752 204.719 267.16 204.815 266.488C204.911 265.784 204.991 265.032 205.055 264.232C205.119 263.432 205.183 262.616 205.247 261.784ZM213.857 246.856C212.833 246.888 211.953 246.888 211.217 246.856C210.481 246.824 209.905 246.792 209.489 246.76C209.329 246.76 209.089 246.744 208.769 246.712C208.481 246.68 208.273 246.68 208.145 246.712V246.76C207.953 248.648 207.857 250.6 207.857 252.616C207.857 254.6 207.889 256.616 207.953 258.664C208.017 260.712 208.049 262.776 208.049 264.856C208.081 266.936 208.017 268.984 207.857 271C208.081 270.936 208.529 270.92 209.201 270.952C209.873 270.984 210.577 271 211.313 271C212.081 271.032 212.785 271.032 213.425 271C214.065 271 214.465 270.904 214.625 270.712C214.401 266.84 214.337 262.888 214.433 258.856C214.561 254.824 214.641 250.872 214.673 247V246.856H213.857ZM207.953 236.392C207.921 237.864 207.937 239.112 208.001 240.136C208.097 241.128 208.145 242.088 208.145 243.016C208.753 242.984 209.409 243 210.113 243.064C210.817 243.096 211.473 243.128 212.081 243.16C212.721 243.16 213.265 243.128 213.713 243.064C214.193 243 214.497 242.872 214.625 242.68C214.625 242.2 214.609 241.656 214.577 241.048C214.577 240.408 214.561 239.8 214.529 239.224C214.529 238.616 214.513 238.072 214.481 237.592C214.481 237.08 214.481 236.728 214.481 236.536L207.953 236.392ZM224.227 237.256C224.227 237.224 224.003 237.192 223.555 237.16C223.139 237.096 222.611 237.064 221.971 237.064C221.363 237.032 220.707 237.032 220.003 237.064C219.299 237.064 218.691 237.112 218.179 237.208V240.376C218.179 243.032 218.147 245.688 218.083 248.344C218.019 251 217.955 253.624 217.891 256.216C217.859 258.776 217.827 261.304 217.795 263.8C217.795 266.264 217.827 268.648 217.891 270.952C218.883 270.952 219.971 270.968 221.155 271C222.339 271.064 223.411 271.032 224.371 270.904C224.403 270.84 224.419 270.728 224.419 270.568C224.419 270.248 224.419 269.992 224.419 269.8C224.451 269.608 224.467 269.336 224.467 268.984C224.531 268.824 224.595 268.712 224.659 268.648C224.755 268.552 224.851 268.6 224.947 268.792C225.427 269.752 226.067 270.376 226.867 270.664C227.667 270.92 228.515 270.984 229.411 270.856C231.235 270.728 232.675 270.264 233.731 269.464C234.787 268.632 235.571 267.592 236.083 266.344C236.627 265.064 236.979 263.64 237.139 262.072C237.299 260.504 237.411 258.92 237.475 257.32C237.475 256.2 237.395 255.112 237.235 254.056C237.107 253 236.883 252.04 236.563 251.176C236.275 250.28 235.875 249.528 235.363 248.92C234.883 248.28 234.291 247.832 233.587 247.576C232.723 247.256 231.763 247.064 230.707 247C229.683 246.904 228.707 246.904 227.779 247C226.851 247.064 226.067 247.208 225.427 247.432C224.787 247.656 224.435 247.912 224.371 248.2C224.403 246.696 224.419 245.48 224.419 244.552C224.419 243.624 224.419 242.888 224.419 242.344C224.419 241.768 224.403 241.336 224.371 241.048C224.371 240.728 224.355 240.44 224.323 240.184C224.323 239.896 224.307 239.592 224.275 239.272C224.275 238.92 224.259 238.424 224.227 237.784V237.256ZM231.667 255.88C231.827 256.328 231.923 256.792 231.955 257.272C231.987 257.752 232.003 258.216 232.003 258.664C232.003 259.464 231.907 260.248 231.715 261.016C231.523 261.752 231.235 262.424 230.851 263.032C230.467 263.608 230.003 264.072 229.459 264.424C228.915 264.776 228.307 264.952 227.635 264.952C226.803 264.952 226.163 264.776 225.715 264.424C225.267 264.072 224.915 263.592 224.659 262.984C224.435 262.376 224.291 261.656 224.227 260.824C224.195 259.96 224.179 259.016 224.179 257.992C224.179 256.744 224.195 255.768 224.227 255.064C224.291 254.328 224.419 253.768 224.611 253.384C224.803 253 225.091 252.76 225.475 252.664C225.891 252.536 226.435 252.472 227.107 252.472C228.419 252.472 229.459 252.76 230.227 253.336C231.027 253.912 231.507 254.76 231.667 255.88ZM240.349 236.104C240.061 239.016 239.917 241.928 239.917 244.84C239.949 247.752 240.013 250.664 240.109 253.576C240.205 256.488 240.269 259.4 240.301 262.312C240.365 265.224 240.285 268.12 240.061 271C240.285 270.936 240.733 270.92 241.405 270.952C242.077 270.984 242.781 271 243.517 271C244.285 271.032 244.989 271.032 245.629 271C246.269 271 246.669 270.904 246.829 270.712C246.765 269.432 246.717 267.88 246.685 266.056C246.653 264.2 246.637 262.216 246.637 260.104C246.637 257.992 246.637 255.8 246.637 253.528C246.669 251.256 246.701 249.064 246.733 246.952C246.765 244.84 246.797 242.856 246.829 241C246.861 239.144 246.877 237.56 246.877 236.248L240.349 236.104ZM255.855 258.952C256.175 259.016 256.687 259.064 257.391 259.096C258.095 259.128 258.879 259.144 259.743 259.144C260.639 259.144 261.567 259.128 262.527 259.096C263.487 259.064 264.383 259.016 265.215 258.952C266.079 258.888 266.815 258.824 267.423 258.76C268.063 258.696 268.495 258.632 268.719 258.568C268.815 257.224 268.815 255.896 268.719 254.584C268.623 253.272 268.335 252.072 267.855 250.984C267.407 249.896 266.735 248.968 265.839 248.2C264.943 247.432 263.759 246.92 262.287 246.664C261.135 246.376 259.951 246.248 258.735 246.28C257.519 246.312 256.367 246.504 255.279 246.856C254.191 247.176 253.215 247.672 252.351 248.344C251.487 248.984 250.847 249.768 250.431 250.696C250.047 251.752 249.791 252.84 249.663 253.96C249.567 255.048 249.471 256.184 249.375 257.368C249.311 258.68 249.343 259.992 249.471 261.304C249.599 262.616 249.839 263.864 250.191 265.048C250.543 266.2 251.007 267.272 251.583 268.264C252.159 269.224 252.879 270.008 253.743 270.616C254.511 271.064 255.343 271.352 256.239 271.48C257.135 271.48 258.111 271.512 259.167 271.576C260.255 271.64 261.311 271.64 262.335 271.576C263.359 271.512 264.303 271.32 265.167 271C266.031 270.68 266.735 270.136 267.279 269.368C267.503 269.176 267.679 268.84 267.807 268.36C267.967 267.848 268.095 267.256 268.191 266.584C268.287 265.88 268.367 265.128 268.431 264.328C268.495 263.528 268.559 262.712 268.623 261.88C268.271 261.784 267.823 261.736 267.279 261.736C266.735 261.704 266.159 261.704 265.551 261.736C264.975 261.768 264.415 261.8 263.871 261.832C263.327 261.832 262.895 261.816 262.575 261.784C262.639 263.096 262.431 264.088 261.951 264.76C261.503 265.4 260.943 265.784 260.271 265.912C259.599 266.04 258.911 265.928 258.207 265.576C257.503 265.224 256.959 264.68 256.575 263.944C256.223 263.368 256.015 262.776 255.951 262.168C255.919 261.56 255.887 260.776 255.855 259.816V258.952ZM261.663 251.512C262.239 251.8 262.687 252.232 263.007 252.808C263.359 253.384 263.535 253.992 263.535 254.632C263.535 254.888 263.535 255.064 263.535 255.16C263.535 255.224 263.439 255.272 263.247 255.304C263.087 255.304 262.799 255.288 262.383 255.256C261.967 255.224 261.343 255.208 260.511 255.208C259.295 255.208 258.367 255.224 257.727 255.256C257.119 255.256 256.671 255.24 256.383 255.208C256.095 255.144 255.935 255.048 255.903 254.92C255.903 254.76 255.935 254.504 255.999 254.152C256.063 253.736 256.159 253.336 256.287 252.952C256.447 252.568 256.671 252.232 256.959 251.944C257.247 251.656 257.631 251.432 258.111 251.272C258.591 251.112 259.215 251.032 259.983 251.032C260.335 251.032 260.639 251.08 260.895 251.176C261.151 251.24 261.407 251.352 261.663 251.512Z" fill="white"/>
<defs>
<filter id="filter0_d_140:13186" x="-14.0652" y="0" width="402.566" height="346" filterUnits="userSpaceOnUse" color-interpolation-filters="sRGB">
<feFlood flood-opacity="0" result="BackgroundImageFix"/>
<feColorMatrix in="SourceAlpha" type="matrix" values="0 0 0 0 0 0 0 0 0 0 0 0 0 0 0 0 0 0 127 0" result="hardAlpha"/>
<feOffset/>
<feGaussianBlur stdDeviation="17"/>
<feComposite in2="hardAlpha" operator="out"/>
<feColorMatrix type="matrix" values="0 0 0 0 1 0 0 0 0 1 0 0 0 0 1 0 0 0 1 0"/>
<feBlend mode="normal" in2="BackgroundImageFix" result="effect1_dropShadow_140:13186"/>
<feBlend mode="normal" in="SourceGraphic" in2="effect1_dropShadow_140:13186" result="shape"/>
</filter>
<filter id="filter1_d_140:13186" x="-14.0652" y="0" width="402.566" height="340" filterUnits="userSpaceOnUse" color-interpolation-filters="sRGB">
<feFlood flood-opacity="0" result="BackgroundImageFix"/>
<feColorMatrix in="SourceAlpha" type="matrix" values="0 0 0 0 0 0 0 0 0 0 0 0 0 0 0 0 0 0 127 0" result="hardAlpha"/>
<feOffset/>
<feGaussianBlur stdDeviation="17"/>
<feComposite in2="hardAlpha" operator="out"/>
<feColorMatrix type="matrix" values="0 0 0 0 1 0 0 0 0 0 0 0 0 0 0.9 0 0 0 0.85 0"/>
<feBlend mode="normal" in2="BackgroundImageFix" result="effect1_dropShadow_140:13186"/>
<feBlend mode="normal" in="SourceGraphic" in2="effect1_dropShadow_140:13186" result="shape"/>
</filter>
<filter id="filter2_d_140:13186" x="123.123" y="64.5215" width="138.545" height="137.518" filterUnits="userSpaceOnUse" color-interpolation-filters="sRGB">
<feFlood flood-opacity="0" result="BackgroundImageFix"/>
<feColorMatrix in="SourceAlpha" type="matrix" values="0 0 0 0 0 0 0 0 0 0 0 0 0 0 0 0 0 0 127 0" result="hardAlpha"/>
<feOffset/>
<feGaussianBlur stdDeviation="3"/>
<feComposite in2="hardAlpha" operator="out"/>
<feColorMatrix type="matrix" values="0 0 0 0 1 0 0 0 0 0 0 0 0 0 0.9 0 0 0 1 0"/>
<feBlend mode="normal" in2="BackgroundImageFix" result="effect1_dropShadow_140:13186"/>
<feBlend mode="normal" in="SourceGraphic" in2="effect1_dropShadow_140:13186" result="shape"/>
</filter>
<linearGradient id="paint0_linear_140:13186" x1="187.25" y1="37" x2="187.25" y2="303" gradientUnits="userSpaceOnUse">
<stop stop-color="#050EA3"/>
<stop offset="1" stop-color="#00033A"/>
</linearGradient>
<linearGradient id="paint1_linear_140:13186" x1="302.875" y1="307" x2="132.875" y2="37" gradientUnits="userSpaceOnUse">
<stop stop-color="white"/>
<stop offset="1" stop-color="white" stop-opacity="0"/>
</linearGradient>
<radialGradient id="paint2_radial_140:13186" cx="0" cy="0" r="1" gradientUnits="userSpaceOnUse" gradientTransform="translate(214.691 130.195) rotate(6.58635) scale(58.6841 62.0812)">
<stop stop-color="#F39200" stop-opacity="0.8"/>
<stop offset="1" stop-color="#F9B233" stop-opacity="0"/>
</radialGradient>
</defs>
</svg>
