<svg width="105" height="103" viewBox="0 0 105 103" fill="none" xmlns="http://www.w3.org/2000/svg">
<path d="M86.951 59.8793L80.2281 53.4937C80.4869 52.3989 80.672 51.288 80.7824 50.1684C80.8666 49.0375 80.8666 47.9018 80.7824 46.7709L88.686 41.7829C89.032 41.5556 89.2853 41.2121 89.4002 40.8144C89.5151 40.4167 89.484 39.991 89.3125 39.6142L83.9631 26.6986C83.7793 26.237 83.4322 25.8592 82.9878 25.637C82.5435 25.4149 82.033 25.3639 81.5534 25.4937C79.7462 25.8793 71.5534 28.1684 71.5534 28.1684C70.2548 26.8694 68.7683 25.7728 67.1438 24.9154L66.7342 14.6504C66.7368 14.209 66.5756 13.7824 66.2818 13.453C65.988 13.1237 65.5826 12.9149 65.1438 12.8672L52.3486 11.4937C51.6297 11.4048 50.9002 11.4622 50.204 11.6624L46.9028 12.554C46.1783 12.7514 45.5215 13.1431 45.0033 13.6867C44.4852 14.2303 44.1255 14.9051 43.9631 15.6383L42.5896 22.7227C41.2147 23.1512 39.9022 23.7588 38.686 24.5299L33.6016 20.8672C32.9867 20.4756 32.244 20.3374 31.5293 20.4817C29.6219 20.7777 27.7648 21.3373 26.0113 22.1444L17.1438 33.7588C16.9142 34.1064 16.8194 34.5259 16.877 34.9385C16.9347 35.3511 17.1409 35.7284 17.4571 35.9998L24.3486 42.4335C24.0954 43.5387 23.9023 44.6568 23.7703 45.7829C23.7104 46.9066 23.7104 48.0327 23.7703 49.1564L15.8667 53.9757C15.4634 54.1737 15.1527 54.5204 14.9999 54.9429C14.8471 55.3653 14.8641 55.8306 15.0474 56.2407L21.7462 69.6142C23.698 72.0239 25.0474 71.4937 25.8667 71.2528L33.0956 68.5058C34.3623 69.9497 35.841 71.1928 37.4812 72.1925L37.8667 81.3251C37.8981 81.7347 38.072 82.1205 38.3581 82.4154C38.6441 82.7103 39.0244 82.8957 39.433 82.9395L53.5775 84.1684C55.1275 84.0808 56.6718 83.9119 58.204 83.6624C59.4089 83.4937 60.2763 82.048 60.6137 80.8913L62.2763 73.2769C63.6511 72.8754 64.9244 72.1853 66.0113 71.2528L72.3486 74.9877C74.1345 75.0962 75.9268 75.0235 77.698 74.7708C78.5655 74.7708 79.2884 73.4937 79.7703 72.7709L86.9992 62.1203C87.2575 61.8014 87.3944 61.4012 87.3856 60.9909C87.3768 60.5807 87.2228 60.1868 86.951 59.8793V59.8793ZM52.204 59.3492C45.5775 58.6263 42.3004 53.2287 42.9269 46.554C43.5534 39.8793 50.2763 34.2407 55.9872 37.7106C58.1859 38.97 59.9212 40.9032 60.9365 43.2247C61.9519 45.5462 62.1936 48.1328 61.6257 50.6022C60.2281 57.1564 56.0113 59.7588 52.204 59.3492V59.3492Z" fill="white"/>
<g filter="url(#filter0_d_131:5142)">
<path d="M53.7707 87.7593H53.2887L39.1441 86.5063C37.8852 86.3891 36.709 85.8277 35.8261 84.9227C34.9431 84.0176 34.411 82.828 34.3249 81.5665L34.0116 74.193C33.3974 73.7295 32.8176 73.2221 32.2767 72.6749L26.9273 74.6749C25.4726 75.1781 23.8899 75.1707 22.44 74.6538C20.9902 74.1369 19.7597 73.1415 18.9514 71.8316L18.5417 71.2051L11.8188 57.8316C11.2484 56.6609 11.1246 55.3224 11.4706 54.0669C11.8166 52.8115 12.6087 51.7254 13.6984 51.0123L19.867 47.1569C19.867 46.5545 19.867 45.9761 19.867 45.446C19.867 44.9159 20.0116 44.2653 20.108 43.7111L14.8791 38.6508C13.9429 37.7632 13.359 36.5672 13.235 35.283C13.1111 33.9989 13.4553 32.7132 14.2044 31.6629L23.2646 19.928C24.1562 18.699 25.6743 18.1207 30.855 16.9641C31.6759 16.7845 32.5241 16.7687 33.3511 16.9175C34.1781 17.0664 34.9676 17.377 35.6743 17.8316L39.0478 20.2412L39.5297 20.0243L40.5176 14.9159C40.8186 13.5614 41.4751 12.3116 42.4196 11.2951C43.3641 10.2787 44.5624 9.53227 45.8911 9.13277L48.5417 8.40988L49.2646 8.21711C50.4007 7.94574 51.5775 7.88853 52.7345 8.04844L65.6502 9.32555C66.8868 9.4477 68.0429 9.99468 68.9216 10.8734C69.8003 11.7521 70.3473 12.9082 70.4694 14.1448L70.8068 22.6268C71.4858 23.0778 72.1376 23.5686 72.7586 24.0966C75.361 23.3978 79.7225 22.193 81.0719 21.9039C82.3502 21.6685 83.6707 21.8801 84.8115 22.5031C85.9523 23.1262 86.844 24.1228 87.3369 25.3255L92.6622 38.2412C93.1751 39.395 93.2553 40.695 92.888 41.903C92.5207 43.1111 91.7305 44.1465 90.6622 44.8195L84.5176 48.7472C84.5176 49.3737 84.5176 49.9521 84.5176 50.5063C84.5176 51.0605 84.3731 51.687 84.2767 52.2412L89.602 57.3014C90.5172 58.1891 91.0819 59.3768 91.1926 60.647C91.3032 61.9171 90.9524 63.1846 90.2044 64.2171L82.9755 74.8195C82.4985 75.7407 81.8156 76.5395 80.9798 77.1538C80.1439 77.7681 79.1777 78.1815 78.1562 78.3617C72.9755 78.8436 71.867 78.7713 70.7586 78.2171L70.5176 78.0725L66.108 75.5183L65.3369 75.952L64.0839 81.6388C63.8639 82.9966 63.2371 84.2556 62.2862 85.2494C61.3354 86.2433 60.1053 86.9252 58.7586 87.2051C57.1091 87.4931 55.4432 87.6782 53.7707 87.7593V87.7593ZM41.5538 79.446L54.0357 80.5545C54.0357 80.5545 54.6381 80.5545 57.096 80.1689L59.2405 70.5304L61.2405 69.9039C61.7586 69.8005 62.2453 69.5777 62.6622 69.2533C62.9996 69.0123 63.4333 68.699 64.108 68.2894L65.9634 67.1087L73.5297 71.5424C74.0116 71.5424 74.9273 71.5424 76.5899 71.3496L76.7827 71.0364L83.361 61.3978L76.2526 54.699L76.7104 52.699C76.928 51.7455 77.0889 50.78 77.1923 49.8075C77.2564 48.8366 77.2564 47.8626 77.1923 46.8918V44.8436L85.3851 39.5906L81.1441 29.3496C79.0237 29.8798 75.2164 30.94 72.6622 31.6388L70.7104 32.1448L69.2164 30.7472C68.1055 29.6213 66.8299 28.6707 65.4333 27.928L63.602 26.9641L63.2405 16.3376L52.0116 15.1328C51.7322 15.1331 51.455 15.182 51.1923 15.2774L50.4454 15.4942L48.0357 16.1689C47.947 16.196 47.8669 16.2458 47.8035 16.3134C47.7401 16.3811 47.6955 16.4642 47.6743 16.5545L45.9393 25.4701L44.0839 26.193L43.361 26.4581C42.4545 26.7415 41.594 27.1555 40.8068 27.687L38.7586 28.9882L32.108 24.1689C30.108 24.6267 29.096 24.9159 28.5899 25.0605L21.096 34.5545L28.3249 41.2051L27.867 43.2292C27.6377 44.1803 27.4766 45.1466 27.3851 46.1207C27.2364 47.0786 27.1398 48.0439 27.096 49.0123V51.1087L19.0719 56.2412L24.8068 67.6388V67.7593L33.8429 64.3376L35.4815 65.8798C35.9634 66.3135 36.3731 66.7231 36.7586 67.1087C37.4404 67.8834 38.2568 68.5283 39.1682 69.0123L40.9996 70.0002L41.5538 79.446ZM29.1441 24.2171L28.9996 24.4099L29.1441 24.2171ZM52.9755 62.9882H51.8188C43.4815 62.0725 38.4694 55.3737 39.3369 46.2653C39.5689 43.7736 40.4172 41.3787 41.8054 39.2965C43.1935 37.2143 45.0779 35.5101 47.2887 34.3376C48.9291 33.4693 50.7676 33.0438 52.6226 33.103C54.4777 33.1621 56.2853 33.7039 57.867 34.6749C60.6918 36.3334 62.9151 38.8481 64.2148 41.8548C65.5146 44.8615 65.8232 48.204 65.096 51.3978C63.4333 59.5183 57.9875 62.9882 52.9755 62.9882ZM52.614 55.7593C55.1682 56.0484 57.2646 53.7834 58.0839 49.8798C58.4953 48.1427 58.3299 46.3188 57.6125 44.6841C56.8952 43.0494 55.665 41.6928 54.108 40.8195C53.5656 40.4947 52.9451 40.3231 52.3128 40.3231C51.6805 40.3231 51.0601 40.4947 50.5176 40.8195C49.4095 41.4543 48.4699 42.3459 47.778 43.4194C47.0862 44.4929 46.6622 45.7168 46.5417 46.9882C46.349 48.8677 46.2526 55.1328 52.614 55.8075V55.7593Z" fill="#40D7FF"/>
</g>
<path d="M23.3133 69.8801C23.0448 69.9581 22.761 69.9681 22.4876 69.9093C22.2142 69.8504 21.9597 69.7244 21.7471 69.5427V69.5427C23.6989 71.9524 25.0483 71.4223 25.8676 71.1813L34.0844 68.7717C33.4579 68.2656 32.8073 67.7596 32.2049 67.2295L23.3133 69.8801Z" fill="#A87BFF"/>
<path d="M27.8674 22.0478L36.1084 26.337C37.1643 25.6707 38.2677 25.0828 39.4096 24.5779L33.6988 20.8671C33.0838 20.4755 32.3411 20.3373 31.6265 20.4815C29.719 20.7776 27.8619 21.3371 26.1084 22.1442C26.3672 21.9749 26.6662 21.8768 26.975 21.8599C27.2838 21.843 27.5916 21.9078 27.8674 22.0478V22.0478Z" fill="#A87BFF"/>
<path d="M60.0122 14.5299C60.417 14.5728 60.7943 14.7548 61.0799 15.0448C61.3656 15.3348 61.5418 15.7149 61.5785 16.1203L62.0122 25.3733C64.0036 26.4429 65.8499 27.7628 67.5062 29.301L71.7713 28.048C70.3453 26.8417 68.7943 25.7915 67.1448 24.9154L66.7351 14.6504C66.7377 14.209 66.5765 13.7824 66.2828 13.453C65.989 13.1237 65.5835 12.9149 65.1448 12.8672L52.3496 11.4937C51.6307 11.4048 50.9012 11.4622 50.205 11.6624C48.5392 12.0267 46.9218 12.5848 45.3857 13.3251V13.3251C45.6632 13.1904 45.969 13.1243 46.2773 13.1323L60.0122 14.5299Z" fill="#A87BFF"/>
<path d="M57.4573 73.109L55.3127 82.1211C55.2076 82.4721 54.9955 82.7815 54.7061 83.0061C54.4167 83.2307 54.0643 83.3594 53.6982 83.3741H53.891C55.4116 83.2507 56.9241 83.0416 58.4211 82.7476C59.0036 82.6749 59.5488 82.4222 59.9808 82.0248C60.4127 81.6274 60.7099 81.1051 60.8308 80.5307L62.5175 72.4102C63.5697 72.0733 64.5999 71.6709 65.6018 71.2054L63.5296 70.1211C61.6529 71.3923 59.6095 72.3978 57.4573 73.109V73.109Z" fill="#A87BFF"/>
<path d="M42.927 46.6025C43.1453 44.2608 44.0442 42.0342 45.5129 40.1973C46.9816 38.3604 48.9558 36.9935 51.192 36.2652C49.6098 36.107 48.012 36.2619 46.4897 36.7212C44.9674 37.1805 43.5504 37.9352 42.3198 38.9421C41.0891 39.949 40.0688 41.1884 39.3172 42.5896C38.5655 43.9908 38.0972 45.5264 37.939 47.1085C37.7808 48.6907 37.9357 50.2886 38.395 51.8109C38.8544 53.3332 39.609 54.7501 40.6159 55.9808C41.6228 57.2114 42.8622 58.2317 44.2634 58.9834C45.6646 59.735 47.2002 60.2033 48.7824 60.3616C50.4148 60.4877 52.0557 60.2744 53.6017 59.7351C50.4534 59.3886 47.5681 57.8164 45.5703 55.3586C43.5725 52.9008 42.6229 49.7552 42.927 46.6025V46.6025Z" fill="#A87BFF"/>
<path d="M80.2285 53.4942C80.4873 52.3994 80.6724 51.2885 80.7827 50.1689C80.867 49.038 80.867 47.9023 80.7827 46.7713L88.6864 41.7834C89.0324 41.5561 89.2857 41.2126 89.4006 40.8149C89.5154 40.4172 89.4843 39.9915 89.3129 39.6147L83.9635 26.699C83.7797 26.2375 83.4326 25.8597 82.9882 25.6375C82.5439 25.4153 82.0333 25.3643 81.5538 25.4942C79.7466 25.8798 77.0478 26.4581 76.5177 26.6268C76.8906 26.5508 77.2782 26.6051 77.6159 26.7805C77.9535 26.956 78.2208 27.2419 78.3731 27.5906L84.1321 40.1689C84.3073 40.5413 84.3403 40.9648 84.2249 41.3598C84.1095 41.7548 83.8537 42.094 83.5056 42.3135L75.6984 47.3256C75.7865 49.5856 75.5677 51.8472 75.0478 54.0484L81.7707 60.434C82.0632 60.7232 82.245 61.1058 82.2846 61.5152C82.3242 61.9246 82.2191 62.335 81.9876 62.6749L73.9635 73.928C73.7642 74.2074 73.4844 74.4194 73.1615 74.5356C72.8386 74.6519 72.4879 74.6669 72.1562 74.5786V74.5786C73.8607 74.7876 75.5843 74.7876 77.2888 74.5786C77.714 74.5438 78.1258 74.4129 78.4931 74.1959C78.8604 73.9788 79.1737 73.6812 79.4093 73.3255L87.0478 62.1448C87.2871 61.8093 87.3991 61.3995 87.3638 60.9889C87.3284 60.5783 87.1481 60.1936 86.855 59.9039L80.2285 53.4942Z" fill="#A87BFF"/>
<path d="M75.096 54.0729C75.6159 51.8716 75.8347 49.6101 75.7466 47.35L83.5539 42.3379C83.9019 42.1184 84.1577 41.7792 84.2731 41.3842C84.3885 40.9893 84.3555 40.5657 84.1804 40.1934L78.4213 27.615C78.2691 27.2663 78.0018 26.9804 77.6641 26.805C77.3264 26.6296 76.9388 26.5753 76.5659 26.6512H76.3972L71.7707 28.0247L67.5057 29.2777C65.8493 27.7396 64.003 26.4196 62.0117 25.35L61.578 16.097C61.5412 15.6916 61.365 15.3115 61.0794 15.0215C60.7938 14.7315 60.4165 14.5496 60.0117 14.5066L46.2286 13.1813C45.9202 13.1733 45.6145 13.2394 45.337 13.3741C45.1122 13.4837 44.9126 13.6389 44.7508 13.8297C44.589 14.0205 44.4686 14.2428 44.3972 14.4825L42.2286 23.4705C41.2665 23.771 40.3248 24.1332 39.4093 24.5548C38.2674 25.0597 37.164 25.6476 36.1081 26.3138L27.8671 22.0247C27.5872 21.8917 27.2771 21.835 26.9682 21.8604C26.6593 21.8858 26.3626 21.9923 26.1081 22.1693C25.9486 22.2808 25.81 22.4194 25.6984 22.5789L17.6744 33.856C17.4381 34.1943 17.3302 34.6057 17.3699 35.0164C17.4097 35.4272 17.5945 35.8102 17.8912 36.097L24.6864 42.4825C24.4413 43.5881 24.2562 44.7062 24.1322 45.8319C24.0722 46.9556 24.0722 48.0817 24.1322 49.2054L16.1563 54.2175C15.8122 54.4405 15.5596 54.7797 15.4446 55.1733C15.3296 55.567 15.3598 55.9888 15.5298 56.362L21.2888 68.9403C21.3996 69.1698 21.5553 69.3746 21.7466 69.5428C21.9593 69.7244 22.2138 69.8504 22.4872 69.9093C22.7606 69.9682 23.0443 69.9581 23.3129 69.8801L32.2045 67.2536C32.8069 67.7837 33.4575 68.2897 34.084 68.7958C35.2235 69.6929 36.4321 70.4986 37.6984 71.2054L38.1322 80.3379C38.1681 80.746 38.3434 81.1293 38.6286 81.4233C38.9139 81.7173 39.2917 81.9041 39.6984 81.9524L53.4575 83.2536H53.6021C53.9681 83.2389 54.3205 83.1102 54.6099 82.8856C54.8994 82.661 55.1114 82.3516 55.2165 82.0006L57.4575 73.109C59.627 72.4492 61.6948 71.4924 63.6021 70.2656L65.6743 71.35L71.843 74.5548H72.2045C72.5361 74.6431 72.8868 74.6281 73.2097 74.5119C73.5327 74.3956 73.8124 74.1836 74.0117 73.9042L82.0358 62.6512C82.2674 62.3112 82.3725 61.9009 82.3328 61.4915C82.2932 61.082 82.1114 60.6995 81.8189 60.4102L75.096 54.0729ZM53.6021 59.7355C51.9998 60.2822 50.299 60.4794 48.6141 60.3138C47.0319 60.1556 45.4964 59.6873 44.0952 58.9357C42.694 58.184 41.4545 57.1637 40.4476 55.9331C39.4407 54.7024 38.6861 53.2855 38.2268 51.7632C37.7675 50.2409 37.6125 48.643 37.7707 47.0608C37.929 45.4786 38.3973 43.9431 39.1489 42.5419C39.9006 41.1407 40.9209 39.9013 42.1515 38.8944C43.3822 37.8875 44.7991 37.1328 46.3214 36.6735C47.8437 36.2142 49.4416 36.0592 51.0237 36.2175V36.2175C53.8133 36.4457 56.4363 37.638 58.4425 39.5896C60.4486 41.5412 61.7127 44.1304 62.0178 46.9125C62.3228 49.6947 61.6496 52.4963 60.114 54.8362C58.5783 57.1761 56.2759 58.9084 53.6021 59.7355V59.7355Z" fill="#C4A6FF"/>
<path d="M54.0362 84.6749H53.7711L44.5663 82.7472C43.8726 82.6628 43.2311 82.3361 42.7549 81.8246C42.2787 81.3132 41.9986 80.6499 41.9639 79.952L41.5543 71.4219L40.7591 71.0363C39.6151 70.5434 38.5447 69.8947 37.5784 69.1086L26.229 72.4821C25.2132 72.8383 24.104 72.8232 23.0983 72.4395C22.0926 72.0557 21.2553 71.3281 20.735 70.3857C20.5661 70.1899 20.4647 69.9449 20.4458 69.6869L19.3856 56.0966C19.1492 55.4563 19.1373 54.7547 19.3519 54.1068C19.5664 53.4589 19.9946 52.903 20.5663 52.5303L27.7952 47.9279C27.7432 46.9969 27.7432 46.0637 27.7952 45.1327C27.8837 44.2011 28.0285 43.2757 28.229 42.3616L22.1085 36.4821C21.6119 36.01 21.2911 35.3826 21.1991 34.7036C21.1071 34.0245 21.2494 33.3344 21.6025 32.7472L24.8555 21.7833C24.9051 21.6404 24.9697 21.503 25.0482 21.3737C25.5302 20.7231 26.5422 20.2652 31.3615 19.205C32.3871 19.0083 33.449 19.2155 34.3253 19.7833L41.9398 23.7833C43.139 23.0626 44.4163 22.4805 45.747 22.0484L43.9639 13.6387C43.9184 13.418 43.9299 13.1893 43.9973 12.9743C44.0648 12.7593 44.186 12.565 44.3494 12.4098C44.6386 12.1689 45.1446 11.6869 49.7711 10.4339C50.6281 10.2136 51.5176 10.1483 52.3976 10.2412L65.1928 11.6146C65.9252 11.6632 66.6163 11.9713 67.1418 12.4836C67.6674 12.996 67.9931 13.6789 68.0603 14.4098L68.4458 24.0484C69.7628 24.695 70.9933 25.5046 72.1085 26.458C74.1085 25.8797 79.7952 24.2893 81.3133 24.0484C82.1111 23.9363 82.9236 24.0905 83.6249 24.4869C84.3263 24.8833 84.8773 25.4999 85.1928 26.2412L90.5422 39.1568C90.8392 39.8145 90.8881 40.5575 90.6799 41.2484C90.4718 41.9394 90.0206 42.5317 89.4097 42.9158L82.1808 47.5424C82.2449 48.473 82.2449 49.4069 82.1808 50.3375C82.0905 51.2689 81.9457 52.1942 81.747 53.1086L87.9398 58.9881C88.4641 59.4939 88.7891 60.1713 88.8555 60.8968C88.9218 61.6223 88.7251 62.3475 88.3013 62.9399L80.5904 74.0484C80.245 74.5619 79.7884 74.991 79.2544 75.3039C78.7205 75.6168 78.1229 75.8053 77.5061 75.8556C72.6868 76.3134 72.0121 76.0243 71.6747 75.8556C71.4768 75.7588 71.3098 75.6086 71.1928 75.4219L68.3494 71.3978C66.8775 72.2421 65.3283 72.9441 63.7229 73.4942L62.1808 80.8917C62.0063 81.7246 61.5797 82.4836 60.9589 83.0655C60.3381 83.6475 59.5532 84.0243 58.7109 84.1448C57.1628 84.4018 55.6025 84.5787 54.0362 84.6749V84.6749ZM37.8916 66.3616C38.2195 66.364 38.5358 66.4837 38.7832 66.699C39.7119 67.5312 40.7699 68.2067 41.9157 68.699C42.3976 68.9158 42.9037 69.1568 43.4579 69.4701C43.6586 69.5745 43.8286 69.7294 43.9511 69.9195C44.0736 70.1097 44.1445 70.3285 44.1567 70.5544L44.5663 79.8074C44.5818 79.9017 44.628 79.9883 44.6977 80.0536C44.7674 80.119 44.8567 80.1595 44.9519 80.1689L54.1567 82.0725C54.1567 82.0725 54.9278 82.0725 58.3253 81.5664C58.6386 81.5206 58.9306 81.381 59.1629 81.1659C59.3952 80.9508 59.5568 80.6704 59.6266 80.3616L61.3133 72.2411C61.3541 72.0094 61.4594 71.7938 61.6171 71.619C61.7748 71.4443 61.9785 71.3175 62.2049 71.2532C64.2664 70.6138 66.235 69.7065 68.0603 68.5544C68.342 68.371 68.6848 68.3061 69.0141 68.3737C69.3434 68.4414 69.6327 68.6362 69.8193 68.9158L73.0482 73.5183C73.5543 73.5183 74.9759 73.5183 77.2892 73.2532C77.5199 73.2332 77.7433 73.1623 77.9433 73.0457C78.1432 72.929 78.3149 72.7695 78.4458 72.5785L86.0844 61.3737C86.1538 61.2981 86.1923 61.1992 86.1923 61.0966C86.1923 60.9939 86.1538 60.895 86.0844 60.8195L79.3856 54.4339C79.2202 54.2801 79.0977 54.086 79.0301 53.8705C78.9625 53.655 78.9521 53.4257 79 53.205C79.2433 52.1651 79.4203 51.1107 79.5302 50.0484C79.607 48.9734 79.607 47.8944 79.5302 46.8195C79.5265 46.5951 79.5799 46.3735 79.6852 46.1755C79.7906 45.9774 79.9445 45.8093 80.1326 45.6869L87.9639 40.6749C88.0225 40.599 88.0543 40.5057 88.0543 40.4098C88.0543 40.3139 88.0225 40.2207 87.9639 40.1448L82.7591 27.3255C82.5904 26.9399 82.0844 26.6026 81.8434 26.6749C80.0844 27.0363 72.2049 29.3014 72.2049 29.3255C71.9866 29.3845 71.7569 29.3867 71.5376 29.3318C71.3183 29.277 71.1167 29.167 70.9519 29.0122C69.668 27.8124 68.2046 26.8205 66.6145 26.0725C66.4104 25.966 66.2382 25.8074 66.1154 25.6126C65.9926 25.4179 65.9237 25.1941 65.9157 24.964L65.5302 14.699C65.5036 14.6059 65.4509 14.5223 65.3783 14.4582C65.3057 14.3942 65.2162 14.3523 65.1205 14.3375L52.2049 12.8677C51.6559 12.7598 51.0912 12.7598 50.5422 12.8677C48.6627 13.3737 47.482 13.7592 46.8314 14.0002L48.6386 22.5544C48.7072 22.8731 48.6536 23.206 48.4885 23.4871C48.3234 23.7682 48.0588 23.9771 47.747 24.0725C45.9839 24.5512 44.3083 25.3076 42.7832 26.3134C42.5846 26.4253 42.3605 26.4841 42.1326 26.4841C41.9046 26.4841 41.6806 26.4253 41.482 26.3134L33.0964 22.0243C32.7521 21.7862 32.3288 21.6912 31.9157 21.7592C30.3333 22.0707 28.772 22.4811 27.241 22.9881L24.0603 33.6628C24.0208 33.8023 23.9554 33.9331 23.8675 34.0484C23.7981 34.124 23.7596 34.2229 23.7596 34.3255C23.7596 34.4281 23.7981 34.527 23.8675 34.6026L30.5663 40.964C30.7239 41.1278 30.8392 41.3275 30.9021 41.5458C30.9651 41.7641 30.9739 41.9946 30.9278 42.2171C30.6963 43.2593 30.5194 44.313 30.3976 45.3737C30.333 46.449 30.333 47.5273 30.3976 48.6026C30.406 48.8277 30.3547 49.0511 30.2489 49.25C30.1431 49.4489 29.9866 49.6163 29.7952 49.7351L21.988 54.7472C21.9202 54.8188 21.8824 54.9136 21.8824 55.0122C21.8824 55.1108 21.9202 55.2057 21.988 55.2773C22.0153 55.4206 22.0153 55.5677 21.988 55.711L23.0482 69.0604C24.2049 70.3616 24.8073 70.1689 25.4579 70.0002L37.5061 66.4098C37.6298 66.3671 37.7611 66.3507 37.8916 66.3616V66.3616ZM55 61.0604C54.5346 61.0882 54.0679 61.0882 53.6025 61.0604V61.0604C50.0009 60.8905 46.6087 59.3186 44.1509 56.6805C41.6931 54.0425 40.3647 50.5477 40.4497 46.9431C40.5346 43.3386 42.0262 39.9103 44.6056 37.391C47.185 34.8717 50.6475 33.4613 54.2531 33.4613C57.8586 33.4613 61.3211 34.8717 63.9005 37.391C66.4799 39.9103 67.9715 43.3386 68.0565 46.9431C68.1414 50.5477 66.813 54.0425 64.3552 56.6805C61.8974 59.3186 58.5052 60.8905 54.9037 61.0604H55ZM53.9639 58.4098C56.799 58.6791 59.6257 57.8173 61.8282 56.0119C64.0307 54.2066 65.4306 51.6041 65.7229 48.7713C65.9477 46.6388 65.5309 44.4878 64.5258 42.5936C63.5207 40.6994 61.9732 39.1484 60.0813 38.139C58.1894 37.1297 56.0393 36.708 53.9063 36.928C51.7734 37.1479 49.7546 37.9995 48.1085 39.3737C46.454 40.7288 45.2403 42.5457 44.6221 44.593C44.0039 46.6403 44.0092 48.8253 44.6372 50.8696C45.2652 52.9139 46.4876 54.725 48.1486 56.0721C49.8096 57.4192 51.834 58.2414 53.9639 58.4339V58.4098Z" fill="#1A0065"/>
<path d="M81.8189 60.4578L75.096 54.0723C75.6159 51.871 75.8347 49.6094 75.7466 47.3494L83.5539 42.3373C83.9019 42.1178 84.1577 41.7786 84.2731 41.3836C84.3885 40.9886 84.3555 40.5651 84.1804 40.1927L78.4213 27.6144C78.2563 27.2381 77.9596 26.935 77.5869 26.762C77.2142 26.5889 76.7912 26.5579 76.3972 26.6747L67.5057 29.3012C65.8493 27.763 64.003 26.4431 62.0117 25.3735L61.578 16.1205C61.5412 15.7151 61.365 15.335 61.0794 15.045C60.7938 14.755 60.4165 14.573 60.0117 14.5301L46.2286 13.2048C45.8204 13.1787 45.4156 13.2938 45.0822 13.5307C44.7488 13.7676 44.507 14.112 44.3972 14.506L42.2286 23.4939C40.0685 24.1587 38.0093 25.1153 36.1081 26.3373L27.8671 22.0482C27.4984 21.8696 27.0784 21.8273 26.6815 21.9288C26.2845 22.0302 25.9363 22.2688 25.6984 22.6024L17.6744 33.8554C17.4381 34.1937 17.3302 34.6051 17.3699 35.0158C17.4097 35.4265 17.5945 35.8096 17.8912 36.0964L24.6864 42.4819C24.4413 43.5875 24.2562 44.7056 24.1322 45.8313C24.0722 46.955 24.0722 48.0811 24.1322 49.2048L16.1563 54.2168C15.8122 54.4399 15.5596 54.7791 15.4446 55.1727C15.3296 55.5664 15.3598 55.9882 15.5298 56.3614L21.2888 68.9397C21.4538 69.316 21.7505 69.6192 22.1232 69.7922C22.4959 69.9652 22.919 69.9963 23.3129 69.8795L32.2045 67.253C33.8631 68.7883 35.7091 70.108 37.6984 71.1807L38.1322 80.3373C38.1681 80.7454 38.3434 81.1287 38.6286 81.4227C38.9139 81.7167 39.2917 81.9035 39.6984 81.9518L53.4575 83.253C53.8673 83.2908 54.2774 83.1837 54.6164 82.9504C54.9554 82.717 55.2019 82.3722 55.3129 81.9759L57.4575 73.1084C59.627 72.4486 61.6948 71.4917 63.6021 70.265L71.843 74.5542C72.2117 74.7327 72.6318 74.775 73.0287 74.6736C73.4256 74.5722 73.7738 74.3335 74.0117 74L82.0358 62.747C82.2803 62.4029 82.393 61.9823 82.3532 61.562C82.3134 61.1418 82.1237 60.7499 81.8189 60.4578V60.4578ZM48.7828 60.3132C46.415 60.0797 44.1693 59.1503 42.329 57.6422C40.4887 56.1341 39.1361 54.1149 38.4417 51.8392C37.7474 49.5634 37.7424 47.1331 38.4274 44.8545C39.1124 42.5759 40.4568 40.5512 42.2909 39.0356C44.125 37.52 46.3669 36.5814 48.7337 36.3382C51.1005 36.0949 53.4864 36.5579 55.5905 37.6687C57.6946 38.7796 59.4226 40.4885 60.5568 42.5801C61.6909 44.6717 62.1804 47.0523 61.9635 49.4217C61.8186 51.0044 61.362 52.5427 60.62 53.9482C59.878 55.3537 58.8652 56.5985 57.6401 57.6108C56.4149 58.6232 55.0016 59.3832 53.4814 59.847C51.9613 60.3108 50.3644 60.4692 48.7828 60.3132V60.3132Z" fill="#C4A6FF"/>
<path d="M81.8189 60.4578L75.096 54.0723C75.6159 51.871 75.8347 49.6094 75.7466 47.3494L83.5539 42.3373C83.9019 42.1178 84.1577 41.7786 84.2731 41.3836C84.3885 40.9886 84.3555 40.5651 84.1804 40.1927L78.4213 27.6144C78.2563 27.2381 77.9596 26.935 77.5869 26.762C77.2142 26.5889 76.7912 26.5579 76.3972 26.6747L67.5057 29.3012C65.8493 27.763 64.003 26.4431 62.0117 25.3735L61.578 16.1205C61.5412 15.7151 61.365 15.335 61.0794 15.045C60.7938 14.755 60.4165 14.573 60.0117 14.5301L46.2286 13.2048C45.8204 13.1787 45.4156 13.2938 45.0822 13.5307C44.7488 13.7676 44.507 14.112 44.3972 14.506L42.2286 23.4939C40.0685 24.1587 38.0093 25.1153 36.1081 26.3373L27.8671 22.0482C27.4984 21.8696 27.0784 21.8273 26.6815 21.9288C26.2845 22.0302 25.9363 22.2688 25.6984 22.6024L17.6744 33.8554C17.4381 34.1937 17.3302 34.6051 17.3699 35.0158C17.4097 35.4265 17.5945 35.8096 17.8912 36.0964L24.6864 42.4819C24.4413 43.5875 24.2562 44.7056 24.1322 45.8313C24.0722 46.955 24.0722 48.0811 24.1322 49.2048L16.1563 54.2168C15.8122 54.4399 15.5596 54.7791 15.4446 55.1727C15.3296 55.5664 15.3598 55.9882 15.5298 56.3614L21.2888 68.9397C21.4538 69.316 21.7505 69.6192 22.1232 69.7922C22.4959 69.9652 22.919 69.9963 23.3129 69.8795L32.2045 67.253C33.8631 68.7883 35.7091 70.108 37.6984 71.1807L38.1322 80.3373C38.1681 80.7454 38.3434 81.1287 38.6286 81.4227C38.9139 81.7167 39.2917 81.9035 39.6984 81.9518L53.4575 83.253C53.8673 83.2908 54.2774 83.1837 54.6164 82.9504C54.9554 82.717 55.2019 82.3722 55.3129 81.9759L57.4575 73.1084C59.627 72.4486 61.6948 71.4917 63.6021 70.265L71.843 74.5542C72.2117 74.7327 72.6318 74.775 73.0287 74.6736C73.4256 74.5722 73.7738 74.3335 74.0117 74L82.0358 62.747C82.2803 62.4029 82.393 61.9823 82.3532 61.562C82.3134 61.1418 82.1237 60.7499 81.8189 60.4578V60.4578ZM48.7828 60.3132C46.415 60.0797 44.1693 59.1503 42.329 57.6422C40.4887 56.1341 39.1361 54.1149 38.4417 51.8392C37.7474 49.5634 37.7424 47.1331 38.4274 44.8545C39.1124 42.5759 40.4568 40.5512 42.2909 39.0356C44.125 37.52 46.3669 36.5814 48.7337 36.3382C51.1005 36.0949 53.4864 36.5579 55.5905 37.6687C57.6946 38.7796 59.4226 40.4885 60.5568 42.5801C61.6909 44.6717 62.1804 47.0523 61.9635 49.4217C61.8186 51.0044 61.362 52.5427 60.62 53.9482C59.878 55.3537 58.8652 56.5985 57.6401 57.6108C56.4149 58.6232 55.0016 59.3832 53.4814 59.847C51.9613 60.3108 50.3644 60.4692 48.7828 60.3132V60.3132Z" fill="url(#paint0_radial_131:5142)"/>
<path d="M53.6021 84.6507H53.3129L39.5539 83.3494C38.8211 83.3039 38.1302 82.9922 37.611 82.473C37.0919 81.9539 36.7802 81.263 36.7346 80.5302L36.3491 71.976C34.7589 71.0443 33.2726 69.9457 31.9154 68.6988L23.7226 71.1085C23.0265 71.3111 22.2811 71.2601 21.6192 70.9644C20.9572 70.6687 20.4217 70.1477 20.1081 69.494L14.3491 56.9157C14.0417 56.2545 13.9846 55.5041 14.1884 54.804C14.3923 54.1038 14.8432 53.5014 15.4575 53.1085L22.6864 48.5061C22.634 47.5751 22.634 46.6419 22.6864 45.7109C22.7731 44.7791 22.9179 43.8535 23.1202 42.9398L16.9756 36.9639C16.4557 36.4555 16.1338 35.7787 16.0675 35.0545C16.0013 34.3304 16.1951 33.6063 16.6142 33.0121L24.6864 21.8314C25.1085 21.2441 25.7263 20.8268 26.4287 20.6545C27.1311 20.4822 27.8719 20.5663 28.5178 20.8916L36.0358 24.9157C37.653 23.9422 39.3645 23.1349 41.1443 22.5061L43.1202 14.2169C43.2958 13.5059 43.7207 12.8814 44.3176 12.4569C44.9145 12.0324 45.6439 11.8361 46.3732 11.9037L60.1322 13.2049C60.8431 13.2803 61.5057 13.6002 62.0067 14.1101C62.5078 14.6199 62.8162 15.288 62.8792 16L63.2407 24.5784C64.8637 25.5168 66.3893 26.6146 67.7949 27.8555L75.9876 25.4458C76.6832 25.2463 77.4271 25.3018 78.0854 25.6022C78.7436 25.9026 79.273 26.4282 79.578 27.0844L85.3129 39.6627C85.6175 40.3221 85.6755 41.0688 85.4766 41.7673C85.2776 42.4659 84.8349 43.0699 84.2286 43.4699L76.9997 48.0723C76.9997 49.1567 76.9997 50.0241 76.9997 50.8675C76.9997 51.7109 76.7828 52.6025 76.566 53.6386L82.7346 59.5181C83.2635 60.0212 83.5916 60.6992 83.6581 61.4261C83.7246 62.153 83.5249 62.8792 83.0961 63.4699L75.072 74.747C74.6541 75.3324 74.0405 75.749 73.3423 75.9214C72.644 76.0937 71.907 76.0105 71.2648 75.6868L63.6503 71.7591C62.0415 72.7324 60.338 73.5398 58.566 74.1687L56.566 82.4579C56.381 83.0979 55.9906 83.6594 55.455 84.0556C54.9194 84.4519 54.2683 84.661 53.6021 84.6507V84.6507ZM32.2045 65.8796C32.3698 65.8768 32.5339 65.9073 32.6871 65.9694C32.8403 66.0315 32.9794 66.1239 33.0961 66.241C34.6714 67.7054 36.4288 68.9607 38.325 69.976C38.526 70.0861 38.6957 70.2457 38.818 70.4397C38.9402 70.6336 39.0111 70.8555 39.0238 71.0844L39.4334 80.3374C39.4447 80.4335 39.4896 80.5225 39.5601 80.5886C39.6307 80.6548 39.7224 80.6938 39.819 80.6988L53.578 82.0241C53.6822 82.0325 53.7858 82.003 53.8699 81.941C53.954 81.879 54.013 81.7887 54.0358 81.6868L56.1804 72.7229C56.2422 72.506 56.3555 72.3072 56.5107 72.1435C56.666 71.9799 56.8586 71.8562 57.072 71.7832C59.1243 71.1502 61.0847 70.251 62.9033 69.1085C63.0994 68.9893 63.3245 68.9263 63.5539 68.9263C63.7834 68.9263 64.0084 68.9893 64.2045 69.1085L72.4455 73.3976C72.5386 73.3993 72.63 73.3725 72.7075 73.3208C72.785 73.2692 72.8449 73.1951 72.8792 73.1085L80.8792 61.8314C80.9439 61.7535 80.9793 61.6555 80.9793 61.5543C80.9793 61.453 80.9439 61.355 80.8792 61.2772L74.1804 54.9157C74.017 54.7605 73.8958 54.5663 73.8283 54.3512C73.7609 54.1362 73.7493 53.9075 73.7949 53.6868C74.0503 52.6412 74.2275 51.578 74.325 50.5061C74.4022 49.4392 74.4022 48.3681 74.325 47.3013C74.3238 47.074 74.3781 46.8499 74.483 46.6484C74.588 46.4468 74.7405 46.2739 74.9274 46.1446L82.7587 41.1567C82.8216 41.0826 82.856 40.9887 82.856 40.8916C82.856 40.7945 82.8216 40.7006 82.7587 40.6266L77.0238 28.0482C76.9829 27.966 76.9155 27.8999 76.8324 27.8605C76.7494 27.8212 76.6555 27.8109 76.566 27.8314L67.6503 30.482C67.4321 30.541 67.2024 30.5431 66.983 30.4883C66.7637 30.4335 66.5621 30.3235 66.3973 30.1687C64.822 28.7043 63.0645 27.449 61.1684 26.4338C60.9671 26.3262 60.7984 26.1666 60.6798 25.9716C60.5611 25.7767 60.4968 25.5535 60.4937 25.3253L60.0599 16.0964C60.0396 16.0002 59.9887 15.913 59.9149 15.8479C59.8411 15.7828 59.7484 15.7432 59.6503 15.735L45.8913 14.4097C45.789 14.4101 45.6896 14.443 45.6073 14.5036C45.525 14.5643 45.4641 14.6495 45.4334 14.747L43.2888 23.7109C43.2374 23.929 43.1305 24.1301 42.9785 24.2947C42.8266 24.4593 42.6346 24.5819 42.4214 24.6506C40.4172 25.2901 38.5053 26.1894 36.7346 27.3253C36.5385 27.4445 36.3135 27.5075 36.084 27.5075C35.8546 27.5075 35.6295 27.4445 35.4334 27.3253L27.2648 23.229C27.191 23.176 27.1025 23.1475 27.0117 23.1475C26.921 23.1475 26.8325 23.176 26.7587 23.229L18.7346 34.5543C18.6652 34.6298 18.6267 34.7287 18.6267 34.8314C18.6267 34.934 18.6652 35.0329 18.7346 35.1085L25.5057 41.5422C25.6709 41.6956 25.7917 41.8907 25.8553 42.107C25.919 42.3233 25.923 42.5527 25.8672 42.7711C25.6355 43.8215 25.4586 44.8831 25.337 45.9519C25.337 46.8675 25.337 47.8555 25.337 49.1567C25.3426 49.3847 25.2902 49.6103 25.1848 49.8126C25.0795 50.0149 24.9246 50.1871 24.7346 50.3133L16.8792 55.3013C16.7937 55.356 16.7316 55.4405 16.7049 55.5385C16.6781 55.6364 16.6888 55.7408 16.7346 55.8314L22.4696 68.4097C22.5114 68.4969 22.5827 68.5665 22.6709 68.6062C22.7591 68.6459 22.8585 68.6531 22.9515 68.6266L31.9154 66C32.0045 65.9444 32.1022 65.9037 32.2045 65.8796V65.8796ZM49.8672 61.6386H48.5901C45.9495 61.3919 43.442 60.3658 41.3861 58.6906C39.3302 57.0153 37.8188 54.7667 37.0439 52.2304C36.2691 49.6941 36.2658 46.9847 37.0345 44.4466C37.8033 41.9084 39.3093 39.6561 41.3611 37.976C42.7118 36.8353 44.2785 35.9786 45.9677 35.4569C47.6568 34.9353 49.4338 34.7594 51.1925 34.9398C54.6464 35.2318 57.8527 36.851 60.1379 39.4574C62.423 42.0637 63.6091 45.4543 63.4469 48.9167C63.2847 52.3792 61.7868 55.644 59.268 58.0253C56.7492 60.4066 53.4055 61.719 49.9395 61.6868L49.8672 61.6386ZM49.8672 37.5422C47.1949 37.5466 44.6192 38.542 42.6385 40.3358C40.6577 42.1296 39.4127 44.5943 39.1443 47.2531C39.0045 48.6581 39.1429 50.077 39.5517 51.4286C39.9606 52.7801 40.6317 54.0378 41.5268 55.1299C42.4219 56.2219 43.5235 57.1269 44.7685 57.793C46.0135 58.4591 47.3776 58.8734 48.7828 59.0121V59.0121C50.2279 59.2176 51.6996 59.128 53.109 58.7486C54.5184 58.3691 55.8363 57.7079 56.9829 56.8047C58.1294 55.9015 59.081 54.7752 59.7799 53.4938C60.4788 52.2124 60.9107 50.8027 61.0493 49.3497C61.1879 47.8967 61.0304 46.4307 60.5864 45.0402C60.1423 43.6498 59.4209 42.3639 58.4658 41.2602C57.5106 40.1566 56.3416 39.258 55.0293 38.619C53.7171 37.9799 52.2889 37.6136 50.831 37.5422C50.5031 37.5048 50.1731 37.4887 49.8431 37.494L49.8672 37.5422Z" fill="#1A0065"/>
<path d="M19.0723 55.6386L21.8674 61.8555L21.6265 56.1446L25.747 51.7832L19.0723 55.6386Z" fill="#E0D4FF" fill-opacity="0.3"/>
<path d="M40.4932 73.0605L40.7582 79.3256L49.0956 79.687L42.6136 77.3738L40.4932 73.0605Z" fill="#E0D4FF" fill-opacity="0.3"/>
<path d="M70.8555 31.6148L75.9639 29.8799L79.1205 37.7835L74.4699 32.0727L70.8555 31.6148Z" fill="#E0D4FF" fill-opacity="0.3"/>
<defs>
<filter id="filter0_d_131:5142" x="5.27832" y="1.95996" width="93.8369" height="91.7988" filterUnits="userSpaceOnUse" color-interpolation-filters="sRGB">
<feFlood flood-opacity="0" result="BackgroundImageFix"/>
<feColorMatrix in="SourceAlpha" type="matrix" values="0 0 0 0 0 0 0 0 0 0 0 0 0 0 0 0 0 0 127 0" result="hardAlpha"/>
<feOffset/>
<feGaussianBlur stdDeviation="3"/>
<feComposite in2="hardAlpha" operator="out"/>
<feColorMatrix type="matrix" values="0 0 0 0 0.25098 0 0 0 0 0.843137 0 0 0 0 1 0 0 0 1 0"/>
<feBlend mode="normal" in2="BackgroundImageFix" result="effect1_dropShadow_131:5142"/>
<feBlend mode="normal" in="SourceGraphic" in2="effect1_dropShadow_131:5142" result="shape"/>
</filter>
<radialGradient id="paint0_radial_131:5142" cx="0" cy="0" r="1" gradientUnits="userSpaceOnUse" gradientTransform="translate(67.6503 8.45781) scale(117.88)">
<stop stop-color="#00B2FF"/>
<stop offset="1" stop-color="#0047FF"/>
</radialGradient>
</defs>
</svg>
