<svg width="430" height="182" viewBox="0 0 430 182" fill="none" xmlns="http://www.w3.org/2000/svg">
<g filter="url(#filter0_d_140:13177)">
<path d="M40.0811 55.8268C43.6508 42.7892 55.4987 33.749 69.0162 33.749H353.09C359.688 33.749 364.477 40.0261 362.735 46.3898L348.115 99.7887C344.545 112.826 332.697 121.867 319.18 121.867H35.1059C28.5081 121.867 23.7186 115.589 25.4609 109.226L40.0811 55.8268Z" fill="#FEDD87"/>
<path d="M69.0162 34.749H353.09C359.028 34.749 363.338 40.3984 361.77 46.1257L347.15 99.5247C343.699 112.128 332.246 120.867 319.18 120.867H35.1059C29.1679 120.867 24.8574 115.217 26.4254 109.49L41.0456 56.0909C44.4963 43.4878 55.9493 34.749 69.0162 34.749Z" stroke="white" stroke-width="2"/>
</g>
<path d="M40.8851 51.0778C44.4547 38.0401 56.3027 29 69.8202 29H353.894C360.492 29 365.281 35.2771 363.539 41.6407L348.919 95.0397C345.349 108.077 333.501 117.118 319.983 117.118H35.9099C29.3121 117.118 24.5226 110.84 26.2649 104.477L40.8851 51.0778Z" fill="url(#paint0_linear_140:13177)"/>
<path d="M42.3694 51.8155C44.8636 38.5834 56.4222 29 69.8873 29H350.451L338.722 35.6324H65.4364L42.3694 51.8155V51.8155Z" fill="#FF8A00" fill-opacity="0.2"/>
<path d="M33.6606 79.9179L36.8774 110.785L317.542 104.19L327.996 110.785L353.328 74.9053L348.266 94.5898C344.856 107.849 332.902 117.117 319.211 117.117H36.1396C29.4723 117.117 24.6722 110.716 26.5401 104.316L33.6606 79.9179Z" fill="white" fill-opacity="0.26"/>
<path d="M69.8202 30H353.894C359.832 30 364.142 35.6494 362.574 41.3767L347.954 94.7756C344.503 107.379 333.05 116.118 319.983 116.118H35.9099C29.9718 116.118 25.6613 110.468 27.2294 104.741L41.8496 51.3419C45.3002 38.7388 56.7533 30 69.8202 30Z" stroke="white" stroke-width="2"/>
<path d="M187.637 94.75C187.803 94.75 187.885 94.7294 187.885 94.688C187.761 94.2334 187.699 93.7787 187.699 93.324C187.741 92.8694 187.761 92.4147 187.761 91.96C187.803 90.9267 187.823 89.8934 187.823 88.86C187.823 87.7854 187.658 86.8347 187.327 86.008C184.641 86.008 182.099 86.0494 179.701 86.132C177.345 86.2147 174.783 86.2147 172.013 86.132C171.848 86.0494 171.765 85.8634 171.765 85.574C171.807 85.2434 171.869 84.892 171.951 84.52C172.075 84.148 172.199 83.776 172.323 83.404C172.489 83.032 172.613 82.7427 172.695 82.536C173.439 81.6267 174.328 80.862 175.361 80.242C176.436 79.5807 177.531 78.9607 178.647 78.382C179.805 77.8034 180.941 77.2247 182.057 76.646C183.215 76.0674 184.248 75.3854 185.157 74.6C186.108 73.8147 186.893 72.9054 187.513 71.872C188.175 70.7974 188.567 69.4954 188.691 67.966C188.733 67.1394 188.733 66.23 188.691 65.238C188.65 64.2047 188.609 63.254 188.567 62.386C188.361 60.154 187.761 58.108 186.769 56.248C185.777 54.388 184.351 52.9827 182.491 52.032C181.375 51.5774 179.97 51.2674 178.275 51.102C176.622 50.8954 174.927 50.8747 173.191 51.04C171.455 51.2054 169.823 51.5774 168.293 52.156C166.764 52.7347 165.586 53.5614 164.759 54.636C163.23 56.3307 162.197 58.4387 161.659 60.96C161.163 63.44 161.163 66.106 161.659 68.958V69.082H161.721C163.127 69.2474 164.532 69.2887 165.937 69.206C167.384 69.1234 169.037 68.9787 170.897 68.772H170.959V68.648C171.001 67.904 171.063 67.098 171.145 66.23C171.269 65.362 171.476 64.556 171.765 63.812C172.096 63.0267 172.551 62.386 173.129 61.89C173.749 61.394 174.555 61.146 175.547 61.146C176.498 61.27 177.242 61.704 177.779 62.448C178.358 63.1507 178.689 63.9774 178.771 64.928C178.854 65.8787 178.709 66.8294 178.337 67.78C178.007 68.7307 177.428 69.4747 176.601 70.012C175.527 70.88 174.411 71.6447 173.253 72.306C172.137 72.9674 171.001 73.6494 169.843 74.352C168.727 75.0547 167.611 75.8194 166.495 76.646C165.421 77.4314 164.387 78.382 163.395 79.498C162.734 80.5727 162.259 81.73 161.969 82.97C161.721 84.1687 161.556 85.4294 161.473 86.752C161.391 88.0334 161.349 89.356 161.349 90.72C161.391 92.084 161.349 93.4687 161.225 94.874C161.225 94.9567 161.246 95.0187 161.287 95.06H164.077L187.637 94.75ZM192.91 81.73C192.662 83.0527 192.538 84.2514 192.538 85.326C192.497 87.6407 193.075 89.5627 194.274 91.092C195.473 92.58 196.981 93.696 198.8 94.44C200.66 95.184 202.706 95.556 204.938 95.556C207.17 95.556 209.278 95.2254 211.262 94.564C213.287 93.9027 215.044 92.9107 216.532 91.588C218.02 90.224 218.971 88.5914 219.384 86.69C219.715 84.2514 219.818 81.7507 219.694 79.188C219.611 76.6254 219.177 74.2487 218.392 72.058C217.607 69.8674 216.449 68.0074 214.92 66.478C213.391 64.9074 211.386 63.936 208.906 63.564C206.881 63.192 204.711 63.2334 202.396 63.688H202.334L202.272 63.626L202.21 63.564C202.045 63.316 201.962 62.9854 201.962 62.572C201.962 62.1587 201.921 61.7867 201.838 61.456C201.838 61.4147 201.817 61.394 201.776 61.394C201.776 61.3527 201.776 61.3114 201.776 61.27V61.208V61.084H201.838C202.086 61.084 202.623 61.084 203.45 61.084C204.318 61.084 205.331 61.084 206.488 61.084C207.645 61.0427 208.865 61.0014 210.146 60.96C211.469 60.9187 212.709 60.898 213.866 60.898C215.065 60.8567 216.098 60.8154 216.966 60.774C217.875 60.7327 218.475 60.6914 218.764 60.65C218.764 60.65 218.764 60.4227 218.764 59.968C218.805 59.472 218.826 58.8934 218.826 58.232C218.867 57.5707 218.909 56.8474 218.95 56.062C218.991 55.2767 219.012 54.5534 219.012 53.892C219.012 53.2307 219.012 52.6727 219.012 52.218C219.012 51.7634 218.991 51.5154 218.95 51.474C218.661 51.4327 217.834 51.412 216.47 51.412C215.106 51.412 213.473 51.4327 211.572 51.474C209.671 51.474 207.625 51.4947 205.434 51.536C203.285 51.5774 201.259 51.6187 199.358 51.66C197.498 51.7014 195.927 51.7427 194.646 51.784C193.365 51.8254 192.662 51.846 192.538 51.846H192.476C192.476 53.7887 192.476 55.6074 192.476 57.302C192.517 58.9967 192.538 60.6914 192.538 62.386C192.579 64.0394 192.6 65.7547 192.6 67.532C192.6 69.268 192.6 71.1694 192.6 73.236C192.6 73.2774 192.641 73.298 192.724 73.298C193.592 73.3807 194.584 73.4014 195.7 73.36C196.816 73.3187 197.973 73.2774 199.172 73.236C200.371 73.1534 201.549 73.112 202.706 73.112C203.905 73.0707 205.041 73.1327 206.116 73.298C207.356 73.67 208.286 74.4554 208.906 75.654C209.567 76.8527 209.898 78.1134 209.898 79.436C209.898 80.7587 209.547 81.9987 208.844 83.156C208.183 84.272 207.129 84.954 205.682 85.202C204.731 85.4087 203.884 85.2434 203.14 84.706C202.396 84.1687 201.941 83.1354 201.776 81.606C201.776 81.5647 201.755 81.5234 201.714 81.482C201.714 81.4407 201.714 81.3994 201.714 81.358V81.296L192.91 81.606V81.73ZM226.51 56.682C225.6 58.0874 224.898 59.5547 224.402 61.084C223.947 62.6134 223.616 64.184 223.41 65.796C223.244 67.408 223.182 69.0407 223.224 70.694C223.265 72.306 223.327 73.8974 223.41 75.468C223.451 77.328 223.534 79.188 223.658 81.048C223.823 82.908 224.174 84.6854 224.712 86.38C225.29 88.0334 226.158 89.542 227.316 90.906C228.473 92.2287 230.106 93.2827 232.214 94.068C233.454 94.5227 234.9 94.7914 236.554 94.874C238.496 94.998 240.232 94.75 241.762 94.13C243.291 93.4687 244.614 92.5594 245.73 91.402C246.887 90.2034 247.858 88.8394 248.644 87.31C249.47 85.7394 250.111 84.086 250.566 82.35C251.062 80.5727 251.392 78.7954 251.558 77.018C251.723 75.1994 251.764 73.484 251.682 71.872C251.764 70.6734 251.744 69.4747 251.62 68.276C251.537 67.036 251.392 65.7547 251.186 64.432C250.855 62.696 250.318 61.0014 249.574 59.348C248.83 57.6947 247.858 56.248 246.66 55.008C245.461 53.7267 244.035 52.714 242.382 51.97C240.728 51.226 238.848 50.8954 236.74 50.978C234.632 51.0607 232.813 51.5567 231.284 52.466C229.754 53.334 228.37 54.4707 227.13 55.876C226.882 56.124 226.675 56.3927 226.51 56.682ZM235.748 84.52C235.293 84.4374 234.921 84.272 234.632 84.024C234.384 83.7347 234.177 83.404 234.012 83.032C233.846 82.66 233.722 82.288 233.64 81.916C233.557 81.5027 233.454 81.11 233.33 80.738C232.751 78.5474 232.462 76.398 232.462 74.29C232.462 72.182 232.565 69.826 232.772 67.222C232.896 66.1887 233.02 65.2587 233.144 64.432C233.309 63.6054 233.495 63.0267 233.702 62.696C233.908 62.324 234.198 61.9727 234.57 61.642C234.983 61.3114 235.396 61.1047 235.81 61.022C237.422 60.4847 238.682 60.8154 239.592 62.014C240.088 62.7167 240.46 63.626 240.708 64.742C240.997 65.8167 241.183 66.9947 241.266 68.276C241.39 69.516 241.431 70.7974 241.39 72.12C241.39 73.4014 241.369 74.5794 241.328 75.654C241.245 76.7287 241.183 77.7414 241.142 78.692C241.1 79.6427 240.914 80.6347 240.584 81.668C240.377 82.3294 240.108 82.9287 239.778 83.466C239.447 84.0034 238.868 84.396 238.042 84.644C237.711 84.768 237.339 84.8094 236.926 84.768C236.512 84.7267 236.12 84.644 235.748 84.52ZM258.297 56.682C257.388 58.0874 256.685 59.5547 256.189 61.084C255.734 62.6134 255.404 64.184 255.197 65.796C255.032 67.408 254.97 69.0407 255.011 70.694C255.052 72.306 255.114 73.8974 255.197 75.468C255.238 77.328 255.321 79.188 255.445 81.048C255.61 82.908 255.962 84.6854 256.499 86.38C257.078 88.0334 257.946 89.542 259.103 90.906C260.26 92.2287 261.893 93.2827 264.001 94.068C265.241 94.5227 266.688 94.7914 268.341 94.874C270.284 94.998 272.02 94.75 273.549 94.13C275.078 93.4687 276.401 92.5594 277.517 91.402C278.674 90.2034 279.646 88.8394 280.431 87.31C281.258 85.7394 281.898 84.086 282.353 82.35C282.849 80.5727 283.18 78.7954 283.345 77.018C283.51 75.1994 283.552 73.484 283.469 71.872C283.552 70.6734 283.531 69.4747 283.407 68.276C283.324 67.036 283.18 65.7547 282.973 64.432C282.642 62.696 282.105 61.0014 281.361 59.348C280.617 57.6947 279.646 56.248 278.447 55.008C277.248 53.7267 275.822 52.714 274.169 51.97C272.516 51.226 270.635 50.8954 268.527 50.978C266.419 51.0607 264.6 51.5567 263.071 52.466C261.542 53.334 260.157 54.4707 258.917 55.876C258.669 56.124 258.462 56.3927 258.297 56.682ZM267.535 84.52C267.08 84.4374 266.708 84.272 266.419 84.024C266.171 83.7347 265.964 83.404 265.799 83.032C265.634 82.66 265.51 82.288 265.427 81.916C265.344 81.5027 265.241 81.11 265.117 80.738C264.538 78.5474 264.249 76.398 264.249 74.29C264.249 72.182 264.352 69.826 264.559 67.222C264.683 66.1887 264.807 65.2587 264.931 64.432C265.096 63.6054 265.282 63.0267 265.489 62.696C265.696 62.324 265.985 61.9727 266.357 61.642C266.77 61.3114 267.184 61.1047 267.597 61.022C269.209 60.4847 270.47 60.8154 271.379 62.014C271.875 62.7167 272.247 63.626 272.495 64.742C272.784 65.8167 272.97 66.9947 273.053 68.276C273.177 69.516 273.218 70.7974 273.177 72.12C273.177 73.4014 273.156 74.5794 273.115 75.654C273.032 76.7287 272.97 77.7414 272.929 78.692C272.888 79.6427 272.702 80.6347 272.371 81.668C272.164 82.3294 271.896 82.9287 271.565 83.466C271.234 84.0034 270.656 84.396 269.829 84.644C269.498 84.768 269.126 84.8094 268.713 84.768C268.3 84.7267 267.907 84.644 267.535 84.52Z" fill="black"/>
<path d="M408.082 66.7366C408.082 65.9913 408.082 65.2088 407.905 64.4636C407.697 61.949 407.294 59.4565 406.7 57.0111C406.523 56.2286 406.31 55.4833 406.098 54.7381C405.153 51.4817 403.894 48.3353 402.341 45.348L401.066 42.8886C399.209 39.7568 397.034 36.8457 394.581 34.2065C393.872 33.424 393.093 32.6415 392.313 31.9335C390.387 30.0947 388.312 28.4364 386.112 26.9776C375.22 19.975 362.466 16.864 349.755 18.1091C342.785 18.5003 335.966 20.396 329.724 23.6783C323.481 26.9605 317.948 31.559 313.468 37.1875C306.267 46.1759 302.326 57.555 302.341 69.3077C302.476 82.7067 307.562 95.5251 316.523 105.052C325.484 114.579 337.617 120.068 350.357 120.357C360.773 120.819 371.157 118.846 380.761 114.582C382.169 113.913 383.531 113.141 384.836 112.271C387.044 110.919 389.131 109.36 391.073 107.614C391.888 106.906 392.703 106.16 393.482 105.34C395.04 103.816 396.474 102.159 397.77 100.385C398.355 99.6612 398.9 98.9022 399.4 98.1116C400.56 96.4737 401.613 94.7557 402.554 92.9694C402.944 92.2241 403.298 91.4789 403.652 90.6964C404.964 87.7896 406.009 84.7576 406.771 81.6416C406.771 80.8591 407.125 80.1138 407.267 79.3313C407.586 77.729 407.798 76.0895 407.976 74.3754C407.976 73.6302 407.976 72.8849 408.153 72.1024C408.33 71.3199 408.153 70.2393 408.153 69.3077C408.153 68.3761 408.117 67.5936 408.082 66.7366Z" fill="url(#paint1_linear_140:13177)"/>
<g filter="url(#filter1_d_140:13177)">
<path d="M353.37 130.903C351.775 130.903 350.641 130.903 349.826 130.903C336.895 130.587 324.431 125.764 314.39 117.19C308.327 112.164 303.285 105.909 299.563 98.7966C295.841 91.6839 293.515 83.858 292.722 75.7825C291.929 67.707 292.685 59.5463 294.946 51.7838C297.207 44.0214 300.927 36.8152 305.885 30.5922C311.218 23.8508 317.816 18.3392 325.267 14.4024C332.718 10.4656 340.862 8.18834 349.188 7.71308C363.989 6.36853 378.806 10.0939 391.428 18.3329C394.112 20.0753 396.65 22.0575 399.011 24.2576C399.953 25.1139 400.852 26.0219 401.704 26.9778C404.715 30.1845 407.378 33.7339 409.642 37.5603C410.209 38.5291 410.74 39.4607 411.201 40.3923C413.061 43.9466 414.569 47.6925 415.701 51.571C415.985 52.5398 416.233 53.4714 416.445 54.4402C417.179 57.3973 417.677 60.4136 417.934 63.4577C417.934 64.1284 417.934 65.1345 418.146 66.1779C418.146 67.184 418.146 68.19 418.146 69.1961C418.146 70.2022 418.146 71.5064 418.146 72.6243C418.112 73.6217 418.029 74.6167 417.898 75.6053C417.606 77.5879 417.216 79.5531 416.729 81.4927C416.729 82.2753 416.374 83.2068 416.162 84.1756C415.283 87.9085 414.085 91.5502 412.583 95.0563C412.158 96.0251 411.697 96.9939 411.201 97.9255C410.149 100.078 408.965 102.157 407.657 104.148C407.126 104.968 406.417 105.974 405.673 106.943C404.078 109.062 402.337 111.055 400.464 112.905C399.545 113.88 398.574 114.801 397.558 115.662C395.149 117.699 392.589 119.531 389.904 121.14C388.2 122.252 386.424 123.235 384.589 124.084C374.699 128.456 364.097 130.772 353.37 130.903V130.903ZM354.858 28.3937C353.299 28.3937 351.775 28.3937 350.322 28.3937C344.687 28.6997 339.175 30.2359 334.135 32.9047C329.096 35.5735 324.64 39.3163 321.052 43.8949C315.358 51.0096 312.233 60.0088 312.228 69.3079C312.362 79.9501 316.406 90.1254 323.513 97.7031C330.62 105.281 340.24 109.673 350.357 109.961H351.208C360.025 110.214 368.793 108.5 376.934 104.931C377.896 104.453 378.831 103.918 379.734 103.329C381.495 102.234 383.166 100.988 384.73 99.6023C385.439 98.9688 386.041 98.4099 386.608 97.8137C387.819 96.664 388.945 95.4183 389.975 94.0875L390.258 93.7521L391.25 92.2989C392.186 90.9623 393.027 89.5549 393.766 88.0882C394.031 87.6067 394.267 87.109 394.475 86.5977L394.652 86.2623C395.683 83.9653 396.502 81.5695 397.097 79.1079C397.097 78.6235 397.345 78.0273 397.452 77.4684C397.719 76.1263 397.92 74.7707 398.054 73.4068C398.054 72.6615 398.054 72.1771 398.054 71.6555C398.054 71.1338 398.054 70.1277 398.054 69.3824C398.054 68.6372 398.054 68.0037 398.054 67.333C398.091 66.8369 398.091 66.3386 398.054 65.8425C397.874 63.7448 397.542 61.6646 397.062 59.6197C396.885 58.9117 396.743 58.3528 396.566 57.7566C395.828 55.1739 394.843 52.6769 393.625 50.3041C393.235 49.5961 392.916 48.9999 392.562 48.4409C391.109 45.9843 389.41 43.6983 387.494 41.6219C386.927 41.0257 386.396 40.4668 385.829 39.9451C384.266 38.4258 382.569 37.0659 380.761 35.8835C373.005 30.7872 364.002 28.184 354.858 28.3937V28.3937Z" fill="url(#paint2_linear_140:13177)"/>
</g>
<path d="M408.082 66.7376C408.082 65.9923 408.082 65.2098 407.905 64.4646C407.698 61.95 407.295 59.4575 406.7 57.0121C406.523 56.2296 406.311 55.4843 406.098 54.7391C405.153 51.4826 403.895 48.3362 402.342 45.3489L401.066 42.8896C399.209 39.7577 397.035 36.8467 394.581 34.2075C393.873 33.4249 393.093 32.6424 392.313 31.9345C390.388 30.0957 388.313 28.4374 386.112 26.9785C375.22 19.9759 362.467 16.865 349.755 18.1101C342.785 18.5012 335.967 20.397 329.724 23.6792C323.481 26.9615 317.948 31.56 313.469 37.1885C306.268 46.1769 302.326 57.556 302.342 69.3087C302.477 82.7076 307.563 95.5261 316.523 105.053C325.484 114.58 337.618 120.069 350.357 120.358C360.773 120.82 371.157 118.847 380.761 114.583C382.17 113.914 383.532 113.142 384.837 112.272C387.044 110.92 389.132 109.361 391.073 107.614C391.888 106.907 392.703 106.161 393.483 105.341C395.04 103.817 396.474 102.16 397.771 100.386C398.356 99.6622 398.9 98.9032 399.401 98.1126C400.56 96.4747 401.614 94.7567 402.554 92.9703C402.944 92.2251 403.299 91.4798 403.653 90.6973C404.965 87.7906 406.009 84.7585 406.771 81.6426C406.771 80.86 407.126 80.1148 407.267 79.3323C407.586 77.73 407.799 76.0905 407.976 74.3764C407.976 73.6311 407.976 72.8859 408.153 72.1034C408.33 71.3209 408.153 70.2403 408.153 69.3087C408.153 68.3771 408.118 67.5946 408.082 66.7376Z" fill="white"/>
<path d="M353.192 126.059C351.669 126.059 350.641 126.059 350.145 126.059C338.141 125.84 326.557 121.377 317.26 113.39C311.668 108.761 307.017 102.998 303.582 96.4438C300.148 89.8892 298 82.676 297.266 75.2321C296.532 67.7882 297.228 60.2652 299.311 53.1092C301.394 45.9533 304.823 39.3101 309.394 33.5737C314.329 27.3662 320.43 22.2959 327.314 18.6799C334.197 15.0638 341.716 12.9797 349.401 12.5577C363.247 11.2563 377.122 14.7077 388.947 22.3949C391.449 24.0399 393.819 25.8967 396.034 27.947C396.814 28.655 397.7 29.5493 398.55 30.4436C401.222 33.3952 403.597 36.6294 405.637 40.0946C406.133 40.9516 406.594 41.8087 407.055 42.6657C408.759 45.979 410.148 49.4613 411.201 53.0619C411.449 53.919 411.697 54.776 411.909 55.6703C412.535 58.402 412.961 61.1799 413.185 63.9798C413.185 64.6506 413.185 65.5449 413.362 66.4764C413.362 67.408 413.362 68.3395 413.362 69.2711C413.362 70.2027 413.362 71.3578 413.362 72.4011C413.362 73.4445 413.362 74.1525 413.15 75.0468C412.967 76.8614 412.695 78.6649 412.335 80.4498C412.335 81.2323 412.016 82.0894 411.803 82.9464C410.955 86.4434 409.767 89.8397 408.26 93.0818C407.941 93.7898 407.515 94.7213 407.055 95.5784C406.042 97.56 404.918 99.4762 403.688 101.317C403.121 102.137 402.484 103.068 401.775 103.962C400.34 105.89 398.764 107.697 397.062 109.365C396.205 110.257 395.306 111.103 394.369 111.899C392.213 113.834 389.901 115.567 387.459 117.079C385.938 118.068 384.351 118.94 382.71 119.687C373.353 123.791 363.33 125.955 353.192 126.059ZM354.929 23.5501C353.228 23.5501 351.598 23.5501 350.074 23.5501C343.811 23.9064 337.685 25.6195 332.082 28.5819C326.478 31.5443 321.516 35.6921 317.508 40.7653C311.122 48.7605 307.622 58.8673 307.622 69.3084C307.746 81.1967 312.244 92.5724 320.172 101.048C328.101 109.524 338.843 114.442 350.145 114.769H350.605C360.162 115.089 369.673 113.247 378.493 109.365C379.726 108.844 380.912 108.208 382.037 107.465C384.002 106.259 385.864 104.875 387.6 103.329C388.38 102.658 389.053 102.025 389.762 101.317C391.128 99.9526 392.396 98.4829 393.554 96.9198C394.069 96.2837 394.543 95.6114 394.971 94.9077C395.981 93.4277 396.904 91.8847 397.735 90.2871C398.066 89.6853 398.361 89.0631 398.621 88.424C399.854 85.7731 400.839 83.0027 401.562 80.1517C401.562 79.5555 401.846 78.8848 401.952 78.2141C402.225 76.7603 402.426 75.2927 402.554 73.8171C402.554 73.0719 402.554 72.4757 402.554 71.8422C402.554 71.2087 402.554 70.1281 402.554 69.3084C402.554 68.4886 402.554 67.7806 402.554 67.0354C402.554 66.2901 402.554 65.7684 402.554 65.1722C402.344 62.8745 401.977 60.5956 401.456 58.3532C401.456 57.6452 401.066 56.9745 400.889 56.3038C400.064 53.4286 398.948 50.6551 397.558 48.0315C397.168 47.249 396.814 46.6155 396.424 45.9448C394.777 43.1775 392.853 40.604 390.683 38.2687C390.046 37.598 389.408 36.9273 388.734 36.3311C387.05 34.6228 385.224 33.0765 383.277 31.7106C374.787 26.1418 364.933 23.3052 354.929 23.5501Z" fill="white"/>
<path d="M408.154 69.308C408.154 70.2395 408.154 71.1711 408.154 72.1027C408.154 73.0342 408.154 73.6304 407.977 74.3757C407.977 76.0897 407.587 77.7293 407.268 79.3316C407.268 80.1141 406.949 80.8593 406.772 81.6418C406.01 84.7578 404.965 87.7899 403.654 90.6966C403.299 91.4791 402.945 92.2244 402.555 92.9696C401.649 94.7528 400.631 96.4707 399.508 98.1118C399.007 98.9025 398.463 99.6615 397.878 100.385C396.581 102.159 395.147 103.817 393.59 105.341C392.81 106.161 391.995 106.906 391.18 107.614C389.205 109.366 387.082 110.925 384.837 112.272C383.505 113.115 382.133 113.886 380.727 114.582C374.429 117.689 367.555 119.292 360.599 119.277H349.968V19.339H360.599C368.133 19.3198 375.56 21.2116 382.25 24.8539C383.564 25.5385 384.842 26.2973 386.077 27.1269C388.278 28.5857 390.353 30.244 392.279 32.0828C393.058 32.7908 393.838 33.5733 394.547 34.3558C397.004 36.9464 399.19 39.8072 401.067 42.8889L402.342 45.1619C403.904 48.1967 405.163 51.3935 406.099 54.7011C406.311 55.4463 406.524 56.1916 406.701 56.9741C407.295 59.4195 407.698 61.912 407.906 64.4266C407.906 65.1718 407.906 65.9543 408.083 66.6996C408.26 67.4448 408.154 68.4509 408.154 69.308Z" fill="#FFB200"/>
<path d="M408.083 72.1025C408.083 72.885 408.083 73.6303 407.906 74.3755H394.618V72.1025H408.083Z" fill="#C47F0B"/>
<path d="M407.198 79.3311C407.198 80.1136 406.879 80.8588 406.702 81.6413H390.401V79.3311H407.198Z" fill="#C47F0B"/>
<path d="M403.583 90.6973C403.229 91.4798 402.874 92.225 402.485 92.9703H386.432V90.6973H403.583Z" fill="#C47F0B"/>
<path d="M399.437 98.1113C398.936 98.9019 398.392 99.6609 397.807 100.384H381.293V98.1113H399.437Z" fill="#C47F0B"/>
<path d="M393.519 105.341C392.739 106.161 391.924 106.906 391.109 107.614H375.518V105.341H393.519Z" fill="#C47F0B"/>
<path d="M384.838 112.272C383.506 113.115 382.134 113.887 380.727 114.583H367.368V112.272H384.838Z" fill="#C47F0B"/>
<path d="M408.083 66.7369H393.732V64.4639H407.906C408.013 65.2464 408.048 65.9916 408.083 66.7369Z" fill="#C47F0B"/>
<path d="M406.702 56.9742H392.102V54.7012H406.276C406.312 55.4464 406.524 56.1917 406.702 56.9742Z" fill="#C47F0B"/>
<path d="M402.343 45.3117H387.708V42.8896H401.067L402.343 45.3117Z" fill="#C47F0B"/>
<path d="M394.582 34.356H378.317V32.083H392.315C393.094 32.791 393.874 33.5735 394.582 34.356Z" fill="#C47F0B"/>
<path d="M386.113 27.1275H370.309V24.8545H382.286C383.6 25.5392 384.878 26.2979 386.113 27.1275V27.1275Z" fill="#C47F0B"/>
<path d="M397.382 69.3078C397.382 79.1907 394.595 88.8517 389.373 97.0691C384.152 105.286 376.73 111.691 368.047 115.473C359.364 119.255 349.81 120.245 340.592 118.317C331.374 116.389 322.907 111.629 316.261 104.641C309.615 97.6529 305.089 88.7493 303.256 79.0563C301.422 69.3632 302.363 59.3162 305.96 50.1855C309.557 41.0549 315.647 33.2508 323.462 27.7602C331.276 22.2695 340.464 19.3389 349.862 19.3389C362.462 19.3487 374.544 24.6165 383.453 33.9853C392.363 43.3542 397.372 56.0583 397.382 69.3078V69.3078Z" fill="#FFCF00"/>
<path d="M349.862 121.141C340.107 121.17 330.564 118.155 322.439 112.478C314.314 106.8 307.975 98.7156 304.222 89.2472C300.47 79.7788 299.473 69.3524 301.359 59.2882C303.245 49.2239 307.928 39.9744 314.816 32.7107C321.704 25.4469 330.487 20.4955 340.052 18.4835C349.617 16.4714 359.536 17.4891 368.551 21.4078C377.566 25.3264 385.272 31.9697 390.695 40.4967C396.117 49.0236 399.012 59.0507 399.012 69.3084C398.993 83.0234 393.813 96.1731 384.604 105.885C375.395 115.597 362.905 121.081 349.862 121.141ZM349.862 21.2026C340.808 21.1731 331.949 23.9694 324.408 29.2374C316.866 34.5053 310.98 42.0081 307.496 50.7956C304.012 59.5832 303.085 69.2603 304.835 78.6017C306.584 87.9431 310.93 96.5287 317.322 103.271C323.714 110.014 331.865 114.61 340.743 116.479C349.621 118.347 358.827 117.403 367.195 113.767C375.562 110.13 382.715 103.964 387.748 96.05C392.781 88.1359 395.468 78.8292 395.468 69.3084C395.459 56.5788 390.656 44.3711 382.109 35.3559C373.562 26.3407 361.968 21.2519 349.862 21.2026V21.2026Z" fill="#C47F0B"/>
<path d="M389.303 69.3084C389.331 77.5173 387.042 85.5503 382.725 92.3901C378.408 99.2299 372.259 104.569 365.054 107.731C357.85 110.893 349.916 111.735 342.256 110.152C334.596 108.568 327.555 104.63 322.025 98.8362C316.495 93.042 312.724 85.6525 311.191 77.6035C309.658 69.5544 310.431 61.2079 313.411 53.621C316.392 46.0341 321.447 39.5481 327.936 34.9843C334.425 30.4206 342.056 27.9844 349.863 27.9844C360.298 27.9843 370.309 32.3333 377.701 40.0788C385.094 47.8243 389.265 58.3349 389.303 69.3084V69.3084Z" fill="#FBBB00"/>
<path d="M349.862 112.644C341.711 112.644 333.743 110.103 326.966 105.341C320.188 100.579 314.906 93.8106 311.787 85.892C308.668 77.9733 307.852 69.2599 309.442 60.8535C311.032 52.447 314.957 44.7253 320.721 38.6646C326.484 32.6039 333.827 28.4765 341.822 26.8044C349.816 25.1323 358.102 25.9905 365.633 29.2705C373.163 32.5505 379.6 38.105 384.128 45.2316C388.657 52.3582 391.074 60.7368 391.074 69.3079C391.064 80.7984 386.719 91.8154 378.993 99.9404C371.266 108.065 360.789 112.634 349.862 112.644V112.644ZM349.862 29.6979C342.412 29.6979 335.129 32.021 328.934 36.3734C322.74 40.7258 317.912 46.9121 315.061 54.1498C312.21 61.3876 311.464 69.3519 312.917 77.0355C314.371 84.719 317.958 91.7769 323.226 97.3164C328.494 102.856 335.206 106.628 342.513 108.157C349.82 109.685 357.394 108.901 364.277 105.903C371.16 102.905 377.043 97.8279 381.182 91.3141C385.321 84.8002 387.53 77.142 387.53 69.3079C387.521 58.8057 383.549 48.7365 376.487 41.3103C369.425 33.8842 359.849 29.7078 349.862 29.6979V29.6979Z" fill="#C47F0B"/>
<path d="M353.158 107.316C345.557 107.314 338.119 105.003 331.738 100.66C325.357 96.3175 320.305 90.1285 317.19 82.8379C314.076 75.5473 313.031 67.4656 314.181 59.5652C315.332 51.6647 318.628 44.2821 323.675 38.3057C319.639 42.0541 316.375 46.6321 314.086 51.7573C311.796 56.8826 310.529 62.4466 310.362 68.1065C310.195 73.7664 311.133 79.4022 313.116 84.6667C315.1 89.9312 318.087 94.7128 321.895 98.7169C325.703 102.721 330.25 105.863 335.256 107.948C340.263 110.034 345.622 111.02 351.005 110.844C356.387 110.669 361.679 109.336 366.553 106.929C371.427 104.521 375.78 101.089 379.345 96.845C372.139 103.606 362.815 107.334 353.158 107.316V107.316Z" fill="#C47F0B"/>
<path d="M350.997 91.7774C346.942 91.8847 342.936 90.8284 339.409 88.7219C336.196 86.6771 333.613 83.7014 331.967 80.1515C330.164 76.2152 329.266 71.8881 329.345 67.5196C329.266 63.151 330.164 58.8239 331.967 54.8876C333.601 51.3292 336.187 48.3503 339.409 46.3172C342.926 44.1816 346.937 43.1112 350.997 43.2244C355.7 43.0281 360.329 44.4977 364.143 47.3978C367.69 50.3142 370.027 54.5603 370.663 59.2473H361.556C361.1 56.8642 359.842 54.7341 358.013 53.248C355.942 51.7247 353.45 50.9647 350.926 51.0868C349.1 50.9898 347.278 51.336 345.601 52.0985C343.923 52.861 342.435 54.0193 341.252 55.4838C338.736 58.9479 337.48 63.2423 337.708 67.5941C337.473 71.9353 338.73 76.2206 341.252 79.6671C342.435 81.1316 343.923 82.2899 345.601 83.0524C347.278 83.8149 349.1 84.1611 350.926 84.0641C353.434 84.184 355.915 83.4667 358.013 82.0147C359.821 80.6541 361.084 78.6355 361.556 76.3508H370.663C369.971 80.796 367.689 84.7949 364.285 87.5295C360.433 90.4698 355.753 91.9656 350.997 91.7774V91.7774Z" fill="#C47F0B"/>
<path d="M353.299 122.333C351.456 122.333 350.358 122.333 350.216 122.333C339.008 122.142 328.191 117.965 319.529 110.483C314.3 106.168 309.95 100.791 306.736 94.6735C303.522 88.5557 301.51 81.8212 300.819 74.8698C300.128 67.9183 300.773 60.8918 302.715 54.2075C304.656 47.5231 307.856 41.3172 312.123 35.9583C316.76 30.1233 322.493 25.3576 328.962 21.9594C335.431 18.5612 342.498 16.6036 349.72 16.2092C362.809 15.0165 375.916 18.2826 387.105 25.5248C389.381 27.0398 391.527 28.7604 393.519 30.667C394.334 31.375 395.113 32.1948 395.893 33.0145C398.415 35.7738 400.648 38.8094 402.555 42.0693C402.98 42.8518 403.441 43.6343 403.866 44.4541C405.491 47.5015 406.798 50.7248 407.764 54.0678C408.012 54.8503 408.225 55.6701 408.402 56.4526C409.031 59.0308 409.446 61.6614 409.642 64.315C409.74 65.0937 409.799 65.8773 409.819 66.6625C409.819 67.5568 409.819 68.4139 409.819 69.3082C409.819 70.2025 409.819 71.2458 409.819 72.2146C409.819 73.1835 409.819 73.8169 409.607 74.6367C409.468 76.354 409.219 78.0595 408.862 79.7417C408.862 80.5242 408.579 81.3067 408.366 82.0892C407.588 85.2703 406.52 88.365 405.177 91.3303C404.858 92.1128 404.433 92.9326 404.043 93.7151C403.093 95.5554 402.04 97.3348 400.889 99.0436C400.356 99.8738 399.776 100.67 399.153 101.428C397.833 103.261 396.362 104.97 394.759 106.533C393.944 107.39 393.093 108.173 392.243 108.918C390.216 110.712 388.046 112.32 385.758 113.725C384.344 114.718 382.85 115.578 381.293 116.296C372.417 120.179 362.912 122.229 353.299 122.333V122.333ZM355 19.8236C353.193 19.8236 351.456 19.8236 349.862 19.8236C343.131 20.197 336.546 22.0241 330.516 25.1911C324.487 28.3581 319.142 32.797 314.816 38.2313C307.93 46.9089 304.166 57.8573 304.185 69.1591C304.32 82.064 309.219 94.4087 317.847 103.586C326.476 112.764 338.159 118.056 350.429 118.346C360.614 118.778 370.766 116.844 380.159 112.682C381.49 112.064 382.78 111.354 384.022 110.558C386.113 109.286 388.104 107.841 389.975 106.235C390.755 105.565 391.534 104.819 392.314 104.037C393.794 102.556 395.168 100.962 396.424 99.2672C396.98 98.5764 397.501 97.855 397.984 97.106C399.064 95.5088 400.046 93.841 400.925 92.1128C401.279 91.4421 401.634 90.6968 401.952 89.9888C403.229 87.1688 404.238 84.2232 404.965 81.1949C405.155 80.4839 405.309 79.7624 405.425 79.0337C405.745 77.4353 405.97 75.8174 406.098 74.1896C406.098 73.4443 406.098 72.7363 406.276 72.0283C406.453 71.3203 406.276 70.2025 406.276 69.3082C406.276 68.4139 406.276 67.6686 406.276 66.8489C406.276 66.0291 406.276 65.3956 406.276 64.6876C406.073 62.246 405.67 59.8273 405.071 57.4587C405.071 56.6762 404.716 55.9682 404.504 55.223C403.616 52.0986 402.429 49.0772 400.96 46.2055C400.57 45.4602 400.145 44.715 399.72 44.007C397.938 41.0031 395.859 38.2054 393.519 35.6602C392.81 34.9149 392.101 34.1697 391.322 33.499C389.474 31.7016 387.469 30.0922 385.333 28.6921C376.274 22.6583 365.721 19.5731 355 19.8236V19.8236Z" fill="#C47F0B"/>
<path d="M328.353 39.6108C328.353 39.6108 338.487 33.0526 356.063 35.5865C364.823 37.2799 372.869 41.7837 379.097 48.4793C377.049 44.1393 374.057 40.3688 370.362 37.4745C366.668 34.5802 362.376 32.6439 357.835 31.8229C341.676 29.1028 330.691 36.0336 328.353 39.6108Z" fill="#FFCF00"/>
<path d="M354.043 103.776C354.043 103.776 380.868 103.776 381.4 80.2633C381.294 80.1515 376.403 96.3234 354.043 103.776Z" fill="#FFCF00"/>
<defs>
<filter id="filter0_d_140:13177" x="0.100342" y="33.749" width="387.995" height="148.117" filterUnits="userSpaceOnUse" color-interpolation-filters="sRGB">
<feFlood flood-opacity="0" result="BackgroundImageFix"/>
<feColorMatrix in="SourceAlpha" type="matrix" values="0 0 0 0 0 0 0 0 0 0 0 0 0 0 0 0 0 0 127 0" result="hardAlpha"/>
<feOffset dy="35"/>
<feGaussianBlur stdDeviation="12.5"/>
<feComposite in2="hardAlpha" operator="out"/>
<feColorMatrix type="matrix" values="0 0 0 0 0 0 0 0 0 0 0 0 0 0 0 0 0 0 0.2 0"/>
<feBlend mode="normal" in2="BackgroundImageFix" result="effect1_dropShadow_140:13177"/>
<feBlend mode="normal" in="SourceGraphic" in2="effect1_dropShadow_140:13177" result="shape"/>
</filter>
<filter id="filter1_d_140:13177" x="286.417" y="1.44434" width="137.73" height="135.458" filterUnits="userSpaceOnUse" color-interpolation-filters="sRGB">
<feFlood flood-opacity="0" result="BackgroundImageFix"/>
<feColorMatrix in="SourceAlpha" type="matrix" values="0 0 0 0 0 0 0 0 0 0 0 0 0 0 0 0 0 0 127 0" result="hardAlpha"/>
<feOffset/>
<feGaussianBlur stdDeviation="3"/>
<feComposite in2="hardAlpha" operator="out"/>
<feColorMatrix type="matrix" values="0 0 0 0 1 0 0 0 0 0 0 0 0 0 0.9 0 0 0 1 0"/>
<feBlend mode="normal" in2="BackgroundImageFix" result="effect1_dropShadow_140:13177"/>
<feBlend mode="normal" in="SourceGraphic" in2="effect1_dropShadow_140:13177" result="shape"/>
</filter>
<linearGradient id="paint0_linear_140:13177" x1="45.8476" y1="17.9194" x2="300.192" y2="195.826" gradientUnits="userSpaceOnUse">
<stop stop-color="#FFE600"/>
<stop offset="0.546374" stop-color="#FFC700"/>
<stop offset="0.9994" stop-color="#FFC700"/>
</linearGradient>
<linearGradient id="paint1_linear_140:13177" x1="302.341" y1="69.1959" x2="408.153" y2="69.1959" gradientUnits="userSpaceOnUse">
<stop stop-color="#160052"/>
<stop offset="0.99" stop-color="#230D33"/>
</linearGradient>
<linearGradient id="paint2_linear_140:13177" x1="785.277" y1="2607.48" x2="5243.65" y2="2607.48" gradientUnits="userSpaceOnUse">
<stop stop-color="#160052"/>
<stop offset="0.99" stop-color="#230D33"/>
</linearGradient>
</defs>
</svg>
