<svg width="543" height="538" viewBox="0 0 543 538" fill="none" xmlns="http://www.w3.org/2000/svg">
<g filter="url(#filter0_f_141:23019)">
<path d="M155.809 437.298C147.753 437.298 122.579 434.277 121.572 413.133C121.572 412.126 121.572 412.126 121.572 411.119C115.53 410.112 109.489 406.085 105.461 399.037C102.44 395.01 93.3772 374.872 108.482 354.735C108.482 354.735 108.482 353.728 107.475 353.728C106.468 350.708 100.426 335.605 106.468 318.488C109.489 310.433 115.53 303.385 123.586 298.351C118.551 287.276 117.544 271.166 127.614 261.097C136.676 251.029 152.788 249.015 152.788 249.015C152.788 249.015 149.767 248.008 146.746 247.001C142.718 247.001 138.69 245.995 135.669 242.974C128.621 236.933 126.607 227.871 129.628 218.809C132.649 211.761 148.76 178.535 159.836 164.439C173.934 146.315 193.066 134.233 215.219 129.199C223.275 127.185 231.331 126.178 239.386 126.178C253.484 126.178 265.567 129.199 274.63 131.213C310.88 105.034 350.152 100 376.333 100C402.513 100 421.646 105.034 423.66 106.041C429.701 108.055 433.729 112.082 436.75 118.123C449.84 152.357 441.785 215.789 410.569 259.084C408.555 261.097 408.555 264.118 408.555 267.139C411.576 280.228 412.583 300.365 406.541 321.509C400.5 342.653 388.416 360.776 370.291 374.872C356.193 385.948 321.957 402.058 315.915 405.078C312.894 406.085 310.88 407.092 307.859 407.092C301.818 407.092 296.783 404.071 292.755 400.044C286.713 392.996 291.748 384.941 296.783 377.893C296.783 377.893 305.845 367.824 304.838 354.735C298.797 359.77 285.706 370.845 280.671 374.872C282.685 385.948 278.658 396.016 270.602 404.071C264.56 409.106 257.511 411.119 249.456 411.119C246.435 411.119 243.414 411.119 239.386 410.112C237.372 409.106 234.351 410.112 233.344 412.126C231.331 416.154 228.31 420.181 224.282 423.202C217.233 429.243 208.17 432.263 198.101 432.263C194.073 432.263 190.045 431.257 185.01 430.25C179.976 429.243 177.962 430.25 169.906 433.27C165.878 436.291 159.836 437.298 155.809 437.298Z" fill="white" fill-opacity="0.2"/>
</g>
<path d="M389.165 283.148C389.165 283.148 390.172 281.134 392.185 279.12C423.401 241.866 434.478 177.427 422.394 145.208C422.394 145.208 344.858 122.05 280.413 173.4C280.413 173.4 279.406 174.407 278.399 174.407C278.399 174.407 249.197 162.325 217.982 169.373C201.87 173.4 185.759 181.455 172.669 198.571C161.592 212.667 143.467 250.928 143.467 250.928C143.467 250.928 177.703 222.736 202.877 248.914C182.738 271.065 165.62 290.196 159.578 297.244C159.578 297.244 148.502 287.175 138.432 299.257C133.397 305.298 137.425 317.381 140.446 320.401L233.086 413.032C250.204 430.149 270.344 412.026 259.267 396.923L258.26 395.916C265.309 390.881 285.448 374.772 309.615 355.641C336.803 380.813 309.615 417.06 309.615 417.06C309.615 417.06 347.879 398.936 361.977 387.861C379.095 374.772 388.158 358.662 392.185 343.559C400.241 311.34 389.165 283.148 389.165 283.148ZM289.476 272.072C270.344 252.942 270.344 221.729 289.476 202.599C308.608 183.469 339.824 183.469 358.956 202.599C378.088 221.729 378.088 252.942 358.956 272.072C339.824 291.202 308.608 291.202 289.476 272.072Z" fill="#C193FC"/>
<path d="M389.165 283.148C389.165 283.148 390.172 281.134 392.185 279.12C423.401 241.866 434.478 177.427 422.394 145.208C422.394 145.208 344.858 122.05 280.413 173.4C280.413 173.4 279.406 174.407 278.399 174.407C278.399 174.407 249.197 162.325 217.982 169.373C201.87 173.4 185.759 181.455 172.669 198.571C161.592 212.667 143.467 250.928 143.467 250.928C143.467 250.928 177.703 222.736 202.877 248.914C182.738 271.065 165.62 290.196 159.578 297.244C159.578 297.244 148.502 287.175 138.432 299.257C133.397 305.298 137.425 317.381 140.446 320.401L233.086 413.032C250.204 430.149 270.344 412.026 259.267 396.923L258.26 395.916C265.309 390.881 285.448 374.772 309.615 355.641C336.803 380.813 309.615 417.06 309.615 417.06C309.615 417.06 347.879 398.936 361.977 387.861C379.095 374.772 388.158 358.662 392.185 343.559C400.241 311.34 389.165 283.148 389.165 283.148ZM289.476 272.072C270.344 252.942 270.344 221.729 289.476 202.599C308.608 183.469 339.824 183.469 358.956 202.599C378.088 221.729 378.088 252.942 358.956 272.072C339.824 291.203 308.608 291.203 289.476 272.072Z" fill="url(#paint0_linear_141:23019)"/>
<path d="M230.065 361.683L262.288 365.711L348.243 319.064L260.274 388.869L230.065 361.683Z" fill="#2400FF"/>
<path d="M305.587 174.407C327.74 159.304 373.053 147.222 422.394 146.215C422.394 146.215 422.394 146.215 422.394 145.208C422.394 145.208 344.858 122.05 280.413 173.4C280.413 173.4 225.03 226.764 202.877 248.914C182.738 271.065 165.62 290.196 159.578 297.244C159.578 297.244 148.502 287.175 138.432 299.257C133.397 305.299 137.425 317.381 140.446 320.401L154.543 334.497L176.696 317.381C176.696 317.381 252.218 210.654 305.587 174.407Z" fill="#2400FF"/>
<g filter="url(#filter1_d_141:23019)">
<path d="M149.508 336.511L219.995 406.991C219.995 406.991 222.009 448.272 186.766 440.218C186.766 440.218 201.87 424.108 194.821 414.039C190.794 409.005 180.724 405.984 172.668 430.149C168.641 441.224 155.55 453.307 136.418 441.224C136.418 441.224 171.661 417.06 155.55 401.957C144.474 391.888 128.362 399.943 119.3 420.08C119.3 420.08 111.244 403.971 120.307 391.888C131.383 377.792 142.46 381.82 147.494 375.779C150.515 371.751 150.515 363.696 141.453 361.683C136.418 360.676 129.369 362.689 121.314 371.751C121.314 371.751 110.237 347.587 136.418 337.518C143.467 334.497 149.508 336.511 149.508 336.511Z" fill="#FFA21A"/>
<path d="M135.775 397.903C129.681 400.95 123.97 406.91 119.53 415.103C119.1 413.714 118.673 412.044 118.38 410.201C117.544 404.945 117.829 398.538 121.893 393.106C127.115 386.469 132.262 384.143 136.768 382.72C137.753 382.409 138.702 382.143 139.645 381.879C139.811 381.832 139.976 381.786 140.142 381.739C141.231 381.432 142.324 381.116 143.358 380.743C145.439 379.993 147.45 378.955 149.031 377.059L149.064 377.02L149.094 376.979C150.943 374.514 151.866 370.863 150.934 367.449C149.96 363.876 147.048 360.877 141.886 359.73L141.866 359.726L141.845 359.721C136.407 358.634 129.551 360.626 122.113 367.996C122.051 367.779 121.989 367.552 121.928 367.315C121.334 365.03 120.811 361.919 121.043 358.548C121.275 355.19 122.253 351.602 124.637 348.281C127.018 344.965 130.895 341.785 137.136 339.385L137.171 339.371L137.206 339.356C140.387 337.993 143.341 337.765 145.501 337.879C146.58 337.936 147.453 338.077 148.044 338.201C148.207 338.235 148.348 338.268 148.466 338.297L218.015 407.839C218.017 408.082 218.018 408.379 218.013 408.725C218 409.791 217.943 411.316 217.769 413.123C217.418 416.755 216.598 421.447 214.752 425.852C212.908 430.254 210.096 434.24 205.83 436.69C202.168 438.792 197.228 439.881 190.501 438.89C190.531 438.852 190.56 438.814 190.59 438.776C191.939 437.054 193.675 434.633 195.191 431.865C196.699 429.111 198.043 425.917 198.516 422.665C198.992 419.382 198.59 415.935 196.46 412.892L196.423 412.84L196.383 412.79C194.046 409.869 189.647 407.202 184.503 409.292C179.616 411.277 174.842 417.317 170.78 429.49C168.898 434.648 164.929 439.945 159.358 442.56C154.43 444.873 147.968 445.219 140.065 441.032C140.881 440.411 141.859 439.646 142.941 438.76C146.043 436.217 150.041 432.642 153.544 428.556C157.018 424.503 160.156 419.775 161.304 414.924C162.489 409.914 161.523 404.815 156.918 400.498L156.907 400.487L156.895 400.477C150.677 394.824 142.972 394.305 135.775 397.903Z" stroke="#FF9361" stroke-width="4"/>
</g>
<path d="M149.508 336.511L219.995 406.991C219.995 406.991 222.009 448.272 186.766 440.218C186.766 440.218 201.87 424.108 194.821 414.039C190.794 409.005 180.724 405.984 172.668 430.149C168.641 441.224 155.55 453.307 136.418 441.224C136.418 441.224 171.661 417.06 155.55 401.957C144.474 391.888 128.362 399.943 119.3 420.08C119.3 420.08 111.244 403.971 120.307 391.888C131.383 377.792 142.46 381.82 147.494 375.779C150.515 371.751 150.515 363.696 141.453 361.683C136.418 360.676 129.369 362.689 121.314 371.751C121.314 371.751 110.237 347.587 136.418 337.518C143.467 334.497 149.508 336.511 149.508 336.511Z" stroke="#FF8908" stroke-miterlimit="10" stroke-linecap="round" stroke-linejoin="round"/>
<g filter="url(#filter2_d_141:23019)">
<path d="M292.304 269.243C274.734 251.675 274.734 222.995 292.304 205.427C309.875 187.859 338.558 187.859 356.128 205.427C373.698 222.995 373.698 251.675 356.128 269.243C338.558 286.812 309.875 286.812 292.304 269.243Z" stroke="#FF00E5" stroke-width="8"/>
<path d="M278.4 174.407C278.4 174.407 249.198 162.325 217.983 169.373C201.871 173.4 185.76 181.455 172.67 198.571C161.593 212.667 143.468 250.928 143.468 250.928C143.468 250.928 177.704 222.736 202.878 247.908C212.948 238.846 268.331 185.482 278.4 174.407Z" fill="url(#paint1_linear_141:23019)"/>
</g>
<g filter="url(#filter3_d_141:23019)">
<path d="M292.304 269.243C274.734 251.675 274.734 222.995 292.304 205.427C309.875 187.859 338.558 187.859 356.128 205.427C373.698 222.995 373.698 251.675 356.128 269.243C338.558 286.812 309.875 286.812 292.304 269.243Z" stroke="#FF00E5" stroke-width="8"/>
<path d="M390.172 282.141C384.13 288.182 316.664 348.593 308.608 354.634C335.796 379.806 308.608 416.053 308.608 416.053C308.608 416.053 346.872 397.929 360.97 386.854C378.088 373.765 387.151 357.655 391.178 342.552C400.241 311.34 389.165 283.147 390.172 282.141C390.172 283.147 389.165 283.147 390.172 282.141Z" fill="url(#paint2_linear_141:23019)"/>
<mask id="path-13-inside-1_141:23019" fill="white">
<path d="M390.172 282.141L308.608 355.641C315.657 348.593 383.123 289.189 390.172 282.141Z"/>
</mask>
<path d="M390.172 282.141L308.608 355.641C315.657 348.593 383.123 289.189 390.172 282.141Z" fill="#C193FC"/>
<path d="M390.172 282.141L395.828 287.798L384.816 276.198L390.172 282.141ZM308.608 355.641L302.951 349.984L313.963 361.584L308.608 355.641ZM384.816 276.198L303.252 349.698L313.963 361.584L395.527 288.084L384.816 276.198ZM314.264 361.298C317.575 357.988 335.913 341.628 354.714 324.862C373.171 308.402 392.09 291.535 395.828 287.798L384.515 276.483C381.204 279.794 362.866 296.153 344.065 312.92C325.609 329.38 306.689 346.247 302.951 349.984L314.264 361.298Z" fill="#FF00E5" mask="url(#path-13-inside-1_141:23019)"/>
</g>
<path d="M159.578 297.244C159.578 297.244 148.502 287.175 138.432 299.257C133.397 305.298 137.425 317.381 140.446 320.401L233.086 413.032C250.204 430.149 270.344 412.025 259.267 396.923L258.26 395.916C239.128 376.785 159.578 297.244 159.578 297.244Z" fill="url(#paint3_linear_141:23019)"/>
<path d="M345.864 258.983C339.823 265.024 331.767 268.044 323.711 268.044C315.656 268.044 307.6 265.024 301.558 258.983C295.516 252.942 292.496 244.887 292.496 236.832C292.496 228.777 295.516 220.722 301.558 214.681C307.6 208.64 315.656 205.619 323.711 205.619C331.767 205.619 339.823 208.64 345.864 214.681C357.948 227.77 357.948 246.9 345.864 258.983Z" fill="#40D7FF"/>
<path d="M314.65 221.729C314.65 221.729 338.817 223.743 338.817 248.914C338.817 248.914 345.866 229.784 335.797 221.729C325.727 213.674 314.65 221.729 314.65 221.729Z" fill="#8CE7FF"/>
<path d="M345.864 258.983C339.823 265.024 331.767 268.044 323.711 268.044C315.656 268.044 307.6 265.024 301.558 258.983C295.516 252.942 292.496 244.887 292.496 236.832C292.496 228.777 295.516 220.722 301.558 214.681C307.6 208.64 315.656 205.619 323.711 205.619C331.767 205.619 339.823 208.64 345.864 214.681C357.948 227.77 357.948 246.9 345.864 258.983Z" stroke="#00A4CF" stroke-width="1.0535" stroke-miterlimit="10" stroke-linecap="round" stroke-linejoin="round"/>
<g filter="url(#filter4_d_141:23019)">
<path d="M389.165 283.148C389.165 283.148 390.172 281.134 392.185 279.12C423.401 241.866 434.478 177.427 422.394 145.208C422.394 145.208 344.858 122.05 280.413 173.4C280.413 173.4 279.406 174.407 278.399 174.407C278.399 174.407 249.197 162.325 217.982 169.373C201.87 173.4 185.759 181.455 172.669 198.571C161.592 212.667 143.467 250.928 143.467 250.928C143.467 250.928 177.703 222.736 202.877 248.914C182.738 271.065 165.62 290.196 159.578 297.244C159.578 297.244 148.502 287.175 138.432 299.257C133.397 305.298 137.425 317.381 140.446 320.401L233.086 413.032C250.204 430.149 270.344 412.026 259.267 396.923L258.26 395.916C265.309 390.881 285.448 374.772 309.615 355.641C336.803 380.813 309.615 417.06 309.615 417.06C309.615 417.06 347.879 398.936 361.977 387.861C379.095 374.772 388.158 358.662 392.185 343.559C400.241 311.34 389.165 283.148 389.165 283.148ZM289.476 272.072C270.344 252.942 270.344 221.729 289.476 202.599C308.608 183.469 339.824 183.469 358.956 202.599C378.088 221.729 378.088 252.942 358.956 272.072C339.824 291.203 308.608 291.203 289.476 272.072Z" stroke="#FF00E5" stroke-width="6" stroke-miterlimit="10" stroke-linecap="round" stroke-linejoin="round" shape-rendering="crispEdges"/>
</g>
<path d="M202.877 248.914C202.877 248.914 274.371 179.441 278.399 175.413" stroke="#FF00E5" stroke-width="6" stroke-miterlimit="10" stroke-linecap="round" stroke-linejoin="round"/>
<path d="M300.243 363.064C300.243 363.064 388.157 283.149 392.185 279.121" stroke="#FF00E5" stroke-width="6" stroke-miterlimit="10" stroke-linecap="round" stroke-linejoin="round"/>
<path d="M159.578 297.244L258.243 396.064" stroke="#9164FF" stroke-width="0.9975" stroke-miterlimit="10" stroke-linecap="round" stroke-linejoin="round"/>
<path d="M412.324 152.256L403.261 154.27C403.261 154.27 408.296 163.331 409.303 166.352C412.324 182.462 406.282 214.681 403.261 231.798C402.254 231.798 427.428 174.407 412.324 152.256Z" fill="#E0D4FF"/>
<defs>
<filter id="filter0_f_141:23019" x="0" y="0" width="542.77" height="537.297" filterUnits="userSpaceOnUse" color-interpolation-filters="sRGB">
<feFlood flood-opacity="0" result="BackgroundImageFix"/>
<feBlend mode="normal" in="SourceGraphic" in2="BackgroundImageFix" result="shape"/>
<feGaussianBlur stdDeviation="50" result="effect1_foregroundBlur_141:23019"/>
</filter>
<filter id="filter1_d_141:23019" x="96" y="315.854" width="144.017" height="150.4" filterUnits="userSpaceOnUse" color-interpolation-filters="sRGB">
<feFlood flood-opacity="0" result="BackgroundImageFix"/>
<feColorMatrix in="SourceAlpha" type="matrix" values="0 0 0 0 0 0 0 0 0 0 0 0 0 0 0 0 0 0 127 0" result="hardAlpha"/>
<feOffset/>
<feGaussianBlur stdDeviation="10"/>
<feComposite in2="hardAlpha" operator="out"/>
<feColorMatrix type="matrix" values="0 0 0 0 1 0 0 0 0 0.32549 0 0 0 0 0 0 0 0 1 0"/>
<feBlend mode="normal" in2="BackgroundImageFix" result="effect1_dropShadow_141:23019"/>
<feBlend mode="normal" in="SourceGraphic" in2="effect1_dropShadow_141:23019" result="shape"/>
</filter>
<filter id="filter2_d_141:23019" x="123.468" y="147.165" width="269.837" height="159.255" filterUnits="userSpaceOnUse" color-interpolation-filters="sRGB">
<feFlood flood-opacity="0" result="BackgroundImageFix"/>
<feColorMatrix in="SourceAlpha" type="matrix" values="0 0 0 0 0 0 0 0 0 0 0 0 0 0 0 0 0 0 127 0" result="hardAlpha"/>
<feOffset/>
<feGaussianBlur stdDeviation="10"/>
<feComposite in2="hardAlpha" operator="out"/>
<feColorMatrix type="matrix" values="0 0 0 0 1 0 0 0 0 0 0 0 0 0 0.9 0 0 0 1 0"/>
<feBlend mode="normal" in2="BackgroundImageFix" result="effect1_dropShadow_141:23019"/>
<feBlend mode="normal" in="SourceGraphic" in2="effect1_dropShadow_141:23019" result="shape"/>
</filter>
<filter id="filter3_d_141:23019" x="255.127" y="168.251" width="159.641" height="267.802" filterUnits="userSpaceOnUse" color-interpolation-filters="sRGB">
<feFlood flood-opacity="0" result="BackgroundImageFix"/>
<feColorMatrix in="SourceAlpha" type="matrix" values="0 0 0 0 0 0 0 0 0 0 0 0 0 0 0 0 0 0 127 0" result="hardAlpha"/>
<feOffset/>
<feGaussianBlur stdDeviation="10"/>
<feComposite in2="hardAlpha" operator="out"/>
<feColorMatrix type="matrix" values="0 0 0 0 1 0 0 0 0 0 0 0 0 0 0.9 0 0 0 1 0"/>
<feBlend mode="normal" in2="BackgroundImageFix" result="effect1_dropShadow_141:23019"/>
<feBlend mode="normal" in="SourceGraphic" in2="effect1_dropShadow_141:23019" result="shape"/>
</filter>
<filter id="filter4_d_141:23019" x="113.044" y="117" width="337.133" height="325.969" filterUnits="userSpaceOnUse" color-interpolation-filters="sRGB">
<feFlood flood-opacity="0" result="BackgroundImageFix"/>
<feColorMatrix in="SourceAlpha" type="matrix" values="0 0 0 0 0 0 0 0 0 0 0 0 0 0 0 0 0 0 127 0" result="hardAlpha"/>
<feOffset/>
<feGaussianBlur stdDeviation="10"/>
<feComposite in2="hardAlpha" operator="out"/>
<feColorMatrix type="matrix" values="0 0 0 0 1 0 0 0 0 0 0 0 0 0 0.9 0 0 0 1 0"/>
<feBlend mode="normal" in2="BackgroundImageFix" result="effect1_dropShadow_141:23019"/>
<feBlend mode="normal" in="SourceGraphic" in2="effect1_dropShadow_141:23019" result="shape"/>
</filter>
<linearGradient id="paint0_linear_141:23019" x1="281.611" y1="140" x2="281.611" y2="419.966" gradientUnits="userSpaceOnUse">
<stop stop-color="#050EA3"/>
<stop offset="1" stop-color="#00033A"/>
</linearGradient>
<linearGradient id="paint1_linear_141:23019" x1="210.934" y1="167.165" x2="210.934" y2="250.928" gradientUnits="userSpaceOnUse">
<stop stop-color="#050EA3"/>
<stop offset="1" stop-color="#00033A"/>
</linearGradient>
<linearGradient id="paint2_linear_141:23019" x1="351.688" y1="282.141" x2="351.688" y2="416.053" gradientUnits="userSpaceOnUse">
<stop stop-color="#050EA3"/>
<stop offset="1" stop-color="#00033A"/>
</linearGradient>
<linearGradient id="paint3_linear_141:23019" x1="199.242" y1="293.311" x2="199.242" y2="419.966" gradientUnits="userSpaceOnUse">
<stop stop-color="#050EA3"/>
<stop offset="1" stop-color="#00033A"/>
</linearGradient>
</defs>
</svg>
