<svg width="404" height="340" viewBox="0 0 404 340" fill="none" xmlns="http://www.w3.org/2000/svg">
<g filter="url(#filter0_d_140:21351)">
<g filter="url(#filter1_d_140:21351)">
<path d="M73.8782 45.5584C74.5941 40.6443 78.8078 37 83.7738 37H356.498C362.617 37 367.301 42.4461 366.385 48.4961L329.162 294.496C328.422 299.386 324.219 303 319.274 303H47.9373C41.8407 303 37.1629 297.591 38.0418 291.558L73.8782 45.5584Z" fill="url(#paint0_linear_140:21351)"/>
<path d="M73.8782 45.5584C74.5941 40.6443 78.8078 37 83.7738 37H356.498C362.617 37 367.301 42.4461 366.385 48.4961L329.162 294.496C328.422 299.386 324.219 303 319.274 303H47.9373C41.8407 303 37.1629 297.591 38.0418 291.558L73.8782 45.5584Z" stroke="#FF00E5" stroke-width="6"/>
</g>
<path d="M74.5538 40.9208C74.8818 38.6695 76.8121 37 79.0872 37H356.498C362.617 37 367.301 42.4461 366.385 48.4961L328.514 298.775C328.147 301.204 326.059 303 323.602 303H301.22C161.572 303 54.4228 179.111 74.5538 40.9208Z" fill="url(#paint1_linear_140:21351)" fill-opacity="0.1"/>
</g>
<defs>
<filter id="filter0_d_140:21351" x="0.934814" y="0" width="402.566" height="346" filterUnits="userSpaceOnUse" color-interpolation-filters="sRGB">
<feFlood flood-opacity="0" result="BackgroundImageFix"/>
<feColorMatrix in="SourceAlpha" type="matrix" values="0 0 0 0 0 0 0 0 0 0 0 0 0 0 0 0 0 0 127 0" result="hardAlpha"/>
<feOffset/>
<feGaussianBlur stdDeviation="17"/>
<feComposite in2="hardAlpha" operator="out"/>
<feColorMatrix type="matrix" values="0 0 0 0 1 0 0 0 0 1 0 0 0 0 1 0 0 0 1 0"/>
<feBlend mode="normal" in2="BackgroundImageFix" result="effect1_dropShadow_140:21351"/>
<feBlend mode="normal" in="SourceGraphic" in2="effect1_dropShadow_140:21351" result="shape"/>
</filter>
<filter id="filter1_d_140:21351" x="0.934814" y="0" width="402.566" height="340" filterUnits="userSpaceOnUse" color-interpolation-filters="sRGB">
<feFlood flood-opacity="0" result="BackgroundImageFix"/>
<feColorMatrix in="SourceAlpha" type="matrix" values="0 0 0 0 0 0 0 0 0 0 0 0 0 0 0 0 0 0 127 0" result="hardAlpha"/>
<feOffset/>
<feGaussianBlur stdDeviation="17"/>
<feComposite in2="hardAlpha" operator="out"/>
<feColorMatrix type="matrix" values="0 0 0 0 1 0 0 0 0 0 0 0 0 0 0.9 0 0 0 0.85 0"/>
<feBlend mode="normal" in2="BackgroundImageFix" result="effect1_dropShadow_140:21351"/>
<feBlend mode="normal" in="SourceGraphic" in2="effect1_dropShadow_140:21351" result="shape"/>
</filter>
<linearGradient id="paint0_linear_140:21351" x1="202.25" y1="37" x2="202.25" y2="303" gradientUnits="userSpaceOnUse">
<stop stop-color="#050EA3"/>
<stop offset="1" stop-color="#00033A"/>
</linearGradient>
<linearGradient id="paint1_linear_140:21351" x1="317.875" y1="307" x2="147.875" y2="37" gradientUnits="userSpaceOnUse">
<stop stop-color="white"/>
<stop offset="1" stop-color="white" stop-opacity="0"/>
</linearGradient>
</defs>
</svg>
