<svg width="334" height="182" viewBox="0 0 334 182" fill="none" xmlns="http://www.w3.org/2000/svg">
<g filter="url(#filter0_d_141:28889)">
<path d="M35.5784 57.9568C38.3467 43.8916 50.6788 33.75 65.0138 33.75H258.262C264.56 33.75 269.29 39.5017 268.074 45.6811L257.843 97.6607C255.075 111.726 242.743 121.868 228.408 121.868H35.16C28.862 121.868 24.132 116.116 25.3482 109.936L35.5784 57.9568Z" fill="#FEDD87"/>
<path d="M36.5596 58.1499C39.2356 44.5535 51.1566 34.75 65.0138 34.75H258.262C263.93 34.75 268.187 39.9265 267.092 45.488L256.862 97.4676C254.186 111.064 242.265 120.868 228.408 120.868H35.16C29.4918 120.868 25.2348 115.691 26.3294 110.13L36.5596 58.1499Z" stroke="white" stroke-width="2"/>
</g>
<path d="M36.1561 53.2087C38.9243 39.1435 51.2564 29.002 65.5914 29.002H258.839C265.137 29.002 269.867 34.7536 268.651 40.933L258.421 92.9127C255.653 106.978 243.321 117.119 228.986 117.119H35.7376C29.4396 117.119 24.7096 111.368 25.9258 105.188L36.1561 53.2087Z" fill="url(#paint0_linear_141:28889)"/>
<path d="M37.6421 51.8174C39.4128 38.7494 50.5701 29.002 63.7575 29.002H259.103L250.672 35.6344H54.2236L37.6421 51.8174Z" fill="#FF8A00" fill-opacity="0.2"/>
<path d="M31.3818 79.9189L33.6942 110.786L235.447 104.191L242.962 110.786L261.172 74.9062L257.906 92.5722C255.276 106.796 242.871 117.118 228.406 117.118H35.8933C29.5444 117.118 24.8028 111.279 26.1063 105.065L31.3818 79.9189Z" fill="white" fill-opacity="0.26"/>
<path d="M37.1373 53.4018C39.8132 39.8055 51.7342 30.002 65.5914 30.002H258.839C264.508 30.002 268.765 35.1785 267.67 40.7399L257.44 92.7196C254.764 106.316 242.843 116.119 228.986 116.119H35.7376C30.0694 116.119 25.8124 110.943 26.907 105.381L37.1373 53.4018Z" stroke="white" stroke-width="2"/>
<path d="M115.131 93.884C115.09 93.1813 115.069 92.458 115.069 91.714C115.069 90.97 115.069 90.2467 115.069 89.544C115.069 84.7907 115.172 80.0993 115.379 75.47C115.627 70.8407 115.751 66.1493 115.751 61.396C115.751 59.66 115.73 57.9447 115.689 56.25C115.648 54.514 115.565 52.7573 115.441 50.98C114.325 50.8973 113.23 50.8353 112.155 50.794C111.08 50.7527 110.006 50.732 108.931 50.732C107.98 50.732 107.03 50.7527 106.079 50.794C105.17 50.794 104.24 50.8147 103.289 50.856C103.206 50.9387 102.958 51.29 102.545 51.91C102.173 52.4887 101.718 53.212 101.181 54.08C100.644 54.948 100.065 55.8987 99.4451 56.932C98.8251 57.9653 98.2464 58.978 97.7091 59.97C97.2131 60.962 96.7791 61.8713 96.4071 62.698C96.0351 63.5247 95.8284 64.186 95.7871 64.682C95.7871 64.8887 96.1384 65.116 96.8411 65.364C97.5438 65.612 98.3498 65.86 99.2591 66.108C100.168 66.356 101.016 66.5627 101.801 66.728C102.586 66.8933 103.082 66.976 103.289 66.976C103.62 66.976 103.909 66.79 104.157 66.418C104.405 66.046 104.632 65.6533 104.839 65.24C105.046 64.7853 105.232 64.3927 105.397 64.062C105.562 63.69 105.748 63.5247 105.955 63.566C105.996 63.7727 106.017 63.9587 106.017 64.124C106.017 64.2893 106.017 64.4753 106.017 64.682C106.017 68.6913 105.893 72.6593 105.645 76.586C105.397 80.5127 105.273 84.4807 105.273 88.49V94.504V94.566C106.1 94.6487 107.05 94.752 108.125 94.876C109.241 94.9587 110.316 95 111.349 95C111.721 95 112.134 95 112.589 95C113.044 94.9587 113.457 94.8967 113.829 94.814C114.201 94.7313 114.511 94.628 114.759 94.504C115.007 94.3387 115.131 94.132 115.131 93.884ZM121.034 81.732C120.786 83.0547 120.662 84.2533 120.662 85.328C120.621 87.6427 121.199 89.5647 122.398 91.094C123.597 92.582 125.105 93.698 126.924 94.442C128.784 95.186 130.83 95.558 133.062 95.558C135.294 95.558 137.402 95.2273 139.386 94.566C141.411 93.9047 143.168 92.9127 144.656 91.59C146.144 90.226 147.095 88.5933 147.508 86.692C147.839 84.2533 147.942 81.7527 147.818 79.19C147.735 76.6273 147.301 74.2507 146.516 72.06C145.731 69.8693 144.573 68.0093 143.044 66.48C141.515 64.9093 139.51 63.938 137.03 63.566C135.005 63.194 132.835 63.2353 130.52 63.69H130.458L130.396 63.628L130.334 63.566C130.169 63.318 130.086 62.9873 130.086 62.574C130.086 62.1607 130.045 61.7887 129.962 61.458C129.962 61.4167 129.941 61.396 129.9 61.396C129.9 61.3547 129.9 61.3133 129.9 61.272V61.21V61.086H129.962C130.21 61.086 130.747 61.086 131.574 61.086C132.442 61.086 133.455 61.086 134.612 61.086C135.769 61.0447 136.989 61.0033 138.27 60.962C139.593 60.9207 140.833 60.9 141.99 60.9C143.189 60.8587 144.222 60.8173 145.09 60.776C145.999 60.7347 146.599 60.6933 146.888 60.652C146.888 60.652 146.888 60.4247 146.888 59.97C146.929 59.474 146.95 58.8953 146.95 58.234C146.991 57.5727 147.033 56.8493 147.074 56.064C147.115 55.2787 147.136 54.5553 147.136 53.894C147.136 53.2327 147.136 52.6747 147.136 52.22C147.136 51.7653 147.115 51.5173 147.074 51.476C146.785 51.4347 145.958 51.414 144.594 51.414C143.23 51.414 141.597 51.4347 139.696 51.476C137.795 51.476 135.749 51.4967 133.558 51.538C131.409 51.5793 129.383 51.6207 127.482 51.662C125.622 51.7033 124.051 51.7447 122.77 51.786C121.489 51.8273 120.786 51.848 120.662 51.848H120.6C120.6 53.7907 120.6 55.6093 120.6 57.304C120.641 58.9987 120.662 60.6933 120.662 62.388C120.703 64.0413 120.724 65.7567 120.724 67.534C120.724 69.27 120.724 71.1713 120.724 73.238C120.724 73.2793 120.765 73.3 120.848 73.3C121.716 73.3827 122.708 73.4033 123.824 73.362C124.94 73.3207 126.097 73.2793 127.296 73.238C128.495 73.1553 129.673 73.114 130.83 73.114C132.029 73.0727 133.165 73.1347 134.24 73.3C135.48 73.672 136.41 74.4573 137.03 75.656C137.691 76.8547 138.022 78.1153 138.022 79.438C138.022 80.7607 137.671 82.0007 136.968 83.158C136.307 84.274 135.253 84.956 133.806 85.204C132.855 85.4107 132.008 85.2453 131.264 84.708C130.52 84.1707 130.065 83.1373 129.9 81.608C129.9 81.5667 129.879 81.5253 129.838 81.484C129.838 81.4427 129.838 81.4013 129.838 81.36V81.298L121.034 81.608V81.732ZM154.634 56.684C153.724 58.0893 153.022 59.5567 152.526 61.086C152.071 62.6153 151.74 64.186 151.534 65.798C151.368 67.41 151.306 69.0427 151.348 70.696C151.389 72.308 151.451 73.8993 151.534 75.47C151.575 77.33 151.658 79.19 151.782 81.05C151.947 82.91 152.298 84.6873 152.836 86.382C153.414 88.0353 154.282 89.544 155.44 90.908C156.597 92.2307 158.23 93.2847 160.338 94.07C161.578 94.5247 163.024 94.7933 164.678 94.876C166.62 95 168.356 94.752 169.886 94.132C171.415 93.4707 172.738 92.5613 173.854 91.404C175.011 90.2053 175.982 88.8413 176.768 87.312C177.594 85.7413 178.235 84.088 178.69 82.352C179.186 80.5747 179.516 78.7973 179.682 77.02C179.847 75.2013 179.888 73.486 179.806 71.874C179.888 70.6753 179.868 69.4767 179.744 68.278C179.661 67.038 179.516 65.7567 179.31 64.434C178.979 62.698 178.442 61.0033 177.698 59.35C176.954 57.6967 175.982 56.25 174.784 55.01C173.585 53.7287 172.159 52.716 170.506 51.972C168.852 51.228 166.972 50.8973 164.864 50.98C162.756 51.0627 160.937 51.5587 159.408 52.468C157.878 53.336 156.494 54.4727 155.254 55.878C155.006 56.126 154.799 56.3947 154.634 56.684ZM163.872 84.522C163.417 84.4393 163.045 84.274 162.756 84.026C162.508 83.7367 162.301 83.406 162.136 83.034C161.97 82.662 161.846 82.29 161.764 81.918C161.681 81.5047 161.578 81.112 161.454 80.74C160.875 78.5493 160.586 76.4 160.586 74.292C160.586 72.184 160.689 69.828 160.896 67.224C161.02 66.1907 161.144 65.2607 161.268 64.434C161.433 63.6073 161.619 63.0287 161.826 62.698C162.032 62.326 162.322 61.9747 162.694 61.644C163.107 61.3133 163.52 61.1067 163.934 61.024C165.546 60.4867 166.806 60.8173 167.716 62.016C168.212 62.7187 168.584 63.628 168.832 64.744C169.121 65.8187 169.307 66.9967 169.39 68.278C169.514 69.518 169.555 70.7993 169.514 72.122C169.514 73.4033 169.493 74.5813 169.452 75.656C169.369 76.7307 169.307 77.7433 169.266 78.694C169.224 79.6447 169.038 80.6367 168.708 81.67C168.501 82.3313 168.232 82.9307 167.902 83.468C167.571 84.0053 166.992 84.398 166.166 84.646C165.835 84.77 165.463 84.8113 165.05 84.77C164.636 84.7287 164.244 84.646 163.872 84.522Z" fill="black"/>
<path d="M305.511 66.9436C305.621 66.2079 305.498 65.4427 305.099 64.7952L287.407 36.63C286.995 35.9678 286.348 35.5116 285.605 35.3644L241.831 26.5058C241.102 26.3586 240.331 26.5352 239.726 26.9914L213.629 46.298C212.157 47.5193 212.46 49.1969 212.474 49.2852C212.474 49.3146 212.474 49.344 212.474 49.3735C212.529 49.6825 212.639 49.9768 212.79 50.2417C212.79 50.2564 212.79 50.2564 212.804 50.2711L247.113 112.694C247.127 112.708 247.141 112.723 247.141 112.738C247.265 112.959 247.416 113.179 247.595 113.356C247.595 113.356 247.595 113.371 247.609 113.371C247.677 113.444 247.76 113.474 247.829 113.547C247.898 113.606 247.966 113.665 248.035 113.709C248.104 113.753 248.159 113.812 248.242 113.856C248.475 113.989 248.737 114.077 248.998 114.136C249.26 114.195 249.521 114.195 249.796 114.165C249.879 114.151 249.961 114.121 250.044 114.106C250.126 114.092 250.209 114.062 250.291 114.033C250.374 114.003 250.47 114.003 250.566 113.959C250.566 113.959 250.566 113.959 250.58 113.959C250.814 113.856 251.02 113.724 251.227 113.562C251.241 113.547 251.254 113.547 251.268 113.547L251.282 113.533L304.507 68.8419C304.521 68.8419 304.521 68.8272 304.521 68.8125C304.741 68.6212 304.947 68.4005 305.112 68.1356C305.126 68.1061 305.14 68.0767 305.154 68.0473C305.195 67.9737 305.223 67.8854 305.264 67.7971C305.36 67.5617 305.511 66.9436 305.511 66.9436Z" fill="url(#paint1_linear_141:28889)"/>
<g filter="url(#filter1_d_141:28889)">
<path d="M249.508 123.215C248.806 123.215 248.118 123.141 247.444 123.009C246.371 122.788 245.353 122.42 244.404 121.89L243.207 121.11C243.152 121.066 243.097 121.037 243.056 120.993L242.574 120.669L240.634 118.697L239.864 117.343L204.963 53.9935L204.798 53.2872C204.55 52.6397 204.357 51.9628 204.22 51.2859L204.027 49.6378C203.821 46.2238 204.894 42.1035 208.443 39.1457L208.828 38.8514L234.898 19.5448C237.374 17.7201 240.469 17.0138 243.399 17.6171L287.174 26.4758C290.118 27.0644 292.759 28.9332 294.424 31.5967L312.115 59.762C313.697 62.2783 314.316 65.3391 313.848 68.3852L313.683 69.2092C313.395 70.4012 313.119 71.1222 312.941 71.5196L312.624 72.2259C312.5 72.4908 312.349 72.7556 312.198 73.0205C311.785 73.6974 311.317 74.3155 310.794 74.8894L310.354 75.4927L309.46 76.1402L255.849 121.125C255.602 121.302 255.34 121.478 255.093 121.64L254.969 121.714C254.57 121.949 254.171 122.155 253.745 122.332L252.314 122.803C252.218 122.832 252.121 122.862 252.025 122.876L250.704 123.126C250.292 123.2 249.893 123.215 249.508 123.215ZM222.764 50.5354L251.131 102.142L295.153 65.1772L281.712 43.7811L242.588 35.8642L222.764 50.5354ZM280.392 41.6768C280.392 41.6915 280.392 41.6915 280.392 41.6768V41.6768ZM240.249 35.3933H240.263H240.249Z" fill="url(#paint2_linear_141:28889)"/>
</g>
<path d="M305.622 66.9731C305.649 66.2373 305.498 65.4574 305.099 64.8099L287.408 36.63C286.995 35.9678 286.348 35.5116 285.605 35.3644L241.831 26.5058C241.102 26.3586 240.332 26.5352 239.726 26.9914L213.629 46.298C213.038 46.6217 212.515 47.6076 212.433 48.1227C212.378 48.4906 212.268 49.2705 212.79 50.2417C212.79 50.2564 212.79 50.2564 212.804 50.2711L247.114 112.694C247.458 113.224 248.888 115.593 251.461 113.827C252.383 113.194 304.507 68.8272 304.507 68.8272C304.521 68.8272 304.521 68.8125 304.521 68.7978C304.755 68.6065 305.58 67.7677 305.622 66.9731Z" fill="white"/>
<path d="M249.672 119.33C247.292 119.33 245.022 118.021 243.399 115.504L243.193 115.166L208.525 52.0221C207.906 50.6978 207.672 49.0496 207.948 47.3279C208.223 45.6357 209.337 43.3989 211.194 42.207L237.126 22.9887C238.722 21.7968 240.744 21.3406 242.656 21.7379L286.444 30.5966C288.357 30.9792 290.09 32.2005 291.177 33.9369L308.868 62.1022C309.79 63.5737 310.23 65.3248 310.161 67.1937V67.2084C310.065 69.4893 308.772 71.1963 307.919 72.0645L307.713 72.3735L307.19 72.7414C272.577 102.216 254.652 117.403 253.909 117.918C252.534 118.859 251.089 119.33 249.672 119.33ZM217.536 49.3145L250.209 108.765C256.207 103.732 282.097 81.7178 300.435 66.1048L284.051 39.985L241.693 31.4206L217.536 49.3145ZM305.621 66.973H305.649H305.621Z" fill="white"/>
<path d="M236.314 56.069L214.702 51.6985C213.588 51.4778 212.721 50.5654 212.488 49.3735C212.254 48.1962 212.708 46.9749 213.629 46.2979L239.712 26.9914C240.331 26.5352 241.088 26.3586 241.817 26.5058L252.63 28.6984C253.579 28.8897 254.377 29.596 254.721 30.5672C255.065 31.5384 254.927 32.6274 254.336 33.4514L239.052 54.9359C238.419 55.8482 237.36 56.275 236.314 56.069Z" fill="#40D7FF"/>
<path d="M236.314 56.069L214.702 51.6985C213.588 51.4778 212.721 50.5654 212.488 49.3735C212.254 48.1962 212.708 46.9749 213.629 46.2979L239.712 26.9914C240.331 26.5352 241.088 26.3586 241.817 26.5058L252.63 28.6984C253.579 28.8897 254.377 29.596 254.721 30.5672C255.065 31.5384 254.927 32.6274 254.336 33.4514L239.052 54.9359C238.419 55.8482 237.36 56.275 236.314 56.069Z" fill="url(#paint3_linear_141:28889)"/>
<path d="M302.265 69.4162L280.653 65.0458C279.607 64.8397 278.768 64.0157 278.479 62.9267L271.601 36.9394C271.339 35.9387 271.573 34.8645 272.234 34.0993C272.894 33.3341 273.871 32.9809 274.82 33.1722L285.633 35.3648C286.362 35.512 287.022 35.9682 287.435 36.6304L305.126 64.7956C305.759 65.7962 305.759 67.1059 305.14 68.1066C304.494 69.1219 303.365 69.637 302.265 69.4162Z" fill="#40D7FF"/>
<path d="M233.769 52.4332L252.63 28.6973L274.792 33.1855L284.202 62.6309L233.769 52.4332Z" fill="#D2F0FF"/>
<path d="M278.204 61.4258L247.223 109.486C246.439 110.708 246.604 112.356 247.609 113.371C248.008 113.768 248.489 114.033 248.998 114.136C249.768 114.298 250.594 114.107 251.24 113.548L304.493 68.8423C305.057 68.3714 305.415 67.6945 305.525 66.9735L278.204 61.4258Z" fill="#00A4CF"/>
<path d="M286.376 66.4883L292.814 71.7564L266.346 98.8474L302.265 69.4166L286.376 66.4883Z" fill="#40D7FF"/>
<path d="M239.822 53.656L212.487 48.123C212.336 48.8441 212.446 49.6093 212.804 50.2715L247.113 112.694C247.54 113.459 248.242 113.96 249.012 114.122C249.521 114.225 250.057 114.18 250.566 113.96C251.846 113.415 252.561 111.944 252.245 110.502L239.822 53.656Z" fill="#2BBFFF"/>
<path d="M233.769 52.4336L246.797 111.869C247.044 113.017 247.911 113.9 248.998 114.12C250.085 114.341 251.185 113.856 251.818 112.884L284.202 62.6314L233.769 52.4336Z" fill="#8CE7FF"/>
<path d="M258.986 57.5401L284.202 62.6316L274.792 33.1714L263.691 30.9199L258.986 57.5401Z" fill="#2BBFFF"/>
<path d="M248.999 114.122C250.085 114.342 251.186 113.857 251.819 112.886L284.202 62.6325L259.014 57.541L248.999 114.122Z" fill="#40D7FF"/>
<path d="M249.659 116.283C248.187 116.283 246.825 115.43 245.752 113.767L211.346 51.1825C211.318 51.1236 211.291 51.0647 211.263 51.0059C210.479 49.5638 210.699 48.2394 210.768 47.8126C210.919 46.9003 211.662 45.311 212.873 44.6635L238.749 25.4894C239.726 24.7683 240.978 24.4888 242.133 24.7242L285.922 33.5829C287.091 33.8183 288.15 34.5688 288.811 35.6283L306.502 63.7935C307.08 64.7206 307.355 65.839 307.314 67.0456C307.245 68.576 306.062 69.768 305.663 70.1359C305.594 70.2094 305.511 70.2683 305.443 70.3272C296.845 77.6554 253.332 114.694 252.382 115.356C251.461 115.974 250.553 116.283 249.659 116.283ZM214.331 49.4902L248.572 111.78C249.218 112.766 249.672 112.913 250.553 112.31C251.818 111.339 289.058 79.6714 303.393 67.4724C303.462 67.4135 303.53 67.3547 303.599 67.2958C303.64 67.2517 303.874 66.9574 303.943 66.7955C303.943 66.4129 303.861 66.0597 303.709 65.8096L286.004 37.6443C285.839 37.3794 285.578 37.2028 285.289 37.144L241.514 28.2853C241.226 28.2265 240.923 28.3 240.675 28.4766L214.592 47.7832C214.331 47.9745 214.138 48.2982 214.097 48.4601C214.069 48.622 214.028 48.9016 214.262 49.3136C214.276 49.3725 214.303 49.4313 214.331 49.4902ZM305.621 66.9721H305.649H305.621Z" fill="#00A4CF"/>
<path d="M218.953 52.0664L226.396 66.4875L224.759 56.378L231.94 53.95L218.953 52.0664Z" fill="#40D7FF"/>
<defs>
<filter id="filter0_d_141:28889" x="0.156738" y="33.75" width="293.108" height="148.117" filterUnits="userSpaceOnUse" color-interpolation-filters="sRGB">
<feFlood flood-opacity="0" result="BackgroundImageFix"/>
<feColorMatrix in="SourceAlpha" type="matrix" values="0 0 0 0 0 0 0 0 0 0 0 0 0 0 0 0 0 0 127 0" result="hardAlpha"/>
<feOffset dy="35"/>
<feGaussianBlur stdDeviation="12.5"/>
<feComposite in2="hardAlpha" operator="out"/>
<feColorMatrix type="matrix" values="0 0 0 0 0 0 0 0 0 0 0 0 0 0 0 0 0 0 0.2 0"/>
<feBlend mode="normal" in2="BackgroundImageFix" result="effect1_dropShadow_141:28889"/>
<feBlend mode="normal" in="SourceGraphic" in2="effect1_dropShadow_141:28889" result="shape"/>
</filter>
<filter id="filter1_d_141:28889" x="198.003" y="11.4062" width="121.998" height="117.809" filterUnits="userSpaceOnUse" color-interpolation-filters="sRGB">
<feFlood flood-opacity="0" result="BackgroundImageFix"/>
<feColorMatrix in="SourceAlpha" type="matrix" values="0 0 0 0 0 0 0 0 0 0 0 0 0 0 0 0 0 0 127 0" result="hardAlpha"/>
<feOffset/>
<feGaussianBlur stdDeviation="3"/>
<feComposite in2="hardAlpha" operator="out"/>
<feColorMatrix type="matrix" values="0 0 0 0 1 0 0 0 0 0 0 0 0 0 0.9 0 0 0 1 0"/>
<feBlend mode="normal" in2="BackgroundImageFix" result="effect1_dropShadow_141:28889"/>
<feBlend mode="normal" in="SourceGraphic" in2="effect1_dropShadow_141:28889" result="shape"/>
</filter>
<linearGradient id="paint0_linear_141:28889" x1="40.1424" y1="17.9213" x2="257.481" y2="127.201" gradientUnits="userSpaceOnUse">
<stop stop-color="#FFE600"/>
<stop offset="0.546374" stop-color="#FFC700"/>
<stop offset="0.9994" stop-color="#FFC700"/>
</linearGradient>
<linearGradient id="paint1_linear_141:28889" x1="212.44" y1="70.3142" x2="305.549" y2="70.3142" gradientUnits="userSpaceOnUse">
<stop offset="0.00308058" stop-color="#160052"/>
<stop offset="0.9946" stop-color="#230D33"/>
</linearGradient>
<linearGradient id="paint2_linear_141:28889" x1="204" y1="70.3138" x2="314.006" y2="70.3138" gradientUnits="userSpaceOnUse">
<stop offset="0.00308058" stop-color="#160052"/>
<stop offset="0.9946" stop-color="#230D33"/>
</linearGradient>
<linearGradient id="paint3_linear_141:28889" x1="226.804" y1="36.9888" x2="249.027" y2="46.0655" gradientUnits="userSpaceOnUse">
<stop stop-color="white" stop-opacity="0.4"/>
<stop offset="0.8649" stop-color="#00E5FF" stop-opacity="0"/>
</linearGradient>
</defs>
</svg>
