<svg width="595" height="57" viewBox="0 0 595 57" fill="none" xmlns="http://www.w3.org/2000/svg">
<path d="M30.7929 43.12C31.0809 41.968 31.2249 40.792 31.2249 39.592C31.2729 38.392 31.3449 37.192 31.4409 35.992C31.5369 34.552 31.5849 33.328 31.5849 32.32C31.6329 31.264 31.6569 29.992 31.6569 28.504C31.6569 25.624 31.5129 22.744 31.2249 19.864C30.9369 16.984 30.3849 14.248 29.5689 11.656C28.7529 9.736 27.9129 8.248 27.0489 7.192C26.1849 6.088 25.2249 5.272 24.1689 4.744C23.1129 4.216 21.9369 3.904 20.6409 3.808C19.3449 3.664 17.8569 3.592 16.1769 3.592C14.3049 3.592 12.5769 3.76 10.9929 4.096C9.40894 4.432 7.96894 4.912 6.67294 5.536C5.42494 6.16 4.36894 6.904 3.50494 7.768C2.64094 8.584 2.04094 9.496 1.70494 10.504C1.22494 12.232 0.864938 14.056 0.624938 15.976C0.432938 17.896 0.288938 19.84 0.192938 21.808C0.144938 23.728 0.120938 25.648 0.120938 27.568C0.120938 29.44 0.120938 31.216 0.120938 32.896C0.120938 34.672 0.120938 36.4 0.120938 38.08C0.120938 39.76 0.240938 41.392 0.480938 42.976C0.720938 44.512 1.12894 45.976 1.70494 47.368C2.32894 48.712 3.24094 49.96 4.44094 51.112C5.16094 51.784 5.85694 52.36 6.52894 52.84C7.24894 53.32 7.99294 53.752 8.76094 54.136C9.57694 54.472 10.4409 54.76 11.3529 55C12.3129 55.192 13.3929 55.336 14.5929 55.432C15.3129 55.48 16.0809 55.456 16.8969 55.36C17.7129 55.264 18.4809 55.12 19.2009 54.928C19.9209 54.736 20.5689 54.496 21.1449 54.208C21.7209 53.92 22.1529 53.608 22.4409 53.272C22.7289 53.656 23.1609 54.136 23.7369 54.712C24.3609 55.288 24.8169 55.576 25.1049 55.576C25.6329 55.576 26.1849 55.408 26.7609 55.072C27.3369 54.784 27.8169 54.52 28.2009 54.28C28.7289 53.896 29.1849 53.512 29.5689 53.128C29.9529 52.744 30.1449 52.216 30.1449 51.544C30.1449 51.208 30.0009 50.872 29.7129 50.536C29.4249 50.152 29.1129 49.768 28.7769 49.384C29.5929 47.608 30.1449 46.144 30.4329 44.992C30.6249 44.32 30.7449 43.696 30.7929 43.12ZM19.1289 38.296C18.6009 38.296 18.1449 38.488 17.7609 38.872C17.3769 39.256 16.9929 39.568 16.6089 39.808C16.0809 40.192 15.5529 40.504 15.0249 40.744C14.4969 40.984 14.2329 41.44 14.2329 42.112C14.2329 42.544 14.3769 43.024 14.6649 43.552C15.0009 44.032 15.3609 44.512 15.7449 44.992C16.2249 45.52 16.7529 46.072 17.3289 46.648C17.0889 46.696 16.8729 46.72 16.6809 46.72C16.4889 46.72 16.2729 46.72 16.0329 46.72C14.5929 46.72 13.2729 46.408 12.0729 45.784C10.9209 45.16 10.0809 44.128 9.55294 42.688C9.31294 41.968 9.14494 41.056 9.04894 39.952C8.95294 38.8 8.90494 37.624 8.90494 36.424C8.90494 35.224 8.90494 34.072 8.90494 32.968C8.95294 31.864 8.97694 30.976 8.97694 30.304C8.97694 29.296 8.97694 28.384 8.97694 27.568C9.02494 26.704 9.04894 25.888 9.04894 25.12C9.09694 24.304 9.14494 23.488 9.19294 22.672C9.28894 21.808 9.38494 20.872 9.48094 19.864C9.57694 18.664 9.69694 17.704 9.84094 16.984C10.0329 16.216 10.3449 15.64 10.7769 15.256C11.2569 14.872 11.8809 14.632 12.6489 14.536C13.4649 14.392 14.5689 14.32 15.9609 14.32C18.2169 14.32 19.7769 14.872 20.6409 15.976C21.5049 17.032 22.0089 18.424 22.1529 20.152C22.3449 21.88 22.4649 23.368 22.5129 24.616C22.6089 25.864 22.6569 27.328 22.6569 29.008C22.6569 29.536 22.6569 30.184 22.6569 30.952C22.7049 31.672 22.7289 32.44 22.7289 33.256C22.7289 34.024 22.7049 34.768 22.6569 35.488C22.6569 36.208 22.6329 36.832 22.5849 37.36C22.5369 37.6 22.4889 37.936 22.4409 38.368C22.3929 38.752 22.3449 39.184 22.2969 39.664C22.2489 40.096 22.2009 40.528 22.1529 40.96C22.1049 41.344 22.0569 41.656 22.0089 41.896C21.7209 41.608 21.4569 41.248 21.2169 40.816C21.0249 40.384 20.8089 40 20.5689 39.664C20.3769 39.28 20.1609 38.968 19.9209 38.728C19.6809 38.44 19.4169 38.296 19.1289 38.296ZM53.8414 51.112C53.8894 51.784 53.8894 52.384 53.8414 52.912C53.8414 53.44 53.8894 54.112 53.9854 54.928C53.9854 55.072 54.1774 55.144 54.5614 55.144C54.9454 55.192 55.3774 55.192 55.8574 55.144C56.3374 55.096 56.8174 55.048 57.2974 55C57.7774 54.904 58.1134 54.856 58.3054 54.856C58.8814 54.808 59.3614 54.784 59.7454 54.784C60.1294 54.736 60.4894 54.712 60.8254 54.712C61.1614 54.712 61.5214 54.736 61.9054 54.784C62.2894 54.784 62.7694 54.808 63.3454 54.856C63.5374 48.52 63.5614 42.4 63.4174 36.496C63.3214 30.592 63.2734 24.688 63.2734 18.784C62.1214 18.88 61.1614 18.904 60.3934 18.856C59.6254 18.808 58.9294 18.784 58.3054 18.784C57.6814 18.736 57.0574 18.736 56.4334 18.784C55.8574 18.832 55.1614 18.976 54.3454 19.216V19.504C54.1054 21.088 53.9854 22.672 53.9854 24.256C54.0334 25.84 54.0814 27.448 54.1294 29.08C54.2254 30.664 54.2974 32.272 54.3454 33.904C54.3934 35.536 54.3694 37.168 54.2734 38.8C54.1774 40.096 53.8414 41.08 53.2654 41.752C52.6894 42.376 52.0414 42.808 51.3214 43.048C50.6014 43.24 49.8574 43.288 49.0894 43.192C48.3694 43.048 47.8174 42.88 47.4334 42.688C47.3854 42.64 47.3374 42.616 47.2894 42.616C47.2414 42.616 47.1934 42.592 47.1454 42.544C46.7614 42.256 46.4494 41.848 46.2094 41.32C46.0174 40.792 45.8494 40.192 45.7054 39.52C45.6094 38.848 45.5374 38.176 45.4894 37.504C45.4414 36.784 45.3934 36.136 45.3454 35.56C45.2494 34.264 45.1774 32.872 45.1294 31.384C45.1294 29.896 45.1294 28.408 45.1294 26.92C45.1774 25.432 45.2014 23.992 45.2014 22.6C45.2014 21.208 45.1534 19.96 45.0574 18.856C43.3774 18.856 41.8654 18.856 40.5214 18.856C39.2254 18.808 37.7374 18.904 36.0574 19.144C36.1534 20.776 36.1774 22.672 36.1294 24.832C36.0814 26.992 36.0334 29.248 35.9854 31.6C35.9374 33.904 35.8894 36.208 35.8414 38.512C35.8414 40.768 35.8654 42.856 35.9134 44.776C36.0094 46.696 36.1774 48.352 36.4174 49.744C36.7054 51.088 37.0894 51.976 37.5694 52.408C38.5774 53.272 39.7054 53.872 40.9534 54.208C42.2014 54.544 43.4734 54.688 44.7694 54.64C46.1134 54.592 47.4094 54.352 48.6574 53.92C49.9054 53.488 51.0334 52.912 52.0414 52.192C52.2814 52 52.5694 51.808 52.9054 51.616C53.2894 51.424 53.6014 51.256 53.8414 51.112ZM77.3994 18.784C75.8634 18.832 74.5434 18.832 73.4394 18.784C72.3354 18.736 71.4714 18.688 70.8474 18.64C70.6074 18.64 70.2474 18.616 69.7674 18.568C69.3354 18.52 69.0234 18.52 68.8314 18.568V18.64C68.5434 21.472 68.3994 24.4 68.3994 27.424C68.3994 30.4 68.4474 33.424 68.5434 36.496C68.6394 39.568 68.6874 42.664 68.6874 45.784C68.7354 48.904 68.6394 51.976 68.3994 55C68.7354 54.904 69.4074 54.88 70.4154 54.928C71.4234 54.976 72.4794 55 73.5834 55C74.7354 55.048 75.7914 55.048 76.7514 55C77.7114 55 78.3114 54.856 78.5514 54.568C78.2154 48.76 78.1194 42.832 78.2634 36.784C78.4554 30.736 78.5754 24.808 78.6234 19V18.784H77.3994ZM68.5434 3.088C68.4954 5.296 68.5194 7.168 68.6154 8.704C68.7594 10.192 68.8314 11.632 68.8314 13.024C69.7434 12.976 70.7274 13 71.7834 13.096C72.8394 13.144 73.8234 13.192 74.7354 13.24C75.6954 13.24 76.5114 13.192 77.1834 13.096C77.9034 13 78.3594 12.808 78.5514 12.52C78.5514 11.8 78.5274 10.984 78.4794 10.072C78.4794 9.112 78.4554 8.2 78.4074 7.336C78.4074 6.424 78.3834 5.608 78.3354 4.888C78.3354 4.12 78.3354 3.592 78.3354 3.304L68.5434 3.088ZM92.1617 36.928C92.6417 37.024 93.4097 37.096 94.4657 37.144C95.5217 37.192 96.6977 37.216 97.9937 37.216C99.3377 37.216 100.73 37.192 102.17 37.144C103.61 37.096 104.954 37.024 106.202 36.928C107.498 36.832 108.602 36.736 109.514 36.64C110.474 36.544 111.122 36.448 111.458 36.352C111.602 34.336 111.602 32.344 111.458 30.376C111.314 28.408 110.882 26.608 110.162 24.976C109.49 23.344 108.482 21.952 107.138 20.8C105.794 19.648 104.018 18.88 101.81 18.496C100.082 18.064 98.3057 17.872 96.4817 17.92C94.6577 17.968 92.9297 18.256 91.2977 18.784C89.6657 19.264 88.2017 20.008 86.9057 21.016C85.6097 21.976 84.6497 23.152 84.0257 24.544C83.4497 26.128 83.0657 27.76 82.8737 29.44C82.7297 31.072 82.5857 32.776 82.4417 34.552C82.3457 36.52 82.3937 38.488 82.5857 40.456C82.7777 42.424 83.1377 44.296 83.6657 46.072C84.1937 47.8 84.8897 49.408 85.7537 50.896C86.6177 52.336 87.6977 53.512 88.9937 54.424C90.1457 55.096 91.3937 55.528 92.7377 55.72C94.0817 55.72 95.5457 55.768 97.1297 55.864C98.7617 55.96 100.346 55.96 101.882 55.864C103.418 55.768 104.834 55.48 106.13 55C107.426 54.52 108.482 53.704 109.298 52.552C109.634 52.264 109.898 51.76 110.09 51.04C110.33 50.272 110.522 49.384 110.666 48.376C110.81 47.32 110.93 46.192 111.026 44.992C111.122 43.792 111.218 42.568 111.314 41.32C110.786 41.176 110.114 41.104 109.298 41.104C108.482 41.056 107.618 41.056 106.706 41.104C105.842 41.152 105.002 41.2 104.186 41.248C103.37 41.248 102.722 41.224 102.242 41.176C102.338 43.144 102.026 44.632 101.306 45.64C100.634 46.6 99.7937 47.176 98.7857 47.368C97.7777 47.56 96.7457 47.392 95.6897 46.864C94.6337 46.336 93.8177 45.52 93.2417 44.416C92.7137 43.552 92.4017 42.664 92.3057 41.752C92.2577 40.84 92.2097 39.664 92.1617 38.224V36.928ZM100.874 25.768C101.738 26.2 102.41 26.848 102.89 27.712C103.418 28.576 103.682 29.488 103.682 30.448C103.682 30.832 103.682 31.096 103.682 31.24C103.682 31.336 103.538 31.408 103.25 31.456C103.01 31.456 102.578 31.432 101.954 31.384C101.33 31.336 100.394 31.312 99.1457 31.312C97.3217 31.312 95.9297 31.336 94.9697 31.384C94.0577 31.384 93.3857 31.36 92.9537 31.312C92.5217 31.216 92.2817 31.072 92.2337 30.88C92.2337 30.64 92.2817 30.256 92.3777 29.728C92.4737 29.104 92.6177 28.504 92.8097 27.928C93.0497 27.352 93.3857 26.848 93.8177 26.416C94.2497 25.984 94.8257 25.648 95.5457 25.408C96.2657 25.168 97.2017 25.048 98.3537 25.048C98.8817 25.048 99.3377 25.12 99.7217 25.264C100.106 25.36 100.49 25.528 100.874 25.768ZM125.378 21.52C125.378 21.184 125.354 20.944 125.306 20.8C125.306 20.656 125.306 20.536 125.306 20.44C125.306 20.296 125.306 20.128 125.306 19.936C125.306 19.744 125.306 19.456 125.306 19.072C125.306 18.976 125.09 18.928 124.658 18.928C124.274 18.88 123.794 18.88 123.218 18.928C122.69 18.976 122.162 19.024 121.634 19.072C121.154 19.12 120.818 19.144 120.626 19.144C120.05 19.192 119.57 19.24 119.186 19.288C118.802 19.288 118.442 19.288 118.106 19.288C117.77 19.288 117.41 19.288 117.026 19.288C116.642 19.24 116.162 19.192 115.586 19.144C115.394 25.48 115.346 31.6 115.442 37.504C115.586 43.408 115.658 49.312 115.658 55.216C116.81 55.12 117.794 55.096 118.61 55.144C119.474 55.192 120.266 55.216 120.986 55.216C121.706 55.264 122.402 55.264 123.074 55.216C123.746 55.168 124.49 55.024 125.306 54.784V54.496C125.306 52.72 125.282 51.064 125.234 49.528C125.234 47.944 125.234 46.408 125.234 44.92C125.234 43.384 125.21 41.872 125.162 40.384C125.114 38.896 125.066 37.312 125.018 35.632C124.97 34.288 125.162 33.256 125.594 32.536C126.026 31.816 126.626 31.288 127.394 30.952C128.21 30.616 129.146 30.448 130.202 30.448C131.306 30.448 132.506 30.52 133.802 30.664C133.85 30.664 134.162 30.712 134.738 30.808C135.362 30.904 135.962 31.024 136.538 31.168C136.778 31.264 137.018 31.36 137.258 31.456C137.546 31.504 137.81 31.576 138.05 31.672L138.698 31.888C138.65 31.168 138.626 30.4 138.626 29.584C138.626 28.768 138.626 27.88 138.626 26.92C138.626 25.912 138.626 24.784 138.626 23.536C138.674 22.288 138.698 20.848 138.698 19.216C138.698 19.168 138.338 19.144 137.618 19.144C136.946 19.096 136.106 19.096 135.098 19.144C134.09 19.192 133.01 19.312 131.858 19.504C130.706 19.648 129.674 19.864 128.762 20.152C128.09 20.392 127.394 20.656 126.674 20.944C126.002 21.232 125.57 21.424 125.378 21.52ZM150.662 36.928C151.142 37.024 151.91 37.096 152.966 37.144C154.022 37.192 155.198 37.216 156.494 37.216C157.838 37.216 159.23 37.192 160.67 37.144C162.11 37.096 163.454 37.024 164.702 36.928C165.998 36.832 167.102 36.736 168.014 36.64C168.974 36.544 169.622 36.448 169.958 36.352C170.102 34.336 170.102 32.344 169.958 30.376C169.814 28.408 169.382 26.608 168.662 24.976C167.99 23.344 166.982 21.952 165.638 20.8C164.294 19.648 162.518 18.88 160.31 18.496C158.582 18.064 156.806 17.872 154.982 17.92C153.158 17.968 151.43 18.256 149.798 18.784C148.166 19.264 146.702 20.008 145.406 21.016C144.11 21.976 143.15 23.152 142.526 24.544C141.95 26.128 141.566 27.76 141.374 29.44C141.23 31.072 141.086 32.776 140.942 34.552C140.846 36.52 140.894 38.488 141.086 40.456C141.278 42.424 141.638 44.296 142.166 46.072C142.694 47.8 143.39 49.408 144.254 50.896C145.118 52.336 146.198 53.512 147.494 54.424C148.646 55.096 149.894 55.528 151.238 55.72C152.582 55.72 154.046 55.768 155.63 55.864C157.262 55.96 158.846 55.96 160.382 55.864C161.918 55.768 163.334 55.48 164.63 55C165.926 54.52 166.982 53.704 167.798 52.552C168.134 52.264 168.398 51.76 168.59 51.04C168.83 50.272 169.022 49.384 169.166 48.376C169.31 47.32 169.43 46.192 169.526 44.992C169.622 43.792 169.718 42.568 169.814 41.32C169.286 41.176 168.614 41.104 167.798 41.104C166.982 41.056 166.118 41.056 165.206 41.104C164.342 41.152 163.502 41.2 162.686 41.248C161.87 41.248 161.222 41.224 160.742 41.176C160.838 43.144 160.526 44.632 159.806 45.64C159.134 46.6 158.294 47.176 157.286 47.368C156.278 47.56 155.246 47.392 154.19 46.864C153.134 46.336 152.318 45.52 151.742 44.416C151.214 43.552 150.902 42.664 150.806 41.752C150.758 40.84 150.71 39.664 150.662 38.224V36.928ZM159.374 25.768C160.238 26.2 160.91 26.848 161.39 27.712C161.918 28.576 162.182 29.488 162.182 30.448C162.182 30.832 162.182 31.096 162.182 31.24C162.182 31.336 162.038 31.408 161.75 31.456C161.51 31.456 161.078 31.432 160.454 31.384C159.83 31.336 158.894 31.312 157.646 31.312C155.822 31.312 154.43 31.336 153.47 31.384C152.558 31.384 151.886 31.36 151.454 31.312C151.022 31.216 150.782 31.072 150.734 30.88C150.734 30.64 150.782 30.256 150.878 29.728C150.974 29.104 151.118 28.504 151.31 27.928C151.55 27.352 151.886 26.848 152.318 26.416C152.75 25.984 153.326 25.648 154.046 25.408C154.766 25.168 155.702 25.048 156.854 25.048C157.382 25.048 157.838 25.12 158.222 25.264C158.606 25.36 158.99 25.528 159.374 25.768ZM202.814 30.088C202.814 27.496 202.334 25.168 201.374 23.104C200.414 20.992 198.806 19.456 196.55 18.496C195.302 18.208 193.934 17.992 192.446 17.848C190.958 17.656 189.47 17.56 187.982 17.56C186.494 17.56 185.078 17.632 183.734 17.776C182.438 17.92 181.334 18.112 180.422 18.352C178.07 18.976 176.246 20.176 174.95 21.952C173.702 23.728 173.03 25.672 172.934 27.784C172.886 29.848 173.462 31.864 174.662 33.832C175.91 35.752 177.878 37.168 180.566 38.08C181.91 38.656 183.278 39.064 184.67 39.304C186.062 39.544 187.31 39.832 188.414 40.168C189.518 40.456 190.406 40.888 191.078 41.464C191.75 42.04 192.014 42.904 191.87 44.056C191.918 45.448 191.486 46.408 190.574 46.936C189.662 47.464 188.654 47.68 187.55 47.584C186.446 47.44 185.39 47.032 184.382 46.36C183.422 45.64 182.918 44.728 182.87 43.624C181.382 43.624 179.63 43.6 177.614 43.552C175.598 43.456 173.798 43.504 172.214 43.696V43.84V44.056C172.214 45.976 172.598 47.704 173.366 49.24C174.182 50.776 175.286 52.072 176.678 53.128C178.118 54.184 179.822 54.976 181.79 55.504C183.758 56.032 185.966 56.248 188.414 56.152C191.198 56.2 193.766 55.72 196.118 54.712C198.47 53.704 200.198 52.024 201.302 49.672C202.214 47.032 202.55 44.824 202.31 43.048C202.07 41.224 201.422 39.448 200.366 37.72C199.262 36.28 197.534 35.248 195.182 34.624C192.83 33.952 190.31 33.424 187.622 33.04C186.518 32.656 185.678 32.08 185.102 31.312C184.526 30.544 184.238 29.776 184.238 29.008C184.238 28.24 184.502 27.544 185.03 26.92C185.606 26.248 186.446 25.816 187.55 25.624C188.174 25.576 188.798 25.672 189.422 25.912C190.094 26.104 190.67 26.416 191.15 26.848C191.678 27.28 192.062 27.784 192.302 28.36C192.59 28.936 192.662 29.512 192.518 30.088C194.15 30.424 195.878 30.568 197.702 30.52C199.574 30.472 201.278 30.328 202.814 30.088ZM221.49 22.168C221.346 22.696 221.13 23.416 220.842 24.328C220.554 25.192 220.386 25.888 220.338 26.416C220.194 27.328 220.098 28.216 220.05 29.08C220.002 29.896 219.978 30.736 219.978 31.6C220.122 33.184 220.146 34.936 220.05 36.856C220.002 38.776 220.026 40.696 220.122 42.616C220.218 44.488 220.506 46.288 220.986 48.016C221.466 49.744 222.354 51.184 223.65 52.336C225.33 54.016 227.394 55.072 229.842 55.504C231.186 55.504 232.674 55.552 234.306 55.648C235.938 55.792 237.522 55.792 239.058 55.648C240.594 55.552 242.01 55.264 243.306 54.784C244.65 54.304 245.73 53.488 246.546 52.336C247.026 51.856 247.386 50.968 247.626 49.672C247.914 48.376 248.13 46.912 248.274 45.28C248.466 43.648 248.586 41.944 248.634 40.168C248.73 38.392 248.802 36.808 248.85 35.416C248.802 33.832 248.754 32.296 248.706 30.808C248.658 29.272 248.538 27.88 248.346 26.632C248.154 25.336 247.866 24.208 247.482 23.248C247.098 22.288 246.57 21.592 245.898 21.16C244.89 20.2 243.69 19.48 242.298 19C240.906 18.472 239.442 18.16 237.906 18.064C236.898 17.968 235.938 17.968 235.026 18.064C234.162 18.112 233.25 18.088 232.29 17.992C231.138 17.992 229.986 18.064 228.834 18.208C227.73 18.352 226.674 18.616 225.666 19C224.706 19.336 223.842 19.768 223.074 20.296C222.354 20.824 221.826 21.448 221.49 22.168ZM230.49 30.664C231.114 29.896 231.93 29.368 232.938 29.08C234.81 28.648 236.322 28.816 237.474 29.584C238.626 30.352 239.322 31.576 239.562 33.256C239.85 34.648 239.922 36.136 239.778 37.72C239.682 39.256 239.538 40.792 239.346 42.328C239.058 43.528 238.506 44.32 237.69 44.704C237.066 45.04 236.274 45.28 235.314 45.424C234.354 45.52 233.418 45.472 232.506 45.28C231.642 45.04 230.898 44.632 230.274 44.056C229.65 43.432 229.362 42.568 229.41 41.464C229.506 39.784 229.554 38.2 229.554 36.712C229.554 35.176 229.65 33.64 229.842 32.104C229.986 31.336 230.202 30.856 230.49 30.664ZM262.547 4.384C262.547 4.336 262.211 4.288 261.539 4.24C260.915 4.144 260.123 4.096 259.163 4.096C258.251 4.048 257.267 4.048 256.211 4.096C255.155 4.096 254.243 4.168 253.475 4.312V9.064C253.475 13.048 253.427 17.032 253.331 21.016C253.235 25 253.139 28.936 253.043 32.824C252.995 36.664 252.947 40.456 252.899 44.2C252.899 47.896 252.947 51.472 253.043 54.928C254.531 54.928 256.163 54.952 257.939 55C259.715 55.096 261.323 55.048 262.763 54.856C262.811 54.76 262.835 54.592 262.835 54.352C262.835 53.872 262.835 53.488 262.835 53.2C262.883 52.912 262.907 52.504 262.907 51.976C263.003 51.736 263.099 51.568 263.195 51.472C263.339 51.328 263.483 51.4 263.627 51.688C264.347 53.128 265.307 54.064 266.507 54.496C267.707 54.88 268.979 54.976 270.323 54.784C273.059 54.592 275.219 53.896 276.803 52.696C278.387 51.448 279.563 49.888 280.331 48.016C281.147 46.096 281.675 43.96 281.915 41.608C282.155 39.256 282.323 36.88 282.419 34.48C282.419 32.8 282.299 31.168 282.059 29.584C281.867 28 281.531 26.56 281.051 25.264C280.619 23.92 280.019 22.792 279.251 21.88C278.531 20.92 277.643 20.248 276.587 19.864C275.291 19.384 273.851 19.096 272.267 19C270.731 18.856 269.267 18.856 267.875 19C266.483 19.096 265.307 19.312 264.347 19.648C263.387 19.984 262.859 20.368 262.763 20.8C262.811 18.544 262.835 16.72 262.835 15.328C262.835 13.936 262.835 12.832 262.835 12.016C262.835 11.152 262.811 10.504 262.763 10.072C262.763 9.592 262.739 9.16 262.691 8.776C262.691 8.344 262.667 7.888 262.619 7.408C262.619 6.88 262.595 6.136 262.547 5.176V4.384ZM273.707 32.32C273.947 32.992 274.091 33.688 274.139 34.408C274.187 35.128 274.211 35.824 274.211 36.496C274.211 37.696 274.067 38.872 273.779 40.024C273.491 41.128 273.059 42.136 272.483 43.048C271.907 43.912 271.211 44.608 270.395 45.136C269.579 45.664 268.667 45.928 267.659 45.928C266.411 45.928 265.451 45.664 264.779 45.136C264.107 44.608 263.579 43.888 263.195 42.976C262.859 42.064 262.643 40.984 262.547 39.736C262.499 38.44 262.475 37.024 262.475 35.488C262.475 33.616 262.499 32.152 262.547 31.096C262.643 29.992 262.835 29.152 263.123 28.576C263.411 28 263.843 27.64 264.419 27.496C265.043 27.304 265.859 27.208 266.867 27.208C268.835 27.208 270.395 27.64 271.547 28.504C272.747 29.368 273.467 30.64 273.707 32.32ZM298.91 5.752C298.094 5.848 297.278 5.872 296.462 5.824C295.646 5.776 294.83 5.728 294.014 5.68C293.198 5.584 292.406 5.512 291.638 5.464C290.918 5.416 290.246 5.44 289.622 5.536C289.526 6.448 289.454 7.48 289.406 8.632C289.406 9.784 289.406 10.984 289.406 12.232C289.406 13.48 289.43 14.728 289.478 15.976C289.526 17.176 289.55 18.304 289.55 19.36C288.782 19.36 287.966 19.36 287.102 19.36C286.286 19.36 285.398 19.336 284.438 19.288L284.222 28.072C285.23 28.072 286.142 28.072 286.958 28.072C287.822 28.072 288.638 28.048 289.406 28C289.358 31.504 289.382 34.912 289.478 38.224C289.574 41.488 289.934 44.968 290.558 48.664C291.182 50.152 292.19 51.328 293.582 52.192C295.022 53.056 296.654 53.704 298.478 54.136C300.302 54.568 302.246 54.856 304.31 55C306.374 55.096 308.366 55.096 310.286 55C310.526 54.28 310.67 53.488 310.718 52.624C310.814 51.76 310.838 50.896 310.79 50.032C310.742 49.168 310.67 48.328 310.574 47.512C310.478 46.696 310.382 45.952 310.286 45.28C309.47 45.328 308.51 45.328 307.406 45.28C306.35 45.232 305.294 45.112 304.238 44.92C303.182 44.68 302.198 44.368 301.286 43.984C300.374 43.6 299.678 43.072 299.198 42.4C299.15 40.24 299.126 37.936 299.126 35.488C299.126 32.992 299.126 30.448 299.126 27.856H310.286C310.19 27.232 310.166 26.488 310.214 25.624C310.31 24.712 310.382 23.824 310.43 22.96C310.478 22.096 310.478 21.304 310.43 20.584C310.382 19.816 310.19 19.24 309.854 18.856C307.406 19 305.342 19.12 303.662 19.216C302.03 19.312 300.47 19.384 298.982 19.432C298.982 18.712 298.958 18.016 298.91 17.344C298.91 16.672 298.91 16.024 298.91 15.4V5.752ZM322.505 36.928C322.985 37.024 323.753 37.096 324.809 37.144C325.865 37.192 327.041 37.216 328.337 37.216C329.681 37.216 331.073 37.192 332.513 37.144C333.953 37.096 335.297 37.024 336.545 36.928C337.841 36.832 338.945 36.736 339.857 36.64C340.817 36.544 341.465 36.448 341.801 36.352C341.945 34.336 341.945 32.344 341.801 30.376C341.657 28.408 341.225 26.608 340.505 24.976C339.833 23.344 338.825 21.952 337.481 20.8C336.137 19.648 334.361 18.88 332.153 18.496C330.425 18.064 328.649 17.872 326.825 17.92C325.001 17.968 323.273 18.256 321.641 18.784C320.009 19.264 318.545 20.008 317.249 21.016C315.953 21.976 314.993 23.152 314.369 24.544C313.793 26.128 313.409 27.76 313.217 29.44C313.073 31.072 312.929 32.776 312.785 34.552C312.689 36.52 312.737 38.488 312.929 40.456C313.121 42.424 313.481 44.296 314.009 46.072C314.537 47.8 315.233 49.408 316.097 50.896C316.961 52.336 318.041 53.512 319.337 54.424C320.489 55.096 321.737 55.528 323.081 55.72C324.425 55.72 325.889 55.768 327.473 55.864C329.105 55.96 330.689 55.96 332.225 55.864C333.761 55.768 335.177 55.48 336.473 55C337.769 54.52 338.825 53.704 339.641 52.552C339.977 52.264 340.241 51.76 340.433 51.04C340.673 50.272 340.865 49.384 341.009 48.376C341.153 47.32 341.273 46.192 341.369 44.992C341.465 43.792 341.561 42.568 341.657 41.32C341.129 41.176 340.457 41.104 339.641 41.104C338.825 41.056 337.961 41.056 337.049 41.104C336.185 41.152 335.345 41.2 334.529 41.248C333.713 41.248 333.065 41.224 332.585 41.176C332.681 43.144 332.369 44.632 331.649 45.64C330.977 46.6 330.137 47.176 329.129 47.368C328.121 47.56 327.089 47.392 326.033 46.864C324.977 46.336 324.161 45.52 323.585 44.416C323.057 43.552 322.745 42.664 322.649 41.752C322.601 40.84 322.553 39.664 322.505 38.224V36.928ZM331.217 25.768C332.081 26.2 332.753 26.848 333.233 27.712C333.761 28.576 334.025 29.488 334.025 30.448C334.025 30.832 334.025 31.096 334.025 31.24C334.025 31.336 333.881 31.408 333.593 31.456C333.353 31.456 332.921 31.432 332.297 31.384C331.673 31.336 330.737 31.312 329.489 31.312C327.665 31.312 326.273 31.336 325.313 31.384C324.401 31.384 323.729 31.36 323.297 31.312C322.865 31.216 322.625 31.072 322.577 30.88C322.577 30.64 322.625 30.256 322.721 29.728C322.817 29.104 322.961 28.504 323.153 27.928C323.393 27.352 323.729 26.848 324.161 26.416C324.593 25.984 325.169 25.648 325.889 25.408C326.609 25.168 327.545 25.048 328.697 25.048C329.225 25.048 329.681 25.12 330.065 25.264C330.449 25.36 330.833 25.528 331.217 25.768ZM355.434 22.888C355.386 22.216 355.362 21.616 355.362 21.088C355.41 20.56 355.386 19.888 355.29 19.072C355.29 18.928 355.098 18.856 354.714 18.856C354.33 18.808 353.898 18.808 353.418 18.856C352.938 18.904 352.458 18.976 351.978 19.072C351.498 19.12 351.162 19.144 350.97 19.144C350.394 19.192 349.914 19.24 349.53 19.288C349.146 19.288 348.786 19.288 348.45 19.288C348.114 19.288 347.754 19.288 347.37 19.288C346.986 19.24 346.506 19.192 345.93 19.144C345.738 25.48 345.69 31.6 345.786 37.504C345.93 43.408 346.002 49.312 346.002 55.216C347.154 55.12 348.114 55.096 348.882 55.144C349.65 55.192 350.346 55.216 350.97 55.216C351.594 55.264 352.194 55.264 352.77 55.216C353.394 55.168 354.114 55.024 354.93 54.784V54.496C355.122 52.912 355.218 51.328 355.218 49.744C355.218 48.16 355.17 46.576 355.074 44.992C355.026 43.36 354.978 41.752 354.93 40.168C354.882 38.536 354.906 36.88 355.002 35.2C355.098 33.904 355.434 32.944 356.01 32.32C356.586 31.648 357.234 31.216 357.954 31.024C358.674 30.784 359.394 30.736 360.114 30.88C360.882 30.976 361.458 31.12 361.842 31.312C361.89 31.36 361.938 31.384 361.986 31.384C362.034 31.384 362.082 31.408 362.13 31.456C362.514 31.744 362.802 32.152 362.994 32.68C363.234 33.208 363.402 33.808 363.498 34.48C363.642 35.152 363.738 35.848 363.786 36.568C363.834 37.24 363.882 37.864 363.93 38.44C364.026 39.736 364.074 41.128 364.074 42.616C364.122 44.104 364.122 45.592 364.074 47.08C364.074 48.568 364.074 50.008 364.074 51.4C364.074 52.792 364.122 54.04 364.218 55.144C365.898 55.144 367.386 55.144 368.682 55.144C370.026 55.192 371.538 55.096 373.218 54.856C373.122 53.224 373.098 51.328 373.146 49.168C373.194 47.008 373.242 44.776 373.29 42.472C373.338 40.12 373.362 37.816 373.362 35.56C373.41 33.256 373.386 31.144 373.29 29.224C373.242 27.304 373.074 25.672 372.786 24.328C372.546 22.936 372.186 22.024 371.706 21.592C370.698 20.728 369.57 20.128 368.322 19.792C367.074 19.456 365.778 19.312 364.434 19.36C363.138 19.408 361.866 19.648 360.618 20.08C359.37 20.512 358.242 21.088 357.234 21.808C356.994 22 356.682 22.192 356.298 22.384C355.962 22.576 355.674 22.744 355.434 22.888ZM386.912 36.928C387.392 37.024 388.16 37.096 389.216 37.144C390.272 37.192 391.448 37.216 392.744 37.216C394.088 37.216 395.48 37.192 396.92 37.144C398.36 37.096 399.704 37.024 400.952 36.928C402.248 36.832 403.352 36.736 404.264 36.64C405.224 36.544 405.872 36.448 406.208 36.352C406.352 34.336 406.352 32.344 406.208 30.376C406.064 28.408 405.632 26.608 404.912 24.976C404.24 23.344 403.232 21.952 401.888 20.8C400.544 19.648 398.768 18.88 396.56 18.496C394.832 18.064 393.056 17.872 391.232 17.92C389.408 17.968 387.68 18.256 386.048 18.784C384.416 19.264 382.952 20.008 381.656 21.016C380.36 21.976 379.4 23.152 378.776 24.544C378.2 26.128 377.816 27.76 377.624 29.44C377.48 31.072 377.336 32.776 377.192 34.552C377.096 36.52 377.144 38.488 377.336 40.456C377.528 42.424 377.888 44.296 378.416 46.072C378.944 47.8 379.64 49.408 380.504 50.896C381.368 52.336 382.448 53.512 383.744 54.424C384.896 55.096 386.144 55.528 387.488 55.72C388.832 55.72 390.296 55.768 391.88 55.864C393.512 55.96 395.096 55.96 396.632 55.864C398.168 55.768 399.584 55.48 400.88 55C402.176 54.52 403.232 53.704 404.048 52.552C404.384 52.264 404.648 51.76 404.84 51.04C405.08 50.272 405.272 49.384 405.416 48.376C405.56 47.32 405.68 46.192 405.776 44.992C405.872 43.792 405.968 42.568 406.064 41.32C405.536 41.176 404.864 41.104 404.048 41.104C403.232 41.056 402.368 41.056 401.456 41.104C400.592 41.152 399.752 41.2 398.936 41.248C398.12 41.248 397.472 41.224 396.992 41.176C397.088 43.144 396.776 44.632 396.056 45.64C395.384 46.6 394.544 47.176 393.536 47.368C392.528 47.56 391.496 47.392 390.44 46.864C389.384 46.336 388.568 45.52 387.992 44.416C387.464 43.552 387.152 42.664 387.056 41.752C387.008 40.84 386.96 39.664 386.912 38.224V36.928ZM395.624 25.768C396.488 26.2 397.16 26.848 397.64 27.712C398.168 28.576 398.432 29.488 398.432 30.448C398.432 30.832 398.432 31.096 398.432 31.24C398.432 31.336 398.288 31.408 398 31.456C397.76 31.456 397.328 31.432 396.704 31.384C396.08 31.336 395.144 31.312 393.896 31.312C392.072 31.312 390.68 31.336 389.72 31.384C388.808 31.384 388.136 31.36 387.704 31.312C387.272 31.216 387.032 31.072 386.984 30.88C386.984 30.64 387.032 30.256 387.128 29.728C387.224 29.104 387.368 28.504 387.56 27.928C387.8 27.352 388.136 26.848 388.568 26.416C389 25.984 389.576 25.648 390.296 25.408C391.016 25.168 391.952 25.048 393.104 25.048C393.632 25.048 394.088 25.12 394.472 25.264C394.856 25.36 395.24 25.528 395.624 25.768ZM420.128 21.52C420.128 21.184 420.104 20.944 420.056 20.8C420.056 20.656 420.056 20.536 420.056 20.44C420.056 20.296 420.056 20.128 420.056 19.936C420.056 19.744 420.056 19.456 420.056 19.072C420.056 18.976 419.84 18.928 419.408 18.928C419.024 18.88 418.544 18.88 417.968 18.928C417.44 18.976 416.912 19.024 416.384 19.072C415.904 19.12 415.568 19.144 415.376 19.144C414.8 19.192 414.32 19.24 413.936 19.288C413.552 19.288 413.192 19.288 412.856 19.288C412.52 19.288 412.16 19.288 411.776 19.288C411.392 19.24 410.912 19.192 410.336 19.144C410.144 25.48 410.096 31.6 410.192 37.504C410.336 43.408 410.408 49.312 410.408 55.216C411.56 55.12 412.544 55.096 413.36 55.144C414.224 55.192 415.016 55.216 415.736 55.216C416.456 55.264 417.152 55.264 417.824 55.216C418.496 55.168 419.24 55.024 420.056 54.784V54.496C420.056 52.72 420.032 51.064 419.984 49.528C419.984 47.944 419.984 46.408 419.984 44.92C419.984 43.384 419.96 41.872 419.912 40.384C419.864 38.896 419.816 37.312 419.768 35.632C419.72 34.288 419.912 33.256 420.344 32.536C420.776 31.816 421.376 31.288 422.144 30.952C422.96 30.616 423.896 30.448 424.952 30.448C426.056 30.448 427.256 30.52 428.552 30.664C428.6 30.664 428.912 30.712 429.488 30.808C430.112 30.904 430.712 31.024 431.288 31.168C431.528 31.264 431.768 31.36 432.008 31.456C432.296 31.504 432.56 31.576 432.8 31.672L433.448 31.888C433.4 31.168 433.376 30.4 433.376 29.584C433.376 28.768 433.376 27.88 433.376 26.92C433.376 25.912 433.376 24.784 433.376 23.536C433.424 22.288 433.448 20.848 433.448 19.216C433.448 19.168 433.088 19.144 432.368 19.144C431.696 19.096 430.856 19.096 429.848 19.144C428.84 19.192 427.76 19.312 426.608 19.504C425.456 19.648 424.424 19.864 423.512 20.152C422.84 20.392 422.144 20.656 421.424 20.944C420.752 21.232 420.32 21.424 420.128 21.52ZM459.776 22.888C459.728 22.216 459.704 21.616 459.704 21.088C459.752 20.56 459.728 19.888 459.632 19.072C459.632 18.928 459.44 18.856 459.056 18.856C458.672 18.808 458.24 18.808 457.76 18.856C457.28 18.904 456.8 18.976 456.32 19.072C455.84 19.12 455.504 19.144 455.312 19.144C454.736 19.192 454.256 19.24 453.872 19.288C453.488 19.288 453.128 19.288 452.792 19.288C452.456 19.288 452.096 19.288 451.712 19.288C451.328 19.24 450.848 19.192 450.272 19.144C450.08 25.48 450.032 31.6 450.128 37.504C450.272 43.408 450.344 49.312 450.344 55.216C451.496 55.12 452.456 55.096 453.224 55.144C453.992 55.192 454.688 55.216 455.312 55.216C455.936 55.264 456.536 55.264 457.112 55.216C457.736 55.168 458.456 55.024 459.272 54.784V54.496C459.464 52.912 459.56 51.328 459.56 49.744C459.56 48.16 459.512 46.576 459.416 44.992C459.368 43.36 459.32 41.752 459.272 40.168C459.224 38.536 459.248 36.88 459.344 35.2C459.44 33.904 459.776 32.944 460.352 32.32C460.928 31.648 461.576 31.216 462.296 31.024C463.016 30.784 463.736 30.736 464.456 30.88C465.224 30.976 465.8 31.12 466.184 31.312C466.232 31.36 466.28 31.384 466.328 31.384C466.376 31.384 466.424 31.408 466.472 31.456C466.856 31.744 467.144 32.152 467.336 32.68C467.576 33.208 467.744 33.808 467.84 34.48C467.984 35.152 468.08 35.848 468.128 36.568C468.176 37.24 468.224 37.864 468.272 38.44C468.368 39.736 468.416 41.128 468.416 42.616C468.464 44.104 468.464 45.592 468.416 47.08C468.416 48.568 468.416 50.008 468.416 51.4C468.416 52.792 468.464 54.04 468.56 55.144C470.24 55.144 471.728 55.144 473.024 55.144C474.368 55.192 475.88 55.096 477.56 54.856C477.464 53.416 477.416 51.76 477.416 49.888C477.464 47.968 477.512 46 477.56 43.984C477.608 41.92 477.656 39.856 477.704 37.792C477.752 35.68 477.752 33.688 477.704 31.816C478.136 31.48 478.592 31.24 479.072 31.096C479.6 30.904 480.104 30.808 480.584 30.808C481.112 30.808 481.592 30.856 482.024 30.952C482.456 31.048 482.816 31.168 483.104 31.312C483.152 31.36 483.2 31.384 483.248 31.384C483.296 31.384 483.344 31.408 483.392 31.456C483.776 31.744 484.064 32.152 484.256 32.68C484.496 33.208 484.664 33.808 484.76 34.48C484.904 35.152 485 35.848 485.048 36.568C485.096 37.24 485.144 37.864 485.192 38.44C485.288 39.736 485.336 41.128 485.336 42.616C485.384 44.104 485.384 45.592 485.336 47.08C485.336 48.568 485.336 50.008 485.336 51.4C485.336 52.792 485.384 54.04 485.48 55.144C487.16 55.144 488.648 55.144 489.944 55.144C491.288 55.192 492.8 55.096 494.48 54.856C494.384 53.224 494.36 51.328 494.408 49.168C494.456 47.008 494.504 44.776 494.552 42.472C494.6 40.12 494.624 37.816 494.624 35.56C494.672 33.256 494.648 31.144 494.552 29.224C494.504 27.304 494.336 25.672 494.048 24.328C493.808 22.936 493.448 22.024 492.968 21.592C491.96 20.728 490.832 20.128 489.584 19.792C488.336 19.456 487.04 19.312 485.696 19.36C484.4 19.408 483.128 19.648 481.88 20.08C480.632 20.512 479.504 21.088 478.496 21.808C478.256 22 477.968 22.192 477.632 22.384C477.296 22.528 477.008 22.672 476.768 22.816C476.528 22.24 476.288 21.832 476.048 21.592C475.04 20.728 473.912 20.128 472.664 19.792C471.416 19.456 470.12 19.312 468.776 19.36C467.48 19.408 466.208 19.648 464.96 20.08C463.712 20.512 462.584 21.088 461.576 21.808C461.336 22 461.024 22.192 460.64 22.384C460.304 22.576 460.016 22.744 459.776 22.888ZM528.506 19.144C526.97 19.048 525.602 18.976 524.402 18.928C523.25 18.88 522.266 18.832 521.45 18.784C521.306 18.784 521.042 18.784 520.658 18.784C520.274 18.784 519.89 18.784 519.506 18.784C519.122 18.736 518.762 18.736 518.426 18.784C518.138 18.784 517.994 18.808 517.994 18.856C517.994 19.432 517.922 20.008 517.778 20.584C517.682 21.112 517.658 21.76 517.706 22.528C517.37 21.712 516.962 21.088 516.482 20.656C516.002 20.176 515.45 19.84 514.826 19.648C514.202 19.408 513.506 19.288 512.738 19.288C512.018 19.24 511.226 19.216 510.362 19.216C508.682 19.264 507.098 19.72 505.61 20.584C504.122 21.4 502.826 22.552 501.722 24.04C500.666 25.48 499.826 27.208 499.202 29.224C498.578 31.24 498.266 33.448 498.266 35.848C498.266 37.768 498.458 39.856 498.842 42.112C499.274 44.368 499.922 46.456 500.786 48.376C501.65 50.296 502.73 51.904 504.026 53.2C505.37 54.496 506.978 55.144 508.85 55.144C510.53 55.144 512.234 54.736 513.962 53.92C515.738 53.104 517.202 52.12 518.354 50.968C518.354 51.448 518.306 51.856 518.21 52.192C518.114 52.528 518.066 52.96 518.066 53.488C518.066 53.872 518.114 54.208 518.21 54.496C518.354 54.784 518.594 54.976 518.93 55.072C519.458 55.072 519.962 55.048 520.442 55C520.97 54.904 521.498 54.856 522.026 54.856C522.794 54.856 523.562 54.904 524.33 55C525.146 55.048 525.938 55.072 526.706 55.072H527.57C528.146 54.976 528.434 54.616 528.434 53.992C528.482 53.368 528.506 52.744 528.506 52.12C528.842 46.984 528.914 41.92 528.722 36.928C528.53 31.888 528.506 26.776 528.65 21.592V20.872C528.65 20.584 528.626 20.296 528.578 20.008C528.578 19.72 528.554 19.432 528.506 19.144ZM507.554 33.472C507.794 32.272 508.466 31.216 509.57 30.304C510.722 29.344 512.282 28.864 514.25 28.864C515.258 28.864 516.002 28.936 516.482 29.08C517.01 29.224 517.37 29.56 517.562 30.088C517.802 30.616 517.922 31.384 517.922 32.392C517.97 33.352 517.994 34.672 517.994 36.352C517.994 37.696 517.97 38.92 517.922 40.024C517.922 41.08 517.778 41.992 517.49 42.76C517.25 43.48 516.818 44.056 516.194 44.488C515.618 44.872 514.73 45.064 513.53 45.064C511.514 45.064 509.93 44.32 508.778 42.832C507.674 41.296 507.122 39.448 507.122 37.288C507.122 36.664 507.146 36.04 507.194 35.416C507.242 34.744 507.362 34.096 507.554 33.472ZM520.37 0.711999C519.506 1.384 518.546 2.224 517.49 3.232C516.434 4.192 515.354 5.248 514.25 6.4C513.194 7.504 512.138 8.608 511.082 9.712C510.074 10.768 509.162 11.68 508.346 12.448C508.682 12.544 509.21 12.64 509.93 12.736C510.698 12.784 511.538 12.832 512.45 12.88C513.41 12.928 514.37 12.952 515.33 12.952C516.338 12.904 517.226 12.832 517.994 12.736C518.186 12.352 518.618 11.848 519.29 11.224C519.962 10.6 520.682 9.952 521.45 9.28C522.218 8.56 522.962 7.888 523.682 7.264C524.402 6.64 524.93 6.16 525.266 5.824L525.338 5.752L520.37 0.711999ZM562.533 30.088C562.533 27.496 562.053 25.168 561.093 23.104C560.133 20.992 558.525 19.456 556.269 18.496C555.021 18.208 553.653 17.992 552.165 17.848C550.677 17.656 549.189 17.56 547.701 17.56C546.213 17.56 544.797 17.632 543.453 17.776C542.157 17.92 541.053 18.112 540.141 18.352C537.789 18.976 535.965 20.176 534.669 21.952C533.421 23.728 532.749 25.672 532.653 27.784C532.605 29.848 533.181 31.864 534.381 33.832C535.629 35.752 537.597 37.168 540.285 38.08C541.629 38.656 542.997 39.064 544.389 39.304C545.781 39.544 547.029 39.832 548.133 40.168C549.237 40.456 550.125 40.888 550.797 41.464C551.469 42.04 551.733 42.904 551.589 44.056C551.637 45.448 551.205 46.408 550.293 46.936C549.381 47.464 548.373 47.68 547.269 47.584C546.165 47.44 545.109 47.032 544.101 46.36C543.141 45.64 542.637 44.728 542.589 43.624C541.101 43.624 539.349 43.6 537.333 43.552C535.317 43.456 533.517 43.504 531.933 43.696V43.84V44.056C531.933 45.976 532.317 47.704 533.085 49.24C533.901 50.776 535.005 52.072 536.397 53.128C537.837 54.184 539.541 54.976 541.509 55.504C543.477 56.032 545.685 56.248 548.133 56.152C550.917 56.2 553.485 55.72 555.837 54.712C558.189 53.704 559.917 52.024 561.021 49.672C561.933 47.032 562.269 44.824 562.029 43.048C561.789 41.224 561.141 39.448 560.085 37.72C558.981 36.28 557.253 35.248 554.901 34.624C552.549 33.952 550.029 33.424 547.341 33.04C546.237 32.656 545.397 32.08 544.821 31.312C544.245 30.544 543.957 29.776 543.957 29.008C543.957 28.24 544.221 27.544 544.749 26.92C545.325 26.248 546.165 25.816 547.269 25.624C547.893 25.576 548.517 25.672 549.141 25.912C549.813 26.104 550.389 26.416 550.869 26.848C551.397 27.28 551.781 27.784 552.021 28.36C552.309 28.936 552.381 29.512 552.237 30.088C553.869 30.424 555.597 30.568 557.421 30.52C559.293 30.472 560.997 30.328 562.533 30.088ZM573.779 40.672C573.779 40.912 573.779 41.2 573.779 41.536C573.779 41.824 573.875 42.064 574.067 42.256H574.139C575.627 42.16 577.091 42.16 578.531 42.256C580.019 42.352 581.507 42.304 582.995 42.112V42.04C582.899 41.656 582.899 41.248 582.995 40.816C583.091 40.384 583.187 39.976 583.283 39.592C583.619 37.912 584.027 36.376 584.507 34.984C585.035 33.592 585.803 32.2 586.811 30.808C587.531 29.848 588.227 29.056 588.899 28.432C589.619 27.76 590.363 26.896 591.131 25.84C591.947 24.784 592.667 23.632 593.291 22.384C593.915 21.136 594.323 19.744 594.515 18.208C594.755 16.096 594.491 14.128 593.723 12.304C592.955 10.48 591.827 8.92 590.339 7.624C588.899 6.328 587.171 5.368 585.155 4.744C583.187 4.12 581.099 3.904 578.891 4.096C576.827 4.192 574.955 4.696 573.275 5.608C571.595 6.472 570.131 7.6 568.883 8.992C567.635 10.384 566.651 11.968 565.931 13.744C565.211 15.472 564.803 17.248 564.707 19.072V19.144C566.147 19.192 567.587 19.264 569.027 19.36C570.515 19.456 572.003 19.432 573.491 19.288C574.115 19.048 574.619 18.616 575.003 17.992C575.387 17.368 575.795 16.792 576.227 16.264C576.659 15.688 577.163 15.28 577.739 15.04C578.363 14.752 579.227 14.848 580.331 15.328C582.059 15.952 582.947 16.84 582.995 17.992C583.043 19.144 582.683 20.392 581.915 21.736C581.147 23.08 580.211 24.448 579.107 25.84C578.051 27.184 577.259 28.36 576.731 29.368C575.819 30.712 575.171 32.104 574.787 33.544C574.451 34.936 574.163 36.4 573.923 37.936L573.779 40.672ZM582.347 55V54.928V54.856C582.347 54.52 582.371 53.896 582.419 52.984C582.467 52.072 582.515 51.136 582.563 50.176C582.611 49.216 582.659 48.376 582.707 47.656C582.755 46.888 582.779 46.48 582.779 46.432C582.443 46.288 581.867 46.192 581.051 46.144C580.283 46.048 579.443 46 578.531 46C577.619 46 576.707 46.048 575.795 46.144C574.931 46.24 574.259 46.384 573.779 46.576C573.779 46.912 573.755 47.44 573.707 48.16C573.707 48.88 573.683 49.648 573.635 50.464C573.635 51.28 573.635 52.096 573.635 52.912C573.683 53.728 573.755 54.4 573.851 54.928H574.067L582.203 55H582.347Z" fill="white"/>
</svg>
