<svg width="404" height="340" viewBox="0 0 404 340" fill="none" xmlns="http://www.w3.org/2000/svg">
<g filter="url(#filter0_d_123:10159)">
<g filter="url(#filter1_d_123:10159)">
<path d="M73.8782 45.5584C74.5941 40.6443 78.8078 37 83.7738 37H356.498C362.617 37 367.301 42.4461 366.385 48.4961L329.162 294.496C328.422 299.386 324.219 303 319.274 303H47.9373C41.8407 303 37.1629 297.591 38.0418 291.558L73.8782 45.5584Z" fill="url(#paint0_linear_123:10159)"/>
<path d="M73.8782 45.5584C74.5941 40.6443 78.8078 37 83.7738 37H356.498C362.617 37 367.301 42.4461 366.385 48.4961L329.162 294.496C328.422 299.386 324.219 303 319.274 303H47.9373C41.8407 303 37.1629 297.591 38.0418 291.558L73.8782 45.5584Z" stroke="#FF00E5" stroke-width="6"/>
</g>
<path d="M74.5538 40.9208C74.8818 38.6695 76.8121 37 79.0872 37H356.498C362.617 37 367.301 42.4461 366.385 48.4961L328.514 298.775C328.147 301.204 326.059 303 323.602 303H301.22C161.572 303 54.4228 179.111 74.5538 40.9208V40.9208Z" fill="url(#paint1_linear_123:10159)" fill-opacity="0.1"/>
</g>
<path d="M209.836 104C207.479 104 205.31 104.189 203.047 104.473C228.131 107.785 247.556 129.362 247.556 155.482C247.556 181.601 228.131 203.084 203.047 206.49C205.31 206.774 207.573 206.964 209.836 206.964C238.126 206.964 261.136 183.872 261.136 155.482C261.136 126.996 238.126 104 209.836 104Z" fill="#2BBFFF"/>
<path d="M203.047 104.474C200.783 104.19 198.52 104.001 196.257 104.001C167.967 104.001 144.958 127.092 144.958 155.483C144.958 183.873 167.967 206.965 196.257 206.965C198.615 206.965 200.783 206.775 203.047 206.491C228.13 203.179 247.556 181.602 247.556 155.483C247.462 129.363 228.13 107.786 203.047 104.474Z" fill="#40D7FF"/>
<path d="M190.034 213.493C159.198 209.992 137.792 186.143 137.792 155.481C137.792 126.334 158.632 102.012 187.299 97.7537C194.466 96.5234 203.707 96.5234 206.819 96.5234C217.946 96.5234 231.62 100.214 240.484 105.703C257.081 116.018 268.208 134.472 268.208 155.481C268.208 187.658 241.898 213.966 209.459 213.966L190.034 213.493Z" fill="white"/>
<g filter="url(#filter2_d_123:10159)">
<path d="M197.201 98.5106C201.821 98.3214 206.725 98.7945 210.025 98.7945C241.144 98.7945 266.511 124.252 266.511 155.481C266.511 186.711 240.956 212.168 209.554 212.168L190.034 211.79C159.858 208.383 139.583 184.629 139.583 155.481C139.583 127.091 159.952 103.526 187.488 99.457C187.488 99.457 192.863 98.6999 197.201 98.5106ZM198.615 95.1038C191.071 95.3877 187.016 95.9555 186.828 95.9555C157.406 100.309 136 125.387 136 155.481C136 187.09 158.066 211.695 189.657 215.291L209.46 215.67C242.842 215.67 270 188.698 270 155.481C270 122.264 243.125 95.293 210.025 95.293C208.422 95.1984 203.236 94.8198 198.615 95.1038Z" fill="#1F093D"/>
</g>
<path d="M209.836 104C207.479 104 205.31 104.189 203.047 104.473C228.131 107.785 247.556 129.362 247.556 155.482C247.556 181.601 228.131 203.084 203.047 206.49C205.31 206.774 207.573 206.964 209.836 206.964C238.126 206.964 261.136 183.872 261.136 155.482C261.136 126.996 238.126 104 209.836 104Z" fill="#C8B6FF"/>
<path d="M203.047 104.474C200.783 104.19 198.52 104.001 196.257 104.001C167.967 104.001 144.958 127.092 144.958 155.483C144.958 183.873 167.967 206.965 196.257 206.965C198.615 206.965 200.783 206.775 203.047 206.491C228.13 203.179 247.556 181.602 247.556 155.483C247.462 129.363 228.13 107.786 203.047 104.474Z" fill="#C8B6FF"/>
<path d="M209.366 208.666C202.953 208.666 193.146 208.572 193.146 208.572V205.165C193.146 205.165 203.047 205.259 209.366 205.259C236.995 205.259 259.439 182.925 259.439 155.481C259.439 128.037 237.184 105.703 209.837 105.703H195.598C194.655 105.703 193.9 104.946 193.9 103.999C193.9 103.053 194.655 102.296 195.598 102.296H209.837C239.07 102.296 262.834 126.144 262.834 155.481C262.834 184.818 238.881 208.666 209.366 208.666Z" fill="#9164FF"/>
<path d="M196.257 208.667C167.024 208.667 143.261 184.819 143.261 155.482C143.261 126.145 167.024 102.202 196.257 102.202C225.49 102.202 249.254 126.05 249.254 155.387C249.254 184.724 225.396 208.667 196.257 208.667ZM196.257 105.704C168.91 105.704 146.656 128.038 146.656 155.482C146.656 182.926 168.91 205.26 196.257 205.26C223.604 205.26 245.859 182.926 245.859 155.482C245.765 128.038 223.51 105.704 196.257 105.704Z" fill="#9164FF"/>
<path d="M196.258 199.582C220.528 199.582 240.202 179.838 240.202 155.482C240.202 131.126 220.528 111.382 196.258 111.382C171.989 111.382 152.314 131.126 152.314 155.482C152.314 179.838 171.989 199.582 196.258 199.582Z" fill="#1F093D"/>
<path d="M196.258 194.283C174.852 194.283 157.595 176.87 157.595 155.482C157.595 134.095 174.946 116.682 196.258 116.682" fill="white"/>
<path d="M198.429 266.866C198.398 266.651 198.383 266.084 198.383 265.164C198.383 264.213 198.383 263.109 198.383 261.852C198.413 260.595 198.444 259.261 198.475 257.85C198.536 256.409 198.582 255.09 198.613 253.894C198.643 252.667 198.674 251.655 198.705 250.858C198.735 250.061 198.751 249.647 198.751 249.616H198.659C198.413 249.585 197.923 249.585 197.187 249.616C196.451 249.616 195.684 249.631 194.887 249.662C194.089 249.662 193.338 249.677 192.633 249.708C191.958 249.708 191.559 249.708 191.437 249.708C191.406 249.708 191.391 249.723 191.391 249.754C189.673 252.33 188.232 254.569 187.067 256.47C185.932 258.371 184.981 259.997 184.215 261.346C183.479 262.665 182.896 263.738 182.467 264.566C182.037 265.363 181.669 265.977 181.363 266.406C181.301 268.246 181.347 269.764 181.501 270.96C181.654 272.156 181.761 272.861 181.823 273.076C181.853 273.137 182.099 273.183 182.559 273.214C183.019 273.214 183.586 273.214 184.261 273.214C184.966 273.214 185.717 273.214 186.515 273.214C187.343 273.183 188.109 273.168 188.815 273.168C189.551 273.168 190.179 273.183 190.701 273.214C191.222 273.245 191.544 273.275 191.667 273.306C191.667 273.367 191.651 273.628 191.621 274.088C191.59 274.548 191.544 275.1 191.483 275.744C191.452 276.388 191.406 277.078 191.345 277.814C191.314 278.55 191.283 279.24 191.253 279.884C191.222 280.497 191.191 281.019 191.161 281.448C191.13 281.877 191.13 282.107 191.161 282.138C193.277 282.107 194.856 282.092 195.899 282.092C196.972 282.123 197.601 282.031 197.785 281.816C197.815 281.693 197.846 281.402 197.877 280.942C197.907 280.482 197.938 279.945 197.969 279.332C198.03 278.719 198.076 278.09 198.107 277.446C198.168 276.771 198.214 276.158 198.245 275.606C198.306 275.023 198.352 274.563 198.383 274.226C198.413 273.858 198.429 273.689 198.429 273.72C198.858 273.628 199.303 273.628 199.763 273.72C200.253 273.781 200.744 273.735 201.235 273.582L201.511 266.912C201.143 266.912 200.683 266.881 200.131 266.82C199.579 266.759 199.103 266.759 198.705 266.82L198.429 266.866ZM192.909 266.958C192.694 266.989 192.249 267.004 191.575 267.004C190.931 267.004 190.256 267.004 189.551 267.004C188.845 266.973 188.217 266.958 187.665 266.958C187.113 266.927 186.837 266.912 186.837 266.912C186.867 266.851 187.036 266.544 187.343 265.992C187.68 265.44 188.079 264.781 188.539 264.014C188.999 263.217 189.489 262.389 190.011 261.53C190.532 260.641 191.007 259.843 191.437 259.138C191.897 258.433 192.265 257.881 192.541 257.482C192.847 257.053 193.016 256.93 193.047 257.114L192.909 266.958Z" fill="white"/>
<defs>
<filter id="filter0_d_123:10159" x="0.93457" y="0" width="402.566" height="346" filterUnits="userSpaceOnUse" color-interpolation-filters="sRGB">
<feFlood flood-opacity="0" result="BackgroundImageFix"/>
<feColorMatrix in="SourceAlpha" type="matrix" values="0 0 0 0 0 0 0 0 0 0 0 0 0 0 0 0 0 0 127 0" result="hardAlpha"/>
<feOffset/>
<feGaussianBlur stdDeviation="17"/>
<feComposite in2="hardAlpha" operator="out"/>
<feColorMatrix type="matrix" values="0 0 0 0 1 0 0 0 0 1 0 0 0 0 1 0 0 0 1 0"/>
<feBlend mode="normal" in2="BackgroundImageFix" result="effect1_dropShadow_123:10159"/>
<feBlend mode="normal" in="SourceGraphic" in2="effect1_dropShadow_123:10159" result="shape"/>
</filter>
<filter id="filter1_d_123:10159" x="0.93457" y="0" width="402.566" height="340" filterUnits="userSpaceOnUse" color-interpolation-filters="sRGB">
<feFlood flood-opacity="0" result="BackgroundImageFix"/>
<feColorMatrix in="SourceAlpha" type="matrix" values="0 0 0 0 0 0 0 0 0 0 0 0 0 0 0 0 0 0 127 0" result="hardAlpha"/>
<feOffset/>
<feGaussianBlur stdDeviation="17"/>
<feComposite in2="hardAlpha" operator="out"/>
<feColorMatrix type="matrix" values="0 0 0 0 1 0 0 0 0 0 0 0 0 0 0.9 0 0 0 0.85 0"/>
<feBlend mode="normal" in2="BackgroundImageFix" result="effect1_dropShadow_123:10159"/>
<feBlend mode="normal" in="SourceGraphic" in2="effect1_dropShadow_123:10159" result="shape"/>
</filter>
<filter id="filter2_d_123:10159" x="130" y="89" width="146" height="132.67" filterUnits="userSpaceOnUse" color-interpolation-filters="sRGB">
<feFlood flood-opacity="0" result="BackgroundImageFix"/>
<feColorMatrix in="SourceAlpha" type="matrix" values="0 0 0 0 0 0 0 0 0 0 0 0 0 0 0 0 0 0 127 0" result="hardAlpha"/>
<feOffset/>
<feGaussianBlur stdDeviation="3"/>
<feComposite in2="hardAlpha" operator="out"/>
<feColorMatrix type="matrix" values="0 0 0 0 1 0 0 0 0 0 0 0 0 0 0.9 0 0 0 1 0"/>
<feBlend mode="normal" in2="BackgroundImageFix" result="effect1_dropShadow_123:10159"/>
<feBlend mode="normal" in="SourceGraphic" in2="effect1_dropShadow_123:10159" result="shape"/>
</filter>
<linearGradient id="paint0_linear_123:10159" x1="202.25" y1="37" x2="202.25" y2="303" gradientUnits="userSpaceOnUse">
<stop stop-color="#050EA3"/>
<stop offset="1" stop-color="#00033A"/>
</linearGradient>
<linearGradient id="paint1_linear_123:10159" x1="317.875" y1="307" x2="147.875" y2="37" gradientUnits="userSpaceOnUse">
<stop stop-color="white"/>
<stop offset="1" stop-color="white" stop-opacity="0"/>
</linearGradient>
</defs>
</svg>
