<svg width="402" height="340" viewBox="0 0 402 340" fill="none" xmlns="http://www.w3.org/2000/svg">
<g filter="url(#filter0_d_140:19593)">
<g filter="url(#filter1_d_140:19593)">
<path d="M71.8782 45.5584C72.5941 40.6443 76.8078 37 81.7738 37H354.498C360.617 37 365.301 42.4461 364.385 48.4961L327.162 294.496C326.422 299.386 322.219 303 317.274 303H45.9373C39.8407 303 35.1629 297.591 36.0418 291.558L71.8782 45.5584Z" fill="url(#paint0_linear_140:19593)"/>
<path d="M71.8782 45.5584C72.5941 40.6443 76.8078 37 81.7738 37H354.498C360.617 37 365.301 42.4461 364.385 48.4961L327.162 294.496C326.422 299.386 322.219 303 317.274 303H45.9373C39.8407 303 35.1629 297.591 36.0418 291.558L71.8782 45.5584Z" stroke="#FF00E5" stroke-width="6"/>
</g>
<path d="M72.5538 40.9208C72.8818 38.6695 74.8121 37 77.0872 37H354.498C360.617 37 365.301 42.4461 364.385 48.4961L326.514 298.775C326.147 301.204 324.059 303 321.602 303H299.22C159.572 303 52.4228 179.111 72.5538 40.9208V40.9208Z" fill="url(#paint1_linear_140:19593)" fill-opacity="0.1"/>
</g>
<path d="M194.108 221.927C188.385 221.927 138.17 221.285 138.17 199.156V186.666V186.185C137.02 184.184 136.414 181.949 136.406 179.678V167.389C136.495 166.501 136.742 165.632 137.138 164.819C135.943 162.804 135.321 160.536 135.33 158.233V147.55C135.269 146.533 135.269 145.514 135.33 144.498C135.664 142.221 136.782 140.107 138.515 138.474C138.473 137.925 138.473 137.375 138.515 136.827V124.498C138.47 123.829 138.47 123.158 138.515 122.49C138.814 120.618 139.597 118.843 140.797 117.317C141.996 115.792 143.576 114.562 145.399 113.735C148.749 111.788 152.389 110.313 156.2 109.357C159.505 108.372 162.885 107.62 166.311 107.108C176.264 105.54 186.339 104.747 196.432 104.739C205.513 104.58 214.582 105.416 223.454 107.229C229.8 108.628 235.92 110.802 241.656 113.695C243.877 114.75 245.741 116.36 247.04 118.345C248.339 120.33 249.022 122.613 249.014 124.94V136.506C248.992 139.631 247.874 142.664 245.83 145.14C245.871 145.554 245.871 145.971 245.83 146.385V157.952C245.83 159.172 245.657 160.388 245.313 161.566C246.576 163.443 247.247 165.615 247.25 167.831V179.397C247.313 179.998 247.313 180.604 247.25 181.205C248.409 183.057 249.018 185.164 249.014 187.309V198.875C249.014 215.903 219.324 221.927 194.108 221.927Z" fill="white"/>
<g filter="url(#filter2_d_140:19593)">
<path d="M196.389 106.747C205.296 106.609 214.19 107.431 222.895 109.197C229.001 110.544 234.889 112.637 240.408 115.422C242.287 116.31 243.86 117.674 244.948 119.357C246.036 121.04 246.595 122.974 246.561 124.94V136.506C246.494 139.455 245.339 142.292 243.291 144.538C243.355 145.126 243.355 145.718 243.291 146.305V157.871C243.293 159.239 243.046 160.597 242.559 161.888C243.941 163.602 244.695 165.686 244.711 167.831V179.398C244.708 180.154 244.621 180.907 244.453 181.647C245.698 183.307 246.373 185.282 246.389 187.309V198.875C246.389 213.414 219.969 219.92 193.807 219.92C173.885 219.92 140.15 215.542 140.15 199.157V186.867V186.426C140.15 186.185 140.15 185.984 140.15 185.823C138.952 183.968 138.313 181.845 138.3 179.679V167.39C138.253 166.459 138.46 165.534 138.902 164.699C137.583 162.767 136.881 160.524 136.88 158.233V147.55C136.88 147.55 136.88 145.663 136.88 144.699C137.33 142.54 138.506 140.57 140.236 139.076C140.063 138.338 139.976 137.583 139.978 136.827V124.498C139.932 123.95 139.932 123.399 139.978 122.851C140.23 121.245 140.91 119.724 141.955 118.426C143 117.128 144.376 116.095 145.959 115.422C149.162 113.601 152.645 112.247 156.286 111.406C159.471 110.421 162.738 109.682 166.053 109.197C175.88 107.664 185.824 106.885 195.787 106.867L196.389 106.747ZM195.787 102.851C185.594 102.88 175.421 103.673 165.365 105.221C161.837 105.774 158.357 106.565 154.952 107.59C151.17 108.627 147.564 110.155 144.238 112.129C142.154 113.111 140.351 114.541 138.974 116.3C137.598 118.059 136.688 120.098 136.32 122.249C136.248 123.037 136.248 123.83 136.32 124.618V136.948C136.299 137.282 136.299 137.617 136.32 137.952C134.622 139.723 133.502 141.911 133.093 144.257C133.004 145.38 133.004 146.508 133.093 147.631V158.153C133.094 160.513 133.652 162.844 134.728 164.98C134.648 165.822 134.648 166.668 134.728 167.51V179.558C134.721 181.911 135.295 184.233 136.406 186.345V199.036C136.406 217.349 167.602 223.815 194.367 223.815C221.131 223.815 251.251 217.269 251.251 198.755V187.309C251.243 185.038 250.638 182.804 249.487 180.803C249.487 180.321 249.487 179.879 249.487 179.398V167.831C249.491 165.541 248.869 163.288 247.68 161.285C247.936 160.19 248.066 159.073 248.067 157.952V145.703C250.053 142.991 251.131 139.79 251.165 136.506V124.94C251.112 122.296 250.302 119.714 248.819 117.462C247.336 115.209 245.234 113.368 242.732 112.129C236.809 109.097 230.488 106.802 223.928 105.301C214.89 103.428 205.645 102.565 196.389 102.731L195.787 102.851Z" fill="#1F093D"/>
</g>
<path d="M238.084 186.586H149.057C148.486 186.586 147.939 186.798 147.536 187.174C147.132 187.551 146.905 188.062 146.905 188.594V199.156C146.905 208.393 172.422 213.895 195.615 213.895C218.807 213.895 240.408 208.072 240.408 198.875V188.434C240.353 187.904 240.08 187.416 239.647 187.071C239.213 186.726 238.653 186.552 238.084 186.586V186.586Z" fill="#FFB700"/>
<path d="M163.902 197.871H161.407V209.959H163.902V197.871Z" fill="#C47F0B"/>
<path d="M194.109 215.903C174.272 215.903 144.754 211.445 144.754 199.156V187.509C144.754 185.461 146.432 182.489 149.057 182.489L238.085 184.015C239.226 184.015 240.32 184.438 241.127 185.192C241.934 185.945 242.388 186.966 242.388 188.031V198.875C242.388 210.039 218.076 215.903 194.109 215.903ZM149.444 186.505C149.228 186.805 149.095 187.15 149.057 187.509V199.156C149.057 205.943 170.098 211.887 194.109 211.887C218.119 211.887 238.085 205.943 238.085 198.875V188.031L149.444 186.505Z" fill="#C47F0B"/>
<path d="M193.549 199.638C218.121 199.638 238.041 194.244 238.041 187.59C238.041 180.936 218.121 175.542 193.549 175.542C168.977 175.542 149.057 180.936 149.057 187.59C149.057 194.244 168.977 199.638 193.549 199.638Z" fill="#FFCF00"/>
<path d="M193.549 199.638C218.121 199.638 238.041 194.244 238.041 187.59C238.041 180.936 218.121 175.542 193.549 175.542C168.977 175.542 149.057 180.936 149.057 187.59C149.057 194.244 168.977 199.638 193.549 199.638Z" fill="url(#paint2_linear_140:19593)"/>
<path d="M193.936 194.819C171.174 194.819 160.933 190.803 157.017 188.634C154.737 187.309 155.683 186.425 156.458 185.903C160.072 183.333 170.829 179.558 193.549 179.558C216.268 179.558 229.048 184.096 232.275 186.746C232.878 187.228 232.275 187.911 230.425 189.317C227.026 191.726 217 194.819 193.936 194.819Z" fill="#FBBB00"/>
<path d="M232.362 186.747C229.048 184.097 216.699 179.558 193.635 179.558C188.476 179.541 183.319 179.783 178.188 180.281C181.243 180.281 184.513 180 188.171 180C211.32 180 225.563 184.016 228.876 186.747C229.479 187.229 229.823 187.832 227.8 189.237C220.887 192.378 213.363 194.181 205.683 194.538C220.615 193.695 227.757 191.285 230.597 189.318C232.534 187.912 232.964 187.229 232.362 186.747Z" fill="#C47F0B"/>
<path d="M166.656 184.177C176.669 183.325 186.734 183.137 196.776 183.615C204.564 183.896 213.213 184.94 223.454 185.904C214.386 182.871 204.817 181.348 195.184 181.406C185.574 180.77 175.919 181.708 166.656 184.177V184.177Z" fill="#FFCF00"/>
<path d="M195.357 202.25C171.002 202.25 144.754 196.547 144.754 187.31C144.754 178.073 169.281 172.973 193.549 172.973C217.818 172.973 242.388 177.912 242.388 187.31C242.388 196.708 218.162 202.25 195.357 202.25ZM193.549 176.989C166.398 176.989 149.057 183.093 149.057 187.31C149.057 191.527 168.506 198.234 195.357 198.234C222.207 198.234 238.085 191.888 238.085 187.31C238.085 182.732 220.744 176.989 193.549 176.989V176.989Z" fill="#C47F0B"/>
<path d="M173.11 198.955H170.614V211.566H173.11V198.955Z" fill="#C47F0B"/>
<path d="M228.962 195.702H226.466V207.871H228.962V195.702Z" fill="#C47F0B"/>
<path d="M219.538 199.277H217.043V210.322H219.538V199.277Z" fill="#C47F0B"/>
<path d="M208.007 200.241H205.512V213.052H208.007V200.241Z" fill="#C47F0B"/>
<path d="M185.589 200.522H183.093V213.655H185.589V200.522Z" fill="#C47F0B"/>
<path d="M197.336 200.643H194.841V213.454H197.336V200.643Z" fill="#C47F0B"/>
<path d="M155.555 194.778H153.059V206.867H155.555V194.778Z" fill="#C47F0B"/>
<path d="M181.587 192.45C181.587 192.45 206.2 194.096 212.31 192.45C212.31 192.45 195.098 187.911 181.587 192.45Z" fill="#FFCF00"/>
<path d="M236.406 167.108H147.378C146.808 167.108 146.261 167.32 145.857 167.697C145.454 168.073 145.227 168.584 145.227 169.116V179.679C145.227 188.916 170.786 194.418 193.979 194.418C217.172 194.418 238.557 188.434 238.557 179.398V169.116C238.546 168.587 238.316 168.082 237.915 167.708C237.514 167.334 236.973 167.119 236.406 167.108V167.108Z" fill="#FFB700"/>
<path d="M162.224 178.394H159.728V190.482H162.224V178.394Z" fill="#C47F0B"/>
<path d="M192.43 196.465C172.594 196.465 143.076 192.008 143.076 179.718V168.072C143.076 166.024 144.754 163.052 147.379 163.052L236.406 164.578C237.547 164.578 238.642 165.001 239.449 165.754C240.256 166.507 240.709 167.529 240.709 168.594V179.437C240.709 190.562 216.398 196.465 192.43 196.465ZM147.766 167.028C147.568 167.336 147.437 167.677 147.379 168.032V179.678C147.379 186.465 168.42 192.409 192.43 192.409C216.441 192.409 236.406 186.465 236.406 179.397V168.554L147.766 167.028Z" fill="#C47F0B"/>
<path d="M191.87 180.161C216.443 180.161 236.363 174.767 236.363 168.113C236.363 161.459 216.443 156.064 191.87 156.064C167.298 156.064 147.378 161.459 147.378 168.113C147.378 174.767 167.298 180.161 191.87 180.161Z" fill="#FFCF00"/>
<path d="M191.87 180.161C216.443 180.161 236.363 174.767 236.363 168.113C236.363 161.459 216.443 156.064 191.87 156.064C167.298 156.064 147.378 161.459 147.378 168.113C147.378 174.767 167.298 180.161 191.87 180.161Z" fill="url(#paint3_linear_140:19593)"/>
<path d="M192.259 175.342C169.496 175.342 159.255 171.326 155.339 169.157C153.059 167.832 154.049 166.949 154.823 166.426C158.395 163.856 169.152 160.081 191.871 160.081C214.591 160.081 227.37 164.619 230.598 167.27C231.2 167.752 230.598 168.434 228.747 169.84C225.348 172.37 215.322 175.342 192.259 175.342Z" fill="#FBBB00"/>
<path d="M165.021 164.698C174.953 163.922 184.932 163.801 194.883 164.337C202.671 164.618 211.32 165.662 221.561 166.626C212.493 163.593 202.924 162.07 193.291 162.128C183.779 161.449 174.213 162.318 165.021 164.698V164.698Z" fill="#FFCF00"/>
<path d="M193.678 182.771C169.367 182.771 143.076 177.068 143.076 167.831C143.076 158.595 167.645 153.494 191.871 153.494C216.096 153.494 240.709 158.434 240.709 167.831C240.709 177.229 216.484 182.771 193.678 182.771ZM191.871 157.51C164.719 157.51 147.379 163.615 147.379 167.831C147.379 172.048 166.828 178.755 193.678 178.755C220.528 178.755 236.406 172.41 236.406 167.831C236.406 163.253 218.893 157.51 191.871 157.51Z" fill="#C47F0B"/>
<path d="M171.432 179.478H168.937V192.088H171.432V179.478Z" fill="#C47F0B"/>
<path d="M227.285 176.226H224.789V188.394H227.285V176.226Z" fill="#C47F0B"/>
<path d="M217.904 179.799H215.408V190.843H217.904V179.799Z" fill="#C47F0B"/>
<path d="M206.329 180.764H203.833V193.575H206.329V180.764Z" fill="#C47F0B"/>
<path d="M183.911 181.044H181.415V194.217H183.911V181.044Z" fill="#C47F0B"/>
<path d="M195.658 181.165H193.162V193.976H195.658V181.165Z" fill="#C47F0B"/>
<path d="M153.876 175.302H151.38V187.39H153.876V175.302Z" fill="#C47F0B"/>
<path d="M179.909 172.771C179.909 172.771 204.522 174.418 210.632 172.771C210.632 172.771 193.42 168.353 179.909 172.771Z" fill="#FFCF00"/>
<path d="M234.986 145.662H145.958C145.391 145.672 144.85 145.887 144.449 146.262C144.048 146.636 143.818 147.141 143.807 147.67V158.232C143.807 167.469 169.366 172.971 192.559 172.971C215.752 172.971 237.137 167.148 237.137 157.951V147.67C237.137 147.406 237.082 147.145 236.973 146.902C236.865 146.658 236.707 146.437 236.507 146.25C236.307 146.064 236.07 145.916 235.809 145.815C235.548 145.714 235.268 145.662 234.986 145.662Z" fill="#FFB700"/>
<path d="M160.804 156.908H158.308V168.997H160.804V156.908Z" fill="#C47F0B"/>
<path d="M191.01 174.979C171.174 174.979 141.655 170.521 141.655 158.232V146.586C141.655 144.537 143.334 141.565 145.958 141.565L235.029 143.092C236.17 143.092 237.265 143.515 238.072 144.268C238.879 145.021 239.332 146.042 239.332 147.108V157.951C239.289 169.116 215.02 174.979 191.01 174.979ZM146.346 145.581C146.148 145.89 146.017 146.231 145.958 146.586V158.232C145.958 165.019 167.043 170.963 191.01 170.963C214.977 170.963 234.986 165.019 234.986 157.951V147.108L146.346 145.581Z" fill="#C47F0B"/>
<path d="M190.494 158.715C215.067 158.715 234.987 153.32 234.987 146.666C234.987 140.012 215.067 134.618 190.494 134.618C165.922 134.618 146.002 140.012 146.002 146.666C146.002 153.32 165.922 158.715 190.494 158.715Z" fill="#FFCF00"/>
<path d="M190.494 158.715C215.067 158.715 234.987 153.32 234.987 146.666C234.987 140.012 215.067 134.618 190.494 134.618C165.922 134.618 146.002 140.012 146.002 146.666C146.002 153.32 165.922 158.715 190.494 158.715Z" fill="url(#paint4_linear_140:19593)"/>
<path d="M190.881 153.895C168.076 153.895 157.835 149.879 153.962 147.71C151.639 146.385 152.628 145.501 153.403 144.979C157.017 142.409 167.775 138.634 190.494 138.634C213.214 138.634 225.95 143.132 229.22 145.823C229.823 146.304 229.22 146.987 227.37 148.393C223.971 150.802 213.945 153.895 190.881 153.895Z" fill="#FBBB00"/>
<path d="M229.264 145.823C225.95 143.132 213.644 138.634 190.537 138.634C184.556 138.634 179.479 138.915 175.047 139.317C178.102 139.317 181.415 139.076 185.073 139.076C208.222 139.076 222.422 143.092 225.735 145.823C226.338 146.304 226.725 146.907 224.703 148.312C217.775 151.458 210.237 153.261 202.543 153.614C217.517 152.77 224.66 150.361 227.456 148.393C229.436 146.987 229.866 146.304 229.264 145.823Z" fill="#C47F0B"/>
<path d="M163.6 143.252C173.614 142.4 183.679 142.212 193.721 142.69C201.509 142.971 210.158 144.015 220.399 144.979C211.315 141.95 201.732 140.428 192.086 140.481C182.49 139.823 172.845 140.761 163.6 143.252V143.252Z" fill="#FFCF00"/>
<path d="M192.301 161.326C167.946 161.326 141.655 155.624 141.655 146.387C141.655 137.15 166.225 132.21 190.494 132.21C214.762 132.21 239.289 137.11 239.289 146.547C239.289 155.985 215.063 161.326 192.301 161.326ZM190.494 136.226C163.299 136.226 145.958 142.33 145.958 146.547C145.958 150.764 165.408 157.471 192.301 157.471C219.194 157.471 234.986 151.126 234.986 146.547C234.986 141.969 217.645 136.226 190.494 136.226Z" fill="#C47F0B"/>
<path d="M170.055 158.032H167.559V170.643H170.055V158.032Z" fill="#C47F0B"/>
<path d="M225.907 154.779H223.411V166.948H225.907V154.779Z" fill="#C47F0B"/>
<path d="M216.483 158.354H213.988V169.398H216.483V158.354Z" fill="#C47F0B"/>
<path d="M204.908 159.318H202.413V172.13H204.908V159.318Z" fill="#C47F0B"/>
<path d="M182.491 159.599H179.995V172.771H182.491V159.599Z" fill="#C47F0B"/>
<path d="M194.238 159.719H191.742V172.53H194.238V159.719Z" fill="#C47F0B"/>
<path d="M152.498 153.855H150.003V165.944H152.498V153.855Z" fill="#C47F0B"/>
<path d="M178.489 151.325C178.489 151.325 203.101 152.972 209.211 151.325C209.211 151.325 192 146.988 178.489 151.325Z" fill="#FFCF00"/>
<path d="M238.084 124.177H149.057C148.486 124.177 147.939 124.388 147.536 124.765C147.132 125.141 146.905 125.652 146.905 126.185V136.747C146.905 145.944 172.422 151.486 195.615 151.486C218.807 151.486 240.408 145.743 240.408 136.506V126.265C240.421 125.98 240.369 125.697 240.256 125.432C240.143 125.168 239.971 124.929 239.751 124.732C239.531 124.534 239.269 124.382 238.982 124.287C238.694 124.191 238.389 124.153 238.084 124.177V124.177Z" fill="#FFB700"/>
<path d="M163.902 135.502H161.407V147.59H163.902V135.502Z" fill="#C47F0B"/>
<path d="M194.109 153.574C174.272 153.574 144.754 149.116 144.754 136.827V125.14C144.754 123.092 146.432 120.12 149.057 120.12L238.085 121.686C239.226 121.686 240.32 122.11 241.127 122.863C241.934 123.616 242.388 124.637 242.388 125.702V136.506C242.388 147.71 218.076 153.574 194.109 153.574ZM149.444 124.176C149.224 124.459 149.09 124.792 149.057 125.14V136.827C149.057 143.574 170.098 149.558 194.109 149.558C218.119 149.558 238.085 143.574 238.085 136.506V125.702L149.444 124.176Z" fill="#C47F0B"/>
<path d="M193.549 137.308C218.121 137.308 238.041 131.914 238.041 125.26C238.041 118.606 218.121 113.212 193.549 113.212C168.977 113.212 149.057 118.606 149.057 125.26C149.057 131.914 168.977 137.308 193.549 137.308Z" fill="#FFCF00"/>
<path d="M193.549 137.308C218.121 137.308 238.041 131.914 238.041 125.26C238.041 118.606 218.121 113.212 193.549 113.212C168.977 113.212 149.057 118.606 149.057 125.26C149.057 131.914 168.977 137.308 193.549 137.308Z" fill="url(#paint5_linear_140:19593)"/>
<path d="M193.936 132.49C171.174 132.49 160.933 128.473 157.017 126.265C154.737 124.939 155.683 124.096 156.458 123.534C160.072 121.004 170.829 117.229 193.549 117.229C216.268 117.229 229.048 121.727 232.275 124.377C232.878 124.859 232.275 125.542 230.425 126.947C227.026 129.357 217 132.49 193.936 132.49Z" fill="#FBBB00"/>
<path d="M232.362 124.378C229.048 121.727 216.699 117.229 193.635 117.229C188.477 117.2 183.32 117.428 178.188 117.912C181.243 117.912 184.513 117.631 188.171 117.631C211.32 117.631 225.563 121.647 228.876 124.378C229.479 124.859 229.823 125.502 227.8 126.908C220.858 130.053 213.306 131.856 205.597 132.209C220.529 131.365 227.671 128.956 230.511 126.988C232.534 125.542 232.964 124.859 232.362 124.378Z" fill="#C47F0B"/>
<path d="M166.656 121.808C176.669 120.955 186.734 120.768 196.776 121.246C204.564 121.567 213.213 122.611 223.454 123.575C214.393 120.513 204.821 118.977 195.184 119.037C185.574 118.401 175.919 119.339 166.656 121.808V121.808Z" fill="#FFCF00"/>
<path d="M195.357 139.92C171.002 139.92 144.754 134.177 144.754 124.94C144.754 115.703 169.281 110.603 193.549 110.603C217.818 110.603 242.388 115.542 242.388 124.94C242.388 134.337 218.162 139.92 195.357 139.92ZM193.549 114.619C166.398 114.619 149.057 120.763 149.057 124.94C149.057 129.117 168.506 135.904 195.357 135.904C222.207 135.904 238.085 129.518 238.085 124.94C238.085 120.362 220.744 114.619 193.549 114.619V114.619Z" fill="#C47F0B"/>
<path d="M173.11 136.626H170.614V149.236H173.11V136.626Z" fill="#C47F0B"/>
<path d="M228.962 133.333H226.466V145.502H228.962V133.333Z" fill="#C47F0B"/>
<path d="M219.538 136.947H217.043V147.991H219.538V136.947Z" fill="#C47F0B"/>
<path d="M208.007 137.871H205.512V150.682H208.007V137.871Z" fill="#C47F0B"/>
<path d="M185.589 138.153H183.093V151.326H185.589V138.153Z" fill="#C47F0B"/>
<path d="M197.336 138.273H194.841V151.085H197.336V138.273Z" fill="#C47F0B"/>
<path d="M155.555 132.41H153.059V144.499H155.555V132.41Z" fill="#C47F0B"/>
<path d="M181.587 129.92C181.587 129.92 206.2 131.526 212.31 129.92C212.31 129.92 195.098 125.583 181.587 129.92Z" fill="#FFCF00"/>
<defs>
<filter id="filter0_d_140:19593" x="-1.06519" y="0" width="402.566" height="346" filterUnits="userSpaceOnUse" color-interpolation-filters="sRGB">
<feFlood flood-opacity="0" result="BackgroundImageFix"/>
<feColorMatrix in="SourceAlpha" type="matrix" values="0 0 0 0 0 0 0 0 0 0 0 0 0 0 0 0 0 0 127 0" result="hardAlpha"/>
<feOffset/>
<feGaussianBlur stdDeviation="17"/>
<feComposite in2="hardAlpha" operator="out"/>
<feColorMatrix type="matrix" values="0 0 0 0 1 0 0 0 0 1 0 0 0 0 1 0 0 0 1 0"/>
<feBlend mode="normal" in2="BackgroundImageFix" result="effect1_dropShadow_140:19593"/>
<feBlend mode="normal" in="SourceGraphic" in2="effect1_dropShadow_140:19593" result="shape"/>
</filter>
<filter id="filter1_d_140:19593" x="-1.06519" y="0" width="402.566" height="340" filterUnits="userSpaceOnUse" color-interpolation-filters="sRGB">
<feFlood flood-opacity="0" result="BackgroundImageFix"/>
<feColorMatrix in="SourceAlpha" type="matrix" values="0 0 0 0 0 0 0 0 0 0 0 0 0 0 0 0 0 0 127 0" result="hardAlpha"/>
<feOffset/>
<feGaussianBlur stdDeviation="17"/>
<feComposite in2="hardAlpha" operator="out"/>
<feColorMatrix type="matrix" values="0 0 0 0 1 0 0 0 0 0 0 0 0 0 0.9 0 0 0 0.85 0"/>
<feBlend mode="normal" in2="BackgroundImageFix" result="effect1_dropShadow_140:19593"/>
<feBlend mode="normal" in="SourceGraphic" in2="effect1_dropShadow_140:19593" result="shape"/>
</filter>
<filter id="filter2_d_140:19593" x="127.026" y="96.7109" width="130.225" height="133.104" filterUnits="userSpaceOnUse" color-interpolation-filters="sRGB">
<feFlood flood-opacity="0" result="BackgroundImageFix"/>
<feColorMatrix in="SourceAlpha" type="matrix" values="0 0 0 0 0 0 0 0 0 0 0 0 0 0 0 0 0 0 127 0" result="hardAlpha"/>
<feOffset/>
<feGaussianBlur stdDeviation="3"/>
<feComposite in2="hardAlpha" operator="out"/>
<feColorMatrix type="matrix" values="0 0 0 0 1 0 0 0 0 0 0 0 0 0 0.9 0 0 0 1 0"/>
<feBlend mode="normal" in2="BackgroundImageFix" result="effect1_dropShadow_140:19593"/>
<feBlend mode="normal" in="SourceGraphic" in2="effect1_dropShadow_140:19593" result="shape"/>
</filter>
<linearGradient id="paint0_linear_140:19593" x1="200.25" y1="37" x2="200.25" y2="303" gradientUnits="userSpaceOnUse">
<stop stop-color="#050EA3"/>
<stop offset="1" stop-color="#00033A"/>
</linearGradient>
<linearGradient id="paint1_linear_140:19593" x1="315.875" y1="307" x2="145.875" y2="37" gradientUnits="userSpaceOnUse">
<stop stop-color="white"/>
<stop offset="1" stop-color="white" stop-opacity="0"/>
</linearGradient>
<linearGradient id="paint2_linear_140:19593" x1="214.16" y1="162.811" x2="151.374" y2="249.58" gradientUnits="userSpaceOnUse">
<stop stop-color="#FBBB00" stop-opacity="0.4"/>
<stop offset="1" stop-color="#C47F0B"/>
</linearGradient>
<linearGradient id="paint3_linear_140:19593" x1="2417.37" y1="536.065" x2="2257.87" y2="1295.79" gradientUnits="userSpaceOnUse">
<stop stop-color="#FBBB00" stop-opacity="0.4"/>
<stop offset="1" stop-color="#C47F0B"/>
</linearGradient>
<linearGradient id="paint4_linear_140:19593" x1="2387.52" y1="385.703" x2="2228.07" y2="1145.55" gradientUnits="userSpaceOnUse">
<stop stop-color="#FBBB00" stop-opacity="0.4"/>
<stop offset="1" stop-color="#C47F0B"/>
</linearGradient>
<linearGradient id="paint5_linear_140:19593" x1="2453.76" y1="235.863" x2="2294.26" y2="995.585" gradientUnits="userSpaceOnUse">
<stop stop-color="#FBBB00" stop-opacity="0.4"/>
<stop offset="1" stop-color="#C47F0B"/>
</linearGradient>
</defs>
</svg>
