<svg width="404" height="512" viewBox="0 0 404 512" fill="none" xmlns="http://www.w3.org/2000/svg">
<g filter="url(#filter0_d_140:21323)">
<g filter="url(#filter1_d_140:21323)">
<path d="M73.8782 45.5584C74.5941 40.6443 78.8078 37 83.7738 37H356.498C362.617 37 367.301 42.4461 366.385 48.4961L329.162 294.496C328.422 299.386 324.219 303 319.274 303H47.9373C41.8407 303 37.1629 297.591 38.0418 291.558L73.8782 45.5584Z" fill="url(#paint0_linear_140:21323)"/>
<path d="M73.8782 45.5584C74.5941 40.6443 78.8078 37 83.7738 37H356.498C362.617 37 367.301 42.4461 366.385 48.4961L329.162 294.496C328.422 299.386 324.219 303 319.274 303H47.9373C41.8407 303 37.1629 297.591 38.0418 291.558L73.8782 45.5584Z" stroke="#FF00E5" stroke-width="6"/>
</g>
<path d="M74.5538 40.9208C74.8818 38.6695 76.8121 37 79.0872 37H356.498C362.617 37 367.301 42.4461 366.385 48.4961L328.514 298.775C328.147 301.204 326.059 303 323.602 303H301.22C161.572 303 54.4228 179.111 74.5538 40.9208Z" fill="url(#paint1_linear_140:21323)" fill-opacity="0.1"/>
</g>
<g filter="url(#filter2_d_140:21323)">
<path d="M85.5368 388.385C88.1294 374.119 100.554 363.749 115.053 363.749H290.485C296.724 363.749 301.439 369.399 300.324 375.537L290.929 427.231C288.337 441.497 275.912 451.867 261.413 451.867H85.9811C79.7424 451.867 75.0268 446.217 76.1423 440.078L85.5368 388.385Z" fill="#FEDD87"/>
<path d="M86.5207 388.564C89.0269 374.773 101.037 364.749 115.053 364.749H290.485C296.1 364.749 300.344 369.834 299.34 375.358L289.945 427.052C287.439 440.842 275.429 450.867 261.413 450.867H85.9811C80.3663 450.867 76.1222 445.782 77.1262 440.257L86.5207 388.564Z" stroke="white" stroke-width="2"/>
</g>
<path d="M86.0707 383.636C88.6633 369.37 101.088 359 115.587 359H291.019C297.258 359 301.973 364.65 300.858 370.788L291.463 422.482C288.871 436.747 276.446 447.118 261.947 447.118H86.5151C80.2764 447.118 75.5607 441.468 76.6762 435.329L86.0707 383.636Z" fill="url(#paint2_linear_140:21323)"/>
<path d="M87.5203 381.815C89.1511 368.781 100.232 359 113.368 359H292.015L284.229 365.632H102.831L87.5203 381.815Z" fill="#FF8A00" fill-opacity="0.2"/>
<path d="M81.7402 409.918L83.8754 440.785L270.171 434.19L277.111 440.785L293.926 404.905L290.979 422.166C288.518 436.578 276.027 447.117 261.407 447.117H86.6571C80.3713 447.117 75.6441 441.386 76.8396 435.215L81.7402 409.918Z" fill="white" fill-opacity="0.26"/>
<path d="M87.0546 383.815C89.5608 370.024 101.571 360 115.587 360H291.019C296.634 360 300.878 365.085 299.874 370.609L290.479 422.303C287.973 436.093 275.963 446.118 261.947 446.118H86.5151C80.9002 446.118 76.6562 441.033 77.6601 435.508L87.0546 383.815Z" stroke="white" stroke-width="2"/>
<path d="M139.447 405.85C138.579 405.23 137.587 404.569 136.471 403.866C135.397 403.163 134.363 402.419 133.371 401.634C132.421 400.807 131.615 399.981 130.953 399.154C130.292 398.286 129.961 397.397 129.961 396.488C129.961 395.744 130.271 395.103 130.891 394.566C131.553 393.987 132.214 393.698 132.875 393.698C133.867 393.698 134.446 393.967 134.611 394.504C134.818 395 134.963 395.579 135.045 396.24C135.128 396.86 135.335 397.439 135.665 397.976C136.037 398.472 136.885 398.72 138.207 398.72C138.827 398.72 139.406 398.699 139.943 398.658C140.481 398.617 141.059 398.596 141.679 398.596H142.671C143.333 398.596 143.849 398.493 144.221 398.286C144.593 398.038 144.779 397.604 144.779 396.984C144.779 395.868 144.738 394.876 144.655 394.008C144.614 393.099 144.366 392.169 143.911 391.218C143.663 390.722 143.333 390.205 142.919 389.668C142.547 389.089 142.072 388.552 141.493 388.056C140.956 387.56 140.357 387.126 139.695 386.754C139.034 386.382 138.311 386.155 137.525 386.072C136.988 386.031 136.719 385.741 136.719 385.204V380.12C136.595 379.872 136.223 379.686 135.603 379.562C135.025 379.438 134.405 379.376 133.743 379.376C133.082 379.335 132.503 379.314 132.007 379.314C131.511 379.314 131.305 379.314 131.387 379.314C131.015 379.314 130.623 379.314 130.209 379.314C129.796 379.273 129.403 379.293 129.031 379.376C128.659 379.417 128.349 379.521 128.101 379.686C127.895 379.81 127.791 380.017 127.791 380.306C127.791 380.389 127.812 380.657 127.853 381.112C127.895 381.567 127.915 382.063 127.915 382.6C127.957 383.137 127.998 383.633 128.039 384.088C128.081 384.543 128.101 384.811 128.101 384.894C128.101 385.101 128.122 385.287 128.163 385.452C128.205 385.576 128.122 385.679 127.915 385.762C126.965 386.051 125.973 386.485 124.939 387.064C123.906 387.643 123.038 388.283 122.335 388.986C121.55 389.771 120.971 390.639 120.599 391.59C120.269 392.541 120.103 393.533 120.103 394.566C120.103 396.054 120.413 397.542 121.033 399.03C121.695 400.518 122.501 401.799 123.451 402.874C124.361 403.866 125.456 404.837 126.737 405.788C128.019 406.739 129.238 407.731 130.395 408.764C131.594 409.797 132.607 410.872 133.433 411.988C134.26 413.104 134.673 414.323 134.673 415.646C134.673 416.307 134.363 416.845 133.743 417.258C133.123 417.671 132.483 417.878 131.821 417.878C130.747 417.878 130.044 417.589 129.713 417.01C129.383 416.431 129.217 415.811 129.217 415.15C129.217 414.819 129.197 414.509 129.155 414.22C129.155 413.889 129.155 413.559 129.155 413.228C129.155 412.608 129.011 412.153 128.721 411.864C128.473 411.575 128.143 411.389 127.729 411.306C127.357 411.223 126.903 411.203 126.365 411.244C125.869 411.244 125.373 411.223 124.877 411.182C124.505 411.141 124.113 411.099 123.699 411.058C123.327 411.017 122.914 410.996 122.459 410.996C121.757 410.996 121.199 411.058 120.785 411.182C120.413 411.265 120.124 411.43 119.917 411.678C119.752 411.885 119.649 412.195 119.607 412.608C119.607 413.021 119.607 413.538 119.607 414.158C119.607 415.522 119.669 416.783 119.793 417.94C119.917 419.097 120.186 420.151 120.599 421.102C121.054 422.011 121.715 422.817 122.583 423.52C123.493 424.223 124.691 424.822 126.179 425.318C126.882 425.525 127.357 425.835 127.605 426.248C127.853 426.661 127.998 427.116 128.039 427.612C128.122 428.108 128.122 428.604 128.039 429.1C127.998 429.637 127.998 430.113 128.039 430.526C128.122 430.981 128.308 431.332 128.597 431.58C128.928 431.869 129.465 432.014 130.209 432.014H131.945C132.4 432.014 132.834 431.993 133.247 431.952C133.702 431.952 134.136 431.952 134.549 431.952C135.417 431.952 136.017 431.787 136.347 431.456C136.719 431.167 136.905 430.774 136.905 430.278V430.03C136.905 429.906 136.905 429.617 136.905 429.162C136.905 428.749 136.905 428.294 136.905 427.798C136.905 427.343 136.905 426.889 136.905 426.434C136.947 426.021 136.967 425.752 136.967 425.628C137.05 425.628 137.277 425.525 137.649 425.318C138.021 425.111 138.414 424.884 138.827 424.636C139.282 424.347 139.695 424.078 140.067 423.83C140.481 423.582 140.749 423.396 140.873 423.272C142.196 422.197 143.126 421.061 143.663 419.862C144.242 418.663 144.531 417.403 144.531 416.08C144.531 415.212 144.407 414.303 144.159 413.352C143.953 412.401 143.622 411.471 143.167 410.562C142.754 409.611 142.237 408.743 141.617 407.958C140.997 407.131 140.274 406.429 139.447 405.85ZM169.847 405.602C169.805 405.313 169.785 404.548 169.785 403.308C169.785 402.027 169.785 400.539 169.785 398.844C169.826 397.149 169.867 395.351 169.909 393.45C169.991 391.507 170.053 389.73 170.095 388.118C170.136 386.465 170.177 385.101 170.219 384.026C170.26 382.951 170.281 382.393 170.281 382.352H170.157C169.826 382.311 169.165 382.311 168.173 382.352C167.181 382.352 166.147 382.373 165.073 382.414C163.998 382.414 162.985 382.435 162.035 382.476C161.125 382.476 160.588 382.476 160.423 382.476C160.381 382.476 160.361 382.497 160.361 382.538C158.046 386.01 156.103 389.027 154.533 391.59C153.003 394.153 151.722 396.343 150.689 398.162C149.697 399.939 148.911 401.386 148.333 402.502C147.754 403.577 147.258 404.403 146.845 404.982C146.762 407.462 146.824 409.508 147.031 411.12C147.237 412.732 147.382 413.683 147.465 413.972C147.506 414.055 147.837 414.117 148.457 414.158C149.077 414.158 149.841 414.158 150.751 414.158C151.701 414.158 152.714 414.158 153.789 414.158C154.905 414.117 155.938 414.096 156.889 414.096C157.881 414.096 158.728 414.117 159.431 414.158C160.133 414.199 160.567 414.241 160.733 414.282C160.733 414.365 160.712 414.716 160.671 415.336C160.629 415.956 160.567 416.7 160.485 417.568C160.443 418.436 160.381 419.366 160.299 420.358C160.257 421.35 160.216 422.28 160.175 423.148C160.133 423.975 160.092 424.677 160.051 425.256C160.009 425.835 160.009 426.145 160.051 426.186C162.903 426.145 165.031 426.124 166.437 426.124C167.883 426.165 168.731 426.041 168.979 425.752C169.02 425.587 169.061 425.194 169.103 424.574C169.144 423.954 169.185 423.231 169.227 422.404C169.309 421.577 169.371 420.73 169.413 419.862C169.495 418.953 169.557 418.126 169.599 417.382C169.681 416.597 169.743 415.977 169.785 415.522C169.826 415.026 169.847 414.799 169.847 414.84C170.425 414.716 171.025 414.716 171.645 414.84C172.306 414.923 172.967 414.861 173.629 414.654L174.001 405.664C173.505 405.664 172.885 405.623 172.141 405.54C171.397 405.457 170.756 405.457 170.219 405.54L169.847 405.602ZM162.407 405.726C162.117 405.767 161.518 405.788 160.609 405.788C159.741 405.788 158.831 405.788 157.881 405.788C156.93 405.747 156.083 405.726 155.339 405.726C154.595 405.685 154.223 405.664 154.223 405.664C154.264 405.581 154.491 405.168 154.905 404.424C155.359 403.68 155.897 402.791 156.517 401.758C157.137 400.683 157.798 399.567 158.501 398.41C159.203 397.211 159.844 396.137 160.423 395.186C161.043 394.235 161.539 393.491 161.911 392.954C162.324 392.375 162.551 392.21 162.593 392.458L162.407 405.726ZM183.737 426V425.938V425.876C183.737 425.587 183.757 425.049 183.799 424.264C183.84 423.479 183.881 422.673 183.923 421.846C183.964 421.019 184.005 420.296 184.047 419.676C184.088 419.015 184.109 418.663 184.109 418.622C183.819 418.498 183.323 418.415 182.621 418.374C181.959 418.291 181.236 418.25 180.451 418.25C179.665 418.25 178.88 418.291 178.095 418.374C177.351 418.457 176.772 418.581 176.358 418.746C176.358 419.035 176.338 419.49 176.297 420.11C176.297 420.73 176.276 421.391 176.235 422.094C176.235 422.797 176.235 423.499 176.235 424.202C176.276 424.905 176.338 425.483 176.421 425.938H176.607L183.613 426H183.737ZM215.447 396.798C215.405 394.69 215.281 392.644 215.075 390.66C214.868 388.676 214.289 386.961 213.339 385.514C212.719 384.563 211.975 383.861 211.107 383.406C210.239 382.91 209.288 382.579 208.255 382.414C207.263 382.207 206.209 382.104 205.093 382.104C204.018 382.104 202.964 382.083 201.931 382.042C199.657 382.125 197.467 382.538 195.359 383.282C193.251 384.026 191.515 385.204 190.151 386.816C189.861 387.147 189.613 387.498 189.407 387.87C189.2 388.201 188.993 388.552 188.787 388.924C188.415 389.833 188.146 390.887 187.981 392.086C187.815 393.285 187.753 394.525 187.795 395.806C187.877 397.046 188.063 398.265 188.353 399.464C188.683 400.663 189.138 401.696 189.717 402.564C190.502 403.763 191.453 404.796 192.569 405.664C193.726 406.491 194.966 407.131 196.289 407.586C197.653 408.041 199.058 408.268 200.505 408.268C201.993 408.227 203.419 407.917 204.783 407.338L204.845 407.4C204.886 408.185 204.886 409.012 204.845 409.88C204.803 410.748 204.659 411.554 204.411 412.298C204.204 413.042 203.853 413.662 203.357 414.158C202.902 414.654 202.303 414.943 201.559 415.026C200.608 415.109 199.761 414.861 199.017 414.282C198.314 413.662 197.859 412.939 197.653 412.112C196.123 411.905 194.47 411.864 192.693 411.988C190.957 412.112 189.365 412.195 187.919 412.236V412.546C187.505 415.729 188.001 418.374 189.407 420.482C190.109 421.515 191.039 422.425 192.197 423.21C193.395 423.995 194.697 424.636 196.103 425.132C197.549 425.628 199.058 425.959 200.629 426.124C202.199 426.331 203.708 426.331 205.155 426.124C206.643 425.917 208.027 425.525 209.309 424.946C210.59 424.326 211.665 423.499 212.533 422.466C213.401 421.267 214.083 419.965 214.579 418.56C215.075 417.113 215.426 415.625 215.633 414.096C215.798 412.732 215.839 411.389 215.757 410.066C215.674 408.702 215.612 407.338 215.571 405.974L215.447 396.798ZM206.023 396.116C205.94 396.323 205.899 396.467 205.899 396.55C205.899 396.591 205.857 396.715 205.775 396.922C205.692 397.087 205.63 397.211 205.589 397.294C205.589 397.335 205.527 397.459 205.403 397.666C205.072 398.162 204.597 398.534 203.977 398.782C203.398 399.03 202.778 399.133 202.117 399.092C201.497 399.051 200.877 398.865 200.257 398.534C199.678 398.203 199.244 397.728 198.955 397.108V397.046C198.831 396.715 198.727 396.364 198.645 395.992C198.603 395.579 198.562 395.165 198.521 394.752C198.521 394.132 198.707 393.636 199.079 393.264C199.451 392.892 199.905 392.603 200.443 392.396C201.063 392.107 201.724 391.983 202.427 392.024C203.129 392.024 203.749 392.169 204.287 392.458C204.865 392.747 205.32 393.14 205.651 393.636C205.981 394.132 206.126 394.69 206.085 395.31C206.085 395.641 206.064 395.909 206.023 396.116ZM247.234 396.798C247.192 394.69 247.068 392.644 246.862 390.66C246.655 388.676 246.076 386.961 245.126 385.514C244.506 384.563 243.762 383.861 242.894 383.406C242.026 382.91 241.075 382.579 240.042 382.414C239.05 382.207 237.996 382.104 236.88 382.104C235.805 382.104 234.751 382.083 233.718 382.042C231.444 382.125 229.254 382.538 227.146 383.282C225.038 384.026 223.302 385.204 221.938 386.816C221.648 387.147 221.4 387.498 221.194 387.87C220.987 388.201 220.78 388.552 220.574 388.924C220.202 389.833 219.933 390.887 219.768 392.086C219.602 393.285 219.54 394.525 219.582 395.806C219.664 397.046 219.85 398.265 220.14 399.464C220.47 400.663 220.925 401.696 221.504 402.564C222.289 403.763 223.24 404.796 224.356 405.664C225.513 406.491 226.753 407.131 228.076 407.586C229.44 408.041 230.845 408.268 232.292 408.268C233.78 408.227 235.206 407.917 236.57 407.338L236.632 407.4C236.673 408.185 236.673 409.012 236.632 409.88C236.59 410.748 236.446 411.554 236.198 412.298C235.991 413.042 235.64 413.662 235.144 414.158C234.689 414.654 234.09 414.943 233.346 415.026C232.395 415.109 231.548 414.861 230.804 414.282C230.101 413.662 229.646 412.939 229.44 412.112C227.91 411.905 226.257 411.864 224.48 411.988C222.744 412.112 221.152 412.195 219.706 412.236V412.546C219.292 415.729 219.788 418.374 221.194 420.482C221.896 421.515 222.826 422.425 223.984 423.21C225.182 423.995 226.484 424.636 227.89 425.132C229.336 425.628 230.845 425.959 232.416 426.124C233.986 426.331 235.495 426.331 236.942 426.124C238.43 425.917 239.814 425.525 241.096 424.946C242.377 424.326 243.452 423.499 244.32 422.466C245.188 421.267 245.87 419.965 246.366 418.56C246.862 417.113 247.213 415.625 247.42 414.096C247.585 412.732 247.626 411.389 247.544 410.066C247.461 408.702 247.399 407.338 247.358 405.974L247.234 396.798ZM237.81 396.116C237.727 396.323 237.686 396.467 237.686 396.55C237.686 396.591 237.644 396.715 237.562 396.922C237.479 397.087 237.417 397.211 237.376 397.294C237.376 397.335 237.314 397.459 237.19 397.666C236.859 398.162 236.384 398.534 235.764 398.782C235.185 399.03 234.565 399.133 233.904 399.092C233.284 399.051 232.664 398.865 232.044 398.534C231.465 398.203 231.031 397.728 230.742 397.108V397.046C230.618 396.715 230.514 396.364 230.432 395.992C230.39 395.579 230.349 395.165 230.308 394.752C230.308 394.132 230.494 393.636 230.866 393.264C231.238 392.892 231.692 392.603 232.23 392.396C232.85 392.107 233.511 391.983 234.214 392.024C234.916 392.024 235.536 392.169 236.074 392.458C236.652 392.747 237.107 393.14 237.438 393.636C237.768 394.132 237.913 394.69 237.872 395.31C237.872 395.641 237.851 395.909 237.81 396.116Z" fill="black"/>
<path d="M226.109 211.927C220.386 211.927 170.17 211.285 170.17 189.156V176.666V176.185C169.02 174.184 168.414 171.949 168.406 169.678V157.389C168.495 156.501 168.743 155.632 169.138 154.819C167.943 152.804 167.321 150.536 167.331 148.233V137.55C167.269 136.533 167.269 135.514 167.331 134.498C167.664 132.221 168.782 130.107 170.515 128.474C170.473 127.925 170.473 127.375 170.515 126.827V114.498C170.47 113.829 170.47 113.158 170.515 112.49C170.814 110.618 171.597 108.843 172.797 107.317C173.996 105.792 175.576 104.562 177.399 103.735C180.749 101.788 184.389 100.313 188.2 99.3572C191.505 98.3719 194.885 97.6202 198.312 97.1082C208.264 95.5399 218.339 94.7474 228.432 94.7387C237.513 94.58 246.582 95.4157 255.454 97.2287C261.8 98.6276 267.92 100.802 273.656 103.695C275.877 104.75 277.741 106.36 279.04 108.345C280.339 110.33 281.022 112.613 281.014 114.94V126.506C280.992 129.631 279.874 132.664 277.83 135.14C277.871 135.554 277.871 135.971 277.83 136.385V147.952C277.83 149.172 277.657 150.388 277.313 151.566C278.576 153.443 279.247 155.615 279.25 157.831V169.397C279.314 169.998 279.314 170.604 279.25 171.205C280.409 173.057 281.019 175.164 281.014 177.309V188.875C281.014 205.903 251.324 211.927 226.109 211.927Z" fill="white"/>
<g filter="url(#filter3_d_140:21323)">
<path d="M228.389 96.747C237.296 96.6085 246.19 97.4306 254.895 99.1968C261.001 100.544 266.889 102.637 272.408 105.422C274.287 106.31 275.86 107.674 276.948 109.357C278.036 111.04 278.595 112.974 278.561 114.94V126.506C278.494 129.455 277.339 132.292 275.291 134.538C275.355 135.126 275.355 135.718 275.291 136.305V147.871C275.293 149.239 275.046 150.597 274.559 151.888C275.941 153.602 276.695 155.686 276.711 157.831V169.398C276.708 170.154 276.621 170.907 276.453 171.647C277.698 173.307 278.373 175.282 278.389 177.309V188.875C278.389 203.414 251.969 209.92 225.807 209.92C205.885 209.92 172.15 205.542 172.15 189.157V176.867V176.426C172.15 176.185 172.15 175.984 172.15 175.823C170.952 173.968 170.313 171.845 170.3 169.679V157.39C170.253 156.459 170.46 155.534 170.902 154.699C169.583 152.767 168.881 150.524 168.88 148.233V137.55C168.88 137.55 168.88 135.663 168.88 134.699C169.331 132.54 170.506 130.57 172.236 129.076C172.063 128.338 171.976 127.583 171.978 126.827V114.498C171.932 113.95 171.932 113.399 171.978 112.851C172.231 111.245 172.91 109.724 173.955 108.426C175 107.128 176.376 106.095 177.959 105.422C181.163 103.601 184.645 102.247 188.286 101.406C191.471 100.421 194.738 99.6824 198.053 99.1968C207.88 97.6641 217.824 96.8851 227.787 96.8675L228.389 96.747ZM227.787 92.8514C217.595 92.8804 207.421 93.6727 197.365 95.2209C193.837 95.7735 190.357 96.5654 186.952 97.5904C183.17 98.6273 179.564 100.155 176.238 102.129C174.155 103.111 172.351 104.541 170.975 106.3C169.598 108.059 168.689 110.098 168.32 112.249C168.248 113.037 168.248 113.83 168.32 114.618V126.948C168.299 127.282 168.299 127.617 168.32 127.952C166.622 129.723 165.502 131.911 165.093 134.257C165.004 135.38 165.004 136.508 165.093 137.631V148.153C165.094 150.513 165.652 152.844 166.728 154.98C166.648 155.822 166.648 156.668 166.728 157.51V169.558C166.721 171.911 167.295 174.233 168.406 176.345V189.036C168.406 207.349 199.602 213.815 226.367 213.815C253.131 213.815 283.251 207.269 283.251 188.755V177.309C283.243 175.038 282.638 172.804 281.487 170.803C281.487 170.321 281.487 169.88 281.487 169.398V157.831C281.492 155.541 280.869 153.288 279.68 151.285C279.936 150.19 280.066 149.073 280.067 147.952V135.703C282.053 132.991 283.131 129.79 283.165 126.506V114.94C283.112 112.296 282.302 109.714 280.819 107.462C279.336 105.209 277.234 103.368 274.732 102.129C268.809 99.0972 262.488 96.802 255.928 95.3012C246.89 93.4283 237.645 92.5655 228.389 92.7309L227.787 92.8514Z" fill="#1F093D"/>
</g>
<path d="M270.085 176.586H181.057C180.486 176.586 179.939 176.798 179.536 177.174C179.132 177.551 178.906 178.062 178.906 178.594V189.156C178.906 198.393 204.422 203.895 227.615 203.895C250.807 203.895 272.408 198.072 272.408 188.875V178.434C272.353 177.904 272.08 177.416 271.647 177.071C271.213 176.726 270.653 176.552 270.085 176.586Z" fill="#FFB700"/>
<path d="M195.902 187.871H193.407V199.959H195.902V187.871Z" fill="#C47F0B"/>
<path d="M226.109 205.903C206.272 205.903 176.754 201.445 176.754 189.156V177.509C176.754 175.461 178.432 172.489 181.057 172.489L270.085 174.015C271.226 174.015 272.32 174.438 273.127 175.192C273.934 175.945 274.388 176.966 274.388 178.031V188.875C274.388 200.039 250.076 205.903 226.109 205.903ZM181.444 176.505C181.228 176.805 181.095 177.15 181.057 177.509V189.156C181.057 195.943 202.098 201.887 226.109 201.887C250.119 201.887 270.085 195.943 270.085 188.875V178.031L181.444 176.505Z" fill="#C47F0B"/>
<path d="M225.549 189.638C250.122 189.638 270.041 184.244 270.041 177.59C270.041 170.936 250.122 165.542 225.549 165.542C200.977 165.542 181.057 170.936 181.057 177.59C181.057 184.244 200.977 189.638 225.549 189.638Z" fill="#FFCF00"/>
<path d="M225.549 189.638C250.122 189.638 270.041 184.244 270.041 177.59C270.041 170.936 250.122 165.542 225.549 165.542C200.977 165.542 181.057 170.936 181.057 177.59C181.057 184.244 200.977 189.638 225.549 189.638Z" fill="url(#paint3_linear_140:21323)"/>
<path d="M225.936 184.819C203.174 184.819 192.933 180.803 189.017 178.634C186.736 177.309 187.683 176.425 188.458 175.903C192.072 173.333 202.829 169.558 225.549 169.558C248.268 169.558 261.048 174.096 264.275 176.746C264.878 177.228 264.275 177.911 262.425 179.317C259.026 181.726 249 184.819 225.936 184.819Z" fill="#FBBB00"/>
<path d="M264.362 176.747C261.048 174.097 248.699 169.558 225.635 169.558C220.476 169.541 215.319 169.783 210.188 170.281C213.243 170.281 216.513 170 220.171 170C243.32 170 257.563 174.016 260.876 176.747C261.479 177.229 261.823 177.832 259.8 179.237C252.887 182.378 245.363 184.181 237.683 184.538C252.615 183.695 259.757 181.285 262.597 179.318C264.534 177.912 264.964 177.229 264.362 176.747Z" fill="#C47F0B"/>
<path d="M198.656 174.177C208.669 173.325 218.734 173.137 228.776 173.615C236.564 173.896 245.213 174.94 255.454 175.904C246.386 172.871 236.817 171.348 227.184 171.406C217.574 170.77 207.919 171.708 198.656 174.177Z" fill="#FFCF00"/>
<path d="M227.357 192.25C203.002 192.25 176.754 186.547 176.754 177.31C176.754 168.073 201.281 162.973 225.549 162.973C249.818 162.973 274.388 167.912 274.388 177.31C274.388 186.708 250.162 192.25 227.357 192.25ZM225.549 166.989C198.398 166.989 181.057 173.093 181.057 177.31C181.057 181.527 200.506 188.234 227.357 188.234C254.207 188.234 270.085 181.888 270.085 177.31C270.085 172.732 252.744 166.989 225.549 166.989Z" fill="#C47F0B"/>
<path d="M205.11 188.955H202.614V201.566H205.11V188.955Z" fill="#C47F0B"/>
<path d="M260.962 185.702H258.466V197.871H260.962V185.702Z" fill="#C47F0B"/>
<path d="M251.538 189.277H249.043V200.322H251.538V189.277Z" fill="#C47F0B"/>
<path d="M240.007 190.241H237.511V203.052H240.007V190.241Z" fill="#C47F0B"/>
<path d="M217.589 190.522H215.094V203.655H217.589V190.522Z" fill="#C47F0B"/>
<path d="M229.336 190.643H226.841V203.454H229.336V190.643Z" fill="#C47F0B"/>
<path d="M187.555 184.778H185.059V196.867H187.555V184.778Z" fill="#C47F0B"/>
<path d="M213.587 182.45C213.587 182.45 238.2 184.096 244.31 182.45C244.31 182.45 227.099 177.911 213.587 182.45Z" fill="#FFCF00"/>
<path d="M268.406 157.108H179.379C178.808 157.108 178.261 157.32 177.857 157.697C177.454 158.073 177.227 158.584 177.227 159.116V169.679C177.227 178.916 202.786 184.418 225.979 184.418C249.172 184.418 270.557 178.434 270.557 169.398V159.116C270.546 158.587 270.316 158.082 269.915 157.708C269.514 157.334 268.973 157.119 268.406 157.108Z" fill="#FFB700"/>
<path d="M194.224 168.394H191.728V180.482H194.224V168.394Z" fill="#C47F0B"/>
<path d="M224.43 186.465C204.594 186.465 175.076 182.008 175.076 169.718V158.072C175.076 156.024 176.754 153.052 179.379 153.052L268.406 154.578C269.547 154.578 270.642 155.001 271.449 155.754C272.256 156.507 272.709 157.529 272.709 158.594V169.437C272.709 180.562 248.398 186.465 224.43 186.465ZM179.766 157.028C179.568 157.336 179.437 157.677 179.379 158.032V169.678C179.379 176.465 200.42 182.409 224.43 182.409C248.441 182.409 268.406 176.465 268.406 169.397V158.554L179.766 157.028Z" fill="#C47F0B"/>
<path d="M223.871 170.161C248.443 170.161 268.363 164.767 268.363 158.113C268.363 151.459 248.443 146.064 223.871 146.064C199.298 146.064 179.378 151.459 179.378 158.113C179.378 164.767 199.298 170.161 223.871 170.161Z" fill="#FFCF00"/>
<path d="M223.871 170.161C248.443 170.161 268.363 164.767 268.363 158.113C268.363 151.459 248.443 146.064 223.871 146.064C199.298 146.064 179.378 151.459 179.378 158.113C179.378 164.767 199.298 170.161 223.871 170.161Z" fill="url(#paint4_linear_140:21323)"/>
<path d="M224.259 165.342C201.496 165.342 191.255 161.326 187.339 159.157C185.059 157.832 186.049 156.949 186.823 156.426C190.395 153.856 201.152 150.081 223.871 150.081C246.591 150.081 259.37 154.619 262.598 157.27C263.2 157.752 262.598 158.434 260.747 159.84C257.348 162.37 247.322 165.342 224.259 165.342Z" fill="#FBBB00"/>
<path d="M197.021 154.698C206.953 153.922 216.932 153.801 226.883 154.337C234.671 154.618 243.32 155.662 253.561 156.626C244.493 153.593 234.924 152.07 225.291 152.128C215.779 151.449 206.213 152.318 197.021 154.698Z" fill="#FFCF00"/>
<path d="M225.678 172.771C201.367 172.771 175.076 167.068 175.076 157.831C175.076 148.595 199.645 143.494 223.871 143.494C248.096 143.494 272.709 148.434 272.709 157.831C272.709 167.229 248.484 172.771 225.678 172.771ZM223.871 147.51C196.719 147.51 179.379 153.615 179.379 157.831C179.379 162.048 198.828 168.755 225.678 168.755C252.528 168.755 268.406 162.41 268.406 157.831C268.406 153.253 250.893 147.51 223.871 147.51Z" fill="#C47F0B"/>
<path d="M203.432 169.478H200.937V182.088H203.432V169.478Z" fill="#C47F0B"/>
<path d="M259.285 166.226H256.789V178.394H259.285V166.226Z" fill="#C47F0B"/>
<path d="M249.904 169.799H247.408V180.843H249.904V169.799Z" fill="#C47F0B"/>
<path d="M238.329 170.764H235.833V183.575H238.329V170.764Z" fill="#C47F0B"/>
<path d="M215.911 171.044H213.415V184.217H215.911V171.044Z" fill="#C47F0B"/>
<path d="M227.658 171.165H225.162V183.976H227.658V171.165Z" fill="#C47F0B"/>
<path d="M185.876 165.302H183.38V177.39H185.876V165.302Z" fill="#C47F0B"/>
<path d="M211.909 162.771C211.909 162.771 236.522 164.418 242.632 162.771C242.632 162.771 225.42 158.353 211.909 162.771Z" fill="#FFCF00"/>
<path d="M266.986 135.662H177.958C177.391 135.672 176.85 135.887 176.449 136.262C176.048 136.636 175.818 137.141 175.807 137.67V148.232C175.807 157.469 201.366 162.971 224.559 162.971C247.752 162.971 269.137 157.148 269.137 147.951V137.67C269.137 137.406 269.082 137.145 268.974 136.902C268.865 136.658 268.707 136.437 268.507 136.25C268.307 136.064 268.07 135.916 267.809 135.815C267.548 135.714 267.268 135.662 266.986 135.662Z" fill="#FFB700"/>
<path d="M192.804 146.908H190.308V158.997H192.804V146.908Z" fill="#C47F0B"/>
<path d="M223.01 164.979C203.174 164.979 173.656 160.521 173.656 148.232V136.586C173.656 134.537 175.334 131.565 177.958 131.565L267.029 133.092C268.17 133.092 269.265 133.515 270.072 134.268C270.879 135.021 271.332 136.042 271.332 137.108V147.951C271.289 159.116 247.02 164.979 223.01 164.979ZM178.346 135.581C178.148 135.89 178.017 136.231 177.958 136.586V148.232C177.958 155.019 199.043 160.963 223.01 160.963C246.977 160.963 266.986 155.019 266.986 147.951V137.108L178.346 135.581Z" fill="#C47F0B"/>
<path d="M222.494 148.715C247.067 148.715 266.987 143.32 266.987 136.666C266.987 130.012 247.067 124.618 222.494 124.618C197.922 124.618 178.002 130.012 178.002 136.666C178.002 143.32 197.922 148.715 222.494 148.715Z" fill="#FFCF00"/>
<path d="M222.494 148.715C247.067 148.715 266.987 143.32 266.987 136.666C266.987 130.012 247.067 124.618 222.494 124.618C197.922 124.618 178.002 130.012 178.002 136.666C178.002 143.32 197.922 148.715 222.494 148.715Z" fill="url(#paint5_linear_140:21323)"/>
<path d="M222.881 143.895C200.076 143.895 189.835 139.879 185.962 137.71C183.639 136.385 184.628 135.501 185.403 134.979C189.017 132.409 199.775 128.634 222.494 128.634C245.214 128.634 257.95 133.132 261.22 135.823C261.823 136.304 261.22 136.987 259.37 138.393C255.971 140.802 245.945 143.895 222.881 143.895Z" fill="#FBBB00"/>
<path d="M261.264 135.823C257.95 133.132 245.644 128.634 222.537 128.634C216.556 128.634 211.479 128.915 207.047 129.317C210.102 129.317 213.415 129.076 217.073 129.076C240.222 129.076 254.422 133.092 257.735 135.823C258.338 136.304 258.725 136.907 256.703 138.312C249.775 141.458 242.237 143.261 234.543 143.614C249.517 142.77 256.66 140.361 259.457 138.393C261.436 136.987 261.866 136.304 261.264 135.823Z" fill="#C47F0B"/>
<path d="M195.601 133.252C205.614 132.4 215.679 132.212 225.721 132.69C233.509 132.971 242.158 134.015 252.399 134.979C243.315 131.95 233.733 130.428 224.086 130.481C214.49 129.823 204.845 130.761 195.601 133.252Z" fill="#FFCF00"/>
<path d="M224.301 151.326C199.946 151.326 173.656 145.624 173.656 136.387C173.656 127.15 198.225 122.21 222.494 122.21C246.762 122.21 271.289 127.11 271.289 136.547C271.289 145.985 247.063 151.326 224.301 151.326ZM222.494 126.226C195.299 126.226 177.958 132.33 177.958 136.547C177.958 140.764 197.408 147.471 224.301 147.471C251.194 147.471 266.986 141.126 266.986 136.547C266.986 131.969 249.645 126.226 222.494 126.226Z" fill="#C47F0B"/>
<path d="M202.055 148.032H199.559V160.643H202.055V148.032Z" fill="#C47F0B"/>
<path d="M257.907 144.779H255.411V156.948H257.907V144.779Z" fill="#C47F0B"/>
<path d="M248.483 148.354H245.988V159.398H248.483V148.354Z" fill="#C47F0B"/>
<path d="M236.909 149.318H234.413V162.13H236.909V149.318Z" fill="#C47F0B"/>
<path d="M214.491 149.599H211.995V162.771H214.491V149.599Z" fill="#C47F0B"/>
<path d="M226.238 149.719H223.742V162.53H226.238V149.719Z" fill="#C47F0B"/>
<path d="M184.498 143.855H182.003V155.944H184.498V143.855Z" fill="#C47F0B"/>
<path d="M210.489 141.325C210.489 141.325 235.101 142.972 241.211 141.325C241.211 141.325 224 136.988 210.489 141.325Z" fill="#FFCF00"/>
<path d="M270.085 114.177H181.057C180.486 114.177 179.939 114.388 179.536 114.765C179.132 115.141 178.906 115.652 178.906 116.185V126.747C178.906 135.944 204.422 141.486 227.615 141.486C250.807 141.486 272.408 135.743 272.408 126.506V116.265C272.421 115.98 272.37 115.697 272.256 115.432C272.143 115.168 271.971 114.929 271.751 114.732C271.531 114.534 271.269 114.382 270.982 114.287C270.694 114.191 270.389 114.153 270.085 114.177Z" fill="#FFB700"/>
<path d="M195.902 125.502H193.407V137.59H195.902V125.502Z" fill="#C47F0B"/>
<path d="M226.109 143.574C206.272 143.574 176.754 139.116 176.754 126.827V115.14C176.754 113.092 178.432 110.12 181.057 110.12L270.085 111.686C271.226 111.686 272.32 112.11 273.127 112.863C273.934 113.616 274.388 114.637 274.388 115.702V126.506C274.388 137.71 250.076 143.574 226.109 143.574ZM181.444 114.176C181.224 114.459 181.09 114.792 181.057 115.14V126.827C181.057 133.574 202.098 139.558 226.109 139.558C250.119 139.558 270.085 133.574 270.085 126.506V115.702L181.444 114.176Z" fill="#C47F0B"/>
<path d="M225.549 127.308C250.122 127.308 270.041 121.914 270.041 115.26C270.041 108.606 250.122 103.212 225.549 103.212C200.977 103.212 181.057 108.606 181.057 115.26C181.057 121.914 200.977 127.308 225.549 127.308Z" fill="#FFCF00"/>
<path d="M225.549 127.308C250.122 127.308 270.041 121.914 270.041 115.26C270.041 108.606 250.122 103.212 225.549 103.212C200.977 103.212 181.057 108.606 181.057 115.26C181.057 121.914 200.977 127.308 225.549 127.308Z" fill="url(#paint6_linear_140:21323)"/>
<path d="M225.936 122.49C203.174 122.49 192.933 118.473 189.017 116.265C186.736 114.939 187.683 114.096 188.458 113.534C192.072 111.004 202.829 107.229 225.549 107.229C248.268 107.229 261.048 111.727 264.275 114.377C264.878 114.859 264.275 115.542 262.425 116.947C259.026 119.357 249 122.49 225.936 122.49Z" fill="#FBBB00"/>
<path d="M264.362 114.378C261.048 111.727 248.699 107.229 225.635 107.229C220.477 107.2 215.32 107.428 210.188 107.912C213.243 107.912 216.513 107.631 220.171 107.631C243.32 107.631 257.563 111.647 260.876 114.378C261.479 114.859 261.823 115.502 259.8 116.908C252.858 120.053 245.306 121.856 237.597 122.209C252.529 121.365 259.671 118.956 262.511 116.988C264.534 115.542 264.964 114.859 264.362 114.378Z" fill="#C47F0B"/>
<path d="M198.656 111.808C208.669 110.955 218.734 110.768 228.776 111.246C236.564 111.567 245.213 112.611 255.454 113.575C246.393 110.513 236.821 108.977 227.184 109.037C217.574 108.401 207.919 109.339 198.656 111.808Z" fill="#FFCF00"/>
<path d="M227.357 129.92C203.002 129.92 176.754 124.177 176.754 114.94C176.754 105.703 201.281 100.603 225.549 100.603C249.818 100.603 274.388 105.542 274.388 114.94C274.388 124.337 250.162 129.92 227.357 129.92ZM225.549 104.619C198.398 104.619 181.057 110.763 181.057 114.94C181.057 119.117 200.506 125.904 227.357 125.904C254.207 125.904 270.085 119.518 270.085 114.94C270.085 110.362 252.744 104.619 225.549 104.619Z" fill="#C47F0B"/>
<path d="M205.11 126.626H202.614V139.236H205.11V126.626Z" fill="#C47F0B"/>
<path d="M260.962 123.333H258.466V135.502H260.962V123.333Z" fill="#C47F0B"/>
<path d="M251.538 126.947H249.043V137.991H251.538V126.947Z" fill="#C47F0B"/>
<path d="M240.007 127.871H237.511V140.682H240.007V127.871Z" fill="#C47F0B"/>
<path d="M217.589 128.153H215.094V141.326H217.589V128.153Z" fill="#C47F0B"/>
<path d="M229.336 128.273H226.841V141.085H229.336V128.273Z" fill="#C47F0B"/>
<path d="M187.555 122.41H185.059V134.499H187.555V122.41Z" fill="#C47F0B"/>
<path d="M213.587 119.92C213.587 119.92 238.2 121.526 244.31 119.92C244.31 119.92 227.099 115.583 213.587 119.92Z" fill="#FFCF00"/>
<path d="M162.109 231.927C156.386 231.927 106.17 231.285 106.17 209.156V196.666V196.185C105.02 194.184 104.414 191.949 104.406 189.678V177.389C104.495 176.501 104.743 175.632 105.138 174.819C103.943 172.804 103.321 170.536 103.331 168.233V157.55C103.269 156.533 103.269 155.514 103.331 154.498C103.664 152.221 104.782 150.107 106.515 148.474C106.473 147.925 106.473 147.375 106.515 146.827V134.498C106.47 133.829 106.47 133.158 106.515 132.49C106.814 130.618 107.597 128.843 108.797 127.317C109.996 125.792 111.576 124.562 113.399 123.735C116.749 121.788 120.389 120.313 124.2 119.357C127.505 118.372 130.885 117.62 134.312 117.108C144.264 115.54 154.339 114.747 164.432 114.739C173.513 114.58 182.582 115.416 191.454 117.229C197.8 118.628 203.92 120.802 209.656 123.695C211.877 124.75 213.741 126.36 215.04 128.345C216.339 130.33 217.022 132.613 217.014 134.94V146.506C216.992 149.631 215.874 152.664 213.83 155.14C213.871 155.554 213.871 155.971 213.83 156.385V167.952C213.83 169.172 213.657 170.388 213.313 171.566C214.576 173.443 215.247 175.615 215.25 177.831V189.397C215.314 189.998 215.314 190.604 215.25 191.205C216.409 193.057 217.019 195.164 217.014 197.309V208.875C217.014 225.903 187.324 231.927 162.109 231.927Z" fill="white"/>
<g filter="url(#filter4_d_140:21323)">
<path d="M164.389 116.747C173.296 116.609 182.19 117.431 190.895 119.197C197.001 120.544 202.889 122.637 208.408 125.422C210.287 126.31 211.86 127.674 212.948 129.357C214.036 131.04 214.595 132.974 214.561 134.94V146.506C214.494 149.455 213.339 152.292 211.291 154.538C211.355 155.126 211.355 155.718 211.291 156.305V167.871C211.293 169.239 211.046 170.597 210.559 171.888C211.941 173.602 212.695 175.686 212.711 177.831V189.398C212.708 190.154 212.621 190.907 212.453 191.647C213.698 193.307 214.373 195.282 214.389 197.309V208.875C214.389 223.414 187.969 229.92 161.807 229.92C141.885 229.92 108.15 225.542 108.15 209.157V196.867V196.426C108.15 196.185 108.15 195.984 108.15 195.823C106.952 193.968 106.313 191.845 106.3 189.679V177.39C106.253 176.459 106.46 175.534 106.902 174.699C105.583 172.767 104.881 170.524 104.88 168.233V157.55C104.88 157.55 104.88 155.663 104.88 154.699C105.331 152.54 106.506 150.57 108.236 149.076C108.063 148.338 107.976 147.583 107.978 146.827V134.498C107.932 133.95 107.932 133.399 107.978 132.851C108.231 131.245 108.91 129.724 109.955 128.426C111 127.128 112.376 126.095 113.959 125.422C117.163 123.601 120.645 122.247 124.286 121.406C127.471 120.421 130.738 119.682 134.053 119.197C143.88 117.664 153.824 116.885 163.787 116.867L164.389 116.747ZM163.787 112.851C153.595 112.88 143.421 113.673 133.365 115.221C129.837 115.774 126.357 116.565 122.952 117.59C119.17 118.627 115.564 120.155 112.238 122.129C110.155 123.111 108.351 124.541 106.975 126.3C105.598 128.059 104.689 130.098 104.32 132.249C104.248 133.037 104.248 133.83 104.32 134.618V146.948C104.299 147.282 104.299 147.617 104.32 147.952C102.622 149.723 101.502 151.911 101.093 154.257C101.004 155.38 101.004 156.508 101.093 157.631V168.153C101.094 170.513 101.652 172.844 102.728 174.98C102.648 175.822 102.648 176.668 102.728 177.51V189.558C102.721 191.911 103.295 194.233 104.406 196.345V209.036C104.406 227.349 135.602 233.815 162.367 233.815C189.131 233.815 219.251 227.269 219.251 208.755V197.309C219.243 195.038 218.638 192.804 217.487 190.803C217.487 190.321 217.487 189.88 217.487 189.398V177.831C217.492 175.541 216.869 173.288 215.68 171.285C215.936 170.19 216.066 169.073 216.067 167.952V155.703C218.053 152.991 219.131 149.79 219.165 146.506V134.94C219.112 132.296 218.302 129.714 216.819 127.462C215.336 125.209 213.234 123.368 210.732 122.129C204.809 119.097 198.488 116.802 191.928 115.301C182.89 113.428 173.645 112.565 164.389 112.731L163.787 112.851Z" fill="#1F093D"/>
</g>
<path d="M206.085 196.586H117.057C116.486 196.586 115.939 196.798 115.536 197.174C115.132 197.551 114.906 198.062 114.906 198.594V209.156C114.906 218.393 140.422 223.895 163.615 223.895C186.807 223.895 208.408 218.072 208.408 208.875V198.434C208.353 197.904 208.08 197.416 207.647 197.071C207.213 196.726 206.653 196.552 206.085 196.586Z" fill="#FFB700"/>
<path d="M131.902 207.871H129.407V219.959H131.902V207.871Z" fill="#C47F0B"/>
<path d="M162.109 225.903C142.272 225.903 112.754 221.445 112.754 209.156V197.509C112.754 195.461 114.432 192.489 117.057 192.489L206.085 194.015C207.226 194.015 208.32 194.438 209.127 195.192C209.934 195.945 210.388 196.966 210.388 198.031V208.875C210.388 220.039 186.076 225.903 162.109 225.903ZM117.444 196.505C117.228 196.805 117.095 197.15 117.057 197.509V209.156C117.057 215.943 138.098 221.887 162.109 221.887C186.119 221.887 206.085 215.943 206.085 208.875V198.031L117.444 196.505Z" fill="#C47F0B"/>
<path d="M161.549 209.638C186.122 209.638 206.041 204.244 206.041 197.59C206.041 190.936 186.122 185.542 161.549 185.542C136.977 185.542 117.057 190.936 117.057 197.59C117.057 204.244 136.977 209.638 161.549 209.638Z" fill="#FFCF00"/>
<path d="M161.549 209.638C186.122 209.638 206.041 204.244 206.041 197.59C206.041 190.936 186.122 185.542 161.549 185.542C136.977 185.542 117.057 190.936 117.057 197.59C117.057 204.244 136.977 209.638 161.549 209.638Z" fill="url(#paint7_linear_140:21323)"/>
<path d="M161.936 204.819C139.174 204.819 128.933 200.803 125.017 198.634C122.736 197.309 123.683 196.425 124.458 195.903C128.072 193.333 138.829 189.558 161.549 189.558C184.268 189.558 197.048 194.096 200.275 196.746C200.878 197.228 200.275 197.911 198.425 199.317C195.026 201.726 185 204.819 161.936 204.819Z" fill="#FBBB00"/>
<path d="M200.362 196.747C197.048 194.097 184.699 189.558 161.635 189.558C156.476 189.541 151.319 189.783 146.188 190.281C149.243 190.281 152.513 190 156.171 190C179.32 190 193.563 194.016 196.876 196.747C197.479 197.229 197.823 197.832 195.8 199.237C188.887 202.378 181.363 204.181 173.683 204.538C188.615 203.695 195.757 201.285 198.597 199.318C200.534 197.912 200.964 197.229 200.362 196.747Z" fill="#C47F0B"/>
<path d="M134.656 194.177C144.669 193.325 154.734 193.137 164.776 193.615C172.564 193.896 181.213 194.94 191.454 195.904C182.386 192.871 172.817 191.348 163.184 191.406C153.574 190.77 143.919 191.708 134.656 194.177Z" fill="#FFCF00"/>
<path d="M163.357 212.25C139.002 212.25 112.754 206.547 112.754 197.31C112.754 188.073 137.281 182.973 161.549 182.973C185.818 182.973 210.388 187.912 210.388 197.31C210.388 206.708 186.162 212.25 163.357 212.25ZM161.549 186.989C134.398 186.989 117.057 193.093 117.057 197.31C117.057 201.527 136.506 208.234 163.357 208.234C190.207 208.234 206.085 201.888 206.085 197.31C206.085 192.732 188.744 186.989 161.549 186.989Z" fill="#C47F0B"/>
<path d="M141.11 208.955H138.614V221.566H141.11V208.955Z" fill="#C47F0B"/>
<path d="M196.962 205.702H194.466V217.871H196.962V205.702Z" fill="#C47F0B"/>
<path d="M187.538 209.277H185.043V220.322H187.538V209.277Z" fill="#C47F0B"/>
<path d="M176.007 210.241H173.511V223.052H176.007V210.241Z" fill="#C47F0B"/>
<path d="M153.589 210.522H151.094V223.655H153.589V210.522Z" fill="#C47F0B"/>
<path d="M165.336 210.643H162.841V223.454H165.336V210.643Z" fill="#C47F0B"/>
<path d="M123.555 204.778H121.059V216.867H123.555V204.778Z" fill="#C47F0B"/>
<path d="M149.587 202.45C149.587 202.45 174.2 204.096 180.31 202.45C180.31 202.45 163.099 197.911 149.587 202.45Z" fill="#FFCF00"/>
<path d="M204.406 177.108H115.379C114.808 177.108 114.261 177.32 113.857 177.697C113.454 178.073 113.227 178.584 113.227 179.116V189.679C113.227 198.916 138.786 204.418 161.979 204.418C185.172 204.418 206.557 198.434 206.557 189.398V179.116C206.546 178.587 206.316 178.082 205.915 177.708C205.514 177.334 204.973 177.119 204.406 177.108Z" fill="#FFB700"/>
<path d="M130.224 188.394H127.728V200.482H130.224V188.394Z" fill="#C47F0B"/>
<path d="M160.43 206.465C140.594 206.465 111.076 202.008 111.076 189.718V178.072C111.076 176.024 112.754 173.052 115.379 173.052L204.406 174.578C205.547 174.578 206.642 175.001 207.449 175.754C208.256 176.507 208.709 177.529 208.709 178.594V189.437C208.709 200.562 184.398 206.465 160.43 206.465ZM115.766 177.028C115.568 177.336 115.437 177.677 115.379 178.032V189.678C115.379 196.465 136.42 202.409 160.43 202.409C184.441 202.409 204.406 196.465 204.406 189.397V178.554L115.766 177.028Z" fill="#C47F0B"/>
<path d="M159.871 190.161C184.443 190.161 204.363 184.767 204.363 178.113C204.363 171.459 184.443 166.064 159.871 166.064C135.298 166.064 115.378 171.459 115.378 178.113C115.378 184.767 135.298 190.161 159.871 190.161Z" fill="#FFCF00"/>
<path d="M159.871 190.161C184.443 190.161 204.363 184.767 204.363 178.113C204.363 171.459 184.443 166.064 159.871 166.064C135.298 166.064 115.378 171.459 115.378 178.113C115.378 184.767 135.298 190.161 159.871 190.161Z" fill="url(#paint8_linear_140:21323)"/>
<path d="M160.259 185.342C137.496 185.342 127.255 181.326 123.339 179.157C121.059 177.832 122.049 176.949 122.823 176.426C126.395 173.856 137.152 170.081 159.871 170.081C182.591 170.081 195.37 174.619 198.598 177.27C199.2 177.752 198.598 178.434 196.747 179.84C193.348 182.37 183.322 185.342 160.259 185.342Z" fill="#FBBB00"/>
<path d="M133.021 174.698C142.953 173.922 152.932 173.801 162.883 174.337C170.671 174.618 179.32 175.662 189.561 176.626C180.493 173.593 170.924 172.07 161.291 172.128C151.779 171.449 142.213 172.318 133.021 174.698Z" fill="#FFCF00"/>
<path d="M161.678 192.771C137.367 192.771 111.076 187.068 111.076 177.831C111.076 168.595 135.645 163.494 159.871 163.494C184.096 163.494 208.709 168.434 208.709 177.831C208.709 187.229 184.484 192.771 161.678 192.771ZM159.871 167.51C132.719 167.51 115.379 173.615 115.379 177.831C115.379 182.048 134.828 188.755 161.678 188.755C188.528 188.755 204.406 182.41 204.406 177.831C204.406 173.253 186.893 167.51 159.871 167.51Z" fill="#C47F0B"/>
<path d="M139.432 189.478H136.937V202.088H139.432V189.478Z" fill="#C47F0B"/>
<path d="M195.285 186.226H192.789V198.394H195.285V186.226Z" fill="#C47F0B"/>
<path d="M185.904 189.799H183.408V200.843H185.904V189.799Z" fill="#C47F0B"/>
<path d="M174.329 190.764H171.833V203.575H174.329V190.764Z" fill="#C47F0B"/>
<path d="M151.911 191.044H149.415V204.217H151.911V191.044Z" fill="#C47F0B"/>
<path d="M163.658 191.165H161.162V203.976H163.658V191.165Z" fill="#C47F0B"/>
<path d="M121.876 185.302H119.38V197.39H121.876V185.302Z" fill="#C47F0B"/>
<path d="M147.909 182.771C147.909 182.771 172.522 184.418 178.632 182.771C178.632 182.771 161.42 178.353 147.909 182.771Z" fill="#FFCF00"/>
<path d="M202.986 155.662H113.958C113.391 155.672 112.85 155.887 112.449 156.262C112.048 156.636 111.818 157.141 111.807 157.67V168.232C111.807 177.469 137.366 182.971 160.559 182.971C183.752 182.971 205.137 177.148 205.137 167.951V157.67C205.137 157.406 205.082 157.145 204.974 156.902C204.865 156.658 204.707 156.437 204.507 156.25C204.307 156.064 204.07 155.916 203.809 155.815C203.548 155.714 203.268 155.662 202.986 155.662Z" fill="#FFB700"/>
<path d="M128.804 166.908H126.308V178.997H128.804V166.908Z" fill="#C47F0B"/>
<path d="M159.01 184.979C139.174 184.979 109.656 180.521 109.656 168.232V156.586C109.656 154.537 111.334 151.565 113.958 151.565L203.029 153.092C204.17 153.092 205.265 153.515 206.072 154.268C206.879 155.021 207.332 156.042 207.332 157.108V167.951C207.289 179.116 183.02 184.979 159.01 184.979ZM114.346 155.581C114.148 155.89 114.017 156.231 113.958 156.586V168.232C113.958 175.019 135.043 180.963 159.01 180.963C182.977 180.963 202.986 175.019 202.986 167.951V157.108L114.346 155.581Z" fill="#C47F0B"/>
<path d="M158.494 168.715C183.067 168.715 202.987 163.32 202.987 156.666C202.987 150.012 183.067 144.618 158.494 144.618C133.922 144.618 114.002 150.012 114.002 156.666C114.002 163.32 133.922 168.715 158.494 168.715Z" fill="#FFCF00"/>
<path d="M158.494 168.715C183.067 168.715 202.987 163.32 202.987 156.666C202.987 150.012 183.067 144.618 158.494 144.618C133.922 144.618 114.002 150.012 114.002 156.666C114.002 163.32 133.922 168.715 158.494 168.715Z" fill="url(#paint9_linear_140:21323)"/>
<path d="M158.881 163.895C136.076 163.895 125.835 159.879 121.962 157.71C119.639 156.385 120.628 155.501 121.403 154.979C125.017 152.409 135.775 148.634 158.494 148.634C181.214 148.634 193.95 153.132 197.22 155.823C197.823 156.304 197.22 156.987 195.37 158.393C191.971 160.802 181.945 163.895 158.881 163.895Z" fill="#FBBB00"/>
<path d="M197.264 155.823C193.95 153.132 181.644 148.634 158.537 148.634C152.556 148.634 147.479 148.915 143.047 149.317C146.102 149.317 149.415 149.076 153.073 149.076C176.222 149.076 190.422 153.092 193.735 155.823C194.338 156.304 194.725 156.907 192.703 158.312C185.775 161.458 178.237 163.261 170.543 163.614C185.517 162.77 192.66 160.361 195.457 158.393C197.436 156.987 197.866 156.304 197.264 155.823Z" fill="#C47F0B"/>
<path d="M131.601 153.252C141.614 152.4 151.679 152.212 161.721 152.69C169.509 152.971 178.158 154.015 188.399 154.979C179.315 151.95 169.733 150.428 160.086 150.481C150.49 149.823 140.845 150.761 131.601 153.252Z" fill="#FFCF00"/>
<path d="M160.301 171.326C135.946 171.326 109.656 165.624 109.656 156.387C109.656 147.15 134.225 142.21 158.494 142.21C182.762 142.21 207.289 147.11 207.289 156.547C207.289 165.985 183.063 171.326 160.301 171.326ZM158.494 146.226C131.299 146.226 113.958 152.33 113.958 156.547C113.958 160.764 133.408 167.471 160.301 167.471C187.194 167.471 202.986 161.126 202.986 156.547C202.986 151.969 185.645 146.226 158.494 146.226Z" fill="#C47F0B"/>
<path d="M138.055 168.032H135.559V180.643H138.055V168.032Z" fill="#C47F0B"/>
<path d="M193.907 164.779H191.411V176.948H193.907V164.779Z" fill="#C47F0B"/>
<path d="M184.483 168.354H181.988V179.398H184.483V168.354Z" fill="#C47F0B"/>
<path d="M172.909 169.318H170.413V182.13H172.909V169.318Z" fill="#C47F0B"/>
<path d="M150.491 169.599H147.995V182.771H150.491V169.599Z" fill="#C47F0B"/>
<path d="M162.238 169.719H159.742V182.53H162.238V169.719Z" fill="#C47F0B"/>
<path d="M120.498 163.855H118.003V175.944H120.498V163.855Z" fill="#C47F0B"/>
<path d="M146.489 161.325C146.489 161.325 171.101 162.972 177.211 161.325C177.211 161.325 160 156.988 146.489 161.325Z" fill="#FFCF00"/>
<path d="M206.085 134.177H117.057C116.486 134.177 115.939 134.388 115.536 134.765C115.132 135.141 114.906 135.652 114.906 136.185V146.747C114.906 155.944 140.422 161.486 163.615 161.486C186.807 161.486 208.408 155.743 208.408 146.506V136.265C208.421 135.98 208.37 135.697 208.256 135.432C208.143 135.168 207.971 134.929 207.751 134.732C207.531 134.534 207.269 134.382 206.982 134.287C206.694 134.191 206.389 134.153 206.085 134.177Z" fill="#FFB700"/>
<path d="M131.902 145.502H129.407V157.59H131.902V145.502Z" fill="#C47F0B"/>
<path d="M162.109 163.574C142.272 163.574 112.754 159.116 112.754 146.827V135.14C112.754 133.092 114.432 130.12 117.057 130.12L206.085 131.686C207.226 131.686 208.32 132.11 209.127 132.863C209.934 133.616 210.388 134.637 210.388 135.702V146.506C210.388 157.71 186.076 163.574 162.109 163.574ZM117.444 134.176C117.224 134.459 117.09 134.792 117.057 135.14V146.827C117.057 153.574 138.098 159.558 162.109 159.558C186.119 159.558 206.085 153.574 206.085 146.506V135.702L117.444 134.176Z" fill="#C47F0B"/>
<path d="M161.549 147.308C186.122 147.308 206.041 141.914 206.041 135.26C206.041 128.606 186.122 123.212 161.549 123.212C136.977 123.212 117.057 128.606 117.057 135.26C117.057 141.914 136.977 147.308 161.549 147.308Z" fill="#FFCF00"/>
<path d="M161.549 147.308C186.122 147.308 206.041 141.914 206.041 135.26C206.041 128.606 186.122 123.212 161.549 123.212C136.977 123.212 117.057 128.606 117.057 135.26C117.057 141.914 136.977 147.308 161.549 147.308Z" fill="url(#paint10_linear_140:21323)"/>
<path d="M161.936 142.49C139.174 142.49 128.933 138.473 125.017 136.265C122.736 134.939 123.683 134.096 124.458 133.534C128.072 131.004 138.829 127.229 161.549 127.229C184.268 127.229 197.048 131.727 200.275 134.377C200.878 134.859 200.275 135.542 198.425 136.947C195.026 139.357 185 142.49 161.936 142.49Z" fill="#FBBB00"/>
<path d="M200.362 134.378C197.048 131.727 184.699 127.229 161.635 127.229C156.477 127.2 151.32 127.428 146.188 127.912C149.243 127.912 152.513 127.631 156.171 127.631C179.32 127.631 193.563 131.647 196.876 134.378C197.479 134.859 197.823 135.502 195.8 136.908C188.858 140.053 181.306 141.856 173.597 142.209C188.529 141.365 195.671 138.956 198.511 136.988C200.534 135.542 200.964 134.859 200.362 134.378Z" fill="#C47F0B"/>
<path d="M134.656 131.808C144.669 130.955 154.734 130.768 164.776 131.246C172.564 131.567 181.213 132.611 191.454 133.575C182.393 130.513 172.821 128.977 163.184 129.037C153.574 128.401 143.919 129.339 134.656 131.808Z" fill="#FFCF00"/>
<path d="M163.357 149.92C139.002 149.92 112.754 144.177 112.754 134.94C112.754 125.703 137.281 120.603 161.549 120.603C185.818 120.603 210.388 125.542 210.388 134.94C210.388 144.337 186.162 149.92 163.357 149.92ZM161.549 124.619C134.398 124.619 117.057 130.763 117.057 134.94C117.057 139.117 136.506 145.904 163.357 145.904C190.207 145.904 206.085 139.518 206.085 134.94C206.085 130.362 188.744 124.619 161.549 124.619Z" fill="#C47F0B"/>
<path d="M141.11 146.626H138.614V159.236H141.11V146.626Z" fill="#C47F0B"/>
<path d="M196.962 143.333H194.466V155.502H196.962V143.333Z" fill="#C47F0B"/>
<path d="M187.538 146.947H185.043V157.991H187.538V146.947Z" fill="#C47F0B"/>
<path d="M176.007 147.871H173.511V160.682H176.007V147.871Z" fill="#C47F0B"/>
<path d="M153.589 148.153H151.094V161.326H153.589V148.153Z" fill="#C47F0B"/>
<path d="M165.336 148.273H162.841V161.085H165.336V148.273Z" fill="#C47F0B"/>
<path d="M123.555 142.41H121.059V154.499H123.555V142.41Z" fill="#C47F0B"/>
<path d="M149.587 139.92C149.587 139.92 174.2 141.526 180.31 139.92C180.31 139.92 163.099 135.583 149.587 139.92Z" fill="#FFCF00"/>
<path d="M218.109 247.927C212.386 247.927 162.17 247.285 162.17 225.156V212.666V212.185C161.02 210.184 160.414 207.949 160.406 205.678V193.389C160.495 192.501 160.743 191.632 161.138 190.819C159.943 188.804 159.321 186.536 159.331 184.233V173.55C159.269 172.533 159.269 171.514 159.331 170.498C159.664 168.221 160.782 166.107 162.515 164.474C162.473 163.925 162.473 163.375 162.515 162.827V150.498C162.47 149.829 162.47 149.158 162.515 148.49C162.814 146.618 163.597 144.843 164.797 143.317C165.996 141.792 167.576 140.562 169.399 139.735C172.749 137.788 176.389 136.313 180.2 135.357C183.505 134.372 186.885 133.62 190.312 133.108C200.264 131.54 210.339 130.747 220.432 130.739C229.513 130.58 238.582 131.416 247.454 133.229C253.8 134.628 259.92 136.802 265.656 139.695C267.877 140.75 269.741 142.36 271.04 144.345C272.339 146.33 273.022 148.613 273.014 150.94V162.506C272.992 165.631 271.874 168.664 269.83 171.14C269.871 171.554 269.871 171.971 269.83 172.385V183.952C269.83 185.172 269.657 186.388 269.313 187.566C270.576 189.443 271.247 191.615 271.25 193.831V205.397C271.314 205.998 271.314 206.604 271.25 207.205C272.409 209.057 273.019 211.164 273.014 213.309V224.875C273.014 241.903 243.324 247.927 218.109 247.927Z" fill="white"/>
<g filter="url(#filter5_d_140:21323)">
<path d="M220.389 132.747C229.296 132.609 238.19 133.431 246.895 135.197C253.001 136.544 258.889 138.637 264.408 141.422C266.287 142.31 267.86 143.674 268.948 145.357C270.036 147.04 270.595 148.974 270.561 150.94V162.506C270.494 165.455 269.339 168.292 267.291 170.538C267.355 171.126 267.355 171.718 267.291 172.305V183.871C267.293 185.239 267.046 186.597 266.559 187.888C267.941 189.602 268.695 191.686 268.711 193.831V205.398C268.708 206.154 268.621 206.907 268.453 207.647C269.698 209.307 270.373 211.282 270.389 213.309V224.875C270.389 239.414 243.969 245.92 217.807 245.92C197.885 245.92 164.15 241.542 164.15 225.157V212.867V212.426C164.15 212.185 164.15 211.984 164.15 211.823C162.952 209.968 162.313 207.845 162.3 205.679V193.39C162.253 192.459 162.46 191.534 162.902 190.699C161.583 188.767 160.881 186.524 160.88 184.233V173.55C160.88 173.55 160.88 171.663 160.88 170.699C161.331 168.54 162.506 166.57 164.236 165.076C164.063 164.338 163.976 163.583 163.978 162.827V150.498C163.932 149.95 163.932 149.399 163.978 148.851C164.231 147.245 164.91 145.724 165.955 144.426C167 143.128 168.376 142.095 169.959 141.422C173.163 139.601 176.645 138.247 180.286 137.406C183.471 136.421 186.738 135.682 190.053 135.197C199.88 133.664 209.824 132.885 219.787 132.867L220.389 132.747ZM219.787 128.851C209.595 128.88 199.421 129.673 189.365 131.221C185.837 131.774 182.357 132.565 178.952 133.59C175.17 134.627 171.564 136.155 168.238 138.129C166.155 139.111 164.351 140.541 162.975 142.3C161.598 144.059 160.689 146.098 160.32 148.249C160.248 149.037 160.248 149.83 160.32 150.618V162.948C160.299 163.282 160.299 163.617 160.32 163.952C158.622 165.723 157.502 167.911 157.093 170.257C157.004 171.38 157.004 172.508 157.093 173.631V184.153C157.094 186.513 157.652 188.844 158.728 190.98C158.648 191.822 158.648 192.668 158.728 193.51V205.558C158.721 207.911 159.295 210.233 160.406 212.345V225.036C160.406 243.349 191.602 249.815 218.367 249.815C245.131 249.815 275.251 243.269 275.251 224.755V213.309C275.243 211.038 274.638 208.804 273.487 206.803C273.487 206.321 273.487 205.88 273.487 205.398V193.831C273.492 191.541 272.869 189.288 271.68 187.285C271.936 186.19 272.066 185.073 272.067 183.952V171.703C274.053 168.991 275.131 165.79 275.165 162.506V150.94C275.112 148.296 274.302 145.714 272.819 143.462C271.336 141.209 269.234 139.368 266.732 138.129C260.809 135.097 254.488 132.802 247.928 131.301C238.89 129.428 229.645 128.565 220.389 128.731L219.787 128.851Z" fill="#1F093D"/>
</g>
<path d="M262.085 212.586H173.057C172.486 212.586 171.939 212.798 171.536 213.174C171.132 213.551 170.906 214.062 170.906 214.594V225.156C170.906 234.393 196.422 239.895 219.615 239.895C242.807 239.895 264.408 234.072 264.408 224.875V214.434C264.353 213.904 264.08 213.416 263.647 213.071C263.213 212.726 262.653 212.552 262.085 212.586Z" fill="#FFB700"/>
<path d="M187.902 223.871H185.407V235.959H187.902V223.871Z" fill="#C47F0B"/>
<path d="M218.109 241.903C198.272 241.903 168.754 237.445 168.754 225.156V213.509C168.754 211.461 170.432 208.489 173.057 208.489L262.085 210.015C263.226 210.015 264.32 210.438 265.127 211.192C265.934 211.945 266.388 212.966 266.388 214.031V224.875C266.388 236.039 242.076 241.903 218.109 241.903ZM173.444 212.505C173.228 212.805 173.095 213.15 173.057 213.509V225.156C173.057 231.943 194.098 237.887 218.109 237.887C242.119 237.887 262.085 231.943 262.085 224.875V214.031L173.444 212.505Z" fill="#C47F0B"/>
<path d="M217.549 225.638C242.122 225.638 262.041 220.244 262.041 213.59C262.041 206.936 242.122 201.542 217.549 201.542C192.977 201.542 173.057 206.936 173.057 213.59C173.057 220.244 192.977 225.638 217.549 225.638Z" fill="#FFCF00"/>
<path d="M217.549 225.638C242.122 225.638 262.041 220.244 262.041 213.59C262.041 206.936 242.122 201.542 217.549 201.542C192.977 201.542 173.057 206.936 173.057 213.59C173.057 220.244 192.977 225.638 217.549 225.638Z" fill="url(#paint11_linear_140:21323)"/>
<path d="M217.936 220.819C195.174 220.819 184.933 216.803 181.017 214.634C178.736 213.309 179.683 212.425 180.458 211.903C184.072 209.333 194.829 205.558 217.549 205.558C240.268 205.558 253.048 210.096 256.275 212.746C256.878 213.228 256.275 213.911 254.425 215.317C251.026 217.726 241 220.819 217.936 220.819Z" fill="#FBBB00"/>
<path d="M256.362 212.747C253.048 210.097 240.699 205.558 217.635 205.558C212.476 205.541 207.319 205.783 202.188 206.281C205.243 206.281 208.513 206 212.171 206C235.32 206 249.563 210.016 252.876 212.747C253.479 213.229 253.823 213.832 251.8 215.237C244.887 218.378 237.363 220.181 229.683 220.538C244.615 219.695 251.757 217.285 254.597 215.318C256.534 213.912 256.964 213.229 256.362 212.747Z" fill="#C47F0B"/>
<path d="M190.656 210.177C200.669 209.325 210.734 209.137 220.776 209.615C228.564 209.896 237.213 210.94 247.454 211.904C238.386 208.871 228.817 207.348 219.184 207.406C209.574 206.77 199.919 207.708 190.656 210.177Z" fill="#FFCF00"/>
<path d="M219.357 228.25C195.002 228.25 168.754 222.547 168.754 213.31C168.754 204.073 193.281 198.973 217.549 198.973C241.818 198.973 266.388 203.912 266.388 213.31C266.388 222.708 242.162 228.25 219.357 228.25ZM217.549 202.989C190.398 202.989 173.057 209.093 173.057 213.31C173.057 217.527 192.506 224.234 219.357 224.234C246.207 224.234 262.085 217.888 262.085 213.31C262.085 208.732 244.744 202.989 217.549 202.989Z" fill="#C47F0B"/>
<path d="M197.11 224.955H194.614V237.566H197.11V224.955Z" fill="#C47F0B"/>
<path d="M252.962 221.702H250.466V233.871H252.962V221.702Z" fill="#C47F0B"/>
<path d="M243.538 225.277H241.043V236.322H243.538V225.277Z" fill="#C47F0B"/>
<path d="M232.007 226.241H229.511V239.052H232.007V226.241Z" fill="#C47F0B"/>
<path d="M209.589 226.522H207.094V239.655H209.589V226.522Z" fill="#C47F0B"/>
<path d="M221.336 226.643H218.841V239.454H221.336V226.643Z" fill="#C47F0B"/>
<path d="M179.555 220.778H177.059V232.867H179.555V220.778Z" fill="#C47F0B"/>
<path d="M205.587 218.45C205.587 218.45 230.2 220.096 236.31 218.45C236.31 218.45 219.099 213.911 205.587 218.45Z" fill="#FFCF00"/>
<path d="M260.406 193.108H171.379C170.808 193.108 170.261 193.32 169.857 193.697C169.454 194.073 169.227 194.584 169.227 195.116V205.679C169.227 214.916 194.786 220.418 217.979 220.418C241.172 220.418 262.557 214.434 262.557 205.398V195.116C262.546 194.587 262.316 194.082 261.915 193.708C261.514 193.334 260.973 193.119 260.406 193.108Z" fill="#FFB700"/>
<path d="M186.224 204.394H183.728V216.482H186.224V204.394Z" fill="#C47F0B"/>
<path d="M216.43 222.465C196.594 222.465 167.076 218.008 167.076 205.718V194.072C167.076 192.024 168.754 189.052 171.379 189.052L260.406 190.578C261.547 190.578 262.642 191.001 263.449 191.754C264.256 192.507 264.709 193.529 264.709 194.594V205.437C264.709 216.562 240.398 222.465 216.43 222.465ZM171.766 193.028C171.568 193.336 171.437 193.677 171.379 194.032V205.678C171.379 212.465 192.42 218.409 216.43 218.409C240.441 218.409 260.406 212.465 260.406 205.397V194.554L171.766 193.028Z" fill="#C47F0B"/>
<path d="M215.871 206.161C240.443 206.161 260.363 200.767 260.363 194.113C260.363 187.459 240.443 182.064 215.871 182.064C191.298 182.064 171.378 187.459 171.378 194.113C171.378 200.767 191.298 206.161 215.871 206.161Z" fill="#FFCF00"/>
<path d="M215.871 206.161C240.443 206.161 260.363 200.767 260.363 194.113C260.363 187.459 240.443 182.064 215.871 182.064C191.298 182.064 171.378 187.459 171.378 194.113C171.378 200.767 191.298 206.161 215.871 206.161Z" fill="url(#paint12_linear_140:21323)"/>
<path d="M216.259 201.342C193.496 201.342 183.255 197.326 179.339 195.157C177.059 193.832 178.049 192.949 178.823 192.426C182.395 189.856 193.152 186.081 215.871 186.081C238.591 186.081 251.37 190.619 254.598 193.27C255.2 193.752 254.598 194.434 252.747 195.84C249.348 198.37 239.322 201.342 216.259 201.342Z" fill="#FBBB00"/>
<path d="M189.021 190.698C198.953 189.922 208.932 189.801 218.883 190.337C226.671 190.618 235.32 191.662 245.561 192.626C236.493 189.593 226.924 188.07 217.291 188.128C207.779 187.449 198.213 188.318 189.021 190.698Z" fill="#FFCF00"/>
<path d="M217.678 208.771C193.367 208.771 167.076 203.068 167.076 193.831C167.076 184.595 191.645 179.494 215.871 179.494C240.096 179.494 264.709 184.434 264.709 193.831C264.709 203.229 240.484 208.771 217.678 208.771ZM215.871 183.51C188.719 183.51 171.379 189.615 171.379 193.831C171.379 198.048 190.828 204.755 217.678 204.755C244.528 204.755 260.406 198.41 260.406 193.831C260.406 189.253 242.893 183.51 215.871 183.51Z" fill="#C47F0B"/>
<path d="M195.432 205.478H192.937V218.088H195.432V205.478Z" fill="#C47F0B"/>
<path d="M251.285 202.226H248.789V214.394H251.285V202.226Z" fill="#C47F0B"/>
<path d="M241.904 205.799H239.408V216.843H241.904V205.799Z" fill="#C47F0B"/>
<path d="M230.329 206.764H227.833V219.575H230.329V206.764Z" fill="#C47F0B"/>
<path d="M207.911 207.044H205.415V220.217H207.911V207.044Z" fill="#C47F0B"/>
<path d="M219.658 207.165H217.162V219.976H219.658V207.165Z" fill="#C47F0B"/>
<path d="M177.876 201.302H175.38V213.39H177.876V201.302Z" fill="#C47F0B"/>
<path d="M203.909 198.771C203.909 198.771 228.522 200.418 234.632 198.771C234.632 198.771 217.42 194.353 203.909 198.771Z" fill="#FFCF00"/>
<path d="M258.986 171.662H169.958C169.391 171.672 168.85 171.887 168.449 172.262C168.048 172.636 167.818 173.141 167.807 173.67V184.232C167.807 193.469 193.366 198.971 216.559 198.971C239.752 198.971 261.137 193.148 261.137 183.951V173.67C261.137 173.406 261.082 173.145 260.974 172.902C260.865 172.658 260.707 172.437 260.507 172.25C260.307 172.064 260.07 171.916 259.809 171.815C259.548 171.714 259.268 171.662 258.986 171.662Z" fill="#FFB700"/>
<path d="M184.804 182.908H182.308V194.997H184.804V182.908Z" fill="#C47F0B"/>
<path d="M215.01 200.979C195.174 200.979 165.656 196.521 165.656 184.232V172.586C165.656 170.537 167.334 167.565 169.958 167.565L259.029 169.092C260.17 169.092 261.265 169.515 262.072 170.268C262.879 171.021 263.332 172.042 263.332 173.108V183.951C263.289 195.116 239.02 200.979 215.01 200.979ZM170.346 171.581C170.148 171.89 170.017 172.231 169.958 172.586V184.232C169.958 191.019 191.043 196.963 215.01 196.963C238.977 196.963 258.986 191.019 258.986 183.951V173.108L170.346 171.581Z" fill="#C47F0B"/>
<path d="M214.494 184.715C239.067 184.715 258.987 179.32 258.987 172.666C258.987 166.012 239.067 160.618 214.494 160.618C189.922 160.618 170.002 166.012 170.002 172.666C170.002 179.32 189.922 184.715 214.494 184.715Z" fill="#FFCF00"/>
<path d="M214.494 184.715C239.067 184.715 258.987 179.32 258.987 172.666C258.987 166.012 239.067 160.618 214.494 160.618C189.922 160.618 170.002 166.012 170.002 172.666C170.002 179.32 189.922 184.715 214.494 184.715Z" fill="url(#paint13_linear_140:21323)"/>
<path d="M214.881 179.895C192.076 179.895 181.835 175.879 177.962 173.71C175.639 172.385 176.628 171.501 177.403 170.979C181.017 168.409 191.775 164.634 214.494 164.634C237.214 164.634 249.95 169.132 253.22 171.823C253.823 172.304 253.22 172.987 251.37 174.393C247.971 176.802 237.945 179.895 214.881 179.895Z" fill="#FBBB00"/>
<path d="M253.264 171.823C249.95 169.132 237.644 164.634 214.537 164.634C208.556 164.634 203.479 164.915 199.047 165.317C202.102 165.317 205.415 165.076 209.073 165.076C232.222 165.076 246.422 169.092 249.735 171.823C250.338 172.304 250.725 172.907 248.703 174.312C241.775 177.458 234.237 179.261 226.543 179.614C241.517 178.77 248.66 176.361 251.457 174.393C253.436 172.987 253.866 172.304 253.264 171.823Z" fill="#C47F0B"/>
<path d="M187.601 169.252C197.614 168.4 207.679 168.212 217.721 168.69C225.509 168.971 234.158 170.015 244.399 170.979C235.315 167.95 225.733 166.428 216.086 166.481C206.49 165.823 196.845 166.761 187.601 169.252Z" fill="#FFCF00"/>
<path d="M216.301 187.326C191.946 187.326 165.656 181.624 165.656 172.387C165.656 163.15 190.225 158.21 214.494 158.21C238.762 158.21 263.289 163.11 263.289 172.547C263.289 181.985 239.063 187.326 216.301 187.326ZM214.494 162.226C187.299 162.226 169.958 168.33 169.958 172.547C169.958 176.764 189.408 183.471 216.301 183.471C243.194 183.471 258.986 177.126 258.986 172.547C258.986 167.969 241.645 162.226 214.494 162.226Z" fill="#C47F0B"/>
<path d="M194.055 184.032H191.559V196.643H194.055V184.032Z" fill="#C47F0B"/>
<path d="M249.907 180.779H247.411V192.948H249.907V180.779Z" fill="#C47F0B"/>
<path d="M240.483 184.354H237.988V195.398H240.483V184.354Z" fill="#C47F0B"/>
<path d="M228.909 185.318H226.413V198.13H228.909V185.318Z" fill="#C47F0B"/>
<path d="M206.491 185.599H203.995V198.771H206.491V185.599Z" fill="#C47F0B"/>
<path d="M218.238 185.719H215.742V198.53H218.238V185.719Z" fill="#C47F0B"/>
<path d="M176.498 179.855H174.003V191.944H176.498V179.855Z" fill="#C47F0B"/>
<path d="M202.489 177.325C202.489 177.325 227.101 178.972 233.211 177.325C233.211 177.325 216 172.988 202.489 177.325Z" fill="#FFCF00"/>
<path d="M262.085 150.177H173.057C172.486 150.177 171.939 150.388 171.536 150.765C171.132 151.141 170.906 151.652 170.906 152.185V162.747C170.906 171.944 196.422 177.486 219.615 177.486C242.807 177.486 264.408 171.743 264.408 162.506V152.265C264.421 151.98 264.37 151.697 264.256 151.432C264.143 151.168 263.971 150.929 263.751 150.732C263.531 150.534 263.269 150.382 262.982 150.287C262.694 150.191 262.389 150.153 262.085 150.177Z" fill="#FFB700"/>
<path d="M187.902 161.502H185.407V173.59H187.902V161.502Z" fill="#C47F0B"/>
<path d="M218.109 179.574C198.272 179.574 168.754 175.116 168.754 162.827V151.14C168.754 149.092 170.432 146.12 173.057 146.12L262.085 147.686C263.226 147.686 264.32 148.11 265.127 148.863C265.934 149.616 266.388 150.637 266.388 151.702V162.506C266.388 173.71 242.076 179.574 218.109 179.574ZM173.444 150.176C173.224 150.459 173.09 150.792 173.057 151.14V162.827C173.057 169.574 194.098 175.558 218.109 175.558C242.119 175.558 262.085 169.574 262.085 162.506V151.702L173.444 150.176Z" fill="#C47F0B"/>
<path d="M217.549 163.308C242.122 163.308 262.041 157.914 262.041 151.26C262.041 144.606 242.122 139.212 217.549 139.212C192.977 139.212 173.057 144.606 173.057 151.26C173.057 157.914 192.977 163.308 217.549 163.308Z" fill="#FFCF00"/>
<path d="M217.549 163.308C242.122 163.308 262.041 157.914 262.041 151.26C262.041 144.606 242.122 139.212 217.549 139.212C192.977 139.212 173.057 144.606 173.057 151.26C173.057 157.914 192.977 163.308 217.549 163.308Z" fill="url(#paint14_linear_140:21323)"/>
<path d="M217.936 158.49C195.174 158.49 184.933 154.473 181.017 152.265C178.736 150.939 179.683 150.096 180.458 149.534C184.072 147.004 194.829 143.229 217.549 143.229C240.268 143.229 253.048 147.727 256.275 150.377C256.878 150.859 256.275 151.542 254.425 152.947C251.026 155.357 241 158.49 217.936 158.49Z" fill="#FBBB00"/>
<path d="M256.362 150.378C253.048 147.727 240.699 143.229 217.635 143.229C212.477 143.2 207.32 143.428 202.188 143.912C205.243 143.912 208.513 143.631 212.171 143.631C235.32 143.631 249.563 147.647 252.876 150.378C253.479 150.859 253.823 151.502 251.8 152.908C244.858 156.053 237.306 157.856 229.597 158.209C244.529 157.365 251.671 154.956 254.511 152.988C256.534 151.542 256.964 150.859 256.362 150.378Z" fill="#C47F0B"/>
<path d="M190.656 147.808C200.669 146.955 210.734 146.768 220.776 147.246C228.564 147.567 237.213 148.611 247.454 149.575C238.393 146.513 228.821 144.977 219.184 145.037C209.574 144.401 199.919 145.339 190.656 147.808Z" fill="#FFCF00"/>
<path d="M219.357 165.92C195.002 165.92 168.754 160.177 168.754 150.94C168.754 141.703 193.281 136.603 217.549 136.603C241.818 136.603 266.388 141.542 266.388 150.94C266.388 160.337 242.162 165.92 219.357 165.92ZM217.549 140.619C190.398 140.619 173.057 146.763 173.057 150.94C173.057 155.117 192.506 161.904 219.357 161.904C246.207 161.904 262.085 155.518 262.085 150.94C262.085 146.362 244.744 140.619 217.549 140.619Z" fill="#C47F0B"/>
<path d="M197.11 162.626H194.614V175.236H197.11V162.626Z" fill="#C47F0B"/>
<path d="M252.962 159.333H250.466V171.502H252.962V159.333Z" fill="#C47F0B"/>
<path d="M243.538 162.947H241.043V173.991H243.538V162.947Z" fill="#C47F0B"/>
<path d="M232.007 163.871H229.511V176.682H232.007V163.871Z" fill="#C47F0B"/>
<path d="M209.589 164.153H207.094V177.326H209.589V164.153Z" fill="#C47F0B"/>
<path d="M221.336 164.273H218.841V177.085H221.336V164.273Z" fill="#C47F0B"/>
<path d="M179.555 158.41H177.059V170.499H179.555V158.41Z" fill="#C47F0B"/>
<path d="M205.587 155.92C205.587 155.92 230.2 157.526 236.31 155.92C236.31 155.92 219.099 151.583 205.587 155.92Z" fill="#FFCF00"/>
<defs>
<filter id="filter0_d_140:21323" x="0.934814" y="0" width="402.566" height="346" filterUnits="userSpaceOnUse" color-interpolation-filters="sRGB">
<feFlood flood-opacity="0" result="BackgroundImageFix"/>
<feColorMatrix in="SourceAlpha" type="matrix" values="0 0 0 0 0 0 0 0 0 0 0 0 0 0 0 0 0 0 127 0" result="hardAlpha"/>
<feOffset/>
<feGaussianBlur stdDeviation="17"/>
<feComposite in2="hardAlpha" operator="out"/>
<feColorMatrix type="matrix" values="0 0 0 0 1 0 0 0 0 1 0 0 0 0 1 0 0 0 1 0"/>
<feBlend mode="normal" in2="BackgroundImageFix" result="effect1_dropShadow_140:21323"/>
<feBlend mode="normal" in="SourceGraphic" in2="effect1_dropShadow_140:21323" result="shape"/>
</filter>
<filter id="filter1_d_140:21323" x="0.934814" y="0" width="402.566" height="340" filterUnits="userSpaceOnUse" color-interpolation-filters="sRGB">
<feFlood flood-opacity="0" result="BackgroundImageFix"/>
<feColorMatrix in="SourceAlpha" type="matrix" values="0 0 0 0 0 0 0 0 0 0 0 0 0 0 0 0 0 0 127 0" result="hardAlpha"/>
<feOffset/>
<feGaussianBlur stdDeviation="17"/>
<feComposite in2="hardAlpha" operator="out"/>
<feColorMatrix type="matrix" values="0 0 0 0 1 0 0 0 0 0 0 0 0 0 0.9 0 0 0 0.85 0"/>
<feBlend mode="normal" in2="BackgroundImageFix" result="effect1_dropShadow_140:21323"/>
<feBlend mode="normal" in="SourceGraphic" in2="effect1_dropShadow_140:21323" result="shape"/>
</filter>
<filter id="filter2_d_140:21323" x="50.9783" y="363.749" width="274.51" height="148.117" filterUnits="userSpaceOnUse" color-interpolation-filters="sRGB">
<feFlood flood-opacity="0" result="BackgroundImageFix"/>
<feColorMatrix in="SourceAlpha" type="matrix" values="0 0 0 0 0 0 0 0 0 0 0 0 0 0 0 0 0 0 127 0" result="hardAlpha"/>
<feOffset dy="35"/>
<feGaussianBlur stdDeviation="12.5"/>
<feComposite in2="hardAlpha" operator="out"/>
<feColorMatrix type="matrix" values="0 0 0 0 0 0 0 0 0 0 0 0 0 0 0 0 0 0 0.2 0"/>
<feBlend mode="normal" in2="BackgroundImageFix" result="effect1_dropShadow_140:21323"/>
<feBlend mode="normal" in="SourceGraphic" in2="effect1_dropShadow_140:21323" result="shape"/>
</filter>
<filter id="filter3_d_140:21323" x="159.026" y="86.7109" width="130.225" height="133.104" filterUnits="userSpaceOnUse" color-interpolation-filters="sRGB">
<feFlood flood-opacity="0" result="BackgroundImageFix"/>
<feColorMatrix in="SourceAlpha" type="matrix" values="0 0 0 0 0 0 0 0 0 0 0 0 0 0 0 0 0 0 127 0" result="hardAlpha"/>
<feOffset/>
<feGaussianBlur stdDeviation="3"/>
<feComposite in2="hardAlpha" operator="out"/>
<feColorMatrix type="matrix" values="0 0 0 0 1 0 0 0 0 0 0 0 0 0 0.9 0 0 0 1 0"/>
<feBlend mode="normal" in2="BackgroundImageFix" result="effect1_dropShadow_140:21323"/>
<feBlend mode="normal" in="SourceGraphic" in2="effect1_dropShadow_140:21323" result="shape"/>
</filter>
<filter id="filter4_d_140:21323" x="95.0261" y="106.711" width="130.225" height="133.104" filterUnits="userSpaceOnUse" color-interpolation-filters="sRGB">
<feFlood flood-opacity="0" result="BackgroundImageFix"/>
<feColorMatrix in="SourceAlpha" type="matrix" values="0 0 0 0 0 0 0 0 0 0 0 0 0 0 0 0 0 0 127 0" result="hardAlpha"/>
<feOffset/>
<feGaussianBlur stdDeviation="3"/>
<feComposite in2="hardAlpha" operator="out"/>
<feColorMatrix type="matrix" values="0 0 0 0 1 0 0 0 0 0 0 0 0 0 0.9 0 0 0 1 0"/>
<feBlend mode="normal" in2="BackgroundImageFix" result="effect1_dropShadow_140:21323"/>
<feBlend mode="normal" in="SourceGraphic" in2="effect1_dropShadow_140:21323" result="shape"/>
</filter>
<filter id="filter5_d_140:21323" x="151.026" y="122.711" width="130.225" height="133.104" filterUnits="userSpaceOnUse" color-interpolation-filters="sRGB">
<feFlood flood-opacity="0" result="BackgroundImageFix"/>
<feColorMatrix in="SourceAlpha" type="matrix" values="0 0 0 0 0 0 0 0 0 0 0 0 0 0 0 0 0 0 127 0" result="hardAlpha"/>
<feOffset/>
<feGaussianBlur stdDeviation="3"/>
<feComposite in2="hardAlpha" operator="out"/>
<feColorMatrix type="matrix" values="0 0 0 0 1 0 0 0 0 0 0 0 0 0 0.9 0 0 0 1 0"/>
<feBlend mode="normal" in2="BackgroundImageFix" result="effect1_dropShadow_140:21323"/>
<feBlend mode="normal" in="SourceGraphic" in2="effect1_dropShadow_140:21323" result="shape"/>
</filter>
<linearGradient id="paint0_linear_140:21323" x1="202.25" y1="37" x2="202.25" y2="303" gradientUnits="userSpaceOnUse">
<stop stop-color="#050EA3"/>
<stop offset="1" stop-color="#00033A"/>
</linearGradient>
<linearGradient id="paint1_linear_140:21323" x1="317.875" y1="307" x2="147.875" y2="37" gradientUnits="userSpaceOnUse">
<stop stop-color="white"/>
<stop offset="1" stop-color="white" stop-opacity="0"/>
</linearGradient>
<linearGradient id="paint2_linear_140:21323" x1="89.8296" y1="347.919" x2="296.668" y2="443.952" gradientUnits="userSpaceOnUse">
<stop stop-color="#FFE600"/>
<stop offset="0.546374" stop-color="#FFC700"/>
<stop offset="0.9994" stop-color="#FFC700"/>
</linearGradient>
<linearGradient id="paint3_linear_140:21323" x1="246.16" y1="152.811" x2="183.374" y2="239.58" gradientUnits="userSpaceOnUse">
<stop stop-color="#FBBB00" stop-opacity="0.4"/>
<stop offset="1" stop-color="#C47F0B"/>
</linearGradient>
<linearGradient id="paint4_linear_140:21323" x1="2449.37" y1="526.065" x2="2289.87" y2="1285.79" gradientUnits="userSpaceOnUse">
<stop stop-color="#FBBB00" stop-opacity="0.4"/>
<stop offset="1" stop-color="#C47F0B"/>
</linearGradient>
<linearGradient id="paint5_linear_140:21323" x1="2419.52" y1="375.703" x2="2260.07" y2="1135.55" gradientUnits="userSpaceOnUse">
<stop stop-color="#FBBB00" stop-opacity="0.4"/>
<stop offset="1" stop-color="#C47F0B"/>
</linearGradient>
<linearGradient id="paint6_linear_140:21323" x1="2485.76" y1="225.863" x2="2326.26" y2="985.585" gradientUnits="userSpaceOnUse">
<stop stop-color="#FBBB00" stop-opacity="0.4"/>
<stop offset="1" stop-color="#C47F0B"/>
</linearGradient>
<linearGradient id="paint7_linear_140:21323" x1="182.16" y1="172.811" x2="119.374" y2="259.58" gradientUnits="userSpaceOnUse">
<stop stop-color="#FBBB00" stop-opacity="0.4"/>
<stop offset="1" stop-color="#C47F0B"/>
</linearGradient>
<linearGradient id="paint8_linear_140:21323" x1="2385.37" y1="546.065" x2="2225.87" y2="1305.79" gradientUnits="userSpaceOnUse">
<stop stop-color="#FBBB00" stop-opacity="0.4"/>
<stop offset="1" stop-color="#C47F0B"/>
</linearGradient>
<linearGradient id="paint9_linear_140:21323" x1="2355.52" y1="395.703" x2="2196.07" y2="1155.55" gradientUnits="userSpaceOnUse">
<stop stop-color="#FBBB00" stop-opacity="0.4"/>
<stop offset="1" stop-color="#C47F0B"/>
</linearGradient>
<linearGradient id="paint10_linear_140:21323" x1="2421.76" y1="245.863" x2="2262.26" y2="1005.59" gradientUnits="userSpaceOnUse">
<stop stop-color="#FBBB00" stop-opacity="0.4"/>
<stop offset="1" stop-color="#C47F0B"/>
</linearGradient>
<linearGradient id="paint11_linear_140:21323" x1="238.16" y1="188.811" x2="175.374" y2="275.58" gradientUnits="userSpaceOnUse">
<stop stop-color="#FBBB00" stop-opacity="0.4"/>
<stop offset="1" stop-color="#C47F0B"/>
</linearGradient>
<linearGradient id="paint12_linear_140:21323" x1="2441.37" y1="562.065" x2="2281.87" y2="1321.79" gradientUnits="userSpaceOnUse">
<stop stop-color="#FBBB00" stop-opacity="0.4"/>
<stop offset="1" stop-color="#C47F0B"/>
</linearGradient>
<linearGradient id="paint13_linear_140:21323" x1="2411.52" y1="411.703" x2="2252.07" y2="1171.55" gradientUnits="userSpaceOnUse">
<stop stop-color="#FBBB00" stop-opacity="0.4"/>
<stop offset="1" stop-color="#C47F0B"/>
</linearGradient>
<linearGradient id="paint14_linear_140:21323" x1="2477.76" y1="261.863" x2="2318.26" y2="1021.59" gradientUnits="userSpaceOnUse">
<stop stop-color="#FBBB00" stop-opacity="0.4"/>
<stop offset="1" stop-color="#C47F0B"/>
</linearGradient>
</defs>
</svg>
