<svg width="404" height="521" viewBox="0 0 404 521" fill="none" xmlns="http://www.w3.org/2000/svg">
<g filter="url(#filter0_d_140:21293)">
<g filter="url(#filter1_d_140:21293)">
<path d="M73.8782 45.5584C74.5941 40.6443 78.8078 37 83.7738 37H356.498C362.617 37 367.301 42.4461 366.385 48.4961L329.162 294.496C328.422 299.386 324.219 303 319.274 303H47.9373C41.8407 303 37.1629 297.591 38.0418 291.558L73.8782 45.5584Z" fill="url(#paint0_linear_140:21293)"/>
<path d="M73.8782 45.5584C74.5941 40.6443 78.8078 37 83.7738 37H356.498C362.617 37 367.301 42.4461 366.385 48.4961L329.162 294.496C328.422 299.386 324.219 303 319.274 303H47.9373C41.8407 303 37.1629 297.591 38.0418 291.558L73.8782 45.5584Z" stroke="#FF00E5" stroke-width="6"/>
</g>
<path d="M74.5538 40.9208C74.8818 38.6695 76.8121 37 79.0872 37H356.498C362.617 37 367.301 42.4461 366.385 48.4961L328.514 298.775C328.147 301.204 326.059 303 323.602 303H301.22C161.572 303 54.4228 179.111 74.5538 40.9208Z" fill="url(#paint1_linear_140:21293)" fill-opacity="0.1"/>
</g>
<g filter="url(#filter2_d_140:21293)">
<path d="M85.5368 397.385C88.1294 383.119 100.554 372.749 115.053 372.749H290.485C296.724 372.749 301.439 378.399 300.324 384.537L290.929 436.231C288.337 450.497 275.912 460.867 261.413 460.867H85.9811C79.7424 460.867 75.0268 455.217 76.1423 449.078L85.5368 397.385Z" fill="#FEDD87"/>
<path d="M86.5207 397.564C89.0269 383.773 101.037 373.749 115.053 373.749H290.485C296.1 373.749 300.344 378.834 299.34 384.358L289.945 436.052C287.439 449.842 275.429 459.867 261.413 459.867H85.9811C80.3663 459.867 76.1222 454.782 77.1262 449.257L86.5207 397.564Z" stroke="white" stroke-width="2"/>
</g>
<path d="M86.0707 392.636C88.6633 378.37 101.088 368 115.587 368H291.019C297.258 368 301.973 373.65 300.858 379.788L291.463 431.482C288.871 445.747 276.446 456.118 261.947 456.118H86.5151C80.2764 456.118 75.5607 450.468 76.6762 444.329L86.0707 392.636Z" fill="url(#paint2_linear_140:21293)"/>
<path d="M87.5203 390.815C89.1511 377.781 100.232 368 113.368 368H292.015L284.229 374.632H102.831L87.5203 390.815Z" fill="#FF8A00" fill-opacity="0.2"/>
<path d="M81.7402 418.918L83.8754 449.785L270.171 443.19L277.111 449.785L293.926 413.905L290.979 431.166C288.518 445.578 276.027 456.117 261.407 456.117H86.6571C80.3713 456.117 75.6441 450.386 76.8396 444.215L81.7402 418.918Z" fill="white" fill-opacity="0.26"/>
<path d="M87.0546 392.815C89.5608 379.024 101.571 369 115.587 369H291.019C296.634 369 300.878 374.085 299.874 379.609L290.479 431.303C287.973 445.093 275.963 455.118 261.947 455.118H86.5151C80.9002 455.118 76.6562 450.033 77.6601 444.508L87.0546 392.815Z" stroke="white" stroke-width="2"/>
<path d="M139.447 414.85C138.579 414.23 137.587 413.569 136.471 412.866C135.397 412.163 134.363 411.419 133.371 410.634C132.421 409.807 131.615 408.981 130.953 408.154C130.292 407.286 129.961 406.397 129.961 405.488C129.961 404.744 130.271 404.103 130.891 403.566C131.553 402.987 132.214 402.698 132.875 402.698C133.867 402.698 134.446 402.967 134.611 403.504C134.818 404 134.963 404.579 135.045 405.24C135.128 405.86 135.335 406.439 135.665 406.976C136.037 407.472 136.885 407.72 138.207 407.72C138.827 407.72 139.406 407.699 139.943 407.658C140.481 407.617 141.059 407.596 141.679 407.596H142.671C143.333 407.596 143.849 407.493 144.221 407.286C144.593 407.038 144.779 406.604 144.779 405.984C144.779 404.868 144.738 403.876 144.655 403.008C144.614 402.099 144.366 401.169 143.911 400.218C143.663 399.722 143.333 399.205 142.919 398.668C142.547 398.089 142.072 397.552 141.493 397.056C140.956 396.56 140.357 396.126 139.695 395.754C139.034 395.382 138.311 395.155 137.525 395.072C136.988 395.031 136.719 394.741 136.719 394.204V389.12C136.595 388.872 136.223 388.686 135.603 388.562C135.025 388.438 134.405 388.376 133.743 388.376C133.082 388.335 132.503 388.314 132.007 388.314C131.511 388.314 131.305 388.314 131.387 388.314C131.015 388.314 130.623 388.314 130.209 388.314C129.796 388.273 129.403 388.293 129.031 388.376C128.659 388.417 128.349 388.521 128.101 388.686C127.895 388.81 127.791 389.017 127.791 389.306C127.791 389.389 127.812 389.657 127.853 390.112C127.895 390.567 127.915 391.063 127.915 391.6C127.957 392.137 127.998 392.633 128.039 393.088C128.081 393.543 128.101 393.811 128.101 393.894C128.101 394.101 128.122 394.287 128.163 394.452C128.205 394.576 128.122 394.679 127.915 394.762C126.965 395.051 125.973 395.485 124.939 396.064C123.906 396.643 123.038 397.283 122.335 397.986C121.55 398.771 120.971 399.639 120.599 400.59C120.269 401.541 120.103 402.533 120.103 403.566C120.103 405.054 120.413 406.542 121.033 408.03C121.695 409.518 122.501 410.799 123.451 411.874C124.361 412.866 125.456 413.837 126.737 414.788C128.019 415.739 129.238 416.731 130.395 417.764C131.594 418.797 132.607 419.872 133.433 420.988C134.26 422.104 134.673 423.323 134.673 424.646C134.673 425.307 134.363 425.845 133.743 426.258C133.123 426.671 132.483 426.878 131.821 426.878C130.747 426.878 130.044 426.589 129.713 426.01C129.383 425.431 129.217 424.811 129.217 424.15C129.217 423.819 129.197 423.509 129.155 423.22C129.155 422.889 129.155 422.559 129.155 422.228C129.155 421.608 129.011 421.153 128.721 420.864C128.473 420.575 128.143 420.389 127.729 420.306C127.357 420.223 126.903 420.203 126.365 420.244C125.869 420.244 125.373 420.223 124.877 420.182C124.505 420.141 124.113 420.099 123.699 420.058C123.327 420.017 122.914 419.996 122.459 419.996C121.757 419.996 121.199 420.058 120.785 420.182C120.413 420.265 120.124 420.43 119.917 420.678C119.752 420.885 119.649 421.195 119.607 421.608C119.607 422.021 119.607 422.538 119.607 423.158C119.607 424.522 119.669 425.783 119.793 426.94C119.917 428.097 120.186 429.151 120.599 430.102C121.054 431.011 121.715 431.817 122.583 432.52C123.493 433.223 124.691 433.822 126.179 434.318C126.882 434.525 127.357 434.835 127.605 435.248C127.853 435.661 127.998 436.116 128.039 436.612C128.122 437.108 128.122 437.604 128.039 438.1C127.998 438.637 127.998 439.113 128.039 439.526C128.122 439.981 128.308 440.332 128.597 440.58C128.928 440.869 129.465 441.014 130.209 441.014H131.945C132.4 441.014 132.834 440.993 133.247 440.952C133.702 440.952 134.136 440.952 134.549 440.952C135.417 440.952 136.017 440.787 136.347 440.456C136.719 440.167 136.905 439.774 136.905 439.278V439.03C136.905 438.906 136.905 438.617 136.905 438.162C136.905 437.749 136.905 437.294 136.905 436.798C136.905 436.343 136.905 435.889 136.905 435.434C136.947 435.021 136.967 434.752 136.967 434.628C137.05 434.628 137.277 434.525 137.649 434.318C138.021 434.111 138.414 433.884 138.827 433.636C139.282 433.347 139.695 433.078 140.067 432.83C140.481 432.582 140.749 432.396 140.873 432.272C142.196 431.197 143.126 430.061 143.663 428.862C144.242 427.663 144.531 426.403 144.531 425.08C144.531 424.212 144.407 423.303 144.159 422.352C143.953 421.401 143.622 420.471 143.167 419.562C142.754 418.611 142.237 417.743 141.617 416.958C140.997 416.131 140.274 415.429 139.447 414.85ZM169.847 414.602C169.805 414.313 169.785 413.548 169.785 412.308C169.785 411.027 169.785 409.539 169.785 407.844C169.826 406.149 169.867 404.351 169.909 402.45C169.991 400.507 170.053 398.73 170.095 397.118C170.136 395.465 170.177 394.101 170.219 393.026C170.26 391.951 170.281 391.393 170.281 391.352H170.157C169.826 391.311 169.165 391.311 168.173 391.352C167.181 391.352 166.147 391.373 165.073 391.414C163.998 391.414 162.985 391.435 162.035 391.476C161.125 391.476 160.588 391.476 160.423 391.476C160.381 391.476 160.361 391.497 160.361 391.538C158.046 395.01 156.103 398.027 154.533 400.59C153.003 403.153 151.722 405.343 150.689 407.162C149.697 408.939 148.911 410.386 148.333 411.502C147.754 412.577 147.258 413.403 146.845 413.982C146.762 416.462 146.824 418.508 147.031 420.12C147.237 421.732 147.382 422.683 147.465 422.972C147.506 423.055 147.837 423.117 148.457 423.158C149.077 423.158 149.841 423.158 150.751 423.158C151.701 423.158 152.714 423.158 153.789 423.158C154.905 423.117 155.938 423.096 156.889 423.096C157.881 423.096 158.728 423.117 159.431 423.158C160.133 423.199 160.567 423.241 160.733 423.282C160.733 423.365 160.712 423.716 160.671 424.336C160.629 424.956 160.567 425.7 160.485 426.568C160.443 427.436 160.381 428.366 160.299 429.358C160.257 430.35 160.216 431.28 160.175 432.148C160.133 432.975 160.092 433.677 160.051 434.256C160.009 434.835 160.009 435.145 160.051 435.186C162.903 435.145 165.031 435.124 166.437 435.124C167.883 435.165 168.731 435.041 168.979 434.752C169.02 434.587 169.061 434.194 169.103 433.574C169.144 432.954 169.185 432.231 169.227 431.404C169.309 430.577 169.371 429.73 169.413 428.862C169.495 427.953 169.557 427.126 169.599 426.382C169.681 425.597 169.743 424.977 169.785 424.522C169.826 424.026 169.847 423.799 169.847 423.84C170.425 423.716 171.025 423.716 171.645 423.84C172.306 423.923 172.967 423.861 173.629 423.654L174.001 414.664C173.505 414.664 172.885 414.623 172.141 414.54C171.397 414.457 170.756 414.457 170.219 414.54L169.847 414.602ZM162.407 414.726C162.117 414.767 161.518 414.788 160.609 414.788C159.741 414.788 158.831 414.788 157.881 414.788C156.93 414.747 156.083 414.726 155.339 414.726C154.595 414.685 154.223 414.664 154.223 414.664C154.264 414.581 154.491 414.168 154.905 413.424C155.359 412.68 155.897 411.791 156.517 410.758C157.137 409.683 157.798 408.567 158.501 407.41C159.203 406.211 159.844 405.137 160.423 404.186C161.043 403.235 161.539 402.491 161.911 401.954C162.324 401.375 162.551 401.21 162.593 401.458L162.407 414.726ZM183.737 435V434.938V434.876C183.737 434.587 183.757 434.049 183.799 433.264C183.84 432.479 183.881 431.673 183.923 430.846C183.964 430.019 184.005 429.296 184.047 428.676C184.088 428.015 184.109 427.663 184.109 427.622C183.819 427.498 183.323 427.415 182.621 427.374C181.959 427.291 181.236 427.25 180.451 427.25C179.665 427.25 178.88 427.291 178.095 427.374C177.351 427.457 176.772 427.581 176.358 427.746C176.358 428.035 176.338 428.49 176.297 429.11C176.297 429.73 176.276 430.391 176.235 431.094C176.235 431.797 176.235 432.499 176.235 433.202C176.276 433.905 176.338 434.483 176.421 434.938H176.607L183.613 435H183.737ZM215.447 405.798C215.405 403.69 215.281 401.644 215.075 399.66C214.868 397.676 214.289 395.961 213.339 394.514C212.719 393.563 211.975 392.861 211.107 392.406C210.239 391.91 209.288 391.579 208.255 391.414C207.263 391.207 206.209 391.104 205.093 391.104C204.018 391.104 202.964 391.083 201.931 391.042C199.657 391.125 197.467 391.538 195.359 392.282C193.251 393.026 191.515 394.204 190.151 395.816C189.861 396.147 189.613 396.498 189.407 396.87C189.2 397.201 188.993 397.552 188.787 397.924C188.415 398.833 188.146 399.887 187.981 401.086C187.815 402.285 187.753 403.525 187.795 404.806C187.877 406.046 188.063 407.265 188.353 408.464C188.683 409.663 189.138 410.696 189.717 411.564C190.502 412.763 191.453 413.796 192.569 414.664C193.726 415.491 194.966 416.131 196.289 416.586C197.653 417.041 199.058 417.268 200.505 417.268C201.993 417.227 203.419 416.917 204.783 416.338L204.845 416.4C204.886 417.185 204.886 418.012 204.845 418.88C204.803 419.748 204.659 420.554 204.411 421.298C204.204 422.042 203.853 422.662 203.357 423.158C202.902 423.654 202.303 423.943 201.559 424.026C200.608 424.109 199.761 423.861 199.017 423.282C198.314 422.662 197.859 421.939 197.653 421.112C196.123 420.905 194.47 420.864 192.693 420.988C190.957 421.112 189.365 421.195 187.919 421.236V421.546C187.505 424.729 188.001 427.374 189.407 429.482C190.109 430.515 191.039 431.425 192.197 432.21C193.395 432.995 194.697 433.636 196.103 434.132C197.549 434.628 199.058 434.959 200.629 435.124C202.199 435.331 203.708 435.331 205.155 435.124C206.643 434.917 208.027 434.525 209.309 433.946C210.59 433.326 211.665 432.499 212.533 431.466C213.401 430.267 214.083 428.965 214.579 427.56C215.075 426.113 215.426 424.625 215.633 423.096C215.798 421.732 215.839 420.389 215.757 419.066C215.674 417.702 215.612 416.338 215.571 414.974L215.447 405.798ZM206.023 405.116C205.94 405.323 205.899 405.467 205.899 405.55C205.899 405.591 205.857 405.715 205.775 405.922C205.692 406.087 205.63 406.211 205.589 406.294C205.589 406.335 205.527 406.459 205.403 406.666C205.072 407.162 204.597 407.534 203.977 407.782C203.398 408.03 202.778 408.133 202.117 408.092C201.497 408.051 200.877 407.865 200.257 407.534C199.678 407.203 199.244 406.728 198.955 406.108V406.046C198.831 405.715 198.727 405.364 198.645 404.992C198.603 404.579 198.562 404.165 198.521 403.752C198.521 403.132 198.707 402.636 199.079 402.264C199.451 401.892 199.905 401.603 200.443 401.396C201.063 401.107 201.724 400.983 202.427 401.024C203.129 401.024 203.749 401.169 204.287 401.458C204.865 401.747 205.32 402.14 205.651 402.636C205.981 403.132 206.126 403.69 206.085 404.31C206.085 404.641 206.064 404.909 206.023 405.116ZM247.234 405.798C247.192 403.69 247.068 401.644 246.862 399.66C246.655 397.676 246.076 395.961 245.126 394.514C244.506 393.563 243.762 392.861 242.894 392.406C242.026 391.91 241.075 391.579 240.042 391.414C239.05 391.207 237.996 391.104 236.88 391.104C235.805 391.104 234.751 391.083 233.718 391.042C231.444 391.125 229.254 391.538 227.146 392.282C225.038 393.026 223.302 394.204 221.938 395.816C221.648 396.147 221.4 396.498 221.194 396.87C220.987 397.201 220.78 397.552 220.574 397.924C220.202 398.833 219.933 399.887 219.768 401.086C219.602 402.285 219.54 403.525 219.582 404.806C219.664 406.046 219.85 407.265 220.14 408.464C220.47 409.663 220.925 410.696 221.504 411.564C222.289 412.763 223.24 413.796 224.356 414.664C225.513 415.491 226.753 416.131 228.076 416.586C229.44 417.041 230.845 417.268 232.292 417.268C233.78 417.227 235.206 416.917 236.57 416.338L236.632 416.4C236.673 417.185 236.673 418.012 236.632 418.88C236.59 419.748 236.446 420.554 236.198 421.298C235.991 422.042 235.64 422.662 235.144 423.158C234.689 423.654 234.09 423.943 233.346 424.026C232.395 424.109 231.548 423.861 230.804 423.282C230.101 422.662 229.646 421.939 229.44 421.112C227.91 420.905 226.257 420.864 224.48 420.988C222.744 421.112 221.152 421.195 219.706 421.236V421.546C219.292 424.729 219.788 427.374 221.194 429.482C221.896 430.515 222.826 431.425 223.984 432.21C225.182 432.995 226.484 433.636 227.89 434.132C229.336 434.628 230.845 434.959 232.416 435.124C233.986 435.331 235.495 435.331 236.942 435.124C238.43 434.917 239.814 434.525 241.096 433.946C242.377 433.326 243.452 432.499 244.32 431.466C245.188 430.267 245.87 428.965 246.366 427.56C246.862 426.113 247.213 424.625 247.42 423.096C247.585 421.732 247.626 420.389 247.544 419.066C247.461 417.702 247.399 416.338 247.358 414.974L247.234 405.798ZM237.81 405.116C237.727 405.323 237.686 405.467 237.686 405.55C237.686 405.591 237.644 405.715 237.562 405.922C237.479 406.087 237.417 406.211 237.376 406.294C237.376 406.335 237.314 406.459 237.19 406.666C236.859 407.162 236.384 407.534 235.764 407.782C235.185 408.03 234.565 408.133 233.904 408.092C233.284 408.051 232.664 407.865 232.044 407.534C231.465 407.203 231.031 406.728 230.742 406.108V406.046C230.618 405.715 230.514 405.364 230.432 404.992C230.39 404.579 230.349 404.165 230.308 403.752C230.308 403.132 230.494 402.636 230.866 402.264C231.238 401.892 231.692 401.603 232.23 401.396C232.85 401.107 233.511 400.983 234.214 401.024C234.916 401.024 235.536 401.169 236.074 401.458C236.652 401.747 237.107 402.14 237.438 402.636C237.768 403.132 237.913 403.69 237.872 404.31C237.872 404.641 237.851 404.909 237.81 405.116Z" fill="black"/>
<path d="M276.511 140.943C276.621 140.207 276.497 139.442 276.098 138.794L258.407 110.629C257.994 109.967 257.348 109.511 256.605 109.363L212.831 100.505C212.101 100.358 211.331 100.534 210.726 100.99L184.629 120.297C183.157 121.518 183.46 123.196 183.473 123.284C183.473 123.314 183.473 123.343 183.473 123.372C183.528 123.682 183.638 123.976 183.79 124.241C183.79 124.255 183.79 124.255 183.804 124.27L218.113 186.693C218.127 186.707 218.141 186.722 218.141 186.737C218.265 186.958 218.416 187.178 218.595 187.355C218.595 187.355 218.595 187.37 218.608 187.37C218.677 187.443 218.76 187.473 218.829 187.546C218.897 187.605 218.966 187.664 219.035 187.708C219.104 187.752 219.159 187.811 219.241 187.855C219.475 187.988 219.737 188.076 219.998 188.135C220.259 188.194 220.521 188.194 220.796 188.164C220.878 188.15 220.961 188.12 221.043 188.105C221.126 188.091 221.209 188.061 221.291 188.032C221.374 188.002 221.47 188.002 221.566 187.958C221.566 187.958 221.566 187.958 221.58 187.958C221.814 187.855 222.02 187.723 222.227 187.561C222.24 187.546 222.254 187.546 222.268 187.546L222.282 187.532L275.507 142.841C275.521 142.841 275.521 142.826 275.521 142.812C275.741 142.62 275.947 142.399 276.112 142.135C276.126 142.105 276.14 142.076 276.153 142.046C276.195 141.973 276.222 141.884 276.264 141.796C276.36 141.561 276.511 140.943 276.511 140.943Z" fill="url(#paint3_linear_140:21293)"/>
<g filter="url(#filter3_d_140:21293)">
<path d="M220.508 197.214C219.806 197.214 219.118 197.14 218.444 197.008C217.371 196.787 216.353 196.419 215.404 195.889L214.207 195.109C214.152 195.065 214.097 195.036 214.056 194.992L213.574 194.668L211.634 192.696L210.864 191.342L175.963 127.993L175.798 127.286C175.55 126.639 175.357 125.962 175.22 125.285L175.027 123.637C174.821 120.223 175.894 116.103 179.443 113.145L179.828 112.85L205.898 93.5438C208.374 91.7191 211.469 91.0128 214.399 91.6161L258.174 100.475C261.118 101.063 263.759 102.932 265.424 105.596L283.115 133.761C284.697 136.277 285.316 139.338 284.848 142.384L284.683 143.208C284.395 144.4 284.119 145.121 283.941 145.519L283.624 146.225C283.5 146.49 283.349 146.755 283.198 147.02C282.785 147.696 282.317 148.314 281.794 148.888L281.354 149.492L280.46 150.139L226.849 195.124C226.602 195.301 226.34 195.477 226.093 195.639L225.969 195.713C225.57 195.948 225.171 196.154 224.745 196.331L223.314 196.802C223.218 196.831 223.121 196.861 223.025 196.875L221.704 197.125C221.292 197.199 220.893 197.214 220.508 197.214ZM193.764 124.534L222.131 176.141L266.153 139.176L252.712 117.78L213.588 109.863L193.764 124.534ZM251.392 115.676C251.392 115.69 251.392 115.69 251.392 115.676V115.676ZM211.249 109.392H211.263H211.249Z" fill="url(#paint4_linear_140:21293)"/>
</g>
<path d="M276.621 140.972C276.649 140.236 276.498 139.456 276.099 138.809L258.407 110.629C257.995 109.967 257.348 109.511 256.605 109.363L212.831 100.505C212.102 100.358 211.331 100.534 210.726 100.99L184.629 120.297C184.038 120.621 183.515 121.607 183.432 122.122C183.377 122.49 183.267 123.269 183.79 124.241C183.79 124.255 183.79 124.255 183.804 124.27L218.113 186.693C218.457 187.223 219.888 189.592 222.461 187.826C223.382 187.193 275.507 142.826 275.507 142.826C275.521 142.826 275.521 142.812 275.521 142.797C275.755 142.606 276.58 141.767 276.621 140.972Z" fill="white"/>
<path d="M220.672 193.329C218.292 193.329 216.022 192.02 214.399 189.503L214.193 189.165L179.525 126.021C178.906 124.697 178.672 123.049 178.948 121.327C179.223 119.635 180.337 117.398 182.194 116.206L208.126 96.9877C209.722 95.7958 211.744 95.3396 213.656 95.7369L257.444 104.596C259.357 104.978 261.09 106.2 262.177 107.936L279.868 136.101C280.79 137.573 281.23 139.324 281.161 141.193V141.207C281.065 143.488 279.772 145.195 278.919 146.064L278.713 146.373L278.19 146.74C243.577 176.215 225.652 191.402 224.909 191.917C223.534 192.858 222.089 193.329 220.672 193.329ZM188.536 123.314L221.209 182.764C227.207 177.731 253.097 155.717 271.435 140.104L255.051 113.984L212.693 105.42L188.536 123.314ZM276.621 140.972H276.649H276.621Z" fill="white"/>
<path d="M207.314 130.068L185.702 125.698C184.588 125.477 183.721 124.564 183.487 123.372C183.253 122.195 183.707 120.974 184.629 120.297L210.712 100.99C211.331 100.534 212.088 100.358 212.817 100.505L223.63 102.697C224.579 102.889 225.377 103.595 225.721 104.566C226.065 105.537 225.927 106.626 225.336 107.45L210.052 128.935C209.419 129.847 208.36 130.274 207.314 130.068Z" fill="#40D7FF"/>
<path d="M207.314 130.068L185.702 125.698C184.588 125.477 183.721 124.564 183.487 123.372C183.253 122.195 183.707 120.974 184.629 120.297L210.712 100.99C211.331 100.534 212.088 100.358 212.817 100.505L223.63 102.697C224.579 102.889 225.377 103.595 225.721 104.566C226.065 105.537 225.927 106.626 225.336 107.45L210.052 128.935C209.419 129.847 208.36 130.274 207.314 130.068Z" fill="url(#paint5_linear_140:21293)"/>
<path d="M273.264 143.415L251.652 139.045C250.607 138.839 249.768 138.015 249.479 136.926L242.6 110.938C242.339 109.938 242.573 108.864 243.233 108.098C243.894 107.333 244.87 106.98 245.819 107.171L256.632 109.364C257.362 109.511 258.022 109.967 258.435 110.629L276.126 138.795C276.759 139.795 276.759 141.105 276.14 142.106C275.493 143.121 274.365 143.636 273.264 143.415Z" fill="#40D7FF"/>
<path d="M204.769 126.433L223.63 102.697L245.792 107.185L255.202 136.631L204.769 126.433Z" fill="#D2F0FF"/>
<path d="M249.204 135.424L218.223 183.484C217.439 184.706 217.604 186.354 218.609 187.369C219.008 187.766 219.489 188.031 219.998 188.134C220.768 188.296 221.594 188.105 222.24 187.546L275.493 142.84C276.057 142.369 276.415 141.693 276.525 140.972L249.204 135.424Z" fill="#00A4CF"/>
<path d="M257.375 140.486L263.814 145.754L237.345 172.845L273.265 143.415L257.375 140.486Z" fill="#40D7FF"/>
<path d="M210.822 127.654L183.487 122.121C183.336 122.842 183.446 123.607 183.804 124.27L218.113 186.692C218.54 187.457 219.241 187.958 220.012 188.12C220.521 188.223 221.057 188.178 221.566 187.958C222.846 187.413 223.561 185.942 223.245 184.5L210.822 127.654Z" fill="#2BBFFF"/>
<path d="M204.769 126.434L217.797 185.869C218.044 187.017 218.911 187.9 219.998 188.12C221.085 188.341 222.185 187.856 222.818 186.884L255.202 136.631L204.769 126.434Z" fill="#8CE7FF"/>
<path d="M229.986 131.539L255.202 136.631L245.792 107.17L234.69 104.919L229.986 131.539Z" fill="#2BBFFF"/>
<path d="M219.998 188.12C221.085 188.34 222.186 187.855 222.818 186.884L255.202 136.631L230.013 131.539L219.998 188.12Z" fill="#40D7FF"/>
<path d="M220.658 190.283C219.186 190.283 217.824 189.43 216.751 187.767L182.345 125.182C182.318 125.124 182.29 125.065 182.263 125.006C181.479 123.564 181.699 122.239 181.768 121.813C181.919 120.9 182.662 119.311 183.872 118.664L209.749 99.4894C210.726 98.7683 211.978 98.4888 213.133 98.7242L256.921 107.583C258.091 107.818 259.15 108.569 259.81 109.628L277.502 137.794C278.079 138.721 278.355 139.839 278.313 141.046C278.245 142.576 277.061 143.768 276.663 144.136C276.594 144.209 276.511 144.268 276.442 144.327C267.844 151.655 224.331 188.694 223.382 189.356C222.46 189.974 221.552 190.283 220.658 190.283ZM185.331 123.49L219.571 185.78C220.218 186.766 220.672 186.913 221.552 186.31C222.818 185.339 260.058 153.671 274.393 141.472C274.461 141.414 274.53 141.355 274.599 141.296C274.64 141.252 274.874 140.957 274.943 140.795C274.943 140.413 274.86 140.06 274.709 139.81L257.004 111.644C256.839 111.379 256.577 111.203 256.289 111.144L212.514 102.285C212.225 102.226 211.923 102.3 211.675 102.477L185.592 121.783C185.331 121.975 185.138 122.298 185.097 122.46C185.069 122.622 185.028 122.902 185.262 123.314C185.276 123.372 185.303 123.431 185.331 123.49ZM276.621 140.972H276.649H276.621Z" fill="#00A4CF"/>
<path d="M189.953 126.065L197.395 140.486L195.758 130.377L202.939 127.949L189.953 126.065Z" fill="#40D7FF"/>
<path d="M222.511 195.943C222.621 195.207 222.497 194.442 222.098 193.794L204.407 165.629C203.994 164.967 203.348 164.511 202.605 164.363L158.831 155.505C158.101 155.358 157.331 155.534 156.726 155.99L130.629 175.297C129.157 176.518 129.46 178.196 129.473 178.284C129.473 178.314 129.473 178.343 129.473 178.372C129.528 178.682 129.638 178.976 129.79 179.241C129.79 179.255 129.79 179.255 129.804 179.27L164.113 241.693C164.127 241.707 164.141 241.722 164.141 241.737C164.265 241.958 164.416 242.178 164.595 242.355C164.595 242.355 164.595 242.37 164.608 242.37C164.677 242.443 164.76 242.473 164.829 242.546C164.897 242.605 164.966 242.664 165.035 242.708C165.104 242.752 165.159 242.811 165.241 242.855C165.475 242.988 165.737 243.076 165.998 243.135C166.259 243.194 166.521 243.194 166.796 243.164C166.878 243.15 166.961 243.12 167.043 243.105C167.126 243.091 167.209 243.061 167.291 243.032C167.374 243.002 167.47 243.002 167.566 242.958C167.566 242.958 167.566 242.958 167.58 242.958C167.814 242.855 168.02 242.723 168.227 242.561C168.24 242.546 168.254 242.546 168.268 242.546L168.282 242.532L221.507 197.841C221.521 197.841 221.521 197.826 221.521 197.812C221.741 197.62 221.947 197.399 222.112 197.135C222.126 197.105 222.14 197.076 222.153 197.046C222.195 196.973 222.222 196.884 222.264 196.796C222.36 196.561 222.511 195.943 222.511 195.943Z" fill="url(#paint6_linear_140:21293)"/>
<g filter="url(#filter4_d_140:21293)">
<path d="M166.508 252.214C165.806 252.214 165.118 252.14 164.444 252.008C163.371 251.787 162.353 251.419 161.404 250.889L160.207 250.109C160.152 250.065 160.097 250.036 160.056 249.992L159.574 249.668L157.634 247.696L156.864 246.342L121.963 182.993L121.798 182.286C121.55 181.639 121.357 180.962 121.22 180.285L121.027 178.637C120.821 175.223 121.894 171.103 125.443 168.145L125.828 167.85L151.898 148.544C154.374 146.719 157.469 146.013 160.399 146.616L204.174 155.475C207.118 156.063 209.759 157.932 211.424 160.596L229.115 188.761C230.697 191.277 231.316 194.338 230.848 197.384L230.683 198.208C230.395 199.4 230.119 200.121 229.941 200.519L229.624 201.225C229.5 201.49 229.349 201.755 229.198 202.02C228.785 202.696 228.317 203.314 227.794 203.888L227.354 204.492L226.46 205.139L172.849 250.124C172.602 250.301 172.34 250.477 172.093 250.639L171.969 250.713C171.57 250.948 171.171 251.154 170.745 251.331L169.314 251.802C169.218 251.831 169.121 251.861 169.025 251.875L167.704 252.125C167.292 252.199 166.893 252.214 166.508 252.214ZM139.764 179.534L168.131 231.141L212.153 194.176L198.712 172.78L159.588 164.863L139.764 179.534ZM197.392 170.676C197.392 170.69 197.392 170.69 197.392 170.676V170.676ZM157.249 164.392H157.263H157.249Z" fill="url(#paint7_linear_140:21293)"/>
</g>
<path d="M222.621 195.972C222.649 195.236 222.498 194.456 222.099 193.809L204.407 165.629C203.995 164.967 203.348 164.511 202.605 164.363L158.831 155.505C158.102 155.358 157.331 155.534 156.726 155.99L130.629 175.297C130.038 175.621 129.515 176.607 129.432 177.122C129.377 177.49 129.267 178.269 129.79 179.241C129.79 179.255 129.79 179.255 129.804 179.27L164.113 241.693C164.457 242.223 165.888 244.592 168.461 242.826C169.382 242.193 221.507 197.826 221.507 197.826C221.521 197.826 221.521 197.812 221.521 197.797C221.755 197.606 222.58 196.767 222.621 195.972Z" fill="white"/>
<path d="M166.672 248.329C164.292 248.329 162.022 247.02 160.399 244.503L160.193 244.165L125.525 181.021C124.906 179.697 124.672 178.049 124.948 176.327C125.223 174.635 126.337 172.398 128.194 171.206L154.126 151.988C155.722 150.796 157.744 150.34 159.656 150.737L203.444 159.596C205.357 159.978 207.09 161.2 208.177 162.936L225.868 191.101C226.79 192.573 227.23 194.324 227.161 196.193V196.207C227.065 198.488 225.772 200.195 224.919 201.064L224.713 201.373L224.19 201.74C189.577 231.215 171.652 246.402 170.909 246.917C169.534 247.858 168.089 248.329 166.672 248.329ZM134.536 178.314L167.209 237.764C173.207 232.731 199.097 210.717 217.435 195.104L201.051 168.984L158.693 160.42L134.536 178.314ZM222.621 195.972H222.649H222.621Z" fill="white"/>
<path d="M153.314 185.068L131.702 180.698C130.588 180.477 129.721 179.564 129.487 178.372C129.253 177.195 129.707 175.974 130.629 175.297L156.712 155.99C157.331 155.534 158.088 155.358 158.817 155.505L169.63 157.697C170.579 157.889 171.377 158.595 171.721 159.566C172.065 160.537 171.927 161.626 171.336 162.45L156.052 183.935C155.419 184.847 154.36 185.274 153.314 185.068Z" fill="#40D7FF"/>
<path d="M153.314 185.068L131.702 180.698C130.588 180.477 129.721 179.564 129.487 178.372C129.253 177.195 129.707 175.974 130.629 175.297L156.712 155.99C157.331 155.534 158.088 155.358 158.817 155.505L169.63 157.697C170.579 157.889 171.377 158.595 171.721 159.566C172.065 160.537 171.927 161.626 171.336 162.45L156.052 183.935C155.419 184.847 154.36 185.274 153.314 185.068Z" fill="url(#paint8_linear_140:21293)"/>
<path d="M219.264 198.415L197.652 194.045C196.607 193.839 195.768 193.015 195.479 191.926L188.6 165.938C188.339 164.938 188.573 163.864 189.233 163.098C189.894 162.333 190.87 161.98 191.819 162.171L202.632 164.364C203.362 164.511 204.022 164.967 204.435 165.629L222.126 193.795C222.759 194.795 222.759 196.105 222.14 197.106C221.493 198.121 220.365 198.636 219.264 198.415Z" fill="#40D7FF"/>
<path d="M150.769 181.433L169.63 157.697L191.792 162.185L201.202 191.631L150.769 181.433Z" fill="#D2F0FF"/>
<path d="M195.204 190.424L164.223 238.484C163.439 239.706 163.604 241.354 164.609 242.369C165.008 242.766 165.489 243.031 165.998 243.134C166.768 243.296 167.594 243.105 168.24 242.546L221.493 197.84C222.057 197.369 222.415 196.693 222.525 195.972L195.204 190.424Z" fill="#00A4CF"/>
<path d="M203.375 195.486L209.814 200.754L183.345 227.845L219.265 198.415L203.375 195.486Z" fill="#40D7FF"/>
<path d="M156.822 182.654L129.487 177.121C129.336 177.842 129.446 178.607 129.804 179.27L164.113 241.692C164.54 242.457 165.241 242.958 166.012 243.12C166.521 243.223 167.057 243.178 167.566 242.958C168.846 242.413 169.561 240.942 169.245 239.5L156.822 182.654Z" fill="#2BBFFF"/>
<path d="M150.769 181.434L163.797 240.869C164.044 242.017 164.911 242.9 165.998 243.12C167.085 243.341 168.185 242.856 168.818 241.884L201.202 191.631L150.769 181.434Z" fill="#8CE7FF"/>
<path d="M175.986 186.539L201.202 191.631L191.792 162.17L180.69 159.919L175.986 186.539Z" fill="#2BBFFF"/>
<path d="M165.998 243.12C167.085 243.34 168.186 242.855 168.818 241.884L201.202 191.631L176.013 186.539L165.998 243.12Z" fill="#40D7FF"/>
<path d="M166.658 245.283C165.186 245.283 163.824 244.43 162.751 242.767L128.345 180.182C128.318 180.124 128.29 180.065 128.263 180.006C127.479 178.564 127.699 177.239 127.768 176.813C127.919 175.9 128.662 174.311 129.872 173.664L155.749 154.489C156.726 153.768 157.978 153.489 159.133 153.724L202.921 162.583C204.091 162.818 205.15 163.569 205.81 164.628L223.502 192.794C224.079 193.721 224.355 194.839 224.313 196.046C224.245 197.576 223.061 198.768 222.663 199.136C222.594 199.209 222.511 199.268 222.442 199.327C213.844 206.655 170.331 243.694 169.382 244.356C168.46 244.974 167.552 245.283 166.658 245.283ZM131.331 178.49L165.571 240.78C166.218 241.766 166.672 241.913 167.552 241.31C168.818 240.339 206.058 208.671 220.393 196.472C220.461 196.414 220.53 196.355 220.599 196.296C220.64 196.252 220.874 195.957 220.943 195.795C220.943 195.413 220.86 195.06 220.709 194.81L203.004 166.644C202.839 166.379 202.577 166.203 202.289 166.144L158.514 157.285C158.225 157.226 157.923 157.3 157.675 157.477L131.592 176.783C131.331 176.975 131.138 177.298 131.097 177.46C131.069 177.622 131.028 177.902 131.262 178.314C131.276 178.372 131.303 178.431 131.331 178.49ZM222.621 195.972H222.649H222.621Z" fill="#00A4CF"/>
<path d="M135.953 181.065L143.395 195.486L141.758 185.377L148.939 182.949L135.953 181.065Z" fill="#40D7FF"/>
<defs>
<filter id="filter0_d_140:21293" x="0.934814" y="0" width="402.566" height="346" filterUnits="userSpaceOnUse" color-interpolation-filters="sRGB">
<feFlood flood-opacity="0" result="BackgroundImageFix"/>
<feColorMatrix in="SourceAlpha" type="matrix" values="0 0 0 0 0 0 0 0 0 0 0 0 0 0 0 0 0 0 127 0" result="hardAlpha"/>
<feOffset/>
<feGaussianBlur stdDeviation="17"/>
<feComposite in2="hardAlpha" operator="out"/>
<feColorMatrix type="matrix" values="0 0 0 0 1 0 0 0 0 1 0 0 0 0 1 0 0 0 1 0"/>
<feBlend mode="normal" in2="BackgroundImageFix" result="effect1_dropShadow_140:21293"/>
<feBlend mode="normal" in="SourceGraphic" in2="effect1_dropShadow_140:21293" result="shape"/>
</filter>
<filter id="filter1_d_140:21293" x="0.934814" y="0" width="402.566" height="340" filterUnits="userSpaceOnUse" color-interpolation-filters="sRGB">
<feFlood flood-opacity="0" result="BackgroundImageFix"/>
<feColorMatrix in="SourceAlpha" type="matrix" values="0 0 0 0 0 0 0 0 0 0 0 0 0 0 0 0 0 0 127 0" result="hardAlpha"/>
<feOffset/>
<feGaussianBlur stdDeviation="17"/>
<feComposite in2="hardAlpha" operator="out"/>
<feColorMatrix type="matrix" values="0 0 0 0 1 0 0 0 0 0 0 0 0 0 0.9 0 0 0 0.85 0"/>
<feBlend mode="normal" in2="BackgroundImageFix" result="effect1_dropShadow_140:21293"/>
<feBlend mode="normal" in="SourceGraphic" in2="effect1_dropShadow_140:21293" result="shape"/>
</filter>
<filter id="filter2_d_140:21293" x="50.9783" y="372.749" width="274.51" height="148.117" filterUnits="userSpaceOnUse" color-interpolation-filters="sRGB">
<feFlood flood-opacity="0" result="BackgroundImageFix"/>
<feColorMatrix in="SourceAlpha" type="matrix" values="0 0 0 0 0 0 0 0 0 0 0 0 0 0 0 0 0 0 127 0" result="hardAlpha"/>
<feOffset dy="35"/>
<feGaussianBlur stdDeviation="12.5"/>
<feComposite in2="hardAlpha" operator="out"/>
<feColorMatrix type="matrix" values="0 0 0 0 0 0 0 0 0 0 0 0 0 0 0 0 0 0 0.2 0"/>
<feBlend mode="normal" in2="BackgroundImageFix" result="effect1_dropShadow_140:21293"/>
<feBlend mode="normal" in="SourceGraphic" in2="effect1_dropShadow_140:21293" result="shape"/>
</filter>
<filter id="filter3_d_140:21293" x="169.003" y="85.4053" width="121.998" height="117.809" filterUnits="userSpaceOnUse" color-interpolation-filters="sRGB">
<feFlood flood-opacity="0" result="BackgroundImageFix"/>
<feColorMatrix in="SourceAlpha" type="matrix" values="0 0 0 0 0 0 0 0 0 0 0 0 0 0 0 0 0 0 127 0" result="hardAlpha"/>
<feOffset/>
<feGaussianBlur stdDeviation="3"/>
<feComposite in2="hardAlpha" operator="out"/>
<feColorMatrix type="matrix" values="0 0 0 0 1 0 0 0 0 0 0 0 0 0 0.9 0 0 0 1 0"/>
<feBlend mode="normal" in2="BackgroundImageFix" result="effect1_dropShadow_140:21293"/>
<feBlend mode="normal" in="SourceGraphic" in2="effect1_dropShadow_140:21293" result="shape"/>
</filter>
<filter id="filter4_d_140:21293" x="115.003" y="140.405" width="121.998" height="117.809" filterUnits="userSpaceOnUse" color-interpolation-filters="sRGB">
<feFlood flood-opacity="0" result="BackgroundImageFix"/>
<feColorMatrix in="SourceAlpha" type="matrix" values="0 0 0 0 0 0 0 0 0 0 0 0 0 0 0 0 0 0 127 0" result="hardAlpha"/>
<feOffset/>
<feGaussianBlur stdDeviation="3"/>
<feComposite in2="hardAlpha" operator="out"/>
<feColorMatrix type="matrix" values="0 0 0 0 1 0 0 0 0 0 0 0 0 0 0.9 0 0 0 1 0"/>
<feBlend mode="normal" in2="BackgroundImageFix" result="effect1_dropShadow_140:21293"/>
<feBlend mode="normal" in="SourceGraphic" in2="effect1_dropShadow_140:21293" result="shape"/>
</filter>
<linearGradient id="paint0_linear_140:21293" x1="202.25" y1="37" x2="202.25" y2="303" gradientUnits="userSpaceOnUse">
<stop stop-color="#050EA3"/>
<stop offset="1" stop-color="#00033A"/>
</linearGradient>
<linearGradient id="paint1_linear_140:21293" x1="317.875" y1="307" x2="147.875" y2="37" gradientUnits="userSpaceOnUse">
<stop stop-color="white"/>
<stop offset="1" stop-color="white" stop-opacity="0"/>
</linearGradient>
<linearGradient id="paint2_linear_140:21293" x1="89.8296" y1="356.919" x2="296.668" y2="452.952" gradientUnits="userSpaceOnUse">
<stop stop-color="#FFE600"/>
<stop offset="0.546374" stop-color="#FFC700"/>
<stop offset="0.9994" stop-color="#FFC700"/>
</linearGradient>
<linearGradient id="paint3_linear_140:21293" x1="183.44" y1="144.313" x2="276.549" y2="144.313" gradientUnits="userSpaceOnUse">
<stop offset="0.00308058" stop-color="#160052"/>
<stop offset="0.9946" stop-color="#230D33"/>
</linearGradient>
<linearGradient id="paint4_linear_140:21293" x1="175" y1="144.313" x2="285.006" y2="144.313" gradientUnits="userSpaceOnUse">
<stop offset="0.00308058" stop-color="#160052"/>
<stop offset="0.9946" stop-color="#230D33"/>
</linearGradient>
<linearGradient id="paint5_linear_140:21293" x1="197.803" y1="110.988" x2="220.027" y2="120.065" gradientUnits="userSpaceOnUse">
<stop stop-color="white" stop-opacity="0.4"/>
<stop offset="0.8649" stop-color="#00E5FF" stop-opacity="0"/>
</linearGradient>
<linearGradient id="paint6_linear_140:21293" x1="129.44" y1="199.313" x2="222.549" y2="199.313" gradientUnits="userSpaceOnUse">
<stop offset="0.00308058" stop-color="#160052"/>
<stop offset="0.9946" stop-color="#230D33"/>
</linearGradient>
<linearGradient id="paint7_linear_140:21293" x1="121" y1="199.313" x2="231.006" y2="199.313" gradientUnits="userSpaceOnUse">
<stop offset="0.00308058" stop-color="#160052"/>
<stop offset="0.9946" stop-color="#230D33"/>
</linearGradient>
<linearGradient id="paint8_linear_140:21293" x1="143.803" y1="165.988" x2="166.027" y2="175.065" gradientUnits="userSpaceOnUse">
<stop stop-color="white" stop-opacity="0.4"/>
<stop offset="0.8649" stop-color="#00E5FF" stop-opacity="0"/>
</linearGradient>
</defs>
</svg>
