<svg width="334" height="182" viewBox="0 0 334 182" fill="none" xmlns="http://www.w3.org/2000/svg">
<g filter="url(#filter0_d_147:20228)">
<path d="M35.5784 57.9577C38.3467 43.8925 50.6788 33.751 65.0138 33.751H258.262C264.56 33.751 269.29 39.5026 268.074 45.6821L257.843 97.6617C255.075 111.727 242.743 121.868 228.408 121.868H35.16C28.862 121.868 24.132 116.117 25.3482 109.937L35.5784 57.9577Z" fill="#FEDD87"/>
<path d="M65.0138 34.751H258.262C263.93 34.751 268.187 39.9275 267.092 45.4889L256.862 97.4686C254.186 111.065 242.265 120.868 228.408 120.868H35.16C29.4918 120.868 25.2348 115.692 26.3294 110.131L36.5596 58.1509C39.2356 44.5545 51.1566 34.751 65.0138 34.751Z" stroke="white" stroke-width="2"/>
</g>
<path d="M36.1561 53.2087C38.9243 39.1435 51.2564 29.002 65.5914 29.002H258.839C265.137 29.002 269.867 34.7536 268.651 40.933L258.421 92.9127C255.653 106.978 243.321 117.119 228.986 117.119H35.7376C29.4396 117.119 24.7096 111.368 25.9258 105.188L36.1561 53.2087Z" fill="url(#paint0_linear_147:20228)"/>
<path d="M37.6421 51.8174C39.4128 38.7494 50.5701 29.002 63.7575 29.002H259.103L250.672 35.6344H54.2236L37.6421 51.8174V51.8174Z" fill="#FF8A00" fill-opacity="0.2"/>
<path d="M31.3818 79.9199L33.6942 110.787L235.447 104.192L242.962 110.787L261.172 74.9072L257.906 92.5732C255.276 106.797 242.871 117.119 228.406 117.119H35.8933C29.5444 117.119 24.8028 111.28 26.1063 105.066L31.3818 79.9199Z" fill="white" fill-opacity="0.26"/>
<path d="M65.5914 30.002H258.839C264.508 30.002 268.765 35.1785 267.67 40.7399L257.44 92.7196C254.764 106.316 242.843 116.119 228.986 116.119H35.7376C30.0694 116.119 25.8124 110.943 26.907 105.381L37.1373 53.4018C39.8132 39.8055 51.7342 30.002 65.5914 30.002Z" stroke="white" stroke-width="2"/>
<path d="M119.848 94.752C120.014 94.752 120.096 94.7313 120.096 94.69C119.972 94.2353 119.91 93.7807 119.91 93.326C119.952 92.8713 119.972 92.4167 119.972 91.962C120.014 90.9287 120.034 89.8953 120.034 88.862C120.034 87.7873 119.869 86.8367 119.538 86.01C116.852 86.01 114.31 86.0513 111.912 86.134C109.556 86.2167 106.994 86.2167 104.224 86.134C104.059 86.0513 103.976 85.8653 103.976 85.576C104.018 85.2453 104.08 84.894 104.162 84.522C104.286 84.15 104.41 83.778 104.534 83.406C104.7 83.034 104.824 82.7447 104.906 82.538C105.65 81.6287 106.539 80.864 107.572 80.244C108.647 79.5827 109.742 78.9627 110.858 78.384C112.016 77.8053 113.152 77.2267 114.268 76.648C115.426 76.0693 116.459 75.3873 117.368 74.602C118.319 73.8167 119.104 72.9073 119.724 71.874C120.386 70.7993 120.778 69.4973 120.902 67.968C120.944 67.1413 120.944 66.232 120.902 65.24C120.861 64.2067 120.82 63.256 120.778 62.388C120.572 60.156 119.972 58.11 118.98 56.25C117.988 54.39 116.562 52.9847 114.702 52.034C113.586 51.5793 112.181 51.2693 110.486 51.104C108.833 50.8973 107.138 50.8767 105.402 51.042C103.666 51.2073 102.034 51.5793 100.504 52.158C98.9748 52.7367 97.7968 53.5633 96.9702 54.638C95.4408 56.3327 94.4075 58.4407 93.8702 60.962C93.3742 63.442 93.3742 66.108 93.8702 68.96V69.084H93.9322C95.3375 69.2493 96.7428 69.2907 98.1482 69.208C99.5948 69.1253 101.248 68.9807 103.108 68.774H103.17V68.65C103.212 67.906 103.274 67.1 103.356 66.232C103.48 65.364 103.687 64.558 103.976 63.814C104.307 63.0287 104.762 62.388 105.34 61.892C105.96 61.396 106.766 61.148 107.758 61.148C108.709 61.272 109.453 61.706 109.99 62.45C110.569 63.1527 110.9 63.9793 110.982 64.93C111.065 65.8807 110.92 66.8313 110.548 67.782C110.218 68.7327 109.639 69.4767 108.812 70.014C107.738 70.882 106.622 71.6467 105.464 72.308C104.348 72.9693 103.212 73.6513 102.054 74.354C100.938 75.0567 99.8222 75.8213 98.7062 76.648C97.6315 77.4333 96.5982 78.384 95.6062 79.5C94.9448 80.5747 94.4695 81.732 94.1802 82.972C93.9322 84.1707 93.7668 85.4313 93.6842 86.754C93.6015 88.0353 93.5602 89.358 93.5602 90.722C93.6015 92.086 93.5602 93.4707 93.4362 94.876C93.4362 94.9587 93.4568 95.0207 93.4982 95.062H96.2882L119.848 94.752ZM125.121 81.732C124.873 83.0547 124.749 84.2533 124.749 85.328C124.708 87.6427 125.286 89.5647 126.485 91.094C127.684 92.582 129.192 93.698 131.011 94.442C132.871 95.186 134.917 95.558 137.149 95.558C139.381 95.558 141.489 95.2273 143.473 94.566C145.498 93.9047 147.255 92.9127 148.743 91.59C150.231 90.226 151.182 88.5933 151.595 86.692C151.926 84.2533 152.029 81.7527 151.905 79.19C151.822 76.6273 151.388 74.2507 150.603 72.06C149.818 69.8693 148.66 68.0093 147.131 66.48C145.602 64.9093 143.597 63.938 141.117 63.566C139.092 63.194 136.922 63.2353 134.607 63.69H134.545L134.483 63.628L134.421 63.566C134.256 63.318 134.173 62.9873 134.173 62.574C134.173 62.1607 134.132 61.7887 134.049 61.458C134.049 61.4167 134.028 61.396 133.987 61.396C133.987 61.3547 133.987 61.3133 133.987 61.272V61.21V61.086H134.049C134.297 61.086 134.834 61.086 135.661 61.086C136.529 61.086 137.542 61.086 138.699 61.086C139.856 61.0447 141.076 61.0033 142.357 60.962C143.68 60.9207 144.92 60.9 146.077 60.9C147.276 60.8587 148.309 60.8173 149.177 60.776C150.086 60.7347 150.686 60.6933 150.975 60.652C150.975 60.652 150.975 60.4247 150.975 59.97C151.016 59.474 151.037 58.8953 151.037 58.234C151.078 57.5727 151.12 56.8493 151.161 56.064C151.202 55.2787 151.223 54.5553 151.223 53.894C151.223 53.2327 151.223 52.6747 151.223 52.22C151.223 51.7653 151.202 51.5173 151.161 51.476C150.872 51.4347 150.045 51.414 148.681 51.414C147.317 51.414 145.684 51.4347 143.783 51.476C141.882 51.476 139.836 51.4967 137.645 51.538C135.496 51.5793 133.47 51.6207 131.569 51.662C129.709 51.7033 128.138 51.7447 126.857 51.786C125.576 51.8273 124.873 51.848 124.749 51.848H124.687C124.687 53.7907 124.687 55.6093 124.687 57.304C124.728 58.9987 124.749 60.6933 124.749 62.388C124.79 64.0413 124.811 65.7567 124.811 67.534C124.811 69.27 124.811 71.1713 124.811 73.238C124.811 73.2793 124.852 73.3 124.935 73.3C125.803 73.3827 126.795 73.4033 127.911 73.362C129.027 73.3207 130.184 73.2793 131.383 73.238C132.582 73.1553 133.76 73.114 134.917 73.114C136.116 73.0727 137.252 73.1347 138.327 73.3C139.567 73.672 140.497 74.4573 141.117 75.656C141.778 76.8547 142.109 78.1153 142.109 79.438C142.109 80.7607 141.758 82.0007 141.055 83.158C140.394 84.274 139.34 84.956 137.893 85.204C136.942 85.4107 136.095 85.2453 135.351 84.708C134.607 84.1707 134.152 83.1373 133.987 81.608C133.987 81.5667 133.966 81.5253 133.925 81.484C133.925 81.4427 133.925 81.4013 133.925 81.36V81.298L125.121 81.608V81.732ZM158.721 56.684C157.811 58.0893 157.109 59.5567 156.613 61.086C156.158 62.6153 155.827 64.186 155.621 65.798C155.455 67.41 155.393 69.0427 155.435 70.696C155.476 72.308 155.538 73.8993 155.621 75.47C155.662 77.33 155.745 79.19 155.869 81.05C156.034 82.91 156.385 84.6873 156.923 86.382C157.501 88.0353 158.369 89.544 159.527 90.908C160.684 92.2307 162.317 93.2847 164.425 94.07C165.665 94.5247 167.111 94.7933 168.765 94.876C170.707 95 172.443 94.752 173.973 94.132C175.502 93.4707 176.825 92.5613 177.941 91.404C179.098 90.2053 180.069 88.8413 180.855 87.312C181.681 85.7413 182.322 84.088 182.777 82.352C183.273 80.5747 183.603 78.7973 183.769 77.02C183.934 75.2013 183.975 73.486 183.893 71.874C183.975 70.6753 183.955 69.4767 183.831 68.278C183.748 67.038 183.603 65.7567 183.397 64.434C183.066 62.698 182.529 61.0033 181.785 59.35C181.041 57.6967 180.069 56.25 178.871 55.01C177.672 53.7287 176.246 52.716 174.593 51.972C172.939 51.228 171.059 50.8973 168.951 50.98C166.843 51.0627 165.024 51.5587 163.495 52.468C161.965 53.336 160.581 54.4727 159.341 55.878C159.093 56.126 158.886 56.3947 158.721 56.684ZM167.959 84.522C167.504 84.4393 167.132 84.274 166.843 84.026C166.595 83.7367 166.388 83.406 166.223 83.034C166.057 82.662 165.933 82.29 165.851 81.918C165.768 81.5047 165.665 81.112 165.541 80.74C164.962 78.5493 164.673 76.4 164.673 74.292C164.673 72.184 164.776 69.828 164.983 67.224C165.107 66.1907 165.231 65.2607 165.355 64.434C165.52 63.6073 165.706 63.0287 165.913 62.698C166.119 62.326 166.409 61.9747 166.781 61.644C167.194 61.3133 167.607 61.1067 168.021 61.024C169.633 60.4867 170.893 60.8173 171.803 62.016C172.299 62.7187 172.671 63.628 172.919 64.744C173.208 65.8187 173.394 66.9967 173.477 68.278C173.601 69.518 173.642 70.7993 173.601 72.122C173.601 73.4033 173.58 74.5813 173.539 75.656C173.456 76.7307 173.394 77.7433 173.353 78.694C173.311 79.6447 173.125 80.6367 172.795 81.67C172.588 82.3313 172.319 82.9307 171.989 83.468C171.658 84.0053 171.079 84.398 170.253 84.646C169.922 84.77 169.55 84.8113 169.137 84.77C168.723 84.7287 168.331 84.646 167.959 84.522Z" fill="black"/>
<path d="M305.511 66.9427C305.621 66.2069 305.498 65.4417 305.099 64.7942L287.407 36.629C286.995 35.9668 286.348 35.5106 285.605 35.3635L241.831 26.5048C241.102 26.3576 240.331 26.5342 239.726 26.9904L213.629 46.297C212.157 47.5184 212.46 49.1959 212.474 49.2842C212.474 49.3136 212.474 49.3431 212.474 49.3725C212.529 49.6815 212.639 49.9758 212.79 50.2407C212.79 50.2554 212.79 50.2554 212.804 50.2701L247.113 112.693C247.127 112.707 247.141 112.722 247.141 112.737C247.265 112.958 247.416 113.178 247.595 113.355C247.595 113.355 247.595 113.37 247.609 113.37C247.677 113.443 247.76 113.473 247.829 113.546C247.898 113.605 247.966 113.664 248.035 113.708C248.104 113.752 248.159 113.811 248.242 113.855C248.475 113.988 248.737 114.076 248.998 114.135C249.26 114.194 249.521 114.194 249.796 114.164C249.879 114.15 249.961 114.12 250.044 114.105C250.126 114.091 250.209 114.061 250.291 114.032C250.374 114.002 250.47 114.002 250.566 113.958C250.566 113.958 250.566 113.958 250.58 113.958C250.814 113.855 251.02 113.723 251.227 113.561C251.241 113.546 251.254 113.546 251.268 113.546L251.282 113.532L304.507 68.8409C304.521 68.8409 304.521 68.8262 304.521 68.8115C304.741 68.6202 304.947 68.3995 305.112 68.1346C305.126 68.1052 305.14 68.0757 305.154 68.0463C305.195 67.9727 305.223 67.8844 305.264 67.7961C305.36 67.5607 305.511 66.9427 305.511 66.9427Z" fill="url(#paint1_linear_147:20228)"/>
<g filter="url(#filter1_d_147:20228)">
<path d="M249.508 123.214C248.806 123.214 248.118 123.14 247.444 123.008C246.371 122.787 245.353 122.419 244.404 121.889L243.207 121.109C243.152 121.065 243.097 121.036 243.056 120.992L242.574 120.668L240.634 118.696L239.864 117.342L204.963 53.9926L204.798 53.2862C204.55 52.6387 204.357 51.9618 204.22 51.2849L204.027 49.6368C203.821 46.2228 204.894 42.1025 208.443 39.1447L208.828 38.8504L234.898 19.5438C237.374 17.7191 240.469 17.0128 243.399 17.6161L287.174 26.4748C290.118 27.0634 292.759 28.9323 294.424 31.5957L312.115 59.761C313.697 62.2773 314.316 65.3381 313.848 68.3842L313.683 69.2083C313.395 70.4002 313.119 71.1213 312.941 71.5186L312.624 72.2249C312.5 72.4898 312.349 72.7547 312.198 73.0195C311.785 73.6964 311.317 74.3145 310.794 74.8884L310.354 75.4917L309.46 76.1392L255.849 121.124C255.602 121.301 255.34 121.477 255.093 121.639L254.969 121.713C254.57 121.948 254.171 122.154 253.745 122.331L252.314 122.802C252.218 122.831 252.121 122.861 252.025 122.875L250.704 123.125C250.292 123.199 249.893 123.214 249.508 123.214ZM222.764 50.5344L251.131 102.141L295.153 65.1762L281.712 43.7801L242.588 35.8632L222.764 50.5344ZM280.392 41.6758C280.392 41.6905 280.392 41.6905 280.392 41.6758V41.6758ZM240.249 35.3923H240.263H240.249Z" fill="url(#paint2_linear_147:20228)"/>
</g>
<path d="M305.622 66.9721C305.649 66.2363 305.498 65.4564 305.099 64.8089L287.408 36.629C286.995 35.9668 286.348 35.5106 285.605 35.3635L241.831 26.5048C241.102 26.3576 240.332 26.5342 239.726 26.9904L213.629 46.297C213.038 46.6207 212.515 47.6067 212.433 48.1217C212.378 48.4896 212.268 49.2695 212.79 50.2407C212.79 50.2554 212.79 50.2554 212.804 50.2701L247.114 112.693C247.458 113.223 248.888 115.592 251.461 113.826C252.383 113.193 304.507 68.8262 304.507 68.8262C304.521 68.8262 304.521 68.8115 304.521 68.7968C304.755 68.6055 305.58 67.7667 305.622 66.9721Z" fill="white"/>
<path d="M249.672 119.329C247.292 119.329 245.022 118.02 243.399 115.503L243.193 115.165L208.525 52.0212C207.906 50.6968 207.672 49.0487 207.948 47.327C208.223 45.6347 209.337 43.398 211.194 42.206L237.126 22.9877C238.722 21.7958 240.744 21.3396 242.656 21.7369L286.444 30.5956C288.357 30.9782 290.09 32.1996 291.177 33.936L308.868 62.1012C309.79 63.5727 310.23 65.3239 310.161 67.1927V67.2074C310.065 69.4883 308.772 71.1953 307.919 72.0635L307.713 72.3725L307.19 72.7404C272.577 102.215 254.652 117.402 253.909 117.917C252.534 118.858 251.089 119.329 249.672 119.329ZM217.536 49.3135L250.209 108.764C256.207 103.731 282.097 81.7168 300.435 66.1038L284.051 39.984L241.693 31.4196L217.536 49.3135ZM305.621 66.972H305.649H305.621Z" fill="white"/>
<path d="M236.314 56.068L214.702 51.6975C213.588 51.4768 212.721 50.5644 212.488 49.3725C212.254 48.1953 212.708 46.9739 213.629 46.297L239.712 26.9904C240.331 26.5342 241.088 26.3576 241.817 26.5048L252.63 28.6974C253.579 28.8887 254.377 29.595 254.721 30.5662C255.065 31.5375 254.927 32.6264 254.336 33.4505L239.052 54.9349C238.419 55.8472 237.36 56.274 236.314 56.068Z" fill="#40D7FF"/>
<path d="M236.314 56.068L214.702 51.6975C213.588 51.4768 212.721 50.5644 212.488 49.3725C212.254 48.1953 212.708 46.9739 213.629 46.297L239.712 26.9904C240.331 26.5342 241.088 26.3576 241.817 26.5048L252.63 28.6974C253.579 28.8887 254.377 29.595 254.721 30.5662C255.065 31.5375 254.927 32.6264 254.336 33.4505L239.052 54.9349C238.419 55.8472 237.36 56.274 236.314 56.068Z" fill="url(#paint3_linear_147:20228)"/>
<path d="M302.265 69.4152L280.653 65.0448C279.607 64.8388 278.768 64.0147 278.479 62.9258L271.601 36.9384C271.339 35.9378 271.573 34.8635 272.234 34.0983C272.894 33.3331 273.871 32.98 274.82 33.1713L285.633 35.3639C286.362 35.511 287.022 35.9672 287.435 36.6294L305.126 64.7946C305.759 65.7953 305.759 67.1049 305.14 68.1056C304.494 69.1209 303.365 69.636 302.265 69.4152Z" fill="#40D7FF"/>
<path d="M233.769 52.4332L252.63 28.6973L274.792 33.1855L284.202 62.6309L233.769 52.4332Z" fill="#D2F0FF"/>
<path d="M278.204 61.4238L247.223 109.484C246.439 110.706 246.604 112.354 247.609 113.369C248.008 113.766 248.489 114.031 248.998 114.134C249.768 114.296 250.594 114.105 251.24 113.546L304.493 68.8404C305.057 68.3695 305.415 67.6926 305.525 66.9715L278.204 61.4238Z" fill="#00A4CF"/>
<path d="M286.376 66.4863L292.814 71.7544L266.346 98.8454L302.265 69.4147L286.376 66.4863Z" fill="#40D7FF"/>
<path d="M239.822 53.6541L212.487 48.1211C212.336 48.8421 212.446 49.6073 212.804 50.2695L247.113 112.692C247.54 113.457 248.242 113.958 249.012 114.12C249.521 114.223 250.057 114.178 250.566 113.958C251.846 113.413 252.561 111.942 252.245 110.5L239.822 53.6541Z" fill="#2BBFFF"/>
<path d="M233.769 52.4336L246.797 111.869C247.044 113.017 247.911 113.9 248.998 114.12C250.085 114.341 251.185 113.856 251.818 112.884L284.202 62.6314L233.769 52.4336Z" fill="#8CE7FF"/>
<path d="M258.986 57.5391L284.202 62.6306L274.792 33.1704L263.691 30.9189L258.986 57.5391Z" fill="#2BBFFF"/>
<path d="M248.999 114.12C250.085 114.34 251.186 113.855 251.819 112.884L284.202 62.6306L259.014 57.5391L248.999 114.12Z" fill="#40D7FF"/>
<path d="M249.658 116.283C248.187 116.283 246.825 115.43 245.752 113.767L211.346 51.1825C211.318 51.1236 211.291 51.0647 211.263 51.0059C210.479 49.5638 210.699 48.2394 210.768 47.8126C210.919 46.9003 211.662 45.311 212.873 44.6635L238.749 25.4894C239.726 24.7683 240.978 24.4888 242.133 24.7242L285.922 33.5829C287.091 33.8183 288.15 34.5688 288.811 35.6283L306.502 63.7935C307.08 64.7206 307.355 65.839 307.314 67.0456C307.245 68.576 306.062 69.768 305.663 70.1359C305.594 70.2095 305.511 70.2683 305.443 70.3272C296.845 77.6554 253.332 114.694 252.382 115.356C251.461 115.974 250.553 116.283 249.658 116.283ZM214.331 49.4902L248.572 111.78C249.218 112.766 249.672 112.913 250.553 112.31C251.818 111.339 289.058 79.6714 303.393 67.4724C303.462 67.4135 303.53 67.3547 303.599 67.2958C303.64 67.2517 303.874 66.9574 303.943 66.7955C303.943 66.4129 303.861 66.0597 303.709 65.8096L286.004 37.6443C285.839 37.3794 285.578 37.2028 285.289 37.144L241.514 28.2853C241.226 28.2265 240.923 28.3 240.675 28.4766L214.592 47.7832C214.331 47.9745 214.138 48.2982 214.097 48.4601C214.069 48.622 214.028 48.9016 214.262 49.3136C214.276 49.3725 214.303 49.4313 214.331 49.4902ZM305.621 66.9721H305.649H305.621Z" fill="#00A4CF"/>
<path d="M218.953 52.0654L226.396 66.4865L224.759 56.377L231.94 53.949L218.953 52.0654Z" fill="#40D7FF"/>
<defs>
<filter id="filter0_d_147:20228" x="0.156738" y="33.751" width="293.108" height="148.117" filterUnits="userSpaceOnUse" color-interpolation-filters="sRGB">
<feFlood flood-opacity="0" result="BackgroundImageFix"/>
<feColorMatrix in="SourceAlpha" type="matrix" values="0 0 0 0 0 0 0 0 0 0 0 0 0 0 0 0 0 0 127 0" result="hardAlpha"/>
<feOffset dy="35"/>
<feGaussianBlur stdDeviation="12.5"/>
<feComposite in2="hardAlpha" operator="out"/>
<feColorMatrix type="matrix" values="0 0 0 0 0 0 0 0 0 0 0 0 0 0 0 0 0 0 0.2 0"/>
<feBlend mode="normal" in2="BackgroundImageFix" result="effect1_dropShadow_147:20228"/>
<feBlend mode="normal" in="SourceGraphic" in2="effect1_dropShadow_147:20228" result="shape"/>
</filter>
<filter id="filter1_d_147:20228" x="198.003" y="11.4053" width="121.998" height="117.809" filterUnits="userSpaceOnUse" color-interpolation-filters="sRGB">
<feFlood flood-opacity="0" result="BackgroundImageFix"/>
<feColorMatrix in="SourceAlpha" type="matrix" values="0 0 0 0 0 0 0 0 0 0 0 0 0 0 0 0 0 0 127 0" result="hardAlpha"/>
<feOffset/>
<feGaussianBlur stdDeviation="3"/>
<feComposite in2="hardAlpha" operator="out"/>
<feColorMatrix type="matrix" values="0 0 0 0 1 0 0 0 0 0 0 0 0 0 0.9 0 0 0 1 0"/>
<feBlend mode="normal" in2="BackgroundImageFix" result="effect1_dropShadow_147:20228"/>
<feBlend mode="normal" in="SourceGraphic" in2="effect1_dropShadow_147:20228" result="shape"/>
</filter>
<linearGradient id="paint0_linear_147:20228" x1="40.1424" y1="17.9213" x2="257.481" y2="127.201" gradientUnits="userSpaceOnUse">
<stop stop-color="#FFE600"/>
<stop offset="0.546374" stop-color="#FFC700"/>
<stop offset="0.9994" stop-color="#FFC700"/>
</linearGradient>
<linearGradient id="paint1_linear_147:20228" x1="212.44" y1="70.3133" x2="305.549" y2="70.3133" gradientUnits="userSpaceOnUse">
<stop offset="0.00308058" stop-color="#160052"/>
<stop offset="0.9946" stop-color="#230D33"/>
</linearGradient>
<linearGradient id="paint2_linear_147:20228" x1="204" y1="70.3128" x2="314.006" y2="70.3128" gradientUnits="userSpaceOnUse">
<stop offset="0.00308058" stop-color="#160052"/>
<stop offset="0.9946" stop-color="#230D33"/>
</linearGradient>
<linearGradient id="paint3_linear_147:20228" x1="226.804" y1="36.9878" x2="249.027" y2="46.0646" gradientUnits="userSpaceOnUse">
<stop stop-color="white" stop-opacity="0.4"/>
<stop offset="0.8649" stop-color="#00E5FF" stop-opacity="0"/>
</linearGradient>
</defs>
</svg>
