<svg width="404" height="340" viewBox="0 0 404 340" fill="none" xmlns="http://www.w3.org/2000/svg">
<g filter="url(#filter0_d_123:10154)">
<g filter="url(#filter1_d_123:10154)">
<path d="M73.8782 45.5584C74.5941 40.6443 78.8078 37 83.7738 37H356.498C362.617 37 367.301 42.4461 366.385 48.4961L329.162 294.496C328.422 299.386 324.219 303 319.274 303H47.9373C41.8407 303 37.1629 297.591 38.0418 291.558L73.8782 45.5584Z" fill="url(#paint0_linear_123:10154)"/>
<path d="M73.8782 45.5584C74.5941 40.6443 78.8078 37 83.7738 37H356.498C362.617 37 367.301 42.4461 366.385 48.4961L329.162 294.496C328.422 299.386 324.219 303 319.274 303H47.9373C41.8407 303 37.1629 297.591 38.0418 291.558L73.8782 45.5584Z" stroke="#FF00E5" stroke-width="6"/>
</g>
<path d="M74.5538 40.9208C74.8818 38.6695 76.8121 37 79.0872 37H356.498C362.617 37 367.301 42.4461 366.385 48.4961L328.514 298.775C328.147 301.204 326.059 303 323.602 303H301.22C161.572 303 54.4228 179.111 74.5538 40.9208V40.9208Z" fill="url(#paint1_linear_123:10154)" fill-opacity="0.1"/>
</g>
<path d="M251.479 118.184C251.24 118.184 251.027 118.157 250.787 118.105C249.749 117.92 248.871 117.287 248.339 116.39L235.539 94.5691C234.607 92.9596 235.033 90.9016 236.55 89.8198L246.636 82.643C247.248 82.1945 247.993 81.957 248.765 81.957C248.978 81.957 249.217 81.9834 249.43 82.0098L265.397 84.9913C266.329 85.176 267.18 85.7037 267.712 86.4953L274.871 96.8118C275.962 98.3949 275.616 100.532 274.099 101.693L253.688 117.366C253.076 117.92 252.277 118.184 251.479 118.184Z" fill="#40D7FF"/>
<path d="M249.537 189.925C249.537 189.925 216.884 190.822 206 190.822C195.116 190.822 162.463 189.925 162.463 189.925C154.027 189.925 147.134 183.091 147.134 174.727C147.134 174.727 146.229 155.703 146.229 149.345C146.229 142.986 147.134 123.962 147.134 123.962C147.134 115.598 154.027 108.764 162.463 108.764C162.463 108.764 195.116 107.867 206 107.867C216.884 107.867 249.537 108.764 249.537 108.764C257.973 108.764 264.865 115.598 264.865 123.962C264.865 123.962 265.77 142.959 265.77 149.345C265.77 155.73 264.865 174.727 264.865 174.727C264.865 183.091 257.973 189.925 249.537 189.925Z" fill="white"/>
<g filter="url(#filter2_d_123:10154)">
<path d="M206 196.231C195.169 196.231 163.661 195.36 162.303 195.333C150.993 195.333 141.679 186.099 141.679 174.727C141.653 174.199 140.774 155.756 140.774 149.344C140.774 142.933 141.653 124.49 141.679 123.724C141.679 112.616 150.993 103.381 162.463 103.381C163.661 103.355 195.169 102.484 206 102.484C216.831 102.484 248.366 103.355 249.697 103.381C261.007 103.381 270.321 112.616 270.321 123.988C270.348 124.516 271.226 142.933 271.226 149.371C271.226 155.782 270.348 174.225 270.321 174.991C270.321 186.072 261.06 195.307 249.617 195.333C247.515 195.386 216.698 196.231 206 196.231ZM206 113.276C195.302 113.276 162.942 114.173 162.623 114.173C157.008 114.173 152.59 118.579 152.59 123.962C152.563 124.41 151.685 143.197 151.685 149.344C151.685 155.492 152.59 174.278 152.59 174.463C152.59 180.136 157.034 184.516 162.49 184.516C162.969 184.516 195.329 185.413 206.027 185.413C216.725 185.413 249.085 184.516 249.404 184.516H249.564C255.019 184.516 259.437 180.109 259.437 174.727C259.463 174.278 260.342 155.518 260.342 149.344C260.342 143.17 259.437 124.41 259.437 124.226C259.437 118.553 254.993 114.173 249.537 114.173C249.058 114.173 216.698 113.276 206 113.276Z" fill="#40D7FF"/>
</g>
<path d="M249.537 189.925C249.537 189.925 216.884 190.822 206 190.822C195.115 190.822 162.463 189.925 162.463 189.925C154.027 189.925 147.134 183.091 147.134 174.727C147.134 174.727 146.229 155.703 146.229 149.345C146.229 142.986 147.134 123.962 147.134 123.962C147.134 115.598 154.027 108.764 162.463 108.764C162.463 108.764 195.115 107.867 206 107.867C216.884 107.867 249.537 108.764 249.537 108.764C257.973 108.764 264.865 115.598 264.865 123.962C264.865 123.962 265.77 142.959 265.77 149.345C265.77 155.73 264.865 174.727 264.865 174.727C264.865 183.091 257.973 189.925 249.537 189.925Z" fill="url(#paint2_linear_123:10154)"/>
<path d="M242.059 189.925C242.059 189.925 216.911 190.822 206 190.822C195.089 190.822 162.463 189.925 162.463 189.925C154.027 189.925 147.134 183.091 147.134 174.727C147.134 174.727 146.229 155.703 146.229 149.345C146.229 142.986 147.134 123.962 147.134 123.962C147.134 115.598 154.027 108.764 162.463 108.764C162.463 108.764 195.115 107.867 206 107.867C216.884 107.867 242.059 108.764 242.059 108.764C250.495 108.764 257.387 115.598 257.387 123.962C257.387 123.962 258.292 142.959 258.292 149.345C258.292 155.73 257.387 174.727 257.387 174.727C257.387 183.091 250.468 189.925 242.059 189.925Z" fill="#BD00FF"/>
<path d="M271.28 98.8176C271.306 98.5802 271.28 98.3427 271.146 98.1316L264.999 89.0816C264.866 88.8705 264.627 88.7122 264.387 88.6858L249.218 85.8362C248.952 85.7834 248.713 85.8362 248.473 85.9945L239.425 92.195C238.919 92.5908 239.026 93.1185 239.026 93.1449V93.1712C239.053 93.2768 239.079 93.3559 239.132 93.4615L251.028 113.514C251.081 113.593 251.134 113.646 251.188 113.699C251.214 113.725 251.241 113.725 251.267 113.752C251.294 113.778 251.321 113.778 251.347 113.804C251.374 113.831 251.4 113.831 251.427 113.857C251.507 113.91 251.587 113.936 251.693 113.936C251.773 113.963 251.879 113.963 251.959 113.936C251.986 113.936 252.013 113.91 252.039 113.91C252.066 113.91 252.092 113.884 252.119 113.884C252.146 113.884 252.172 113.884 252.199 113.857C252.279 113.831 252.358 113.778 252.412 113.725L270.934 99.4245C271.013 99.3717 271.093 99.2926 271.146 99.2134V99.187C271.173 99.1607 271.173 99.1343 271.173 99.1079C271.226 99.0287 271.28 98.8176 271.28 98.8176Z" fill="#0B0C30"/>
<path d="M247.275 95.3348L239.771 93.9364C239.398 93.8573 239.079 93.567 238.999 93.1976C238.919 92.8282 239.079 92.4325 239.398 92.195L248.446 85.9945C248.659 85.8362 248.925 85.7834 249.191 85.8362L252.943 86.5486C253.263 86.6014 253.556 86.8388 253.662 87.1554C253.795 87.4721 253.316 90.005 253.103 90.2689L250.229 95.0446C250.016 95.3084 247.648 95.3876 247.275 95.3348Z" fill="#40D7FF"/>
<path d="M270.135 99.609L262.79 100.163C262.418 100.084 261.992 97.8676 261.912 97.5246L259.011 92.5114C258.931 92.1948 259.517 88.5009 259.756 88.2634C259.996 88.026 260.315 87.8941 260.661 87.9732L264.414 88.6856C264.68 88.7384 264.893 88.8703 265.026 89.0814L271.173 98.1315C271.386 98.4481 271.386 98.8702 271.173 99.1869C270.907 99.5299 270.534 99.6882 270.135 99.609Z" fill="#40D7FF"/>
<path d="M246.397 94.1477L252.944 86.5225L260.635 87.9736L263.908 97.4459L246.397 94.1477Z" fill="#D2F0FF"/>
<path d="M261.805 97.0498L251.054 112.485C250.788 112.881 250.841 113.409 251.187 113.725C251.32 113.857 251.506 113.936 251.666 113.963C251.932 114.015 252.225 113.963 252.438 113.778L270.933 99.4245C271.119 99.2662 271.252 99.0551 271.279 98.8176L261.805 97.0498Z" fill="#00A4CF"/>
<path d="M248.5 94.5432L239.026 92.7754C238.972 93.0129 238.999 93.2503 239.132 93.4614L251.028 113.514C251.187 113.752 251.427 113.91 251.693 113.963C251.879 113.989 252.066 113.989 252.225 113.91C252.678 113.725 252.917 113.25 252.811 112.802L248.5 94.5432Z" fill="#2BBFFF"/>
<path d="M246.397 94.1475L250.921 113.25C251.001 113.62 251.321 113.91 251.693 113.989C252.066 114.068 252.465 113.91 252.678 113.593L263.908 97.4456L246.397 94.1475Z" fill="#8CE7FF"/>
<path d="M255.152 95.8095L263.908 97.4454L260.634 87.9731L256.776 87.2607L255.152 95.8095Z" fill="#2BBFFF"/>
<path d="M251.666 113.989C252.039 114.068 252.438 113.91 252.651 113.593L263.881 97.4454L255.152 95.8096L251.666 113.989Z" fill="#40D7FF"/>
<path fill-rule="evenodd" clip-rule="evenodd" d="M194.557 167.893V130.822L224.761 149.345L194.557 167.893Z" fill="white"/>
<path d="M182.033 249.57C180.745 249.693 179.503 249.754 178.307 249.754H177.295C176.989 249.754 176.743 249.769 176.559 249.8C174.842 254.768 173.462 259.751 172.419 264.75C171.407 269.718 170.518 274.625 169.751 279.47C169.567 280.911 169.429 281.724 169.337 281.908V281.954H169.843C170.61 281.923 171.285 281.923 171.867 281.954C172.481 281.985 172.895 282 173.109 282C173.355 282 173.508 281.985 173.569 281.954C173.876 281.893 174.152 281.325 174.397 280.252C174.643 279.148 174.903 277.753 175.179 276.066C175.394 274.839 175.501 274.211 175.501 274.18H177.433C179.733 274.18 181.589 274.211 182.999 274.272C183.367 275.437 183.781 276.925 184.241 278.734C184.609 280.237 184.901 281.295 185.115 281.908H185.161C185.376 281.969 185.729 282.031 186.219 282.092C186.587 282.153 186.94 282.184 187.277 282.184C187.952 282.184 188.611 282.123 189.255 282V281.954C187.477 273.705 185.069 262.91 182.033 249.57ZM177.847 270.592C177.479 270.561 176.989 270.546 176.375 270.546H175.455L175.869 268.246C176.452 265.057 176.958 262.419 177.387 260.334C177.817 258.249 178.154 256.915 178.399 256.332C178.645 255.719 178.951 255.412 179.319 255.412C179.503 255.412 179.733 255.458 180.009 255.55C180.347 255.887 181.374 260.886 183.091 270.546C181.558 270.577 179.81 270.592 177.847 270.592ZM208.01 250.26C207.979 250.567 207.964 251.073 207.964 251.778V252.744C207.964 252.928 207.964 253.143 207.964 253.388C207.995 253.603 207.995 253.787 207.964 253.94C207.933 254.308 207.918 254.814 207.918 255.458C207.949 256.071 207.964 256.777 207.964 257.574L208.01 261.484C207.979 261.331 207.826 261.085 207.55 260.748C207.274 260.38 206.891 260.043 206.4 259.736C205.909 259.399 205.357 259.184 204.744 259.092C204.1 258.939 203.195 258.862 202.03 258.862C200.589 258.862 199.301 259.015 198.166 259.322C196.449 259.782 195.237 260.855 194.532 262.542C193.857 264.198 193.52 266.314 193.52 268.89C193.581 271.435 193.781 273.597 194.118 275.376C194.486 277.124 195.222 278.611 196.326 279.838C197.43 281.034 199.071 281.709 201.248 281.862C201.493 281.893 201.861 281.908 202.352 281.908C203.364 281.908 204.284 281.77 205.112 281.494C205.633 281.402 206.139 281.111 206.63 280.62C207.151 280.129 207.519 279.639 207.734 279.148C207.887 279.577 207.964 280.191 207.964 280.988C207.964 281.571 207.979 281.893 208.01 281.954C208.409 282.015 209.022 282.046 209.85 282.046C210.494 282.046 211.307 282.015 212.288 281.954C212.319 280.85 212.334 279.163 212.334 276.894C212.334 274.441 212.319 272.263 212.288 270.362C212.257 268.43 212.227 266.774 212.196 265.394C212.073 259.813 212.012 255.565 212.012 252.652V249.616C211.613 249.555 211.015 249.524 210.218 249.524C208.807 249.524 208.071 249.601 208.01 249.754V250.26ZM203.548 262.312C204.867 262.373 205.833 262.711 206.446 263.324C207.09 263.937 207.489 264.735 207.642 265.716C207.826 266.697 207.933 268.062 207.964 269.81C207.964 271.65 207.857 273.137 207.642 274.272C207.427 275.407 206.952 276.327 206.216 277.032C205.48 277.707 204.376 278.044 202.904 278.044C201.616 278.044 200.573 277.829 199.776 277.4C199.009 276.94 198.396 276.158 197.936 275.054C197.507 273.919 197.261 272.34 197.2 270.316C197.2 268.967 197.246 267.955 197.338 267.28C197.461 265.563 197.967 264.305 198.856 263.508C199.745 262.68 201.018 262.266 202.674 262.266L203.548 262.312Z" fill="white"/>
<defs>
<filter id="filter0_d_123:10154" x="0.93457" y="0" width="402.566" height="346" filterUnits="userSpaceOnUse" color-interpolation-filters="sRGB">
<feFlood flood-opacity="0" result="BackgroundImageFix"/>
<feColorMatrix in="SourceAlpha" type="matrix" values="0 0 0 0 0 0 0 0 0 0 0 0 0 0 0 0 0 0 127 0" result="hardAlpha"/>
<feOffset/>
<feGaussianBlur stdDeviation="17"/>
<feComposite in2="hardAlpha" operator="out"/>
<feColorMatrix type="matrix" values="0 0 0 0 1 0 0 0 0 1 0 0 0 0 1 0 0 0 1 0"/>
<feBlend mode="normal" in2="BackgroundImageFix" result="effect1_dropShadow_123:10154"/>
<feBlend mode="normal" in="SourceGraphic" in2="effect1_dropShadow_123:10154" result="shape"/>
</filter>
<filter id="filter1_d_123:10154" x="0.93457" y="0" width="402.566" height="340" filterUnits="userSpaceOnUse" color-interpolation-filters="sRGB">
<feFlood flood-opacity="0" result="BackgroundImageFix"/>
<feColorMatrix in="SourceAlpha" type="matrix" values="0 0 0 0 0 0 0 0 0 0 0 0 0 0 0 0 0 0 127 0" result="hardAlpha"/>
<feOffset/>
<feGaussianBlur stdDeviation="17"/>
<feComposite in2="hardAlpha" operator="out"/>
<feColorMatrix type="matrix" values="0 0 0 0 1 0 0 0 0 0 0 0 0 0 0.9 0 0 0 0.85 0"/>
<feBlend mode="normal" in2="BackgroundImageFix" result="effect1_dropShadow_123:10154"/>
<feBlend mode="normal" in="SourceGraphic" in2="effect1_dropShadow_123:10154" result="shape"/>
</filter>
<filter id="filter2_d_123:10154" x="120.774" y="82.4844" width="170.451" height="133.746" filterUnits="userSpaceOnUse" color-interpolation-filters="sRGB">
<feFlood flood-opacity="0" result="BackgroundImageFix"/>
<feColorMatrix in="SourceAlpha" type="matrix" values="0 0 0 0 0 0 0 0 0 0 0 0 0 0 0 0 0 0 127 0" result="hardAlpha"/>
<feOffset/>
<feGaussianBlur stdDeviation="10"/>
<feComposite in2="hardAlpha" operator="out"/>
<feColorMatrix type="matrix" values="0 0 0 0 0.25098 0 0 0 0 0.843137 0 0 0 0 1 0 0 0 1 0"/>
<feBlend mode="normal" in2="BackgroundImageFix" result="effect1_dropShadow_123:10154"/>
<feBlend mode="normal" in="SourceGraphic" in2="effect1_dropShadow_123:10154" result="shape"/>
</filter>
<linearGradient id="paint0_linear_123:10154" x1="202.25" y1="37" x2="202.25" y2="303" gradientUnits="userSpaceOnUse">
<stop stop-color="#050EA3"/>
<stop offset="1" stop-color="#00033A"/>
</linearGradient>
<linearGradient id="paint1_linear_123:10154" x1="317.875" y1="307" x2="147.875" y2="37" gradientUnits="userSpaceOnUse">
<stop stop-color="white"/>
<stop offset="1" stop-color="white" stop-opacity="0"/>
</linearGradient>
<linearGradient id="paint2_linear_123:10154" x1="216.734" y1="161.969" x2="161.894" y2="96.3814" gradientUnits="userSpaceOnUse">
<stop stop-color="#131134"/>
<stop offset="0.4657" stop-color="#FF0000"/>
</linearGradient>
</defs>
</svg>
