<svg width="404" height="340" viewBox="0 0 404 340" fill="none" xmlns="http://www.w3.org/2000/svg">
<g filter="url(#filter0_d_140:19580)">
<g filter="url(#filter1_d_140:19580)">
<path d="M73.8782 45.5584C74.5941 40.6443 78.8078 37 83.7738 37H356.498C362.617 37 367.301 42.4461 366.385 48.4961L329.162 294.496C328.422 299.386 324.219 303 319.274 303H47.9373C41.8407 303 37.1629 297.591 38.0418 291.558L73.8782 45.5584Z" fill="url(#paint0_linear_140:19580)"/>
<path d="M73.8782 45.5584C74.5941 40.6443 78.8078 37 83.7738 37H356.498C362.617 37 367.301 42.4461 366.385 48.4961L329.162 294.496C328.422 299.386 324.219 303 319.274 303H47.9373C41.8407 303 37.1629 297.591 38.0418 291.558L73.8782 45.5584Z" stroke="#FF00E5" stroke-width="6"/>
</g>
<path d="M74.5538 40.9208C74.8818 38.6695 76.8121 37 79.0872 37H356.498C362.617 37 367.301 42.4461 366.385 48.4961L328.514 298.775C328.147 301.204 326.059 303 323.602 303H301.22C161.572 303 54.4228 179.111 74.5538 40.9208V40.9208Z" fill="url(#paint1_linear_140:19580)" fill-opacity="0.1"/>
</g>
<path d="M227.108 218.927C221.385 218.927 171.17 218.285 171.17 196.156V183.666V183.185C170.02 181.184 169.414 178.949 169.406 176.678V164.389C169.495 163.501 169.742 162.632 170.138 161.819C168.943 159.804 168.321 157.536 168.33 155.233V144.55C168.269 143.533 168.269 142.514 168.33 141.498C168.664 139.221 169.782 137.107 171.515 135.474C171.473 134.925 171.473 134.375 171.515 133.827V121.498C171.47 120.829 171.47 120.158 171.515 119.49C171.814 117.618 172.597 115.843 173.797 114.317C174.996 112.792 176.576 111.562 178.399 110.735C181.749 108.788 185.388 107.313 189.2 106.357C192.505 105.372 195.885 104.62 199.311 104.108C209.264 102.54 219.339 101.747 229.432 101.739C238.513 101.58 247.582 102.416 256.454 104.229C262.8 105.628 268.92 107.802 274.656 110.695C276.877 111.75 278.741 113.36 280.04 115.345C281.339 117.33 282.022 119.613 282.014 121.94V133.506C281.992 136.631 280.874 139.664 278.83 142.14C278.871 142.554 278.871 142.971 278.83 143.385V154.952C278.83 156.172 278.657 157.388 278.313 158.566C279.576 160.443 280.247 162.615 280.249 164.831V176.397C280.313 176.998 280.313 177.604 280.249 178.205C281.409 180.057 282.018 182.164 282.014 184.309V195.875C282.014 212.903 252.323 218.927 227.108 218.927Z" fill="white"/>
<g filter="url(#filter2_d_140:19580)">
<path d="M229.389 103.747C238.296 103.609 247.19 104.431 255.895 106.197C262.001 107.544 267.889 109.637 273.408 112.422C275.287 113.31 276.86 114.674 277.948 116.357C279.036 118.04 279.595 119.974 279.561 121.94V133.506C279.494 136.455 278.339 139.292 276.291 141.538C276.355 142.126 276.355 142.718 276.291 143.305V154.871C276.293 156.239 276.046 157.597 275.559 158.888C276.941 160.602 277.695 162.686 277.711 164.831V176.398C277.708 177.154 277.621 177.907 277.453 178.647C278.698 180.307 279.373 182.282 279.389 184.309V195.875C279.389 210.414 252.969 216.92 226.807 216.92C206.885 216.92 173.15 212.542 173.15 196.157V183.867V183.426C173.15 183.185 173.15 182.984 173.15 182.823C171.952 180.968 171.313 178.845 171.299 176.679V164.39C171.253 163.459 171.46 162.534 171.902 161.699C170.583 159.767 169.881 157.524 169.88 155.233V144.55C169.88 144.55 169.88 142.663 169.88 141.699C170.33 139.54 171.506 137.57 173.236 136.076C173.063 135.338 172.976 134.583 172.978 133.827V121.498C172.932 120.95 172.932 120.399 172.978 119.851C173.23 118.245 173.91 116.724 174.955 115.426C176 114.128 177.376 113.095 178.959 112.422C182.162 110.601 185.645 109.247 189.286 108.406C192.471 107.421 195.738 106.682 199.053 106.197C208.88 104.664 218.824 103.885 228.787 103.867L229.389 103.747ZM228.787 99.8514C218.594 99.8804 208.421 100.673 198.365 102.221C194.837 102.774 191.357 103.565 187.952 104.59C184.17 105.627 180.564 107.155 177.238 109.129C175.154 110.111 173.351 111.541 171.974 113.3C170.598 115.059 169.688 117.098 169.32 119.249C169.248 120.037 169.248 120.83 169.32 121.618V133.948C169.299 134.282 169.299 134.617 169.32 134.952C167.622 136.723 166.502 138.911 166.093 141.257C166.004 142.38 166.004 143.508 166.093 144.631V155.153C166.094 157.513 166.652 159.844 167.728 161.98C167.648 162.822 167.648 163.668 167.728 164.51V176.558C167.721 178.911 168.295 181.233 169.406 183.345V196.036C169.406 214.349 200.602 220.815 227.367 220.815C254.131 220.815 284.251 214.269 284.251 195.755V184.309C284.243 182.038 283.637 179.804 282.487 177.803C282.487 177.321 282.487 176.879 282.487 176.398V164.831C282.491 162.541 281.869 160.288 280.68 158.285C280.936 157.19 281.066 156.073 281.067 154.952V142.703C283.053 139.991 284.131 136.79 284.165 133.506V121.94C284.112 119.296 283.301 116.714 281.819 114.462C280.336 112.209 278.234 110.368 275.731 109.129C269.809 106.097 263.488 103.802 256.928 102.301C247.89 100.428 238.645 99.5655 229.389 99.7309L228.787 99.8514Z" fill="#1F093D"/>
</g>
<path d="M271.084 183.586H182.057C181.486 183.586 180.939 183.798 180.536 184.174C180.132 184.551 179.905 185.062 179.905 185.594V196.156C179.905 205.393 205.422 210.895 228.615 210.895C251.807 210.895 273.408 205.072 273.408 195.875V185.434C273.353 184.904 273.08 184.416 272.647 184.071C272.213 183.726 271.653 183.552 271.084 183.586V183.586Z" fill="#FFB700"/>
<path d="M196.902 194.871H194.407V206.959H196.902V194.871Z" fill="#C47F0B"/>
<path d="M227.109 212.903C207.272 212.903 177.754 208.445 177.754 196.156V184.509C177.754 182.461 179.432 179.489 182.057 179.489L271.085 181.015C272.226 181.015 273.32 181.438 274.127 182.192C274.934 182.945 275.388 183.966 275.388 185.031V195.875C275.388 207.039 251.076 212.903 227.109 212.903ZM182.444 183.505C182.228 183.805 182.095 184.15 182.057 184.509V196.156C182.057 202.943 203.098 208.887 227.109 208.887C251.119 208.887 271.085 202.943 271.085 195.875V185.031L182.444 183.505Z" fill="#C47F0B"/>
<path d="M226.549 196.638C251.121 196.638 271.041 191.244 271.041 184.59C271.041 177.936 251.121 172.542 226.549 172.542C201.977 172.542 182.057 177.936 182.057 184.59C182.057 191.244 201.977 196.638 226.549 196.638Z" fill="#FFCF00"/>
<path d="M226.549 196.638C251.121 196.638 271.041 191.244 271.041 184.59C271.041 177.936 251.121 172.542 226.549 172.542C201.977 172.542 182.057 177.936 182.057 184.59C182.057 191.244 201.977 196.638 226.549 196.638Z" fill="url(#paint2_linear_140:19580)"/>
<path d="M226.936 191.819C204.174 191.819 193.933 187.803 190.017 185.634C187.736 184.309 188.683 183.425 189.458 182.903C193.072 180.333 203.829 176.558 226.549 176.558C249.268 176.558 262.048 181.096 265.275 183.746C265.878 184.228 265.275 184.911 263.425 186.317C260.026 188.726 250 191.819 226.936 191.819Z" fill="#FBBB00"/>
<path d="M265.362 183.747C262.048 181.097 249.699 176.558 226.635 176.558C221.476 176.541 216.319 176.783 211.188 177.281C214.243 177.281 217.513 177 221.171 177C244.32 177 258.563 181.016 261.876 183.747C262.479 184.229 262.823 184.832 260.8 186.237C253.887 189.378 246.363 191.181 238.683 191.538C253.615 190.695 260.757 188.285 263.597 186.318C265.534 184.912 265.964 184.229 265.362 183.747Z" fill="#C47F0B"/>
<path d="M199.655 181.177C209.669 180.325 219.734 180.137 229.776 180.615C237.564 180.896 246.213 181.94 256.454 182.904C247.386 179.871 237.817 178.348 228.184 178.406C218.574 177.77 208.919 178.708 199.655 181.177V181.177Z" fill="#FFCF00"/>
<path d="M228.357 199.25C204.002 199.25 177.754 193.547 177.754 184.31C177.754 175.073 202.281 169.973 226.549 169.973C250.818 169.973 275.388 174.912 275.388 184.31C275.388 193.708 251.162 199.25 228.357 199.25ZM226.549 173.989C199.398 173.989 182.057 180.093 182.057 184.31C182.057 188.527 201.506 195.234 228.357 195.234C255.207 195.234 271.085 188.888 271.085 184.31C271.085 179.732 253.744 173.989 226.549 173.989V173.989Z" fill="#C47F0B"/>
<path d="M206.11 195.955H203.614V208.566H206.11V195.955Z" fill="#C47F0B"/>
<path d="M261.961 192.702H259.466V204.871H261.961V192.702Z" fill="#C47F0B"/>
<path d="M252.538 196.277H250.043V207.322H252.538V196.277Z" fill="#C47F0B"/>
<path d="M241.007 197.241H238.511V210.052H241.007V197.241Z" fill="#C47F0B"/>
<path d="M218.589 197.522H216.093V210.655H218.589V197.522Z" fill="#C47F0B"/>
<path d="M230.336 197.643H227.84V210.454H230.336V197.643Z" fill="#C47F0B"/>
<path d="M188.555 191.778H186.059V203.867H188.555V191.778Z" fill="#C47F0B"/>
<path d="M214.587 189.45C214.587 189.45 239.2 191.096 245.31 189.45C245.31 189.45 228.098 184.911 214.587 189.45Z" fill="#FFCF00"/>
<path d="M269.406 164.108H180.378C179.808 164.108 179.261 164.32 178.857 164.697C178.454 165.073 178.227 165.584 178.227 166.116V176.679C178.227 185.916 203.786 191.418 226.979 191.418C250.172 191.418 271.557 185.434 271.557 176.398V166.116C271.546 165.587 271.316 165.082 270.915 164.708C270.514 164.334 269.973 164.119 269.406 164.108V164.108Z" fill="#FFB700"/>
<path d="M195.224 175.394H192.728V187.482H195.224V175.394Z" fill="#C47F0B"/>
<path d="M225.43 193.465C205.594 193.465 176.076 189.008 176.076 176.718V165.072C176.076 163.024 177.754 160.052 180.379 160.052L269.406 161.578C270.547 161.578 271.642 162.001 272.449 162.754C273.256 163.507 273.709 164.529 273.709 165.594V176.437C273.709 187.562 249.398 193.465 225.43 193.465ZM180.766 164.028C180.568 164.336 180.437 164.677 180.379 165.032V176.678C180.379 183.465 201.42 189.409 225.43 189.409C249.441 189.409 269.406 183.465 269.406 176.397V165.554L180.766 164.028Z" fill="#C47F0B"/>
<path d="M224.87 177.161C249.443 177.161 269.363 171.767 269.363 165.113C269.363 158.459 249.443 153.064 224.87 153.064C200.298 153.064 180.378 158.459 180.378 165.113C180.378 171.767 200.298 177.161 224.87 177.161Z" fill="#FFCF00"/>
<path d="M224.87 177.161C249.443 177.161 269.363 171.767 269.363 165.113C269.363 158.459 249.443 153.064 224.87 153.064C200.298 153.064 180.378 158.459 180.378 165.113C180.378 171.767 200.298 177.161 224.87 177.161Z" fill="url(#paint3_linear_140:19580)"/>
<path d="M225.259 172.342C202.496 172.342 192.255 168.326 188.339 166.157C186.059 164.832 187.049 163.949 187.823 163.426C191.395 160.856 202.152 157.081 224.871 157.081C247.591 157.081 260.37 161.619 263.598 164.27C264.2 164.752 263.598 165.434 261.747 166.84C258.348 169.37 248.322 172.342 225.259 172.342Z" fill="#FBBB00"/>
<path d="M198.021 161.698C207.953 160.922 217.932 160.801 227.883 161.337C235.671 161.618 244.32 162.662 254.561 163.626C245.493 160.593 235.924 159.07 226.291 159.128C216.779 158.449 207.213 159.318 198.021 161.698V161.698Z" fill="#FFCF00"/>
<path d="M226.678 179.771C202.367 179.771 176.076 174.068 176.076 164.831C176.076 155.595 200.645 150.494 224.871 150.494C249.096 150.494 273.709 155.434 273.709 164.831C273.709 174.229 249.484 179.771 226.678 179.771ZM224.871 154.51C197.719 154.51 180.379 160.615 180.379 164.831C180.379 169.048 199.828 175.755 226.678 175.755C253.528 175.755 269.406 169.41 269.406 164.831C269.406 160.253 251.893 154.51 224.871 154.51Z" fill="#C47F0B"/>
<path d="M204.432 176.478H201.937V189.088H204.432V176.478Z" fill="#C47F0B"/>
<path d="M260.284 173.226H257.789V185.394H260.284V173.226Z" fill="#C47F0B"/>
<path d="M250.904 176.799H248.408V187.843H250.904V176.799Z" fill="#C47F0B"/>
<path d="M239.329 177.764H236.833V190.575H239.329V177.764Z" fill="#C47F0B"/>
<path d="M216.911 178.044H214.415V191.217H216.911V178.044Z" fill="#C47F0B"/>
<path d="M228.658 178.165H226.162V190.976H228.658V178.165Z" fill="#C47F0B"/>
<path d="M186.876 172.302H184.38V184.39H186.876V172.302Z" fill="#C47F0B"/>
<path d="M212.909 169.771C212.909 169.771 237.521 171.418 243.632 169.771C243.632 169.771 226.42 165.353 212.909 169.771Z" fill="#FFCF00"/>
<path d="M267.986 142.662H178.958C178.391 142.672 177.85 142.887 177.449 143.262C177.048 143.636 176.818 144.141 176.807 144.67V155.232C176.807 164.469 202.366 169.971 225.559 169.971C248.752 169.971 270.137 164.148 270.137 154.951V144.67C270.137 144.406 270.081 144.145 269.973 143.902C269.865 143.658 269.707 143.437 269.507 143.25C269.307 143.064 269.07 142.916 268.809 142.815C268.548 142.714 268.268 142.662 267.986 142.662Z" fill="#FFB700"/>
<path d="M193.804 153.908H191.308V165.997H193.804V153.908Z" fill="#C47F0B"/>
<path d="M224.01 171.979C204.173 171.979 174.655 167.521 174.655 155.232V143.586C174.655 141.537 176.334 138.565 178.958 138.565L268.029 140.092C269.17 140.092 270.265 140.515 271.072 141.268C271.878 142.021 272.332 143.042 272.332 144.108V154.951C272.289 166.116 248.02 171.979 224.01 171.979ZM179.346 142.581C179.148 142.89 179.017 143.231 178.958 143.586V155.232C178.958 162.019 200.043 167.963 224.01 167.963C247.977 167.963 267.986 162.019 267.986 154.951V144.108L179.346 142.581Z" fill="#C47F0B"/>
<path d="M223.494 155.715C248.067 155.715 267.987 150.32 267.987 143.666C267.987 137.012 248.067 131.618 223.494 131.618C198.922 131.618 179.002 137.012 179.002 143.666C179.002 150.32 198.922 155.715 223.494 155.715Z" fill="#FFCF00"/>
<path d="M223.494 155.715C248.067 155.715 267.987 150.32 267.987 143.666C267.987 137.012 248.067 131.618 223.494 131.618C198.922 131.618 179.002 137.012 179.002 143.666C179.002 150.32 198.922 155.715 223.494 155.715Z" fill="url(#paint4_linear_140:19580)"/>
<path d="M223.881 150.895C201.076 150.895 190.835 146.879 186.962 144.71C184.639 143.385 185.628 142.501 186.403 141.979C190.017 139.409 200.775 135.634 223.494 135.634C246.214 135.634 258.95 140.132 262.22 142.823C262.823 143.304 262.22 143.987 260.37 145.393C256.971 147.802 246.945 150.895 223.881 150.895Z" fill="#FBBB00"/>
<path d="M262.264 142.823C258.95 140.132 246.644 135.634 223.537 135.634C217.556 135.634 212.479 135.915 208.047 136.317C211.102 136.317 214.415 136.076 218.073 136.076C241.222 136.076 255.422 140.092 258.735 142.823C259.338 143.304 259.725 143.907 257.703 145.312C250.775 148.458 243.237 150.261 235.542 150.614C250.517 149.77 257.66 147.361 260.456 145.393C262.436 143.987 262.866 143.304 262.264 142.823Z" fill="#C47F0B"/>
<path d="M196.6 140.252C206.614 139.4 216.679 139.212 226.721 139.69C234.509 139.971 243.158 141.015 253.399 141.979C244.315 138.95 234.732 137.428 225.086 137.481C215.49 136.823 205.845 137.761 196.6 140.252V140.252Z" fill="#FFCF00"/>
<path d="M225.301 158.326C200.946 158.326 174.655 152.624 174.655 143.387C174.655 134.15 199.225 129.21 223.494 129.21C247.762 129.21 272.289 134.11 272.289 143.547C272.289 152.985 248.063 158.326 225.301 158.326ZM223.494 133.226C196.299 133.226 178.958 139.33 178.958 143.547C178.958 147.764 198.408 154.471 225.301 154.471C252.194 154.471 267.986 148.126 267.986 143.547C267.986 138.969 250.645 133.226 223.494 133.226Z" fill="#C47F0B"/>
<path d="M203.055 155.032H200.559V167.643H203.055V155.032Z" fill="#C47F0B"/>
<path d="M258.907 151.779H256.411V163.948H258.907V151.779Z" fill="#C47F0B"/>
<path d="M249.483 155.354H246.988V166.398H249.483V155.354Z" fill="#C47F0B"/>
<path d="M237.908 156.318H235.413V169.13H237.908V156.318Z" fill="#C47F0B"/>
<path d="M215.491 156.599H212.995V169.771H215.491V156.599Z" fill="#C47F0B"/>
<path d="M227.237 156.719H224.742V169.53H227.237V156.719Z" fill="#C47F0B"/>
<path d="M185.498 150.855H183.003V162.944H185.498V150.855Z" fill="#C47F0B"/>
<path d="M211.488 148.325C211.488 148.325 236.101 149.972 242.211 148.325C242.211 148.325 225 143.988 211.488 148.325Z" fill="#FFCF00"/>
<path d="M271.084 121.177H182.057C181.486 121.177 180.939 121.388 180.536 121.765C180.132 122.141 179.905 122.652 179.905 123.185V133.747C179.905 142.944 205.422 148.486 228.615 148.486C251.807 148.486 273.408 142.743 273.408 133.506V123.265C273.421 122.98 273.369 122.697 273.256 122.432C273.143 122.168 272.971 121.929 272.751 121.732C272.531 121.534 272.269 121.382 271.982 121.287C271.694 121.191 271.388 121.153 271.084 121.177V121.177Z" fill="#FFB700"/>
<path d="M196.902 132.502H194.407V144.59H196.902V132.502Z" fill="#C47F0B"/>
<path d="M227.109 150.574C207.272 150.574 177.754 146.116 177.754 133.827V122.14C177.754 120.092 179.432 117.12 182.057 117.12L271.085 118.686C272.226 118.686 273.32 119.11 274.127 119.863C274.934 120.616 275.388 121.637 275.388 122.702V133.506C275.388 144.71 251.076 150.574 227.109 150.574ZM182.444 121.176C182.224 121.459 182.09 121.792 182.057 122.14V133.827C182.057 140.574 203.098 146.558 227.109 146.558C251.119 146.558 271.085 140.574 271.085 133.506V122.702L182.444 121.176Z" fill="#C47F0B"/>
<path d="M226.549 134.308C251.121 134.308 271.041 128.914 271.041 122.26C271.041 115.606 251.121 110.212 226.549 110.212C201.977 110.212 182.057 115.606 182.057 122.26C182.057 128.914 201.977 134.308 226.549 134.308Z" fill="#FFCF00"/>
<path d="M226.549 134.308C251.121 134.308 271.041 128.914 271.041 122.26C271.041 115.606 251.121 110.212 226.549 110.212C201.977 110.212 182.057 115.606 182.057 122.26C182.057 128.914 201.977 134.308 226.549 134.308Z" fill="url(#paint5_linear_140:19580)"/>
<path d="M226.936 129.49C204.174 129.49 193.933 125.473 190.017 123.265C187.736 121.939 188.683 121.096 189.458 120.534C193.072 118.004 203.829 114.229 226.549 114.229C249.268 114.229 262.048 118.727 265.275 121.377C265.878 121.859 265.275 122.542 263.425 123.947C260.026 126.357 250 129.49 226.936 129.49Z" fill="#FBBB00"/>
<path d="M265.362 121.378C262.048 118.727 249.699 114.229 226.635 114.229C221.477 114.2 216.32 114.428 211.188 114.912C214.243 114.912 217.513 114.631 221.171 114.631C244.32 114.631 258.563 118.647 261.876 121.378C262.479 121.859 262.823 122.502 260.8 123.908C253.858 127.053 246.305 128.856 238.597 129.209C253.529 128.365 260.671 125.956 263.511 123.988C265.534 122.542 265.964 121.859 265.362 121.378Z" fill="#C47F0B"/>
<path d="M199.655 118.808C209.669 117.955 219.734 117.768 229.776 118.246C237.564 118.567 246.213 119.611 256.454 120.575C247.393 117.513 237.821 115.977 228.184 116.037C218.574 115.401 208.919 116.339 199.655 118.808V118.808Z" fill="#FFCF00"/>
<path d="M228.357 136.92C204.002 136.92 177.754 131.177 177.754 121.94C177.754 112.703 202.281 107.603 226.549 107.603C250.818 107.603 275.388 112.542 275.388 121.94C275.388 131.337 251.162 136.92 228.357 136.92ZM226.549 111.619C199.398 111.619 182.057 117.763 182.057 121.94C182.057 126.117 201.506 132.904 228.357 132.904C255.207 132.904 271.085 126.518 271.085 121.94C271.085 117.362 253.744 111.619 226.549 111.619V111.619Z" fill="#C47F0B"/>
<path d="M206.11 133.626H203.614V146.236H206.11V133.626Z" fill="#C47F0B"/>
<path d="M261.961 130.333H259.466V142.502H261.961V130.333Z" fill="#C47F0B"/>
<path d="M252.538 133.947H250.043V144.991H252.538V133.947Z" fill="#C47F0B"/>
<path d="M241.007 134.871H238.511V147.682H241.007V134.871Z" fill="#C47F0B"/>
<path d="M218.589 135.153H216.093V148.326H218.589V135.153Z" fill="#C47F0B"/>
<path d="M230.336 135.273H227.84V148.085H230.336V135.273Z" fill="#C47F0B"/>
<path d="M188.555 129.41H186.059V141.499H188.555V129.41Z" fill="#C47F0B"/>
<path d="M214.587 126.92C214.587 126.92 239.2 128.526 245.31 126.92C245.31 126.92 228.098 122.583 214.587 126.92Z" fill="#FFCF00"/>
<path d="M177.108 233.927C171.385 233.927 121.17 233.285 121.17 211.156V198.666V198.185C120.02 196.184 119.414 193.949 119.406 191.678V179.389C119.495 178.501 119.742 177.632 120.138 176.819C118.943 174.804 118.321 172.536 118.33 170.233V159.55C118.269 158.533 118.269 157.514 118.33 156.498C118.664 154.221 119.782 152.107 121.515 150.474C121.473 149.925 121.473 149.375 121.515 148.827V136.498C121.47 135.829 121.47 135.158 121.515 134.49C121.814 132.618 122.597 130.843 123.797 129.317C124.996 127.792 126.576 126.562 128.399 125.735C131.749 123.788 135.388 122.313 139.2 121.357C142.505 120.372 145.885 119.62 149.311 119.108C159.264 117.54 169.339 116.747 179.432 116.739C188.513 116.58 197.582 117.416 206.454 119.229C212.8 120.628 218.92 122.802 224.656 125.695C226.877 126.75 228.741 128.36 230.04 130.345C231.339 132.33 232.022 134.613 232.014 136.94V148.506C231.992 151.631 230.874 154.664 228.83 157.14C228.871 157.554 228.871 157.971 228.83 158.385V169.952C228.83 171.172 228.657 172.388 228.313 173.566C229.576 175.443 230.247 177.615 230.249 179.831V191.397C230.313 191.998 230.313 192.604 230.249 193.205C231.409 195.057 232.018 197.164 232.014 199.309V210.875C232.014 227.903 202.323 233.927 177.108 233.927Z" fill="white"/>
<g filter="url(#filter3_d_140:19580)">
<path d="M179.389 118.747C188.296 118.609 197.19 119.431 205.895 121.197C212.001 122.544 217.889 124.637 223.408 127.422C225.287 128.31 226.86 129.674 227.948 131.357C229.036 133.04 229.595 134.974 229.561 136.94V148.506C229.494 151.455 228.339 154.292 226.291 156.538C226.355 157.126 226.355 157.718 226.291 158.305V169.871C226.293 171.239 226.046 172.597 225.559 173.888C226.941 175.602 227.695 177.686 227.711 179.831V191.398C227.708 192.154 227.621 192.907 227.453 193.647C228.698 195.307 229.373 197.282 229.389 199.309V210.875C229.389 225.414 202.969 231.92 176.807 231.92C156.885 231.92 123.15 227.542 123.15 211.157V198.867V198.426C123.15 198.185 123.15 197.984 123.15 197.823C121.952 195.968 121.313 193.845 121.299 191.679V179.39C121.253 178.459 121.46 177.534 121.902 176.699C120.583 174.767 119.881 172.524 119.88 170.233V159.55C119.88 159.55 119.88 157.663 119.88 156.699C120.33 154.54 121.506 152.57 123.236 151.076C123.063 150.338 122.976 149.583 122.978 148.827V136.498C122.932 135.95 122.932 135.399 122.978 134.851C123.23 133.245 123.91 131.724 124.955 130.426C126 129.128 127.376 128.095 128.959 127.422C132.162 125.601 135.645 124.247 139.286 123.406C142.471 122.421 145.738 121.682 149.053 121.197C158.88 119.664 168.824 118.885 178.787 118.867L179.389 118.747ZM178.787 114.851C168.594 114.88 158.421 115.673 148.365 117.221C144.837 117.774 141.357 118.565 137.952 119.59C134.17 120.627 130.564 122.155 127.238 124.129C125.154 125.111 123.351 126.541 121.974 128.3C120.598 130.059 119.688 132.098 119.32 134.249C119.248 135.037 119.248 135.83 119.32 136.618V148.948C119.299 149.282 119.299 149.617 119.32 149.952C117.622 151.723 116.502 153.911 116.093 156.257C116.004 157.38 116.004 158.508 116.093 159.631V170.153C116.094 172.513 116.652 174.844 117.728 176.98C117.648 177.822 117.648 178.668 117.728 179.51V191.558C117.721 193.911 118.295 196.233 119.406 198.345V211.036C119.406 229.349 150.602 235.815 177.367 235.815C204.131 235.815 234.251 229.269 234.251 210.755V199.309C234.243 197.038 233.637 194.804 232.487 192.803C232.487 192.321 232.487 191.879 232.487 191.398V179.831C232.491 177.541 231.869 175.288 230.68 173.285C230.936 172.19 231.066 171.073 231.067 169.952V157.703C233.053 154.991 234.131 151.79 234.165 148.506V136.94C234.112 134.296 233.301 131.714 231.819 129.462C230.336 127.209 228.234 125.368 225.731 124.129C219.809 121.097 213.488 118.802 206.928 117.301C197.89 115.428 188.645 114.565 179.389 114.731L178.787 114.851Z" fill="#1F093D"/>
</g>
<path d="M221.084 198.586H132.057C131.486 198.586 130.939 198.798 130.536 199.174C130.132 199.551 129.905 200.062 129.905 200.594V211.156C129.905 220.393 155.422 225.895 178.615 225.895C201.807 225.895 223.408 220.072 223.408 210.875V200.434C223.353 199.904 223.08 199.416 222.647 199.071C222.213 198.726 221.653 198.552 221.084 198.586V198.586Z" fill="#FFB700"/>
<path d="M146.902 209.871H144.407V221.959H146.902V209.871Z" fill="#C47F0B"/>
<path d="M177.109 227.903C157.272 227.903 127.754 223.445 127.754 211.156V199.509C127.754 197.461 129.432 194.489 132.057 194.489L221.085 196.015C222.226 196.015 223.32 196.438 224.127 197.192C224.934 197.945 225.388 198.966 225.388 200.031V210.875C225.388 222.039 201.076 227.903 177.109 227.903ZM132.444 198.505C132.228 198.805 132.095 199.15 132.057 199.509V211.156C132.057 217.943 153.098 223.887 177.109 223.887C201.119 223.887 221.085 217.943 221.085 210.875V200.031L132.444 198.505Z" fill="#C47F0B"/>
<path d="M176.549 211.638C201.121 211.638 221.041 206.244 221.041 199.59C221.041 192.936 201.121 187.542 176.549 187.542C151.977 187.542 132.057 192.936 132.057 199.59C132.057 206.244 151.977 211.638 176.549 211.638Z" fill="#FFCF00"/>
<path d="M176.549 211.638C201.121 211.638 221.041 206.244 221.041 199.59C221.041 192.936 201.121 187.542 176.549 187.542C151.977 187.542 132.057 192.936 132.057 199.59C132.057 206.244 151.977 211.638 176.549 211.638Z" fill="url(#paint6_linear_140:19580)"/>
<path d="M176.936 206.819C154.174 206.819 143.933 202.803 140.017 200.634C137.736 199.309 138.683 198.425 139.458 197.903C143.072 195.333 153.829 191.558 176.549 191.558C199.268 191.558 212.048 196.096 215.275 198.746C215.878 199.228 215.275 199.911 213.425 201.317C210.026 203.726 200 206.819 176.936 206.819Z" fill="#FBBB00"/>
<path d="M215.362 198.747C212.048 196.097 199.699 191.558 176.635 191.558C171.476 191.541 166.319 191.783 161.188 192.281C164.243 192.281 167.513 192 171.171 192C194.32 192 208.563 196.016 211.876 198.747C212.479 199.229 212.823 199.832 210.8 201.237C203.887 204.378 196.363 206.181 188.683 206.538C203.615 205.695 210.757 203.285 213.597 201.318C215.534 199.912 215.964 199.229 215.362 198.747Z" fill="#C47F0B"/>
<path d="M149.655 196.177C159.669 195.325 169.734 195.137 179.776 195.615C187.564 195.896 196.213 196.94 206.454 197.904C197.386 194.871 187.817 193.348 178.184 193.406C168.574 192.77 158.919 193.708 149.655 196.177V196.177Z" fill="#FFCF00"/>
<path d="M178.357 214.25C154.002 214.25 127.754 208.547 127.754 199.31C127.754 190.073 152.281 184.973 176.549 184.973C200.818 184.973 225.388 189.912 225.388 199.31C225.388 208.708 201.162 214.25 178.357 214.25ZM176.549 188.989C149.398 188.989 132.057 195.093 132.057 199.31C132.057 203.527 151.506 210.234 178.357 210.234C205.207 210.234 221.085 203.888 221.085 199.31C221.085 194.732 203.744 188.989 176.549 188.989V188.989Z" fill="#C47F0B"/>
<path d="M156.11 210.955H153.614V223.566H156.11V210.955Z" fill="#C47F0B"/>
<path d="M211.961 207.702H209.466V219.871H211.961V207.702Z" fill="#C47F0B"/>
<path d="M202.538 211.277H200.043V222.322H202.538V211.277Z" fill="#C47F0B"/>
<path d="M191.007 212.241H188.511V225.052H191.007V212.241Z" fill="#C47F0B"/>
<path d="M168.589 212.522H166.093V225.655H168.589V212.522Z" fill="#C47F0B"/>
<path d="M180.336 212.643H177.84V225.454H180.336V212.643Z" fill="#C47F0B"/>
<path d="M138.555 206.778H136.059V218.867H138.555V206.778Z" fill="#C47F0B"/>
<path d="M164.587 204.45C164.587 204.45 189.2 206.096 195.31 204.45C195.31 204.45 178.098 199.911 164.587 204.45Z" fill="#FFCF00"/>
<path d="M219.406 179.108H130.378C129.808 179.108 129.261 179.32 128.857 179.697C128.454 180.073 128.227 180.584 128.227 181.116V191.679C128.227 200.916 153.786 206.418 176.979 206.418C200.172 206.418 221.557 200.434 221.557 191.398V181.116C221.546 180.587 221.316 180.082 220.915 179.708C220.514 179.334 219.973 179.119 219.406 179.108V179.108Z" fill="#FFB700"/>
<path d="M145.224 190.394H142.728V202.482H145.224V190.394Z" fill="#C47F0B"/>
<path d="M175.43 208.465C155.594 208.465 126.076 204.008 126.076 191.718V180.072C126.076 178.024 127.754 175.052 130.379 175.052L219.406 176.578C220.547 176.578 221.642 177.001 222.449 177.754C223.256 178.507 223.709 179.529 223.709 180.594V191.437C223.709 202.562 199.397 208.465 175.43 208.465ZM130.766 179.028C130.568 179.336 130.437 179.677 130.379 180.032V191.678C130.379 198.465 151.42 204.409 175.43 204.409C199.441 204.409 219.406 198.465 219.406 191.397V180.554L130.766 179.028Z" fill="#C47F0B"/>
<path d="M174.87 192.161C199.443 192.161 219.363 186.767 219.363 180.113C219.363 173.459 199.443 168.064 174.87 168.064C150.298 168.064 130.378 173.459 130.378 180.113C130.378 186.767 150.298 192.161 174.87 192.161Z" fill="#FFCF00"/>
<path d="M174.87 192.161C199.443 192.161 219.363 186.767 219.363 180.113C219.363 173.459 199.443 168.064 174.87 168.064C150.298 168.064 130.378 173.459 130.378 180.113C130.378 186.767 150.298 192.161 174.87 192.161Z" fill="url(#paint7_linear_140:19580)"/>
<path d="M175.259 187.342C152.496 187.342 142.255 183.326 138.339 181.157C136.059 179.832 137.049 178.949 137.823 178.426C141.394 175.856 152.152 172.081 174.871 172.081C197.591 172.081 210.37 176.619 213.598 179.27C214.2 179.752 213.598 180.434 211.747 181.84C208.348 184.37 198.322 187.342 175.259 187.342Z" fill="#FBBB00"/>
<path d="M148.021 176.698C157.953 175.922 167.932 175.801 177.883 176.337C185.671 176.618 194.32 177.662 204.561 178.626C195.493 175.593 185.924 174.07 176.291 174.128C166.779 173.449 157.213 174.318 148.021 176.698V176.698Z" fill="#FFCF00"/>
<path d="M176.678 194.771C152.367 194.771 126.076 189.068 126.076 179.831C126.076 170.595 150.645 165.494 174.871 165.494C199.096 165.494 223.709 170.434 223.709 179.831C223.709 189.229 199.484 194.771 176.678 194.771ZM174.871 169.51C147.719 169.51 130.379 175.615 130.379 179.831C130.379 184.048 149.828 190.755 176.678 190.755C203.528 190.755 219.406 184.41 219.406 179.831C219.406 175.253 201.893 169.51 174.871 169.51Z" fill="#C47F0B"/>
<path d="M154.432 191.478H151.937V204.088H154.432V191.478Z" fill="#C47F0B"/>
<path d="M210.284 188.226H207.789V200.394H210.284V188.226Z" fill="#C47F0B"/>
<path d="M200.904 191.799H198.408V202.843H200.904V191.799Z" fill="#C47F0B"/>
<path d="M189.329 192.764H186.833V205.575H189.329V192.764Z" fill="#C47F0B"/>
<path d="M166.911 193.044H164.415V206.217H166.911V193.044Z" fill="#C47F0B"/>
<path d="M178.658 193.165H176.162V205.976H178.658V193.165Z" fill="#C47F0B"/>
<path d="M136.876 187.302H134.38V199.39H136.876V187.302Z" fill="#C47F0B"/>
<path d="M162.909 184.771C162.909 184.771 187.521 186.418 193.632 184.771C193.632 184.771 176.42 180.353 162.909 184.771Z" fill="#FFCF00"/>
<path d="M217.986 157.662H128.958C128.391 157.672 127.85 157.887 127.449 158.262C127.048 158.636 126.818 159.141 126.807 159.67V170.232C126.807 179.469 152.366 184.971 175.559 184.971C198.752 184.971 220.137 179.148 220.137 169.951V159.67C220.137 159.406 220.082 159.145 219.973 158.902C219.865 158.658 219.707 158.437 219.507 158.25C219.307 158.064 219.07 157.916 218.809 157.815C218.548 157.714 218.268 157.662 217.986 157.662Z" fill="#FFB700"/>
<path d="M143.804 168.908H141.308V180.997H143.804V168.908Z" fill="#C47F0B"/>
<path d="M174.01 186.979C154.173 186.979 124.655 182.521 124.655 170.232V158.586C124.655 156.537 126.334 153.565 128.958 153.565L218.029 155.092C219.17 155.092 220.265 155.515 221.072 156.268C221.878 157.021 222.332 158.042 222.332 159.108V169.951C222.289 181.116 198.02 186.979 174.01 186.979ZM129.346 157.581C129.148 157.89 129.016 158.231 128.958 158.586V170.232C128.958 177.019 150.043 182.963 174.01 182.963C197.977 182.963 217.986 177.019 217.986 169.951V159.108L129.346 157.581Z" fill="#C47F0B"/>
<path d="M173.494 170.715C198.067 170.715 217.986 165.32 217.986 158.666C217.986 152.012 198.067 146.618 173.494 146.618C148.922 146.618 129.002 152.012 129.002 158.666C129.002 165.32 148.922 170.715 173.494 170.715Z" fill="#FFCF00"/>
<path d="M173.494 170.715C198.067 170.715 217.986 165.32 217.986 158.666C217.986 152.012 198.067 146.618 173.494 146.618C148.922 146.618 129.002 152.012 129.002 158.666C129.002 165.32 148.922 170.715 173.494 170.715Z" fill="url(#paint8_linear_140:19580)"/>
<path d="M173.881 165.895C151.076 165.895 140.835 161.879 136.962 159.71C134.639 158.385 135.628 157.501 136.403 156.979C140.017 154.409 150.775 150.634 173.494 150.634C196.214 150.634 208.95 155.132 212.22 157.823C212.823 158.304 212.22 158.987 210.37 160.393C206.971 162.802 196.945 165.895 173.881 165.895Z" fill="#FBBB00"/>
<path d="M212.264 157.823C208.95 155.132 196.644 150.634 173.537 150.634C167.556 150.634 162.479 150.915 158.047 151.317C161.102 151.317 164.415 151.076 168.073 151.076C191.222 151.076 205.422 155.092 208.735 157.823C209.338 158.304 209.725 158.907 207.703 160.312C200.775 163.458 193.237 165.261 185.543 165.614C200.517 164.77 207.66 162.361 210.456 160.393C212.436 158.987 212.866 158.304 212.264 157.823Z" fill="#C47F0B"/>
<path d="M146.6 155.252C156.614 154.4 166.679 154.212 176.721 154.69C184.509 154.971 193.158 156.015 203.399 156.979C194.315 153.95 184.732 152.428 175.086 152.481C165.49 151.823 155.845 152.761 146.6 155.252V155.252Z" fill="#FFCF00"/>
<path d="M175.301 173.326C150.946 173.326 124.655 167.624 124.655 158.387C124.655 149.15 149.225 144.21 173.494 144.21C197.762 144.21 222.289 149.11 222.289 158.547C222.289 167.985 198.063 173.326 175.301 173.326ZM173.494 148.226C146.299 148.226 128.958 154.33 128.958 158.547C128.958 162.764 148.408 169.471 175.301 169.471C202.194 169.471 217.986 163.126 217.986 158.547C217.986 153.969 200.645 148.226 173.494 148.226Z" fill="#C47F0B"/>
<path d="M153.055 170.032H150.559V182.643H153.055V170.032Z" fill="#C47F0B"/>
<path d="M208.907 166.779H206.411V178.948H208.907V166.779Z" fill="#C47F0B"/>
<path d="M199.483 170.354H196.988V181.398H199.483V170.354Z" fill="#C47F0B"/>
<path d="M187.908 171.318H185.413V184.13H187.908V171.318Z" fill="#C47F0B"/>
<path d="M165.491 171.599H162.995V184.771H165.491V171.599Z" fill="#C47F0B"/>
<path d="M177.237 171.719H174.742V184.53H177.237V171.719Z" fill="#C47F0B"/>
<path d="M135.498 165.855H133.003V177.944H135.498V165.855Z" fill="#C47F0B"/>
<path d="M161.488 163.325C161.488 163.325 186.101 164.972 192.211 163.325C192.211 163.325 175 158.988 161.488 163.325Z" fill="#FFCF00"/>
<path d="M221.084 136.177H132.057C131.486 136.177 130.939 136.388 130.536 136.765C130.132 137.141 129.905 137.652 129.905 138.185V148.747C129.905 157.944 155.422 163.486 178.615 163.486C201.807 163.486 223.408 157.743 223.408 148.506V138.265C223.421 137.98 223.369 137.697 223.256 137.432C223.143 137.168 222.971 136.929 222.751 136.732C222.531 136.534 222.269 136.382 221.982 136.287C221.694 136.191 221.388 136.153 221.084 136.177V136.177Z" fill="#FFB700"/>
<path d="M146.902 147.502H144.407V159.59H146.902V147.502Z" fill="#C47F0B"/>
<path d="M177.109 165.574C157.272 165.574 127.754 161.116 127.754 148.827V137.14C127.754 135.092 129.432 132.12 132.057 132.12L221.085 133.686C222.226 133.686 223.32 134.11 224.127 134.863C224.934 135.616 225.388 136.637 225.388 137.702V148.506C225.388 159.71 201.076 165.574 177.109 165.574ZM132.444 136.176C132.224 136.459 132.09 136.792 132.057 137.14V148.827C132.057 155.574 153.098 161.558 177.109 161.558C201.119 161.558 221.085 155.574 221.085 148.506V137.702L132.444 136.176Z" fill="#C47F0B"/>
<path d="M176.549 149.308C201.121 149.308 221.041 143.914 221.041 137.26C221.041 130.606 201.121 125.212 176.549 125.212C151.977 125.212 132.057 130.606 132.057 137.26C132.057 143.914 151.977 149.308 176.549 149.308Z" fill="#FFCF00"/>
<path d="M176.549 149.308C201.121 149.308 221.041 143.914 221.041 137.26C221.041 130.606 201.121 125.212 176.549 125.212C151.977 125.212 132.057 130.606 132.057 137.26C132.057 143.914 151.977 149.308 176.549 149.308Z" fill="url(#paint9_linear_140:19580)"/>
<path d="M176.936 144.49C154.174 144.49 143.933 140.473 140.017 138.265C137.736 136.939 138.683 136.096 139.458 135.534C143.072 133.004 153.829 129.229 176.549 129.229C199.268 129.229 212.048 133.727 215.275 136.377C215.878 136.859 215.275 137.542 213.425 138.947C210.026 141.357 200 144.49 176.936 144.49Z" fill="#FBBB00"/>
<path d="M215.362 136.378C212.048 133.727 199.699 129.229 176.635 129.229C171.477 129.2 166.32 129.428 161.188 129.912C164.243 129.912 167.513 129.631 171.171 129.631C194.32 129.631 208.563 133.647 211.876 136.378C212.479 136.859 212.823 137.502 210.8 138.908C203.858 142.053 196.305 143.856 188.597 144.209C203.529 143.365 210.671 140.956 213.511 138.988C215.534 137.542 215.964 136.859 215.362 136.378Z" fill="#C47F0B"/>
<path d="M149.655 133.808C159.669 132.955 169.734 132.768 179.776 133.246C187.564 133.567 196.213 134.611 206.454 135.575C197.393 132.513 187.821 130.977 178.184 131.037C168.574 130.401 158.919 131.339 149.655 133.808V133.808Z" fill="#FFCF00"/>
<path d="M178.357 151.92C154.002 151.92 127.754 146.177 127.754 136.94C127.754 127.703 152.281 122.603 176.549 122.603C200.818 122.603 225.388 127.542 225.388 136.94C225.388 146.337 201.162 151.92 178.357 151.92ZM176.549 126.619C149.398 126.619 132.057 132.763 132.057 136.94C132.057 141.117 151.506 147.904 178.357 147.904C205.207 147.904 221.085 141.518 221.085 136.94C221.085 132.362 203.744 126.619 176.549 126.619V126.619Z" fill="#C47F0B"/>
<path d="M156.11 148.626H153.614V161.236H156.11V148.626Z" fill="#C47F0B"/>
<path d="M211.961 145.333H209.466V157.502H211.961V145.333Z" fill="#C47F0B"/>
<path d="M202.538 148.947H200.043V159.991H202.538V148.947Z" fill="#C47F0B"/>
<path d="M191.007 149.871H188.511V162.682H191.007V149.871Z" fill="#C47F0B"/>
<path d="M168.589 150.153H166.093V163.326H168.589V150.153Z" fill="#C47F0B"/>
<path d="M180.336 150.273H177.84V163.085H180.336V150.273Z" fill="#C47F0B"/>
<path d="M138.555 144.41H136.059V156.499H138.555V144.41Z" fill="#C47F0B"/>
<path d="M164.587 141.92C164.587 141.92 189.2 143.526 195.31 141.92C195.31 141.92 178.098 137.583 164.587 141.92Z" fill="#FFCF00"/>
<defs>
<filter id="filter0_d_140:19580" x="0.934784" y="0" width="402.566" height="346" filterUnits="userSpaceOnUse" color-interpolation-filters="sRGB">
<feFlood flood-opacity="0" result="BackgroundImageFix"/>
<feColorMatrix in="SourceAlpha" type="matrix" values="0 0 0 0 0 0 0 0 0 0 0 0 0 0 0 0 0 0 127 0" result="hardAlpha"/>
<feOffset/>
<feGaussianBlur stdDeviation="17"/>
<feComposite in2="hardAlpha" operator="out"/>
<feColorMatrix type="matrix" values="0 0 0 0 1 0 0 0 0 1 0 0 0 0 1 0 0 0 1 0"/>
<feBlend mode="normal" in2="BackgroundImageFix" result="effect1_dropShadow_140:19580"/>
<feBlend mode="normal" in="SourceGraphic" in2="effect1_dropShadow_140:19580" result="shape"/>
</filter>
<filter id="filter1_d_140:19580" x="0.934784" y="0" width="402.566" height="340" filterUnits="userSpaceOnUse" color-interpolation-filters="sRGB">
<feFlood flood-opacity="0" result="BackgroundImageFix"/>
<feColorMatrix in="SourceAlpha" type="matrix" values="0 0 0 0 0 0 0 0 0 0 0 0 0 0 0 0 0 0 127 0" result="hardAlpha"/>
<feOffset/>
<feGaussianBlur stdDeviation="17"/>
<feComposite in2="hardAlpha" operator="out"/>
<feColorMatrix type="matrix" values="0 0 0 0 1 0 0 0 0 0 0 0 0 0 0.9 0 0 0 0.85 0"/>
<feBlend mode="normal" in2="BackgroundImageFix" result="effect1_dropShadow_140:19580"/>
<feBlend mode="normal" in="SourceGraphic" in2="effect1_dropShadow_140:19580" result="shape"/>
</filter>
<filter id="filter2_d_140:19580" x="160.026" y="93.7109" width="130.225" height="133.104" filterUnits="userSpaceOnUse" color-interpolation-filters="sRGB">
<feFlood flood-opacity="0" result="BackgroundImageFix"/>
<feColorMatrix in="SourceAlpha" type="matrix" values="0 0 0 0 0 0 0 0 0 0 0 0 0 0 0 0 0 0 127 0" result="hardAlpha"/>
<feOffset/>
<feGaussianBlur stdDeviation="3"/>
<feComposite in2="hardAlpha" operator="out"/>
<feColorMatrix type="matrix" values="0 0 0 0 1 0 0 0 0 0 0 0 0 0 0.9 0 0 0 1 0"/>
<feBlend mode="normal" in2="BackgroundImageFix" result="effect1_dropShadow_140:19580"/>
<feBlend mode="normal" in="SourceGraphic" in2="effect1_dropShadow_140:19580" result="shape"/>
</filter>
<filter id="filter3_d_140:19580" x="110.026" y="108.711" width="130.225" height="133.104" filterUnits="userSpaceOnUse" color-interpolation-filters="sRGB">
<feFlood flood-opacity="0" result="BackgroundImageFix"/>
<feColorMatrix in="SourceAlpha" type="matrix" values="0 0 0 0 0 0 0 0 0 0 0 0 0 0 0 0 0 0 127 0" result="hardAlpha"/>
<feOffset/>
<feGaussianBlur stdDeviation="3"/>
<feComposite in2="hardAlpha" operator="out"/>
<feColorMatrix type="matrix" values="0 0 0 0 1 0 0 0 0 0 0 0 0 0 0.9 0 0 0 1 0"/>
<feBlend mode="normal" in2="BackgroundImageFix" result="effect1_dropShadow_140:19580"/>
<feBlend mode="normal" in="SourceGraphic" in2="effect1_dropShadow_140:19580" result="shape"/>
</filter>
<linearGradient id="paint0_linear_140:19580" x1="202.25" y1="37" x2="202.25" y2="303" gradientUnits="userSpaceOnUse">
<stop stop-color="#050EA3"/>
<stop offset="1" stop-color="#00033A"/>
</linearGradient>
<linearGradient id="paint1_linear_140:19580" x1="317.875" y1="307" x2="147.875" y2="37" gradientUnits="userSpaceOnUse">
<stop stop-color="white"/>
<stop offset="1" stop-color="white" stop-opacity="0"/>
</linearGradient>
<linearGradient id="paint2_linear_140:19580" x1="247.16" y1="159.811" x2="184.374" y2="246.58" gradientUnits="userSpaceOnUse">
<stop stop-color="#FBBB00" stop-opacity="0.4"/>
<stop offset="1" stop-color="#C47F0B"/>
</linearGradient>
<linearGradient id="paint3_linear_140:19580" x1="2450.37" y1="533.065" x2="2290.87" y2="1292.79" gradientUnits="userSpaceOnUse">
<stop stop-color="#FBBB00" stop-opacity="0.4"/>
<stop offset="1" stop-color="#C47F0B"/>
</linearGradient>
<linearGradient id="paint4_linear_140:19580" x1="2420.52" y1="382.703" x2="2261.07" y2="1142.55" gradientUnits="userSpaceOnUse">
<stop stop-color="#FBBB00" stop-opacity="0.4"/>
<stop offset="1" stop-color="#C47F0B"/>
</linearGradient>
<linearGradient id="paint5_linear_140:19580" x1="2486.76" y1="232.863" x2="2327.26" y2="992.585" gradientUnits="userSpaceOnUse">
<stop stop-color="#FBBB00" stop-opacity="0.4"/>
<stop offset="1" stop-color="#C47F0B"/>
</linearGradient>
<linearGradient id="paint6_linear_140:19580" x1="197.16" y1="174.811" x2="134.374" y2="261.58" gradientUnits="userSpaceOnUse">
<stop stop-color="#FBBB00" stop-opacity="0.4"/>
<stop offset="1" stop-color="#C47F0B"/>
</linearGradient>
<linearGradient id="paint7_linear_140:19580" x1="2400.37" y1="548.065" x2="2240.87" y2="1307.79" gradientUnits="userSpaceOnUse">
<stop stop-color="#FBBB00" stop-opacity="0.4"/>
<stop offset="1" stop-color="#C47F0B"/>
</linearGradient>
<linearGradient id="paint8_linear_140:19580" x1="2370.52" y1="397.703" x2="2211.07" y2="1157.55" gradientUnits="userSpaceOnUse">
<stop stop-color="#FBBB00" stop-opacity="0.4"/>
<stop offset="1" stop-color="#C47F0B"/>
</linearGradient>
<linearGradient id="paint9_linear_140:19580" x1="2436.76" y1="247.863" x2="2277.26" y2="1007.59" gradientUnits="userSpaceOnUse">
<stop stop-color="#FBBB00" stop-opacity="0.4"/>
<stop offset="1" stop-color="#C47F0B"/>
</linearGradient>
</defs>
</svg>
