<svg width="860" height="688" viewBox="0 0 860 688" fill="none" xmlns="http://www.w3.org/2000/svg">
<path d="M704.64 432.927C765.961 432.927 815.672 383.222 815.672 321.907C815.672 260.591 765.961 210.886 704.64 210.886C643.319 210.886 593.608 260.591 593.608 321.907C593.608 383.222 643.319 432.927 704.64 432.927Z" fill="white"/>
<path d="M815.671 321.907C815.671 261.498 767.503 212.518 707.905 210.886C707.905 210.886 671.983 261.498 735.663 293.335C775.667 312.927 743.827 349.662 728.315 359.458C683.413 387.213 707.089 433.744 707.089 433.744C767.503 431.295 815.671 382.315 815.671 321.907Z" fill="#E4E4E4"/>
<path d="M737.296 264.764C745.863 264.764 752.808 257.82 752.808 249.253C752.808 240.687 745.863 233.743 737.296 233.743C728.729 233.743 721.784 240.687 721.784 249.253C721.784 257.82 728.729 264.764 737.296 264.764Z" fill="#C6C6C6"/>
<path d="M652.39 333.336C656.899 333.336 660.554 329.682 660.554 325.173C660.554 320.665 656.899 317.01 652.39 317.01C647.881 317.01 644.226 320.665 644.226 325.173C644.226 329.682 647.881 333.336 652.39 333.336Z" fill="#C6C6C6"/>
<path d="M737.297 302.315C741.806 302.315 745.462 298.66 745.462 294.152C745.462 289.643 741.806 285.988 737.297 285.988C732.788 285.988 729.133 289.643 729.133 294.152C729.133 298.66 732.788 302.315 737.297 302.315Z" fill="#C6C6C6"/>
<path d="M668.718 330.071C667.901 338.234 660.553 344.765 652.389 343.949C644.225 343.132 637.694 335.785 638.51 327.622C638.51 327.622 640.143 339.051 652.389 339.051C663.819 340.683 668.718 330.071 668.718 330.071Z" fill="#E4E4E4"/>
<path d="M666.268 277.009C670.777 277.009 674.432 273.354 674.432 268.846C674.432 264.337 670.777 260.683 666.268 260.683C661.759 260.683 658.104 264.337 658.104 268.846C658.104 273.354 661.759 277.009 666.268 277.009Z" fill="#C6C6C6"/>
<path d="M787.097 355.376C791.606 355.376 795.261 351.722 795.261 347.213C795.261 342.705 791.606 339.05 787.097 339.05C782.588 339.05 778.933 342.705 778.933 347.213C778.933 351.722 782.588 355.376 787.097 355.376Z" fill="#C6C6C6"/>
<path d="M792.812 296.601C797.32 296.601 800.976 292.946 800.976 288.438C800.976 283.929 797.32 280.274 792.812 280.274C788.303 280.274 784.647 283.929 784.647 288.438C784.647 292.946 788.303 296.601 792.812 296.601Z" fill="#C6C6C6"/>
<path d="M713.62 401.09C728.499 401.09 740.561 389.029 740.561 374.151C740.561 359.273 728.499 347.212 713.62 347.212C698.74 347.212 686.678 359.273 686.678 374.151C686.678 389.029 698.74 401.09 713.62 401.09Z" fill="#EEEEEE"/>
<path d="M713.621 389.663C722.188 389.663 729.133 382.719 729.133 374.153C729.133 365.587 722.188 358.643 713.621 358.643C705.054 358.643 698.109 365.587 698.109 374.153C698.109 382.719 705.054 389.663 713.621 389.663Z" fill="#C1C1C1"/>
<g filter="url(#filter0_d_149:20433)">
<path d="M704.64 432.927C765.961 432.927 815.672 383.222 815.672 321.907C815.672 260.591 765.961 210.886 704.64 210.886C643.319 210.886 593.608 260.591 593.608 321.907C593.608 383.222 643.319 432.927 704.64 432.927Z" stroke="#40D7FF" stroke-width="10.24" shape-rendering="crispEdges"/>
</g>
<g filter="url(#filter1_f_149:20433)">
<path d="M199.435 559.741C189.124 559.741 156.901 555.875 155.612 528.81C155.612 527.522 155.612 527.522 155.612 526.233C147.879 524.944 140.145 519.789 134.99 510.767C131.123 505.612 119.523 479.837 138.856 454.061C138.856 454.061 138.856 452.772 137.568 452.772C136.279 448.906 128.545 429.574 136.279 407.665C140.145 397.355 147.879 388.333 158.19 381.89C151.746 367.713 150.457 347.092 163.346 334.205C174.946 321.317 195.568 318.739 195.568 318.739C195.568 318.739 191.702 317.451 187.835 316.162C182.679 316.162 177.524 314.873 173.657 311.007C164.635 303.274 162.057 291.675 165.923 280.076C169.79 271.054 190.413 228.525 204.591 210.482C222.635 187.284 247.125 171.818 275.481 165.375C285.792 162.797 296.103 161.508 306.414 161.508C324.459 161.508 339.926 165.375 351.526 167.952C397.927 134.444 448.194 128 481.706 128C515.217 128 539.706 134.444 542.284 135.733C550.018 138.31 555.173 143.465 559.04 151.198C575.796 195.017 565.485 276.21 525.528 331.627C522.951 334.205 522.951 338.071 522.951 341.937C526.817 358.691 528.106 384.467 520.373 411.531C512.639 438.596 497.172 461.794 473.972 479.837C455.927 494.013 412.105 514.634 404.371 518.5C400.504 519.789 397.927 521.078 394.06 521.078C386.327 521.078 379.882 517.211 374.726 512.056C366.993 503.035 373.437 492.725 379.882 483.703C379.882 483.703 391.482 470.815 390.193 454.061C382.46 460.505 365.704 474.682 359.259 479.837C361.837 494.013 356.682 506.901 346.37 517.211C338.637 523.655 329.615 526.233 319.303 526.233C315.437 526.233 311.57 526.233 306.414 524.944C303.836 523.655 299.97 524.944 298.681 527.521C296.103 532.677 292.236 537.832 287.081 541.698C278.058 549.431 266.458 553.297 253.569 553.297C248.414 553.297 243.258 552.008 236.813 550.72C230.369 549.431 227.791 550.72 217.48 554.586C212.324 558.452 204.591 559.741 199.435 559.741Z" fill="white" fill-opacity="0.2"/>
</g>
<path d="M498.131 352.569C498.131 352.569 499.42 349.991 501.998 347.414C541.954 299.729 556.132 217.247 540.665 176.006C540.665 176.006 441.419 146.364 358.929 212.092C358.929 212.092 357.64 213.381 356.351 213.381C356.351 213.381 318.973 197.915 279.017 206.937C258.394 212.092 237.772 222.402 221.016 244.311C206.838 262.354 183.638 311.328 183.638 311.328C183.638 311.328 227.46 275.242 259.683 308.75C233.905 337.103 211.994 361.59 204.26 370.612C204.26 370.612 190.082 357.724 177.193 373.189C170.749 380.922 175.904 396.387 179.771 400.254L298.35 518.821C320.262 540.731 346.04 517.533 331.862 498.201L330.573 496.912C339.595 490.468 365.373 469.848 396.307 445.361C431.108 477.58 396.307 523.976 396.307 523.976C396.307 523.976 445.286 500.778 463.33 486.602C485.242 469.848 496.842 449.227 501.998 429.896C512.309 388.655 498.131 352.569 498.131 352.569ZM370.529 338.392C346.04 313.905 346.04 273.953 370.529 249.466C395.018 224.98 434.974 224.98 459.464 249.466C483.953 273.953 483.953 313.905 459.464 338.392C434.974 362.879 395.018 362.879 370.529 338.392Z" fill="#C193FC"/>
<path d="M498.131 352.569C498.131 352.569 499.42 349.991 501.997 347.414C541.954 299.729 556.132 217.247 540.665 176.006C540.665 176.006 441.419 146.364 358.929 212.092C358.929 212.092 357.64 213.381 356.351 213.381C356.351 213.381 318.973 197.915 279.017 206.937C258.394 212.092 237.772 222.402 221.016 244.311C206.838 262.354 183.638 311.328 183.638 311.328C183.638 311.328 227.46 275.242 259.683 308.75C233.905 337.103 211.994 361.59 204.26 370.612C204.26 370.612 190.082 357.724 177.193 373.189C170.749 380.922 175.904 396.387 179.771 400.254L298.35 518.821C320.262 540.731 346.04 517.533 331.862 498.201L330.573 496.912C339.595 490.468 365.373 469.848 396.307 445.361C431.108 477.58 396.307 523.976 396.307 523.976C396.307 523.976 445.286 500.778 463.33 486.602C485.242 469.848 496.842 449.227 501.997 429.896C512.309 388.655 498.131 352.569 498.131 352.569ZM370.529 338.392C346.04 313.905 346.04 273.953 370.529 249.466C395.018 224.98 434.974 224.98 459.464 249.466C483.953 273.953 483.953 313.905 459.464 338.392C434.974 362.879 395.018 362.879 370.529 338.392Z" fill="url(#paint0_linear_149:20433)"/>
<path d="M294.483 453.093L335.728 458.248L445.75 398.541L333.15 487.89L294.483 453.093Z" fill="#2400FF"/>
<path d="M391.152 213.381C419.507 194.049 477.508 178.584 540.665 177.295C540.665 177.295 540.665 177.295 540.665 176.006C540.665 176.006 441.419 146.364 358.929 212.092C358.929 212.092 288.039 280.397 259.683 308.75C233.905 337.103 211.994 361.59 204.26 370.612C204.26 370.612 190.082 357.724 177.193 373.189C170.749 380.922 175.904 396.387 179.771 400.254L197.816 418.297L226.171 396.387C226.171 396.387 322.839 259.777 391.152 213.381Z" fill="#2400FF"/>
<g filter="url(#filter2_d_149:20433)">
<path d="M191.371 420.874L281.594 511.088C281.594 511.088 284.172 563.928 239.06 553.618C239.06 553.618 258.394 532.998 249.371 520.11C244.216 513.666 231.327 509.8 221.016 540.73C215.86 554.907 199.104 570.372 174.615 554.907C174.615 554.907 219.727 523.976 199.104 504.645C184.926 491.757 164.304 502.067 152.703 527.843C152.703 527.843 142.392 507.222 153.992 491.757C168.17 473.714 182.348 478.869 188.793 471.136C192.66 465.981 192.66 455.671 181.059 453.093C174.615 451.805 165.593 454.382 155.281 465.981C155.281 465.981 141.103 435.05 174.615 422.163C183.637 418.296 191.371 420.874 191.371 420.874Z" fill="#FFA21A"/>
<path d="M173.792 499.455C165.991 503.355 158.682 510.985 152.999 521.472C152.448 519.693 151.901 517.556 151.526 515.197C150.456 508.469 150.821 500.268 156.023 493.316C162.707 484.82 169.295 481.843 175.063 480.021C176.324 479.623 177.538 479.283 178.745 478.944C178.957 478.885 179.17 478.825 179.382 478.766C180.776 478.373 182.175 477.969 183.499 477.491C186.162 476.531 188.736 475.203 190.759 472.775L190.801 472.725L190.841 472.672C193.207 469.518 194.388 464.845 193.196 460.475C191.948 455.9 188.222 452.062 181.615 450.594L181.588 450.588L181.561 450.583C174.6 449.191 165.825 451.742 156.305 461.175C156.225 460.897 156.146 460.606 156.067 460.303C155.307 457.378 154.638 453.397 154.935 449.081C155.232 444.783 156.483 440.191 159.536 435.939C162.584 431.695 167.545 427.624 175.534 424.552L175.579 424.535L175.623 424.516C179.696 422.771 183.477 422.479 186.242 422.625C187.623 422.698 188.74 422.879 189.497 423.037C189.705 423.081 189.886 423.123 190.036 423.16L279.059 512.174C279.062 512.484 279.062 512.865 279.057 513.307C279.04 514.673 278.967 516.624 278.744 518.937C278.294 523.587 277.245 529.592 274.883 535.23C272.522 540.865 268.923 545.967 263.463 549.102C258.775 551.794 252.452 553.187 243.841 551.919C243.879 551.87 243.917 551.822 243.956 551.773C245.682 549.569 247.904 546.47 249.844 542.927C251.775 539.402 253.496 535.314 254.1 531.15C254.71 526.949 254.195 522.536 251.469 518.642L251.422 518.575L251.37 518.511C248.379 514.772 242.748 511.358 236.163 514.033C229.908 516.574 223.798 524.305 218.598 539.887C216.189 546.489 211.109 553.27 203.978 556.617C197.67 559.577 189.399 560.021 179.284 554.661C180.328 553.866 181.579 552.887 182.964 551.752C186.935 548.498 192.053 543.922 196.537 538.691C200.983 533.504 205 527.452 206.469 521.243C207.986 514.829 206.749 508.302 200.855 502.777L200.841 502.763L200.826 502.75C192.866 495.515 183.004 494.85 173.792 499.455ZM190.571 423.306L190.57 423.305C190.572 423.306 190.572 423.306 190.571 423.306Z" stroke="#FF9361" stroke-width="5.12"/>
</g>
<path d="M191.371 420.874L281.594 511.088C281.594 511.088 284.172 563.928 239.06 553.618C239.06 553.618 258.394 532.998 249.371 520.11C244.216 513.666 231.327 509.8 221.016 540.73C215.86 554.907 199.104 570.372 174.615 554.907C174.615 554.907 219.727 523.976 199.104 504.645C184.926 491.757 164.304 502.067 152.703 527.843C152.703 527.843 142.392 507.222 153.992 491.757C168.17 473.714 182.348 478.869 188.793 471.136C192.66 465.981 192.66 455.671 181.059 453.093C174.615 451.805 165.593 454.382 155.281 465.981C155.281 465.981 141.103 435.05 174.615 422.163C183.637 418.296 191.371 420.874 191.371 420.874Z" stroke="#FF8908" stroke-width="1.28" stroke-miterlimit="10" stroke-linecap="round" stroke-linejoin="round"/>
<g filter="url(#filter3_d_149:20433)">
<path d="M374.15 334.771C351.66 312.284 351.66 275.574 374.15 253.086C396.64 230.599 433.354 230.599 455.844 253.086C478.333 275.574 478.333 312.284 455.844 334.771C433.354 357.258 396.64 357.258 374.15 334.771Z" stroke="#FF00E5" stroke-width="10.24"/>
<path d="M356.352 213.381C356.352 213.381 318.974 197.916 279.018 206.937C258.395 212.092 237.773 222.402 221.017 244.312C206.839 262.354 183.639 311.328 183.639 311.328C183.639 311.328 227.462 275.242 259.684 307.462C272.573 295.863 343.463 227.557 356.352 213.381Z" fill="url(#paint1_linear_149:20433)"/>
</g>
<g filter="url(#filter4_d_149:20433)">
<path d="M374.15 334.772C351.66 312.285 351.66 275.575 374.15 253.087C396.64 230.6 433.354 230.6 455.844 253.087C478.333 275.575 478.333 312.285 455.844 334.772C433.354 357.259 396.64 357.259 374.15 334.772Z" stroke="#FF00E5" stroke-width="10.24"/>
<path d="M499.419 351.28C491.686 359.013 405.329 436.34 395.018 444.072C429.819 476.292 395.018 522.688 395.018 522.688C395.018 522.688 443.996 499.49 462.041 485.313C483.953 468.559 495.553 447.939 500.708 428.607C512.309 388.655 498.131 352.569 499.419 351.28C499.419 352.569 498.131 352.569 499.419 351.28Z" fill="url(#paint2_linear_149:20433)"/>
<mask id="path-25-inside-1_149:20433" fill="white">
<path d="M499.419 351.279L395.018 445.36C404.04 436.339 490.397 360.301 499.419 351.279Z"/>
</mask>
<path d="M499.419 351.279L395.018 445.36C404.04 436.339 490.397 360.301 499.419 351.279Z" fill="#C193FC"/>
<path d="M499.419 351.279L506.66 358.52L492.564 343.672L499.419 351.279ZM395.018 445.36L387.778 438.119L401.873 452.967L395.018 445.36ZM492.564 343.672L388.163 437.753L401.873 452.967L506.274 358.886L492.564 343.672ZM402.258 452.601C406.496 448.364 429.969 427.424 454.034 405.962C477.658 384.894 501.875 363.305 506.66 358.52L492.179 344.038C487.941 348.275 464.469 369.216 440.403 390.677C416.779 411.746 392.562 433.335 387.778 438.119L402.258 452.601Z" fill="#FF00E5" mask="url(#path-25-inside-1_149:20433)"/>
</g>
<path d="M204.26 370.61C204.26 370.61 190.082 357.723 177.193 373.188C170.748 380.921 175.904 396.386 179.77 400.252L298.35 518.82C320.261 540.729 346.039 517.531 331.861 498.2L330.573 496.911C306.083 472.424 204.26 370.61 204.26 370.61Z" fill="url(#paint3_linear_149:20433)"/>
<path d="M442.707 321.637C434.973 329.37 424.662 333.236 414.351 333.236C404.039 333.236 393.728 329.37 385.995 321.637C378.261 313.905 374.395 303.594 374.395 293.284C374.395 282.974 378.261 272.664 385.995 264.931C393.728 257.198 404.039 253.332 414.351 253.332C424.662 253.332 434.973 257.198 442.707 264.931C458.174 281.685 458.174 306.172 442.707 321.637Z" fill="#40D7FF"/>
<path d="M402.752 273.953C402.752 273.953 433.686 276.531 433.686 308.75C433.686 308.75 442.709 284.264 429.819 273.953C416.93 263.643 402.752 273.953 402.752 273.953Z" fill="#8CE7FF"/>
<path d="M442.707 321.637C434.973 329.37 424.662 333.236 414.351 333.236C404.039 333.236 393.728 329.37 385.995 321.637C378.261 313.905 374.395 303.594 374.395 293.284C374.395 282.974 378.261 272.664 385.995 264.931C393.728 257.198 404.039 253.332 414.351 253.332C424.662 253.332 434.973 257.198 442.707 264.931C458.174 281.685 458.174 306.172 442.707 321.637Z" stroke="#00A4CF" stroke-width="1.34848" stroke-miterlimit="10" stroke-linecap="round" stroke-linejoin="round"/>
<g filter="url(#filter5_d_149:20433)">
<path d="M498.131 352.569C498.131 352.569 499.42 349.991 501.997 347.414C541.954 299.729 556.132 217.247 540.665 176.006C540.665 176.006 441.419 146.364 358.929 212.092C358.929 212.092 357.64 213.381 356.351 213.381C356.351 213.381 318.973 197.915 279.017 206.937C258.394 212.092 237.772 222.402 221.016 244.311C206.838 262.354 183.638 311.328 183.638 311.328C183.638 311.328 227.46 275.242 259.683 308.75C233.905 337.103 211.994 361.59 204.26 370.612C204.26 370.612 190.082 357.724 177.193 373.189C170.749 380.922 175.904 396.387 179.771 400.254L298.35 518.821C320.262 540.731 346.04 517.533 331.862 498.201L330.573 496.912C339.595 490.468 365.373 469.848 396.307 445.361C431.108 477.58 396.307 523.976 396.307 523.976C396.307 523.976 445.286 500.778 463.33 486.602C485.242 469.848 496.842 449.227 501.997 429.896C512.309 388.655 498.131 352.569 498.131 352.569ZM370.529 338.392C346.04 313.905 346.04 273.953 370.529 249.466C395.018 224.98 434.974 224.98 459.464 249.466C483.953 273.953 483.953 313.905 459.464 338.392C434.974 362.879 395.018 362.879 370.529 338.392Z" stroke="#FF00E5" stroke-width="7.68" stroke-miterlimit="10" stroke-linecap="round" stroke-linejoin="round" shape-rendering="crispEdges"/>
</g>
<path d="M259.683 308.75C259.683 308.75 351.195 219.824 356.351 214.669" stroke="#FF00E5" stroke-width="7.68" stroke-miterlimit="10" stroke-linecap="round" stroke-linejoin="round"/>
<path d="M384.311 454.862C384.311 454.862 496.841 352.569 501.996 347.414" stroke="#FF00E5" stroke-width="7.68" stroke-miterlimit="10" stroke-linecap="round" stroke-linejoin="round"/>
<path d="M204.259 370.612L330.551 497.101" stroke="#9164FF" stroke-width="1.2768" stroke-miterlimit="10" stroke-linecap="round" stroke-linejoin="round"/>
<path d="M527.774 185.027L516.174 187.605C516.174 187.605 522.619 199.204 523.907 203.07C527.774 223.691 520.041 264.932 516.174 286.841C514.885 286.841 547.108 213.38 527.774 185.027Z" fill="#E0D4FF"/>
<defs>
<filter id="filter0_d_149:20433" x="550.088" y="167.366" width="309.104" height="309.082" filterUnits="userSpaceOnUse" color-interpolation-filters="sRGB">
<feFlood flood-opacity="0" result="BackgroundImageFix"/>
<feColorMatrix in="SourceAlpha" type="matrix" values="0 0 0 0 0 0 0 0 0 0 0 0 0 0 0 0 0 0 127 0" result="hardAlpha"/>
<feOffset/>
<feGaussianBlur stdDeviation="19.2"/>
<feComposite in2="hardAlpha" operator="out"/>
<feColorMatrix type="matrix" values="0 0 0 0 0.25098 0 0 0 0 0.843137 0 0 0 0 1 0 0 0 1 0"/>
<feBlend mode="normal" in2="BackgroundImageFix" result="effect1_dropShadow_149:20433"/>
<feBlend mode="normal" in="SourceGraphic" in2="effect1_dropShadow_149:20433" result="shape"/>
</filter>
<filter id="filter1_f_149:20433" x="0" y="0" width="694.745" height="687.74" filterUnits="userSpaceOnUse" color-interpolation-filters="sRGB">
<feFlood flood-opacity="0" result="BackgroundImageFix"/>
<feBlend mode="normal" in="SourceGraphic" in2="BackgroundImageFix" result="shape"/>
<feGaussianBlur stdDeviation="64" result="effect1_foregroundBlur_149:20433"/>
</filter>
<filter id="filter2_d_149:20433" x="122.88" y="394.432" width="184.341" height="192.513" filterUnits="userSpaceOnUse" color-interpolation-filters="sRGB">
<feFlood flood-opacity="0" result="BackgroundImageFix"/>
<feColorMatrix in="SourceAlpha" type="matrix" values="0 0 0 0 0 0 0 0 0 0 0 0 0 0 0 0 0 0 127 0" result="hardAlpha"/>
<feOffset/>
<feGaussianBlur stdDeviation="12.8"/>
<feComposite in2="hardAlpha" operator="out"/>
<feColorMatrix type="matrix" values="0 0 0 0 1 0 0 0 0 0.32549 0 0 0 0 0 0 0 0 1 0"/>
<feBlend mode="normal" in2="BackgroundImageFix" result="effect1_dropShadow_149:20433"/>
<feBlend mode="normal" in="SourceGraphic" in2="effect1_dropShadow_149:20433" result="shape"/>
</filter>
<filter id="filter3_d_149:20433" x="158.039" y="178.511" width="345.392" height="203.846" filterUnits="userSpaceOnUse" color-interpolation-filters="sRGB">
<feFlood flood-opacity="0" result="BackgroundImageFix"/>
<feColorMatrix in="SourceAlpha" type="matrix" values="0 0 0 0 0 0 0 0 0 0 0 0 0 0 0 0 0 0 127 0" result="hardAlpha"/>
<feOffset/>
<feGaussianBlur stdDeviation="12.8"/>
<feComposite in2="hardAlpha" operator="out"/>
<feColorMatrix type="matrix" values="0 0 0 0 1 0 0 0 0 0 0 0 0 0 0.9 0 0 0 1 0"/>
<feBlend mode="normal" in2="BackgroundImageFix" result="effect1_dropShadow_149:20433"/>
<feBlend mode="normal" in="SourceGraphic" in2="effect1_dropShadow_149:20433" result="shape"/>
</filter>
<filter id="filter4_d_149:20433" x="326.563" y="205.502" width="204.341" height="342.786" filterUnits="userSpaceOnUse" color-interpolation-filters="sRGB">
<feFlood flood-opacity="0" result="BackgroundImageFix"/>
<feColorMatrix in="SourceAlpha" type="matrix" values="0 0 0 0 0 0 0 0 0 0 0 0 0 0 0 0 0 0 127 0" result="hardAlpha"/>
<feOffset/>
<feGaussianBlur stdDeviation="12.8"/>
<feComposite in2="hardAlpha" operator="out"/>
<feColorMatrix type="matrix" values="0 0 0 0 1 0 0 0 0 0 0 0 0 0 0.9 0 0 0 1 0"/>
<feBlend mode="normal" in2="BackgroundImageFix" result="effect1_dropShadow_149:20433"/>
<feBlend mode="normal" in="SourceGraphic" in2="effect1_dropShadow_149:20433" result="shape"/>
</filter>
<filter id="filter5_d_149:20433" x="144.697" y="139.9" width="431.53" height="417.241" filterUnits="userSpaceOnUse" color-interpolation-filters="sRGB">
<feFlood flood-opacity="0" result="BackgroundImageFix"/>
<feColorMatrix in="SourceAlpha" type="matrix" values="0 0 0 0 0 0 0 0 0 0 0 0 0 0 0 0 0 0 127 0" result="hardAlpha"/>
<feOffset/>
<feGaussianBlur stdDeviation="12.8"/>
<feComposite in2="hardAlpha" operator="out"/>
<feColorMatrix type="matrix" values="0 0 0 0 1 0 0 0 0 0 0 0 0 0 0.9 0 0 0 1 0"/>
<feBlend mode="normal" in2="BackgroundImageFix" result="effect1_dropShadow_149:20433"/>
<feBlend mode="normal" in="SourceGraphic" in2="effect1_dropShadow_149:20433" result="shape"/>
</filter>
<linearGradient id="paint0_linear_149:20433" x1="360.462" y1="169.34" x2="360.462" y2="527.697" gradientUnits="userSpaceOnUse">
<stop stop-color="#050EA3"/>
<stop offset="1" stop-color="#00033A"/>
</linearGradient>
<linearGradient id="paint1_linear_149:20433" x1="269.995" y1="204.111" x2="269.995" y2="311.328" gradientUnits="userSpaceOnUse">
<stop stop-color="#050EA3"/>
<stop offset="1" stop-color="#00033A"/>
</linearGradient>
<linearGradient id="paint2_linear_149:20433" x1="450.161" y1="351.28" x2="450.161" y2="522.688" gradientUnits="userSpaceOnUse">
<stop stop-color="#050EA3"/>
<stop offset="1" stop-color="#00033A"/>
</linearGradient>
<linearGradient id="paint3_linear_149:20433" x1="255.03" y1="365.576" x2="255.03" y2="527.695" gradientUnits="userSpaceOnUse">
<stop stop-color="#050EA3"/>
<stop offset="1" stop-color="#00033A"/>
</linearGradient>
</defs>
</svg>
