<svg width="163" height="183" viewBox="0 0 163 183" fill="none" xmlns="http://www.w3.org/2000/svg">
<path d="M128.202 155.886H50.3C46.1199 155.886 42.3198 152.467 42.3198 147.909V70.4201C42.3198 66.2418 45.7399 62.4434 50.3 62.4434H128.202C132.382 62.4434 136.182 65.862 136.182 70.4201V148.289C136.182 152.467 132.762 155.886 128.202 155.886Z" fill="url(#paint0_linear_141:23082)"/>
<g filter="url(#filter0_d_141:23082)">
<path d="M128.202 157.785H50.3001C44.98 157.785 40.4199 153.226 40.4199 147.909V70.42C40.4199 65.1021 44.98 60.5439 50.3001 60.5439H128.202C133.522 60.5439 138.082 65.1021 138.082 70.42V148.288C138.082 153.606 133.902 157.785 128.202 157.785ZM50.3001 64.3424C46.8801 64.3424 44.22 67.0013 44.22 70.42V148.288C44.22 151.707 46.8801 154.366 50.3001 154.366H128.202C131.622 154.366 134.282 151.707 134.282 148.288V70.42C134.282 67.0013 131.622 64.3424 128.202 64.3424H50.3001V64.3424Z" fill="#40D7FF"/>
</g>
<path d="M115.281 89.0314H100.081V53.3258C100.081 48.3878 95.9006 44.2095 90.9605 44.2095H71.9602C67.02 44.2095 62.84 48.3878 62.84 53.3258V89.0314H47.6396V53.3258C47.6396 40.0312 58.6599 29.0156 71.9602 29.0156H90.9605C104.261 29.0156 115.281 40.0312 115.281 53.3258V89.0314Z" fill="url(#paint1_linear_141:23082)"/>
<g filter="url(#filter1_d_141:23082)">
<path d="M116.041 89.4109H100.841C99.7011 89.4109 98.9411 88.6512 98.9411 87.5117V51.8061C98.9411 47.6278 95.521 44.589 91.7209 44.589H72.7205C68.5404 44.589 65.5004 48.0076 65.5004 51.8061V87.5117C65.5004 88.6512 64.7404 89.4109 63.6003 89.4109H48.4C47.26 89.4109 46.5 88.6512 46.5 87.5117V51.8061C46.5 37.3719 58.2802 25.5967 72.7205 25.5967H91.7209C106.161 25.5967 117.941 37.3719 117.941 51.8061V87.5117C117.941 88.6512 116.801 89.4109 116.041 89.4109ZM102.741 85.6124H114.141V51.8061C114.141 39.2712 103.881 29.3951 91.7209 29.3951H72.7205C60.1803 29.3951 50.3001 39.651 50.3001 51.8061V85.6124H61.7003V51.8061C61.7003 45.7285 66.6404 40.7905 72.7205 40.7905H91.7209C97.801 40.7905 102.741 45.7285 102.741 51.8061V85.6124V85.6124Z" fill="#40D7FF"/>
</g>
<path d="M113.001 155.886H35.0993C30.9192 155.886 27.1191 152.467 27.1191 147.909V70.4201C27.1191 66.2418 30.5392 62.4434 35.0993 62.4434H113.001C117.181 62.4434 120.981 65.862 120.981 70.4201V148.289C120.981 152.467 117.561 155.886 113.001 155.886Z" fill="url(#paint2_linear_141:23082)"/>
<path d="M27.5005 119.04L109.202 63.2021C109.202 63.2021 120.222 63.2022 120.982 70.4192C120.982 72.3185 27.5005 134.993 27.5005 134.993V119.04Z" fill="#2400FF"/>
<path d="M28.2612 141.45L105.023 92.4502L79.9423 114.481L28.6412 152.466L28.2612 141.45Z" fill="#2400FF"/>
<path d="M92.8623 154.365L111.863 150.946L120.983 131.954L120.603 150.946L114.523 154.365H92.8623Z" fill="#2400FF"/>
<g filter="url(#filter2_d_141:23082)">
<path d="M113.002 157.785H35.1004C29.7803 157.785 25.2202 153.226 25.2202 147.909V70.42C25.2202 65.1021 29.7803 60.5439 35.1004 60.5439H113.002C118.322 60.5439 122.882 65.1021 122.882 70.42V148.288C122.882 153.606 118.702 157.785 113.002 157.785ZM35.1004 64.3424C31.6803 64.3424 29.0203 67.0013 29.0203 70.42V148.288C29.0203 151.707 31.6803 154.366 35.1004 154.366H113.002C116.422 154.366 119.082 151.707 119.082 148.288V70.42C119.082 67.0013 116.422 64.3424 113.002 64.3424H35.1004V64.3424Z" fill="#40D7FF"/>
</g>
<path d="M87.9211 130.815L82.981 103.846C85.641 101.187 87.161 97.3887 86.401 92.8306C85.641 87.8926 81.4609 84.0941 76.9008 83.3344C69.3007 81.815 62.4605 87.8926 62.4605 95.1097C62.4605 98.5283 63.9806 101.567 65.8806 103.846L60.9405 130.815C60.5605 133.474 62.4605 135.753 65.1206 135.753H83.741C86.401 135.753 88.3011 133.094 87.9211 130.815Z" fill="url(#paint3_linear_141:23082)"/>
<path d="M68.9207 131.574L73.8608 104.605C71.5807 102.326 70.4407 99.287 70.4407 95.8683C70.4407 90.1706 74.6208 85.2326 79.9409 84.0931C78.8009 83.7133 78.0409 83.3334 76.9008 82.9536C69.3007 81.4342 62.4605 87.5117 62.4605 94.7288C62.4605 98.1474 63.9806 101.186 65.8806 103.465L60.9405 130.434C60.5605 133.093 62.4605 135.372 65.1206 135.372H70.4407C69.3007 134.613 68.5407 133.093 68.9207 131.574Z" fill="url(#paint4_linear_141:23082)"/>
<path d="M70.4408 137.651H65.1206C63.2206 137.651 61.7006 136.892 60.5606 135.372C59.4205 133.853 59.0405 131.954 59.0405 130.434L63.9806 104.225C61.7006 101.566 60.5606 98.5273 60.5606 95.1086C60.5606 90.9303 62.4606 87.1319 65.5007 84.4729C68.5407 81.814 72.7208 80.6745 76.9009 81.4342C78.0409 81.814 79.1809 82.1939 80.321 82.5737C81.081 82.9535 81.461 83.7132 81.461 84.4729C81.461 85.2326 80.701 85.9923 79.941 85.9923C75.3809 87.1319 71.9608 91.3102 71.9608 95.8683C71.9608 98.5273 72.7208 99.6668 75.0009 101.946C75.3809 102.326 75.7609 103.085 75.3809 103.465L70.8208 131.954C70.8208 132.713 71.2008 133.853 71.5808 134.233C72.3408 134.613 72.3408 135.752 72.3408 136.512C71.9608 136.892 71.2008 137.651 70.4408 137.651ZM73.8608 84.8528C71.5808 84.8528 69.6807 85.6125 67.7807 87.1319C65.5007 89.0311 63.9806 92.0699 63.9806 95.1086C63.9806 97.7676 65.1206 100.426 67.0207 102.326C67.4007 102.706 67.7807 103.465 67.4007 103.845L62.4606 130.814C62.4606 131.574 62.4606 132.334 62.8406 132.713C63.2206 133.093 63.9806 133.473 64.7406 133.473H66.6407C66.2607 132.713 66.2607 131.574 66.6407 130.814L71.2008 103.465C68.9207 101.186 67.7807 98.9071 67.7807 95.4885C68.1607 91.3102 70.4408 87.5117 73.8608 84.8528Z" fill="#2400FF"/>
<g filter="url(#filter3_d_141:23082)">
<path d="M83.741 137.651H65.1207C63.2206 137.651 61.7006 136.892 60.5606 135.372C59.4205 133.853 59.0405 131.954 59.0405 130.434L63.9806 104.225C61.7006 101.566 60.5606 98.5273 60.5606 95.1086C60.5606 90.9303 62.4606 87.1319 65.5007 84.4729C68.5407 81.814 72.7208 80.6745 76.9009 81.4342C82.601 82.5737 87.1611 87.1319 87.9211 92.4497C88.6811 96.628 87.5411 101.186 84.8811 104.225L89.8212 130.434C90.2012 132.334 89.8212 134.233 88.3011 135.372C87.1611 136.892 85.2611 137.651 83.741 137.651ZM74.2408 84.8528C71.9608 84.8528 69.6807 85.6125 67.7807 87.1319C65.5007 89.0311 63.9806 92.0699 63.9806 95.1086C63.9806 97.7676 65.1207 100.426 67.0207 102.326C67.4007 102.706 67.7807 103.465 67.4007 103.845L62.4606 130.814C62.4606 131.574 62.4606 132.334 62.8406 132.713C63.2206 133.093 63.9806 133.473 64.7406 133.473H83.361C84.121 133.473 84.8811 133.093 85.2611 132.713C85.6411 132.334 86.0211 131.574 85.6411 130.814L80.701 103.845C80.701 103.085 80.701 102.706 81.081 102.326C83.361 100.047 84.501 96.628 83.741 93.2094C82.981 89.0311 79.5609 85.9923 75.7609 85.2326C75.7609 84.8528 75.0009 84.8528 74.2408 84.8528Z" fill="#40D7FF"/>
</g>
<path d="M95.1411 35.4723C95.1411 35.4723 106.541 38.1312 108.821 48.7669C108.821 48.7669 110.341 34.3328 95.1411 35.4723Z" fill="#2400FF"/>
<defs>
<filter id="filter0_d_141:23082" x="15.8019" y="35.9259" width="146.898" height="146.476" filterUnits="userSpaceOnUse" color-interpolation-filters="sRGB">
<feFlood flood-opacity="0" result="BackgroundImageFix"/>
<feColorMatrix in="SourceAlpha" type="matrix" values="0 0 0 0 0 0 0 0 0 0 0 0 0 0 0 0 0 0 127 0" result="hardAlpha"/>
<feOffset/>
<feGaussianBlur stdDeviation="12.309"/>
<feComposite in2="hardAlpha" operator="out"/>
<feColorMatrix type="matrix" values="0 0 0 0 0.25098 0 0 0 0 0.843137 0 0 0 0 1 0 0 0 1 0"/>
<feBlend mode="normal" in2="BackgroundImageFix" result="effect1_dropShadow_141:23082"/>
<feBlend mode="normal" in="SourceGraphic" in2="effect1_dropShadow_141:23082" result="shape"/>
</filter>
<filter id="filter1_d_141:23082" x="21.882" y="0.978676" width="120.677" height="113.05" filterUnits="userSpaceOnUse" color-interpolation-filters="sRGB">
<feFlood flood-opacity="0" result="BackgroundImageFix"/>
<feColorMatrix in="SourceAlpha" type="matrix" values="0 0 0 0 0 0 0 0 0 0 0 0 0 0 0 0 0 0 127 0" result="hardAlpha"/>
<feOffset/>
<feGaussianBlur stdDeviation="12.309"/>
<feComposite in2="hardAlpha" operator="out"/>
<feColorMatrix type="matrix" values="0 0 0 0 0.25098 0 0 0 0 0.843137 0 0 0 0 1 0 0 0 1 0"/>
<feBlend mode="normal" in2="BackgroundImageFix" result="effect1_dropShadow_141:23082"/>
<feBlend mode="normal" in="SourceGraphic" in2="effect1_dropShadow_141:23082" result="shape"/>
</filter>
<filter id="filter2_d_141:23082" x="0.602211" y="35.9259" width="146.898" height="146.476" filterUnits="userSpaceOnUse" color-interpolation-filters="sRGB">
<feFlood flood-opacity="0" result="BackgroundImageFix"/>
<feColorMatrix in="SourceAlpha" type="matrix" values="0 0 0 0 0 0 0 0 0 0 0 0 0 0 0 0 0 0 127 0" result="hardAlpha"/>
<feOffset/>
<feGaussianBlur stdDeviation="12.309"/>
<feComposite in2="hardAlpha" operator="out"/>
<feColorMatrix type="matrix" values="0 0 0 0 0.25098 0 0 0 0 0.843137 0 0 0 0 1 0 0 0 1 0"/>
<feBlend mode="normal" in2="BackgroundImageFix" result="effect1_dropShadow_141:23082"/>
<feBlend mode="normal" in="SourceGraphic" in2="effect1_dropShadow_141:23082" result="shape"/>
</filter>
<filter id="filter3_d_141:23082" x="34.4225" y="56.5851" width="80.1535" height="105.684" filterUnits="userSpaceOnUse" color-interpolation-filters="sRGB">
<feFlood flood-opacity="0" result="BackgroundImageFix"/>
<feColorMatrix in="SourceAlpha" type="matrix" values="0 0 0 0 0 0 0 0 0 0 0 0 0 0 0 0 0 0 127 0" result="hardAlpha"/>
<feOffset/>
<feGaussianBlur stdDeviation="12.309"/>
<feComposite in2="hardAlpha" operator="out"/>
<feColorMatrix type="matrix" values="0 0 0 0 0.25098 0 0 0 0 0.843137 0 0 0 0 1 0 0 0 1 0"/>
<feBlend mode="normal" in2="BackgroundImageFix" result="effect1_dropShadow_141:23082"/>
<feBlend mode="normal" in="SourceGraphic" in2="effect1_dropShadow_141:23082" result="shape"/>
</filter>
<linearGradient id="paint0_linear_141:23082" x1="89.2508" y1="62.4434" x2="89.2508" y2="155.886" gradientUnits="userSpaceOnUse">
<stop stop-color="#050EA3"/>
<stop offset="1" stop-color="#00033A"/>
</linearGradient>
<linearGradient id="paint1_linear_141:23082" x1="81.4603" y1="29.0156" x2="81.4603" y2="89.0314" gradientUnits="userSpaceOnUse">
<stop stop-color="#050EA3"/>
<stop offset="1" stop-color="#00033A"/>
</linearGradient>
<linearGradient id="paint2_linear_141:23082" x1="74.0501" y1="62.4434" x2="74.0501" y2="155.886" gradientUnits="userSpaceOnUse">
<stop stop-color="#050EA3"/>
<stop offset="1" stop-color="#00033A"/>
</linearGradient>
<linearGradient id="paint3_linear_141:23082" x1="74.4308" y1="83.0996" x2="74.4308" y2="135.753" gradientUnits="userSpaceOnUse">
<stop/>
<stop offset="1" stop-color="#00033A"/>
</linearGradient>
<linearGradient id="paint4_linear_141:23082" x1="70.4165" y1="82.7188" x2="70.4165" y2="135.372" gradientUnits="userSpaceOnUse">
<stop stop-color="#050EA3"/>
<stop offset="1" stop-color="#00033A"/>
</linearGradient>
</defs>
</svg>
