<svg width="536" height="95" viewBox="0 0 536 95" fill="none" xmlns="http://www.w3.org/2000/svg">
<g filter="url(#filter0_d_140:21362)">
<path d="M50.5793 50.104C50.6753 48.52 50.7233 46.168 50.7233 43.048L50.6513 35.92C50.5553 32.656 50.5073 30.232 50.5073 28.648C50.5073 27.352 50.5553 25.408 50.6513 22.816C49.9313 22.816 48.7073 22.864 46.9793 22.96C44.7233 23.056 43.4033 23.08 43.0193 23.032C42.3953 23.8 41.6753 25.072 40.8593 26.848C40.0913 28.576 39.3713 30.256 38.6992 31.888C38.0273 33.52 37.5953 34.576 37.4033 35.056C36.2033 38.032 35.5313 39.544 35.3873 39.592C33.8033 36.712 32.4353 34 31.2833 31.456C30.1313 28.864 29.4833 27.4 29.3393 27.064C28.2833 24.712 27.6593 23.44 27.4673 23.248H27.3953C26.9633 23.296 26.2913 23.32 25.3793 23.32C25.1393 23.32 24.4673 23.32 23.3633 23.32C22.3073 23.32 21.4193 23.416 20.6993 23.608C20.5553 42.376 20.4833 54.976 20.4833 61.408C20.4833 66.112 20.5073 69.232 20.5553 70.768C20.6513 72.256 20.7953 73 20.9873 73H23.2913C25.4513 73 27.0113 72.928 27.9713 72.784C27.6353 67.84 27.4433 63.304 27.3953 59.176C27.3473 57.4 27.3233 53.848 27.3233 48.52C27.3233 43.816 27.3473 40.048 27.3953 37.216C28.7393 40.096 29.6753 42.184 30.2033 43.48C31.5953 46.6 32.6753 48.952 33.4433 50.536C34.2593 52.12 34.8833 53.056 35.3153 53.344C35.4593 53.344 35.6273 53.176 35.8193 52.84C36.0113 52.456 36.2513 51.904 36.5392 51.184C38.2673 47.248 39.2993 44.944 39.6353 44.272L42.2993 38.44C42.6833 37.624 43.0193 37 43.3073 36.568C43.4033 42.52 43.4513 48.928 43.4513 55.792C43.4513 56.56 43.4753 58.624 43.5233 61.984C43.5713 65.296 43.6913 68.944 43.8833 72.928L46.9793 72.856C48.1793 72.856 49.3073 72.928 50.3633 73.072L50.5793 50.104ZM55.3296 49.6C55.4256 50.416 55.4736 51.712 55.4736 53.488V57.232C55.4736 60.208 55.6656 62.752 56.0496 64.864C56.4816 66.976 57.3936 68.824 58.7856 70.408C60.2256 71.992 62.3616 73.024 65.1936 73.504L68.5056 73.576C70.2336 73.672 71.5296 73.72 72.3936 73.72C74.6016 73.72 76.4976 73.48 78.0816 73C79.7136 72.52 80.9856 71.632 81.8976 70.336C82.7136 69.52 83.2416 67.696 83.4816 64.864C83.7696 62.032 84.0096 58.216 84.2016 53.416C84.2016 52.984 84.1536 51.448 84.0576 48.808C83.9616 46.12 83.6736 43.984 83.1936 42.4C82.7616 40.816 82.1136 39.736 81.2496 39.16C79.0896 37.048 75.9936 35.992 71.9616 35.992L69.0816 36.064C68.4576 36.064 67.9776 36.04 67.6416 35.992C65.1456 35.992 62.8656 36.352 60.8016 37.072C58.7856 37.744 57.4656 38.776 56.8416 40.168C56.1696 42.088 55.7376 43.696 55.5456 44.992C55.4016 46.288 55.3296 47.824 55.3296 49.6ZM70.0176 42.76C73.1856 42.76 75.3456 43.72 76.4976 45.64C77.6496 47.56 78.2256 50.104 78.2256 53.272C78.2256 54.472 78.1056 56.752 77.8656 60.112C77.8656 60.832 77.7696 61.816 77.5776 63.064C77.1936 64.6 76.3056 65.704 74.9136 66.376C73.5216 67.048 71.8896 67.384 70.0176 67.384C69.0096 67.384 68.0256 67.312 67.0656 67.168C65.6256 66.88 64.4256 66.352 63.4656 65.584C62.5536 64.768 62.0256 63.4 61.8816 61.48L61.7376 58.456C61.7376 57.784 61.6896 56.848 61.5936 55.648C61.5456 54.448 61.5456 53.488 61.5936 52.768C61.5456 50.896 61.5936 49.384 61.7376 48.232C61.9296 47.032 62.3376 46.048 62.9616 45.28C64.4016 43.6 66.7536 42.76 70.0176 42.76ZM95.307 37.216C95.307 37.072 95.067 37 94.587 37C94.203 37 93.819 37.024 93.435 37.072C93.051 37.12 92.715 37.144 92.427 37.144C91.947 37.192 91.323 37.216 90.555 37.216C89.787 37.216 89.115 37.192 88.539 37.144C88.443 42.136 88.395 45.784 88.395 48.088C88.395 50.92 88.443 55.168 88.539 60.832L88.611 73.216C89.043 73.168 89.643 73.144 90.411 73.144C90.795 73.144 91.419 73.144 92.283 73.144C93.195 73.192 94.107 73.12 95.019 72.928V72.64C95.163 70.768 95.235 68.944 95.235 67.168C95.235 66.304 95.187 64.96 95.091 63.136C94.995 60.064 94.947 57.184 94.947 54.496C94.947 52.768 94.971 51.592 95.019 50.968C95.211 48.712 96.075 47.152 97.611 46.288C99.195 45.424 101.643 44.968 104.955 44.92C107.163 44.776 108.339 45.544 108.483 47.224C108.915 48.52 109.179 50.008 109.275 51.688C109.419 53.368 109.491 54.352 109.491 54.64C109.539 55.984 109.515 58.216 109.419 61.336L109.347 65.944V69.04C109.347 70.96 109.395 72.304 109.491 73.072H111.867C113.595 73.072 114.915 73 115.827 72.856C115.779 71.944 115.755 70.432 115.755 68.32C115.755 66.688 115.803 64.048 115.899 60.4C115.995 56.56 116.043 53.728 116.043 51.904C116.043 44.704 115.467 40.6 114.315 39.592C112.635 38.2 110.475 37.456 107.835 37.36C105.627 37.36 103.419 37.744 101.211 38.512C99.003 39.232 97.083 40.072 95.451 41.032V39.232C95.451 38.416 95.403 37.744 95.307 37.216ZM126.209 54.784C126.785 54.928 127.673 55 128.873 55C130.697 55.096 133.505 55.144 137.297 55.144C139.073 55.144 140.225 55.12 140.753 55.072C145.217 54.88 147.905 54.64 148.817 54.352C148.913 53.008 148.961 51.976 148.961 51.256C148.961 42.52 145.697 37.6 139.169 36.496C137.489 36.112 135.881 35.92 134.345 35.92C131.417 35.92 128.753 36.496 126.353 37.648C123.953 38.8 122.297 40.432 121.385 42.544C120.905 43.792 120.569 45.064 120.377 46.36C120.233 47.656 120.113 48.928 120.017 50.176C119.921 51.376 119.849 52.168 119.801 52.552C119.561 57.832 120.281 62.536 121.961 66.664C123.641 70.744 126.353 73.096 130.097 73.72C130.337 73.816 130.937 73.912 131.897 74.008C132.905 74.104 133.985 74.152 135.137 74.152C137.681 74.152 140.009 73.864 142.121 73.288C144.281 72.76 145.793 71.848 146.657 70.552C147.569 69.064 148.145 67.504 148.385 65.872C148.625 64.24 148.721 62.056 148.673 59.32C148.145 59.368 147.665 59.392 147.233 59.392C146.849 59.344 146.513 59.32 146.225 59.32C145.841 59.272 145.265 59.248 144.497 59.248C143.633 59.248 142.697 59.32 141.689 59.464C141.785 60.232 141.833 60.76 141.833 61.048C141.833 62.92 141.257 64.408 140.105 65.512C139.001 66.568 137.273 67.096 134.921 67.096C129.065 67.096 126.137 64.12 126.137 58.168L126.209 56.08V54.784ZM143.705 50.176C143.705 50.368 143.657 50.512 143.561 50.608C143.513 50.656 143.369 50.704 143.129 50.752C142.553 50.8 139.961 50.824 135.353 50.824C134.105 50.872 132.593 50.896 130.817 50.896C128.993 50.896 127.793 50.8 127.217 50.608C126.689 50.416 126.425 50.032 126.425 49.456C126.425 49.264 126.473 48.88 126.569 48.304C126.905 45.904 127.721 44.056 129.017 42.76C130.361 41.464 132.593 40.816 135.713 40.816C136.529 40.816 137.201 40.864 137.729 40.96C138.257 41.056 138.881 41.272 139.601 41.608C140.897 42.424 141.881 43.552 142.553 44.992C143.273 46.432 143.657 47.896 143.705 49.384V50.176ZM174.473 23.32C174.425 23.8 174.401 24.592 174.401 25.696V27.208C174.401 27.496 174.401 27.832 174.401 28.216C174.449 28.552 174.449 28.84 174.401 29.08C174.353 29.656 174.329 30.448 174.329 31.456C174.377 32.416 174.401 33.52 174.401 34.768L174.473 40.888C174.425 40.648 174.185 40.264 173.753 39.736C173.321 39.16 172.721 38.632 171.953 38.152C171.185 37.624 170.321 37.288 169.361 37.144C168.353 36.904 166.937 36.784 165.113 36.784C162.857 36.784 160.841 37.024 159.065 37.504C156.377 38.224 154.481 39.904 153.377 42.544C152.321 45.136 151.793 48.448 151.793 52.48C151.889 56.464 152.201 59.848 152.729 62.632C153.305 65.368 154.457 67.696 156.185 69.616C157.913 71.488 160.481 72.544 163.889 72.784C164.273 72.832 164.849 72.856 165.617 72.856C167.201 72.856 168.641 72.64 169.937 72.208C170.753 72.064 171.545 71.608 172.313 70.84C173.129 70.072 173.705 69.304 174.041 68.536C174.281 69.208 174.401 70.168 174.401 71.416C174.401 72.328 174.425 72.832 174.473 72.928C175.097 73.024 176.057 73.072 177.353 73.072C178.361 73.072 179.633 73.024 181.169 72.928C181.217 71.2 181.241 68.56 181.241 65.008C181.241 61.168 181.217 57.76 181.169 54.784C181.121 51.76 181.073 49.168 181.025 47.008C180.833 38.272 180.737 31.624 180.737 27.064V22.312C180.113 22.216 179.177 22.168 177.929 22.168C175.721 22.168 174.569 22.288 174.473 22.528V23.32ZM167.489 42.184C169.553 42.28 171.065 42.808 172.025 43.768C173.033 44.728 173.657 45.976 173.897 47.512C174.185 49.048 174.353 51.184 174.401 53.92C174.401 56.8 174.233 59.128 173.897 60.904C173.561 62.68 172.817 64.12 171.665 65.224C170.513 66.28 168.785 66.808 166.481 66.808C164.465 66.808 162.833 66.472 161.585 65.8C160.385 65.08 159.425 63.856 158.705 62.128C158.033 60.352 157.649 57.88 157.553 54.712C157.553 52.6 157.625 51.016 157.769 49.96C157.961 47.272 158.753 45.304 160.145 44.056C161.537 42.76 163.529 42.112 166.121 42.112L167.489 42.184ZM209.097 36.856C208.473 36.856 208.161 36.904 208.161 37C208.161 37.384 208.113 38.056 208.017 39.016C207.921 39.688 207.873 40.24 207.873 40.672C207.201 39.328 206.145 38.416 204.705 37.936C203.313 37.408 201.537 37.144 199.377 37.144L197.073 37.216C194.817 37.264 192.753 38.032 190.881 39.52C189.057 40.96 187.617 42.928 186.561 45.424C185.505 47.92 184.977 50.728 184.977 53.848C184.977 56.68 185.361 59.584 186.129 62.56C186.897 65.536 188.073 68.056 189.657 70.12C191.289 72.136 193.257 73.144 195.561 73.144C197.961 73.144 200.409 72.856 202.905 72.28C205.401 71.704 207.225 70.624 208.377 69.04C208.377 69.376 208.329 69.784 208.233 70.264C208.185 70.744 208.185 71.176 208.233 71.56C208.233 72.472 208.473 73 208.953 73.144C209.193 73.144 209.457 73.12 209.745 73.072C210.033 73.024 210.369 73 210.753 73L213.057 73.072H214.281C214.713 72.976 214.977 72.736 215.073 72.352C215.169 71.968 215.217 71.536 215.217 71.056C215.217 70.576 215.217 70.264 215.217 70.12C215.409 67.288 215.505 64.144 215.505 60.688L215.433 52.624C215.337 49.072 215.289 46.384 215.289 44.56C215.289 42.352 215.313 40.696 215.361 39.592V38.872C215.361 38.488 215.313 37.912 215.217 37.144L213.345 37C211.617 36.856 210.201 36.808 209.097 36.856ZM201.033 43.336C203.337 43.48 204.945 43.816 205.857 44.344C206.817 44.872 207.441 45.856 207.729 47.296C208.017 48.688 208.161 51.112 208.161 54.568C208.161 57.736 208.017 60.112 207.729 61.696C207.489 63.28 206.817 64.504 205.713 65.368C204.609 66.232 202.833 66.664 200.385 66.664C194.385 67 191.265 63.304 191.025 55.576C191.025 53.224 191.217 51.352 191.601 49.96C191.985 48.136 193.017 46.576 194.697 45.28C196.425 43.936 198.537 43.288 201.033 43.336ZM249.1 46.36C249.1 44.2 248.572 42.256 247.516 40.528C246.46 38.752 245.092 37.504 243.412 36.784C241.636 36.208 239.716 35.848 237.652 35.704C236.212 35.608 235.132 35.56 234.412 35.56C231.34 35.56 228.82 35.824 226.852 36.352C224.548 36.928 222.724 38.152 221.38 40.024C220.084 41.848 219.436 43.888 219.436 46.144C219.436 48.208 220.084 50.128 221.38 51.904C222.724 53.632 224.644 54.904 227.14 55.72C227.86 56.056 228.676 56.296 229.588 56.44C230.5 56.584 231.7 56.728 233.188 56.872C235.252 57.112 236.884 57.376 238.084 57.664C239.284 57.904 240.268 58.408 241.036 59.176C241.852 59.944 242.236 61.024 242.188 62.416C242.236 64.528 241.036 66.136 238.588 67.24C237.772 67.624 237.1 67.888 236.572 68.032C236.092 68.176 235.468 68.248 234.7 68.248C234.412 68.248 233.5 68.2 231.964 68.104C229.996 67.96 228.604 67.384 227.788 66.376C226.972 65.368 226.396 64.384 226.06 63.424C225.772 62.416 225.58 61.864 225.484 61.768C225.34 61.624 224.332 61.552 222.46 61.552C220.78 61.552 219.508 61.6 218.644 61.696V62.056C218.644 64.6 219.316 66.808 220.66 68.68C222.004 70.552 223.9 71.968 226.348 72.928C228.796 73.84 231.628 74.248 234.844 74.152C237.772 74.2 240.388 73.696 242.692 72.64C244.996 71.584 246.676 69.928 247.732 67.672C248.452 65.56 248.812 63.76 248.812 62.272C248.812 61.072 248.596 59.968 248.164 58.96C247.78 57.904 247.156 56.848 246.292 55.792C245.428 54.832 244.228 54.088 242.692 53.56C241.204 52.984 239.476 52.672 237.508 52.624C236.164 52.576 234.556 52.312 232.684 51.832C230.812 51.352 229.636 50.944 229.156 50.608C228.292 50.176 227.596 49.408 227.068 48.304C226.876 48.064 226.78 47.608 226.78 46.936C226.78 46.072 226.948 45.184 227.284 44.272C227.62 43.36 228.1 42.664 228.724 42.184C229.252 41.848 230.044 41.584 231.1 41.392C232.204 41.2 233.428 41.104 234.772 41.104C236.02 41.104 236.956 41.152 237.58 41.248C240.364 41.584 241.756 42.568 241.756 44.2C241.756 45.784 241.756 46.6 241.756 46.648C241.996 46.6 242.308 46.6 242.692 46.648C243.076 46.648 243.46 46.648 243.844 46.648C244.42 46.696 245.332 46.72 246.58 46.72C248.26 46.72 249.1 46.6 249.1 46.36ZM274.112 37.216C274.112 37.072 273.872 37 273.392 37C273.008 37 272.624 37.024 272.24 37.072C271.856 37.12 271.52 37.144 271.232 37.144C270.752 37.192 270.128 37.216 269.36 37.216C268.592 37.216 267.92 37.192 267.344 37.144C267.248 42.136 267.2 45.784 267.2 48.088C267.2 50.92 267.248 55.168 267.344 60.832L267.416 73.216C267.848 73.168 268.448 73.144 269.216 73.144C269.6 73.144 270.224 73.144 271.088 73.144C272 73.192 272.912 73.12 273.824 72.928V72.64C273.968 70.768 274.04 68.944 274.04 67.168C274.04 66.304 273.992 64.96 273.896 63.136C273.8 60.064 273.752 57.184 273.752 54.496C273.752 52.768 273.776 51.592 273.824 50.968C274.016 48.712 274.88 47.152 276.416 46.288C278 45.424 280.448 44.968 283.76 44.92C285.968 44.776 287.144 45.544 287.288 47.224C287.72 48.52 287.984 50.008 288.08 51.688C288.224 53.368 288.296 54.352 288.296 54.64C288.344 55.984 288.32 58.216 288.224 61.336L288.152 65.944V69.04C288.152 70.96 288.2 72.304 288.296 73.072H290.672C292.4 73.072 293.72 73 294.632 72.856C294.584 71.944 294.56 70.432 294.56 68.32C294.56 66.688 294.608 64.048 294.704 60.4C294.8 56.56 294.848 53.728 294.848 51.904C294.848 44.704 294.272 40.6 293.12 39.592C291.44 38.2 289.28 37.456 286.64 37.36C284.432 37.36 282.224 37.744 280.016 38.512C277.808 39.232 275.888 40.072 274.256 41.032V39.232C274.256 38.416 274.208 37.744 274.112 37.216ZM298.822 49.6C298.918 50.416 298.966 51.712 298.966 53.488V57.232C298.966 60.208 299.158 62.752 299.542 64.864C299.974 66.976 300.886 68.824 302.278 70.408C303.718 71.992 305.854 73.024 308.686 73.504L311.998 73.576C313.726 73.672 315.022 73.72 315.886 73.72C318.094 73.72 319.99 73.48 321.574 73C323.206 72.52 324.478 71.632 325.39 70.336C326.206 69.52 326.734 67.696 326.974 64.864C327.262 62.032 327.502 58.216 327.694 53.416C327.694 52.984 327.646 51.448 327.55 48.808C327.454 46.12 327.166 43.984 326.686 42.4C326.254 40.816 325.606 39.736 324.742 39.16C322.582 37.048 319.486 35.992 315.454 35.992L312.574 36.064C311.95 36.064 311.47 36.04 311.134 35.992C308.638 35.992 306.358 36.352 304.294 37.072C302.278 37.744 300.958 38.776 300.334 40.168C299.662 42.088 299.23 43.696 299.038 44.992C298.894 46.288 298.822 47.824 298.822 49.6ZM313.51 42.76C316.678 42.76 318.838 43.72 319.99 45.64C321.142 47.56 321.718 50.104 321.718 53.272C321.718 54.472 321.598 56.752 321.358 60.112C321.358 60.832 321.262 61.816 321.07 63.064C320.686 64.6 319.798 65.704 318.406 66.376C317.014 67.048 315.382 67.384 313.51 67.384C312.502 67.384 311.518 67.312 310.558 67.168C309.118 66.88 307.918 66.352 306.958 65.584C306.046 64.768 305.518 63.4 305.374 61.48L305.23 58.456C305.23 57.784 305.182 56.848 305.086 55.648C305.038 54.448 305.038 53.488 305.086 52.768C305.038 50.896 305.086 49.384 305.23 48.232C305.422 47.032 305.83 46.048 306.454 45.28C307.894 43.6 310.246 42.76 313.51 42.76ZM338.511 37.216C338.511 37.12 338.127 37.072 337.359 37.072C336.399 37.072 335.631 37.096 335.055 37.144C334.623 37.144 334.119 37.168 333.543 37.216C333.015 37.216 332.511 37.192 332.031 37.144C331.935 42.136 331.887 45.784 331.887 48.088C331.887 50.92 331.935 55.168 332.031 60.832L332.103 73.216C332.871 73.168 333.615 73.144 334.335 73.144C335.103 73.192 335.655 73.216 335.991 73.216C336.855 73.216 337.695 73.12 338.511 72.928V72.64C338.511 64.288 338.415 56.824 338.223 50.248C338.175 48.376 338.391 47.104 338.871 46.432C339.351 45.76 340.263 45.256 341.607 44.92C343.239 44.536 344.703 44.344 345.999 44.344C347.247 44.344 348.399 44.464 349.455 44.704C350.367 44.944 351.183 45.208 351.903 45.496C351.855 45.016 351.831 44.296 351.831 43.336L351.903 37.36C351.903 37.264 351.327 37.216 350.175 37.216C348.927 37.216 347.511 37.312 345.927 37.504C344.391 37.648 343.071 37.912 341.967 38.296C341.247 38.536 340.575 38.776 339.951 39.016C339.375 39.256 338.919 39.472 338.583 39.664C338.583 39.232 338.559 38.872 338.511 38.584C338.511 38.248 338.511 37.792 338.511 37.216ZM362.91 37.288C362.91 37.144 362.694 37.072 362.262 37.072C361.878 37.072 361.494 37.096 361.11 37.144C360.726 37.192 360.414 37.216 360.174 37.216L358.59 37.288C358.35 37.288 357.606 37.24 356.358 37.144C356.262 42.136 356.214 45.784 356.214 48.088C356.214 50.92 356.262 55.168 356.358 60.832L356.43 73.216C356.862 73.168 357.438 73.144 358.158 73.144L360.534 73.216C361.158 73.216 361.83 73.144 362.55 73V72.712C362.694 70.6 362.766 68.56 362.766 66.592L362.694 63.064C362.598 60.28 362.55 58.12 362.55 56.584C362.55 55.192 362.574 54.136 362.622 53.416C363.006 47.704 365.742 44.848 370.83 44.848C372.654 44.848 373.902 45.232 374.574 46C375.246 46.72 375.582 48.088 375.582 50.104C375.774 52.648 375.87 55.576 375.87 58.888L375.798 64.216V68.032C375.798 70.48 375.846 72.184 375.942 73.144H378.174C379.902 73.144 381.27 73.072 382.278 72.928C382.23 72.16 382.206 70.888 382.206 69.112L382.278 61.912C382.374 58.552 382.422 56.056 382.422 54.424V51.76L382.35 49.744C382.35 49.12 382.398 48.28 382.494 47.224C382.926 46.264 383.646 45.568 384.654 45.136C385.662 44.656 386.862 44.416 388.254 44.416C389.166 44.416 389.862 44.464 390.342 44.56C391.926 44.704 392.862 45.256 393.15 46.216C393.582 46.84 393.87 47.752 394.014 48.952C394.158 50.152 394.254 51.256 394.302 52.264C394.35 53.272 394.398 53.968 394.446 54.352V57.376C394.446 59.392 394.398 62.272 394.302 66.016C394.302 69.472 394.35 71.848 394.446 73.144C396.798 73.24 398.838 73.144 400.566 72.856C400.47 70.936 400.422 69.304 400.422 67.96C400.422 66.328 400.47 63.592 400.566 59.752C400.662 55.816 400.71 52.936 400.71 51.112C400.71 47.896 400.59 45.304 400.35 43.336C400.11 41.368 399.678 40.12 399.054 39.592C397.95 38.632 396.702 38.008 395.31 37.72C393.966 37.384 392.094 37.264 389.694 37.36C387.678 37.408 386.094 37.672 384.942 38.152C383.838 38.584 382.95 39.064 382.278 39.592C381.654 40.072 381.174 40.408 380.838 40.6C380.502 39.736 379.806 39.064 378.75 38.584C377.406 37.768 375.702 37.36 373.638 37.36C372.486 37.36 371.07 37.528 369.39 37.864C366.942 38.248 364.83 39.328 363.054 41.104V39.304C363.054 38.488 363.006 37.816 362.91 37.288ZM428.472 36.856C427.848 36.856 427.536 36.904 427.536 37C427.536 37.384 427.488 38.056 427.392 39.016C427.296 39.688 427.248 40.24 427.248 40.672C426.576 39.328 425.52 38.416 424.08 37.936C422.688 37.408 420.912 37.144 418.752 37.144L416.448 37.216C414.192 37.264 412.128 38.032 410.256 39.52C408.432 40.96 406.992 42.928 405.936 45.424C404.88 47.92 404.352 50.728 404.352 53.848C404.352 56.68 404.736 59.584 405.504 62.56C406.272 65.536 407.448 68.056 409.032 70.12C410.664 72.136 412.632 73.144 414.936 73.144C417.336 73.144 419.784 72.856 422.28 72.28C424.776 71.704 426.6 70.624 427.752 69.04C427.752 69.376 427.704 69.784 427.608 70.264C427.56 70.744 427.56 71.176 427.608 71.56C427.608 72.472 427.848 73 428.328 73.144C428.568 73.144 428.832 73.12 429.12 73.072C429.408 73.024 429.744 73 430.128 73L432.432 73.072H433.656C434.088 72.976 434.352 72.736 434.448 72.352C434.544 71.968 434.592 71.536 434.592 71.056C434.592 70.576 434.592 70.264 434.592 70.12C434.784 67.288 434.88 64.144 434.88 60.688L434.808 52.624C434.712 49.072 434.664 46.384 434.664 44.56C434.664 42.352 434.688 40.696 434.736 39.592V38.872C434.736 38.488 434.688 37.912 434.592 37.144L432.72 37C430.992 36.856 429.576 36.808 428.472 36.856ZM420.408 43.336C422.712 43.48 424.32 43.816 425.232 44.344C426.192 44.872 426.816 45.856 427.104 47.296C427.392 48.688 427.536 51.112 427.536 54.568C427.536 57.736 427.392 60.112 427.104 61.696C426.864 63.28 426.192 64.504 425.088 65.368C423.984 66.232 422.208 66.664 419.76 66.664C413.76 67 410.64 63.304 410.4 55.576C410.4 53.224 410.592 51.352 410.976 49.96C411.36 48.136 412.392 46.576 414.072 45.28C415.8 43.936 417.912 43.288 420.408 43.336ZM441.619 20.656C441.235 24.736 441.043 29.32 441.043 34.408C441.043 37.432 441.139 41.92 441.331 47.872C441.523 53.824 441.619 58.288 441.619 61.264C441.619 65.2 441.475 69.112 441.187 73C441.283 72.952 441.523 72.928 441.907 72.928C442.531 72.928 443.059 72.952 443.491 73L445.723 73.072C447.019 73.072 447.811 72.904 448.099 72.568C447.955 68.968 447.883 64.144 447.883 58.096C447.883 52.624 447.931 45.088 448.027 35.488C448.123 27.712 448.171 22.84 448.171 20.872L441.619 20.656ZM459.983 54.784C460.559 54.928 461.447 55 462.646 55C464.471 55.096 467.279 55.144 471.07 55.144C472.847 55.144 473.999 55.12 474.527 55.072C478.991 54.88 481.679 54.64 482.591 54.352C482.687 53.008 482.735 51.976 482.735 51.256C482.735 42.52 479.471 37.6 472.943 36.496C471.263 36.112 469.655 35.92 468.119 35.92C465.191 35.92 462.527 36.496 460.127 37.648C457.727 38.8 456.071 40.432 455.159 42.544C454.679 43.792 454.343 45.064 454.151 46.36C454.007 47.656 453.887 48.928 453.791 50.176C453.695 51.376 453.623 52.168 453.575 52.552C453.335 57.832 454.055 62.536 455.735 66.664C457.415 70.744 460.127 73.096 463.871 73.72C464.111 73.816 464.711 73.912 465.671 74.008C466.679 74.104 467.759 74.152 468.911 74.152C471.455 74.152 473.783 73.864 475.895 73.288C478.055 72.76 479.567 71.848 480.431 70.552C481.343 69.064 481.919 67.504 482.159 65.872C482.399 64.24 482.495 62.056 482.447 59.32C481.919 59.368 481.439 59.392 481.007 59.392C480.623 59.344 480.287 59.32 479.999 59.32C479.615 59.272 479.039 59.248 478.271 59.248C477.407 59.248 476.471 59.32 475.463 59.464C475.559 60.232 475.607 60.76 475.607 61.048C475.607 62.92 475.031 64.408 473.879 65.512C472.775 66.568 471.047 67.096 468.695 67.096C462.839 67.096 459.911 64.12 459.911 58.168L459.983 56.08V54.784ZM477.479 50.176C477.479 50.368 477.431 50.512 477.335 50.608C477.287 50.656 477.143 50.704 476.903 50.752C476.327 50.8 473.735 50.824 469.127 50.824C467.879 50.872 466.367 50.896 464.591 50.896C462.767 50.896 461.567 50.8 460.991 50.608C460.463 50.416 460.199 50.032 460.199 49.456C460.199 49.264 460.247 48.88 460.343 48.304C460.679 45.904 461.495 44.056 462.791 42.76C464.135 41.464 466.367 40.816 469.487 40.816C470.303 40.816 470.975 40.864 471.503 40.96C472.031 41.056 472.655 41.272 473.375 41.608C474.671 42.424 475.655 43.552 476.327 44.992C477.047 46.432 477.431 47.896 477.479 49.384V50.176ZM515.303 46.36C515.303 44.2 514.775 42.256 513.719 40.528C512.663 38.752 511.295 37.504 509.615 36.784C507.839 36.208 505.919 35.848 503.855 35.704C502.415 35.608 501.335 35.56 500.615 35.56C497.543 35.56 495.023 35.824 493.055 36.352C490.751 36.928 488.927 38.152 487.583 40.024C486.287 41.848 485.639 43.888 485.639 46.144C485.639 48.208 486.287 50.128 487.583 51.904C488.927 53.632 490.847 54.904 493.343 55.72C494.063 56.056 494.879 56.296 495.791 56.44C496.703 56.584 497.903 56.728 499.391 56.872C501.455 57.112 503.087 57.376 504.287 57.664C505.487 57.904 506.471 58.408 507.239 59.176C508.055 59.944 508.439 61.024 508.391 62.416C508.439 64.528 507.239 66.136 504.791 67.24C503.975 67.624 503.303 67.888 502.775 68.032C502.295 68.176 501.671 68.248 500.903 68.248C500.615 68.248 499.703 68.2 498.167 68.104C496.199 67.96 494.807 67.384 493.991 66.376C493.175 65.368 492.599 64.384 492.263 63.424C491.975 62.416 491.783 61.864 491.687 61.768C491.543 61.624 490.535 61.552 488.663 61.552C486.983 61.552 485.711 61.6 484.847 61.696V62.056C484.847 64.6 485.519 66.808 486.863 68.68C488.207 70.552 490.103 71.968 492.551 72.928C494.999 73.84 497.831 74.248 501.047 74.152C503.975 74.2 506.591 73.696 508.895 72.64C511.199 71.584 512.879 69.928 513.935 67.672C514.655 65.56 515.015 63.76 515.015 62.272C515.015 61.072 514.799 59.968 514.367 58.96C513.983 57.904 513.359 56.848 512.495 55.792C511.631 54.832 510.431 54.088 508.895 53.56C507.407 52.984 505.679 52.672 503.711 52.624C502.367 52.576 500.759 52.312 498.887 51.832C497.015 51.352 495.839 50.944 495.359 50.608C494.495 50.176 493.799 49.408 493.271 48.304C493.079 48.064 492.983 47.608 492.983 46.936C492.983 46.072 493.151 45.184 493.487 44.272C493.823 43.36 494.303 42.664 494.927 42.184C495.455 41.848 496.247 41.584 497.303 41.392C498.407 41.2 499.631 41.104 500.975 41.104C502.223 41.104 503.159 41.152 503.783 41.248C506.567 41.584 507.959 42.568 507.959 44.2C507.959 45.784 507.959 46.6 507.959 46.648C508.199 46.6 508.511 46.6 508.895 46.648C509.279 46.648 509.663 46.648 510.047 46.648C510.623 46.696 511.535 46.72 512.783 46.72C514.463 46.72 515.303 46.6 515.303 46.36Z" fill="white"/>
</g>
<defs>
<filter id="filter0_d_140:21362" x="0.483154" y="0.65625" width="534.82" height="93.6396" filterUnits="userSpaceOnUse" color-interpolation-filters="sRGB">
<feFlood flood-opacity="0" result="BackgroundImageFix"/>
<feColorMatrix in="SourceAlpha" type="matrix" values="0 0 0 0 0 0 0 0 0 0 0 0 0 0 0 0 0 0 127 0" result="hardAlpha"/>
<feOffset/>
<feGaussianBlur stdDeviation="10"/>
<feComposite in2="hardAlpha" operator="out"/>
<feColorMatrix type="matrix" values="0 0 0 0 1 0 0 0 0 1 0 0 0 0 1 0 0 0 1 0"/>
<feBlend mode="normal" in2="BackgroundImageFix" result="effect1_dropShadow_140:21362"/>
<feBlend mode="normal" in="SourceGraphic" in2="effect1_dropShadow_140:21362" result="shape"/>
</filter>
</defs>
</svg>
