<svg width="404" height="512" viewBox="0 0 404 512" fill="none" xmlns="http://www.w3.org/2000/svg">
<g filter="url(#filter0_d_140:21350)">
<g filter="url(#filter1_d_140:21350)">
<path d="M73.8782 45.5584C74.5941 40.6443 78.8078 37 83.7738 37H356.498C362.617 37 367.301 42.4461 366.385 48.4961L329.162 294.496C328.422 299.386 324.219 303 319.274 303H47.9373C41.8407 303 37.1629 297.591 38.0418 291.558L73.8782 45.5584Z" fill="url(#paint0_linear_140:21350)"/>
<path d="M73.8782 45.5584C74.5941 40.6443 78.8078 37 83.7738 37H356.498C362.617 37 367.301 42.4461 366.385 48.4961L329.162 294.496C328.422 299.386 324.219 303 319.274 303H47.9373C41.8407 303 37.1629 297.591 38.0418 291.558L73.8782 45.5584Z" stroke="#FF00E5" stroke-width="6"/>
</g>
<path d="M74.5538 40.9208C74.8818 38.6695 76.8121 37 79.0872 37H356.498C362.617 37 367.301 42.4461 366.385 48.4961L328.514 298.775C328.147 301.204 326.059 303 323.602 303H301.22C161.572 303 54.4228 179.111 74.5538 40.9208V40.9208Z" fill="url(#paint1_linear_140:21350)" fill-opacity="0.1"/>
</g>
<g filter="url(#filter2_d_140:21350)">
<path d="M87.5368 388.385C90.1294 374.119 102.554 363.749 117.053 363.749H292.485C298.724 363.749 303.439 369.399 302.324 375.537L292.929 427.231C290.337 441.497 277.912 451.867 263.413 451.867H87.9811C81.7424 451.867 77.0268 446.217 78.1423 440.078L87.5368 388.385Z" fill="#FEDD87"/>
<path d="M88.5207 388.564C91.0269 374.773 103.037 364.749 117.053 364.749H292.485C298.1 364.749 302.344 369.834 301.34 375.358L291.945 427.052C289.439 440.842 277.429 450.867 263.413 450.867H87.9811C82.3663 450.867 78.1222 445.782 79.1262 440.257L88.5207 388.564Z" stroke="white" stroke-width="2"/>
</g>
<path d="M88.0707 383.636C90.6633 369.37 103.088 359 117.587 359H293.019C299.258 359 303.973 364.65 302.858 370.788L293.463 422.482C290.871 436.747 278.446 447.118 263.947 447.118H88.5151C82.2764 447.118 77.5607 441.468 78.6762 435.329L88.0707 383.636Z" fill="url(#paint2_linear_140:21350)"/>
<path d="M89.5203 381.815C91.1511 368.781 102.232 359 115.368 359H294.015L286.229 365.632H104.831L89.5203 381.815Z" fill="#FF8A00" fill-opacity="0.2"/>
<path d="M83.7402 409.918L85.8754 440.785L272.171 434.19L279.111 440.785L295.926 404.905L292.979 422.166C290.518 436.578 278.027 447.117 263.407 447.117H88.6571C82.3713 447.117 77.6441 441.386 78.8396 435.215L83.7402 409.918Z" fill="white" fill-opacity="0.26"/>
<path d="M89.0546 383.815C91.5608 370.024 103.571 360 117.587 360H293.019C298.634 360 302.878 365.085 301.874 370.609L292.479 422.303C289.973 436.093 277.963 446.118 263.947 446.118H88.5151C82.9002 446.118 78.6562 441.033 79.6601 435.508L89.0546 383.815Z" stroke="white" stroke-width="2"/>
<path d="M141.447 405.85C140.579 405.23 139.587 404.569 138.471 403.866C137.397 403.163 136.363 402.419 135.371 401.634C134.421 400.807 133.615 399.981 132.953 399.154C132.292 398.286 131.961 397.397 131.961 396.488C131.961 395.744 132.271 395.103 132.891 394.566C133.553 393.987 134.214 393.698 134.875 393.698C135.867 393.698 136.446 393.967 136.611 394.504C136.818 395 136.963 395.579 137.045 396.24C137.128 396.86 137.335 397.439 137.665 397.976C138.037 398.472 138.885 398.72 140.207 398.72C140.827 398.72 141.406 398.699 141.943 398.658C142.481 398.617 143.059 398.596 143.679 398.596H144.671C145.333 398.596 145.849 398.493 146.221 398.286C146.593 398.038 146.779 397.604 146.779 396.984C146.779 395.868 146.738 394.876 146.655 394.008C146.614 393.099 146.366 392.169 145.911 391.218C145.663 390.722 145.333 390.205 144.919 389.668C144.547 389.089 144.072 388.552 143.493 388.056C142.956 387.56 142.357 387.126 141.695 386.754C141.034 386.382 140.311 386.155 139.525 386.072C138.988 386.031 138.719 385.741 138.719 385.204V380.12C138.595 379.872 138.223 379.686 137.603 379.562C137.025 379.438 136.405 379.376 135.743 379.376C135.082 379.335 134.503 379.314 134.007 379.314C133.511 379.314 133.305 379.314 133.387 379.314C133.015 379.314 132.623 379.314 132.209 379.314C131.796 379.273 131.403 379.293 131.031 379.376C130.659 379.417 130.349 379.521 130.101 379.686C129.895 379.81 129.791 380.017 129.791 380.306C129.791 380.389 129.812 380.657 129.853 381.112C129.895 381.567 129.915 382.063 129.915 382.6C129.957 383.137 129.998 383.633 130.039 384.088C130.081 384.543 130.101 384.811 130.101 384.894C130.101 385.101 130.122 385.287 130.163 385.452C130.205 385.576 130.122 385.679 129.915 385.762C128.965 386.051 127.973 386.485 126.939 387.064C125.906 387.643 125.038 388.283 124.335 388.986C123.55 389.771 122.971 390.639 122.599 391.59C122.269 392.541 122.103 393.533 122.103 394.566C122.103 396.054 122.413 397.542 123.033 399.03C123.695 400.518 124.501 401.799 125.451 402.874C126.361 403.866 127.456 404.837 128.737 405.788C130.019 406.739 131.238 407.731 132.395 408.764C133.594 409.797 134.607 410.872 135.433 411.988C136.26 413.104 136.673 414.323 136.673 415.646C136.673 416.307 136.363 416.845 135.743 417.258C135.123 417.671 134.483 417.878 133.821 417.878C132.747 417.878 132.044 417.589 131.713 417.01C131.383 416.431 131.217 415.811 131.217 415.15C131.217 414.819 131.197 414.509 131.155 414.22C131.155 413.889 131.155 413.559 131.155 413.228C131.155 412.608 131.011 412.153 130.721 411.864C130.473 411.575 130.143 411.389 129.729 411.306C129.357 411.223 128.903 411.203 128.365 411.244C127.869 411.244 127.373 411.223 126.877 411.182C126.505 411.141 126.113 411.099 125.699 411.058C125.327 411.017 124.914 410.996 124.459 410.996C123.757 410.996 123.199 411.058 122.785 411.182C122.413 411.265 122.124 411.43 121.917 411.678C121.752 411.885 121.649 412.195 121.607 412.608C121.607 413.021 121.607 413.538 121.607 414.158C121.607 415.522 121.669 416.783 121.793 417.94C121.917 419.097 122.186 420.151 122.599 421.102C123.054 422.011 123.715 422.817 124.583 423.52C125.493 424.223 126.691 424.822 128.179 425.318C128.882 425.525 129.357 425.835 129.605 426.248C129.853 426.661 129.998 427.116 130.039 427.612C130.122 428.108 130.122 428.604 130.039 429.1C129.998 429.637 129.998 430.113 130.039 430.526C130.122 430.981 130.308 431.332 130.597 431.58C130.928 431.869 131.465 432.014 132.209 432.014H133.945C134.4 432.014 134.834 431.993 135.247 431.952C135.702 431.952 136.136 431.952 136.549 431.952C137.417 431.952 138.017 431.787 138.347 431.456C138.719 431.167 138.905 430.774 138.905 430.278V430.03C138.905 429.906 138.905 429.617 138.905 429.162C138.905 428.749 138.905 428.294 138.905 427.798C138.905 427.343 138.905 426.889 138.905 426.434C138.947 426.021 138.967 425.752 138.967 425.628C139.05 425.628 139.277 425.525 139.649 425.318C140.021 425.111 140.414 424.884 140.827 424.636C141.282 424.347 141.695 424.078 142.067 423.83C142.481 423.582 142.749 423.396 142.873 423.272C144.196 422.197 145.126 421.061 145.663 419.862C146.242 418.663 146.531 417.403 146.531 416.08C146.531 415.212 146.407 414.303 146.159 413.352C145.953 412.401 145.622 411.471 145.167 410.562C144.754 409.611 144.237 408.743 143.617 407.958C142.997 407.131 142.274 406.429 141.447 405.85ZM171.847 405.602C171.805 405.313 171.785 404.548 171.785 403.308C171.785 402.027 171.785 400.539 171.785 398.844C171.826 397.149 171.867 395.351 171.909 393.45C171.991 391.507 172.053 389.73 172.095 388.118C172.136 386.465 172.177 385.101 172.219 384.026C172.26 382.951 172.281 382.393 172.281 382.352H172.157C171.826 382.311 171.165 382.311 170.173 382.352C169.181 382.352 168.147 382.373 167.073 382.414C165.998 382.414 164.985 382.435 164.035 382.476C163.125 382.476 162.588 382.476 162.423 382.476C162.381 382.476 162.361 382.497 162.361 382.538C160.046 386.01 158.103 389.027 156.533 391.59C155.003 394.153 153.722 396.343 152.689 398.162C151.697 399.939 150.911 401.386 150.333 402.502C149.754 403.577 149.258 404.403 148.845 404.982C148.762 407.462 148.824 409.508 149.031 411.12C149.237 412.732 149.382 413.683 149.465 413.972C149.506 414.055 149.837 414.117 150.457 414.158C151.077 414.158 151.841 414.158 152.751 414.158C153.701 414.158 154.714 414.158 155.789 414.158C156.905 414.117 157.938 414.096 158.889 414.096C159.881 414.096 160.728 414.117 161.431 414.158C162.133 414.199 162.567 414.241 162.733 414.282C162.733 414.365 162.712 414.716 162.671 415.336C162.629 415.956 162.567 416.7 162.485 417.568C162.443 418.436 162.381 419.366 162.299 420.358C162.257 421.35 162.216 422.28 162.175 423.148C162.133 423.975 162.092 424.677 162.051 425.256C162.009 425.835 162.009 426.145 162.051 426.186C164.903 426.145 167.031 426.124 168.437 426.124C169.883 426.165 170.731 426.041 170.979 425.752C171.02 425.587 171.061 425.194 171.103 424.574C171.144 423.954 171.185 423.231 171.227 422.404C171.309 421.577 171.371 420.73 171.413 419.862C171.495 418.953 171.557 418.126 171.599 417.382C171.681 416.597 171.743 415.977 171.785 415.522C171.826 415.026 171.847 414.799 171.847 414.84C172.425 414.716 173.025 414.716 173.645 414.84C174.306 414.923 174.967 414.861 175.629 414.654L176.001 405.664C175.505 405.664 174.885 405.623 174.141 405.54C173.397 405.457 172.756 405.457 172.219 405.54L171.847 405.602ZM164.407 405.726C164.117 405.767 163.518 405.788 162.609 405.788C161.741 405.788 160.831 405.788 159.881 405.788C158.93 405.747 158.083 405.726 157.339 405.726C156.595 405.685 156.223 405.664 156.223 405.664C156.264 405.581 156.491 405.168 156.905 404.424C157.359 403.68 157.897 402.791 158.517 401.758C159.137 400.683 159.798 399.567 160.501 398.41C161.203 397.211 161.844 396.137 162.423 395.186C163.043 394.235 163.539 393.491 163.911 392.954C164.324 392.375 164.551 392.21 164.593 392.458L164.407 405.726ZM185.737 426V425.938V425.876C185.737 425.587 185.757 425.049 185.799 424.264C185.84 423.479 185.881 422.673 185.923 421.846C185.964 421.019 186.005 420.296 186.047 419.676C186.088 419.015 186.109 418.663 186.109 418.622C185.819 418.498 185.323 418.415 184.621 418.374C183.959 418.291 183.236 418.25 182.451 418.25C181.665 418.25 180.88 418.291 180.095 418.374C179.351 418.457 178.772 418.581 178.358 418.746C178.358 419.035 178.338 419.49 178.297 420.11C178.297 420.73 178.276 421.391 178.235 422.094C178.235 422.797 178.235 423.499 178.235 424.202C178.276 424.905 178.338 425.483 178.421 425.938H178.607L185.613 426H185.737ZM217.447 396.798C217.405 394.69 217.281 392.644 217.075 390.66C216.868 388.676 216.289 386.961 215.339 385.514C214.719 384.563 213.975 383.861 213.107 383.406C212.239 382.91 211.288 382.579 210.255 382.414C209.263 382.207 208.209 382.104 207.093 382.104C206.018 382.104 204.964 382.083 203.931 382.042C201.657 382.125 199.467 382.538 197.359 383.282C195.251 384.026 193.515 385.204 192.151 386.816C191.861 387.147 191.613 387.498 191.407 387.87C191.2 388.201 190.993 388.552 190.787 388.924C190.415 389.833 190.146 390.887 189.981 392.086C189.815 393.285 189.753 394.525 189.795 395.806C189.877 397.046 190.063 398.265 190.353 399.464C190.683 400.663 191.138 401.696 191.717 402.564C192.502 403.763 193.453 404.796 194.569 405.664C195.726 406.491 196.966 407.131 198.289 407.586C199.653 408.041 201.058 408.268 202.505 408.268C203.993 408.227 205.419 407.917 206.783 407.338L206.845 407.4C206.886 408.185 206.886 409.012 206.845 409.88C206.803 410.748 206.659 411.554 206.411 412.298C206.204 413.042 205.853 413.662 205.357 414.158C204.902 414.654 204.303 414.943 203.559 415.026C202.608 415.109 201.761 414.861 201.017 414.282C200.314 413.662 199.859 412.939 199.653 412.112C198.123 411.905 196.47 411.864 194.693 411.988C192.957 412.112 191.365 412.195 189.919 412.236V412.546C189.505 415.729 190.001 418.374 191.407 420.482C192.109 421.515 193.039 422.425 194.197 423.21C195.395 423.995 196.697 424.636 198.103 425.132C199.549 425.628 201.058 425.959 202.629 426.124C204.199 426.331 205.708 426.331 207.155 426.124C208.643 425.917 210.027 425.525 211.309 424.946C212.59 424.326 213.665 423.499 214.533 422.466C215.401 421.267 216.083 419.965 216.579 418.56C217.075 417.113 217.426 415.625 217.633 414.096C217.798 412.732 217.839 411.389 217.757 410.066C217.674 408.702 217.612 407.338 217.571 405.974L217.447 396.798ZM208.023 396.116C207.94 396.323 207.899 396.467 207.899 396.55C207.899 396.591 207.857 396.715 207.775 396.922C207.692 397.087 207.63 397.211 207.589 397.294C207.589 397.335 207.527 397.459 207.403 397.666C207.072 398.162 206.597 398.534 205.977 398.782C205.398 399.03 204.778 399.133 204.117 399.092C203.497 399.051 202.877 398.865 202.257 398.534C201.678 398.203 201.244 397.728 200.955 397.108V397.046C200.831 396.715 200.727 396.364 200.645 395.992C200.603 395.579 200.562 395.165 200.521 394.752C200.521 394.132 200.707 393.636 201.079 393.264C201.451 392.892 201.905 392.603 202.443 392.396C203.063 392.107 203.724 391.983 204.427 392.024C205.129 392.024 205.749 392.169 206.287 392.458C206.865 392.747 207.32 393.14 207.651 393.636C207.981 394.132 208.126 394.69 208.085 395.31C208.085 395.641 208.064 395.909 208.023 396.116ZM249.234 396.798C249.192 394.69 249.068 392.644 248.862 390.66C248.655 388.676 248.076 386.961 247.126 385.514C246.506 384.563 245.762 383.861 244.894 383.406C244.026 382.91 243.075 382.579 242.042 382.414C241.05 382.207 239.996 382.104 238.88 382.104C237.805 382.104 236.751 382.083 235.718 382.042C233.444 382.125 231.254 382.538 229.146 383.282C227.038 384.026 225.302 385.204 223.938 386.816C223.648 387.147 223.4 387.498 223.194 387.87C222.987 388.201 222.78 388.552 222.574 388.924C222.202 389.833 221.933 390.887 221.768 392.086C221.602 393.285 221.54 394.525 221.582 395.806C221.664 397.046 221.85 398.265 222.14 399.464C222.47 400.663 222.925 401.696 223.504 402.564C224.289 403.763 225.24 404.796 226.356 405.664C227.513 406.491 228.753 407.131 230.076 407.586C231.44 408.041 232.845 408.268 234.292 408.268C235.78 408.227 237.206 407.917 238.57 407.338L238.632 407.4C238.673 408.185 238.673 409.012 238.632 409.88C238.59 410.748 238.446 411.554 238.198 412.298C237.991 413.042 237.64 413.662 237.144 414.158C236.689 414.654 236.09 414.943 235.346 415.026C234.395 415.109 233.548 414.861 232.804 414.282C232.101 413.662 231.646 412.939 231.44 412.112C229.91 411.905 228.257 411.864 226.48 411.988C224.744 412.112 223.152 412.195 221.706 412.236V412.546C221.292 415.729 221.788 418.374 223.194 420.482C223.896 421.515 224.826 422.425 225.984 423.21C227.182 423.995 228.484 424.636 229.89 425.132C231.336 425.628 232.845 425.959 234.416 426.124C235.986 426.331 237.495 426.331 238.942 426.124C240.43 425.917 241.814 425.525 243.096 424.946C244.377 424.326 245.452 423.499 246.32 422.466C247.188 421.267 247.87 419.965 248.366 418.56C248.862 417.113 249.213 415.625 249.42 414.096C249.585 412.732 249.626 411.389 249.544 410.066C249.461 408.702 249.399 407.338 249.358 405.974L249.234 396.798ZM239.81 396.116C239.727 396.323 239.686 396.467 239.686 396.55C239.686 396.591 239.644 396.715 239.562 396.922C239.479 397.087 239.417 397.211 239.376 397.294C239.376 397.335 239.314 397.459 239.19 397.666C238.859 398.162 238.384 398.534 237.764 398.782C237.185 399.03 236.565 399.133 235.904 399.092C235.284 399.051 234.664 398.865 234.044 398.534C233.465 398.203 233.031 397.728 232.742 397.108V397.046C232.618 396.715 232.514 396.364 232.432 395.992C232.39 395.579 232.349 395.165 232.308 394.752C232.308 394.132 232.494 393.636 232.866 393.264C233.238 392.892 233.692 392.603 234.23 392.396C234.85 392.107 235.511 391.983 236.214 392.024C236.916 392.024 237.536 392.169 238.074 392.458C238.652 392.747 239.107 393.14 239.438 393.636C239.768 394.132 239.913 394.69 239.872 395.31C239.872 395.641 239.851 395.909 239.81 396.116Z" fill="black"/>
<path d="M196.108 221.927C190.385 221.927 140.17 221.285 140.17 199.156V186.666V186.185C139.02 184.184 138.414 181.949 138.406 179.678V167.389C138.495 166.501 138.742 165.632 139.138 164.819C137.943 162.804 137.321 160.536 137.33 158.233V147.55C137.269 146.533 137.269 145.514 137.33 144.498C137.664 142.221 138.782 140.107 140.514 138.474C140.473 137.925 140.473 137.375 140.514 136.827V124.498C140.47 123.829 140.47 123.158 140.514 122.49C140.814 120.618 141.597 118.843 142.797 117.317C143.996 115.792 145.576 114.562 147.399 113.735C150.749 111.788 154.388 110.313 158.199 109.357C161.505 108.372 164.885 107.62 168.311 107.108C178.264 105.54 188.339 104.747 198.432 104.739C207.513 104.58 216.582 105.416 225.454 107.229C231.8 108.628 237.92 110.802 243.656 113.695C245.877 114.75 247.741 116.36 249.04 118.345C250.339 120.33 251.022 122.613 251.014 124.94V136.506C250.992 139.631 249.874 142.664 247.829 145.14C247.871 145.554 247.871 145.971 247.829 146.385V157.952C247.83 159.172 247.657 160.388 247.313 161.566C248.576 163.443 249.247 165.615 249.249 167.831V179.397C249.313 179.998 249.313 180.604 249.249 181.205C250.409 183.057 251.018 185.164 251.014 187.309V198.875C251.014 215.903 221.323 221.927 196.108 221.927Z" fill="white"/>
<g filter="url(#filter3_d_140:21350)">
<path d="M198.389 106.747C207.296 106.609 216.19 107.431 224.895 109.197C231.001 110.544 236.889 112.637 242.408 115.422C244.287 116.31 245.86 117.674 246.948 119.357C248.036 121.04 248.595 122.974 248.561 124.94V136.506C248.494 139.455 247.339 142.292 245.291 144.538C245.355 145.126 245.355 145.718 245.291 146.305V157.871C245.293 159.239 245.046 160.597 244.559 161.888C245.941 163.602 246.695 165.686 246.711 167.831V179.398C246.708 180.154 246.621 180.907 246.453 181.647C247.698 183.307 248.373 185.282 248.389 187.309V198.875C248.389 213.414 221.969 219.92 195.807 219.92C175.885 219.92 142.15 215.542 142.15 199.157V186.867V186.426C142.15 186.185 142.15 185.984 142.15 185.823C140.952 183.968 140.313 181.845 140.299 179.679V167.39C140.253 166.459 140.46 165.534 140.902 164.699C139.583 162.767 138.881 160.524 138.879 158.233V147.55C138.879 147.55 138.879 145.663 138.879 144.699C139.33 142.54 140.506 140.57 142.236 139.076C142.063 138.338 141.976 137.583 141.978 136.827V124.498C141.932 123.95 141.932 123.399 141.978 122.851C142.23 121.245 142.91 119.724 143.955 118.426C145 117.128 146.376 116.095 147.959 115.422C151.162 113.601 154.645 112.247 158.286 111.406C161.471 110.421 164.738 109.682 168.053 109.197C177.88 107.664 187.824 106.885 197.787 106.867L198.389 106.747ZM197.787 102.851C187.594 102.88 177.421 103.673 167.365 105.221C163.837 105.774 160.357 106.565 156.952 107.59C153.17 108.627 149.564 110.155 146.237 112.129C144.154 113.111 142.351 114.541 140.974 116.3C139.598 118.059 138.688 120.098 138.32 122.249C138.248 123.037 138.248 123.83 138.32 124.618V136.948C138.299 137.282 138.299 137.617 138.32 137.952C136.622 139.723 135.502 141.911 135.093 144.257C135.004 145.38 135.004 146.508 135.093 147.631V158.153C135.094 160.513 135.652 162.844 136.728 164.98C136.648 165.822 136.648 166.668 136.728 167.51V179.558C136.721 181.911 137.295 184.233 138.406 186.345V199.036C138.406 217.349 169.602 223.815 196.367 223.815C223.131 223.815 253.251 217.269 253.251 198.755V187.309C253.243 185.038 252.637 182.804 251.487 180.803C251.487 180.321 251.487 179.88 251.487 179.398V167.831C251.491 165.541 250.869 163.288 249.68 161.285C249.936 160.19 250.066 159.073 250.067 157.952V145.703C252.053 142.991 253.131 139.79 253.165 136.506V124.94C253.112 122.296 252.301 119.714 250.818 117.462C249.336 115.209 247.234 113.368 244.731 112.129C238.809 109.097 232.488 106.802 225.928 105.301C216.89 103.428 207.645 102.565 198.389 102.731L197.787 102.851Z" fill="#1F093D"/>
</g>
<path d="M240.084 186.586H151.057C150.486 186.586 149.939 186.798 149.536 187.174C149.132 187.551 148.905 188.062 148.905 188.594V199.156C148.905 208.393 174.422 213.895 197.615 213.895C220.807 213.895 242.408 208.072 242.408 198.875V188.434C242.353 187.904 242.08 187.416 241.647 187.071C241.213 186.726 240.653 186.552 240.084 186.586Z" fill="#FFB700"/>
<path d="M165.902 197.871H163.406V209.959H165.902V197.871Z" fill="#C47F0B"/>
<path d="M196.109 215.903C176.272 215.903 146.754 211.445 146.754 199.156V187.509C146.754 185.461 148.432 182.489 151.057 182.489L240.085 184.015C241.226 184.015 242.32 184.438 243.127 185.192C243.934 185.945 244.388 186.966 244.388 188.031V198.875C244.388 210.039 220.076 215.903 196.109 215.903ZM151.444 186.505C151.228 186.805 151.095 187.15 151.057 187.509V199.156C151.057 205.943 172.098 211.887 196.109 211.887C220.119 211.887 240.085 205.943 240.085 198.875V188.031L151.444 186.505Z" fill="#C47F0B"/>
<path d="M195.549 199.638C220.121 199.638 240.041 194.244 240.041 187.59C240.041 180.936 220.121 175.542 195.549 175.542C170.977 175.542 151.057 180.936 151.057 187.59C151.057 194.244 170.977 199.638 195.549 199.638Z" fill="#FFCF00"/>
<path d="M195.549 199.638C220.121 199.638 240.041 194.244 240.041 187.59C240.041 180.936 220.121 175.542 195.549 175.542C170.977 175.542 151.057 180.936 151.057 187.59C151.057 194.244 170.977 199.638 195.549 199.638Z" fill="url(#paint3_linear_140:21350)"/>
<path d="M195.936 194.819C173.174 194.819 162.933 190.803 159.017 188.634C156.736 187.309 157.683 186.425 158.458 185.903C162.072 183.333 172.829 179.558 195.549 179.558C218.268 179.558 231.048 184.096 234.275 186.746C234.878 187.228 234.275 187.911 232.425 189.317C229.026 191.726 219 194.819 195.936 194.819Z" fill="#FBBB00"/>
<path d="M234.362 186.747C231.048 184.097 218.699 179.558 195.635 179.558C190.476 179.541 185.319 179.783 180.188 180.281C183.243 180.281 186.513 180 190.171 180C213.32 180 227.563 184.016 230.876 186.747C231.479 187.229 231.823 187.832 229.8 189.237C222.887 192.378 215.363 194.181 207.683 194.538C222.615 193.695 229.757 191.285 232.597 189.318C234.534 187.912 234.964 187.229 234.362 186.747Z" fill="#C47F0B"/>
<path d="M168.656 184.177C178.669 183.325 188.734 183.137 198.776 183.615C206.564 183.896 215.213 184.94 225.454 185.904C216.386 182.871 206.817 181.348 197.184 181.406C187.574 180.77 177.919 181.708 168.656 184.177Z" fill="#FFCF00"/>
<path d="M197.357 202.25C173.002 202.25 146.754 196.547 146.754 187.31C146.754 178.073 171.281 172.973 195.549 172.973C219.818 172.973 244.388 177.912 244.388 187.31C244.388 196.708 220.162 202.25 197.357 202.25ZM195.549 176.989C168.398 176.989 151.057 183.093 151.057 187.31C151.057 191.527 170.506 198.234 197.357 198.234C224.207 198.234 240.085 191.888 240.085 187.31C240.085 182.732 222.744 176.989 195.549 176.989Z" fill="#C47F0B"/>
<path d="M175.11 198.955H172.614V211.566H175.11V198.955Z" fill="#C47F0B"/>
<path d="M230.961 195.702H228.466V207.871H230.961V195.702Z" fill="#C47F0B"/>
<path d="M221.538 199.277H219.043V210.322H221.538V199.277Z" fill="#C47F0B"/>
<path d="M210.007 200.241H207.511V213.052H210.007V200.241Z" fill="#C47F0B"/>
<path d="M187.589 200.522H185.093V213.655H187.589V200.522Z" fill="#C47F0B"/>
<path d="M199.336 200.643H196.84V213.454H199.336V200.643Z" fill="#C47F0B"/>
<path d="M157.555 194.778H155.059V206.867H157.555V194.778Z" fill="#C47F0B"/>
<path d="M183.587 192.45C183.587 192.45 208.2 194.096 214.31 192.45C214.31 192.45 197.098 187.911 183.587 192.45Z" fill="#FFCF00"/>
<path d="M238.406 167.108H149.378C148.808 167.108 148.261 167.32 147.857 167.697C147.454 168.073 147.227 168.584 147.227 169.116V179.679C147.227 188.916 172.786 194.418 195.979 194.418C219.172 194.418 240.557 188.434 240.557 179.398V169.116C240.546 168.587 240.316 168.082 239.915 167.708C239.514 167.334 238.973 167.119 238.406 167.108Z" fill="#FFB700"/>
<path d="M164.224 178.394H161.728V190.482H164.224V178.394Z" fill="#C47F0B"/>
<path d="M194.43 196.465C174.594 196.465 145.076 192.008 145.076 179.718V168.072C145.076 166.024 146.754 163.052 149.379 163.052L238.406 164.578C239.547 164.578 240.642 165.001 241.449 165.754C242.256 166.507 242.709 167.529 242.709 168.594V179.437C242.709 190.562 218.398 196.465 194.43 196.465ZM149.766 167.028C149.568 167.336 149.437 167.677 149.379 168.032V179.678C149.379 186.465 170.42 192.409 194.43 192.409C218.441 192.409 238.406 186.465 238.406 179.397V168.554L149.766 167.028Z" fill="#C47F0B"/>
<path d="M193.87 180.161C218.443 180.161 238.363 174.767 238.363 168.113C238.363 161.459 218.443 156.064 193.87 156.064C169.298 156.064 149.378 161.459 149.378 168.113C149.378 174.767 169.298 180.161 193.87 180.161Z" fill="#FFCF00"/>
<path d="M193.87 180.161C218.443 180.161 238.363 174.767 238.363 168.113C238.363 161.459 218.443 156.064 193.87 156.064C169.298 156.064 149.378 161.459 149.378 168.113C149.378 174.767 169.298 180.161 193.87 180.161Z" fill="url(#paint4_linear_140:21350)"/>
<path d="M194.258 175.342C171.496 175.342 161.255 171.326 157.339 169.157C155.059 167.832 156.048 166.949 156.823 166.426C160.394 163.856 171.152 160.081 193.871 160.081C216.591 160.081 229.37 164.619 232.598 167.27C233.2 167.752 232.598 168.434 230.747 169.84C227.348 172.37 217.322 175.342 194.258 175.342Z" fill="#FBBB00"/>
<path d="M167.021 164.698C176.953 163.922 186.932 163.801 196.883 164.337C204.671 164.618 213.32 165.662 223.561 166.626C214.493 163.593 204.924 162.07 195.291 162.128C185.779 161.449 176.213 162.318 167.021 164.698Z" fill="#FFCF00"/>
<path d="M195.678 182.771C171.367 182.771 145.076 177.068 145.076 167.831C145.076 158.595 169.645 153.494 193.871 153.494C218.096 153.494 242.709 158.434 242.709 167.831C242.709 177.229 218.484 182.771 195.678 182.771ZM193.871 157.51C166.719 157.51 149.379 163.615 149.379 167.831C149.379 172.048 168.828 178.755 195.678 178.755C222.528 178.755 238.406 172.41 238.406 167.831C238.406 163.253 220.893 157.51 193.871 157.51Z" fill="#C47F0B"/>
<path d="M173.432 179.478H170.937V192.088H173.432V179.478Z" fill="#C47F0B"/>
<path d="M229.284 176.226H226.789V188.394H229.284V176.226Z" fill="#C47F0B"/>
<path d="M219.903 179.799H217.408V190.843H219.903V179.799Z" fill="#C47F0B"/>
<path d="M208.329 180.764H205.833V193.575H208.329V180.764Z" fill="#C47F0B"/>
<path d="M185.91 181.044H183.415V194.217H185.91V181.044Z" fill="#C47F0B"/>
<path d="M197.658 181.165H195.162V193.976H197.658V181.165Z" fill="#C47F0B"/>
<path d="M155.876 175.302H153.38V187.39H155.876V175.302Z" fill="#C47F0B"/>
<path d="M181.909 172.771C181.909 172.771 206.521 174.418 212.632 172.771C212.632 172.771 195.42 168.353 181.909 172.771Z" fill="#FFCF00"/>
<path d="M236.986 145.662H147.958C147.391 145.672 146.85 145.887 146.449 146.262C146.048 146.636 145.818 147.141 145.807 147.67V158.232C145.807 167.469 171.366 172.971 194.559 172.971C217.752 172.971 239.137 167.148 239.137 157.951V147.67C239.137 147.406 239.081 147.145 238.973 146.902C238.865 146.658 238.707 146.437 238.507 146.25C238.307 146.064 238.07 145.916 237.809 145.815C237.548 145.714 237.268 145.662 236.986 145.662Z" fill="#FFB700"/>
<path d="M162.803 156.908H160.308V168.997H162.803V156.908Z" fill="#C47F0B"/>
<path d="M193.01 174.979C173.173 174.979 143.655 170.521 143.655 158.232V146.586C143.655 144.537 145.334 141.565 147.958 141.565L237.029 143.092C238.17 143.092 239.265 143.515 240.072 144.268C240.878 145.021 241.332 146.042 241.332 147.108V157.951C241.289 169.116 217.02 174.979 193.01 174.979ZM148.346 145.581C148.148 145.89 148.016 146.231 147.958 146.586V158.232C147.958 165.019 169.043 170.963 193.01 170.963C216.977 170.963 236.986 165.019 236.986 157.951V147.108L148.346 145.581Z" fill="#C47F0B"/>
<path d="M192.494 158.715C217.067 158.715 236.986 153.32 236.986 146.666C236.986 140.012 217.067 134.618 192.494 134.618C167.922 134.618 148.002 140.012 148.002 146.666C148.002 153.32 167.922 158.715 192.494 158.715Z" fill="#FFCF00"/>
<path d="M192.494 158.715C217.067 158.715 236.986 153.32 236.986 146.666C236.986 140.012 217.067 134.618 192.494 134.618C167.922 134.618 148.002 140.012 148.002 146.666C148.002 153.32 167.922 158.715 192.494 158.715Z" fill="url(#paint5_linear_140:21350)"/>
<path d="M192.881 153.895C170.076 153.895 159.835 149.879 155.962 147.71C153.639 146.385 154.628 145.501 155.403 144.979C159.017 142.409 169.775 138.634 192.494 138.634C215.213 138.634 227.95 143.132 231.22 145.823C231.823 146.304 231.22 146.987 229.37 148.393C225.971 150.802 215.945 153.895 192.881 153.895Z" fill="#FBBB00"/>
<path d="M231.264 145.823C227.95 143.132 215.644 138.634 192.537 138.634C186.556 138.634 181.479 138.915 177.047 139.317C180.102 139.317 183.415 139.076 187.073 139.076C210.222 139.076 224.422 143.092 227.735 145.823C228.338 146.304 228.725 146.907 226.703 148.312C219.775 151.458 212.237 153.261 204.542 153.614C219.517 152.77 226.659 150.361 229.456 148.393C231.436 146.987 231.866 146.304 231.264 145.823Z" fill="#C47F0B"/>
<path d="M165.6 143.252C175.614 142.4 185.679 142.212 195.721 142.69C203.509 142.971 212.158 144.015 222.399 144.979C213.315 141.95 203.732 140.428 194.086 140.481C184.49 139.823 174.845 140.761 165.6 143.252Z" fill="#FFCF00"/>
<path d="M194.301 161.326C169.946 161.326 143.655 155.624 143.655 146.387C143.655 137.15 168.225 132.21 192.494 132.21C216.762 132.21 241.289 137.11 241.289 146.547C241.289 155.985 217.063 161.326 194.301 161.326ZM192.494 136.226C165.299 136.226 147.958 142.33 147.958 146.547C147.958 150.764 167.408 157.471 194.301 157.471C221.194 157.471 236.986 151.126 236.986 146.547C236.986 141.969 219.645 136.226 192.494 136.226Z" fill="#C47F0B"/>
<path d="M172.055 158.032H169.559V170.643H172.055V158.032Z" fill="#C47F0B"/>
<path d="M227.907 154.779H225.411V166.948H227.907V154.779Z" fill="#C47F0B"/>
<path d="M218.483 158.354H215.988V169.398H218.483V158.354Z" fill="#C47F0B"/>
<path d="M206.908 159.318H204.413V172.13H206.908V159.318Z" fill="#C47F0B"/>
<path d="M184.491 159.599H181.995V172.771H184.491V159.599Z" fill="#C47F0B"/>
<path d="M196.237 159.719H193.742V172.53H196.237V159.719Z" fill="#C47F0B"/>
<path d="M154.498 153.855H152.003V165.944H154.498V153.855Z" fill="#C47F0B"/>
<path d="M180.489 151.325C180.489 151.325 205.101 152.972 211.211 151.325C211.211 151.325 194 146.988 180.489 151.325Z" fill="#FFCF00"/>
<path d="M240.084 124.177H151.057C150.486 124.177 149.939 124.388 149.536 124.765C149.132 125.141 148.905 125.652 148.905 126.185V136.747C148.905 145.944 174.422 151.486 197.615 151.486C220.807 151.486 242.408 145.743 242.408 136.506V126.265C242.421 125.98 242.369 125.697 242.256 125.432C242.143 125.168 241.971 124.929 241.751 124.732C241.531 124.534 241.269 124.382 240.982 124.287C240.694 124.191 240.388 124.153 240.084 124.177Z" fill="#FFB700"/>
<path d="M165.902 135.502H163.406V147.59H165.902V135.502Z" fill="#C47F0B"/>
<path d="M196.109 153.574C176.272 153.574 146.754 149.116 146.754 136.827V125.14C146.754 123.092 148.432 120.12 151.057 120.12L240.085 121.686C241.226 121.686 242.32 122.11 243.127 122.863C243.934 123.616 244.388 124.637 244.388 125.702V136.506C244.388 147.71 220.076 153.574 196.109 153.574ZM151.444 124.176C151.224 124.459 151.09 124.792 151.057 125.14V136.827C151.057 143.574 172.098 149.558 196.109 149.558C220.119 149.558 240.085 143.574 240.085 136.506V125.702L151.444 124.176Z" fill="#C47F0B"/>
<path d="M195.549 137.308C220.121 137.308 240.041 131.914 240.041 125.26C240.041 118.606 220.121 113.212 195.549 113.212C170.977 113.212 151.057 118.606 151.057 125.26C151.057 131.914 170.977 137.308 195.549 137.308Z" fill="#FFCF00"/>
<path d="M195.549 137.308C220.121 137.308 240.041 131.914 240.041 125.26C240.041 118.606 220.121 113.212 195.549 113.212C170.977 113.212 151.057 118.606 151.057 125.26C151.057 131.914 170.977 137.308 195.549 137.308Z" fill="url(#paint6_linear_140:21350)"/>
<path d="M195.936 132.49C173.174 132.49 162.933 128.473 159.017 126.265C156.736 124.939 157.683 124.096 158.458 123.534C162.072 121.004 172.829 117.229 195.549 117.229C218.268 117.229 231.048 121.727 234.275 124.377C234.878 124.859 234.275 125.542 232.425 126.947C229.026 129.357 219 132.49 195.936 132.49Z" fill="#FBBB00"/>
<path d="M234.362 124.378C231.048 121.727 218.699 117.229 195.635 117.229C190.477 117.2 185.32 117.428 180.188 117.912C183.243 117.912 186.513 117.631 190.171 117.631C213.32 117.631 227.563 121.647 230.876 124.378C231.479 124.859 231.823 125.502 229.8 126.908C222.858 130.053 215.306 131.856 207.597 132.209C222.529 131.365 229.671 128.956 232.511 126.988C234.534 125.542 234.964 124.859 234.362 124.378Z" fill="#C47F0B"/>
<path d="M168.656 121.808C178.669 120.955 188.734 120.768 198.776 121.246C206.564 121.567 215.213 122.611 225.454 123.575C216.393 120.513 206.821 118.977 197.184 119.037C187.574 118.401 177.919 119.339 168.656 121.808Z" fill="#FFCF00"/>
<path d="M197.357 139.92C173.002 139.92 146.754 134.177 146.754 124.94C146.754 115.703 171.281 110.603 195.549 110.603C219.818 110.603 244.388 115.542 244.388 124.94C244.388 134.337 220.162 139.92 197.357 139.92ZM195.549 114.619C168.398 114.619 151.057 120.763 151.057 124.94C151.057 129.117 170.506 135.904 197.357 135.904C224.207 135.904 240.085 129.518 240.085 124.94C240.085 120.362 222.744 114.619 195.549 114.619Z" fill="#C47F0B"/>
<path d="M175.11 136.626H172.614V149.236H175.11V136.626Z" fill="#C47F0B"/>
<path d="M230.961 133.333H228.466V145.502H230.961V133.333Z" fill="#C47F0B"/>
<path d="M221.538 136.947H219.043V147.991H221.538V136.947Z" fill="#C47F0B"/>
<path d="M210.007 137.871H207.511V150.682H210.007V137.871Z" fill="#C47F0B"/>
<path d="M187.589 138.153H185.093V151.326H187.589V138.153Z" fill="#C47F0B"/>
<path d="M199.336 138.273H196.84V151.085H199.336V138.273Z" fill="#C47F0B"/>
<path d="M157.555 132.41H155.059V144.499H157.555V132.41Z" fill="#C47F0B"/>
<path d="M183.587 129.92C183.587 129.92 208.2 131.526 214.31 129.92C214.31 129.92 197.098 125.583 183.587 129.92Z" fill="#FFCF00"/>
<defs>
<filter id="filter0_d_140:21350" x="0.934814" y="0" width="402.566" height="346" filterUnits="userSpaceOnUse" color-interpolation-filters="sRGB">
<feFlood flood-opacity="0" result="BackgroundImageFix"/>
<feColorMatrix in="SourceAlpha" type="matrix" values="0 0 0 0 0 0 0 0 0 0 0 0 0 0 0 0 0 0 127 0" result="hardAlpha"/>
<feOffset/>
<feGaussianBlur stdDeviation="17"/>
<feComposite in2="hardAlpha" operator="out"/>
<feColorMatrix type="matrix" values="0 0 0 0 1 0 0 0 0 1 0 0 0 0 1 0 0 0 1 0"/>
<feBlend mode="normal" in2="BackgroundImageFix" result="effect1_dropShadow_140:21350"/>
<feBlend mode="normal" in="SourceGraphic" in2="effect1_dropShadow_140:21350" result="shape"/>
</filter>
<filter id="filter1_d_140:21350" x="0.934814" y="0" width="402.566" height="340" filterUnits="userSpaceOnUse" color-interpolation-filters="sRGB">
<feFlood flood-opacity="0" result="BackgroundImageFix"/>
<feColorMatrix in="SourceAlpha" type="matrix" values="0 0 0 0 0 0 0 0 0 0 0 0 0 0 0 0 0 0 127 0" result="hardAlpha"/>
<feOffset/>
<feGaussianBlur stdDeviation="17"/>
<feComposite in2="hardAlpha" operator="out"/>
<feColorMatrix type="matrix" values="0 0 0 0 1 0 0 0 0 0 0 0 0 0 0.9 0 0 0 0.85 0"/>
<feBlend mode="normal" in2="BackgroundImageFix" result="effect1_dropShadow_140:21350"/>
<feBlend mode="normal" in="SourceGraphic" in2="effect1_dropShadow_140:21350" result="shape"/>
</filter>
<filter id="filter2_d_140:21350" x="52.9783" y="363.749" width="274.51" height="148.117" filterUnits="userSpaceOnUse" color-interpolation-filters="sRGB">
<feFlood flood-opacity="0" result="BackgroundImageFix"/>
<feColorMatrix in="SourceAlpha" type="matrix" values="0 0 0 0 0 0 0 0 0 0 0 0 0 0 0 0 0 0 127 0" result="hardAlpha"/>
<feOffset dy="35"/>
<feGaussianBlur stdDeviation="12.5"/>
<feComposite in2="hardAlpha" operator="out"/>
<feColorMatrix type="matrix" values="0 0 0 0 0 0 0 0 0 0 0 0 0 0 0 0 0 0 0.2 0"/>
<feBlend mode="normal" in2="BackgroundImageFix" result="effect1_dropShadow_140:21350"/>
<feBlend mode="normal" in="SourceGraphic" in2="effect1_dropShadow_140:21350" result="shape"/>
</filter>
<filter id="filter3_d_140:21350" x="129.026" y="96.7109" width="130.225" height="133.104" filterUnits="userSpaceOnUse" color-interpolation-filters="sRGB">
<feFlood flood-opacity="0" result="BackgroundImageFix"/>
<feColorMatrix in="SourceAlpha" type="matrix" values="0 0 0 0 0 0 0 0 0 0 0 0 0 0 0 0 0 0 127 0" result="hardAlpha"/>
<feOffset/>
<feGaussianBlur stdDeviation="3"/>
<feComposite in2="hardAlpha" operator="out"/>
<feColorMatrix type="matrix" values="0 0 0 0 1 0 0 0 0 0 0 0 0 0 0.9 0 0 0 1 0"/>
<feBlend mode="normal" in2="BackgroundImageFix" result="effect1_dropShadow_140:21350"/>
<feBlend mode="normal" in="SourceGraphic" in2="effect1_dropShadow_140:21350" result="shape"/>
</filter>
<linearGradient id="paint0_linear_140:21350" x1="202.25" y1="37" x2="202.25" y2="303" gradientUnits="userSpaceOnUse">
<stop stop-color="#050EA3"/>
<stop offset="1" stop-color="#00033A"/>
</linearGradient>
<linearGradient id="paint1_linear_140:21350" x1="317.875" y1="307" x2="147.875" y2="37" gradientUnits="userSpaceOnUse">
<stop stop-color="white"/>
<stop offset="1" stop-color="white" stop-opacity="0"/>
</linearGradient>
<linearGradient id="paint2_linear_140:21350" x1="91.8296" y1="347.919" x2="298.668" y2="443.952" gradientUnits="userSpaceOnUse">
<stop stop-color="#FFE600"/>
<stop offset="0.546374" stop-color="#FFC700"/>
<stop offset="0.9994" stop-color="#FFC700"/>
</linearGradient>
<linearGradient id="paint3_linear_140:21350" x1="216.16" y1="162.811" x2="153.373" y2="249.58" gradientUnits="userSpaceOnUse">
<stop stop-color="#FBBB00" stop-opacity="0.4"/>
<stop offset="1" stop-color="#C47F0B"/>
</linearGradient>
<linearGradient id="paint4_linear_140:21350" x1="2419.37" y1="536.065" x2="2259.87" y2="1295.79" gradientUnits="userSpaceOnUse">
<stop stop-color="#FBBB00" stop-opacity="0.4"/>
<stop offset="1" stop-color="#C47F0B"/>
</linearGradient>
<linearGradient id="paint5_linear_140:21350" x1="2389.52" y1="385.703" x2="2230.07" y2="1145.55" gradientUnits="userSpaceOnUse">
<stop stop-color="#FBBB00" stop-opacity="0.4"/>
<stop offset="1" stop-color="#C47F0B"/>
</linearGradient>
<linearGradient id="paint6_linear_140:21350" x1="2455.76" y1="235.863" x2="2296.26" y2="995.585" gradientUnits="userSpaceOnUse">
<stop stop-color="#FBBB00" stop-opacity="0.4"/>
<stop offset="1" stop-color="#C47F0B"/>
</linearGradient>
</defs>
</svg>
