<svg width="279" height="97" viewBox="0 0 279 97" fill="none" xmlns="http://www.w3.org/2000/svg">
<g filter="url(#filter0_d_131:5198)">
<path d="M25.5488 26.981C26.3879 22.1978 30.5422 18.709 35.3983 18.709H241L231 75.709H28.9071C22.6932 75.709 17.9838 70.1015 19.0575 63.981L25.5488 26.981Z" fill="#040035" fill-opacity="0.8" shape-rendering="crispEdges"/>
<path d="M242.97 19.0546L243.381 16.709H241H35.3983C29.5709 16.709 24.5858 20.8956 23.5789 26.6354L17.0876 63.6354C15.7991 70.9799 21.4504 77.709 28.9071 77.709H231H232.68L232.97 76.0546L242.97 19.0546Z" stroke="#FF00E5" stroke-width="4" shape-rendering="crispEdges"/>
</g>
<g clip-path="url(#clip0_131:5198)">
<path d="M264.096 43.1564C264.096 42.6745 264.096 42.1684 263.976 41.6865C263.834 40.0604 263.56 38.4486 263.156 36.8672C263.036 36.3612 262.891 35.8793 262.747 35.3973C262.104 33.2915 261.248 31.2569 260.192 29.3251L259.325 27.7347C258.062 25.7094 256.584 23.8269 254.915 22.1202C254.433 21.6142 253.903 21.1082 253.373 20.6504C252.064 19.4613 250.653 18.3889 249.156 17.4455C241.75 12.9172 233.077 10.9054 224.433 11.7106C219.694 11.9635 215.057 13.1895 210.812 15.312C206.567 17.4345 202.805 20.4082 199.759 24.0479C194.862 29.8605 192.182 37.2189 192.192 44.819C192.284 53.4837 195.743 61.7729 201.836 67.9337C207.929 74.0946 216.18 77.6439 224.843 77.8311C231.926 78.1297 238.987 76.8541 245.518 74.0961C246.475 73.664 247.401 73.1648 248.289 72.6022C249.79 71.7276 251.209 70.7195 252.53 69.5901C253.084 69.1323 253.638 68.6504 254.168 68.1202C255.227 67.1346 256.203 66.0626 257.084 64.9154C257.482 64.4476 257.852 63.9568 258.192 63.4455C258.981 62.3864 259.697 61.2754 260.337 60.1202C260.602 59.6383 260.843 59.1564 261.084 58.6504C261.976 56.7707 262.686 54.8099 263.204 52.7949C263.204 52.2889 263.445 51.807 263.542 51.301C263.759 50.2648 263.903 49.2046 264.024 48.0961C264.024 47.6142 264.024 47.1323 264.144 46.6263C264.265 46.1202 264.144 45.4214 264.144 44.819C264.144 44.2166 264.12 43.7106 264.096 43.1564Z" fill="url(#paint0_linear_131:5198)"/>
<g filter="url(#filter1_d_131:5198)">
<path d="M226.891 84.6509C225.807 84.6509 225.036 84.6509 224.482 84.6509C215.689 84.4468 207.213 81.3277 200.385 75.7834C196.263 72.5332 192.834 68.4884 190.303 63.8889C187.772 59.2894 186.19 54.2286 185.651 49.0064C185.112 43.7843 185.626 38.507 187.164 33.4873C188.701 28.4676 191.231 23.8076 194.602 19.7834C198.228 15.424 202.715 11.8598 207.782 9.31401C212.848 6.76822 218.386 5.29557 224.048 4.98824C234.112 4.11876 244.188 6.52781 252.771 11.8557C254.597 12.9825 256.322 14.2643 257.928 15.687C258.568 16.2408 259.18 16.8279 259.759 17.4461C261.807 19.5198 263.617 21.815 265.156 24.2894C265.542 24.916 265.903 25.5184 266.217 26.1208C267.482 28.4193 268.507 30.8416 269.277 33.3497C269.47 33.9762 269.638 34.5786 269.783 35.2051C270.282 37.1173 270.62 39.0679 270.795 41.0364C270.795 41.4702 270.795 42.1208 270.94 42.7955C270.94 43.4461 270.94 44.0967 270.94 44.7473C270.94 45.3979 270.94 46.2413 270.94 46.9641C270.916 47.6092 270.86 48.2526 270.771 48.8919C270.573 50.1739 270.307 51.4448 269.976 52.6991C269.976 53.2051 269.735 53.8075 269.59 54.434C268.993 56.8479 268.178 59.2029 267.156 61.4702C266.867 62.0967 266.554 62.7232 266.217 63.3256C265.501 64.7177 264.697 66.0619 263.807 67.3497C263.446 67.8798 262.964 68.5304 262.458 69.1569C261.373 70.5275 260.189 71.8161 258.915 73.0123C258.29 73.6429 257.631 74.2382 256.94 74.7955C255.301 76.1125 253.561 77.297 251.735 78.3376C250.576 79.0566 249.369 79.6927 248.12 80.2413C241.395 83.0689 234.186 84.5664 226.891 84.6509V84.6509ZM227.903 18.3617C226.843 18.3617 225.807 18.3617 224.819 18.3617C220.987 18.5596 217.239 19.553 213.812 21.2788C210.385 23.0046 207.356 25.425 204.915 28.3858C201.043 32.9867 198.919 38.8062 198.915 44.8196C199.006 51.7015 201.756 58.2815 206.589 63.1818C211.422 68.0821 217.963 70.9226 224.843 71.1087H225.422C231.417 71.2722 237.379 70.1635 242.915 67.8557C243.569 67.547 244.205 67.201 244.819 66.8196C246.016 66.1118 247.153 65.3059 248.217 64.4099C248.699 64.0003 249.108 63.6388 249.494 63.2533C250.317 62.5098 251.083 61.7043 251.783 60.8437L251.976 60.6268L252.65 59.687C253.287 58.8228 253.859 57.9126 254.361 56.9641C254.541 56.6528 254.702 56.3309 254.843 56.0003L254.964 55.7834C255.665 54.298 256.221 52.7487 256.626 51.1569C256.626 50.8437 256.795 50.4581 256.867 50.0967C257.049 49.2288 257.186 48.3521 257.277 47.4702C257.277 46.9882 257.277 46.675 257.277 46.3376C257.277 46.0003 257.277 45.3497 257.277 44.8678C257.277 44.3858 257.277 43.9762 257.277 43.5425C257.302 43.2217 257.302 42.8994 257.277 42.5786C257.154 41.2221 256.929 39.8769 256.602 38.5545C256.482 38.0967 256.385 37.7352 256.265 37.3497C255.763 35.6796 255.093 34.0649 254.265 32.5304C254 32.0726 253.783 31.687 253.542 31.3256C252.554 29.737 251.399 28.2587 250.096 26.916C249.711 26.5304 249.349 26.169 248.964 25.8316C247.901 24.8491 246.747 23.9697 245.518 23.2051C240.243 19.9095 234.121 18.2261 227.903 18.3617V18.3617Z" fill="url(#paint1_linear_131:5198)"/>
</g>
<path d="M264.096 43.1574C264.096 42.6754 264.096 42.1694 263.976 41.6875C263.834 40.0614 263.56 38.4496 263.156 36.8682C263.036 36.3622 262.891 35.8803 262.747 35.3983C262.104 33.2925 261.248 31.2578 260.192 29.326L259.325 27.7357C258.062 25.7104 256.584 23.8279 254.915 22.1212C254.433 21.6152 253.903 21.1092 253.373 20.6513C252.064 19.4623 250.653 18.3899 249.156 17.4465C241.75 12.9182 233.077 10.9064 224.433 11.7116C219.694 11.9645 215.057 13.1904 210.812 15.313C206.567 17.4355 202.805 20.4092 199.759 24.0489C194.862 29.8614 192.182 37.2199 192.192 44.82C192.284 53.4847 195.743 61.7739 201.836 67.9347C207.929 74.0955 216.18 77.6449 224.843 77.8321C231.926 78.1307 238.987 76.8551 245.518 74.0971C246.475 73.665 247.401 73.1658 248.289 72.6031C249.79 71.7286 251.209 70.7205 252.53 69.5911C253.084 69.1333 253.638 68.6513 254.168 68.1212C255.227 67.1355 256.203 66.0636 257.084 64.9164C257.482 64.4486 257.852 63.9578 258.192 63.4465C258.981 62.3873 259.697 61.2764 260.337 60.1212C260.602 59.6393 260.843 59.1574 261.084 58.6513C261.976 56.7717 262.686 54.8109 263.204 52.7959C263.204 52.2899 263.445 51.808 263.542 51.3019C263.759 50.2658 263.903 49.2056 264.024 48.0971C264.024 47.6152 264.024 47.1333 264.144 46.6272C264.265 46.1212 264.144 45.4224 264.144 44.82C264.144 44.2176 264.12 43.7116 264.096 43.1574Z" fill="white"/>
<path d="M226.771 81.5185C225.735 81.5185 225.036 81.5185 224.698 81.5185C216.536 81.3771 208.659 78.4911 202.337 73.3258C198.534 70.3325 195.371 66.606 193.036 62.3673C190.7 58.1287 189.24 53.4642 188.741 48.6504C188.242 43.8367 188.715 38.9718 190.131 34.3443C191.548 29.7168 193.88 25.4209 196.988 21.7113C200.344 17.6971 204.492 14.4184 209.173 12.08C213.854 9.74161 218.967 8.39385 224.192 8.12095C233.608 7.2794 243.043 9.51133 251.084 14.4824C252.785 15.5461 254.397 16.7469 255.903 18.0728C256.433 18.5306 257.036 19.1089 257.614 19.6872C259.431 21.5959 261.046 23.6874 262.433 25.9282C262.771 26.4824 263.084 27.0366 263.397 27.5908C264.556 29.7334 265.501 31.9853 266.216 34.3137C266.385 34.8679 266.554 35.4222 266.698 36.0005C267.124 37.767 267.414 39.5633 267.566 41.374C267.566 41.8077 267.566 42.386 267.686 42.9884C267.686 43.5908 267.686 44.1932 267.686 44.7957C267.686 45.3981 267.686 46.145 267.686 46.8197C267.686 47.4944 267.686 47.9523 267.542 48.5306C267.418 49.7041 267.233 50.8703 266.988 52.0246C266.988 52.5306 266.771 53.0848 266.626 53.639C266.049 55.9004 265.242 58.0967 264.216 60.1932C264 60.6511 263.71 61.2535 263.397 61.8077C262.709 63.0891 261.944 64.3283 261.108 65.5185C260.723 66.0487 260.289 66.6511 259.807 67.2294C258.831 68.4759 257.76 69.6441 256.602 70.7234C256.019 71.2999 255.408 71.8467 254.771 72.3619C253.305 73.6131 251.733 74.7338 250.072 75.7113C249.038 76.3512 247.959 76.915 246.843 77.3981C240.48 80.0521 233.664 81.4513 226.771 81.5185ZM227.951 15.2294C226.795 15.2294 225.686 15.2294 224.65 15.2294C220.391 15.4598 216.226 16.5676 212.415 18.4833C208.605 20.399 205.231 23.0812 202.506 26.3619C198.163 31.5321 195.783 38.0679 195.783 44.8197C195.867 52.5075 198.926 59.8638 204.317 65.3449C209.708 70.8261 217.013 74.006 224.698 74.2173H225.012C231.51 74.4249 237.978 73.2333 243.976 70.7234C244.814 70.3859 245.62 69.9746 246.385 69.4944C247.721 68.7143 248.987 67.8193 250.168 66.8197C250.698 66.386 251.156 65.9764 251.638 65.5185C252.567 64.6364 253.429 63.6859 254.216 62.6752C254.567 62.2638 254.889 61.8291 255.18 61.374C255.867 60.4169 256.494 59.4191 257.06 58.386C257.285 57.9968 257.486 57.5945 257.662 57.1812C258.5 55.467 259.17 53.6754 259.662 51.8318C259.662 51.4463 259.855 51.0125 259.927 50.5788C260.113 49.6387 260.249 48.6896 260.337 47.7354C260.337 47.2535 260.337 46.8679 260.337 46.4583C260.337 46.0487 260.337 45.3499 260.337 44.8197C260.337 44.2896 260.337 43.8318 260.337 43.3499C260.337 42.8679 260.337 42.5306 260.337 42.145C260.194 40.6592 259.944 39.1855 259.59 37.7354C259.59 37.2776 259.325 36.8438 259.204 36.4101C258.644 34.5508 257.884 32.7573 256.939 31.0607C256.674 30.5547 256.433 30.145 256.168 29.7113C255.048 27.9218 253.74 26.2576 252.265 24.7475C251.831 24.3137 251.397 23.88 250.939 23.4944C249.794 22.3898 248.552 21.3898 247.229 20.5065C241.455 16.9054 234.754 15.0711 227.951 15.2294Z" fill="white"/>
<path d="M264.144 44.8192C264.144 45.4216 264.144 46.024 264.144 46.6264C264.144 47.2289 264.144 47.6144 264.024 48.0963C264.024 49.2048 263.759 50.265 263.542 51.3011C263.542 51.8072 263.325 52.2891 263.205 52.7951C262.686 54.8101 261.976 56.7709 261.084 58.6505C260.843 59.1566 260.602 59.6385 260.337 60.1204C259.721 61.2736 259.029 62.3845 258.265 63.4457C257.925 63.957 257.554 64.4478 257.156 64.9156C256.275 66.0628 255.3 67.1347 254.241 68.1204C253.711 68.6505 253.156 69.1325 252.602 69.5903C251.259 70.7233 249.815 71.7315 248.289 72.6024C247.383 73.1475 246.45 73.6462 245.494 74.0963C241.211 76.1053 236.537 77.1421 231.807 77.1325H224.578V12.506H231.807C236.93 12.4935 241.98 13.7169 246.53 16.0722C247.423 16.515 248.292 17.0056 249.132 17.5421C250.629 18.4855 252.04 19.5578 253.349 20.7469C253.879 21.2048 254.409 21.7108 254.891 22.2168C256.563 23.8921 258.049 25.742 259.325 27.7349L260.193 29.2048C261.255 31.1673 262.111 33.2345 262.747 35.3734C262.891 35.8554 263.036 36.3373 263.156 36.8433C263.561 38.4247 263.835 40.0365 263.976 41.6626C263.976 42.1445 263.976 42.6505 264.096 43.1325C264.217 43.6144 264.144 44.265 264.144 44.8192Z" fill="#FFB200"/>
<path d="M264.097 46.626C264.097 47.132 264.097 47.6139 263.976 48.0959H254.94V46.626H264.097Z" fill="#C47F0B"/>
<path d="M263.494 51.3008C263.494 51.8068 263.278 52.2887 263.157 52.7948H252.073V51.3008H263.494Z" fill="#C47F0B"/>
<path d="M261.036 58.6504C260.795 59.1564 260.554 59.6383 260.289 60.1203H249.374V58.6504H261.036Z" fill="#C47F0B"/>
<path d="M258.217 63.4453C257.876 63.9566 257.506 64.4474 257.108 64.9152H245.879V63.4453H258.217Z" fill="#C47F0B"/>
<path d="M254.193 68.1201C253.662 68.6502 253.108 69.1322 252.554 69.59H241.952V68.1201H254.193Z" fill="#C47F0B"/>
<path d="M248.289 72.6025C247.383 73.1477 246.451 73.6463 245.494 74.0965H236.41V72.6025H248.289Z" fill="#C47F0B"/>
<path d="M264.096 43.1564H254.337V41.6865H263.976C264.048 42.1925 264.072 42.6745 264.096 43.1564Z" fill="#C47F0B"/>
<path d="M263.157 36.8429H253.229V35.373H262.868C262.892 35.855 263.036 36.3369 263.157 36.8429Z" fill="#C47F0B"/>
<path d="M260.193 29.3006H250.241V27.7344H259.325L260.193 29.3006Z" fill="#C47F0B"/>
<path d="M254.916 22.2169H243.855V20.7471H253.374C253.904 21.2049 254.434 21.7109 254.916 22.2169Z" fill="#C47F0B"/>
<path d="M249.157 17.5421H238.41V16.0723H246.555C247.448 16.515 248.317 17.0057 249.157 17.5421V17.5421Z" fill="#C47F0B"/>
<path d="M256.819 44.8191C256.819 51.2101 254.924 57.4575 251.374 62.7714C247.823 68.0853 242.776 72.227 236.872 74.6727C230.967 77.1184 224.47 77.7583 218.202 76.5115C211.934 75.2647 206.176 72.1871 201.657 67.668C197.138 63.1489 194.061 57.3913 192.814 51.1231C191.567 44.855 192.207 38.3578 194.653 32.4534C197.098 26.5489 201.24 21.5023 206.554 17.9516C211.868 14.401 218.115 12.5059 224.506 12.5059C233.074 12.5122 241.289 15.9187 247.348 21.9772C253.407 28.0358 256.813 36.2511 256.819 44.8191V44.8191Z" fill="#FFCF00"/>
<path d="M224.506 78.3378C217.873 78.3569 211.383 76.4073 205.858 72.7359C200.334 69.0645 196.022 63.8364 193.471 57.7134C190.919 51.5905 190.242 44.8481 191.524 38.3399C192.806 31.8317 195.991 25.8504 200.675 21.1531C205.358 16.4559 211.331 13.254 217.835 11.9529C224.34 10.6518 231.084 11.3099 237.214 13.8439C243.344 16.378 248.585 20.674 252.272 26.1881C255.959 31.7022 257.928 38.1864 257.928 44.8197C257.915 53.6887 254.393 62.1922 248.131 68.4726C241.868 74.7529 233.375 78.2996 224.506 78.3378ZM224.506 13.7113C218.349 13.6922 212.325 15.5004 207.197 18.9071C202.069 22.3137 198.066 27.1655 195.697 32.8481C193.328 38.5307 192.698 44.7886 193.887 50.8294C195.077 56.8701 198.032 62.4221 202.379 66.7824C206.725 71.1426 212.268 74.115 218.305 75.3232C224.342 76.5313 230.602 75.9209 236.292 73.5693C241.982 71.2176 246.846 67.2304 250.269 62.1126C253.691 56.9948 255.518 50.9765 255.518 44.8197C255.512 36.5879 252.246 28.6936 246.434 22.8637C240.622 17.0339 232.738 13.7431 224.506 13.7113V13.7113Z" fill="#C47F0B"/>
<path d="M251.326 44.8196C251.345 50.128 249.788 55.3227 246.853 59.7457C243.918 64.1688 239.736 67.6213 234.837 69.666C229.938 71.7106 224.543 72.2555 219.334 71.2316C214.125 70.2077 209.337 67.661 205.577 63.9142C201.816 60.1673 199.253 55.3887 198.21 50.1837C197.167 44.9786 197.693 39.5813 199.72 34.6751C201.747 29.7689 205.184 25.5745 209.597 22.6233C214.009 19.6721 219.198 18.0967 224.507 18.0967C231.603 18.0966 238.41 20.909 243.437 25.9178C248.464 30.9265 251.3 37.7234 251.326 44.8196V44.8196Z" fill="#FBBB00"/>
<path d="M224.506 72.8431C218.963 72.8431 213.545 71.1995 208.937 68.1202C204.328 65.0409 200.736 60.6641 198.615 55.5434C196.494 50.4226 195.939 44.7879 197.02 39.3518C198.102 33.9157 200.771 28.9222 204.69 25.003C208.609 21.0838 213.603 18.4147 219.039 17.3334C224.475 16.2521 230.11 16.8071 235.23 18.9281C240.351 21.0492 244.728 24.6411 247.807 29.2497C250.887 33.8582 252.53 39.2764 252.53 44.819C252.524 52.2495 249.569 59.3739 244.315 64.628C239.061 69.8822 231.937 72.8367 224.506 72.8431V72.8431ZM224.506 19.2046C219.44 19.2046 214.488 20.7068 210.275 23.5214C206.063 26.3359 202.78 30.3364 200.841 35.0168C198.903 39.6972 198.395 44.8474 199.384 49.8162C200.372 54.7849 202.812 59.3489 206.394 62.9312C209.976 66.5134 214.54 68.953 219.509 69.9413C224.478 70.9296 229.628 70.4224 234.308 68.4837C238.989 66.545 242.989 63.2619 245.804 59.0497C248.618 54.8374 250.12 49.8851 250.12 44.819C250.114 38.0276 247.413 31.5162 242.611 26.7139C237.809 21.9117 231.297 19.211 224.506 19.2046V19.2046Z" fill="#C47F0B"/>
<path d="M226.747 69.397C221.579 69.3958 216.521 67.9012 212.182 65.093C207.843 62.2848 204.407 58.2826 202.289 53.568C200.171 48.8534 199.461 43.6273 200.243 38.5183C201.025 33.4094 203.267 28.6353 206.699 24.7705C203.954 27.1945 201.735 30.1549 200.178 33.4693C198.621 36.7836 197.76 40.3817 197.646 44.0417C197.533 47.7018 198.17 51.3463 199.519 54.7507C200.868 58.155 202.899 61.2471 205.488 63.8364C208.078 66.4257 211.17 68.4574 214.574 69.8061C217.979 71.1549 221.623 71.7922 225.283 71.6788C228.943 71.5653 232.541 70.7036 235.856 69.1467C239.17 67.5897 242.13 65.3706 244.554 62.6259C239.654 66.9979 233.314 69.4089 226.747 69.397V69.397Z" fill="#C47F0B"/>
<path d="M225.277 59.3493C222.52 59.4187 219.796 58.7356 217.398 57.3734C215.213 56.0511 213.456 54.1268 212.338 51.8312C211.111 49.2857 210.5 46.4875 210.555 43.6625C210.5 40.8375 211.111 38.0393 212.338 35.4939C213.448 33.1928 215.207 31.2664 217.398 29.9517C219.79 28.5707 222.517 27.8785 225.277 27.9517C228.476 27.8247 231.624 28.7751 234.217 30.6505C236.629 32.5364 238.218 35.2822 238.651 38.3131H232.458C232.148 36.7721 231.293 35.3946 230.049 34.4336C228.64 33.4485 226.946 32.9571 225.229 33.036C223.988 32.9733 222.749 33.1972 221.608 33.6902C220.468 34.1833 219.456 34.9324 218.651 35.8794C216.941 38.1195 216.086 40.8966 216.241 43.7107C216.081 46.518 216.937 49.2892 218.651 51.518C219.456 52.465 220.468 53.214 221.608 53.7071C222.749 54.2002 223.988 54.424 225.229 54.3613C226.935 54.4389 228.622 53.975 230.049 53.036C231.278 52.1562 232.137 50.8508 232.458 49.3734H238.651C238.18 52.2479 236.628 54.8339 234.314 56.6023C231.694 58.5037 228.512 59.471 225.277 59.3493V59.3493Z" fill="#C47F0B"/>
<path d="M226.843 79.1082C225.59 79.1082 224.843 79.1082 224.747 79.1082C217.125 78.9849 209.77 76.284 203.879 71.4455C200.324 68.6548 197.366 65.1781 195.18 61.2219C192.995 57.2658 191.627 52.9107 191.157 48.4155C190.687 43.9202 191.125 39.3764 192.446 35.0539C193.766 30.7313 195.942 26.7182 198.843 23.2527C201.997 19.4795 205.895 16.3977 210.294 14.2002C214.693 12.0026 219.499 10.7367 224.41 10.4816C233.31 9.71041 242.223 11.8224 249.831 16.5057C251.379 17.4854 252.838 18.5981 254.193 19.831C254.747 20.2889 255.277 20.819 255.807 21.3491C257.522 23.1334 259.041 25.0965 260.337 27.2045C260.626 27.7106 260.94 28.2166 261.229 28.7467C262.334 30.7173 263.223 32.8018 263.879 34.9636C264.048 35.4696 264.193 35.9997 264.313 36.5057C264.741 38.1729 265.023 39.8741 265.157 41.5901C265.223 42.0936 265.264 42.6004 265.277 43.1082C265.277 43.6865 265.277 44.2407 265.277 44.819C265.277 45.3973 265.277 46.072 265.277 46.6985C265.277 47.325 265.277 47.7347 265.132 48.2648C265.038 49.3753 264.869 50.4782 264.626 51.566C264.626 52.072 264.434 52.578 264.289 53.0841C263.76 55.1412 263.034 57.1424 262.12 59.06C261.904 59.566 261.614 60.0961 261.349 60.6021C260.703 61.7922 259.987 62.9429 259.205 64.0479C258.842 64.5848 258.448 65.0997 258.024 65.5901C257.126 66.7754 256.126 67.88 255.036 68.8913C254.482 69.4455 253.903 69.9515 253.325 70.4335C251.947 71.5935 250.471 72.6335 248.916 73.5419C247.954 74.1837 246.938 74.7401 245.879 75.2045C239.843 77.7158 233.38 79.0411 226.843 79.1082V79.1082ZM228 12.819C226.771 12.819 225.59 12.819 224.506 12.819C219.929 13.0604 215.451 14.242 211.351 16.29C207.251 18.3379 203.617 21.2085 200.675 24.7226C195.992 30.3341 193.433 37.4141 193.446 44.7226C193.537 53.0678 196.869 61.0507 202.736 66.9856C208.604 72.9205 216.548 76.3428 224.891 76.5298C231.818 76.8097 238.72 75.5591 245.108 72.8672C246.013 72.4675 246.89 72.0087 247.735 71.4937C249.157 70.6716 250.51 69.7369 251.783 68.6985C252.313 68.2648 252.843 67.7829 253.373 67.2768C254.38 66.3192 255.314 65.2883 256.169 64.1925C256.547 63.7458 256.9 63.2793 257.229 62.7949C257.963 61.7621 258.631 60.6836 259.229 59.566C259.47 59.1322 259.711 58.6503 259.928 58.1925C260.796 56.3688 261.482 54.464 261.976 52.5057C262.106 52.046 262.21 51.5794 262.289 51.1082C262.507 50.0745 262.66 49.0283 262.747 47.9756C262.747 47.4937 262.747 47.0359 262.867 46.578C262.988 46.1202 262.867 45.3973 262.867 44.819C262.867 44.2407 262.867 43.7588 262.867 43.2286C262.867 42.6985 262.867 42.2889 262.867 41.831C262.73 40.2521 262.455 38.6881 262.048 37.1563C262.048 36.6503 261.807 36.1925 261.663 35.7106C261.059 33.6901 260.252 31.7363 259.253 29.8792C258.988 29.3973 258.699 28.9154 258.41 28.4576C257.198 26.5151 255.784 24.7059 254.193 23.06C253.711 22.578 253.229 22.0961 252.699 21.6624C251.442 20.5001 250.079 19.4593 248.626 18.5539C242.466 14.6521 235.29 12.657 228 12.819V12.819Z" fill="#C47F0B"/>
<path d="M209.879 25.6144C209.879 25.6144 216.771 21.3734 228.723 23.012C234.679 24.1071 240.151 27.0196 244.385 31.3493C242.993 28.5428 240.958 26.1046 238.446 24.2329C235.934 22.3613 233.015 21.1091 229.928 20.5783C218.94 18.8192 211.47 23.3012 209.879 25.6144Z" fill="#FFCF00"/>
<path d="M227.349 67.1085C227.349 67.1085 245.59 67.1085 245.952 51.9037C245.879 51.8314 242.554 62.2892 227.349 67.1085Z" fill="#FFCF00"/>
</g>
<defs>
<filter id="filter0_d_131:5198" x="0.90332" y="0.708984" width="258.859" height="93" filterUnits="userSpaceOnUse" color-interpolation-filters="sRGB">
<feFlood flood-opacity="0" result="BackgroundImageFix"/>
<feColorMatrix in="SourceAlpha" type="matrix" values="0 0 0 0 0 0 0 0 0 0 0 0 0 0 0 0 0 0 127 0" result="hardAlpha"/>
<feOffset/>
<feGaussianBlur stdDeviation="7"/>
<feComposite in2="hardAlpha" operator="out"/>
<feColorMatrix type="matrix" values="0 0 0 0 1 0 0 0 0 0 0 0 0 0 0.9 0 0 0 1 0"/>
<feBlend mode="normal" in2="BackgroundImageFix" result="effect1_dropShadow_131:5198"/>
<feBlend mode="normal" in="SourceGraphic" in2="effect1_dropShadow_131:5198" result="shape"/>
</filter>
<filter id="filter1_d_131:5198" x="179.443" y="-1.18555" width="97.4961" height="91.8369" filterUnits="userSpaceOnUse" color-interpolation-filters="sRGB">
<feFlood flood-opacity="0" result="BackgroundImageFix"/>
<feColorMatrix in="SourceAlpha" type="matrix" values="0 0 0 0 0 0 0 0 0 0 0 0 0 0 0 0 0 0 127 0" result="hardAlpha"/>
<feOffset/>
<feGaussianBlur stdDeviation="3"/>
<feComposite in2="hardAlpha" operator="out"/>
<feColorMatrix type="matrix" values="0 0 0 0 1 0 0 0 0 0 0 0 0 0 0.9 0 0 0 1 0"/>
<feBlend mode="normal" in2="BackgroundImageFix" result="effect1_dropShadow_131:5198"/>
<feBlend mode="normal" in="SourceGraphic" in2="effect1_dropShadow_131:5198" result="shape"/>
</filter>
<linearGradient id="paint0_linear_131:5198" x1="192.192" y1="44.7467" x2="264.144" y2="44.7467" gradientUnits="userSpaceOnUse">
<stop stop-color="#160052"/>
<stop offset="0.99" stop-color="#230D33"/>
</linearGradient>
<linearGradient id="paint1_linear_131:5198" x1="520.589" y1="1686.17" x2="3552.28" y2="1686.17" gradientUnits="userSpaceOnUse">
<stop stop-color="#160052"/>
<stop offset="0.99" stop-color="#230D33"/>
</linearGradient>
<clipPath id="clip0_131:5198">
<rect width="102" height="97" fill="white" transform="translate(177)"/>
</clipPath>
</defs>
</svg>
