<svg width="389" height="340" viewBox="0 0 389 340" fill="none" xmlns="http://www.w3.org/2000/svg">
<g filter="url(#filter0_d_141:22537)">
<g filter="url(#filter1_d_141:22537)">
<path d="M58.8782 45.5584C59.5941 40.6443 63.8078 37 68.7738 37H341.498C347.617 37 352.301 42.4461 351.385 48.4961L314.162 294.496C313.422 299.386 309.219 303 304.274 303H32.9373C26.8407 303 22.1629 297.591 23.0418 291.558L58.8782 45.5584Z" fill="url(#paint0_linear_141:22537)"/>
<path d="M58.8782 45.5584C59.5941 40.6443 63.8078 37 68.7738 37H341.498C347.617 37 352.301 42.4461 351.385 48.4961L314.162 294.496C313.422 299.386 309.219 303 304.274 303H32.9373C26.8407 303 22.1629 297.591 23.0418 291.558L58.8782 45.5584Z" stroke="#FF00E5" stroke-width="6"/>
</g>
<path d="M59.5538 40.9208C59.8818 38.6695 61.8121 37 64.0872 37H341.498C347.617 37 352.301 42.4461 351.385 48.4961L313.514 298.775C313.147 301.204 311.059 303 308.602 303H286.22C146.572 303 39.4228 179.111 59.5538 40.9208Z" fill="url(#paint1_linear_141:22537)" fill-opacity="0.1"/>
</g>
<path d="M215.672 194.46H213.915C211.549 194.191 209.254 193.438 207.159 192.241L206.72 191.955L188.817 179.501C188.431 179.216 187.97 179.066 187.499 179.071H186.959L163.009 184.797C161.181 185.247 159.312 185.476 157.435 185.477C153.413 185.658 149.45 184.397 146.187 181.898C146.017 181.799 145.858 181.678 145.714 181.541C144.222 180.126 143.139 178.294 142.589 176.254C142.039 174.215 142.045 172.053 142.606 170.017L149.733 143.607C149.784 143.501 149.81 143.385 149.81 143.267C149.81 143.149 149.784 143.032 149.733 142.927L133.08 121.669C131.705 119.918 130.866 117.764 130.673 115.496C130.48 113.227 130.942 110.949 131.999 108.965C132.971 107.237 134.344 105.8 135.988 104.792C137.631 103.784 139.491 103.237 141.39 103.203L166.387 102.237C166.642 102.231 166.892 102.159 167.116 102.028C167.339 101.897 167.529 101.711 167.671 101.486L181.183 78.6896C181.823 77.6292 182.635 76.6965 183.581 75.934C186.454 73.5099 190.044 72.242 193.715 72.3554C194.412 72.3008 195.112 72.3008 195.809 72.3554C198.808 72.6274 201.671 73.7985 204.063 75.7314C206.456 77.6644 208.28 80.2793 209.321 83.2703L219.759 109.824L245.804 116.981C248.044 117.601 250.027 118.991 251.439 120.935C252.852 122.878 253.614 125.264 253.607 127.717C253.598 129.367 253.272 130.998 252.651 132.512C252.03 134.025 251.125 135.389 249.992 136.521L249.553 137.022L229.488 153.663C229.215 153.903 228.995 154.204 228.843 154.544C228.691 154.884 228.612 155.255 228.61 155.631L229.522 181.219C229.524 183.39 228.988 185.524 227.969 187.408C226.95 189.292 225.482 190.859 223.712 191.955C221.316 193.593 218.524 194.463 215.672 194.46Z" fill="white"/>
<g filter="url(#filter2_d_141:22537)">
<path d="M194.12 74.1094H196.045C198.754 74.3234 201.346 75.3583 203.515 77.0906C205.683 78.8229 207.335 81.1795 208.274 83.8792L219.083 111.328L245.905 118.664C247.729 119.218 249.335 120.381 250.485 121.98C251.636 123.579 252.268 125.529 252.289 127.539C252.274 128.949 251.992 130.341 251.458 131.632C250.924 132.923 250.15 134.087 249.181 135.054L248.742 135.519L228.846 152.017C228.329 152.433 227.918 152.977 227.647 153.601C227.376 154.225 227.254 154.91 227.292 155.596L227.9 181.219C227.893 183.089 227.424 184.925 226.542 186.544C225.659 188.164 224.392 189.511 222.867 190.452C220.737 191.888 218.263 192.646 215.739 192.635C215.222 192.671 214.703 192.671 214.185 192.635C212.039 192.396 209.96 191.702 208.071 190.595L207.632 190.309L189.762 177.855C189.09 177.388 188.303 177.139 187.499 177.139C187.196 177.104 186.89 177.104 186.587 177.139L162.637 183.008C160.935 183.449 159.187 183.665 157.435 183.653C153.816 183.82 150.248 182.699 147.301 180.468L146.828 180.11C145.587 178.924 144.684 177.393 144.225 175.691C143.765 173.989 143.765 172.185 144.227 170.483L151.354 144.072C151.441 143.689 151.444 143.289 151.362 142.905C151.28 142.52 151.115 142.16 150.882 141.854L134.397 120.382C133.23 118.904 132.517 117.084 132.354 115.165C132.191 113.246 132.585 111.32 133.485 109.646C134.332 108.218 135.509 107.042 136.903 106.228C138.298 105.414 139.865 104.989 141.457 104.993L166.42 104.027C166.951 104.005 167.469 103.851 167.932 103.578C168.396 103.304 168.792 102.919 169.089 102.452L182.77 79.6563C183.316 78.7644 184.001 77.9778 184.797 77.3302C187.446 75.1195 190.75 73.978 194.12 74.1094ZM194.12 70.5307C189.96 70.3916 185.889 71.8251 182.635 74.5746C181.56 75.4661 180.635 76.5429 179.899 77.7597L166.387 100.52L141.491 101.415C139.304 101.459 137.165 102.098 135.278 103.27C133.391 104.441 131.82 106.107 130.715 108.107C129.487 110.396 128.949 113.028 129.172 115.65C129.396 118.273 130.37 120.76 131.965 122.779L148.112 143.571L140.984 169.481C140.338 171.827 140.332 174.318 140.965 176.667C141.599 179.016 142.847 181.128 144.565 182.758L145.206 183.295C148.761 186.001 153.06 187.385 157.435 187.231C159.447 187.235 161.453 186.995 163.414 186.515L187.364 180.754C187.507 180.705 187.66 180.705 187.803 180.754L205.706 193.208L206.314 193.601C208.592 194.894 211.079 195.719 213.645 196.035H215.57C218.721 196.106 221.826 195.225 224.522 193.494C226.559 192.248 228.254 190.46 229.439 188.307C230.624 186.154 231.258 183.711 231.278 181.219L230.737 155.703C230.74 155.601 230.763 155.501 230.804 155.409C230.844 155.317 230.902 155.234 230.974 155.166L250.87 138.669L251.343 138.203C252.727 136.844 253.826 135.193 254.571 133.356C255.316 131.52 255.689 129.538 255.667 127.539C255.622 124.723 254.71 122 253.07 119.785C251.429 117.569 249.151 115.981 246.58 115.264L221.38 108.393L211.246 82.6624C210.077 79.3529 208.042 76.4646 205.38 74.3352C202.718 72.2059 199.539 70.9235 196.214 70.6381C195.449 70.5847 194.682 70.5847 193.917 70.6381L194.12 70.5307Z" fill="#1F093D"/>
</g>
<path d="M203.173 83.4133L214.929 114.762C215.101 115.29 215.395 115.762 215.785 116.138C216.174 116.513 216.647 116.778 217.158 116.91L245.77 124.747C246.328 124.947 246.828 125.298 247.219 125.765C247.609 126.233 247.878 126.8 247.997 127.412C248.117 128.023 248.083 128.657 247.9 129.251C247.717 129.844 247.39 130.377 246.952 130.795L223.678 150.084C223.274 150.439 222.954 150.89 222.742 151.399C222.531 151.908 222.435 152.463 222.462 153.018L223.07 183.043C223.239 185.906 218.847 190.738 211.821 186.801L191.08 171.842C190.647 171.522 190.145 171.322 189.62 171.26C189.095 171.197 188.563 171.274 188.074 171.484L160.34 178.642C154.969 180.002 147.943 178.642 148.923 175.063L167.975 146.792C168.108 146.25 168.119 145.683 168.007 145.136C167.896 144.589 167.665 144.078 167.333 143.642L148.551 119.45C148.204 118.941 147.99 118.344 147.93 117.719C147.87 117.094 147.966 116.463 148.209 115.89C148.452 115.317 148.834 114.821 149.315 114.454C149.796 114.086 150.36 113.86 150.95 113.796L180.608 112.687C181.136 112.655 181.649 112.493 182.107 112.214C182.564 111.934 182.954 111.544 183.243 111.076L190.269 80.7651C191.587 78.3316 200.876 77.4369 203.173 83.4133Z" fill="#DD890E"/>
<path d="M216.482 190.166C214.404 190.086 212.375 189.472 210.571 188.377L189.593 174.062C189.289 173.811 188.918 173.74 187.837 174.062L160.813 180.575C156.59 181.649 150.679 181.148 148.28 178.535C147.815 178.06 147.488 177.454 147.339 176.788C147.189 176.122 147.223 175.424 147.436 174.778L147.571 174.062L166.387 146.077C166.42 145.854 166.407 145.627 166.349 145.411C166.291 145.194 166.188 144.994 166.049 144.824L147.233 120.597C146.648 119.839 146.274 118.924 146.153 117.954C146.032 116.984 146.168 115.998 146.547 115.106C146.926 114.213 147.533 113.451 148.299 112.903C149.064 112.356 149.959 112.046 150.882 112.008L180.405 110.898C180.826 110.87 181.223 110.679 181.52 110.362L186.553 79.9786C187.69 78.6779 189.121 77.7059 190.711 77.1548C192.301 76.6037 193.998 76.4917 195.64 76.8294C197.63 76.9767 199.537 77.7308 201.131 79.0008C202.726 80.2708 203.939 82.0024 204.625 83.9868L216.482 114.191C216.482 114.405 216.921 114.763 217.867 115.05L246.479 122.851C247.329 123.092 248.097 123.583 248.695 124.267C249.293 124.951 249.695 125.8 249.857 126.716C250.076 127.705 250.034 128.739 249.736 129.704C249.438 130.67 248.896 131.53 248.168 132.191L224.893 151.516C224.697 151.681 224.541 151.894 224.441 152.138C224.341 152.381 224.299 152.647 224.319 152.912L224.927 183.009C224.876 184.176 224.538 185.309 223.945 186.295C223.352 187.281 222.526 188.085 221.549 188.627C220.035 189.646 218.276 190.18 216.482 190.166ZM188.85 170.09C189.773 170.06 190.682 170.335 191.451 170.877L212.294 185.406C213.389 186.16 214.659 186.579 215.964 186.617C217.269 186.655 218.559 186.31 219.691 185.621C220.127 185.367 220.505 185.013 220.797 184.587C221.089 184.16 221.288 183.67 221.38 183.152L220.772 153.055C220.732 152.22 220.883 151.386 221.213 150.626C221.542 149.866 222.04 149.201 222.664 148.689L245.938 129.4C246.211 129.154 246.417 128.835 246.536 128.477C246.655 128.118 246.682 127.733 246.614 127.36C246.571 127.09 246.456 126.839 246.283 126.636C246.109 126.433 245.884 126.287 245.634 126.215L217.023 118.378C216.217 118.255 215.454 117.914 214.809 117.387C214.164 116.86 213.658 116.166 213.341 115.372L201.45 85.1319C200.959 83.79 200.11 82.6287 199.006 81.7898C197.902 80.9509 196.592 80.4707 195.235 80.4081C193.262 80.0564 191.236 80.5035 189.56 81.6606L184.526 112.044C184.099 112.762 183.512 113.359 182.818 113.783C182.123 114.207 181.341 114.445 180.54 114.477L150.983 115.586C150.694 115.595 150.414 115.69 150.175 115.861C149.935 116.033 149.747 116.272 149.632 116.553C149.505 116.835 149.456 117.15 149.492 117.461C149.528 117.771 149.647 118.065 149.834 118.306L168.65 142.462C169.16 143.115 169.513 143.889 169.677 144.718C169.842 145.548 169.814 146.407 169.596 147.222L169.325 147.759L150.611 175.637C152.013 176.498 153.566 177.048 155.175 177.251C156.784 177.454 158.415 177.307 159.968 176.817L186.992 170.269C187.605 170.147 188.227 170.087 188.85 170.09Z" fill="#C47F0B"/>
<path d="M193.343 81.9831L203.477 111.4C203.662 111.923 203.96 112.392 204.347 112.772C204.734 113.151 205.199 113.428 205.706 113.583L234.351 121.384C234.917 121.581 235.423 121.932 235.819 122.402C236.215 122.873 236.487 123.446 236.607 124.063C236.727 124.68 236.691 125.321 236.503 125.918C236.314 126.516 235.98 127.051 235.534 127.468L212.259 146.757C211.849 147.109 211.522 147.557 211.305 148.067C211.088 148.577 210.987 149.133 211.009 149.692L212.834 180.933C212.83 181.56 212.671 182.174 212.373 182.715C212.075 183.256 211.649 183.705 211.136 184.016C210.623 184.328 210.042 184.491 209.45 184.49C208.859 184.49 208.279 184.324 207.767 184.011L183.242 166.511C182.799 166.214 182.297 166.03 181.775 165.974C181.253 165.918 180.726 165.992 180.236 166.189L152.739 177.641C152.176 177.83 151.576 177.859 151 177.725C150.423 177.592 149.889 177.301 149.452 176.881C149.014 176.461 148.689 175.927 148.507 175.332C148.325 174.737 148.293 174.102 148.415 173.49L156.522 143.393C156.66 142.854 156.676 142.289 156.571 141.742C156.465 141.195 156.24 140.682 155.914 140.244L137.099 116.088C136.76 115.579 136.553 114.985 136.498 114.365C136.442 113.745 136.541 113.12 136.783 112.553C137.025 111.985 137.403 111.494 137.879 111.129C138.355 110.764 138.913 110.536 139.497 110.469L169.021 109.324C169.545 109.297 170.057 109.14 170.514 108.867C170.971 108.593 171.362 108.211 171.656 107.75L187.532 81.3389C187.881 80.8328 188.349 80.4326 188.89 80.1782C189.43 79.9239 190.024 79.8243 190.612 79.8896C191.201 79.9548 191.762 80.1825 192.242 80.5499C192.721 80.9173 193.1 81.4115 193.343 81.9831Z" fill="#FBBB00"/>
<path d="M193.343 81.9831L203.477 111.4C203.662 111.923 203.96 112.392 204.347 112.772C204.734 113.151 205.199 113.428 205.706 113.583L234.351 121.384C234.917 121.581 235.423 121.932 235.819 122.402C236.215 122.873 236.487 123.446 236.607 124.063C236.727 124.68 236.691 125.321 236.503 125.918C236.314 126.516 235.98 127.051 235.534 127.468L212.259 146.757C211.849 147.109 211.522 147.557 211.305 148.067C211.088 148.577 210.987 149.133 211.009 149.692L212.834 180.933C212.83 181.56 212.671 182.174 212.373 182.715C212.075 183.256 211.649 183.705 211.136 184.016C210.623 184.328 210.042 184.491 209.45 184.49C208.859 184.49 208.279 184.324 207.767 184.011L183.242 166.511C182.799 166.214 182.297 166.03 181.775 165.974C181.253 165.918 180.726 165.992 180.236 166.189L152.739 177.641C152.176 177.83 151.576 177.859 151 177.725C150.423 177.592 149.889 177.301 149.452 176.881C149.014 176.461 148.689 175.927 148.507 175.332C148.325 174.737 148.293 174.102 148.415 173.49L156.522 143.393C156.66 142.854 156.676 142.289 156.571 141.742C156.465 141.195 156.24 140.682 155.914 140.244L137.099 116.088C136.76 115.579 136.553 114.985 136.498 114.365C136.442 113.745 136.541 113.12 136.783 112.553C137.025 111.985 137.403 111.494 137.879 111.129C138.355 110.764 138.913 110.536 139.497 110.469L169.021 109.324C169.545 109.297 170.057 109.14 170.514 108.867C170.971 108.593 171.362 108.211 171.656 107.75L187.532 81.3389C187.881 80.8328 188.349 80.4326 188.89 80.1782C189.43 79.9239 190.024 79.8243 190.612 79.8896C191.201 79.9548 191.762 80.1825 192.242 80.5499C192.721 80.9173 193.1 81.4115 193.343 81.9831Z" fill="url(#paint2_radial_141:22537)"/>
<path d="M140.68 111.328L209.929 184.548L212.834 183.724L212.463 172.452L153.821 110.397L140.68 111.328Z" fill="#FFCF00"/>
<path d="M168.751 110.683L210.74 153.985L211.145 148.581L214.591 142.605L174.291 103.383L168.751 110.683Z" fill="#FFCF00"/>
<path d="M153.077 157.85L149.226 174.061C149.137 174.651 149.199 175.255 149.406 175.811C149.613 176.367 149.957 176.853 150.403 177.219C150.849 177.585 151.379 177.818 151.939 177.892C152.499 177.966 153.067 177.879 153.584 177.64L169.798 170.482L154.901 169.158L153.077 157.85Z" fill="#FFCF00"/>
<path d="M188.073 81.446L183.073 90.178L189.829 87.4224L199.355 101.451L192.025 81.8039C191.87 81.402 191.613 81.0533 191.282 80.7962C190.952 80.5391 190.561 80.3835 190.152 80.3465C189.744 80.3095 189.333 80.3925 188.967 80.5865C188.6 80.7805 188.291 81.0779 188.073 81.446Z" fill="#FFCF00"/>
<path d="M209.591 186.408C208.6 186.402 207.634 186.078 206.821 185.478L182.297 168.014C182.075 167.882 181.825 167.813 181.571 167.813C181.316 167.813 181.066 167.882 180.844 168.014L153.348 179.322C152.489 179.681 151.553 179.777 150.645 179.6C149.737 179.423 148.895 178.98 148.213 178.32C147.527 177.671 147.032 176.827 146.786 175.888C146.541 174.949 146.555 173.955 146.828 173.024L154.935 142.892C155.004 142.634 155.012 142.362 154.959 142.1C154.906 141.838 154.793 141.594 154.631 141.388L135.816 117.232C135.229 116.481 134.852 115.571 134.728 114.605C134.604 113.639 134.737 112.656 135.113 111.766C135.489 110.876 136.093 110.115 136.856 109.57C137.619 109.024 138.511 108.716 139.43 108.679L168.988 107.534C169.239 107.531 169.485 107.461 169.704 107.329C169.923 107.198 170.106 107.01 170.238 106.783L186.114 80.3721C186.605 79.5425 187.307 78.8758 188.139 78.4481C188.97 78.0205 189.899 77.8492 190.818 77.9536C191.737 78.0581 192.61 78.4342 193.337 79.039C194.065 79.6438 194.617 80.453 194.931 81.3742L205.065 110.791C205.148 111.046 205.291 111.275 205.48 111.456C205.669 111.637 205.898 111.766 206.146 111.829L234.656 119.666C235.553 119.904 236.37 120.405 237.011 121.111C237.653 121.817 238.094 122.701 238.284 123.66C238.475 124.619 238.406 125.616 238.087 126.536C237.768 127.456 237.211 128.262 236.48 128.863L213.206 148.152C213.002 148.32 212.84 148.539 212.734 148.788C212.628 149.038 212.581 149.311 212.598 149.584L214.388 180.825C214.42 181.538 214.316 182.249 214.084 182.918C213.852 183.587 213.495 184.2 213.035 184.721C212.575 185.241 212.022 185.659 211.407 185.948C210.792 186.238 210.129 186.395 209.456 186.408H209.591ZM181.419 164.149C182.406 164.142 183.373 164.454 184.189 165.043L208.713 182.507C208.961 182.673 209.248 182.76 209.541 182.76C209.833 182.76 210.12 182.673 210.368 182.507C210.559 182.357 210.716 182.164 210.828 181.941C210.939 181.718 211.001 181.471 211.01 181.219L209.186 149.977C209.133 149.1 209.291 148.222 209.645 147.427C210 146.632 210.539 145.946 211.213 145.432L234.656 126.036C234.887 125.847 235.062 125.593 235.163 125.303C235.264 125.013 235.285 124.699 235.226 124.396C235.166 124.094 235.027 123.815 234.824 123.593C234.622 123.37 234.365 123.212 234.082 123.137L205.47 115.3C204.702 115.083 203.994 114.674 203.407 114.108C202.819 113.541 202.368 112.833 202.092 112.043L191.958 82.6267C191.868 82.3301 191.699 82.0674 191.471 81.8705C191.244 81.6736 190.967 81.5509 190.674 81.5173C190.377 81.4876 190.078 81.5453 189.81 81.6842C189.542 81.8232 189.315 82.0378 189.154 82.3046L173.278 108.715C172.848 109.429 172.261 110.021 171.566 110.439C170.871 110.856 170.09 111.088 169.292 111.113L139.768 112.258C139.473 112.255 139.184 112.343 138.935 112.51C138.687 112.678 138.49 112.919 138.368 113.203C138.246 113.488 138.205 113.804 138.25 114.112C138.295 114.421 138.423 114.709 138.619 114.942L157.401 139.098C157.912 139.758 158.264 140.538 158.429 141.373C158.594 142.208 158.565 143.073 158.347 143.894L150.206 174.062C150.123 174.358 150.12 174.672 150.198 174.969C150.276 175.267 150.431 175.535 150.645 175.744C150.857 175.957 151.123 176.101 151.411 176.158C151.699 176.215 151.996 176.183 152.267 176.066L179.763 164.578C180.288 164.335 180.848 164.19 181.419 164.149Z" fill="#C47F0B"/>
<path d="M211.058 147.255L210.396 150.764L221.658 153.15L222.32 149.641L211.058 147.255Z" fill="#C47F0B"/>
<path d="M213.009 180.576L212.249 184.062L221.991 186.447L222.751 182.96L213.009 180.576Z" fill="#C47F0B"/>
<path d="M141.076 264.472C138.9 264.536 136.788 264.52 134.74 264.424C132.692 264.296 130.612 264.232 128.5 264.232L128.452 264.184C128.388 263.416 128.324 262.456 128.26 261.304C128.228 260.152 128.292 259.112 128.452 258.184C128.612 258.056 128.916 257.976 129.364 257.944C129.812 257.912 130.308 257.896 130.852 257.896C131.428 257.896 132.02 257.896 132.628 257.896C133.236 257.864 133.78 257.784 134.26 257.656C134.228 256.472 134.244 255.336 134.308 254.248C134.372 253.16 134.324 252.072 134.164 250.984V250.936C133.172 250.904 132.18 250.888 131.188 250.888C130.196 250.888 129.22 250.856 128.26 250.792L128.212 250.744C127.988 249.88 127.924 248.968 128.02 248.008C128.148 247.016 128.196 246.056 128.164 245.128L128.212 245.08H128.356C129.412 244.984 130.468 244.936 131.524 244.936C132.58 244.936 133.636 244.952 134.692 244.984C135.748 244.984 136.788 244.968 137.812 244.936C138.868 244.872 139.908 244.728 140.932 244.504V244.456C140.932 243.336 140.964 242.2 141.028 241.048C141.124 239.896 141.092 238.76 140.932 237.64C140.932 237.608 140.612 237.576 139.972 237.544C139.332 237.512 138.484 237.496 137.428 237.496C136.372 237.496 135.156 237.512 133.78 237.544C132.404 237.576 130.98 237.608 129.508 237.64C128.036 237.672 126.564 237.72 125.092 237.784C123.652 237.816 122.308 237.864 121.06 237.928C120.9 240.68 120.804 243.416 120.772 246.136C120.74 248.856 120.74 251.576 120.772 254.296C120.804 257.016 120.852 259.752 120.916 262.504C120.98 265.224 121.012 267.976 121.012 270.76C124.116 271.016 127.348 271.096 130.708 271C134.1 270.872 137.428 270.824 140.692 270.856C140.948 269.896 141.092 268.872 141.124 267.784C141.156 266.664 141.14 265.592 141.076 264.568V264.472ZM162.889 254.392C162.889 252.664 162.569 251.112 161.929 249.736C161.289 248.328 160.217 247.304 158.713 246.664C157.881 246.472 156.969 246.328 155.977 246.232C154.985 246.104 153.993 246.04 153.001 246.04C152.009 246.04 151.065 246.088 150.169 246.184C149.305 246.28 148.569 246.408 147.961 246.568C146.393 246.984 145.177 247.784 144.313 248.968C143.481 250.152 143.033 251.448 142.969 252.856C142.937 254.232 143.321 255.576 144.121 256.888C144.953 258.168 146.265 259.112 148.057 259.72C148.953 260.104 149.865 260.376 150.793 260.536C151.721 260.696 152.553 260.888 153.289 261.112C154.025 261.304 154.617 261.592 155.065 261.976C155.513 262.36 155.689 262.936 155.593 263.704C155.625 264.632 155.337 265.272 154.729 265.624C154.121 265.976 153.449 266.12 152.713 266.056C151.977 265.96 151.273 265.688 150.601 265.24C149.961 264.76 149.625 264.152 149.593 263.416C148.601 263.416 147.433 263.4 146.089 263.368C144.745 263.304 143.545 263.336 142.489 263.464V263.56V263.704C142.489 264.984 142.745 266.136 143.257 267.16C143.801 268.184 144.537 269.048 145.465 269.752C146.425 270.456 147.561 270.984 148.873 271.336C150.185 271.688 151.657 271.832 153.289 271.768C155.145 271.8 156.857 271.48 158.425 270.808C159.993 270.136 161.145 269.016 161.881 267.448C162.489 265.688 162.713 264.216 162.553 263.032C162.393 261.816 161.961 260.632 161.257 259.48C160.521 258.52 159.369 257.832 157.801 257.416C156.233 256.968 154.553 256.616 152.761 256.36C152.025 256.104 151.465 255.72 151.081 255.208C150.697 254.696 150.505 254.184 150.505 253.672C150.505 253.16 150.681 252.696 151.033 252.28C151.417 251.832 151.977 251.544 152.713 251.416C153.129 251.384 153.545 251.448 153.961 251.608C154.409 251.736 154.793 251.944 155.113 252.232C155.465 252.52 155.721 252.856 155.881 253.24C156.073 253.624 156.121 254.008 156.025 254.392C157.113 254.616 158.265 254.712 159.481 254.68C160.729 254.648 161.865 254.552 162.889 254.392ZM183.778 261.784C183.426 261.688 182.978 261.64 182.434 261.64C181.89 261.608 181.314 261.608 180.706 261.64C180.098 261.672 179.522 261.704 178.978 261.736C178.434 261.736 178.002 261.72 177.682 261.688C177.586 262.104 177.442 262.584 177.25 263.128C177.09 263.64 176.85 264.008 176.53 264.232C176.146 264.488 175.634 264.664 174.994 264.76C174.354 264.824 173.73 264.792 173.122 264.664C172.514 264.504 171.986 264.216 171.538 263.8C171.122 263.384 170.946 262.808 171.01 262.072C171.074 260.952 171.106 259.88 171.106 258.856C171.106 257.832 171.17 256.824 171.298 255.832C171.394 255.32 171.538 255 171.73 254.872C172.146 254.36 172.69 254.008 173.362 253.816C174.61 253.496 175.618 253.656 176.386 254.296C177.154 254.904 177.618 255.768 177.778 256.888C178.194 256.952 178.658 257.016 179.17 257.08C179.714 257.144 180.258 257.192 180.802 257.224C181.378 257.256 181.922 257.272 182.434 257.272C182.978 257.272 183.458 257.224 183.874 257.128C183.842 256.072 183.81 255.096 183.778 254.2C183.778 253.272 183.714 252.44 183.586 251.704C183.458 250.968 183.266 250.328 183.01 249.784C182.786 249.24 182.45 248.808 182.002 248.488C181.33 247.848 180.53 247.368 179.602 247.048C178.674 246.728 177.698 246.536 176.674 246.472C176.002 246.408 175.362 246.408 174.754 246.472C174.178 246.504 173.57 246.488 172.93 246.424C172.162 246.424 171.394 246.472 170.626 246.568C169.89 246.664 169.186 246.84 168.514 247.096C167.874 247.32 167.298 247.608 166.786 247.96C166.306 248.312 165.954 248.728 165.73 249.208C165.634 249.528 165.49 249.992 165.298 250.6C165.106 251.208 164.994 251.688 164.962 252.04C164.77 253.192 164.674 254.344 164.674 255.496C164.802 256.552 164.834 257.72 164.77 259C164.738 260.28 164.754 261.56 164.818 262.84C164.882 264.088 165.074 265.288 165.394 266.44C165.714 267.592 166.306 268.552 167.17 269.32C168.29 270.44 169.666 271.144 171.298 271.432C172.194 271.432 173.186 271.464 174.274 271.528C175.362 271.624 176.418 271.624 177.442 271.528C178.466 271.464 179.41 271.272 180.274 270.952C181.17 270.632 181.89 270.088 182.434 269.32C182.658 269.096 182.834 268.744 182.962 268.264C183.122 267.752 183.25 267.16 183.346 266.488C183.442 265.784 183.522 265.032 183.586 264.232C183.65 263.432 183.714 262.616 183.778 261.784ZM198.293 268.408C198.325 268.856 198.325 269.256 198.293 269.608C198.293 269.96 198.325 270.408 198.389 270.952C198.389 271.048 198.517 271.096 198.773 271.096C199.029 271.128 199.317 271.128 199.637 271.096C199.957 271.064 200.277 271.032 200.597 271C200.917 270.936 201.141 270.904 201.269 270.904C201.653 270.872 201.973 270.856 202.229 270.856C202.485 270.824 202.725 270.808 202.949 270.808C203.173 270.808 203.413 270.824 203.669 270.856C203.925 270.856 204.245 270.872 204.629 270.904C204.757 266.68 204.773 262.6 204.677 258.664C204.613 254.728 204.581 250.792 204.581 246.856C203.813 246.92 203.173 246.936 202.661 246.904C202.149 246.872 201.685 246.856 201.269 246.856C200.853 246.824 200.437 246.824 200.021 246.856C199.637 246.888 199.173 246.984 198.629 247.144V247.336C198.469 248.392 198.389 249.448 198.389 250.504C198.421 251.56 198.453 252.632 198.485 253.72C198.549 254.776 198.597 255.848 198.629 256.936C198.661 258.024 198.645 259.112 198.581 260.2C198.517 261.064 198.293 261.72 197.909 262.168C197.525 262.584 197.093 262.872 196.613 263.032C196.133 263.16 195.637 263.192 195.125 263.128C194.645 263.032 194.277 262.92 194.021 262.792C193.989 262.76 193.957 262.744 193.925 262.744C193.893 262.744 193.861 262.728 193.829 262.696C193.573 262.504 193.365 262.232 193.205 261.88C193.077 261.528 192.965 261.128 192.869 260.68C192.805 260.232 192.757 259.784 192.725 259.336C192.693 258.856 192.661 258.424 192.629 258.04C192.565 257.176 192.517 256.248 192.485 255.256C192.485 254.264 192.485 253.272 192.485 252.28C192.517 251.288 192.533 250.328 192.533 249.4C192.533 248.472 192.501 247.64 192.437 246.904C191.317 246.904 190.309 246.904 189.413 246.904C188.549 246.872 187.557 246.936 186.437 247.096C186.501 248.184 186.517 249.448 186.485 250.888C186.453 252.328 186.421 253.832 186.389 255.4C186.357 256.936 186.325 258.472 186.293 260.008C186.293 261.512 186.309 262.904 186.341 264.184C186.405 265.464 186.517 266.568 186.677 267.496C186.869 268.392 187.125 268.984 187.445 269.272C188.117 269.848 188.869 270.248 189.701 270.472C190.533 270.696 191.381 270.792 192.245 270.76C193.141 270.728 194.005 270.568 194.837 270.28C195.669 269.992 196.421 269.608 197.093 269.128C197.253 269 197.445 268.872 197.669 268.744C197.925 268.616 198.133 268.504 198.293 268.408ZM220.67 237.784C220.638 238.424 220.606 238.92 220.574 239.272C220.574 239.592 220.558 239.896 220.526 240.184C220.526 240.44 220.51 240.728 220.478 241.048C220.478 241.336 220.478 241.768 220.478 242.344C220.478 242.888 220.478 243.624 220.478 244.552C220.478 245.48 220.494 246.696 220.526 248.2C220.462 247.912 220.11 247.656 219.47 247.432C218.83 247.208 218.046 247.064 217.118 247C216.19 246.904 215.198 246.904 214.142 247C213.118 247.064 212.174 247.256 211.31 247.576C210.606 247.832 209.998 248.28 209.486 248.92C209.006 249.528 208.606 250.28 208.286 251.176C207.998 252.04 207.774 253 207.614 254.056C207.486 255.112 207.422 256.2 207.422 257.32C207.454 258.92 207.55 260.504 207.71 262.072C207.902 263.64 208.254 265.064 208.766 266.344C209.31 267.592 210.11 268.632 211.166 269.464C212.222 270.264 213.662 270.728 215.486 270.856C216.382 270.984 217.23 270.92 218.03 270.664C218.83 270.376 219.47 269.752 219.95 268.792C220.046 268.6 220.126 268.552 220.19 268.648C220.286 268.712 220.366 268.824 220.43 268.984C220.43 269.336 220.43 269.608 220.43 269.8C220.462 269.992 220.478 270.248 220.478 270.568C220.478 270.728 220.494 270.84 220.526 270.904C221.486 271.032 222.558 271.064 223.742 271C224.926 270.968 226.014 270.952 227.006 270.952C227.134 266.344 227.118 261.432 226.958 256.216C226.798 251 226.718 245.72 226.718 240.376V237.208C226.206 237.112 225.598 237.064 224.894 237.064C224.19 237.032 223.518 237.032 222.878 237.064C222.27 237.064 221.742 237.096 221.294 237.16C220.878 237.192 220.67 237.224 220.67 237.256V237.784ZM213.23 255.88C213.39 254.76 213.854 253.912 214.622 253.336C215.422 252.76 216.478 252.472 217.79 252.472C218.462 252.472 218.99 252.536 219.374 252.664C219.79 252.76 220.094 253 220.286 253.384C220.478 253.768 220.59 254.328 220.622 255.064C220.686 255.768 220.718 256.744 220.718 257.992C220.718 259.016 220.686 259.96 220.622 260.824C220.59 261.656 220.446 262.376 220.19 262.984C219.966 263.592 219.614 264.072 219.134 264.424C218.686 264.776 218.062 264.952 217.262 264.952C216.59 264.952 215.982 264.776 215.438 264.424C214.894 264.072 214.43 263.608 214.046 263.032C213.662 262.424 213.374 261.752 213.182 261.016C212.99 260.248 212.894 259.464 212.894 258.664C212.894 258.216 212.91 257.752 212.942 257.272C212.974 256.792 213.07 256.328 213.23 255.88ZM230.793 249.112C230.697 249.464 230.553 249.944 230.361 250.552C230.169 251.128 230.057 251.592 230.025 251.944C229.929 252.552 229.865 253.144 229.833 253.72C229.801 254.264 229.785 254.824 229.785 255.4C229.881 256.456 229.897 257.624 229.833 258.904C229.801 260.184 229.817 261.464 229.881 262.744C229.945 263.992 230.137 265.192 230.457 266.344C230.777 267.496 231.369 268.456 232.233 269.224C233.353 270.344 234.729 271.048 236.361 271.336C237.257 271.336 238.249 271.368 239.337 271.432C240.425 271.528 241.481 271.528 242.505 271.432C243.529 271.368 244.473 271.176 245.337 270.856C246.233 270.536 246.953 269.992 247.497 269.224C247.817 268.904 248.057 268.312 248.217 267.448C248.409 266.584 248.553 265.608 248.649 264.52C248.777 263.432 248.857 262.296 248.889 261.112C248.953 259.928 249.001 258.872 249.033 257.944C249.001 256.888 248.969 255.864 248.937 254.872C248.905 253.848 248.825 252.92 248.697 252.088C248.569 251.224 248.377 250.472 248.121 249.832C247.865 249.192 247.513 248.728 247.065 248.44C246.393 247.8 245.593 247.32 244.665 247C243.737 246.648 242.761 246.44 241.737 246.376C241.065 246.312 240.425 246.312 239.817 246.376C239.241 246.408 238.633 246.392 237.993 246.328C237.225 246.328 236.457 246.376 235.689 246.472C234.953 246.568 234.249 246.744 233.577 247C232.937 247.224 232.361 247.512 231.849 247.864C231.369 248.216 231.017 248.632 230.793 249.112ZM236.793 254.776C237.209 254.264 237.753 253.912 238.425 253.72C239.673 253.432 240.681 253.544 241.449 254.056C242.217 254.568 242.681 255.384 242.841 256.504C243.033 257.432 243.081 258.424 242.985 259.48C242.921 260.504 242.825 261.528 242.697 262.552C242.505 263.352 242.137 263.88 241.593 264.136C241.177 264.36 240.649 264.52 240.009 264.616C239.369 264.68 238.745 264.648 238.137 264.52C237.561 264.36 237.065 264.088 236.649 263.704C236.233 263.288 236.041 262.712 236.073 261.976C236.137 260.856 236.169 259.8 236.169 258.808C236.169 257.784 236.233 256.76 236.361 255.736C236.457 255.224 236.601 254.904 236.793 254.776Z" fill="white"/>
<defs>
<filter id="filter0_d_141:22537" x="-14.0652" y="0" width="402.566" height="346" filterUnits="userSpaceOnUse" color-interpolation-filters="sRGB">
<feFlood flood-opacity="0" result="BackgroundImageFix"/>
<feColorMatrix in="SourceAlpha" type="matrix" values="0 0 0 0 0 0 0 0 0 0 0 0 0 0 0 0 0 0 127 0" result="hardAlpha"/>
<feOffset/>
<feGaussianBlur stdDeviation="17"/>
<feComposite in2="hardAlpha" operator="out"/>
<feColorMatrix type="matrix" values="0 0 0 0 1 0 0 0 0 1 0 0 0 0 1 0 0 0 1 0"/>
<feBlend mode="normal" in2="BackgroundImageFix" result="effect1_dropShadow_141:22537"/>
<feBlend mode="normal" in="SourceGraphic" in2="effect1_dropShadow_141:22537" result="shape"/>
</filter>
<filter id="filter1_d_141:22537" x="-14.0652" y="0" width="402.566" height="340" filterUnits="userSpaceOnUse" color-interpolation-filters="sRGB">
<feFlood flood-opacity="0" result="BackgroundImageFix"/>
<feColorMatrix in="SourceAlpha" type="matrix" values="0 0 0 0 0 0 0 0 0 0 0 0 0 0 0 0 0 0 127 0" result="hardAlpha"/>
<feOffset/>
<feGaussianBlur stdDeviation="17"/>
<feComposite in2="hardAlpha" operator="out"/>
<feColorMatrix type="matrix" values="0 0 0 0 1 0 0 0 0 0 0 0 0 0 0.9 0 0 0 0.85 0"/>
<feBlend mode="normal" in2="BackgroundImageFix" result="effect1_dropShadow_141:22537"/>
<feBlend mode="normal" in="SourceGraphic" in2="effect1_dropShadow_141:22537" result="shape"/>
</filter>
<filter id="filter2_d_141:22537" x="123.123" y="64.5215" width="138.545" height="137.518" filterUnits="userSpaceOnUse" color-interpolation-filters="sRGB">
<feFlood flood-opacity="0" result="BackgroundImageFix"/>
<feColorMatrix in="SourceAlpha" type="matrix" values="0 0 0 0 0 0 0 0 0 0 0 0 0 0 0 0 0 0 127 0" result="hardAlpha"/>
<feOffset/>
<feGaussianBlur stdDeviation="3"/>
<feComposite in2="hardAlpha" operator="out"/>
<feColorMatrix type="matrix" values="0 0 0 0 1 0 0 0 0 0 0 0 0 0 0.9 0 0 0 1 0"/>
<feBlend mode="normal" in2="BackgroundImageFix" result="effect1_dropShadow_141:22537"/>
<feBlend mode="normal" in="SourceGraphic" in2="effect1_dropShadow_141:22537" result="shape"/>
</filter>
<linearGradient id="paint0_linear_141:22537" x1="187.25" y1="37" x2="187.25" y2="303" gradientUnits="userSpaceOnUse">
<stop stop-color="#050EA3"/>
<stop offset="1" stop-color="#00033A"/>
</linearGradient>
<linearGradient id="paint1_linear_141:22537" x1="302.875" y1="307" x2="132.875" y2="37" gradientUnits="userSpaceOnUse">
<stop stop-color="white"/>
<stop offset="1" stop-color="white" stop-opacity="0"/>
</linearGradient>
<radialGradient id="paint2_radial_141:22537" cx="0" cy="0" r="1" gradientUnits="userSpaceOnUse" gradientTransform="translate(214.691 130.195) rotate(6.58635) scale(58.6841 62.0812)">
<stop stop-color="#F39200" stop-opacity="0.8"/>
<stop offset="1" stop-color="#F9B233" stop-opacity="0"/>
</radialGradient>
</defs>
</svg>
