<svg width="196" height="206" viewBox="0 0 196 206" fill="none" xmlns="http://www.w3.org/2000/svg">
<g filter="url(#filter0_d_140:19560)">
<circle cx="98" cy="73" r="73" fill="url(#paint0_radial_140:19560)"/>
<circle cx="98" cy="73" r="72" stroke="white" stroke-width="2"/>
</g>
<mask id="path-3-inside-1_140:19560" fill="white">
<path fill-rule="evenodd" clip-rule="evenodd" d="M130.818 50.5452C133.68 47.6833 133.68 43.0434 130.818 40.1815C127.956 37.3197 123.316 37.3197 120.455 40.1815L97.9998 62.6362L75.5455 40.1819C72.6836 37.32 68.0437 37.32 65.1818 40.1819C62.32 43.0437 62.32 47.6837 65.1818 50.5455L87.6362 72.9999L65.1818 95.4542C62.32 98.3161 62.32 102.956 65.1818 105.818C68.0437 108.68 72.6836 108.68 75.5455 105.818L97.9998 83.3635L120.455 105.818C123.316 108.68 127.956 108.68 130.818 105.818C133.68 102.956 133.68 98.3164 130.818 95.4546L108.363 72.9999L130.818 50.5452Z"/>
</mask>
<path fill-rule="evenodd" clip-rule="evenodd" d="M130.818 50.5452C133.68 47.6833 133.68 43.0434 130.818 40.1815C127.956 37.3197 123.316 37.3197 120.455 40.1815L97.9998 62.6362L75.5455 40.1819C72.6836 37.32 68.0437 37.32 65.1818 40.1819C62.32 43.0437 62.32 47.6837 65.1818 50.5455L87.6362 72.9999L65.1818 95.4542C62.32 98.3161 62.32 102.956 65.1818 105.818C68.0437 108.68 72.6836 108.68 75.5455 105.818L97.9998 83.3635L120.455 105.818C123.316 108.68 127.956 108.68 130.818 105.818C133.68 102.956 133.68 98.3164 130.818 95.4546L108.363 72.9999L130.818 50.5452Z" fill="#6F0236"/>
<path d="M130.818 40.1815L129.404 41.5957L130.818 40.1815ZM130.818 50.5452L129.404 49.131V49.131L130.818 50.5452ZM120.455 40.1815L121.869 41.5958L120.455 40.1815ZM97.9998 62.6362L96.5856 64.0505L97.9998 65.4647L99.4141 64.0505L97.9998 62.6362ZM75.5455 40.1819L76.9597 38.7677V38.7677L75.5455 40.1819ZM65.1818 40.1819L63.7676 38.7677L63.7676 38.7677L65.1818 40.1819ZM87.6362 72.9999L89.0504 74.4141L90.4646 72.9999L89.0504 71.5857L87.6362 72.9999ZM65.1818 95.4542L63.7676 94.04H63.7676L65.1818 95.4542ZM65.1818 105.818L66.5961 104.404L65.1818 105.818ZM75.5455 105.818L74.1313 104.404L75.5455 105.818ZM97.9998 83.3635L99.4141 81.9493L97.9998 80.5351L96.5856 81.9493L97.9998 83.3635ZM120.455 105.818L121.869 104.404L120.455 105.818ZM108.363 72.9999L106.949 71.5857L105.535 72.9999L106.949 74.4141L108.363 72.9999ZM129.404 41.5957C131.485 43.6765 131.485 47.0502 129.404 49.131L132.232 51.9594C135.875 48.3165 135.875 42.4102 132.232 38.7673L129.404 41.5957ZM121.869 41.5958C123.95 39.515 127.323 39.515 129.404 41.5957L132.232 38.7673C128.59 35.1244 122.683 35.1244 119.04 38.7673L121.869 41.5958ZM99.4141 64.0505L121.869 41.5958L119.04 38.7673L96.5856 61.222L99.4141 64.0505ZM74.1313 41.5961L96.5856 64.0505L99.4141 61.222L76.9597 38.7677L74.1313 41.5961ZM66.5961 41.5961C68.6768 39.5153 72.0505 39.5153 74.1313 41.5961L76.9597 38.7677C73.3168 35.1248 67.4105 35.1248 63.7676 38.7677L66.5961 41.5961ZM66.5961 49.1313C64.5153 47.0505 64.5153 43.6769 66.5961 41.5961L63.7676 38.7677C60.1247 42.4106 60.1247 48.3169 63.7676 51.9597L66.5961 49.1313ZM89.0504 71.5857L66.5961 49.1313L63.7676 51.9597L86.222 74.4141L89.0504 71.5857ZM66.5961 96.8685L89.0504 74.4141L86.222 71.5857L63.7676 94.04L66.5961 96.8685ZM66.5961 104.404C64.5153 102.323 64.5153 98.9492 66.5961 96.8685L63.7676 94.04C60.1247 97.6829 60.1247 103.589 63.7676 107.232L66.5961 104.404ZM74.1313 104.404C72.0505 106.484 68.6768 106.484 66.5961 104.404L63.7676 107.232C67.4105 110.875 73.3168 110.875 76.9597 107.232L74.1313 104.404ZM96.5856 81.9493L74.1313 104.404L76.9597 107.232L99.4141 84.7777L96.5856 81.9493ZM121.869 104.404L99.4141 81.9493L96.5856 84.7777L119.04 107.232L121.869 104.404ZM129.404 104.404C127.323 106.485 123.95 106.485 121.869 104.404L119.04 107.232C122.683 110.875 128.59 110.875 132.232 107.232L129.404 104.404ZM129.404 96.8688C131.485 98.9496 131.485 102.323 129.404 104.404L132.232 107.232C135.875 103.59 135.875 97.6833 132.232 94.0404L129.404 96.8688ZM106.949 74.4141L129.404 96.8688L132.232 94.0404L109.778 71.5857L106.949 74.4141ZM129.404 49.131L106.949 71.5857L109.778 74.4141L132.232 51.9594L129.404 49.131Z" fill="white" mask="url(#path-3-inside-1_140:19560)"/>
<defs>
<filter id="filter0_d_140:19560" x="0" y="0" width="196" height="206" filterUnits="userSpaceOnUse" color-interpolation-filters="sRGB">
<feFlood flood-opacity="0" result="BackgroundImageFix"/>
<feColorMatrix in="SourceAlpha" type="matrix" values="0 0 0 0 0 0 0 0 0 0 0 0 0 0 0 0 0 0 127 0" result="hardAlpha"/>
<feOffset dy="35"/>
<feGaussianBlur stdDeviation="12.5"/>
<feComposite in2="hardAlpha" operator="out"/>
<feColorMatrix type="matrix" values="0 0 0 0 0 0 0 0 0 0 0 0 0 0 0 0 0 0 0.2 0"/>
<feBlend mode="normal" in2="BackgroundImageFix" result="effect1_dropShadow_140:19560"/>
<feBlend mode="normal" in="SourceGraphic" in2="effect1_dropShadow_140:19560" result="shape"/>
</filter>
<radialGradient id="paint0_radial_140:19560" cx="0" cy="0" r="1" gradientUnits="userSpaceOnUse" gradientTransform="translate(98 15) rotate(90) scale(131)">
<stop stop-color="#FF3939"/>
<stop offset="1" stop-color="#FA00FF"/>
<stop offset="1" stop-color="#FF0000"/>
</radialGradient>
</defs>
</svg>
