<svg width="404" height="340" viewBox="0 0 404 340" fill="none" xmlns="http://www.w3.org/2000/svg">
<g filter="url(#filter0_d_123:10149)">
<g filter="url(#filter1_d_123:10149)">
<path d="M73.8782 45.5584C74.5941 40.6443 78.8078 37 83.7738 37H356.498C362.617 37 367.301 42.4461 366.385 48.4961L329.162 294.496C328.422 299.386 324.219 303 319.274 303H47.9373C41.8407 303 37.1629 297.591 38.0418 291.558L73.8782 45.5584Z" fill="url(#paint0_linear_123:10149)"/>
<path d="M73.8782 45.5584C74.5941 40.6443 78.8078 37 83.7738 37H356.498C362.617 37 367.301 42.4461 366.385 48.4961L329.162 294.496C328.422 299.386 324.219 303 319.274 303H47.9373C41.8407 303 37.1629 297.591 38.0418 291.558L73.8782 45.5584Z" stroke="#FF00E5" stroke-width="6"/>
</g>
<path d="M74.5538 40.9208C74.8818 38.6695 76.8121 37 79.0872 37H356.498C362.617 37 367.301 42.4461 366.385 48.4961L328.514 298.775C328.147 301.204 326.059 303 323.602 303H301.22C161.572 303 54.4228 179.111 74.5538 40.9208Z" fill="url(#paint1_linear_123:10149)" fill-opacity="0.1"/>
</g>
<g clip-path="url(#clip0_123:10149)">
<g filter="url(#filter2_d_123:10149)">
<path d="M261.57 208.158H147.922C144.79 208.158 141.786 206.916 139.572 204.706C137.357 202.496 136.113 199.498 136.113 196.372V107.267C136.113 104.142 137.357 101.144 139.572 98.9333C141.786 96.723 144.79 95.4812 147.922 95.4812H161.149V92.2203C161.075 90.777 161.541 89.3577 162.458 88.2392C163.375 87.1206 164.677 86.383 166.109 86.17H171.896C173.251 86.3884 174.481 87.0902 175.357 88.1451C176.233 89.2 176.696 90.5364 176.659 91.906V95.324H232.794V92.7311C232.738 91.803 232.878 90.8736 233.205 90.003C233.532 89.1323 234.038 88.3399 234.691 87.6769C235.344 87.014 236.13 86.4953 236.996 86.1545C237.863 85.8137 238.792 85.6584 239.722 85.6986H241.218C242.158 85.6604 243.095 85.8156 243.971 86.1545C244.848 86.4934 245.645 87.0087 246.313 87.6684C246.982 88.3281 247.507 89.118 247.856 89.9889C248.205 90.8599 248.371 91.7933 248.343 92.7311V95.324H261.57C263.144 95.3509 264.696 95.6915 266.136 96.3257C267.576 96.9599 268.875 97.8749 269.955 99.0171C271.08 100.118 271.974 101.432 272.582 102.883C273.191 104.334 273.502 105.891 273.498 107.464V196.215C273.436 199.355 272.145 202.347 269.901 204.55C267.658 206.752 264.639 207.991 261.492 208.001L261.57 208.158ZM147.922 103.182C146.878 103.182 145.877 103.595 145.139 104.332C144.401 105.069 143.986 106.068 143.986 107.11V196.215C143.986 197.257 144.401 198.256 145.139 198.993C145.877 199.729 146.878 200.143 147.922 200.143H261.57C262.659 200.149 263.706 199.725 264.483 198.965C264.877 198.59 265.188 198.139 265.398 197.639C265.608 197.138 265.712 196.6 265.704 196.057V107.267C265.707 106.732 265.6 106.201 265.391 105.708C265.181 105.214 264.872 104.769 264.483 104.399C263.706 103.639 262.659 103.216 261.57 103.221L147.922 103.182Z" fill="#40D7FF"/>
</g>
<path d="M140.049 196.215C140.049 198.299 140.879 200.297 142.355 201.771C143.832 203.244 145.834 204.072 147.922 204.072H261.57C263.704 204.079 265.755 203.246 267.278 201.754C268.777 200.234 269.624 198.191 269.64 196.058V126.519H140.049V196.215Z" fill="#BD00FF"/>
<path d="M153.198 99.2531H147.923C146.868 99.2469 145.822 99.4524 144.848 99.8574C143.875 100.262 142.992 100.858 142.254 101.61C141.529 102.36 140.961 103.247 140.582 104.218C140.204 105.189 140.023 106.226 140.049 107.268V116.618H269.955V107.268C269.961 106.215 269.755 105.172 269.35 104.2C268.944 103.228 268.347 102.347 267.593 101.61C266.074 100.107 264.024 99.2607 261.885 99.2531H153.198Z" fill="#122044"/>
<path d="M139.853 116.618V122.118V126.872H269.641V122.118V116.618H139.853Z" fill="#40D7FF"/>
<path d="M170.636 89.9814H167.054C165.967 89.9814 165.085 90.8609 165.085 91.9458V107.779C165.085 108.864 165.967 109.743 167.054 109.743H170.636C171.723 109.743 172.604 108.864 172.604 107.779V91.9458C172.604 90.8609 171.723 89.9814 170.636 89.9814Z" fill="#121B3E"/>
<path d="M242.084 89.9814H239.132C237.871 89.9814 236.849 91.0016 236.849 92.2601V107.464C236.849 108.723 237.871 109.743 239.132 109.743H242.084C243.345 109.743 244.367 108.723 244.367 107.464V92.2601C244.367 91.0016 243.345 89.9814 242.084 89.9814Z" fill="#121B3E"/>
<path d="M201.735 183.328H201.46C199.884 183.302 198.383 182.652 197.287 181.521L180.557 162.545C180.557 162.545 189.493 154.688 189.414 154.688L202.09 169.067L233.582 138.658C233.582 138.658 241.652 147.184 241.77 147.144L205.829 181.521C204.753 182.633 203.284 183.281 201.735 183.328Z" fill="white"/>
<path d="M140.049 195.586V196.215C140.049 198.298 140.879 200.297 142.355 201.771C143.832 203.244 145.834 204.072 147.922 204.072H261.57C262.621 204.098 263.666 203.914 264.644 203.531C265.622 203.148 266.513 202.574 267.265 201.841C268.017 201.109 268.615 200.234 269.023 199.268C269.43 198.301 269.64 197.263 269.64 196.215V195.586H140.049Z" fill="#121D40"/>
</g>
<path d="M135.003 265.808C136.505 263.293 137.257 260.901 137.257 258.632C137.257 255.259 136.214 252.836 134.129 251.364C132.043 249.861 129.36 249.11 126.079 249.11C123.809 249.11 121.448 249.447 118.995 250.122L118.949 250.168C118.979 251.579 118.995 253.695 118.995 256.516L118.949 270.96C118.949 275.775 118.995 279.393 119.087 281.816C119.209 281.877 119.409 281.908 119.685 281.908C120.789 281.908 121.954 281.954 123.181 282.046C123.61 282.077 124.254 282.107 125.113 282.138C125.971 282.169 126.707 282.184 127.321 282.184C130.357 282.184 132.841 281.709 134.773 280.758C136.705 279.807 137.901 277.998 138.361 275.33C138.453 274.778 138.499 274.241 138.499 273.72C138.499 272.401 138.238 271.267 137.717 270.316C137.195 269.365 136.367 268.185 135.233 266.774C135.018 266.559 134.911 266.36 134.911 266.176C134.911 266.023 134.941 265.9 135.003 265.808ZM123.319 264.244C123.135 263.539 123.043 262.312 123.043 260.564V258.678L123.135 255.458L123.089 254.216C123.549 253.94 124.622 253.802 126.309 253.802C126.953 253.802 127.428 253.817 127.735 253.848C129.268 253.909 130.495 254.247 131.415 254.86C132.335 255.443 132.917 256.409 133.163 257.758C133.255 258.218 133.301 258.678 133.301 259.138C133.301 260.211 133.055 261.208 132.565 262.128C132.166 263.048 131.614 263.692 130.909 264.06C130.203 264.397 129.176 264.566 127.827 264.566C127.489 264.566 126.738 264.535 125.573 264.474L123.319 264.244ZM125.573 277.998C124.898 277.967 124.193 277.906 123.457 277.814C123.058 275.023 122.859 272.846 122.859 271.282C122.859 269.963 122.997 269.105 123.273 268.706C125.113 268.645 126.201 268.614 126.539 268.614C127.152 268.614 127.551 268.629 127.735 268.66C127.888 268.66 128.363 268.675 129.161 268.706C129.989 268.737 130.786 268.951 131.553 269.35C132.319 269.749 132.841 270.362 133.117 271.19C133.454 272.11 133.623 272.938 133.623 273.674C133.623 274.287 133.5 274.839 133.255 275.33C132.641 276.403 131.921 277.139 131.093 277.538C130.295 277.906 129.253 278.09 127.965 278.09C127.535 278.09 126.738 278.059 125.573 277.998ZM144.459 248.88C144.428 249.585 144.459 250.95 144.551 252.974C144.612 254.017 144.643 254.768 144.643 255.228C144.98 255.197 145.271 255.197 145.517 255.228C145.762 255.228 145.977 255.228 146.161 255.228C146.406 255.259 146.774 255.274 147.265 255.274C148.062 255.274 148.614 255.197 148.921 255.044L148.783 248.972C147.801 248.972 146.36 248.941 144.459 248.88ZM144.643 258.816C144.459 260.84 144.367 262.91 144.367 265.026C144.367 266.191 144.397 267.847 144.459 269.994V273.858V277.998C144.459 279.807 144.443 281.157 144.413 282.046C144.535 282.015 144.873 282 145.425 282C145.609 282 146.13 282 146.989 282C147.847 282 148.491 281.954 148.921 281.862C148.798 279.654 148.737 277.139 148.737 274.318C148.737 271.313 148.783 268.338 148.875 265.394C148.936 262.511 148.967 260.38 148.967 259V258.862C147.863 258.862 146.851 258.831 145.931 258.77C145.287 258.739 144.857 258.739 144.643 258.77V258.816ZM163.55 250.49C163.397 250.521 163.151 250.536 162.814 250.536L161.572 250.49C160.683 250.429 160.023 250.413 159.594 250.444C159.533 250.965 159.502 251.87 159.502 253.158V255.32L159.548 260.15C157.003 260.15 155.393 260.119 154.718 260.058L154.58 263.83L158.076 263.876C158.812 263.876 159.272 263.861 159.456 263.83V266.038C159.456 270.822 159.625 274.701 159.962 277.676C160.33 279.424 161.189 280.589 162.538 281.172C163.887 281.755 165.758 282.046 168.15 282.046C169.53 282.046 170.542 282.031 171.186 282C171.339 281.448 171.416 280.896 171.416 280.344C171.416 280.007 171.339 279.225 171.186 277.998C169.959 278.059 168.595 278.013 167.092 277.86C165.62 277.707 164.639 277.323 164.148 276.71C163.964 276.281 163.841 275.775 163.78 275.192C163.719 274.609 163.688 273.628 163.688 272.248V270.684V263.646C165.344 263.677 167.843 263.692 171.186 263.692C171.155 263.385 171.171 262.895 171.232 262.22L171.278 261.162C171.278 260.487 171.186 260.027 171.002 259.782C168.058 259.935 165.589 260.043 163.596 260.104L163.55 257.528V250.49ZM186.152 249.616C186.152 250.751 186.168 251.809 186.198 252.79C186.229 253.771 186.29 254.354 186.382 254.538C186.474 254.569 187.011 254.584 187.992 254.584C190.752 254.645 192.454 254.768 193.098 254.952V255.136C193.252 260.625 193.359 265.563 193.42 269.948C193.451 271.052 193.466 272.509 193.466 274.318C193.466 275.913 193.451 277.017 193.42 277.63V280.436C193.42 280.804 193.405 281.141 193.374 281.448C193.374 281.724 193.39 281.923 193.42 282.046C194.034 281.923 194.938 281.862 196.134 281.862C197.269 281.862 198.112 281.816 198.664 281.724V281.632C198.572 277.86 198.48 271.926 198.388 263.83C198.358 263.217 198.342 262.435 198.342 261.484C198.342 257.528 198.358 255.458 198.388 255.274C198.45 255.09 198.45 254.906 198.388 254.722H199.584C200.566 254.722 201.547 254.691 202.528 254.63C203.755 254.599 204.706 254.645 205.38 254.768C205.534 253.603 205.61 252.499 205.61 251.456C205.61 250.781 205.595 250.306 205.564 250.03C202.651 249.693 198.956 249.524 194.478 249.524L190.2 249.57C189.311 249.601 187.962 249.616 186.152 249.616ZM211.561 248.88C211.53 249.585 211.561 250.95 211.653 252.974C211.714 254.017 211.745 254.768 211.745 255.228C212.082 255.197 212.374 255.197 212.619 255.228C212.864 255.228 213.079 255.228 213.263 255.228C213.508 255.259 213.876 255.274 214.367 255.274C215.164 255.274 215.716 255.197 216.023 255.044L215.885 248.972C214.904 248.972 213.462 248.941 211.561 248.88ZM211.745 258.816C211.561 260.84 211.469 262.91 211.469 265.026C211.469 266.191 211.5 267.847 211.561 269.994V273.858V277.998C211.561 279.807 211.546 281.157 211.515 282.046C211.638 282.015 211.975 282 212.527 282C212.711 282 213.232 282 214.091 282C214.95 282 215.594 281.954 216.023 281.862C215.9 279.654 215.839 277.139 215.839 274.318C215.839 271.313 215.885 268.338 215.977 265.394C216.038 262.511 216.069 260.38 216.069 259V258.862C214.965 258.862 213.953 258.831 213.033 258.77C212.389 258.739 211.96 258.739 211.745 258.77V258.816ZM227.064 288.9C227.126 287.919 227.156 287.091 227.156 286.416L227.064 280.804C227.126 281.172 227.816 281.479 229.134 281.724C230.453 281.969 231.879 282.092 233.412 282.092C234.148 282.092 234.685 282.077 235.022 282.046C236.096 281.954 237.016 281.755 237.782 281.448C239.07 280.988 240.006 279.899 240.588 278.182C241.202 276.465 241.508 274.441 241.508 272.11C241.447 269.503 241.232 267.311 240.864 265.532C240.496 263.753 239.745 262.281 238.61 261.116C237.506 259.951 235.896 259.291 233.78 259.138C233.596 259.107 233.259 259.092 232.768 259.092C231.787 259.092 230.821 259.245 229.87 259.552C228.92 259.859 228.168 260.365 227.616 261.07C227.494 261.285 227.386 261.407 227.294 261.438C227.233 261.438 227.187 261.361 227.156 261.208C227.187 260.932 227.187 260.717 227.156 260.564C227.156 260.411 227.156 260.273 227.156 260.15C227.156 259.905 227.141 259.675 227.11 259.46C227.11 259.215 227.095 259.077 227.064 259.046C226.788 259.015 226.344 259 225.73 259L222.74 259.046C222.71 260.15 222.694 261.837 222.694 264.106C222.694 266.559 222.71 268.767 222.74 270.73C222.771 272.662 222.802 274.303 222.832 275.652C222.955 281.233 223.016 285.465 223.016 288.348V291.384C223.63 291.476 224.289 291.522 224.994 291.522C225.485 291.522 225.93 291.491 226.328 291.43C226.727 291.399 226.926 291.353 226.926 291.292V290.786L227.064 288.9ZM231.112 278.55C229.763 278.55 228.797 278.397 228.214 278.09C227.662 277.783 227.294 277.17 227.11 276.25C226.926 275.299 226.834 273.735 226.834 271.558C226.834 269.503 226.926 267.909 227.11 266.774C227.294 265.639 227.724 264.735 228.398 264.06C229.104 263.355 230.192 262.941 231.664 262.818C234.148 262.634 235.82 263.431 236.678 265.21C237.568 266.989 238.012 269.105 238.012 271.558C238.012 272.601 237.89 273.72 237.644 274.916C237.307 276.051 236.862 276.879 236.31 277.4C235.789 277.891 235.145 278.213 234.378 278.366C233.642 278.489 232.554 278.55 231.112 278.55ZM265.192 264.98C265.192 263.6 264.855 262.358 264.18 261.254C263.506 260.119 262.632 259.322 261.558 258.862C260.424 258.494 259.197 258.264 257.878 258.172C256.958 258.111 256.268 258.08 255.808 258.08C253.846 258.08 252.236 258.249 250.978 258.586C249.506 258.954 248.341 259.736 247.482 260.932C246.654 262.097 246.24 263.401 246.24 264.842C246.24 266.161 246.654 267.387 247.482 268.522C248.341 269.626 249.568 270.439 251.162 270.96C251.622 271.175 252.144 271.328 252.726 271.42C253.309 271.512 254.076 271.604 255.026 271.696C256.345 271.849 257.388 272.018 258.154 272.202C258.921 272.355 259.55 272.677 260.04 273.168C260.562 273.659 260.807 274.349 260.776 275.238C260.807 276.587 260.04 277.615 258.476 278.32C257.955 278.565 257.526 278.734 257.188 278.826C256.882 278.918 256.483 278.964 255.992 278.964C255.808 278.964 255.226 278.933 254.244 278.872C252.987 278.78 252.098 278.412 251.576 277.768C251.055 277.124 250.687 276.495 250.472 275.882C250.288 275.238 250.166 274.885 250.104 274.824C250.012 274.732 249.368 274.686 248.172 274.686C247.099 274.686 246.286 274.717 245.734 274.778V275.008C245.734 276.633 246.164 278.044 247.022 279.24C247.881 280.436 249.092 281.341 250.656 281.954C252.22 282.537 254.03 282.797 256.084 282.736C257.955 282.767 259.626 282.445 261.098 281.77C262.57 281.095 263.644 280.037 264.318 278.596C264.778 277.247 265.008 276.097 265.008 275.146C265.008 274.379 264.87 273.674 264.594 273.03C264.349 272.355 263.95 271.681 263.398 271.006C262.846 270.393 262.08 269.917 261.098 269.58C260.148 269.212 259.044 269.013 257.786 268.982C256.928 268.951 255.9 268.783 254.704 268.476C253.508 268.169 252.757 267.909 252.45 267.694C251.898 267.418 251.454 266.927 251.116 266.222C250.994 266.069 250.932 265.777 250.932 265.348C250.932 264.796 251.04 264.229 251.254 263.646C251.469 263.063 251.776 262.619 252.174 262.312C252.512 262.097 253.018 261.929 253.692 261.806C254.398 261.683 255.18 261.622 256.038 261.622C256.836 261.622 257.434 261.653 257.832 261.714C259.611 261.929 260.5 262.557 260.5 263.6C260.5 264.612 260.5 265.133 260.5 265.164C260.654 265.133 260.853 265.133 261.098 265.164C261.344 265.164 261.589 265.164 261.834 265.164C262.202 265.195 262.785 265.21 263.582 265.21C264.656 265.21 265.192 265.133 265.192 264.98Z" fill="white"/>
<defs>
<filter id="filter0_d_123:10149" x="0.93457" y="0" width="402.566" height="346" filterUnits="userSpaceOnUse" color-interpolation-filters="sRGB">
<feFlood flood-opacity="0" result="BackgroundImageFix"/>
<feColorMatrix in="SourceAlpha" type="matrix" values="0 0 0 0 0 0 0 0 0 0 0 0 0 0 0 0 0 0 127 0" result="hardAlpha"/>
<feOffset/>
<feGaussianBlur stdDeviation="17"/>
<feComposite in2="hardAlpha" operator="out"/>
<feColorMatrix type="matrix" values="0 0 0 0 1 0 0 0 0 1 0 0 0 0 1 0 0 0 1 0"/>
<feBlend mode="normal" in2="BackgroundImageFix" result="effect1_dropShadow_123:10149"/>
<feBlend mode="normal" in="SourceGraphic" in2="effect1_dropShadow_123:10149" result="shape"/>
</filter>
<filter id="filter1_d_123:10149" x="0.93457" y="0" width="402.566" height="340" filterUnits="userSpaceOnUse" color-interpolation-filters="sRGB">
<feFlood flood-opacity="0" result="BackgroundImageFix"/>
<feColorMatrix in="SourceAlpha" type="matrix" values="0 0 0 0 0 0 0 0 0 0 0 0 0 0 0 0 0 0 127 0" result="hardAlpha"/>
<feOffset/>
<feGaussianBlur stdDeviation="17"/>
<feComposite in2="hardAlpha" operator="out"/>
<feColorMatrix type="matrix" values="0 0 0 0 1 0 0 0 0 0 0 0 0 0 0.9 0 0 0 0.85 0"/>
<feBlend mode="normal" in2="BackgroundImageFix" result="effect1_dropShadow_123:10149"/>
<feBlend mode="normal" in="SourceGraphic" in2="effect1_dropShadow_123:10149" result="shape"/>
</filter>
<filter id="filter2_d_123:10149" x="116.113" y="65.6924" width="177.385" height="162.466" filterUnits="userSpaceOnUse" color-interpolation-filters="sRGB">
<feFlood flood-opacity="0" result="BackgroundImageFix"/>
<feColorMatrix in="SourceAlpha" type="matrix" values="0 0 0 0 0 0 0 0 0 0 0 0 0 0 0 0 0 0 127 0" result="hardAlpha"/>
<feOffset/>
<feGaussianBlur stdDeviation="10"/>
<feComposite in2="hardAlpha" operator="out"/>
<feColorMatrix type="matrix" values="0 0 0 0 0.25098 0 0 0 0 0.843137 0 0 0 0 1 0 0 0 1 0"/>
<feBlend mode="normal" in2="BackgroundImageFix" result="effect1_dropShadow_123:10149"/>
<feBlend mode="normal" in="SourceGraphic" in2="effect1_dropShadow_123:10149" result="shape"/>
</filter>
<linearGradient id="paint0_linear_123:10149" x1="202.25" y1="37" x2="202.25" y2="303" gradientUnits="userSpaceOnUse">
<stop stop-color="#050EA3"/>
<stop offset="1" stop-color="#00033A"/>
</linearGradient>
<linearGradient id="paint1_linear_123:10149" x1="317.875" y1="307" x2="147.875" y2="37" gradientUnits="userSpaceOnUse">
<stop stop-color="white"/>
<stop offset="1" stop-color="white" stop-opacity="0"/>
</linearGradient>
<clipPath id="clip0_123:10149">
<rect width="165" height="150" fill="white" transform="translate(122 79)"/>
</clipPath>
</defs>
</svg>
