<svg width="574" height="108" viewBox="0 0 574 108" fill="none" xmlns="http://www.w3.org/2000/svg">
<g filter="url(#filter0_d_141:22453)">
<path d="M50.4543 50.104C50.5503 48.52 50.5983 46.168 50.5983 43.048L50.5263 35.92C50.4303 32.656 50.3823 30.232 50.3823 28.648C50.3823 27.352 50.4303 25.408 50.5263 22.816C49.8063 22.816 48.5823 22.864 46.8543 22.96C44.5983 23.056 43.2783 23.08 42.8943 23.032C42.2703 23.8 41.5503 25.072 40.7343 26.848C39.9663 28.576 39.2463 30.256 38.5742 31.888C37.9023 33.52 37.4703 34.576 37.2783 35.056C36.0783 38.032 35.4063 39.544 35.2623 39.592C33.6783 36.712 32.3103 34 31.1583 31.456C30.0063 28.864 29.3583 27.4 29.2143 27.064C28.1583 24.712 27.5343 23.44 27.3423 23.248H27.2703C26.8383 23.296 26.1663 23.32 25.2543 23.32C25.0143 23.32 24.3423 23.32 23.2383 23.32C22.1823 23.32 21.2943 23.416 20.5743 23.608C20.4303 42.376 20.3583 54.976 20.3583 61.408C20.3583 66.112 20.3823 69.232 20.4303 70.768C20.5263 72.256 20.6703 73 20.8623 73H23.1663C25.3263 73 26.8863 72.928 27.8463 72.784C27.5103 67.84 27.3183 63.304 27.2703 59.176C27.2223 57.4 27.1983 53.848 27.1983 48.52C27.1983 43.816 27.2223 40.048 27.2703 37.216C28.6143 40.096 29.5503 42.184 30.0783 43.48C31.4703 46.6 32.5503 48.952 33.3183 50.536C34.1343 52.12 34.7583 53.056 35.1903 53.344C35.3343 53.344 35.5023 53.176 35.6943 52.84C35.8863 52.456 36.1263 51.904 36.4142 51.184C38.1423 47.248 39.1743 44.944 39.5103 44.272L42.1743 38.44C42.5583 37.624 42.8943 37 43.1823 36.568C43.2783 42.52 43.3263 48.928 43.3263 55.792C43.3263 56.56 43.3503 58.624 43.3983 61.984C43.4463 65.296 43.5663 68.944 43.7583 72.928L46.8543 72.856C48.0543 72.856 49.1823 72.928 50.2383 73.072L50.4543 50.104ZM55.2046 49.6C55.3006 50.416 55.3486 51.712 55.3486 53.488V57.232C55.3486 60.208 55.5406 62.752 55.9246 64.864C56.3566 66.976 57.2686 68.824 58.6606 70.408C60.1006 71.992 62.2366 73.024 65.0686 73.504L68.3806 73.576C70.1086 73.672 71.4046 73.72 72.2686 73.72C74.4766 73.72 76.3726 73.48 77.9566 73C79.5886 72.52 80.8606 71.632 81.7726 70.336C82.5886 69.52 83.1166 67.696 83.3566 64.864C83.6446 62.032 83.8846 58.216 84.0766 53.416C84.0766 52.984 84.0286 51.448 83.9326 48.808C83.8366 46.12 83.5486 43.984 83.0686 42.4C82.6366 40.816 81.9886 39.736 81.1246 39.16C78.9646 37.048 75.8686 35.992 71.8366 35.992L68.9566 36.064C68.3326 36.064 67.8526 36.04 67.5166 35.992C65.0206 35.992 62.7406 36.352 60.6766 37.072C58.6606 37.744 57.3406 38.776 56.7166 40.168C56.0446 42.088 55.6126 43.696 55.4206 44.992C55.2766 46.288 55.2046 47.824 55.2046 49.6ZM69.8926 42.76C73.0606 42.76 75.2206 43.72 76.3726 45.64C77.5246 47.56 78.1006 50.104 78.1006 53.272C78.1006 54.472 77.9806 56.752 77.7406 60.112C77.7406 60.832 77.6446 61.816 77.4526 63.064C77.0686 64.6 76.1806 65.704 74.7886 66.376C73.3966 67.048 71.7646 67.384 69.8926 67.384C68.8846 67.384 67.9006 67.312 66.9406 67.168C65.5006 66.88 64.3006 66.352 63.3406 65.584C62.4286 64.768 61.9006 63.4 61.7566 61.48L61.6126 58.456C61.6126 57.784 61.5646 56.848 61.4686 55.648C61.4206 54.448 61.4206 53.488 61.4686 52.768C61.4206 50.896 61.4686 49.384 61.6126 48.232C61.8046 47.032 62.2126 46.048 62.8366 45.28C64.2766 43.6 66.6286 42.76 69.8926 42.76ZM95.182 37.216C95.182 37.072 94.942 37 94.462 37C94.078 37 93.694 37.024 93.31 37.072C92.926 37.12 92.59 37.144 92.302 37.144C91.822 37.192 91.198 37.216 90.43 37.216C89.662 37.216 88.99 37.192 88.414 37.144C88.318 42.136 88.27 45.784 88.27 48.088C88.27 50.92 88.318 55.168 88.414 60.832L88.486 73.216C88.918 73.168 89.518 73.144 90.286 73.144C90.67 73.144 91.294 73.144 92.158 73.144C93.07 73.192 93.982 73.12 94.894 72.928V72.64C95.038 70.768 95.11 68.944 95.11 67.168C95.11 66.304 95.062 64.96 94.966 63.136C94.87 60.064 94.822 57.184 94.822 54.496C94.822 52.768 94.846 51.592 94.894 50.968C95.086 48.712 95.95 47.152 97.486 46.288C99.07 45.424 101.518 44.968 104.83 44.92C107.038 44.776 108.214 45.544 108.358 47.224C108.79 48.52 109.054 50.008 109.15 51.688C109.294 53.368 109.366 54.352 109.366 54.64C109.414 55.984 109.39 58.216 109.294 61.336L109.222 65.944V69.04C109.222 70.96 109.27 72.304 109.366 73.072H111.742C113.47 73.072 114.79 73 115.702 72.856C115.654 71.944 115.63 70.432 115.63 68.32C115.63 66.688 115.678 64.048 115.774 60.4C115.87 56.56 115.918 53.728 115.918 51.904C115.918 44.704 115.342 40.6 114.19 39.592C112.51 38.2 110.35 37.456 107.71 37.36C105.502 37.36 103.294 37.744 101.086 38.512C98.878 39.232 96.958 40.072 95.326 41.032V39.232C95.326 38.416 95.278 37.744 95.182 37.216ZM126.084 54.784C126.66 54.928 127.548 55 128.748 55C130.572 55.096 133.38 55.144 137.172 55.144C138.948 55.144 140.1 55.12 140.628 55.072C145.092 54.88 147.78 54.64 148.692 54.352C148.788 53.008 148.836 51.976 148.836 51.256C148.836 42.52 145.572 37.6 139.044 36.496C137.364 36.112 135.756 35.92 134.22 35.92C131.292 35.92 128.628 36.496 126.228 37.648C123.828 38.8 122.172 40.432 121.26 42.544C120.78 43.792 120.444 45.064 120.252 46.36C120.108 47.656 119.988 48.928 119.892 50.176C119.796 51.376 119.724 52.168 119.676 52.552C119.436 57.832 120.156 62.536 121.836 66.664C123.516 70.744 126.228 73.096 129.972 73.72C130.212 73.816 130.812 73.912 131.772 74.008C132.78 74.104 133.86 74.152 135.012 74.152C137.556 74.152 139.884 73.864 141.996 73.288C144.156 72.76 145.668 71.848 146.532 70.552C147.444 69.064 148.02 67.504 148.26 65.872C148.5 64.24 148.596 62.056 148.548 59.32C148.02 59.368 147.54 59.392 147.108 59.392C146.724 59.344 146.388 59.32 146.1 59.32C145.716 59.272 145.14 59.248 144.372 59.248C143.508 59.248 142.572 59.32 141.564 59.464C141.66 60.232 141.708 60.76 141.708 61.048C141.708 62.92 141.132 64.408 139.98 65.512C138.876 66.568 137.148 67.096 134.796 67.096C128.94 67.096 126.012 64.12 126.012 58.168L126.084 56.08V54.784ZM143.58 50.176C143.58 50.368 143.532 50.512 143.436 50.608C143.388 50.656 143.244 50.704 143.004 50.752C142.428 50.8 139.836 50.824 135.228 50.824C133.98 50.872 132.468 50.896 130.692 50.896C128.868 50.896 127.668 50.8 127.092 50.608C126.564 50.416 126.3 50.032 126.3 49.456C126.3 49.264 126.348 48.88 126.444 48.304C126.78 45.904 127.596 44.056 128.892 42.76C130.236 41.464 132.468 40.816 135.588 40.816C136.404 40.816 137.076 40.864 137.604 40.96C138.132 41.056 138.756 41.272 139.476 41.608C140.772 42.424 141.756 43.552 142.428 44.992C143.148 46.432 143.532 47.896 143.58 49.384V50.176ZM174.348 23.32C174.3 23.8 174.276 24.592 174.276 25.696V27.208C174.276 27.496 174.276 27.832 174.276 28.216C174.324 28.552 174.324 28.84 174.276 29.08C174.228 29.656 174.204 30.448 174.204 31.456C174.252 32.416 174.276 33.52 174.276 34.768L174.348 40.888C174.3 40.648 174.06 40.264 173.628 39.736C173.196 39.16 172.596 38.632 171.828 38.152C171.06 37.624 170.196 37.288 169.236 37.144C168.228 36.904 166.812 36.784 164.988 36.784C162.732 36.784 160.716 37.024 158.94 37.504C156.252 38.224 154.356 39.904 153.252 42.544C152.196 45.136 151.668 48.448 151.668 52.48C151.764 56.464 152.076 59.848 152.604 62.632C153.18 65.368 154.332 67.696 156.06 69.616C157.788 71.488 160.356 72.544 163.764 72.784C164.148 72.832 164.724 72.856 165.492 72.856C167.076 72.856 168.516 72.64 169.812 72.208C170.628 72.064 171.42 71.608 172.188 70.84C173.004 70.072 173.58 69.304 173.916 68.536C174.156 69.208 174.276 70.168 174.276 71.416C174.276 72.328 174.3 72.832 174.348 72.928C174.972 73.024 175.932 73.072 177.228 73.072C178.236 73.072 179.508 73.024 181.044 72.928C181.092 71.2 181.116 68.56 181.116 65.008C181.116 61.168 181.092 57.76 181.044 54.784C180.996 51.76 180.948 49.168 180.9 47.008C180.708 38.272 180.612 31.624 180.612 27.064V22.312C179.988 22.216 179.052 22.168 177.804 22.168C175.596 22.168 174.444 22.288 174.348 22.528V23.32ZM167.364 42.184C169.428 42.28 170.94 42.808 171.9 43.768C172.908 44.728 173.532 45.976 173.772 47.512C174.06 49.048 174.228 51.184 174.276 53.92C174.276 56.8 174.108 59.128 173.772 60.904C173.436 62.68 172.692 64.12 171.54 65.224C170.388 66.28 168.66 66.808 166.356 66.808C164.34 66.808 162.708 66.472 161.46 65.8C160.26 65.08 159.3 63.856 158.58 62.128C157.908 60.352 157.524 57.88 157.428 54.712C157.428 52.6 157.5 51.016 157.644 49.96C157.836 47.272 158.628 45.304 160.02 44.056C161.412 42.76 163.404 42.112 165.996 42.112L167.364 42.184ZM208.972 36.856C208.348 36.856 208.036 36.904 208.036 37C208.036 37.384 207.988 38.056 207.892 39.016C207.796 39.688 207.748 40.24 207.748 40.672C207.076 39.328 206.02 38.416 204.58 37.936C203.188 37.408 201.412 37.144 199.252 37.144L196.948 37.216C194.692 37.264 192.628 38.032 190.756 39.52C188.932 40.96 187.492 42.928 186.436 45.424C185.38 47.92 184.852 50.728 184.852 53.848C184.852 56.68 185.236 59.584 186.004 62.56C186.772 65.536 187.948 68.056 189.532 70.12C191.164 72.136 193.132 73.144 195.436 73.144C197.836 73.144 200.284 72.856 202.78 72.28C205.276 71.704 207.1 70.624 208.252 69.04C208.252 69.376 208.204 69.784 208.108 70.264C208.06 70.744 208.06 71.176 208.108 71.56C208.108 72.472 208.348 73 208.828 73.144C209.068 73.144 209.332 73.12 209.62 73.072C209.908 73.024 210.244 73 210.628 73L212.932 73.072H214.156C214.588 72.976 214.852 72.736 214.948 72.352C215.044 71.968 215.092 71.536 215.092 71.056C215.092 70.576 215.092 70.264 215.092 70.12C215.284 67.288 215.38 64.144 215.38 60.688L215.308 52.624C215.212 49.072 215.164 46.384 215.164 44.56C215.164 42.352 215.188 40.696 215.236 39.592V38.872C215.236 38.488 215.188 37.912 215.092 37.144L213.22 37C211.492 36.856 210.076 36.808 208.972 36.856ZM200.908 43.336C203.212 43.48 204.82 43.816 205.732 44.344C206.692 44.872 207.316 45.856 207.604 47.296C207.892 48.688 208.036 51.112 208.036 54.568C208.036 57.736 207.892 60.112 207.604 61.696C207.364 63.28 206.692 64.504 205.588 65.368C204.484 66.232 202.708 66.664 200.26 66.664C194.26 67 191.14 63.304 190.9 55.576C190.9 53.224 191.092 51.352 191.476 49.96C191.86 48.136 192.892 46.576 194.572 45.28C196.3 43.936 198.412 43.288 200.908 43.336ZM248.975 46.36C248.975 44.2 248.447 42.256 247.391 40.528C246.335 38.752 244.967 37.504 243.287 36.784C241.511 36.208 239.591 35.848 237.527 35.704C236.087 35.608 235.007 35.56 234.287 35.56C231.215 35.56 228.695 35.824 226.727 36.352C224.423 36.928 222.599 38.152 221.255 40.024C219.959 41.848 219.311 43.888 219.311 46.144C219.311 48.208 219.959 50.128 221.255 51.904C222.599 53.632 224.519 54.904 227.015 55.72C227.735 56.056 228.551 56.296 229.463 56.44C230.375 56.584 231.575 56.728 233.063 56.872C235.127 57.112 236.759 57.376 237.959 57.664C239.159 57.904 240.143 58.408 240.911 59.176C241.727 59.944 242.111 61.024 242.063 62.416C242.111 64.528 240.911 66.136 238.463 67.24C237.647 67.624 236.975 67.888 236.447 68.032C235.967 68.176 235.343 68.248 234.575 68.248C234.287 68.248 233.375 68.2 231.839 68.104C229.871 67.96 228.479 67.384 227.663 66.376C226.847 65.368 226.271 64.384 225.935 63.424C225.647 62.416 225.455 61.864 225.359 61.768C225.215 61.624 224.207 61.552 222.335 61.552C220.655 61.552 219.383 61.6 218.519 61.696V62.056C218.519 64.6 219.191 66.808 220.535 68.68C221.879 70.552 223.775 71.968 226.223 72.928C228.671 73.84 231.503 74.248 234.719 74.152C237.647 74.2 240.263 73.696 242.567 72.64C244.871 71.584 246.551 69.928 247.607 67.672C248.327 65.56 248.687 63.76 248.687 62.272C248.687 61.072 248.471 59.968 248.039 58.96C247.655 57.904 247.031 56.848 246.167 55.792C245.303 54.832 244.103 54.088 242.567 53.56C241.079 52.984 239.351 52.672 237.383 52.624C236.039 52.576 234.431 52.312 232.559 51.832C230.687 51.352 229.511 50.944 229.031 50.608C228.167 50.176 227.471 49.408 226.943 48.304C226.751 48.064 226.655 47.608 226.655 46.936C226.655 46.072 226.823 45.184 227.159 44.272C227.495 43.36 227.975 42.664 228.599 42.184C229.127 41.848 229.919 41.584 230.975 41.392C232.079 41.2 233.303 41.104 234.647 41.104C235.895 41.104 236.831 41.152 237.455 41.248C240.239 41.584 241.631 42.568 241.631 44.2C241.631 45.784 241.631 46.6 241.631 46.648C241.871 46.6 242.183 46.6 242.567 46.648C242.951 46.648 243.335 46.648 243.719 46.648C244.295 46.696 245.207 46.72 246.455 46.72C248.135 46.72 248.975 46.6 248.975 46.36ZM272.475 54.784C273.051 54.928 273.939 55 275.139 55C276.963 55.096 279.771 55.144 283.563 55.144C285.339 55.144 286.491 55.12 287.019 55.072C291.483 54.88 294.171 54.64 295.083 54.352C295.179 53.008 295.227 51.976 295.227 51.256C295.227 42.52 291.963 37.6 285.435 36.496C283.755 36.112 282.147 35.92 280.611 35.92C277.683 35.92 275.019 36.496 272.619 37.648C270.219 38.8 268.563 40.432 267.651 42.544C267.171 43.792 266.835 45.064 266.643 46.36C266.499 47.656 266.379 48.928 266.283 50.176C266.187 51.376 266.115 52.168 266.067 52.552C265.827 57.832 266.547 62.536 268.227 66.664C269.907 70.744 272.619 73.096 276.363 73.72C276.603 73.816 277.203 73.912 278.163 74.008C279.171 74.104 280.251 74.152 281.403 74.152C283.947 74.152 286.275 73.864 288.387 73.288C290.547 72.76 292.059 71.848 292.923 70.552C293.835 69.064 294.411 67.504 294.651 65.872C294.891 64.24 294.987 62.056 294.939 59.32C294.411 59.368 293.931 59.392 293.499 59.392C293.115 59.344 292.779 59.32 292.491 59.32C292.107 59.272 291.531 59.248 290.763 59.248C289.899 59.248 288.963 59.32 287.955 59.464C288.051 60.232 288.099 60.76 288.099 61.048C288.099 62.92 287.523 64.408 286.371 65.512C285.267 66.568 283.539 67.096 281.187 67.096C275.331 67.096 272.403 64.12 272.403 58.168L272.475 56.08V54.784ZM289.971 50.176C289.971 50.368 289.923 50.512 289.827 50.608C289.779 50.656 289.635 50.704 289.395 50.752C288.819 50.8 286.227 50.824 281.619 50.824C280.371 50.872 278.859 50.896 277.083 50.896C275.259 50.896 274.059 50.8 273.483 50.608C272.955 50.416 272.691 50.032 272.691 49.456C272.691 49.264 272.739 48.88 272.835 48.304C273.171 45.904 273.987 44.056 275.283 42.76C276.627 41.464 278.859 40.816 281.979 40.816C282.795 40.816 283.467 40.864 283.995 40.96C284.523 41.056 285.147 41.272 285.867 41.608C287.163 42.424 288.147 43.552 288.819 44.992C289.539 46.432 289.923 47.896 289.971 49.384V50.176ZM327.795 46.36C327.795 44.2 327.267 42.256 326.211 40.528C325.155 38.752 323.787 37.504 322.107 36.784C320.331 36.208 318.411 35.848 316.347 35.704C314.907 35.608 313.827 35.56 313.107 35.56C310.035 35.56 307.515 35.824 305.547 36.352C303.243 36.928 301.419 38.152 300.075 40.024C298.779 41.848 298.131 43.888 298.131 46.144C298.131 48.208 298.779 50.128 300.075 51.904C301.419 53.632 303.339 54.904 305.835 55.72C306.555 56.056 307.371 56.296 308.283 56.44C309.195 56.584 310.395 56.728 311.883 56.872C313.947 57.112 315.579 57.376 316.779 57.664C317.979 57.904 318.963 58.408 319.731 59.176C320.547 59.944 320.931 61.024 320.883 62.416C320.931 64.528 319.731 66.136 317.283 67.24C316.467 67.624 315.795 67.888 315.267 68.032C314.787 68.176 314.163 68.248 313.395 68.248C313.107 68.248 312.195 68.2 310.659 68.104C308.691 67.96 307.299 67.384 306.483 66.376C305.667 65.368 305.091 64.384 304.755 63.424C304.467 62.416 304.275 61.864 304.179 61.768C304.035 61.624 303.027 61.552 301.155 61.552C299.475 61.552 298.203 61.6 297.339 61.696V62.056C297.339 64.6 298.011 66.808 299.355 68.68C300.699 70.552 302.595 71.968 305.043 72.928C307.491 73.84 310.323 74.248 313.539 74.152C316.467 74.2 319.083 73.696 321.387 72.64C323.691 71.584 325.371 69.928 326.427 67.672C327.147 65.56 327.507 63.76 327.507 62.272C327.507 61.072 327.291 59.968 326.859 58.96C326.475 57.904 325.851 56.848 324.987 55.792C324.123 54.832 322.923 54.088 321.387 53.56C319.899 52.984 318.171 52.672 316.203 52.624C314.859 52.576 313.251 52.312 311.379 51.832C309.507 51.352 308.331 50.944 307.851 50.608C306.987 50.176 306.291 49.408 305.763 48.304C305.571 48.064 305.475 47.608 305.475 46.936C305.475 46.072 305.643 45.184 305.979 44.272C306.315 43.36 306.795 42.664 307.419 42.184C307.947 41.848 308.739 41.584 309.795 41.392C310.899 41.2 312.123 41.104 313.467 41.104C314.715 41.104 315.651 41.152 316.275 41.248C319.059 41.584 320.451 42.568 320.451 44.2C320.451 45.784 320.451 46.6 320.451 46.648C320.691 46.6 321.003 46.6 321.387 46.648C321.771 46.648 322.155 46.648 322.539 46.648C323.115 46.696 324.027 46.72 325.275 46.72C326.955 46.72 327.795 46.6 327.795 46.36ZM338.249 83.8C338.345 82.264 338.393 80.968 338.393 79.912L338.249 71.128C338.345 71.704 339.425 72.184 341.489 72.568C343.553 72.952 345.785 73.144 348.185 73.144C349.337 73.144 350.177 73.12 350.705 73.072C352.385 72.928 353.825 72.616 355.025 72.136C357.041 71.416 358.505 69.712 359.417 67.024C360.377 64.336 360.857 61.168 360.857 57.52C360.761 53.44 360.425 50.008 359.849 47.224C359.273 44.44 358.097 42.136 356.321 40.312C354.593 38.488 352.073 37.456 348.761 37.216C348.473 37.168 347.945 37.144 347.177 37.144C345.641 37.144 344.129 37.384 342.641 37.864C341.153 38.344 339.977 39.136 339.113 40.24C338.921 40.576 338.753 40.768 338.609 40.816C338.513 40.816 338.441 40.696 338.393 40.456C338.441 40.024 338.441 39.688 338.393 39.448C338.393 39.208 338.393 38.992 338.393 38.8C338.393 38.416 338.369 38.056 338.321 37.72C338.321 37.336 338.297 37.12 338.249 37.072C337.817 37.024 337.121 37 336.161 37L331.481 37.072C331.433 38.8 331.409 41.44 331.409 44.992C331.409 48.832 331.433 52.288 331.481 55.36C331.529 58.384 331.577 60.952 331.625 63.064C331.817 71.8 331.913 78.424 331.913 82.936V87.688C332.873 87.832 333.905 87.904 335.009 87.904C335.777 87.904 336.473 87.856 337.097 87.76C337.721 87.712 338.033 87.64 338.033 87.544V86.752L338.249 83.8ZM344.585 67.6C342.473 67.6 340.961 67.36 340.049 66.88C339.185 66.4 338.609 65.44 338.321 64C338.033 62.512 337.889 60.064 337.889 56.656C337.889 53.44 338.033 50.944 338.321 49.168C338.609 47.392 339.281 45.976 340.337 44.92C341.441 43.816 343.145 43.168 345.449 42.976C349.337 42.688 351.953 43.936 353.297 46.72C354.689 49.504 355.385 52.816 355.385 56.656C355.385 58.288 355.193 60.04 354.809 61.912C354.281 63.688 353.585 64.984 352.721 65.8C351.905 66.568 350.897 67.072 349.697 67.312C348.545 67.504 346.841 67.6 344.585 67.6ZM370.279 54.784C370.855 54.928 371.743 55 372.943 55C374.767 55.096 377.575 55.144 381.367 55.144C383.143 55.144 384.295 55.12 384.823 55.072C389.287 54.88 391.975 54.64 392.887 54.352C392.983 53.008 393.031 51.976 393.031 51.256C393.031 42.52 389.767 37.6 383.239 36.496C381.559 36.112 379.951 35.92 378.415 35.92C375.487 35.92 372.823 36.496 370.423 37.648C368.023 38.8 366.367 40.432 365.455 42.544C364.975 43.792 364.639 45.064 364.447 46.36C364.303 47.656 364.183 48.928 364.087 50.176C363.991 51.376 363.919 52.168 363.871 52.552C363.631 57.832 364.351 62.536 366.031 66.664C367.711 70.744 370.423 73.096 374.167 73.72C374.407 73.816 375.007 73.912 375.967 74.008C376.975 74.104 378.055 74.152 379.207 74.152C381.751 74.152 384.079 73.864 386.191 73.288C388.351 72.76 389.863 71.848 390.727 70.552C391.639 69.064 392.215 67.504 392.455 65.872C392.695 64.24 392.791 62.056 392.743 59.32C392.215 59.368 391.735 59.392 391.303 59.392C390.919 59.344 390.583 59.32 390.295 59.32C389.911 59.272 389.335 59.248 388.567 59.248C387.703 59.248 386.767 59.32 385.759 59.464C385.855 60.232 385.903 60.76 385.903 61.048C385.903 62.92 385.327 64.408 384.175 65.512C383.071 66.568 381.343 67.096 378.991 67.096C373.135 67.096 370.207 64.12 370.207 58.168L370.279 56.08V54.784ZM387.775 50.176C387.775 50.368 387.727 50.512 387.631 50.608C387.583 50.656 387.439 50.704 387.199 50.752C386.623 50.8 384.031 50.824 379.423 50.824C378.175 50.872 376.663 50.896 374.887 50.896C373.063 50.896 371.863 50.8 371.287 50.608C370.759 50.416 370.495 50.032 370.495 49.456C370.495 49.264 370.543 48.88 370.639 48.304C370.975 45.904 371.791 44.056 373.087 42.76C374.431 41.464 376.663 40.816 379.783 40.816C380.599 40.816 381.271 40.864 381.799 40.96C382.327 41.056 382.951 41.272 383.671 41.608C384.967 42.424 385.951 43.552 386.623 44.992C387.343 46.432 387.727 47.896 387.775 49.384V50.176ZM418.544 58.888C418.448 60.616 418.232 62.056 417.896 63.208C417.608 64.312 416.912 65.296 415.808 66.16C414.704 67.024 413.024 67.456 410.768 67.456C409.952 67.456 409.304 67.432 408.824 67.384C406.232 67.144 404.504 66.184 403.64 64.504C402.776 62.776 402.392 61.12 402.488 59.536V53.776C402.488 51.184 402.56 49.384 402.704 48.376C402.944 46.888 403.328 45.784 403.856 45.064C404.384 44.344 404.984 43.888 405.656 43.696C406.376 43.504 407.36 43.384 408.608 43.336C409.952 43.24 410.888 43.192 411.416 43.192C413.96 43.192 415.808 43.816 416.96 45.064C418.16 46.312 418.784 48.64 418.832 52.048C420.128 52.288 421.4 52.408 422.648 52.408C423.368 52.408 424.088 52.336 424.808 52.192L424.736 50.464C424.64 47.104 424.424 44.584 424.088 42.904C423.8 41.224 423.104 40 422 39.232C420.272 37.552 417.608 36.544 414.008 36.208C413.096 36.16 412.304 36.16 411.632 36.208C411.008 36.208 410.48 36.208 410.048 36.208C409.328 36.208 408.776 36.184 408.392 36.136C405.896 36.136 403.616 36.496 401.552 37.216C399.536 37.888 398.216 38.92 397.592 40.312C396.536 43.768 396.008 46.912 396.008 49.744C396.056 50.992 396.08 52.96 396.08 55.648C396.224 59.344 396.488 62.32 396.872 64.576C397.304 66.832 398.216 68.8 399.608 70.48C401 72.112 403.112 73.168 405.944 73.648L409.256 73.72C410.984 73.816 412.28 73.864 413.144 73.864C415.352 73.864 417.248 73.624 418.832 73.144C420.464 72.664 421.736 71.776 422.648 70.48C423.224 69.904 423.632 68.704 423.872 66.88C424.16 65.056 424.424 62.488 424.664 59.176C424.088 59.032 423.416 58.96 422.648 58.96L420.128 59.032C419.648 59.032 419.12 58.984 418.544 58.888ZM430.451 21.16C430.403 22.264 430.451 24.4 430.595 27.568C430.691 29.2 430.739 30.376 430.739 31.096C431.267 31.048 431.723 31.048 432.107 31.096C432.491 31.096 432.827 31.096 433.115 31.096C433.499 31.144 434.075 31.168 434.843 31.168C436.091 31.168 436.955 31.048 437.435 30.808L437.219 21.304C435.683 21.304 433.427 21.256 430.451 21.16ZM430.739 36.712C430.451 39.88 430.307 43.12 430.307 46.432C430.307 48.256 430.355 50.848 430.451 54.208V60.256V66.736C430.451 69.568 430.427 71.68 430.379 73.072C430.571 73.024 431.099 73 431.963 73C432.251 73 433.067 73 434.411 73C435.755 73 436.763 72.928 437.435 72.784C437.243 69.328 437.147 65.392 437.147 60.976C437.147 56.272 437.219 51.616 437.363 47.008C437.459 42.496 437.507 39.16 437.507 37V36.784C435.779 36.784 434.195 36.736 432.755 36.64C431.747 36.592 431.075 36.592 430.739 36.64V36.712ZM466.597 36.856C465.973 36.856 465.661 36.904 465.661 37C465.661 37.384 465.613 38.056 465.517 39.016C465.421 39.688 465.373 40.24 465.373 40.672C464.701 39.328 463.645 38.416 462.205 37.936C460.813 37.408 459.037 37.144 456.877 37.144L454.573 37.216C452.317 37.264 450.253 38.032 448.381 39.52C446.557 40.96 445.117 42.928 444.061 45.424C443.005 47.92 442.477 50.728 442.477 53.848C442.477 56.68 442.861 59.584 443.629 62.56C444.397 65.536 445.573 68.056 447.157 70.12C448.789 72.136 450.757 73.144 453.061 73.144C455.461 73.144 457.909 72.856 460.405 72.28C462.901 71.704 464.725 70.624 465.877 69.04C465.877 69.376 465.829 69.784 465.733 70.264C465.685 70.744 465.685 71.176 465.733 71.56C465.733 72.472 465.973 73 466.453 73.144C466.693 73.144 466.957 73.12 467.245 73.072C467.533 73.024 467.869 73 468.253 73L470.557 73.072H471.781C472.213 72.976 472.477 72.736 472.573 72.352C472.669 71.968 472.717 71.536 472.717 71.056C472.717 70.576 472.717 70.264 472.717 70.12C472.909 67.288 473.005 64.144 473.005 60.688L472.933 52.624C472.837 49.072 472.789 46.384 472.789 44.56C472.789 42.352 472.813 40.696 472.861 39.592V38.872C472.861 38.488 472.813 37.912 472.717 37.144L470.845 37C469.117 36.856 467.701 36.808 466.597 36.856ZM458.533 43.336C460.837 43.48 462.445 43.816 463.357 44.344C464.317 44.872 464.941 45.856 465.229 47.296C465.517 48.688 465.661 51.112 465.661 54.568C465.661 57.736 465.517 60.112 465.229 61.696C464.989 63.28 464.317 64.504 463.213 65.368C462.109 66.232 460.333 66.664 457.885 66.664C451.885 67 448.765 63.304 448.525 55.576C448.525 53.224 448.717 51.352 449.101 49.96C449.485 48.136 450.517 46.576 452.197 45.28C453.925 43.936 456.037 43.288 458.533 43.336ZM479.744 20.656C479.36 24.736 479.168 29.32 479.168 34.408C479.168 37.432 479.264 41.92 479.456 47.872C479.648 53.824 479.744 58.288 479.744 61.264C479.744 65.2 479.6 69.112 479.312 73C479.408 72.952 479.648 72.928 480.032 72.928C480.656 72.928 481.184 72.952 481.616 73L483.848 73.072C485.144 73.072 485.936 72.904 486.224 72.568C486.08 68.968 486.008 64.144 486.008 58.096C486.008 52.624 486.056 45.088 486.152 35.488C486.248 27.712 486.296 22.84 486.296 20.872L479.744 20.656ZM498.108 54.784C498.684 54.928 499.572 55 500.771 55C502.596 55.096 505.404 55.144 509.195 55.144C510.972 55.144 512.124 55.12 512.652 55.072C517.116 54.88 519.804 54.64 520.716 54.352C520.812 53.008 520.86 51.976 520.86 51.256C520.86 42.52 517.596 37.6 511.068 36.496C509.388 36.112 507.78 35.92 506.244 35.92C503.316 35.92 500.652 36.496 498.252 37.648C495.852 38.8 494.196 40.432 493.284 42.544C492.804 43.792 492.468 45.064 492.276 46.36C492.132 47.656 492.012 48.928 491.916 50.176C491.82 51.376 491.748 52.168 491.7 52.552C491.46 57.832 492.18 62.536 493.86 66.664C495.54 70.744 498.252 73.096 501.996 73.72C502.236 73.816 502.836 73.912 503.796 74.008C504.804 74.104 505.884 74.152 507.036 74.152C509.58 74.152 511.908 73.864 514.02 73.288C516.18 72.76 517.692 71.848 518.556 70.552C519.468 69.064 520.044 67.504 520.284 65.872C520.524 64.24 520.62 62.056 520.572 59.32C520.044 59.368 519.564 59.392 519.132 59.392C518.748 59.344 518.412 59.32 518.124 59.32C517.74 59.272 517.164 59.248 516.396 59.248C515.532 59.248 514.596 59.32 513.588 59.464C513.684 60.232 513.732 60.76 513.732 61.048C513.732 62.92 513.156 64.408 512.004 65.512C510.9 66.568 509.172 67.096 506.82 67.096C500.964 67.096 498.036 64.12 498.036 58.168L498.108 56.08V54.784ZM515.604 50.176C515.604 50.368 515.556 50.512 515.46 50.608C515.412 50.656 515.268 50.704 515.028 50.752C514.452 50.8 511.86 50.824 507.252 50.824C506.004 50.872 504.492 50.896 502.716 50.896C500.892 50.896 499.692 50.8 499.116 50.608C498.588 50.416 498.324 50.032 498.324 49.456C498.324 49.264 498.372 48.88 498.468 48.304C498.804 45.904 499.62 44.056 500.916 42.76C502.26 41.464 504.492 40.816 507.612 40.816C508.428 40.816 509.1 40.864 509.628 40.96C510.156 41.056 510.78 41.272 511.5 41.608C512.796 42.424 513.78 43.552 514.452 44.992C515.172 46.432 515.556 47.896 515.604 49.384V50.176ZM553.428 46.36C553.428 44.2 552.9 42.256 551.844 40.528C550.788 38.752 549.42 37.504 547.74 36.784C545.964 36.208 544.044 35.848 541.98 35.704C540.54 35.608 539.46 35.56 538.74 35.56C535.668 35.56 533.148 35.824 531.18 36.352C528.876 36.928 527.052 38.152 525.708 40.024C524.412 41.848 523.764 43.888 523.764 46.144C523.764 48.208 524.412 50.128 525.708 51.904C527.052 53.632 528.972 54.904 531.468 55.72C532.188 56.056 533.004 56.296 533.916 56.44C534.828 56.584 536.028 56.728 537.516 56.872C539.58 57.112 541.212 57.376 542.412 57.664C543.612 57.904 544.596 58.408 545.364 59.176C546.18 59.944 546.564 61.024 546.516 62.416C546.564 64.528 545.364 66.136 542.916 67.24C542.1 67.624 541.428 67.888 540.9 68.032C540.42 68.176 539.796 68.248 539.028 68.248C538.74 68.248 537.828 68.2 536.292 68.104C534.324 67.96 532.932 67.384 532.116 66.376C531.3 65.368 530.724 64.384 530.388 63.424C530.1 62.416 529.908 61.864 529.812 61.768C529.668 61.624 528.66 61.552 526.788 61.552C525.108 61.552 523.836 61.6 522.972 61.696V62.056C522.972 64.6 523.644 66.808 524.988 68.68C526.332 70.552 528.228 71.968 530.676 72.928C533.124 73.84 535.956 74.248 539.172 74.152C542.1 74.2 544.716 73.696 547.02 72.64C549.324 71.584 551.004 69.928 552.06 67.672C552.78 65.56 553.14 63.76 553.14 62.272C553.14 61.072 552.924 59.968 552.492 58.96C552.108 57.904 551.484 56.848 550.62 55.792C549.756 54.832 548.556 54.088 547.02 53.56C545.532 52.984 543.804 52.672 541.836 52.624C540.492 52.576 538.884 52.312 537.012 51.832C535.14 51.352 533.964 50.944 533.484 50.608C532.62 50.176 531.924 49.408 531.396 48.304C531.204 48.064 531.108 47.608 531.108 46.936C531.108 46.072 531.276 45.184 531.612 44.272C531.948 43.36 532.428 42.664 533.052 42.184C533.58 41.848 534.372 41.584 535.428 41.392C536.532 41.2 537.756 41.104 539.1 41.104C540.348 41.104 541.284 41.152 541.908 41.248C544.692 41.584 546.084 42.568 546.084 44.2C546.084 45.784 546.084 46.6 546.084 46.648C546.324 46.6 546.636 46.6 547.02 46.648C547.404 46.648 547.788 46.648 548.172 46.648C548.748 46.696 549.66 46.72 550.908 46.72C552.588 46.72 553.428 46.6 553.428 46.36Z" fill="white"/>
</g>
<defs>
<filter id="filter0_d_141:22453" x="0.358154" y="0.65625" width="573.07" height="107.248" filterUnits="userSpaceOnUse" color-interpolation-filters="sRGB">
<feFlood flood-opacity="0" result="BackgroundImageFix"/>
<feColorMatrix in="SourceAlpha" type="matrix" values="0 0 0 0 0 0 0 0 0 0 0 0 0 0 0 0 0 0 127 0" result="hardAlpha"/>
<feOffset/>
<feGaussianBlur stdDeviation="10"/>
<feComposite in2="hardAlpha" operator="out"/>
<feColorMatrix type="matrix" values="0 0 0 0 1 0 0 0 0 1 0 0 0 0 1 0 0 0 1 0"/>
<feBlend mode="normal" in2="BackgroundImageFix" result="effect1_dropShadow_141:22453"/>
<feBlend mode="normal" in="SourceGraphic" in2="effect1_dropShadow_141:22453" result="shape"/>
</filter>
</defs>
</svg>
