<svg width="1080" height="1385" viewBox="0 0 1080 1385" fill="none" xmlns="http://www.w3.org/2000/svg">
<g filter="url(#filter0_d_140:18288)">
<rect x="10" y="20" width="1060" height="1345" rx="10" fill="url(#paint0_linear_140:18288)"/>
<rect x="12" y="22" width="1056" height="1341" rx="8" stroke="#40D7FF" stroke-width="4"/>
</g>
<g filter="url(#filter1_d_140:18288)">
<path d="M63 723C71.5138 723 685.214 723 991 723" stroke="#40D7FF" stroke-width="4" stroke-linecap="round"/>
</g>
<g filter="url(#filter2_d_140:18288)">
<rect x="799" y="600" width="176.32" height="76" rx="38" fill="url(#paint1_linear_140:18288)"/>
<rect x="798" y="599" width="178.32" height="78" rx="39" stroke="white" stroke-width="2"/>
</g>
<g filter="url(#filter3_d_140:18288)">
<path d="M873.88 638.44C873.88 656.908 858.908 671.88 840.44 671.88C821.972 671.88 807 656.908 807 638.44C807 619.972 821.972 605 840.44 605C858.908 605 873.88 619.972 873.88 638.44Z" fill="url(#paint2_linear_140:18288)"/>
<path d="M872.88 638.44C872.88 656.356 858.356 670.88 840.44 670.88C822.524 670.88 808 656.356 808 638.44C808 620.524 822.524 606 840.44 606C858.356 606 872.88 620.524 872.88 638.44Z" stroke="white" stroke-width="2"/>
</g>
<g filter="url(#filter4_d_140:18288)">
<rect x="799" y="759" width="176.32" height="76" rx="38" fill="url(#paint3_linear_140:18288)"/>
<rect x="798" y="758" width="178.32" height="78" rx="39" stroke="white" stroke-width="2"/>
</g>
<g filter="url(#filter5_d_140:18288)">
<path d="M873.88 797.44C873.88 815.908 858.908 830.88 840.44 830.88C821.972 830.88 807 815.908 807 797.44C807 778.972 821.972 764 840.44 764C858.908 764 873.88 778.972 873.88 797.44Z" fill="url(#paint4_linear_140:18288)"/>
<path d="M872.88 797.44C872.88 815.356 858.356 829.88 840.44 829.88C822.524 829.88 808 815.356 808 797.44C808 779.524 822.524 765 840.44 765C858.356 765 872.88 779.524 872.88 797.44Z" stroke="white" stroke-width="2"/>
</g>
<g filter="url(#filter6_d_140:18288)">
<path d="M63 553C71.5138 553 685.214 553 991 553" stroke="#40D7FF" stroke-width="4" stroke-linecap="round"/>
</g>
<g filter="url(#filter7_d_140:18288)">
<rect x="799" y="430" width="176.32" height="76" rx="38" fill="url(#paint5_linear_140:18288)"/>
<rect x="798" y="429" width="178.32" height="78" rx="39" stroke="white" stroke-width="2"/>
</g>
<g filter="url(#filter8_d_140:18288)">
<path d="M969.28 468.44C969.28 486.908 954.309 501.88 935.84 501.88C917.372 501.88 902.4 486.908 902.4 468.44C902.4 449.972 917.372 435 935.84 435C954.309 435 969.28 449.972 969.28 468.44Z" fill="url(#paint6_linear_140:18288)"/>
<path d="M968.28 468.44C968.28 486.356 953.757 500.88 935.84 500.88C917.924 500.88 903.4 486.356 903.4 468.44C903.4 450.524 917.924 436 935.84 436C953.757 436 968.28 450.524 968.28 468.44Z" stroke="white" stroke-width="2"/>
</g>
<g filter="url(#filter9_d_140:18288)">
<path d="M28 905C28 899.477 32.4772 895 38 895H1019C1024.52 895 1029 899.477 1029 905V1005H28V905Z" fill="#FA00FF"/>
</g>
<g filter="url(#filter10_d_140:18288)">
<path d="M28 274C28 268.477 32.4772 264 38 264H1019C1024.52 264 1029 268.477 1029 274V374H28V274Z" fill="#FA00FF"/>
</g>
<path d="M462.434 323.944C462.338 323.992 462.29 324.016 462.29 324.016C462.242 324.016 462.218 324.04 462.218 324.088V324.16C462.314 325.024 462.362 325.744 462.362 326.32C462.362 326.896 462.338 327.472 462.29 328.048C462.29 328.576 462.29 329.128 462.29 329.704C462.338 330.28 462.41 330.952 462.506 331.72C462.746 331.816 463.082 331.888 463.514 331.936C463.994 331.936 464.498 331.936 465.026 331.936C465.602 331.888 466.13 331.864 466.61 331.864C467.138 331.816 467.546 331.816 467.834 331.864C467.978 331.912 468.05 332.128 468.05 332.512C468.098 332.896 468.098 333.328 468.05 333.808C468.05 334.288 468.002 334.768 467.906 335.248C467.858 335.68 467.81 335.992 467.762 336.184C467.57 336.856 467.282 337.408 466.898 337.84C466.514 338.224 466.058 338.536 465.53 338.776C464.858 339.016 464.114 339.208 463.298 339.352C462.53 339.496 461.786 339.52 461.066 339.424C460.394 339.28 459.842 339.064 459.41 338.776C458.498 338.056 457.898 337.072 457.61 335.824C457.322 334.576 457.13 333.424 457.034 332.368C456.89 330.592 456.794 328.72 456.746 326.752C456.698 324.784 456.722 322.888 456.818 321.064C456.914 319.192 457.058 317.44 457.25 315.808C457.49 314.176 457.778 312.784 458.114 311.632C458.21 311.248 458.33 310.864 458.474 310.48C458.666 310.048 458.81 309.784 458.906 309.688C459.482 309.112 460.154 308.824 460.922 308.824C461.69 308.824 462.482 308.848 463.298 308.896C464.018 308.896 464.642 309.136 465.17 309.616C465.698 310.048 466.154 310.576 466.538 311.2C466.97 311.776 467.306 312.424 467.546 313.144C467.834 313.816 468.05 314.392 468.194 314.872C468.914 314.968 469.538 315.04 470.066 315.088C470.594 315.136 471.098 315.16 471.578 315.16C472.106 315.16 472.61 315.16 473.09 315.16C473.618 315.112 474.242 315.088 474.962 315.088C475.73 315.04 476.282 315.016 476.618 315.016C476.954 315.016 477.17 314.944 477.266 314.8L477.338 314.368C477.674 311.44 477.41 308.92 476.546 306.808C475.682 304.648 474.386 302.92 472.658 301.624C470.93 300.328 468.866 299.44 466.466 298.96C464.066 298.432 461.546 298.336 458.906 298.672C457.61 298.864 456.362 299.152 455.162 299.536C453.962 299.92 452.882 300.52 451.922 301.336C450.53 302.296 449.522 303.52 448.898 305.008C448.322 306.496 447.914 308.032 447.674 309.616C447.434 311.152 447.266 312.736 447.17 314.368C447.074 315.952 447.002 317.512 446.954 319.048C446.906 320.824 446.882 322.408 446.882 323.8C446.93 325.144 446.978 326.44 447.026 327.688C447.122 328.888 447.218 330.112 447.313 331.36C447.41 332.608 447.53 334 447.674 335.536C447.77 336.496 447.89 337.456 448.034 338.416C448.226 339.328 448.394 340.048 448.538 340.576C449.114 342.64 449.906 344.368 450.914 345.76C451.922 347.152 453.386 348.256 455.306 349.072C456.458 349.552 457.658 349.864 458.906 350.008C460.202 350.152 461.522 350.152 462.866 350.008C464.21 349.912 465.53 349.72 466.826 349.432C468.122 349.192 469.37 348.904 470.57 348.568C472.394 347.896 473.93 346.912 475.178 345.616C476.426 344.32 477.17 342.448 477.41 340C477.89 337.408 478.082 334.696 477.986 331.864C477.89 328.984 477.698 326.272 477.41 323.728L477.338 323.656H477.194C476.714 323.656 475.778 323.608 474.386 323.512C473.042 323.368 471.578 323.272 469.994 323.224C468.41 323.176 466.898 323.2 465.458 323.296C464.066 323.344 463.058 323.56 462.434 323.944ZM505.173 323.728C504.981 322.912 504.717 321.808 504.381 320.416C504.045 319.024 503.685 317.488 503.301 315.808C502.917 314.128 502.509 312.376 502.077 310.552C501.693 308.728 501.309 307.024 500.925 305.44C500.589 303.808 500.253 302.368 499.917 301.12C499.629 299.824 499.413 298.864 499.269 298.24C497.685 298.384 496.389 298.48 495.381 298.528C494.421 298.528 493.629 298.528 493.005 298.528C492.381 298.528 491.877 298.528 491.493 298.528C491.109 298.528 490.749 298.552 490.413 298.6C489.261 302.44 488.205 306.304 487.245 310.192C486.285 314.08 485.397 317.824 484.581 321.424C483.765 325.024 483.045 328.432 482.421 331.648C481.845 334.816 481.341 337.624 480.909 340.072C480.477 342.52 480.141 344.512 479.901 346.048C479.661 347.584 479.493 348.52 479.397 348.856C479.445 348.904 479.493 348.928 479.541 348.928C482.805 348.88 485.205 348.904 486.741 349C488.277 349.096 489.237 349.096 489.621 349C489.669 349 489.693 349 489.693 349C489.741 348.952 489.789 348.928 489.837 348.928C490.269 348.112 490.605 347.176 490.845 346.12C491.085 345.064 491.301 343.984 491.493 342.88C491.733 341.728 491.949 340.648 492.141 339.64C492.381 338.584 492.669 337.672 493.005 336.904C493.533 336.904 493.941 336.904 494.229 336.904C494.565 336.856 494.853 336.832 495.093 336.832C495.381 336.832 495.693 336.832 496.029 336.832C496.365 336.832 496.845 336.88 497.469 336.976C497.805 337.696 498.117 338.56 498.405 339.568C498.693 340.576 498.957 341.632 499.197 342.736C499.485 343.84 499.749 344.92 499.989 345.976C500.277 347.032 500.565 347.944 500.853 348.712H500.925C502.461 349.048 504.093 349.24 505.821 349.288C507.549 349.384 509.133 349.288 510.573 349V348.928L505.173 323.728ZM497.829 328.408C496.917 328.408 496.005 328.432 495.093 328.48C494.181 328.48 493.317 328.456 492.501 328.408C492.837 325.96 493.125 323.68 493.365 321.568C493.653 319.456 493.893 317.704 494.085 316.312C494.325 314.92 494.565 314.008 494.805 313.576C495.093 313.096 495.357 313.264 495.597 314.08C495.885 314.896 496.197 316.456 496.533 318.76C496.917 321.064 497.349 324.28 497.829 328.408ZM543.376 326.104C543.616 321.496 543.64 316.96 543.448 312.496C543.256 307.984 543.256 303.424 543.448 298.816C542.68 298.816 541.744 298.84 540.64 298.888C539.584 298.888 538.528 298.912 537.472 298.96C536.464 299.008 535.504 299.056 534.592 299.104C533.728 299.152 533.128 299.152 532.792 299.104C532.36 299.68 531.904 300.592 531.424 301.84C530.992 303.088 530.584 304.36 530.2 305.656C529.864 306.904 529.528 308.008 529.192 308.968C528.904 309.928 528.688 310.384 528.544 310.336C528.4 310.336 528.256 310.264 528.112 310.12C527.728 309.544 527.344 308.752 526.96 307.744C526.624 306.736 526.264 305.68 525.88 304.576C525.496 303.472 525.088 302.44 524.656 301.48C524.224 300.472 523.792 299.728 523.36 299.248H523.288C522.472 299.296 521.632 299.32 520.768 299.32C519.904 299.272 519.04 299.248 518.176 299.248C517.312 299.2 516.472 299.2 515.656 299.248C514.84 299.296 514.12 299.416 513.496 299.608C513.448 306.136 513.4 311.848 513.352 316.744C513.352 321.64 513.328 325.864 513.28 329.416C513.28 332.968 513.28 335.944 513.28 338.344C513.28 340.744 513.28 342.688 513.28 344.176C513.328 345.616 513.376 346.696 513.424 347.416C513.472 348.136 513.52 348.592 513.568 348.784C513.616 348.928 513.688 349 513.784 349C515.32 349 517 349.024 518.824 349.072C520.648 349.12 522.328 349.024 523.864 348.784C523.576 344.32 523.36 339.784 523.216 335.176C523.12 330.568 523.264 326.008 523.648 321.496C523.648 321.496 523.72 321.736 523.864 322.216C524.056 322.696 524.272 323.296 524.512 324.016C524.752 324.736 525.04 325.528 525.376 326.392C525.712 327.256 526.024 328.072 526.312 328.84C526.648 329.608 526.96 330.256 527.248 330.784C527.584 331.264 527.872 331.504 528.112 331.504C528.304 331.504 528.592 331.048 528.976 330.136C529.36 329.224 529.768 328.168 530.2 326.968C530.632 325.768 531.064 324.616 531.496 323.512C531.928 322.36 532.312 321.52 532.648 320.992C532.888 323.008 533.056 325.216 533.152 327.616C533.296 330.016 533.368 332.464 533.368 334.96C533.416 337.456 533.44 339.904 533.44 342.304C533.488 344.704 533.56 346.936 533.656 349C534.232 349 534.904 349 535.672 349C536.488 348.952 537.328 348.928 538.192 348.928C539.056 348.928 539.92 348.928 540.784 348.928C541.648 348.928 542.44 348.976 543.16 349.072L543.376 326.104ZM579.734 339.208C576.47 339.304 573.302 339.28 570.23 339.136C567.158 338.944 564.038 338.848 560.87 338.848L560.798 338.776C560.702 337.624 560.606 336.184 560.51 334.456C560.462 332.728 560.558 331.168 560.798 329.776C561.038 329.584 561.494 329.464 562.166 329.416C562.838 329.368 563.582 329.344 564.398 329.344C565.262 329.344 566.15 329.344 567.062 329.344C567.974 329.296 568.79 329.176 569.51 328.984C569.462 327.208 569.486 325.504 569.582 323.872C569.678 322.24 569.606 320.608 569.366 318.976V318.904C567.878 318.856 566.39 318.832 564.902 318.832C563.414 318.832 561.95 318.784 560.51 318.688L560.438 318.616C560.102 317.32 560.006 315.952 560.15 314.512C560.342 313.024 560.414 311.584 560.366 310.192L560.438 310.12H560.654C562.238 309.976 563.822 309.904 565.406 309.904C566.99 309.904 568.574 309.928 570.158 309.976C571.742 309.976 573.302 309.952 574.838 309.904C576.422 309.808 577.982 309.592 579.518 309.256V309.184C579.518 307.504 579.566 305.8 579.662 304.072C579.806 302.344 579.758 300.64 579.518 298.96C579.518 298.912 579.038 298.864 578.078 298.816C577.118 298.768 575.846 298.744 574.262 298.744C572.678 298.744 570.854 298.768 568.79 298.816C566.726 298.864 564.59 298.912 562.382 298.96C560.174 299.008 557.966 299.08 555.758 299.176C553.598 299.224 551.582 299.296 549.71 299.392C549.47 303.52 549.326 307.624 549.278 311.704C549.23 315.784 549.23 319.864 549.278 323.944C549.326 328.024 549.398 332.128 549.494 336.256C549.59 340.336 549.638 344.464 549.638 348.64C554.294 349.024 559.142 349.144 564.182 349C569.27 348.808 574.262 348.736 579.158 348.784C579.542 347.344 579.758 345.808 579.806 344.176C579.854 342.496 579.83 340.888 579.734 339.352V339.208Z" fill="white"/>
<path d="M354.025 957.104C354.265 952.496 354.289 947.96 354.097 943.496C353.905 938.984 353.905 934.424 354.097 929.816C353.329 929.816 352.393 929.84 351.289 929.888C350.233 929.888 349.177 929.912 348.121 929.96C347.113 930.008 346.153 930.056 345.241 930.104C344.377 930.152 343.777 930.152 343.441 930.104C343.009 930.68 342.553 931.592 342.073 932.84C341.641 934.088 341.233 935.36 340.849 936.656C340.513 937.904 340.177 939.008 339.841 939.968C339.553 940.928 339.337 941.384 339.193 941.336C339.049 941.336 338.905 941.264 338.761 941.12C338.377 940.544 337.993 939.752 337.609 938.744C337.273 937.736 336.913 936.68 336.529 935.576C336.145 934.472 335.737 933.44 335.305 932.48C334.873 931.472 334.441 930.728 334.009 930.248H333.937C333.121 930.296 332.281 930.32 331.417 930.32C330.553 930.272 329.689 930.248 328.825 930.248C327.961 930.2 327.121 930.2 326.305 930.248C325.489 930.296 324.769 930.416 324.145 930.608C324.097 937.136 324.049 942.848 324.001 947.744C324.001 952.64 323.977 956.864 323.929 960.416C323.929 963.968 323.929 966.944 323.929 969.344C323.929 971.744 323.929 973.688 323.929 975.176C323.977 976.616 324.025 977.696 324.073 978.416C324.121 979.136 324.169 979.592 324.217 979.784C324.265 979.928 324.337 980 324.433 980C325.969 980 327.649 980.024 329.473 980.072C331.297 980.12 332.977 980.024 334.513 979.784C334.225 975.32 334.009 970.784 333.865 966.176C333.769 961.568 333.913 957.008 334.297 952.496C334.297 952.496 334.369 952.736 334.513 953.216C334.705 953.696 334.921 954.296 335.161 955.016C335.401 955.736 335.689 956.528 336.025 957.392C336.361 958.256 336.673 959.072 336.961 959.84C337.297 960.608 337.609 961.256 337.897 961.784C338.233 962.264 338.521 962.504 338.761 962.504C338.953 962.504 339.241 962.048 339.625 961.136C340.009 960.224 340.417 959.168 340.849 957.968C341.281 956.768 341.713 955.616 342.145 954.512C342.577 953.36 342.961 952.52 343.297 951.992C343.537 954.008 343.705 956.216 343.801 958.616C343.945 961.016 344.017 963.464 344.017 965.96C344.065 968.456 344.089 970.904 344.089 973.304C344.137 975.704 344.209 977.936 344.305 980C344.881 980 345.553 980 346.321 980C347.137 979.952 347.977 979.928 348.841 979.928C349.705 979.928 350.569 979.928 351.433 979.928C352.297 979.928 353.089 979.976 353.809 980.072L354.025 957.104ZM388.511 937.376C387.935 935.696 386.951 934.232 385.559 932.984C384.167 931.928 382.583 931.136 380.807 930.608C379.079 930.032 377.279 929.696 375.407 929.6C373.583 929.504 371.735 929.648 369.863 930.032C368.039 930.368 366.335 930.92 364.751 931.688C364.127 932.072 363.575 932.504 363.095 932.984C361.607 934.664 360.599 936.608 360.071 938.816C359.591 940.976 359.327 943.136 359.279 945.296C359.039 949.088 358.991 952.88 359.135 956.672C359.327 960.416 359.495 964.16 359.639 967.904C359.687 969.296 359.807 970.688 359.999 972.08C360.239 973.424 360.695 974.696 361.367 975.896C361.799 976.856 362.351 977.648 363.023 978.272C363.695 978.848 364.439 979.328 365.255 979.712C366.119 980.096 367.007 980.36 367.919 980.504C368.879 980.696 369.863 980.84 370.871 980.936C372.263 981.032 373.631 981.032 374.975 980.936C376.367 980.84 377.735 980.6 379.079 980.216C380.567 979.832 381.959 979.304 383.255 978.632C384.599 977.912 385.679 976.976 386.495 975.824C387.359 974.432 388.007 972.896 388.439 971.216C388.871 969.488 389.135 967.784 389.231 966.104L389.447 963.728C389.639 961.232 389.711 958.784 389.663 956.384C389.615 953.984 389.663 951.512 389.807 948.968C389.855 947.768 389.855 946.592 389.807 945.44C389.807 944.24 389.759 943.04 389.663 941.84C389.567 941.072 389.423 940.328 389.231 939.608C389.087 938.84 388.847 938.096 388.511 937.376ZM380.807 958.4C380.807 958.496 380.783 958.904 380.735 959.624C380.735 960.344 380.711 961.184 380.663 962.144C380.567 963.152 380.519 963.968 380.519 964.592C380.567 965.168 380.567 965.672 380.519 966.104C380.471 966.536 380.351 966.944 380.159 967.328C379.967 967.664 379.655 968.12 379.223 968.696C378.503 969.512 377.615 970.112 376.559 970.496C375.503 970.832 374.447 970.976 373.391 970.928C372.335 970.832 371.351 970.52 370.439 969.992C369.527 969.464 368.831 968.72 368.351 967.76C367.871 966.176 367.583 964.52 367.487 962.792C367.391 961.016 367.223 959.288 366.983 957.608C366.887 955.592 366.863 953.576 366.911 951.56C367.007 949.544 367.247 947.624 367.631 945.8C368.207 943.784 369.335 942.128 371.015 940.832C371.783 940.256 372.671 939.848 373.679 939.608C374.687 939.368 375.671 939.44 376.631 939.824C377.735 940.352 378.599 941.168 379.223 942.272C379.895 943.376 380.279 944.6 380.375 945.944C380.423 946.76 380.471 947.648 380.519 948.608C380.615 949.52 380.663 950 380.663 950.048L380.807 954.944V958.4ZM429.004 979.784C428.284 977.816 427.396 975.92 426.34 974.096C425.284 972.224 424.18 970.4 423.028 968.624C421.876 966.848 420.7 965.096 419.5 963.368C418.3 961.592 417.196 959.816 416.188 958.04V957.968H416.26H416.548C418.852 957.824 420.748 957.176 422.236 956.024C423.772 954.872 424.996 953.432 425.908 951.704C427.396 949.208 428.092 946.64 427.996 944C427.948 941.312 427.3 938.864 426.052 936.656C424.804 934.448 423.052 932.6 420.796 931.112C418.54 929.624 415.996 928.808 413.164 928.664C409.66 928.28 406.3 928.256 403.084 928.592C399.868 928.928 396.916 929.288 394.228 929.672C394.324 930.296 394.396 931.496 394.444 933.272C394.54 935 394.612 937.112 394.66 939.608C394.708 942.056 394.756 944.768 394.804 947.744C394.9 950.672 394.948 953.648 394.948 956.672C394.996 959.648 395.02 962.552 395.02 965.384C395.02 968.168 395.02 970.64 395.02 972.8C395.02 974.96 394.996 976.712 394.948 978.056C394.9 979.352 394.828 980 394.732 980C394.972 979.952 395.596 979.952 396.604 980C397.66 980.048 398.836 980.048 400.132 980C401.428 980 402.724 979.952 404.02 979.856C405.364 979.76 406.444 979.544 407.26 979.208C407.212 978.296 407.14 977.072 407.044 975.536C406.948 974 406.852 972.392 406.756 970.712C406.708 968.984 406.684 967.328 406.684 965.744C406.684 964.112 406.756 962.744 406.9 961.64L407.044 961.856C408.052 963.104 409.06 964.544 410.068 966.176C411.076 967.808 412.012 969.464 412.876 971.144C413.74 972.824 414.532 974.432 415.252 975.968C415.972 977.504 416.572 978.824 417.052 979.928H417.124C419.284 980.072 421.396 980.096 423.46 980C425.524 979.856 427.396 979.784 429.076 979.784H429.004ZM404.74 939.752C406.42 939.08 408.076 938.72 409.708 938.672C411.34 938.576 412.684 939.008 413.74 939.968C414.412 940.496 414.892 941.216 415.18 942.128C415.468 942.992 415.564 943.88 415.468 944.792C415.372 945.656 415.06 946.472 414.532 947.24C414.052 947.96 413.356 948.416 412.444 948.608C411.292 948.8 410.068 948.872 408.772 948.824C407.476 948.776 406.276 948.704 405.172 948.608H405.1C405.004 948.08 404.932 947.432 404.884 946.664C404.884 945.896 404.884 945.104 404.884 944.288C404.884 943.472 404.86 942.68 404.812 941.912C404.812 941.096 404.788 940.376 404.74 939.752ZM462.453 970.208C459.189 970.304 456.021 970.28 452.949 970.136C449.877 969.944 446.757 969.848 443.589 969.848L443.517 969.776C443.421 968.624 443.325 967.184 443.229 965.456C443.181 963.728 443.277 962.168 443.517 960.776C443.757 960.584 444.213 960.464 444.885 960.416C445.557 960.368 446.301 960.344 447.117 960.344C447.981 960.344 448.869 960.344 449.781 960.344C450.693 960.296 451.509 960.176 452.229 959.984C452.181 958.208 452.205 956.504 452.301 954.872C452.397 953.24 452.325 951.608 452.085 949.976V949.904C450.597 949.856 449.109 949.832 447.621 949.832C446.133 949.832 444.669 949.784 443.229 949.688L443.157 949.616C442.821 948.32 442.725 946.952 442.869 945.512C443.061 944.024 443.133 942.584 443.085 941.192L443.157 941.12H443.373C444.957 940.976 446.541 940.904 448.125 940.904C449.709 940.904 451.293 940.928 452.877 940.976C454.461 940.976 456.021 940.952 457.557 940.904C459.141 940.808 460.701 940.592 462.237 940.256V940.184C462.237 938.504 462.285 936.8 462.381 935.072C462.525 933.344 462.477 931.64 462.237 929.96C462.237 929.912 461.757 929.864 460.797 929.816C459.837 929.768 458.565 929.744 456.981 929.744C455.397 929.744 453.573 929.768 451.509 929.816C449.445 929.864 447.309 929.912 445.101 929.96C442.893 930.008 440.685 930.08 438.477 930.176C436.317 930.224 434.301 930.296 432.429 930.392C432.189 934.52 432.045 938.624 431.997 942.704C431.949 946.784 431.949 950.864 431.997 954.944C432.045 959.024 432.117 963.128 432.213 967.256C432.309 971.336 432.357 975.464 432.357 979.64C437.013 980.024 441.861 980.144 446.901 980C451.989 979.808 456.981 979.736 461.877 979.784C462.261 978.344 462.477 976.808 462.525 975.176C462.573 973.496 462.549 971.888 462.453 970.352V970.208ZM509.659 937.376C509.083 935.696 508.099 934.232 506.707 932.984C505.315 931.928 503.731 931.136 501.955 930.608C500.227 930.032 498.427 929.696 496.555 929.6C494.731 929.504 492.883 929.648 491.011 930.032C489.187 930.368 487.483 930.92 485.899 931.688C485.275 932.072 484.723 932.504 484.243 932.984C482.755 934.664 481.747 936.608 481.219 938.816C480.739 940.976 480.475 943.136 480.427 945.296C480.187 949.088 480.139 952.88 480.283 956.672C480.475 960.416 480.643 964.16 480.787 967.904C480.835 969.296 480.955 970.688 481.147 972.08C481.387 973.424 481.843 974.696 482.515 975.896C482.947 976.856 483.499 977.648 484.171 978.272C484.843 978.848 485.587 979.328 486.403 979.712C487.267 980.096 488.155 980.36 489.067 980.504C490.027 980.696 491.011 980.84 492.019 980.936C493.411 981.032 494.779 981.032 496.123 980.936C497.515 980.84 498.883 980.6 500.227 980.216C501.715 979.832 503.107 979.304 504.403 978.632C505.747 977.912 506.827 976.976 507.643 975.824C508.507 974.432 509.155 972.896 509.587 971.216C510.019 969.488 510.283 967.784 510.379 966.104L510.595 963.728C510.787 961.232 510.859 958.784 510.811 956.384C510.763 953.984 510.811 951.512 510.955 948.968C511.003 947.768 511.003 946.592 510.955 945.44C510.955 944.24 510.907 943.04 510.811 941.84C510.715 941.072 510.571 940.328 510.379 939.608C510.235 938.84 509.995 938.096 509.659 937.376ZM501.955 958.4C501.955 958.496 501.931 958.904 501.883 959.624C501.883 960.344 501.859 961.184 501.811 962.144C501.715 963.152 501.667 963.968 501.667 964.592C501.715 965.168 501.715 965.672 501.667 966.104C501.619 966.536 501.499 966.944 501.307 967.328C501.115 967.664 500.803 968.12 500.371 968.696C499.651 969.512 498.763 970.112 497.707 970.496C496.651 970.832 495.595 970.976 494.539 970.928C493.483 970.832 492.499 970.52 491.587 969.992C490.675 969.464 489.979 968.72 489.499 967.76C489.019 966.176 488.731 964.52 488.635 962.792C488.539 961.016 488.371 959.288 488.131 957.608C488.035 955.592 488.011 953.576 488.059 951.56C488.155 949.544 488.395 947.624 488.779 945.8C489.355 943.784 490.483 942.128 492.163 940.832C492.931 940.256 493.819 939.848 494.827 939.608C495.835 939.368 496.819 939.44 497.779 939.824C498.883 940.352 499.747 941.168 500.371 942.272C501.043 943.376 501.427 944.6 501.523 945.944C501.571 946.76 501.619 947.648 501.667 948.608C501.763 949.52 501.811 950 501.811 950.048L501.955 954.944V958.4ZM547.848 944.648C547.704 941.912 547.08 939.584 545.976 937.664C544.872 935.744 543.456 934.16 541.728 932.912C540.048 931.616 538.104 930.656 535.896 930.032C533.688 929.36 531.408 928.928 529.056 928.736C526.752 928.544 524.424 928.568 522.072 928.808C519.768 929.048 517.632 929.432 515.664 929.96C515.808 933.944 515.88 938.12 515.88 942.488C515.928 946.856 515.952 951.2 515.952 955.52C515.952 959.84 515.952 964.064 515.952 968.192C515.952 972.272 516.024 976.064 516.168 979.568C516.984 979.664 517.944 979.736 519.048 979.784C520.152 979.832 521.256 979.856 522.36 979.856C523.512 979.808 524.592 979.76 525.6 979.712C526.656 979.616 527.52 979.472 528.192 979.28C528.24 979.28 528.264 979.28 528.264 979.28C528.312 979.232 528.36 979.208 528.408 979.208V979.136C528.312 975.632 528.24 972.848 528.192 970.784C528.192 968.72 528.192 967.088 528.192 965.888C528.192 964.64 528.192 963.704 528.192 963.08C528.192 962.408 528.168 961.736 528.12 961.064C530.424 961.448 532.68 961.352 534.888 960.776C537.096 960.152 539.112 959.168 540.936 957.824C542.76 956.48 544.272 954.848 545.472 952.928C546.72 951.008 547.488 948.896 547.776 946.592C547.824 946.304 547.848 946.016 547.848 945.728C547.848 945.392 547.848 945.056 547.848 944.72V944.648ZM535.248 941.624C535.872 942.008 536.352 942.488 536.688 943.064C537.072 943.64 537.312 944.264 537.408 944.936C537.552 945.608 537.528 946.28 537.336 946.952C537.192 947.624 536.928 948.224 536.544 948.752C535.968 949.328 535.272 949.76 534.456 950.048C533.688 950.288 532.872 950.456 532.008 950.552C531.192 950.648 530.352 950.72 529.488 950.768C528.624 950.768 527.808 950.792 527.04 950.84H526.824C526.584 950.12 526.416 949.328 526.32 948.464C526.272 947.552 526.224 946.616 526.176 945.656C526.176 944.696 526.176 943.736 526.176 942.776C526.224 941.816 526.224 940.904 526.176 940.04C526.224 939.992 526.296 939.968 526.392 939.968C527.928 939.584 529.488 939.536 531.072 939.824C532.656 940.064 534.048 940.664 535.248 941.624ZM579.893 929.96C574.949 929.432 569.861 929.192 564.629 929.24C559.445 929.24 554.405 929.264 549.509 929.312C549.509 929.36 549.509 929.384 549.509 929.384C549.557 929.384 549.581 929.408 549.581 929.456C549.485 930.608 549.437 931.808 549.437 933.056C549.437 934.304 549.437 935.48 549.437 936.584C549.485 937.64 549.533 938.552 549.581 939.32C549.677 940.088 549.773 940.568 549.869 940.76C550.157 940.856 550.661 940.904 551.381 940.904C552.101 940.904 552.893 940.928 553.757 940.976C554.621 940.976 555.485 941.024 556.349 941.12C557.213 941.168 557.933 941.336 558.509 941.624L558.581 941.696C558.869 948.416 559.037 954.152 559.085 958.904C559.181 963.656 559.205 967.568 559.157 970.64C559.157 973.664 559.133 975.944 559.085 977.48C559.037 979.016 559.037 979.88 559.085 980.072C559.949 979.928 560.885 979.856 561.893 979.856C562.901 979.856 563.909 979.856 564.917 979.856C565.973 979.856 567.005 979.856 568.013 979.856C569.069 979.808 570.029 979.712 570.893 979.568V979.496V979.424C570.797 974.192 570.725 969.656 570.677 965.816C570.629 961.928 570.581 958.616 570.533 955.88C570.485 953.096 570.437 950.84 570.389 949.112C570.389 947.336 570.389 945.92 570.389 944.864C570.389 943.76 570.389 942.968 570.389 942.488C570.437 941.96 570.485 941.576 570.533 941.336C570.533 941.288 570.533 941.264 570.533 941.264C570.581 941.216 570.605 941.168 570.605 941.12H570.677H570.821C573.077 941.024 574.877 940.952 576.221 940.904C577.565 940.856 578.693 940.928 579.605 941.12C579.845 939.392 579.965 937.496 579.965 935.432C580.013 933.368 579.989 931.544 579.893 929.96ZM594.967 929.384C592.807 929.432 591.151 929.432 589.999 929.384C588.895 929.288 587.911 929.216 587.047 929.168C586.711 929.168 586.183 929.144 585.463 929.096C584.791 929 584.335 928.976 584.095 929.024V929.168C583.663 933.2 583.447 937.328 583.447 941.552C583.495 945.728 583.567 949.976 583.663 954.296C583.807 958.568 583.903 962.888 583.951 967.256C583.999 971.624 583.855 975.968 583.519 980.288C583.999 980.144 584.887 980.096 586.183 980.144C587.479 980.24 588.823 980.312 590.215 980.36C591.655 980.408 592.975 980.384 594.175 980.288C595.423 980.24 596.239 980.024 596.623 979.64C596.383 975.56 596.239 971.432 596.191 967.256C596.143 963.08 596.143 958.904 596.191 954.728C596.287 950.504 596.383 946.304 596.479 942.128C596.623 937.952 596.695 933.8 596.695 929.672V929.384H594.967ZM630.878 937.376C630.302 935.696 629.318 934.232 627.926 932.984C626.534 931.928 624.95 931.136 623.174 930.608C621.446 930.032 619.646 929.696 617.774 929.6C615.95 929.504 614.102 929.648 612.23 930.032C610.406 930.368 608.702 930.92 607.118 931.688C606.494 932.072 605.942 932.504 605.462 932.984C603.974 934.664 602.966 936.608 602.438 938.816C601.958 940.976 601.694 943.136 601.646 945.296C601.406 949.088 601.358 952.88 601.502 956.672C601.694 960.416 601.862 964.16 602.006 967.904C602.054 969.296 602.174 970.688 602.366 972.08C602.606 973.424 603.062 974.696 603.734 975.896C604.166 976.856 604.718 977.648 605.39 978.272C606.062 978.848 606.806 979.328 607.622 979.712C608.486 980.096 609.374 980.36 610.286 980.504C611.246 980.696 612.23 980.84 613.238 980.936C614.63 981.032 615.998 981.032 617.342 980.936C618.734 980.84 620.102 980.6 621.446 980.216C622.934 979.832 624.326 979.304 625.622 978.632C626.966 977.912 628.046 976.976 628.862 975.824C629.726 974.432 630.374 972.896 630.806 971.216C631.238 969.488 631.502 967.784 631.598 966.104L631.814 963.728C632.006 961.232 632.078 958.784 632.03 956.384C631.982 953.984 632.03 951.512 632.174 948.968C632.222 947.768 632.222 946.592 632.174 945.44C632.174 944.24 632.126 943.04 632.03 941.84C631.934 941.072 631.79 940.328 631.598 939.608C631.454 938.84 631.214 938.096 630.878 937.376ZM623.174 958.4C623.174 958.496 623.15 958.904 623.102 959.624C623.102 960.344 623.078 961.184 623.03 962.144C622.934 963.152 622.886 963.968 622.886 964.592C622.934 965.168 622.934 965.672 622.886 966.104C622.838 966.536 622.718 966.944 622.526 967.328C622.334 967.664 622.022 968.12 621.59 968.696C620.87 969.512 619.982 970.112 618.926 970.496C617.87 970.832 616.814 970.976 615.758 970.928C614.702 970.832 613.718 970.52 612.806 969.992C611.894 969.464 611.198 968.72 610.718 967.76C610.238 966.176 609.95 964.52 609.854 962.792C609.758 961.016 609.59 959.288 609.35 957.608C609.254 955.592 609.23 953.576 609.278 951.56C609.374 949.544 609.614 947.624 609.998 945.8C610.574 943.784 611.702 942.128 613.382 940.832C614.15 940.256 615.038 939.848 616.046 939.608C617.054 939.368 618.038 939.44 618.998 939.824C620.102 940.352 620.966 941.168 621.59 942.272C622.262 943.376 622.646 944.6 622.742 945.944C622.79 946.76 622.838 947.648 622.886 948.608C622.982 949.52 623.03 950 623.03 950.048L623.174 954.944V958.4ZM664.747 980.36C665.563 980.36 666.139 980.312 666.475 980.216C666.811 980.12 667.027 980.048 667.123 980V978.56C667.123 977.6 667.099 976.64 667.051 975.68C667.051 974.72 667.051 973.76 667.051 972.8C667.051 971.456 667.051 970.136 667.051 968.84C667.099 967.544 667.123 966.2 667.123 964.808C667.123 962.744 667.123 960.68 667.123 958.616C667.123 956.552 667.099 954.512 667.051 952.496V929.312C665.659 929.024 664.075 928.88 662.299 928.88C660.475 928.88 658.747 929.024 657.115 929.312C657.067 930.512 657.019 931.64 656.971 932.696C656.971 933.704 656.971 934.712 656.971 935.72C656.971 937.448 656.995 939.152 657.043 940.832C657.139 942.464 657.187 944.24 657.187 946.16C657.187 946.976 657.139 947.816 657.043 948.68C656.947 949.544 656.827 950.024 656.683 950.12C656.635 950.12 656.467 949.856 656.179 949.328C655.891 948.752 655.531 948.08 655.099 947.312C654.715 946.496 654.283 945.608 653.803 944.648C653.323 943.64 652.867 942.704 652.435 941.84C652.003 940.928 651.619 940.136 651.283 939.464C650.947 938.792 650.731 938.336 650.635 938.096C650.203 937.088 649.819 936.272 649.483 935.648C649.195 934.976 648.907 934.376 648.619 933.848C648.379 933.32 648.115 932.768 647.827 932.192C647.539 931.616 647.227 930.896 646.891 930.032C646.891 929.936 646.627 929.84 646.099 929.744C645.619 929.648 645.043 929.576 644.371 929.528C643.699 929.432 643.027 929.384 642.355 929.384C641.683 929.336 641.203 929.312 640.915 929.312C640.339 929.312 639.763 929.336 639.187 929.384C638.659 929.432 638.155 929.504 637.675 929.6C637.435 932.672 637.267 935.84 637.171 939.104C637.075 942.32 637.027 945.584 637.027 948.896C637.027 953.408 637.051 957.728 637.099 961.856C637.195 965.984 637.243 970.328 637.243 974.888V979.928C638.347 979.928 639.475 980 640.627 980.144C641.827 980.288 643.003 980.36 644.155 980.36C644.683 980.36 645.211 980.336 645.739 980.288C646.267 980.24 646.795 980.144 647.323 980C647.275 979.184 647.251 978.272 647.251 977.264C647.251 976.208 647.251 975.128 647.251 974.024C647.251 972.008 647.251 969.92 647.251 967.76C647.299 965.6 647.347 963.632 647.395 961.856C647.443 960.08 647.491 958.616 647.539 957.464C647.635 956.312 647.707 955.736 647.755 955.736C647.851 955.736 647.971 955.976 648.115 956.456C648.307 956.888 648.499 957.368 648.691 957.896L649.411 960.056C650.515 963.128 651.835 966.344 653.371 969.704C654.955 973.016 656.539 976.448 658.123 980C659.083 980 660.187 980.048 661.435 980.144C662.683 980.288 663.787 980.36 664.747 980.36ZM703.414 945.872C704.086 942.272 703.798 939.296 702.55 936.944C701.302 934.592 699.526 932.816 697.222 931.616C696.07 931.088 694.798 930.656 693.406 930.32C692.062 929.984 690.67 929.792 689.23 929.744C687.838 929.648 686.446 929.696 685.054 929.888C683.662 930.032 682.39 930.344 681.238 930.824C678.934 931.784 676.966 933.248 675.334 935.216C673.75 937.184 672.67 939.368 672.094 941.768C671.518 944.168 671.542 946.64 672.166 949.184C672.838 951.728 674.278 954.056 676.486 956.168C677.158 956.744 677.902 957.248 678.718 957.68C679.534 958.112 680.422 958.424 681.382 958.616C682.39 958.808 683.47 959.024 684.622 959.264C685.774 959.456 686.83 959.768 687.79 960.2C688.798 960.632 689.662 961.208 690.382 961.928C691.102 962.6 691.534 963.512 691.678 964.664C691.966 966.344 691.63 967.592 690.67 968.408C689.758 969.224 688.654 969.656 687.358 969.704C686.11 969.704 684.91 969.32 683.758 968.552C682.654 967.784 682.054 966.632 681.958 965.096C680.326 965.144 678.502 965.12 676.486 965.024C674.47 964.88 672.622 964.928 670.942 965.168V965.384V965.6C670.798 967.904 671.206 969.968 672.166 971.792C673.126 973.568 674.422 975.08 676.054 976.328C677.686 977.576 679.534 978.56 681.598 979.28C683.71 979.952 685.822 980.312 687.934 980.36C689.422 980.408 690.862 980.288 692.254 980C693.694 979.664 695.014 979.16 696.214 978.488C697.462 977.816 698.566 976.952 699.526 975.896C700.486 974.84 701.254 973.568 701.83 972.08C702.406 970.832 702.814 969.536 703.054 968.192C703.342 966.8 703.438 965.432 703.342 964.088C703.294 962.744 703.054 961.448 702.622 960.2C702.19 958.904 701.542 957.704 700.678 956.6C699.286 954.536 697.486 952.832 695.278 951.488C693.118 950.144 690.766 949.328 688.222 949.04C687.214 948.896 686.278 948.632 685.414 948.248C684.55 947.864 683.926 947.096 683.542 945.944C683.494 945.608 683.446 945.296 683.398 945.008C683.398 944.672 683.446 944.336 683.542 944C683.734 942.656 684.358 941.744 685.414 941.264C686.518 940.784 687.646 940.664 688.798 940.904C689.95 941.144 690.934 941.696 691.75 942.56C692.566 943.424 692.83 944.504 692.542 945.8C694.222 946.28 696.022 946.496 697.942 946.448C699.862 946.352 701.662 946.16 703.342 945.872H703.414Z" fill="white"/>
<defs>
<filter id="filter0_d_140:18288" x="-10" y="0" width="1100" height="1385" filterUnits="userSpaceOnUse" color-interpolation-filters="sRGB">
<feFlood flood-opacity="0" result="BackgroundImageFix"/>
<feColorMatrix in="SourceAlpha" type="matrix" values="0 0 0 0 0 0 0 0 0 0 0 0 0 0 0 0 0 0 127 0" result="hardAlpha"/>
<feOffset/>
<feGaussianBlur stdDeviation="10"/>
<feComposite in2="hardAlpha" operator="out"/>
<feColorMatrix type="matrix" values="0 0 0 0 0.25098 0 0 0 0 0.843137 0 0 0 0 1 0 0 0 1 0"/>
<feBlend mode="normal" in2="BackgroundImageFix" result="effect1_dropShadow_140:18288"/>
<feBlend mode="normal" in="SourceGraphic" in2="effect1_dropShadow_140:18288" result="shape"/>
</filter>
<filter id="filter1_d_140:18288" x="41" y="701" width="972" height="44" filterUnits="userSpaceOnUse" color-interpolation-filters="sRGB">
<feFlood flood-opacity="0" result="BackgroundImageFix"/>
<feColorMatrix in="SourceAlpha" type="matrix" values="0 0 0 0 0 0 0 0 0 0 0 0 0 0 0 0 0 0 127 0" result="hardAlpha"/>
<feOffset/>
<feGaussianBlur stdDeviation="10"/>
<feComposite in2="hardAlpha" operator="out"/>
<feColorMatrix type="matrix" values="0 0 0 0 0.25098 0 0 0 0 0.843137 0 0 0 0 1 0 0 0 1 0"/>
<feBlend mode="normal" in2="BackgroundImageFix" result="effect1_dropShadow_140:18288"/>
<feBlend mode="normal" in="SourceGraphic" in2="effect1_dropShadow_140:18288" result="shape"/>
</filter>
<filter id="filter2_d_140:18288" x="777" y="578" width="220.32" height="120" filterUnits="userSpaceOnUse" color-interpolation-filters="sRGB">
<feFlood flood-opacity="0" result="BackgroundImageFix"/>
<feColorMatrix in="SourceAlpha" type="matrix" values="0 0 0 0 0 0 0 0 0 0 0 0 0 0 0 0 0 0 127 0" result="hardAlpha"/>
<feOffset/>
<feGaussianBlur stdDeviation="10"/>
<feComposite in2="hardAlpha" operator="out"/>
<feColorMatrix type="matrix" values="0 0 0 0 0.25098 0 0 0 0 0.843137 0 0 0 0 1 0 0 0 1 0"/>
<feBlend mode="normal" in2="BackgroundImageFix" result="effect1_dropShadow_140:18288"/>
<feBlend mode="normal" in="SourceGraphic" in2="effect1_dropShadow_140:18288" result="shape"/>
</filter>
<filter id="filter3_d_140:18288" x="787" y="585" width="106.88" height="106.88" filterUnits="userSpaceOnUse" color-interpolation-filters="sRGB">
<feFlood flood-opacity="0" result="BackgroundImageFix"/>
<feColorMatrix in="SourceAlpha" type="matrix" values="0 0 0 0 0 0 0 0 0 0 0 0 0 0 0 0 0 0 127 0" result="hardAlpha"/>
<feOffset/>
<feGaussianBlur stdDeviation="10"/>
<feComposite in2="hardAlpha" operator="out"/>
<feColorMatrix type="matrix" values="0 0 0 0 0.25098 0 0 0 0 0.843137 0 0 0 0 1 0 0 0 1 0"/>
<feBlend mode="normal" in2="BackgroundImageFix" result="effect1_dropShadow_140:18288"/>
<feBlend mode="normal" in="SourceGraphic" in2="effect1_dropShadow_140:18288" result="shape"/>
</filter>
<filter id="filter4_d_140:18288" x="777" y="737" width="220.32" height="120" filterUnits="userSpaceOnUse" color-interpolation-filters="sRGB">
<feFlood flood-opacity="0" result="BackgroundImageFix"/>
<feColorMatrix in="SourceAlpha" type="matrix" values="0 0 0 0 0 0 0 0 0 0 0 0 0 0 0 0 0 0 127 0" result="hardAlpha"/>
<feOffset/>
<feGaussianBlur stdDeviation="10"/>
<feComposite in2="hardAlpha" operator="out"/>
<feColorMatrix type="matrix" values="0 0 0 0 0.25098 0 0 0 0 0.843137 0 0 0 0 1 0 0 0 1 0"/>
<feBlend mode="normal" in2="BackgroundImageFix" result="effect1_dropShadow_140:18288"/>
<feBlend mode="normal" in="SourceGraphic" in2="effect1_dropShadow_140:18288" result="shape"/>
</filter>
<filter id="filter5_d_140:18288" x="787" y="744" width="106.88" height="106.88" filterUnits="userSpaceOnUse" color-interpolation-filters="sRGB">
<feFlood flood-opacity="0" result="BackgroundImageFix"/>
<feColorMatrix in="SourceAlpha" type="matrix" values="0 0 0 0 0 0 0 0 0 0 0 0 0 0 0 0 0 0 127 0" result="hardAlpha"/>
<feOffset/>
<feGaussianBlur stdDeviation="10"/>
<feComposite in2="hardAlpha" operator="out"/>
<feColorMatrix type="matrix" values="0 0 0 0 0.25098 0 0 0 0 0.843137 0 0 0 0 1 0 0 0 1 0"/>
<feBlend mode="normal" in2="BackgroundImageFix" result="effect1_dropShadow_140:18288"/>
<feBlend mode="normal" in="SourceGraphic" in2="effect1_dropShadow_140:18288" result="shape"/>
</filter>
<filter id="filter6_d_140:18288" x="41" y="531" width="972" height="44" filterUnits="userSpaceOnUse" color-interpolation-filters="sRGB">
<feFlood flood-opacity="0" result="BackgroundImageFix"/>
<feColorMatrix in="SourceAlpha" type="matrix" values="0 0 0 0 0 0 0 0 0 0 0 0 0 0 0 0 0 0 127 0" result="hardAlpha"/>
<feOffset/>
<feGaussianBlur stdDeviation="10"/>
<feComposite in2="hardAlpha" operator="out"/>
<feColorMatrix type="matrix" values="0 0 0 0 0.25098 0 0 0 0 0.843137 0 0 0 0 1 0 0 0 1 0"/>
<feBlend mode="normal" in2="BackgroundImageFix" result="effect1_dropShadow_140:18288"/>
<feBlend mode="normal" in="SourceGraphic" in2="effect1_dropShadow_140:18288" result="shape"/>
</filter>
<filter id="filter7_d_140:18288" x="777" y="408" width="220.32" height="120" filterUnits="userSpaceOnUse" color-interpolation-filters="sRGB">
<feFlood flood-opacity="0" result="BackgroundImageFix"/>
<feColorMatrix in="SourceAlpha" type="matrix" values="0 0 0 0 0 0 0 0 0 0 0 0 0 0 0 0 0 0 127 0" result="hardAlpha"/>
<feOffset/>
<feGaussianBlur stdDeviation="10"/>
<feComposite in2="hardAlpha" operator="out"/>
<feColorMatrix type="matrix" values="0 0 0 0 0.25098 0 0 0 0 0.843137 0 0 0 0 1 0 0 0 1 0"/>
<feBlend mode="normal" in2="BackgroundImageFix" result="effect1_dropShadow_140:18288"/>
<feBlend mode="normal" in="SourceGraphic" in2="effect1_dropShadow_140:18288" result="shape"/>
</filter>
<filter id="filter8_d_140:18288" x="882.4" y="415" width="106.88" height="106.88" filterUnits="userSpaceOnUse" color-interpolation-filters="sRGB">
<feFlood flood-opacity="0" result="BackgroundImageFix"/>
<feColorMatrix in="SourceAlpha" type="matrix" values="0 0 0 0 0 0 0 0 0 0 0 0 0 0 0 0 0 0 127 0" result="hardAlpha"/>
<feOffset/>
<feGaussianBlur stdDeviation="10"/>
<feComposite in2="hardAlpha" operator="out"/>
<feColorMatrix type="matrix" values="0 0 0 0 0.25098 0 0 0 0 0.843137 0 0 0 0 1 0 0 0 1 0"/>
<feBlend mode="normal" in2="BackgroundImageFix" result="effect1_dropShadow_140:18288"/>
<feBlend mode="normal" in="SourceGraphic" in2="effect1_dropShadow_140:18288" result="shape"/>
</filter>
<filter id="filter9_d_140:18288" x="8" y="875" width="1041" height="150" filterUnits="userSpaceOnUse" color-interpolation-filters="sRGB">
<feFlood flood-opacity="0" result="BackgroundImageFix"/>
<feColorMatrix in="SourceAlpha" type="matrix" values="0 0 0 0 0 0 0 0 0 0 0 0 0 0 0 0 0 0 127 0" result="hardAlpha"/>
<feOffset/>
<feGaussianBlur stdDeviation="10"/>
<feComposite in2="hardAlpha" operator="out"/>
<feColorMatrix type="matrix" values="0 0 0 0 1 0 0 0 0 0 0 0 0 0 0.9 0 0 0 1 0"/>
<feBlend mode="normal" in2="BackgroundImageFix" result="effect1_dropShadow_140:18288"/>
<feBlend mode="normal" in="SourceGraphic" in2="effect1_dropShadow_140:18288" result="shape"/>
</filter>
<filter id="filter10_d_140:18288" x="8" y="244" width="1041" height="150" filterUnits="userSpaceOnUse" color-interpolation-filters="sRGB">
<feFlood flood-opacity="0" result="BackgroundImageFix"/>
<feColorMatrix in="SourceAlpha" type="matrix" values="0 0 0 0 0 0 0 0 0 0 0 0 0 0 0 0 0 0 127 0" result="hardAlpha"/>
<feOffset/>
<feGaussianBlur stdDeviation="10"/>
<feComposite in2="hardAlpha" operator="out"/>
<feColorMatrix type="matrix" values="0 0 0 0 1 0 0 0 0 0 0 0 0 0 0.9 0 0 0 1 0"/>
<feBlend mode="normal" in2="BackgroundImageFix" result="effect1_dropShadow_140:18288"/>
<feBlend mode="normal" in="SourceGraphic" in2="effect1_dropShadow_140:18288" result="shape"/>
</filter>
<linearGradient id="paint0_linear_140:18288" x1="540" y1="20" x2="540" y2="1365" gradientUnits="userSpaceOnUse">
<stop stop-color="#050EA3"/>
<stop offset="1" stop-color="#00033A"/>
</linearGradient>
<linearGradient id="paint1_linear_140:18288" x1="887.16" y1="600" x2="887.16" y2="676" gradientUnits="userSpaceOnUse">
<stop stop-color="#050EA3"/>
<stop offset="1" stop-color="#00033A"/>
</linearGradient>
<linearGradient id="paint2_linear_140:18288" x1="811.478" y1="596.59" x2="882.792" y2="609.36" gradientUnits="userSpaceOnUse">
<stop stop-color="#FF9900"/>
<stop offset="0.9994" stop-color="#FF00B8"/>
</linearGradient>
<linearGradient id="paint3_linear_140:18288" x1="887.16" y1="759" x2="887.16" y2="835" gradientUnits="userSpaceOnUse">
<stop stop-color="#050EA3"/>
<stop offset="1" stop-color="#00033A"/>
</linearGradient>
<linearGradient id="paint4_linear_140:18288" x1="811.478" y1="755.59" x2="882.792" y2="768.36" gradientUnits="userSpaceOnUse">
<stop stop-color="#FF9900"/>
<stop offset="0.9994" stop-color="#FF00B8"/>
</linearGradient>
<linearGradient id="paint5_linear_140:18288" x1="887.16" y1="430" x2="887.16" y2="506" gradientUnits="userSpaceOnUse">
<stop stop-color="#050EA3"/>
<stop offset="1" stop-color="#00033A"/>
</linearGradient>
<linearGradient id="paint6_linear_140:18288" x1="906.878" y1="426.59" x2="978.192" y2="439.36" gradientUnits="userSpaceOnUse">
<stop stop-color="#00FFE8"/>
<stop offset="0.546374" stop-color="#00FF8B"/>
<stop offset="0.9994" stop-color="#00FF85"/>
</linearGradient>
</defs>
</svg>
