<svg width="403" height="521" viewBox="0 0 403 521" fill="none" xmlns="http://www.w3.org/2000/svg">
<g filter="url(#filter0_d_140:21281)">
<g filter="url(#filter1_d_140:21281)">
<path d="M72.8782 45.5584C73.5941 40.6443 77.8078 37 82.7738 37H355.498C361.617 37 366.301 42.4461 365.385 48.4961L328.162 294.496C327.422 299.386 323.219 303 318.274 303H46.9373C40.8407 303 36.1629 297.591 37.0418 291.558L72.8782 45.5584Z" fill="url(#paint0_linear_140:21281)"/>
<path d="M72.8782 45.5584C73.5941 40.6443 77.8078 37 82.7738 37H355.498C361.617 37 366.301 42.4461 365.385 48.4961L328.162 294.496C327.422 299.386 323.219 303 318.274 303H46.9373C40.8407 303 36.1629 297.591 37.0418 291.558L72.8782 45.5584Z" stroke="#FF00E5" stroke-width="6"/>
</g>
<path d="M73.5538 40.9208C73.8818 38.6695 75.8121 37 78.0872 37H355.498C361.617 37 366.301 42.4461 365.385 48.4961L327.514 298.775C327.147 301.204 325.059 303 322.602 303H300.22C160.572 303 53.4228 179.111 73.5538 40.9208Z" fill="url(#paint1_linear_140:21281)" fill-opacity="0.1"/>
</g>
<g filter="url(#filter2_d_140:21281)">
<path d="M88.5368 397.385C91.1294 383.119 103.554 372.749 118.053 372.749H293.485C299.724 372.749 304.439 378.399 303.324 384.537L293.929 436.231C291.337 450.497 278.912 460.867 264.413 460.867H88.9811C82.7424 460.867 78.0268 455.217 79.1423 449.078L88.5368 397.385Z" fill="#FEDD87"/>
<path d="M89.5207 397.564C92.0269 383.773 104.037 373.749 118.053 373.749H293.485C299.1 373.749 303.344 378.834 302.34 384.358L292.945 436.052C290.439 449.842 278.429 459.867 264.413 459.867H88.9811C83.3663 459.867 79.1222 454.782 80.1262 449.257L89.5207 397.564Z" stroke="white" stroke-width="2"/>
</g>
<path d="M89.0707 392.636C91.6633 378.37 104.088 368 118.587 368H294.019C300.258 368 304.973 373.65 303.858 379.788L294.463 431.482C291.871 445.747 279.446 456.118 264.947 456.118H89.5151C83.2764 456.118 78.5607 450.468 79.6762 444.329L89.0707 392.636Z" fill="url(#paint2_linear_140:21281)"/>
<path d="M90.5203 390.815C92.1511 377.781 103.232 368 116.368 368H295.015L287.229 374.632H105.831L90.5203 390.815Z" fill="#FF8A00" fill-opacity="0.2"/>
<path d="M84.7402 418.918L86.8754 449.785L273.171 443.19L280.111 449.785L296.926 413.905L293.979 431.166C291.518 445.578 279.027 456.117 264.407 456.117H89.6571C83.3713 456.117 78.6441 450.386 79.8396 444.215L84.7402 418.918Z" fill="white" fill-opacity="0.26"/>
<path d="M90.0546 392.815C92.5608 379.024 104.571 369 118.587 369H294.019C299.634 369 303.878 374.085 302.874 379.609L293.479 431.303C290.973 445.093 278.963 455.118 264.947 455.118H89.5151C83.9002 455.118 79.6562 450.033 80.6601 444.508L90.0546 392.815Z" stroke="white" stroke-width="2"/>
<path d="M142.447 414.85C141.579 414.23 140.587 413.569 139.471 412.866C138.397 412.163 137.363 411.419 136.371 410.634C135.421 409.807 134.615 408.981 133.953 408.154C133.292 407.286 132.961 406.397 132.961 405.488C132.961 404.744 133.271 404.103 133.891 403.566C134.553 402.987 135.214 402.698 135.875 402.698C136.867 402.698 137.446 402.967 137.611 403.504C137.818 404 137.963 404.579 138.045 405.24C138.128 405.86 138.335 406.439 138.665 406.976C139.037 407.472 139.885 407.72 141.207 407.72C141.827 407.72 142.406 407.699 142.943 407.658C143.481 407.617 144.059 407.596 144.679 407.596H145.671C146.333 407.596 146.849 407.493 147.221 407.286C147.593 407.038 147.779 406.604 147.779 405.984C147.779 404.868 147.738 403.876 147.655 403.008C147.614 402.099 147.366 401.169 146.911 400.218C146.663 399.722 146.333 399.205 145.919 398.668C145.547 398.089 145.072 397.552 144.493 397.056C143.956 396.56 143.357 396.126 142.695 395.754C142.034 395.382 141.311 395.155 140.525 395.072C139.988 395.031 139.719 394.741 139.719 394.204V389.12C139.595 388.872 139.223 388.686 138.603 388.562C138.025 388.438 137.405 388.376 136.743 388.376C136.082 388.335 135.503 388.314 135.007 388.314C134.511 388.314 134.305 388.314 134.387 388.314C134.015 388.314 133.623 388.314 133.209 388.314C132.796 388.273 132.403 388.293 132.031 388.376C131.659 388.417 131.349 388.521 131.101 388.686C130.895 388.81 130.791 389.017 130.791 389.306C130.791 389.389 130.812 389.657 130.853 390.112C130.895 390.567 130.915 391.063 130.915 391.6C130.957 392.137 130.998 392.633 131.039 393.088C131.081 393.543 131.101 393.811 131.101 393.894C131.101 394.101 131.122 394.287 131.163 394.452C131.205 394.576 131.122 394.679 130.915 394.762C129.965 395.051 128.973 395.485 127.939 396.064C126.906 396.643 126.038 397.283 125.335 397.986C124.55 398.771 123.971 399.639 123.599 400.59C123.269 401.541 123.103 402.533 123.103 403.566C123.103 405.054 123.413 406.542 124.033 408.03C124.695 409.518 125.501 410.799 126.451 411.874C127.361 412.866 128.456 413.837 129.737 414.788C131.019 415.739 132.238 416.731 133.395 417.764C134.594 418.797 135.607 419.872 136.433 420.988C137.26 422.104 137.673 423.323 137.673 424.646C137.673 425.307 137.363 425.845 136.743 426.258C136.123 426.671 135.483 426.878 134.821 426.878C133.747 426.878 133.044 426.589 132.713 426.01C132.383 425.431 132.217 424.811 132.217 424.15C132.217 423.819 132.197 423.509 132.155 423.22C132.155 422.889 132.155 422.559 132.155 422.228C132.155 421.608 132.011 421.153 131.721 420.864C131.473 420.575 131.143 420.389 130.729 420.306C130.357 420.223 129.903 420.203 129.365 420.244C128.869 420.244 128.373 420.223 127.877 420.182C127.505 420.141 127.113 420.099 126.699 420.058C126.327 420.017 125.914 419.996 125.459 419.996C124.757 419.996 124.199 420.058 123.785 420.182C123.413 420.265 123.124 420.43 122.917 420.678C122.752 420.885 122.649 421.195 122.607 421.608C122.607 422.021 122.607 422.538 122.607 423.158C122.607 424.522 122.669 425.783 122.793 426.94C122.917 428.097 123.186 429.151 123.599 430.102C124.054 431.011 124.715 431.817 125.583 432.52C126.493 433.223 127.691 433.822 129.179 434.318C129.882 434.525 130.357 434.835 130.605 435.248C130.853 435.661 130.998 436.116 131.039 436.612C131.122 437.108 131.122 437.604 131.039 438.1C130.998 438.637 130.998 439.113 131.039 439.526C131.122 439.981 131.308 440.332 131.597 440.58C131.928 440.869 132.465 441.014 133.209 441.014H134.945C135.4 441.014 135.834 440.993 136.247 440.952C136.702 440.952 137.136 440.952 137.549 440.952C138.417 440.952 139.017 440.787 139.347 440.456C139.719 440.167 139.905 439.774 139.905 439.278V439.03C139.905 438.906 139.905 438.617 139.905 438.162C139.905 437.749 139.905 437.294 139.905 436.798C139.905 436.343 139.905 435.889 139.905 435.434C139.947 435.021 139.967 434.752 139.967 434.628C140.05 434.628 140.277 434.525 140.649 434.318C141.021 434.111 141.414 433.884 141.827 433.636C142.282 433.347 142.695 433.078 143.067 432.83C143.481 432.582 143.749 432.396 143.873 432.272C145.196 431.197 146.126 430.061 146.663 428.862C147.242 427.663 147.531 426.403 147.531 425.08C147.531 424.212 147.407 423.303 147.159 422.352C146.953 421.401 146.622 420.471 146.167 419.562C145.754 418.611 145.237 417.743 144.617 416.958C143.997 416.131 143.274 415.429 142.447 414.85ZM172.847 414.602C172.805 414.313 172.785 413.548 172.785 412.308C172.785 411.027 172.785 409.539 172.785 407.844C172.826 406.149 172.867 404.351 172.909 402.45C172.991 400.507 173.053 398.73 173.095 397.118C173.136 395.465 173.177 394.101 173.219 393.026C173.26 391.951 173.281 391.393 173.281 391.352H173.157C172.826 391.311 172.165 391.311 171.173 391.352C170.181 391.352 169.147 391.373 168.073 391.414C166.998 391.414 165.985 391.435 165.035 391.476C164.125 391.476 163.588 391.476 163.423 391.476C163.381 391.476 163.361 391.497 163.361 391.538C161.046 395.01 159.103 398.027 157.533 400.59C156.003 403.153 154.722 405.343 153.689 407.162C152.697 408.939 151.911 410.386 151.333 411.502C150.754 412.577 150.258 413.403 149.845 413.982C149.762 416.462 149.824 418.508 150.031 420.12C150.237 421.732 150.382 422.683 150.465 422.972C150.506 423.055 150.837 423.117 151.457 423.158C152.077 423.158 152.841 423.158 153.751 423.158C154.701 423.158 155.714 423.158 156.789 423.158C157.905 423.117 158.938 423.096 159.889 423.096C160.881 423.096 161.728 423.117 162.431 423.158C163.133 423.199 163.567 423.241 163.733 423.282C163.733 423.365 163.712 423.716 163.671 424.336C163.629 424.956 163.567 425.7 163.485 426.568C163.443 427.436 163.381 428.366 163.299 429.358C163.257 430.35 163.216 431.28 163.175 432.148C163.133 432.975 163.092 433.677 163.051 434.256C163.009 434.835 163.009 435.145 163.051 435.186C165.903 435.145 168.031 435.124 169.437 435.124C170.883 435.165 171.731 435.041 171.979 434.752C172.02 434.587 172.061 434.194 172.103 433.574C172.144 432.954 172.185 432.231 172.227 431.404C172.309 430.577 172.371 429.73 172.413 428.862C172.495 427.953 172.557 427.126 172.599 426.382C172.681 425.597 172.743 424.977 172.785 424.522C172.826 424.026 172.847 423.799 172.847 423.84C173.425 423.716 174.025 423.716 174.645 423.84C175.306 423.923 175.967 423.861 176.629 423.654L177.001 414.664C176.505 414.664 175.885 414.623 175.141 414.54C174.397 414.457 173.756 414.457 173.219 414.54L172.847 414.602ZM165.407 414.726C165.117 414.767 164.518 414.788 163.609 414.788C162.741 414.788 161.831 414.788 160.881 414.788C159.93 414.747 159.083 414.726 158.339 414.726C157.595 414.685 157.223 414.664 157.223 414.664C157.264 414.581 157.491 414.168 157.905 413.424C158.359 412.68 158.897 411.791 159.517 410.758C160.137 409.683 160.798 408.567 161.501 407.41C162.203 406.211 162.844 405.137 163.423 404.186C164.043 403.235 164.539 402.491 164.911 401.954C165.324 401.375 165.551 401.21 165.593 401.458L165.407 414.726ZM186.737 435V434.938V434.876C186.737 434.587 186.757 434.049 186.799 433.264C186.84 432.479 186.881 431.673 186.923 430.846C186.964 430.019 187.005 429.296 187.047 428.676C187.088 428.015 187.109 427.663 187.109 427.622C186.819 427.498 186.323 427.415 185.621 427.374C184.959 427.291 184.236 427.25 183.451 427.25C182.665 427.25 181.88 427.291 181.095 427.374C180.351 427.457 179.772 427.581 179.358 427.746C179.358 428.035 179.338 428.49 179.297 429.11C179.297 429.73 179.276 430.391 179.235 431.094C179.235 431.797 179.235 432.499 179.235 433.202C179.276 433.905 179.338 434.483 179.421 434.938H179.607L186.613 435H186.737ZM218.447 405.798C218.405 403.69 218.281 401.644 218.075 399.66C217.868 397.676 217.289 395.961 216.339 394.514C215.719 393.563 214.975 392.861 214.107 392.406C213.239 391.91 212.288 391.579 211.255 391.414C210.263 391.207 209.209 391.104 208.093 391.104C207.018 391.104 205.964 391.083 204.931 391.042C202.657 391.125 200.467 391.538 198.359 392.282C196.251 393.026 194.515 394.204 193.151 395.816C192.861 396.147 192.613 396.498 192.407 396.87C192.2 397.201 191.993 397.552 191.787 397.924C191.415 398.833 191.146 399.887 190.981 401.086C190.815 402.285 190.753 403.525 190.795 404.806C190.877 406.046 191.063 407.265 191.353 408.464C191.683 409.663 192.138 410.696 192.717 411.564C193.502 412.763 194.453 413.796 195.569 414.664C196.726 415.491 197.966 416.131 199.289 416.586C200.653 417.041 202.058 417.268 203.505 417.268C204.993 417.227 206.419 416.917 207.783 416.338L207.845 416.4C207.886 417.185 207.886 418.012 207.845 418.88C207.803 419.748 207.659 420.554 207.411 421.298C207.204 422.042 206.853 422.662 206.357 423.158C205.902 423.654 205.303 423.943 204.559 424.026C203.608 424.109 202.761 423.861 202.017 423.282C201.314 422.662 200.859 421.939 200.653 421.112C199.123 420.905 197.47 420.864 195.693 420.988C193.957 421.112 192.365 421.195 190.919 421.236V421.546C190.505 424.729 191.001 427.374 192.407 429.482C193.109 430.515 194.039 431.425 195.197 432.21C196.395 432.995 197.697 433.636 199.103 434.132C200.549 434.628 202.058 434.959 203.629 435.124C205.199 435.331 206.708 435.331 208.155 435.124C209.643 434.917 211.027 434.525 212.309 433.946C213.59 433.326 214.665 432.499 215.533 431.466C216.401 430.267 217.083 428.965 217.579 427.56C218.075 426.113 218.426 424.625 218.633 423.096C218.798 421.732 218.839 420.389 218.757 419.066C218.674 417.702 218.612 416.338 218.571 414.974L218.447 405.798ZM209.023 405.116C208.94 405.323 208.899 405.467 208.899 405.55C208.899 405.591 208.857 405.715 208.775 405.922C208.692 406.087 208.63 406.211 208.589 406.294C208.589 406.335 208.527 406.459 208.403 406.666C208.072 407.162 207.597 407.534 206.977 407.782C206.398 408.03 205.778 408.133 205.117 408.092C204.497 408.051 203.877 407.865 203.257 407.534C202.678 407.203 202.244 406.728 201.955 406.108V406.046C201.831 405.715 201.727 405.364 201.645 404.992C201.603 404.579 201.562 404.165 201.521 403.752C201.521 403.132 201.707 402.636 202.079 402.264C202.451 401.892 202.905 401.603 203.443 401.396C204.063 401.107 204.724 400.983 205.427 401.024C206.129 401.024 206.749 401.169 207.287 401.458C207.865 401.747 208.32 402.14 208.651 402.636C208.981 403.132 209.126 403.69 209.085 404.31C209.085 404.641 209.064 404.909 209.023 405.116ZM250.234 405.798C250.192 403.69 250.068 401.644 249.862 399.66C249.655 397.676 249.076 395.961 248.126 394.514C247.506 393.563 246.762 392.861 245.894 392.406C245.026 391.91 244.075 391.579 243.042 391.414C242.05 391.207 240.996 391.104 239.88 391.104C238.805 391.104 237.751 391.083 236.718 391.042C234.444 391.125 232.254 391.538 230.146 392.282C228.038 393.026 226.302 394.204 224.938 395.816C224.648 396.147 224.4 396.498 224.194 396.87C223.987 397.201 223.78 397.552 223.574 397.924C223.202 398.833 222.933 399.887 222.768 401.086C222.602 402.285 222.54 403.525 222.582 404.806C222.664 406.046 222.85 407.265 223.14 408.464C223.47 409.663 223.925 410.696 224.504 411.564C225.289 412.763 226.24 413.796 227.356 414.664C228.513 415.491 229.753 416.131 231.076 416.586C232.44 417.041 233.845 417.268 235.292 417.268C236.78 417.227 238.206 416.917 239.57 416.338L239.632 416.4C239.673 417.185 239.673 418.012 239.632 418.88C239.59 419.748 239.446 420.554 239.198 421.298C238.991 422.042 238.64 422.662 238.144 423.158C237.689 423.654 237.09 423.943 236.346 424.026C235.395 424.109 234.548 423.861 233.804 423.282C233.101 422.662 232.646 421.939 232.44 421.112C230.91 420.905 229.257 420.864 227.48 420.988C225.744 421.112 224.152 421.195 222.706 421.236V421.546C222.292 424.729 222.788 427.374 224.194 429.482C224.896 430.515 225.826 431.425 226.984 432.21C228.182 432.995 229.484 433.636 230.89 434.132C232.336 434.628 233.845 434.959 235.416 435.124C236.986 435.331 238.495 435.331 239.942 435.124C241.43 434.917 242.814 434.525 244.096 433.946C245.377 433.326 246.452 432.499 247.32 431.466C248.188 430.267 248.87 428.965 249.366 427.56C249.862 426.113 250.213 424.625 250.42 423.096C250.585 421.732 250.626 420.389 250.544 419.066C250.461 417.702 250.399 416.338 250.358 414.974L250.234 405.798ZM240.81 405.116C240.727 405.323 240.686 405.467 240.686 405.55C240.686 405.591 240.644 405.715 240.562 405.922C240.479 406.087 240.417 406.211 240.376 406.294C240.376 406.335 240.314 406.459 240.19 406.666C239.859 407.162 239.384 407.534 238.764 407.782C238.185 408.03 237.565 408.133 236.904 408.092C236.284 408.051 235.664 407.865 235.044 407.534C234.465 407.203 234.031 406.728 233.742 406.108V406.046C233.618 405.715 233.514 405.364 233.432 404.992C233.39 404.579 233.349 404.165 233.308 403.752C233.308 403.132 233.494 402.636 233.866 402.264C234.238 401.892 234.692 401.603 235.23 401.396C235.85 401.107 236.511 400.983 237.214 401.024C237.916 401.024 238.536 401.169 239.074 401.458C239.652 401.747 240.107 402.14 240.438 402.636C240.768 403.132 240.913 403.69 240.872 404.31C240.872 404.641 240.851 404.909 240.81 405.116Z" fill="black"/>
<path d="M243.511 172.943C243.621 172.207 243.498 171.442 243.099 170.794L225.407 142.629C224.995 141.967 224.348 141.511 223.605 141.363L179.831 132.505C179.102 132.358 178.331 132.534 177.726 132.99L151.629 152.297C150.157 153.518 150.46 155.196 150.474 155.284C150.474 155.314 150.474 155.343 150.474 155.372C150.529 155.682 150.639 155.976 150.79 156.241C150.79 156.255 150.79 156.255 150.804 156.27L185.113 218.693C185.127 218.707 185.141 218.722 185.141 218.737C185.265 218.958 185.416 219.178 185.595 219.355C185.595 219.355 185.595 219.37 185.609 219.37C185.677 219.443 185.76 219.473 185.829 219.546C185.897 219.605 185.966 219.664 186.035 219.708C186.104 219.752 186.159 219.811 186.241 219.855C186.475 219.988 186.737 220.076 186.998 220.135C187.259 220.194 187.521 220.194 187.796 220.164C187.878 220.15 187.961 220.12 188.044 220.105C188.126 220.091 188.209 220.061 188.291 220.032C188.374 220.002 188.47 220.002 188.566 219.958C188.566 219.958 188.566 219.958 188.58 219.958C188.814 219.855 189.02 219.723 189.227 219.561C189.24 219.546 189.254 219.546 189.268 219.546L189.282 219.532L242.507 174.841C242.521 174.841 242.521 174.826 242.521 174.812C242.741 174.62 242.947 174.399 243.112 174.135C243.126 174.105 243.14 174.076 243.154 174.046C243.195 173.973 243.222 173.884 243.264 173.796C243.36 173.561 243.511 172.943 243.511 172.943Z" fill="url(#paint3_linear_140:21281)"/>
<g filter="url(#filter3_d_140:21281)">
<path d="M187.508 229.214C186.806 229.214 186.118 229.14 185.444 229.008C184.371 228.787 183.353 228.419 182.404 227.889L181.207 227.109C181.152 227.065 181.097 227.036 181.056 226.992L180.574 226.668L178.634 224.696L177.864 223.342L142.963 159.993L142.798 159.286C142.55 158.639 142.358 157.962 142.22 157.285L142.027 155.637C141.821 152.223 142.894 148.103 146.443 145.145L146.829 144.85L172.898 125.544C175.374 123.719 178.469 123.013 181.4 123.616L225.174 132.475C228.118 133.063 230.759 134.932 232.424 137.596L250.115 165.761C251.697 168.277 252.316 171.338 251.849 174.384L251.684 175.208C251.395 176.4 251.12 177.121 250.941 177.519L250.624 178.225C250.5 178.49 250.349 178.755 250.198 179.02C249.785 179.696 249.317 180.314 248.795 180.888L248.354 181.492L247.46 182.139L193.85 227.124C193.602 227.301 193.341 227.477 193.093 227.639L192.969 227.713C192.57 227.948 192.171 228.154 191.745 228.331L190.314 228.802C190.218 228.831 190.121 228.861 190.025 228.875L188.705 229.125C188.292 229.199 187.893 229.214 187.508 229.214ZM160.764 156.534L189.131 208.141L233.153 171.176L219.713 149.78L180.588 141.863L160.764 156.534ZM218.392 147.676C218.392 147.69 218.392 147.69 218.392 147.676V147.676ZM178.249 141.392H178.263H178.249Z" fill="url(#paint4_linear_140:21281)"/>
</g>
<path d="M243.622 172.972C243.649 172.236 243.498 171.456 243.099 170.809L225.408 142.629C224.995 141.967 224.348 141.511 223.605 141.363L179.831 132.505C179.102 132.358 178.331 132.534 177.726 132.99L151.629 152.297C151.038 152.621 150.515 153.607 150.433 154.122C150.377 154.49 150.267 155.269 150.79 156.241C150.79 156.255 150.79 156.255 150.804 156.27L185.114 218.693C185.458 219.223 186.888 221.592 189.461 219.826C190.382 219.193 242.507 174.826 242.507 174.826C242.521 174.826 242.521 174.812 242.521 174.797C242.755 174.606 243.58 173.767 243.622 172.972Z" fill="white"/>
<path d="M187.672 225.329C185.292 225.329 183.023 224.02 181.399 221.503L181.193 221.165L146.526 158.021C145.906 156.697 145.673 155.049 145.948 153.327C146.223 151.635 147.337 149.398 149.194 148.206L175.126 128.988C176.722 127.796 178.744 127.34 180.656 127.737L224.444 136.596C226.357 136.978 228.09 138.2 229.177 139.936L246.868 168.101C247.79 169.573 248.23 171.324 248.161 173.193V173.207C248.065 175.488 246.772 177.195 245.919 178.064L245.713 178.373L245.19 178.74C210.578 208.215 192.652 223.402 191.909 223.917C190.534 224.858 189.089 225.329 187.672 225.329ZM155.536 155.314L188.209 214.764C194.207 209.731 220.097 187.717 238.435 172.104L222.051 145.984L179.693 137.42L155.536 155.314ZM243.622 172.972H243.649H243.622Z" fill="white"/>
<path d="M174.314 162.068L152.702 157.698C151.588 157.477 150.721 156.564 150.488 155.372C150.254 154.195 150.708 152.974 151.629 152.297L177.712 132.99C178.331 132.534 179.088 132.358 179.817 132.505L190.63 134.697C191.579 134.889 192.377 135.595 192.721 136.566C193.065 137.537 192.927 138.626 192.336 139.45L177.052 160.935C176.419 161.847 175.36 162.274 174.314 162.068Z" fill="#40D7FF"/>
<path d="M174.314 162.068L152.702 157.698C151.588 157.477 150.721 156.564 150.488 155.372C150.254 154.195 150.708 152.974 151.629 152.297L177.712 132.99C178.331 132.534 179.088 132.358 179.817 132.505L190.63 134.697C191.579 134.889 192.377 135.595 192.721 136.566C193.065 137.537 192.927 138.626 192.336 139.45L177.052 160.935C176.419 161.847 175.36 162.274 174.314 162.068Z" fill="url(#paint5_linear_140:21281)"/>
<path d="M240.265 175.415L218.653 171.045C217.607 170.839 216.768 170.015 216.479 168.926L209.601 142.938C209.339 141.938 209.573 140.864 210.234 140.098C210.894 139.333 211.871 138.98 212.82 139.171L223.633 141.364C224.362 141.511 225.022 141.967 225.435 142.629L243.126 170.795C243.759 171.795 243.759 173.105 243.14 174.106C242.493 175.121 241.365 175.636 240.265 175.415Z" fill="#40D7FF"/>
<path d="M171.769 158.433L190.63 134.697L212.792 139.185L222.202 168.631L171.769 158.433Z" fill="#D2F0FF"/>
<path d="M216.204 167.424L185.224 215.484C184.439 216.706 184.605 218.354 185.609 219.369C186.008 219.766 186.489 220.031 186.998 220.134C187.769 220.296 188.594 220.105 189.241 219.546L242.493 174.84C243.058 174.369 243.415 173.693 243.525 172.972L216.204 167.424Z" fill="#00A4CF"/>
<path d="M224.376 172.486L230.814 177.754L204.346 204.845L240.265 175.415L224.376 172.486Z" fill="#40D7FF"/>
<path d="M177.822 159.654L150.487 154.121C150.336 154.842 150.446 155.607 150.804 156.27L185.113 218.692C185.54 219.457 186.242 219.958 187.012 220.12C187.521 220.223 188.057 220.178 188.566 219.958C189.846 219.413 190.561 217.942 190.245 216.5L177.822 159.654Z" fill="#2BBFFF"/>
<path d="M171.769 158.434L184.797 217.869C185.045 219.017 185.911 219.9 186.998 220.12C188.085 220.341 189.185 219.856 189.818 218.884L222.202 168.631L171.769 158.434Z" fill="#8CE7FF"/>
<path d="M196.986 163.539L222.202 168.631L212.792 139.17L201.691 136.919L196.986 163.539Z" fill="#2BBFFF"/>
<path d="M186.999 220.12C188.085 220.34 189.186 219.855 189.819 218.884L222.202 168.631L197.014 163.539L186.999 220.12Z" fill="#40D7FF"/>
<path d="M187.659 222.283C186.187 222.283 184.825 221.43 183.752 219.767L149.346 157.182C149.318 157.124 149.291 157.065 149.263 157.006C148.479 155.564 148.699 154.239 148.768 153.813C148.919 152.9 149.662 151.311 150.873 150.664L176.749 131.489C177.726 130.768 178.978 130.489 180.133 130.724L223.922 139.583C225.091 139.818 226.15 140.569 226.811 141.628L244.502 169.794C245.08 170.721 245.355 171.839 245.314 173.046C245.245 174.576 244.062 175.768 243.663 176.136C243.594 176.209 243.511 176.268 243.443 176.327C234.845 183.655 191.332 220.694 190.382 221.356C189.461 221.974 188.553 222.283 187.659 222.283ZM152.331 155.49L186.572 217.78C187.218 218.766 187.672 218.913 188.553 218.31C189.818 217.339 227.058 185.671 241.393 173.472C241.462 173.414 241.53 173.355 241.599 173.296C241.64 173.252 241.874 172.957 241.943 172.795C241.943 172.413 241.861 172.06 241.709 171.81L224.004 143.644C223.839 143.379 223.578 143.203 223.289 143.144L179.514 134.285C179.226 134.226 178.923 134.3 178.675 134.477L152.592 153.783C152.331 153.975 152.138 154.298 152.097 154.46C152.069 154.622 152.028 154.902 152.262 155.314C152.276 155.372 152.303 155.431 152.331 155.49ZM243.621 172.972H243.649H243.621Z" fill="#00A4CF"/>
<path d="M156.953 158.065L164.395 172.486L162.758 162.377L169.94 159.949L156.953 158.065Z" fill="#40D7FF"/>
<defs>
<filter id="filter0_d_140:21281" x="-0.0651855" y="0" width="402.566" height="346" filterUnits="userSpaceOnUse" color-interpolation-filters="sRGB">
<feFlood flood-opacity="0" result="BackgroundImageFix"/>
<feColorMatrix in="SourceAlpha" type="matrix" values="0 0 0 0 0 0 0 0 0 0 0 0 0 0 0 0 0 0 127 0" result="hardAlpha"/>
<feOffset/>
<feGaussianBlur stdDeviation="17"/>
<feComposite in2="hardAlpha" operator="out"/>
<feColorMatrix type="matrix" values="0 0 0 0 1 0 0 0 0 1 0 0 0 0 1 0 0 0 1 0"/>
<feBlend mode="normal" in2="BackgroundImageFix" result="effect1_dropShadow_140:21281"/>
<feBlend mode="normal" in="SourceGraphic" in2="effect1_dropShadow_140:21281" result="shape"/>
</filter>
<filter id="filter1_d_140:21281" x="-0.0651855" y="0" width="402.566" height="340" filterUnits="userSpaceOnUse" color-interpolation-filters="sRGB">
<feFlood flood-opacity="0" result="BackgroundImageFix"/>
<feColorMatrix in="SourceAlpha" type="matrix" values="0 0 0 0 0 0 0 0 0 0 0 0 0 0 0 0 0 0 127 0" result="hardAlpha"/>
<feOffset/>
<feGaussianBlur stdDeviation="17"/>
<feComposite in2="hardAlpha" operator="out"/>
<feColorMatrix type="matrix" values="0 0 0 0 1 0 0 0 0 0 0 0 0 0 0.9 0 0 0 0.85 0"/>
<feBlend mode="normal" in2="BackgroundImageFix" result="effect1_dropShadow_140:21281"/>
<feBlend mode="normal" in="SourceGraphic" in2="effect1_dropShadow_140:21281" result="shape"/>
</filter>
<filter id="filter2_d_140:21281" x="53.9783" y="372.749" width="274.51" height="148.117" filterUnits="userSpaceOnUse" color-interpolation-filters="sRGB">
<feFlood flood-opacity="0" result="BackgroundImageFix"/>
<feColorMatrix in="SourceAlpha" type="matrix" values="0 0 0 0 0 0 0 0 0 0 0 0 0 0 0 0 0 0 127 0" result="hardAlpha"/>
<feOffset dy="35"/>
<feGaussianBlur stdDeviation="12.5"/>
<feComposite in2="hardAlpha" operator="out"/>
<feColorMatrix type="matrix" values="0 0 0 0 0 0 0 0 0 0 0 0 0 0 0 0 0 0 0.2 0"/>
<feBlend mode="normal" in2="BackgroundImageFix" result="effect1_dropShadow_140:21281"/>
<feBlend mode="normal" in="SourceGraphic" in2="effect1_dropShadow_140:21281" result="shape"/>
</filter>
<filter id="filter3_d_140:21281" x="136.003" y="117.405" width="121.998" height="117.809" filterUnits="userSpaceOnUse" color-interpolation-filters="sRGB">
<feFlood flood-opacity="0" result="BackgroundImageFix"/>
<feColorMatrix in="SourceAlpha" type="matrix" values="0 0 0 0 0 0 0 0 0 0 0 0 0 0 0 0 0 0 127 0" result="hardAlpha"/>
<feOffset/>
<feGaussianBlur stdDeviation="3"/>
<feComposite in2="hardAlpha" operator="out"/>
<feColorMatrix type="matrix" values="0 0 0 0 1 0 0 0 0 0 0 0 0 0 0.9 0 0 0 1 0"/>
<feBlend mode="normal" in2="BackgroundImageFix" result="effect1_dropShadow_140:21281"/>
<feBlend mode="normal" in="SourceGraphic" in2="effect1_dropShadow_140:21281" result="shape"/>
</filter>
<linearGradient id="paint0_linear_140:21281" x1="201.25" y1="37" x2="201.25" y2="303" gradientUnits="userSpaceOnUse">
<stop stop-color="#050EA3"/>
<stop offset="1" stop-color="#00033A"/>
</linearGradient>
<linearGradient id="paint1_linear_140:21281" x1="316.875" y1="307" x2="146.875" y2="37" gradientUnits="userSpaceOnUse">
<stop stop-color="white"/>
<stop offset="1" stop-color="white" stop-opacity="0"/>
</linearGradient>
<linearGradient id="paint2_linear_140:21281" x1="92.8296" y1="356.919" x2="299.668" y2="452.952" gradientUnits="userSpaceOnUse">
<stop stop-color="#FFE600"/>
<stop offset="0.546374" stop-color="#FFC700"/>
<stop offset="0.9994" stop-color="#FFC700"/>
</linearGradient>
<linearGradient id="paint3_linear_140:21281" x1="150.44" y1="176.313" x2="243.549" y2="176.313" gradientUnits="userSpaceOnUse">
<stop offset="0.00308058" stop-color="#160052"/>
<stop offset="0.9946" stop-color="#230D33"/>
</linearGradient>
<linearGradient id="paint4_linear_140:21281" x1="142" y1="176.313" x2="252.006" y2="176.313" gradientUnits="userSpaceOnUse">
<stop offset="0.00308058" stop-color="#160052"/>
<stop offset="0.9946" stop-color="#230D33"/>
</linearGradient>
<linearGradient id="paint5_linear_140:21281" x1="164.804" y1="142.988" x2="187.027" y2="152.065" gradientUnits="userSpaceOnUse">
<stop stop-color="white" stop-opacity="0.4"/>
<stop offset="0.8649" stop-color="#00E5FF" stop-opacity="0"/>
</linearGradient>
</defs>
</svg>
